<?xml version="1.0" encoding="utf-8"?>
<!-- Generator: Adobe Illustrator 24.2.0, SVG Export Plug-In . SVG Version: 6.00 Build 0)  -->
<svg version="1.1" id="Слой_1" xmlns="http://www.w3.org/2000/svg" xmlns:xlink="http://www.w3.org/1999/xlink" x="0px" y="0px"
	 viewBox="0 0 88 88" style="enable-background:new 0 0 88 88;" xml:space="preserve">
<style type="text/css">
	.st0{fill:#003974;}
	.st1{fill:#FFFFFF; stroke:#FFFFFF;stroke-width:1;stroke-miterlimit:10;}
	.st2{fill:#FFFFFF;stroke:#FFFFFF;stroke-width:0.5;stroke-miterlimit:10;}
	.st3{fill:none;stroke:#FFFFFF;stroke-width:0.75;stroke-miterlimit:10;}
</style>
<g>
	<circle class="st0" cx="44" cy="44" r="37.91"/>
	<g>
		<g>
			<g>
				<g>
					<path class="st1" d="M55.78,48.11c-0.08,0.28-0.33,0.48-0.51,0.7c-0.18,0.23-0.32,0.48-0.31,0.77
						c0.01,0.67,0.63,1.14,1.21,1.32c0.65,0.2,1.39,0.15,1.97,0.53c0.27,0.18,0.47,0.44,0.48,0.77c0.01,0.4-0.22,0.78-0.42,1.12
						c-0.09,0.16,0.08,0.26,0.21,0.28c0.17,0.02,0.38-0.06,0.47-0.21c0.35-0.59,0.69-1.32,0.24-1.96c-0.39-0.55-1.1-0.72-1.72-0.82
						c-0.64-0.11-1.58-0.25-1.71-1.04c-0.05-0.31,0.13-0.54,0.33-0.76c0.21-0.23,0.39-0.46,0.48-0.76c0.05-0.17-0.22-0.22-0.33-0.21
						C56.01,47.84,55.83,47.94,55.78,48.11L55.78,48.11z"/>
				</g>
			</g>
			<g>
				<g>
					<g>
						<g>
							<path class="st1" d="M48.84,22.37c-1.05-0.31-2.2-0.54-3.21,0.03c-0.34,0.2-0.64,0.46-0.81,0.82
								c-0.3,0.65,0.05,1.06,0.28,1.67c0.33,0.89,0.09,1.87-0.13,2.77c-0.09,0.37-0.19,0.73-0.34,1.08
								c-0.07,0.17-0.15,0.34-0.25,0.5c-0.14,0.19-0.29,0.37-0.43,0.56c-0.63,0.08-1.25,0.16-1.88,0.25
								c-1.27-0.66-0.78-2.79-0.71-3.84c0.15-2.25-2.73-0.76-3.28,0.37c-0.24,0.5-0.32,1.08-0.18,1.61
								c0.08,0.32,0.28,0.58,0.41,0.87c0.06,0.12,0.19,0.31,0.18,0.45c-0.02,0.46-1.08,1.02-1.52,0.99
								c-1.63-0.11-2.93-2.06-3.5-3.37c-0.37-0.86-0.36-2.44-1.55-2.51c-0.68-0.04-1.35,0.39-1.66,0.98
								c-0.68,1.26,0.21,2.46,1.03,3.37c0.89,0.99,3.35,4.27,0.67,4.67c-0.98,0.15-1.22-0.31-1.93-0.9
								c-0.34-0.29-0.7-0.56-1.14-0.66c-0.68-0.16-1.53,0.1-1.94,0.68c-0.72,1.01,0.14,1.96,1.15,2.11
								c1.02,0.15,1.88-0.08,2.11,1.16c0.15,0.78-0.16,1.6-0.56,2.26c-0.81,1.31-2.63,2.21-3.95,1.06
								c-0.56-0.49-0.73-1.33-1.39-1.72c-0.71-0.43-1.75-0.22-2.42,0.22c-0.96,0.63-1.08,1.83-0.19,2.59
								c0.73,0.62,1.67,0.58,2.48,0.18c0.43-0.21-0.23-0.23-0.43-0.13c-0.85,0.42-1.88-0.52-1.95-1.32
								c-0.08-0.8,0.31-0.95,0.98-1.15c0.93-0.27,1.01-0.12,1.56,0.67c0.68,0.98,1.33,1.59,2.6,1.57c1.85-0.02,3.55-1.51,3.95-3.3
								c0.17-0.77,0.11-1.76-0.62-2.21c-0.43-0.26-0.83-0.15-1.28-0.2c-0.62-0.07-1.43-0.26-1.55-0.95
								c-0.2-1.13,1.14-1.21,1.81-0.68c1.16,0.93,2.44,2.1,3.86,0.81c2.48-2.24-1.45-4.61-2.19-6.47c-0.19-0.47-0.33-1.34,0.05-1.77
								c1.14-1.28,1.4,0.87,1.57,1.34c0.41,1.16,1.08,2.29,2.04,3.09c0.99,0.82,3.69,1.78,4.55,0.19c0.51-0.94-0.69-1.93-0.54-2.96
								c0.04-0.3,0.12-0.56,0.27-0.82c0.33-0.59,1.66-1.22,1.79-0.25c0.07,0.56-0.19,1.25-0.18,1.83c0.01,2.22,1.86,3.58,3.8,2.15
								c1.14-0.84,1.53-2.51,1.68-3.83c0.08-0.68-0.01-1.18-0.27-1.82c-0.78-1.87,1.03-2.2,2.57-1.75
								C48.44,22.72,49.08,22.44,48.84,22.37L48.84,22.37z"/>
						</g>
					</g>
					<g>
						<g>
							<path class="st1" d="M48.52,23.46c0.2,0.81,0.2,1.63-0.04,2.42c-0.25,0.84-0.83,1.48-1.24,2.24
								c-0.47,0.87-0.63,2.28,0.48,2.74c0.92,0.38,2-0.21,2.53-0.97c0.31-0.45,0.36-0.97,0.58-1.46c0.24-0.53,0.8-0.59,1.17-0.16
								c0.33,0.37,0.36,0.88,0.22,1.34c-0.32,1.09-2.08,2.06-1.28,3.33c0.59,0.94,1.91,1.1,2.9,0.91c1.13-0.22,2.19-0.88,2.84-1.84
								c0.37-0.54,0.45-1.18,0.78-1.72c0.87-1.45,2.04,0.44,2.25,1.23c0.12,0.45,0.19,0.99-0.1,1.39c-0.27,0.37-0.71,0.42-1.14,0.46
								c-0.67,0.07-1.33,0.1-1.94,0.42c-1.16,0.62-1.63,1.96-1.98,3.15c-0.09,0.3,0.65,0.21,0.73-0.07c0.19-0.64,0.4-1.29,0.75-1.86
								c0.47-0.77,1.12-1.05,1.99-1.13c0.97-0.09,2.19-0.24,2.47-1.37c0.26-1.09-0.44-2.66-1.52-3.06
								c-1.19-0.44-2.05,0.32-2.44,1.38c-0.55,1.47-1.76,2.79-3.48,2.63c-0.63-0.06-1.44-0.43-1.57-1.12
								c-0.16-0.83,0.8-1.46,1.18-2.11c0.56-0.98,0.49-2.45-0.82-2.74c-1.05-0.23-1.62,0.59-1.9,1.47c-0.23,0.7-1.12,2.26-2.03,1.29
								c-0.6-0.63-0.27-1.61,0.11-2.25c0.42-0.72,0.93-1.36,1.18-2.18c0.25-0.83,0.24-1.7,0.03-2.54
								C49.17,22.97,48.44,23.16,48.52,23.46L48.52,23.46z"/>
						</g>
					</g>
					<g>
						<g>
							<path class="st1" d="M25.79,41.29c1.42,0.11,3.25,0.35,3.76,1.93c0.24,0.74,0.12,1.56-0.31,2.2
								c-0.59,0.88-1.51,1.05-2.49,1.1c-0.76,0.03-1.94,0.26-1.9,1.26c0.04,1.02,1.19,1.25,1.99,0.98c0.43-0.15,0.75-0.42,1.05-0.76
								c0.17-0.19,0.36-0.56,0.6-0.66c0.65-0.29,1.21,0.29,1.46,0.82c0.73,1.51-0.03,3.11-1.36,3.95c-1.05,0.67-2.31,1.14-2.97,2.27
								c-0.54,0.91-0.41,2.08,0.75,2.32c3.12,0.66,3.72-3.65,5.51-5.09c0.32-0.26-0.4-0.25-0.58-0.11c-0.96,0.78-1.41,1.88-2,2.94
								c-0.33,0.59-0.75,1.2-1.33,1.58c-1.03,0.67-2.22,0.1-1.89-1.17c0.37-1.42,2.05-1.94,3.14-2.66c0.95-0.64,1.63-1.54,1.71-2.71
								c0.06-0.99-0.34-2.24-1.37-2.6c-0.76-0.26-1.47,0.11-1.98,0.66c-0.2,0.22-0.36,0.51-0.6,0.68c-0.73,0.53-1.5-0.02-1.42-0.73
								c0.1-0.8,1.38-0.56,1.96-0.65c1-0.16,1.98-0.72,2.5-1.62c0.6-1.04,0.47-2.45-0.44-3.27c-0.94-0.86-2.31-0.97-3.52-1.07
								C25.8,40.87,25.3,41.25,25.79,41.29L25.79,41.29z"/>
						</g>
					</g>
					<g>
						<g>
							<path class="st1" d="M32.12,51.79c0.08-0.15,0.01,0.02-0.1-0.04c0.03,0.02,0.13,0.03,0.17,0.04
								c0.12,0.04,0.23,0.09,0.34,0.15c0.25,0.15,0.48,0.33,0.71,0.51c0.46,0.37,0.9,0.81,1.11,1.37c0.49,1.33-0.68,2.31-1.58,3.07
								c-0.46,0.39-0.93,0.81-1.22,1.35c-0.13,0.25-0.22,0.52-0.26,0.8c-0.05,0.28-0.11,0.75,0.02,1.01c0.18,0.36,1,0.26,1.34,0.19
								c0.49-0.1,0.98-0.31,1.37-0.62c0.54-0.44,0.89-1.07,1.16-1.7c0.33-0.75,0.62-1.52,0.93-2.28c0.04-0.09-0.64-0.04-0.71,0.14
								c-0.27,0.66-0.53,1.32-0.8,1.97c-0.24,0.57-0.5,1.15-0.9,1.63c-0.42,0.49-1.66,1.16-1.72,0.09
								c-0.04-0.67,0.19-1.33,0.61-1.85c0.76-0.93,1.99-1.47,2.45-2.63c0.43-1.1-0.25-2.05-1.07-2.72c-0.4-0.33-0.86-0.71-1.39-0.78
								c-0.39-0.05-0.98,0.06-1.17,0.45C31.37,52.01,32.03,51.97,32.12,51.79L32.12,51.79z"/>
						</g>
					</g>
					<g>
						<g>
							<path class="st1" d="M36.7,55.94c0.33-1.1,1.66-0.68,2.11,0.09c0.49,0.85,0.37,1.97,0.16,2.88c-0.22,0.94-0.64,1.8-1.2,2.59
								c-0.42,0.59-1.02,1.26-0.98,2.04c0.07,1.15,1.36,1.41,2.25,1.03c1.46-0.62,1.43-2.38,1.51-3.71
								c0.09-1.66,0.63-4.84,2.98-4.53c2.24,0.3,1.22,2.66,1.19,4.08c-0.02,1.25,1.1,2.4,2.41,2.22c1.37-0.18,1.06-2.53,0.65-3.37
								c-0.38-0.79-1.31-1.65-1.1-2.6c0.23-1.08,1.92-1.44,2.85-1.29c1.15,0.19,1.39,1.53,1.67,2.46c0.35,1.16,0.7,2.33,1.05,3.49
								c0.1,0.34,0.83,0.15,0.72-0.19c-0.32-1.07-0.64-2.13-0.96-3.2c-0.25-0.82-0.43-1.82-1.02-2.48
								c-0.94-1.04-2.88-0.71-3.98-0.09c-1.47,0.83-1.14,2.18-0.38,3.39c0.28,0.44,0.55,0.87,0.67,1.38c0.08,0.36,0.23,1.5-0.12,1.8
								c-0.41,0.36-1.21-0.23-1.46-0.57c-0.35-0.48-0.29-1.1-0.2-1.65c0.21-1.35,0.61-2.89-0.87-3.67
								c-1.37-0.72-2.96-0.05-3.81,1.13c-1.13,1.57-0.86,3.44-1.13,5.24c-0.09,0.58-0.26,1.3-0.82,1.61
								c-0.47,0.27-1.16,0.17-1.33-0.41c-0.27-0.95,1.03-2.11,1.45-2.9c0.79-1.47,1.47-3.96,0.2-5.38c-0.85-0.95-2.81-0.86-3.21,0.5
								C35.88,56.26,36.6,56.26,36.7,55.94L36.7,55.94z"/>
						</g>
					</g>
					<g>
						<g>
							<path class="st1" d="M53.13,61.23c0.21,1.1,1.85,0.92,2.44,0.28c1-1.08,0.17-2.73-0.52-3.73c-0.82-1.18-2.36-2.56-2.13-4.14
								c0.14-0.95,1.04-1.29,1.84-0.83c0.3,0.17,0.55,0.43,0.75,0.72c0.23,0.34,0.31,0.74,0.52,1.08c0.39,0.64,1.21,0.73,1.89,0.74
								c0.26,0,0.66-0.01,0.83-0.24c0.17-0.24-0.04-0.37-0.27-0.37c-0.26-0.01-0.77,0.37-0.29,0.39c0.02,0,0.05,0,0.07,0
								c-0.06-0.02-0.13-0.04-0.19-0.06c-0.05-0.08,0.44-0.02,0.2-0.1c-0.07-0.03-0.18,0-0.26-0.01c-0.15-0.01-0.29-0.02-0.44-0.05
								c-0.41-0.08-0.73-0.28-0.92-0.67c-0.27-0.55-0.43-1.06-0.91-1.47c-0.8-0.7-2.06-0.76-2.91-0.1c-1.06,0.8-0.66,2.22-0.08,3.18
								c0.67,1.1,1.63,2.01,2.18,3.19c0.29,0.63,0.48,1.38,0.22,2.05c-0.13,0.34-0.38,0.62-0.77,0.52
								c-0.29-0.07-0.49-0.28-0.55-0.58C53.81,60.8,53.09,60.98,53.13,61.23L53.13,61.23z"/>
						</g>
					</g>
					<g>
						<g>
							<path class="st1" d="M56.52,47.75c0.19-0.67,1.01-0.78,1.61-0.79c0.63-0.02,1.27,0.11,1.86,0.34
								c0.58,0.23,1.11,0.58,1.55,1.02c0.37,0.37,0.67,0.88,1.18,1.09c1,0.41,1.85-0.46,2.03-1.37c0.21-1.04-0.03-2.33-1.05-2.84
								c-0.55-0.27-1.19-0.28-1.79-0.23c-0.83,0.07-1.66,0.27-2.49,0.42c-0.11,0.02-0.41,0.09-0.41,0.24
								c-0.01,0.15,0.2,0.16,0.31,0.14c0.68-0.12,1.36-0.26,2.05-0.37c0.56-0.08,1.17-0.13,1.7,0.11c1.05,0.48,1.24,2.02,0.86,2.99
								c-0.07,0.18-0.23,0.56-0.45,0.6c-0.25,0.04-0.55-0.29-0.7-0.45c-0.38-0.41-0.72-0.82-1.18-1.14
								c-0.86-0.6-1.88-0.93-2.93-0.96c-0.96-0.03-2.56,0.17-2.87,1.28C55.73,48.09,56.45,47.99,56.52,47.75L56.52,47.75z"/>
						</g>
					</g>
				</g>
				<g>
					<g>
						<path class="st1" d="M55.48,36.72c-0.95,0.81-0.83,2.32,0.21,3.01c1.13,0.76,2.64,0.42,3.61-0.43
							c0.25-0.21,0.47-0.45,0.66-0.71c0.08-0.11,0.19-0.34,0.33-0.4c0.23-0.1,0.43,0.25,0.5,0.44c0.25,0.69,0.35,1.75-0.01,2.41
							c-0.46,0.82-1.24,0.39-1.96,0.28c-0.74-0.12-1.36,0.17-1.91,0.64c-0.57,0.49-0.98,1.19-0.67,1.95
							c0.28,0.69,1.04,1.03,1.75,0.92c0.16-0.03,0.38-0.11,0.4-0.3c0.01-0.17-0.19-0.27-0.34-0.25c-0.71,0.11-1.3-0.52-1.16-1.23
							c0.14-0.68,1-1.3,1.68-1.2c0.61,0.09,1.18,0.36,1.8,0.19c0.57-0.16,1.02-0.62,1.21-1.17c0.23-0.66,0.15-1.41,0.02-2.09
							c-0.1-0.55-0.4-1.08-1-1.16c-0.68-0.1-0.99,0.44-1.35,0.89c-0.41,0.52-0.98,0.97-1.65,1.08c-0.66,0.11-1.41-0.14-1.78-0.71
							c-0.36-0.53-0.36-1.37,0.16-1.81C56.34,36.74,55.76,36.48,55.48,36.72L55.48,36.72z"/>
					</g>
				</g>
			</g>
		</g>
		<g>
			<g>
				<path class="st1" d="M21.65,26.88c-7.29,8.64-8.02,22.61-1.22,31.78c2.8,3.76,6.38,7.08,10.59,9.21
					c4.81,2.44,10.53,3.03,15.86,2.7c5.65-0.35,11.8-2.04,15.41-6.7c0.21-0.27-0.52-0.23-0.68-0.03c-3.35,4.33-9.04,5.91-14.28,6.28
					c-5.39,0.39-11.2-0.24-16.03-2.77c-3.92-2.05-7.26-5.14-9.94-8.65c-2.4-3.15-3.75-6.79-4.44-10.71
					c-1.31-7.46,0.5-15.26,5.41-21.09C22.54,26.66,21.81,26.69,21.65,26.88L21.65,26.88z"/>
			</g>
		</g>
		<g>
			<g>
				<path class="st1" d="M27.49,21.41c8.17-7.02,19.8-7.48,29.11-2.55c3.93,2.08,7.62,5.09,9.79,9.03c2.6,4.72,3.87,9.97,3.82,15.35
					c-0.06,6.01-1.8,11.57-5.62,16.25c-0.16,0.2,0.54,0.12,0.66-0.03c7.26-8.89,7.3-21.94,1.86-31.77
					c-4.48-8.1-15.11-13.06-24.17-12.51c-5.88,0.35-11.52,2.3-16.02,6.16C26.63,21.6,27.35,21.53,27.49,21.41L27.49,21.41z"/>
			</g>
		</g>
		<g>
			<g>
				<path class="st1" d="M21.67,22.38c10.62,11.96,22.44,22.77,34.16,33.63c3.42,3.17,6.84,6.34,10.27,9.51
					c0.22,0.2,0.9-0.09,0.67-0.31C54.94,54.26,42.9,43.48,31.6,31.97c-3.17-3.23-6.26-6.52-9.27-9.9
					C22.14,21.85,21.45,22.13,21.67,22.38L21.67,22.38z"/>
			</g>
		</g>
	</g>
</g>
</svg>
