<?xml version="1.0" encoding="utf-8"?>
<!-- Generator: Adobe Illustrator 24.2.0, SVG Export Plug-In . SVG Version: 6.00 Build 0)  -->
<svg version="1.1" id="Слой_1" xmlns="http://www.w3.org/2000/svg" xmlns:xlink="http://www.w3.org/1999/xlink" x="0px" y="0px"
	 viewBox="0 0 88 88" style="enable-background:new 0 0 88 88;" xml:space="preserve">
<style type="text/css">
	.st0{fill:#003974;}
	.st1{fill:#FFFFFF; stroke:#FFFFFF;stroke-width:1;stroke-miterlimit:10;}
	.st2{fill:#FFFFFF;stroke:#FFFFFF;stroke-width:0.5;stroke-miterlimit:10;}
	.st3{fill:none;stroke:#FFFFFF;stroke-width:0.75;stroke-miterlimit:10;}
</style>
<g>
	<circle class="st0" cx="44" cy="44" r="37.91"/>
	<g>
		<g>
			<g>
				<path class="st1" d="M43.43,27.87c-0.99,0.73-2.3,1.15-3.42,1.62c-2.14,0.88-4.31,1.69-6.49,2.48
					c-4.57,1.68-9.17,3.28-13.78,4.85c-1.37,0.47-2.73,0.93-4.1,1.39c-0.21,0.07-0.42,0.29-0.21,0.48c0.76,0.71,2.06,1.07,3,1.47
					c2.1,0.9,4.22,1.74,6.34,2.58c4.74,1.87,9.5,3.67,14.26,5.46c1.17,0.44,2.4,1.06,3.62,1.35c0.59,0.14,1.09-0.16,1.66-0.37
					c4.49-1.65,8.99-3.3,13.49-4.93c5.22-1.89,10.44-3.85,15.73-5.56c0.14-0.05,0.42-0.25,0.26-0.43c-0.48-0.53-1.52-0.77-2.16-1.01
					c-1.76-0.68-3.53-1.3-5.31-1.92c-4.97-1.74-9.97-3.4-14.97-5.06c-2.49-0.83-4.98-1.65-7.47-2.47c-0.33-0.11-0.85,0.37-0.41,0.51
					c5.95,1.96,11.9,3.92,17.83,5.94c2.68,0.91,5.35,1.83,8.01,2.8c0.88,0.32,1.76,0.64,2.63,1c0.32,0.13,1,0.33,1.2,0.55
					c0.09-0.14,0.17-0.29,0.26-0.43c-9.37,3.03-18.58,6.59-27.82,9.98c-0.65,0.24-1.29,0.47-1.93,0.71
					c-0.31,0.11-0.89,0.16-0.4,0.26c-0.86-0.17-1.77-0.66-2.59-0.96c-4.46-1.67-8.92-3.36-13.36-5.09
					c-2.52-0.98-5.04-1.97-7.53-3.02c-1.15-0.48-2.82-0.91-3.76-1.78c-0.07,0.16-0.14,0.32-0.21,0.48
					c8.05-2.67,16.12-5.39,23.99-8.56c1.37-0.55,2.94-1.06,4.15-1.94C44.32,27.94,43.74,27.64,43.43,27.87L43.43,27.87z"/>
			</g>
		</g>
		<g>
			<g>
				<path class="st1" d="M27.05,44.71c0.18,3.49,0.21,6.99,0.11,10.48c-0.01,0.35,0.72,0.23,0.73-0.07
					c0.1-3.54,0.06-7.07-0.12-10.61C27.76,44.22,27.03,44.38,27.05,44.71L27.05,44.71z"/>
			</g>
		</g>
		<g>
			<g>
				<path class="st1" d="M60.84,44.76c0.04,3.26,0.08,6.51,0.11,9.77c0,0.34,0.73,0.21,0.73-0.07c-0.04-3.26-0.08-6.51-0.11-9.77
					C61.57,44.35,60.84,44.48,60.84,44.76L60.84,44.76z"/>
			</g>
		</g>
		<g>
			<g>
				<path class="st1" d="M27.48,55.26c10.19,6.42,23.12,6.33,33.32-0.02c0.31-0.19-0.41-0.13-0.56-0.04
					c-9.85,6.14-22.28,5.98-32.07-0.19C27.98,54.89,27.36,55.18,27.48,55.26L27.48,55.26z"/>
			</g>
		</g>
		<g>
			<g>
				<path class="st1" d="M16.21,39.88c0,1.28,0,2.56,0,3.84c0,0.2,0.72,0.07,0.72-0.19c0-1.28,0-2.56,0-3.84
					C16.93,39.48,16.21,39.61,16.21,39.88L16.21,39.88z"/>
			</g>
		</g>
		<g>
			<g>
				<path class="st1" d="M16.44,43.16c-0.81,1.25-1.43,2.61-1.82,4.05c-0.34,1.26-0.77,2.96-0.21,4.21
					c0.47,1.04,1.66,1.42,2.65,0.88c1.16-0.64,1.1-2.19,0.89-3.31c-0.35-1.83-0.82-3.64-1.24-5.45c-0.04-0.17-0.77,0.01-0.72,0.19
					c0.38,1.68,0.78,3.35,1.15,5.03c0.18,0.81,0.35,1.71,0.09,2.53c-0.09,0.29-0.25,0.65-0.51,0.83c-0.41,0.28-0.89-0.03-1.18-0.31
					c-1.12-1.08-0.6-3.18-0.27-4.49c0.39-1.52,1.02-2.97,1.88-4.29c0.08-0.12-0.26-0.09-0.29-0.08
					C16.72,42.97,16.52,43.03,16.44,43.16L16.44,43.16z"/>
			</g>
		</g>
	</g>
</g>
</svg>
