<?xml version="1.0" encoding="utf-8"?>
<!-- Generator: Adobe Illustrator 24.2.0, SVG Export Plug-In . SVG Version: 6.00 Build 0)  -->
<svg version="1.1" id="Слой_1" xmlns="http://www.w3.org/2000/svg" xmlns:xlink="http://www.w3.org/1999/xlink" x="0px" y="0px"
	 viewBox="0 0 88 88" style="enable-background:new 0 0 88 88;" xml:space="preserve">
<style type="text/css">
	.st0{fill:#003974;}
	.st1{fill:#FFFFFF; stroke:#FFFFFF;stroke-width:1;stroke-miterlimit:10;}
	.st2{fill:#FFFFFF;stroke:#FFFFFF;stroke-width:0.5;stroke-miterlimit:10;}
	.st3{fill:none;stroke:#FFFFFF;stroke-width:0.75;stroke-miterlimit:10;}
</style>
<g>
	<circle class="st0" cx="44" cy="44" r="37.91"/>
	<g>
		<g>
			<g>
				<path class="st1" d="M55.42,20.48c0.53-0.54,1.2-1,1.99-0.92c0.71,0.07,1.36,0.58,1.78,1.14c0.5,0.67,0.66,1.49,0.38,2.28
					c-0.31,0.87-0.82,1.69-1.24,2.51c-0.19,0.37,0.54,0.38,0.69,0.09c0.28-0.55,0.56-1.1,0.84-1.64c0.23-0.44,0.45-0.88,0.54-1.37
					c0.19-0.94-0.2-1.87-0.85-2.54c-0.61-0.62-1.4-1.04-2.28-1.02c-0.97,0.02-1.8,0.58-2.45,1.25c-0.12,0.13-0.05,0.3,0.1,0.36
					C55.08,20.68,55.3,20.6,55.42,20.48L55.42,20.48z"/>
			</g>
		</g>
		<g>
			<g>
				<g>
					<path class="st1" d="M31.7,26.9c0.04,13.53,0.09,27.05,0.13,40.58c0,0.37,0.73,0.25,0.73-0.06
						c-0.04-13.53-0.09-27.05-0.13-40.58C32.43,26.47,31.7,26.59,31.7,26.9L31.7,26.9z"/>
				</g>
			</g>
			<g>
				<g>
					<path class="st1" d="M35.62,23.92c4.19,0.41,8.4,0.5,12.61,0.26c2.1-0.12,4.2-0.33,6.29-0.62c0.97-0.13,1.94-0.28,2.91-0.45
						c0.92-0.16,3.27-1.04,3.68,0.14c0.28,0.82,0.1,2.1,0.13,2.98c0.04,0.99,0.07,1.98,0.1,2.97c0.05,1.64,0.09,3.27,0.12,4.91
						c0.04,2.82,0.01,5.65-0.1,8.47c-0.16,4.03-0.45,8.06-0.73,12.08c-0.01,0.09,0.71,0.02,0.72-0.19
						c0.47-6.62,0.91-13.25,0.84-19.89c-0.02-1.66-0.06-3.32-0.11-4.98c-0.06-2.02,0.04-4.15-0.22-6.15
						c-0.21-1.62-1.69-1.08-2.88-0.85c-2.34,0.46-4.7,0.8-7.07,1.04c-5.26,0.53-10.56,0.52-15.82,0.01
						C35.94,23.61,35.27,23.88,35.62,23.92L35.62,23.92z"/>
				</g>
			</g>
			<g>
				<g>
					<path class="st1" d="M28.45,22.16c0.39-0.83,0.93-1.66,1.77-2.09c0.78-0.39,1.7-0.28,2.45,0.11c0.92,0.48,1.46,1.35,1.44,2.4
						c-0.01,0.57-0.13,1.13-0.22,1.68c-0.11,0.62-0.21,1.24-0.32,1.86c-0.06,0.32,0.68,0.21,0.73-0.07
						c0.19-1.08,0.45-2.18,0.53-3.27c0.07-0.92-0.16-1.82-0.85-2.46c-1.19-1.11-3.06-1.28-4.43-0.42c-0.82,0.51-1.38,1.34-1.79,2.2
						C27.6,22.45,28.33,22.41,28.45,22.16L28.45,22.16z"/>
				</g>
			</g>
			<g>
				<g>
					<path class="st1" d="M42.99,21.21c0.47-0.49,1.08-0.9,1.79-0.83c0.65,0.07,1.24,0.53,1.62,1.03c0.46,0.61,0.6,1.35,0.34,2.08
						c-0.29,0.8-0.76,1.55-1.14,2.31c-0.19,0.37,0.54,0.4,0.7,0.1c0.26-0.5,0.52-1.01,0.78-1.51c0.21-0.41,0.41-0.82,0.5-1.27
						c0.17-0.87-0.18-1.73-0.79-2.35c-0.56-0.58-1.3-0.97-2.13-0.95c-0.9,0.02-1.67,0.54-2.28,1.17c-0.12,0.13-0.05,0.31,0.1,0.37
						C42.65,21.42,42.86,21.34,42.99,21.21L42.99,21.21z"/>
				</g>
			</g>
			<g>
				<g>
					<path class="st1" d="M36.78,21.19c0.48-0.49,1.08-0.92,1.79-0.84c0.65,0.07,1.24,0.54,1.62,1.05c0.46,0.61,0.61,1.36,0.35,2.09
						c-0.13,0.37-0.32,0.71-0.5,1.06c-0.22,0.42-0.43,0.84-0.65,1.26c-0.18,0.35,0.55,0.33,0.69,0.06c0.26-0.5,0.52-1.01,0.78-1.51
						c0.21-0.4,0.41-0.81,0.5-1.26c0.17-0.86-0.18-1.72-0.78-2.33c-0.56-0.57-1.3-0.95-2.12-0.93c-0.9,0.03-1.67,0.53-2.28,1.16
						c-0.12,0.12-0.06,0.27,0.09,0.32C36.43,21.39,36.66,21.31,36.78,21.19L36.78,21.19z"/>
				</g>
			</g>
			<g>
				<g>
					<path class="st1" d="M49.21,21.07c0.49-0.51,1.08-0.96,1.83-0.79c0.66,0.15,1.26,0.65,1.63,1.2c0.43,0.64,0.53,1.39,0.27,2.11
						c-0.29,0.8-0.76,1.55-1.14,2.31c-0.06,0.12,0.25,0.09,0.29,0.08c0.13-0.02,0.36-0.07,0.42-0.2c0.26-0.5,0.52-1.01,0.78-1.51
						c0.21-0.41,0.42-0.83,0.5-1.29c0.14-0.85-0.24-1.65-0.85-2.24c-0.58-0.56-1.32-0.87-2.13-0.79c-0.88,0.08-1.65,0.54-2.26,1.17
						c-0.11,0.12,0.1,0.13,0.17,0.13C48.88,21.24,49.1,21.19,49.21,21.07L49.21,21.07z"/>
				</g>
			</g>
			<g>
				<g>
					<path class="st1" d="M29.67,24.53c-0.24,14.15-0.49,28.3-0.73,42.45c0,0.11,0.72,0.02,0.72-0.19
						c0.24-14.15,0.49-28.3,0.73-42.45C30.4,24.22,29.67,24.32,29.67,24.53L29.67,24.53z"/>
				</g>
			</g>
			<g>
				<g>
					<path class="st1" d="M33.13,68.07c4.06-0.63,8.05-1.7,11.84-3.29c3.31-1.39,5.9-3.71,6.23-7.47c-0.23,0.06-0.47,0.12-0.7,0.19
						c3.13,3.11,7.32,0.22,9.9-2.05c0.37-0.32-0.21-0.56-0.48-0.32c-2.26,2-5.95,4.85-8.76,2.06c-0.18-0.18-0.67-0.11-0.7,0.19
						c-0.34,3.92-3.2,5.97-6.6,7.31c-3.44,1.35-7.02,2.3-10.67,2.87C32.8,67.61,32.64,68.14,33.13,68.07L33.13,68.07z"/>
				</g>
			</g>
			<g>
				<g>
					<path class="st1" d="M27.42,25.97c-0.24,12.45-0.49,24.9-0.73,37.36c-0.01,0.38,0.73,0.28,0.73-0.05
						c0.24-12.45,0.49-24.9,0.73-37.36C28.16,25.53,27.43,25.63,27.42,25.97L27.42,25.97z"/>
				</g>
			</g>
			<g>
				<g>
					<path class="st1" d="M32.08,68.13c8.74-1.5,17.58-2.24,26.45-2.22c0.23,0,0.78-0.35,0.3-0.35C49.91,65.54,41,66.29,32.2,67.8
						C31.88,67.85,31.58,68.22,32.08,68.13L32.08,68.13z"/>
				</g>
			</g>
			<g>
				<g>
					<path class="st1" d="M60.62,57.02c0.04,1.98-0.15,3.95-0.57,5.88c-0.07,0.34,0.67,0.25,0.73-0.06c0.41-1.93,0.6-3.91,0.57-5.88
						C61.34,56.59,60.61,56.71,60.62,57.02L60.62,57.02z"/>
				</g>
			</g>
			<g>
				<g>
					<path class="st1" d="M39,35.97c0.28-0.47,0.44-1.19,0.83-1.56c0.34-0.33,0.86-0.39,1.25-0.1c0.13,0.1,0.23,0.27,0.34,0.4
						c0.4,0.49,0.79,0.99,1.45,1.12c0.75,0.15,1.51-0.17,2.1-0.6c0.39-0.28,0.73-0.62,1.12-0.9c0.62-0.45,1.3-0.64,2.04-0.74
						c0.6-0.08,1.31-0.2,1.9-0.02c0.4,0.12,0.75,0.39,1.14,0.51c0.54,0.17,1.08,0.11,1.51-0.28c0.38-0.34,0.48-1.02,1.11-1.07
						c0.33-0.03,0.78,0.26,1.09,0.37c0.57,0.2,1.11,0.28,1.67,0c0.44-0.22,0.04-0.57-0.31-0.39c-0.7,0.35-1.68-0.49-2.43-0.48
						c-0.62,0.01-0.94,0.34-1.31,0.78c-0.22,0.26-0.51,0.6-0.91,0.61c-0.24,0-0.6-0.28-0.84-0.38c-0.34-0.15-0.65-0.24-1.03-0.25
						c-0.99-0.05-2.14,0.13-3.06,0.47c-0.91,0.34-1.49,1.05-2.29,1.56c-1.49,0.95-1.91-0.46-2.83-1.2
						c-0.47-0.38-1.07-0.45-1.62-0.19c-0.91,0.43-1.14,1.48-1.62,2.27C38.11,36.24,38.84,36.22,39,35.97L39,35.97z"/>
				</g>
			</g>
			<g>
				<g>
					<path class="st1" d="M38.7,41.01c0.22-0.49,0.65-1.53,1.32-1.48c0.45,0.03,0.86,0.51,1.17,0.77c0.64,0.56,1.24,0.86,2.1,0.66
						c0.78-0.18,1.37-0.68,1.87-1.28c0.29-0.35,0.9-1.53,1.47-1.39c0.49,0.12,0.92,0.94,1.28,1.24c0.59,0.49,1.32,0.6,2.02,0.26
						c0.33-0.16,0.51-0.47,0.82-0.65c0.48-0.28,0.81,0.24,1.29,0.4c0.61,0.2,1.33,0.09,1.89-0.2c0.11-0.06,0.35-0.27,0.46-0.3
						c0.29-0.1-0.08-0.17,0.21,0.02c0.34,0.22,0.37,0.55,0.79,0.69c0.16,0.05,0.8-0.21,0.6-0.28c-0.71-0.24-0.69-1.06-1.58-0.79
						c-0.57,0.17-0.81,0.74-1.53,0.64c-0.54-0.07-0.83-0.56-1.34-0.66c-0.67-0.13-1.1,0.33-1.58,0.68
						c-1.42,1.03-1.86-1.36-3.08-1.45c-0.73-0.05-1.36,0.59-1.78,1.09c-0.51,0.61-1.2,1.94-2.18,1.74
						c-0.55-0.11-0.95-0.62-1.36-0.95c-1.48-1.23-2.89-0.09-3.56,1.37C37.94,41.24,38.61,41.19,38.7,41.01L38.7,41.01z"/>
				</g>
			</g>
			<g>

					<rect x="24.8" y="55.42" transform="matrix(0.7666 -0.6421 0.6421 0.7666 -30.133 35.8064)" class="st0" width="18.79" height="7.88"/>
			</g>
			<g>
				<g>
					<g>
						<path class="st1" d="M29.53,67.96c1.31-0.14,2.23-1.49,3.09-2.35c1.28-1.29,2.56-2.59,3.85-3.88c2.53-2.55,5.06-5.11,7.6-7.66
							c0.31-0.31-0.4-0.36-0.59-0.16c-2.27,2.29-4.54,4.58-6.81,6.87c-1.12,1.13-2.24,2.26-3.35,3.38
							c-0.56,0.56-1.12,1.13-1.68,1.69c-0.52,0.52-1.24,1.57-2.02,1.66C29.23,67.53,29.03,68.01,29.53,67.96L29.53,67.96z"/>
					</g>
				</g>
				<g>
					<g>
						<path class="st1" d="M43.97,52.52c-1.43-1.43-2.75-2.96-3.96-4.58c-0.17-0.22-0.86,0.04-0.67,0.3
							c1.2,1.62,2.53,3.15,3.96,4.58C43.5,53.02,44.19,52.74,43.97,52.52L43.97,52.52z"/>
					</g>
				</g>
				<g>
					<g>
						<path class="st1" d="M39.18,48.72c-2.84,3.07-5.87,5.95-9.08,8.63c-1.59,1.32-3.22,2.59-4.88,3.8
							c-0.2,0.14-1.64,0.91-1.38,1.3c0.18,0.27,0.76-0.01,0.94-0.15c0.02-0.02,0.04-0.04,0.04-0.07c-0.01-0.03-0.02-0.05-0.03-0.08
							c-0.05-0.15-0.77,0.05-0.72,0.19c-0.01,0.03-0.01,0.05-0.02,0.08c0.16-0.06,0.32-0.11,0.49-0.17
							c0.08-0.12,0.15-0.24,0.23-0.36c0.11-0.08,0.22-0.16,0.34-0.24c0.15-0.11,0.3-0.21,0.45-0.32c0.33-0.24,0.67-0.48,1-0.73
							c0.7-0.52,1.39-1.05,2.08-1.58c1.34-1.05,2.64-2.13,3.92-3.25c2.56-2.24,4.99-4.61,7.3-7.11
							C39.98,48.51,39.3,48.6,39.18,48.72L39.18,48.72z"/>
					</g>
				</g>
				<g>
					<g>
						<path class="st1" d="M28.76,66.98c-1.21-1.61-2.47-3.18-3.78-4.71c-0.13-0.15-0.82,0.1-0.68,0.26
							c1.31,1.53,2.57,3.09,3.78,4.71C28.2,67.39,28.9,67.16,28.76,66.98L28.76,66.98z"/>
					</g>
				</g>
				<g>
					<g>
						<path class="st1" d="M45.07,53.37c1.1-3.09,2.59-6.03,4.44-8.75c0.18-0.26-0.38-0.2-0.48-0.15c-2.61,1.11-5.29,2.06-8.03,2.84
							c-0.43,0.12-0.34,0.48,0.1,0.36c2.8-0.79,5.54-1.76,8.22-2.9c-0.16-0.05-0.32-0.1-0.48-0.15c-1.86,2.75-3.37,5.73-4.49,8.86
							C44.26,53.7,44.99,53.61,45.07,53.37L45.07,53.37z"/>
					</g>
				</g>
				<g>
					<g>
						<path class="st1" d="M46.54,48.16c-0.53-0.45-1.06-0.9-1.59-1.35c-0.21,0.11-0.41,0.22-0.62,0.34
							c1.04,0.62,2.55,0.33,3.31-0.6c0.1-0.12,0.08-0.25-0.08-0.29c-0.15-0.04-0.41,0.01-0.51,0.14c-0.15,0.18-0.29,0.31-0.48,0.42
							c-0.01,0-0.08,0.04-0.03,0.02c-0.02,0.01-0.04,0.02-0.07,0.03c-0.05,0.02-0.1,0.05-0.15,0.07c-0.04,0.01,0.04-0.01-0.03,0.01
							c-0.02,0.01-0.05,0.01-0.07,0.02c-0.03,0.01-0.06,0.02-0.09,0.02c-0.01,0-0.09,0.02-0.03,0.01c-0.06,0.01-0.11,0.02-0.17,0.02
							c-0.02,0-0.05,0-0.07,0.01c-0.02,0-0.08,0-0.04,0c-0.09,0-0.23-0.01-0.29-0.02c-0.22-0.04-0.43-0.11-0.62-0.23
							c-0.14-0.08-0.35-0.04-0.47,0.04c-0.08,0.04-0.26,0.2-0.14,0.3c0.53,0.45,1.06,0.9,1.59,1.35c0.13,0.11,0.33,0.09,0.48,0.02
							C46.44,48.45,46.67,48.28,46.54,48.16L46.54,48.16z"/>
					</g>
				</g>
			</g>
		</g>
	</g>
</g>
</svg>
