<?xml version="1.0" encoding="utf-8"?>
<!-- Generator: Adobe Illustrator 24.2.0, SVG Export Plug-In . SVG Version: 6.00 Build 0)  -->
<svg version="1.1" id="Слой_1" xmlns="http://www.w3.org/2000/svg" xmlns:xlink="http://www.w3.org/1999/xlink" x="0px" y="0px"
	 viewBox="0 0 88 88" style="enable-background:new 0 0 88 88;" xml:space="preserve">
<style type="text/css">
	.st0{fill:#003974;}
	.st1{fill:#FFFFFF; stroke:#FFFFFF;stroke-width:1;stroke-miterlimit:10;}
	.st2{fill:#FFFFFF;stroke:#FFFFFF;stroke-width:0.5;stroke-miterlimit:10;}
	.st3{fill:none;stroke:#FFFFFF;stroke-width:0.75;stroke-miterlimit:10;}
</style>
<g>
	<circle class="st0" cx="44" cy="44" r="37.91"/>
	<g>
		<g>
			<g>
				<g>
					<path class="st1" d="M52.86,62.23c1.2,0.47,2.38,0.99,3.55,1.54c1.88,0.89,3.88,1.83,5.44,3.23c0.31,0.28,1.45,0.05,1.4-0.47
						c-0.36-3.37-0.83-6.72-1.41-10.06c-0.08-0.47-1.54-0.13-1.45,0.39c0.58,3.34,1.05,6.69,1.41,10.06
						c0.47-0.16,0.93-0.32,1.4-0.47c-1.59-1.42-3.61-2.39-5.52-3.3c-1.2-0.57-2.42-1.11-3.66-1.59c-0.32-0.12-0.74-0.04-1.02,0.14
						C52.82,61.79,52.53,62.1,52.86,62.23L52.86,62.23z"/>
				</g>
			</g>
			<g>
				<g>
					<path class="st1" d="M15.59,40.04c0.16-2.8,1.33-5.64,2.73-8.03c2.52-4.32,6.48-7.56,11.14-9.35c3.3-1.26,6.84-1.77,10.35-1.86
						c4.15-0.1,8.36,0.18,12.44,1.02c3.79,0.78,7.62,2.06,10.78,4.35c3.16,2.3,5.48,5.67,6.54,9.43c2.5,8.93-3.08,17.61-11.06,21.42
						c-0.9,0.43-0.09,1.13,0.62,0.79c7.13-3.41,12.92-10.53,12.5-18.76c-0.2-3.9-1.73-7.68-4.24-10.66
						c-2.64-3.13-6.25-5.12-10.09-6.39c-4.09-1.35-8.43-1.96-12.72-2.15c-4.06-0.18-8.16-0.06-12.13,0.9
						c-5.58,1.34-10.7,4.37-14.13,9.03c-2.15,2.92-3.98,6.69-4.19,10.38C14.08,40.88,15.55,40.65,15.59,40.04L15.59,40.04z"/>
				</g>
			</g>
			<g>
				<g>
					<path class="st1" d="M51.88,60.64c-7.54,1.68-15.59,0.87-22.69-2.17c-6.57-2.81-12.42-7.44-13.84-14.77
						c-0.08-0.42-1.54-0.07-1.45,0.39c1.5,7.73,7.9,12.53,14.86,15.33c7.36,2.96,15.56,3.56,23.28,1.83
						C52.91,61.06,52.74,60.45,51.88,60.64L51.88,60.64z"/>
				</g>
			</g>
		</g>
		<g>
			<g>
				<g>
					<path class="st1" d="M39.68,36.36c-1.26-2.57-0.76-5.98,1.56-7.81c2.61-2.05,6.39-1.1,8.17,1.54c1.66,2.46,1.41,5.58-0.41,7.86
						c-1.77,2.22-4.45,3.52-6.85,4.92c-1.05,0.61-2.46,1.44-2.59,2.79c-0.12,1.27,0.91,2.05,2.08,1.93
						c0.69-0.07,1.21-0.88,0.21-0.77c-0.71,0.07-0.91-1.24-0.79-1.68c0.26-0.91,1.22-1.42,1.98-1.86c1.27-0.74,2.55-1.44,3.78-2.25
						c2.26-1.5,4.53-3.48,5.08-6.28c0.55-2.83-0.87-5.88-3.4-7.27c-2.5-1.37-5.83-0.98-8.11,0.65c-2.69,1.92-3.59,5.67-2.14,8.62
						C38.47,37.23,39.88,36.76,39.68,36.36L39.68,36.36z"/>
				</g>
			</g>
			<g>
				<g>
					<path class="st1" d="M41.3,50.74c-0.54,0.44-1.12,0.91-1.42,1.56c-0.27,0.58-0.26,1.21,0.1,1.76c0.39,0.59,1.18,0.73,1.83,0.53
						c0.65-0.2,1.08-0.67,1.26-1.32c0.15-0.55,0.11-1.18-0.01-1.74c-0.07-0.33-0.6-0.31-0.84-0.24c-0.26,0.08-0.68,0.29-0.61,0.63
						c0.04,0.2,0.07,0.4,0.09,0.6c0,0.03,0,0.05,0,0.08c0-0.09,0-0.02,0,0c0,0.05,0,0.1,0,0.16c0,0.1-0.01,0.21-0.02,0.31
						c-0.01,0.1-0.03,0.2-0.05,0.29c-0.01,0.05-0.03,0.09-0.04,0.14c-0.01,0.03-0.04,0.09,0.01-0.02c-0.01,0.02-0.02,0.04-0.03,0.06
						c-0.03,0.07-0.11,0.16-0.13,0.23c0-0.01,0.09-0.11,0.03-0.04c-0.01,0.01-0.03,0.03-0.04,0.05c-0.01,0.01-0.04,0.04-0.04,0.04
						c0-0.02,0.14-0.11,0.05-0.04c-0.11,0.08,0.15-0.06,0.04-0.02c-0.09,0.04,0.2-0.07,0.04-0.01c-0.11,0.03,0.1-0.03,0.1-0.02
						c0,0-0.07,0.01-0.07,0.01c0.01,0,0.18,0.01,0.07,0c-0.11-0.01,0.11,0.04,0.03,0.01c-0.02-0.01-0.05-0.02-0.07-0.02
						c-0.06-0.01,0.05,0.01,0.05,0.02c0,0-0.12-0.07-0.13-0.07c-0.07-0.04,0,0,0.01,0.02c-0.02-0.02-0.04-0.03-0.05-0.05
						c-0.04-0.04-0.08-0.08-0.11-0.13c-0.03-0.04-0.05-0.08-0.07-0.11c0.05,0.08-0.02-0.04-0.03-0.07
						c-0.04-0.11-0.07-0.22-0.09-0.33c0-0.03-0.01-0.05-0.01-0.08c-0.01-0.07,0,0.07,0,0c0-0.05,0-0.09,0.01-0.14
						c0.01-0.05,0.01-0.1,0.03-0.16c0.01-0.03,0.02-0.06,0.02-0.09c0.02-0.09-0.01,0.01,0.01-0.04c0.05-0.14,0.12-0.26,0.21-0.38
						c0.02-0.03,0.04-0.05,0.06-0.08c0.04-0.05-0.06,0.06,0.02-0.02c0.05-0.06,0.1-0.11,0.15-0.17c0.1-0.11,0.21-0.21,0.32-0.31
						c0.06-0.05,0.11-0.1,0.17-0.15c0.02-0.02,0.05-0.05,0.08-0.06c-0.09,0.06-0.03,0.02,0.02-0.02c0.11-0.09,0.24-0.2,0.26-0.35
						c0.02-0.13-0.05-0.25-0.16-0.31C42.04,50.47,41.55,50.53,41.3,50.74L41.3,50.74z"/>
				</g>
			</g>
		</g>
	</g>
</g>
</svg>
