<?xml version="1.0" encoding="utf-8"?>
<!-- Generator: Adobe Illustrator 24.2.0, SVG Export Plug-In . SVG Version: 6.00 Build 0)  -->
<svg version="1.1" id="Слой_1" xmlns="http://www.w3.org/2000/svg" xmlns:xlink="http://www.w3.org/1999/xlink" x="0px" y="0px"
	 viewBox="0 0 88 88" style="enable-background:new 0 0 88 88;" xml:space="preserve">
<style type="text/css">
	.st0{fill:#003974;}
	.st1{fill:#FFFFFF; stroke:#FFFFFF;stroke-width:1;stroke-miterlimit:10;}
	.st2{fill:#FFFFFF;stroke:#FFFFFF;stroke-width:0.5;stroke-miterlimit:10;}
	.st3{fill:none;stroke:#FFFFFF;stroke-width:0.75;stroke-miterlimit:10;}
</style>
<g>
	<circle class="st0" cx="44" cy="44" r="37.91"/>
	<g>
		<g>
			<g>
				<path class="st1" d="M26.58,35.42c0,6.55,0,13.1,0,19.65c0,0.17,0.72,0.05,0.72-0.19c0-6.55,0-13.1,0-19.65
					C27.3,35.05,26.58,35.17,26.58,35.42L26.58,35.42z"/>
			</g>
		</g>
		<g>
			<g>
				<path class="st1" d="M36.03,35.71c-0.07,6.38-0.14,12.75-0.21,19.13c0,0.32,0.72,0.18,0.73-0.08
					c0.07-6.38,0.14-12.75,0.21-19.13C36.76,35.31,36.03,35.45,36.03,35.71L36.03,35.71z"/>
			</g>
		</g>
		<g>
			<g>
				<path class="st1" d="M44.79,35.6c0.21,6.26,0.28,12.52,0.22,18.78c0,0.12,0.72,0.02,0.72-0.19c0.06-6.26-0.01-12.52-0.22-18.78
					C45.51,35.27,44.78,35.39,44.79,35.6L44.79,35.6z"/>
			</g>
		</g>
		<g>
			<g>
				<path class="st1" d="M53.92,35.53c-0.28,6.38-0.4,12.76-0.36,19.14c0,0.32,0.73,0.18,0.73-0.08
					c-0.04-6.38,0.07-12.76,0.36-19.14C54.66,35.13,53.94,35.27,53.92,35.53L53.92,35.53z"/>
			</g>
		</g>
		<g>
			<g>
				<g>
					<path class="st1" d="M21.23,28.75c0.01-0.28,0.01-0.55,0.02-0.83c0.01-0.37-0.72-0.26-0.73,0.06
						c-0.08,1.58-0.16,3.15-0.24,4.73c-0.02,0.37,0.72,0.26,0.73-0.06c0.08-1.58,0.16-3.15,0.24-4.73
						c-0.24,0.02-0.49,0.04-0.73,0.06c-0.01,0.28-0.01,0.55-0.02,0.83C20.48,29.18,21.22,29.07,21.23,28.75L21.23,28.75z"/>
				</g>
			</g>
			<g>
				<g>
					<path class="st1" d="M20.78,28.46c7.74-3.12,15.43-6.36,23.07-9.71c0.47-0.2,0.03-0.35-0.26-0.22
						c-7.64,3.35-15.33,6.59-23.07,9.71C20.04,28.43,20.48,28.58,20.78,28.46L20.78,28.46z"/>
				</g>
			</g>
			<g>
				<g>
					<path class="st1" d="M20.78,32.04c6.23-0.9,12.53-1.24,18.82-1.01c0.17,0.01,0.83-0.3,0.47-0.31
						c-6.41-0.23-12.81,0.12-19.16,1.03C20.61,31.79,20.27,32.11,20.78,32.04L20.78,32.04z"/>
				</g>
			</g>
			<g>
				<g>
					<path class="st1" d="M49.46,21.87c5.93,1.87,11.73,4.12,17.37,6.75c0.17,0.08,0.83-0.19,0.59-0.3
						c-5.64-2.63-11.43-4.88-17.37-6.75C49.87,21.51,49.22,21.8,49.46,21.87L49.46,21.87z"/>
				</g>
			</g>
			<g>
				<g>
					<path class="st1" d="M23.46,31.52c0.55,0.89,0.94,1.87,1.18,2.88c0.06,0.23,0.78,0.05,0.72-0.19
						c-0.25-1.05-0.67-2.05-1.23-2.97c-0.03-0.05-0.15-0.06-0.19-0.06c-0.09,0-0.2,0.02-0.28,0.06
						C23.55,31.29,23.38,31.38,23.46,31.52L23.46,31.52z"/>
				</g>
			</g>
			<g>
				<g>
					<path class="st1" d="M25.46,33.1c-0.01-0.02-0.03-0.05-0.04-0.07c-0.06-0.11-0.31-0.04-0.39-0.02
						c-0.22,0.05-0.4,0.09-0.49,0.31c-0.01,0.03-0.01,0.05,0.02,0.06c0.59,0.52,2.08,0.15,2.78,0.14c1.57-0.03,3.14-0.06,4.71-0.09
						c3.22-0.06,6.44-0.12,9.66-0.19c6.36-0.12,12.72-0.25,19.08-0.37c0.21,0,0.79-0.32,0.31-0.31c-5.95,0.12-11.89,0.23-17.84,0.35
						c-2.89,0.06-5.78,0.11-8.67,0.17c-1.49,0.03-2.97,0.06-4.46,0.09c-0.74,0.01-1.49,0.03-2.23,0.04
						c-0.86,0.02-1.98-0.15-2.8,0.03c-0.13-0.01-0.26-0.02-0.39-0.02c0.01,0.02,0.03,0.05,0.04,0.07
						C24.83,33.48,25.52,33.22,25.46,33.1L25.46,33.1z"/>
				</g>
			</g>
			<g>
				<g>
					<path class="st1" d="M52.73,31.19c4.52-0.29,9.05-0.35,13.57-0.16c0.33,0.01,0.75-0.47,0.26-0.49
						c-4.58-0.19-9.18-0.13-13.75,0.17C52.41,30.72,52.23,31.22,52.73,31.19L52.73,31.19z"/>
				</g>
			</g>
			<g>
				<g>
					<path class="st1" d="M66.32,27.94c-0.11,1.14-0.06,2.29,0.15,3.42c0.04,0.21,0.77,0.04,0.72-0.19c-0.2-1.1-0.25-2.22-0.15-3.33
						C67.07,27.58,66.34,27.72,66.32,27.94L66.32,27.94z"/>
				</g>
			</g>
		</g>
		<g>
			<g>
				<g>
					<path class="st1" d="M23.85,57.74c13.22-0.01,26.44-0.01,39.65-0.02c0.28,0,0.77-0.43,0.28-0.43
						c-13.22,0.01-26.44,0.01-39.65,0.02C23.84,57.32,23.36,57.74,23.85,57.74L23.85,57.74z"/>
				</g>
			</g>
			<g>
				<g>
					<path class="st1" d="M24.28,56.8c-1.08-1.07,0.66-1.73,1.47-1.77c0.69-0.04,1.38-0.04,2.08-0.06c1.4-0.03,2.8-0.05,4.2-0.06
						c3-0.02,6.01,0.01,9.01,0.04c5.89,0.06,11.78,0.15,17.67-0.05c0.25-0.01,0.78-0.39,0.29-0.37c-7.16,0.24-14.32,0.07-21.48,0.02
						c-3.52-0.02-7.04-0.02-10.56,0.08c-0.99,0.03-2.27-0.07-3.11,0.58c-0.61,0.47-0.83,1.29-0.25,1.86
						C23.77,57.24,24.45,56.97,24.28,56.8L24.28,56.8z"/>
				</g>
			</g>
			<g>
				<g>
					<path class="st1" d="M61.17,54.67c0.68,0.15,1.44,0.31,1.89,0.9c0.21,0.28,0.3,0.63,0.35,0.98c0.06,0.4,0.06,0.81,0.02,1.21
						c-0.03,0.33,0.7,0.2,0.73-0.08c0.07-0.78,0.07-1.75-0.43-2.41c-0.5-0.66-1.36-0.87-2.12-1.03c-0.17-0.04-0.39,0.01-0.51,0.14
						C60.98,54.49,61.01,54.64,61.17,54.67L61.17,54.67z"/>
				</g>
			</g>
		</g>
		<g>
			<g>
				<g>
					<path class="st1" d="M20.12,64.72c16.05-0.61,32.13-0.62,48.18-0.02c0.34,0.01,0.74-0.49,0.26-0.51
						c-16.12-0.6-32.25-0.6-48.37,0.01C19.79,64.23,19.63,64.74,20.12,64.72L20.12,64.72z"/>
				</g>
			</g>
			<g>
				<g>
					<path class="st1" d="M19.94,64.16c0.04-0.94,0.08-1.88,0.12-2.82c0.01-0.24,0.02-0.47,0.03-0.71c0.01-0.16-0.01-0.46,0.14-0.57
						c0.15-0.1,0.5-0.09,0.67-0.11c0.23-0.03,0.46-0.05,0.69-0.08c1.9-0.19,3.81-0.21,5.71-0.08c0.17,0.01,0.4-0.05,0.47-0.22
						c0.06-0.16-0.06-0.29-0.22-0.31c-2.22-0.16-4.45-0.11-6.67,0.16c-0.38,0.05-0.83,0.06-1.15,0.3c-0.34,0.25-0.37,0.64-0.39,1.03
						c-0.05,1.15-0.1,2.3-0.14,3.45C19.19,64.59,19.92,64.49,19.94,64.16L19.94,64.16z"/>
				</g>
			</g>
			<g>
				<g>
					<path class="st1" d="M65.08,59.8c0.92,0,1.93,0.08,2.36,1.02c0.46,1.01,0.54,2.23,0.43,3.32c-0.04,0.36,0.7,0.26,0.73-0.06
						c0.07-0.65,0.06-1.3-0.04-1.95c-0.09-0.6-0.23-1.23-0.53-1.77c-0.58-1.02-1.84-1.08-2.88-1.08c-0.15,0-0.38,0.12-0.4,0.29
						C64.73,59.76,64.94,59.8,65.08,59.8L65.08,59.8z"/>
				</g>
			</g>
			<g>
				<g>
					<path class="st1" d="M40.97,59.7c7.37-0.07,14.74-0.18,22.11-0.32c0.24,0,0.78-0.37,0.29-0.36
						c-7.37,0.15-14.74,0.25-22.11,0.32C41.02,59.34,40.48,59.71,40.97,59.7L40.97,59.7z"/>
				</g>
			</g>
		</g>
		<g>
			<g>
				<path class="st1" d="M61.14,35.53c-0.28,6.38-0.4,12.76-0.36,19.14c0,0.11,0.73,0.01,0.72-0.19
					c-0.04-6.38,0.07-12.76,0.36-19.14C61.87,35.24,61.15,35.32,61.14,35.53L61.14,35.53z"/>
			</g>
		</g>
	</g>
</g>
</svg>
