<?xml version="1.0" encoding="utf-8"?>
<!-- Generator: Adobe Illustrator 24.2.0, SVG Export Plug-In . SVG Version: 6.00 Build 0)  -->
<svg version="1.1" id="Слой_1" xmlns="http://www.w3.org/2000/svg" xmlns:xlink="http://www.w3.org/1999/xlink" x="0px" y="0px"
	 viewBox="0 0 88 88" style="enable-background:new 0 0 88 88;" xml:space="preserve">
<style type="text/css">
	.st0{fill:#003974;}
	.st1{fill:#FFFFFF; stroke:#FFFFFF;stroke-width:1;stroke-miterlimit:10;}
	.st2{fill:#FFFFFF;stroke:#FFFFFF;stroke-width:0.5;stroke-miterlimit:10;}
	.st3{fill:none;stroke:#FFFFFF;stroke-width:0.75;stroke-miterlimit:10;}
</style>
<g>
	<circle class="st0" cx="44" cy="44" r="37.91"/>
	<g>
		<g>
			<g>
				<g>
					<path class="st1" d="M45.22,33.34c0.96-3.99,5.63-3.68,8.88-3.82c3.57-0.15,7.15-0.19,10.72-0.12
						c0.27,0.01,0.83-0.06,1.02-0.27c0.15-0.16,0.27-0.26-0.07-0.27c-4.61-0.09-9.23,0-13.83,0.28c-3.12,0.19-7.28,0.88-8.15,4.48
						C43.73,33.86,45.14,33.68,45.22,33.34L45.22,33.34z"/>
				</g>
			</g>
			<g>
				<g>
					<path class="st1" d="M65.41,30.52c-0.23,10.56-0.12,21.12,0.33,31.67c0.02,0.5,1.47,0.2,1.45-0.39
						c-0.45-10.48-0.56-20.97-0.33-31.45C66.88,29.72,65.42,30.01,65.41,30.52L65.41,30.52z"/>
				</g>
			</g>
			<g>
				<g>
					<path class="st1" d="M45.72,65.66c0.14-2.12,1.81-3.81,3.89-4.12c1.91-0.28,3.92,0.07,5.83,0.22c3.45,0.28,6.9,0.54,10.35,0.83
						c0.33,0.03,1.66-0.55,0.93-0.61c-4.34-0.37-8.69-0.71-13.04-1.05c-3.65-0.28-9.12,0.44-9.42,5.12
						C44.26,66.28,45.69,66.11,45.72,65.66L45.72,65.66z"/>
				</g>
			</g>
			<g>
				<g>
					<path class="st1" d="M43.04,35.17c0.12,9.5,0.28,19.01,0.49,28.51c0.02,0.77,1.48,0.56,1.47-0.1
						c-0.21-9.5-0.37-19.01-0.49-28.51C44.5,34.3,43.03,34.51,43.04,35.17L43.04,35.17z"/>
				</g>
			</g>
			<g>
				<g>
					<g>
						<path class="st1" d="M43.97,33.28c-0.89-3.69-4.92-4.16-8.09-4.34c-4.38-0.25-8.76-0.32-13.15-0.24
							c-0.28,0.01-0.84,0.09-0.95,0.4c-0.11,0.29,0.09,0.46,0.4,0.45c3.84-0.08,7.69-0.03,11.53,0.15c3.21,0.15,7.87,0.04,8.81,3.96
							C42.65,34.19,44.1,33.82,43.97,33.28L43.97,33.28z"/>
					</g>
				</g>
				<g>
					<g>
						<path class="st1" d="M20.88,30.31c0.23,10.52,0.12,21.05-0.33,31.56c-0.03,0.79,1.44,0.61,1.47-0.09
							c0.45-10.51,0.56-21.04,0.33-31.56C22.33,29.43,20.86,29.62,20.88,30.31L20.88,30.31z"/>
					</g>
				</g>
				<g>
					<g>
						<path class="st1" d="M43.49,65.64c-0.12-1.92-1.27-3.49-2.97-4.37c-1.99-1.02-4.32-0.86-6.47-0.68
							c-4.16,0.35-8.33,0.66-12.49,1.01c-0.81,0.07-1.12,1.14-0.13,1.06c3.6-0.3,7.2-0.57,10.8-0.87c1.87-0.15,3.84-0.49,5.71-0.13
							c2.05,0.39,3.95,1.89,4.09,4.09C42.07,66.5,43.53,66.27,43.49,65.64L43.49,65.64z"/>
					</g>
				</g>
			</g>
		</g>
		<g>
			<g>
				<g>
					<g>
						<path class="st1" d="M44.61,31.69c-0.07-1.07,0.55-1.95,1.22-2.72c0.62-0.7,1.3-1.35,2.04-1.91c1.54-1.18,3.38-1.98,5.36-1.77
							c1.98,0.22,3.88,0.95,5.83,1.31c1.81,0.33,3.62,0.37,5.37-0.27c0.31-0.11,0.03-0.34-0.21-0.26c-2.31,0.84-4.76,0.31-7.07-0.28
							c-1.88-0.48-3.8-1.13-5.76-0.76c-1.7,0.32-3.22,1.25-4.51,2.37c-1.26,1.1-2.87,2.58-2.76,4.4
							C44.14,32.01,44.63,31.91,44.61,31.69L44.61,31.69z"/>
					</g>
				</g>
				<g>
					<g>
						<path class="st1" d="M44.34,30.96c0.02-3.05,1.47-6.1,4.17-7.66c1.38-0.8,2.94-1.11,4.52-0.95c1.58,0.17,3.12,0.62,4.73,0.46
							c0.26-0.03,0.38-0.35,0.05-0.32c-1.89,0.19-3.71-0.53-5.6-0.51c-1.43,0.01-2.84,0.43-4.07,1.16
							c-2.73,1.63-4.26,4.73-4.29,7.87C43.86,31.24,44.34,31.16,44.34,30.96L44.34,30.96z"/>
					</g>
				</g>
				<g>
					<g>
						<path class="st1" d="M57.88,22.8c-0.26,1.25,0.94,2.21,1.96,2.65c1.12,0.48,2.38,0.51,3.57,0.36
							c0.26-0.03,0.38-0.38,0.05-0.34c-1.06,0.13-2.17,0.12-3.18-0.27c-0.96-0.37-2.15-1.26-1.91-2.44
							C58.42,22.53,57.92,22.59,57.88,22.8L57.88,22.8z"/>
					</g>
				</g>
				<g>
					<g>
						<path class="st1" d="M64.76,25.97c-0.63,0.17-0.99,0.82-0.88,1.45c0.13,0.68,0.75,1.14,1.39,1.29
							c0.46,0.11,0.94,0.08,1.41,0.03c0.09-0.01,0.26-0.06,0.27-0.16c0.02-0.11-0.14-0.11-0.21-0.1c-0.78,0.08-1.63,0.04-2.14-0.64
							c-0.21-0.27-0.3-0.62-0.24-0.96c0.05-0.25,0.19-0.59,0.45-0.66c0.07-0.02,0.23-0.08,0.21-0.18
							C65.01,25.92,64.82,25.95,64.76,25.97L64.76,25.97z"/>
					</g>
				</g>
			</g>
			<g>
				<g>
					<g>
						<path class="st1" d="M44.01,31.75c0.11-1.82-1.51-3.31-2.78-4.4c-1.31-1.14-2.88-2.07-4.61-2.35
							c-1.95-0.31-3.9,0.39-5.78,0.86c-2.27,0.57-4.64,1.03-6.9,0.2c-0.22-0.08-0.57,0.23-0.28,0.34c1.78,0.65,3.64,0.56,5.47,0.21
							c1.99-0.38,3.97-1.19,6-1.31c1.87-0.11,3.63,0.71,5.09,1.82c0.74,0.57,1.43,1.22,2.05,1.92c0.69,0.78,1.31,1.66,1.24,2.75
							C43.51,32.04,44,31.98,44.01,31.75L44.01,31.75z"/>
					</g>
				</g>
				<g>
					<g>
						<path class="st1" d="M44.28,30.94c-0.02-3.07-1.49-6.12-4.16-7.74c-1.21-0.73-2.6-1.15-4.01-1.16
							c-1.89-0.02-3.71,0.71-5.61,0.52c-0.14-0.01-0.56,0.21-0.3,0.24c1.59,0.16,3.1-0.28,4.66-0.45c1.64-0.18,3.26,0.14,4.69,0.97
							c2.73,1.58,4.21,4.66,4.24,7.75C43.8,31.19,44.28,31.11,44.28,30.94L44.28,30.94z"/>
					</g>
				</g>
				<g>
					<g>
						<path class="st1" d="M29.78,22.86c0.24,1.16-0.92,2.03-1.87,2.39c-0.98,0.38-2.07,0.38-3.11,0.25
							c-0.21-0.03-0.5,0.27-0.18,0.31c1.22,0.15,2.5,0.1,3.64-0.39c1.03-0.44,2.26-1.43,2-2.7C30.22,22.54,29.74,22.66,29.78,22.86
							L29.78,22.86z"/>
					</g>
				</g>
				<g>
					<g>
						<path class="st1" d="M23.21,26.24c0.29,0.08,0.48,0.37,0.55,0.65c0.09,0.34,0.02,0.68-0.18,0.97
							c-0.46,0.68-1.32,0.68-2.06,0.6c-0.1-0.01-0.27,0.04-0.32,0.14c-0.05,0.1,0.05,0.15,0.14,0.16c0.77,0.08,1.62,0.06,2.26-0.43
							c0.52-0.4,0.84-1.06,0.6-1.71c-0.12-0.32-0.36-0.58-0.7-0.67c-0.11-0.03-0.26,0.01-0.34,0.09
							C23.08,26.12,23.1,26.21,23.21,26.24L23.21,26.24z"/>
					</g>
				</g>
			</g>
		</g>
	</g>
</g>
</svg>
