<?xml version="1.0" encoding="utf-8"?>
<!-- Generator: Adobe Illustrator 24.2.0, SVG Export Plug-In . SVG Version: 6.00 Build 0)  -->
<svg version="1.1" id="Слой_1" xmlns="http://www.w3.org/2000/svg" xmlns:xlink="http://www.w3.org/1999/xlink" x="0px" y="0px"
	 viewBox="0 0 88 88" style="enable-background:new 0 0 88 88;" xml:space="preserve">
<style type="text/css">
	.st0{fill:#003974;}
	.st1{fill:#FFFFFF; stroke:#FFFFFF;stroke-width:1;stroke-miterlimit:10;}
	.st2{fill:#FFFFFF;stroke:#FFFFFF;stroke-width:0.5;stroke-miterlimit:10;}
	.st3{fill:none;stroke:#FFFFFF;stroke-width:0.75;stroke-miterlimit:10;}
</style>
<g>
	<circle class="st0" cx="44" cy="44" r="37.91"/>
	<g>
		<g>
			<g>
				<g>
					<path class="st1" d="M41,38.62c-2.99,2.88-5.91,7.4-3.67,11.6c0.9,1.68,2.53,2.76,4.26,3.45c1.92,0.77,4.18,1.32,6.26,1.36
						c4.08,0.07,6.99-3.6,7.56-7.37c0.55-3.63-0.9-7.44-4.07-9.42c-3.36-2.11-7.97-2.03-11.18,0.33c-0.26,0.19,0.13,0.33,0.31,0.19
						c2.79-2.05,6.69-2.23,9.76-0.67c3.1,1.57,4.86,4.81,4.8,8.25c-0.06,3.56-2.26,7.86-6.16,8.33c-1.97,0.24-4.18-0.35-6.05-0.96
						c-1.68-0.54-3.34-1.38-4.45-2.78c-1.41-1.78-1.59-4.18-0.96-6.31c0.68-2.32,2.28-4.23,3.99-5.88
						C41.62,38.53,41.15,38.48,41,38.62L41,38.62z"/>
				</g>
			</g>
			<g>
				<g>
					<path class="st1" d="M55.45,15.37c-1.2,1.16-2.4,2.99-1.48,4.69c0.37,0.68,1.03,1.12,1.74,1.4c0.78,0.31,1.68,0.53,2.52,0.54
						c1.69,0.03,2.96-1.4,3.21-2.99c0.24-1.48-0.34-3.02-1.62-3.84c-1.4-0.88-3.34-0.83-4.67,0.15c-0.26,0.19,0.15,0.27,0.3,0.15
						c1.08-0.79,2.55-0.83,3.73-0.21c1.19,0.63,1.86,1.9,1.83,3.24c-0.03,1.34-0.85,3.08-2.36,3.2c-0.76,0.06-1.62-0.17-2.34-0.41
						c-0.65-0.22-1.29-0.57-1.7-1.13c-1.18-1.6,0.04-3.55,1.23-4.71C56.04,15.26,55.57,15.26,55.45,15.37L55.45,15.37z"/>
				</g>
			</g>
			<g>
				<g>
					<path class="st1" d="M31.79,18.86c-1.1,1-2.24,2.62-1.35,4.12c0.35,0.61,0.99,0.98,1.63,1.21c0.72,0.26,1.53,0.45,2.29,0.46
						c1.52,0.02,2.76-1.19,2.99-2.65c0.21-1.32-0.37-2.66-1.54-3.34c-1.3-0.76-3.07-0.7-4.31,0.15c-0.27,0.19,0.14,0.26,0.3,0.15
						c0.99-0.68,2.31-0.71,3.38-0.2c1.08,0.52,1.75,1.62,1.72,2.82c-0.03,1.21-0.83,2.67-2.16,2.76c-0.69,0.05-1.45-0.14-2.11-0.35
						c-0.58-0.18-1.16-0.46-1.56-0.93c-0.5-0.59-0.57-1.4-0.35-2.13c0.24-0.81,0.83-1.46,1.44-2.01
						C32.39,18.76,31.91,18.75,31.79,18.86L31.79,18.86z"/>
				</g>
			</g>
			<g>
				<g>
					<path class="st1" d="M16.21,47.69c-1.79,1.43-3.68,3.82-2.53,6.23c0.44,0.93,1.28,1.57,2.19,2.01c1.01,0.5,2.2,0.91,3.33,1.01
						c2.22,0.2,4.02-1.67,4.51-3.71c0.47-1.95-0.14-4.09-1.78-5.31c-1.76-1.31-4.26-1.44-6.14-0.33c-0.28,0.17,0.14,0.25,0.3,0.15
						c1.59-0.94,3.64-0.78,5.17,0.22c1.53,0.99,2.28,2.8,2.09,4.6c-0.2,1.88-1.59,4.14-3.71,4.1c-1.07-0.02-2.24-0.45-3.2-0.9
						c-0.8-0.37-1.57-0.88-2.06-1.63c-1.54-2.35,0.42-4.93,2.23-6.37C16.82,47.6,16.34,47.59,16.21,47.69L16.21,47.69z"/>
				</g>
			</g>
			<g>
				<g>
					<path class="st1" d="M23.52,34.8c-1.01,0.99-2.02,2.53-1.25,3.96c0.31,0.58,0.87,0.95,1.47,1.19c0.66,0.26,1.42,0.45,2.13,0.46
						c1.44,0.02,2.53-1.18,2.74-2.54c0.2-1.25-0.28-2.55-1.37-3.24c-1.18-0.75-2.84-0.7-3.97,0.13c-0.26,0.19,0.15,0.27,0.3,0.15
						c0.89-0.66,2.1-0.68,3.07-0.17c1,0.53,1.55,1.6,1.53,2.71c-0.02,1.1-0.69,2.57-1.93,2.67c-0.63,0.05-1.35-0.14-1.94-0.35
						c-0.54-0.19-1.07-0.47-1.41-0.94c-0.98-1.34,0.03-2.97,1.03-3.94C24.11,34.69,23.64,34.68,23.52,34.8L23.52,34.8z"/>
				</g>
			</g>
			<g>
				<g>
					<path class="st1" d="M35.3,23.99c1.82,4.63,5.35,8.43,6.66,13.29c0.03,0.1,0.51-0.03,0.48-0.13c-1.3-4.85-4.84-8.66-6.66-13.29
						C35.74,23.75,35.26,23.9,35.3,23.99L35.3,23.99z"/>
				</g>
			</g>
			<g>
				<g>
					<path class="st1" d="M56.35,21.83c-3.22,4.82-5.76,10.06-7.56,15.57c-0.03,0.09,0.44,0.04,0.48-0.09
						c1.79-5.51,4.34-10.75,7.56-15.57C56.86,21.7,56.43,21.71,56.35,21.83L56.35,21.83z"/>
				</g>
			</g>
			<g>
				<g>
					<g>
						<path class="st1" d="M65.15,33.02c-0.86,0.83-1.72,2.14-1.06,3.35c0.26,0.49,0.74,0.81,1.25,1.01
							c0.56,0.22,1.21,0.38,1.81,0.39c1.23,0.02,2.18-0.99,2.37-2.16c0.17-1.06-0.24-2.16-1.16-2.74c-1.01-0.64-2.44-0.59-3.41,0.12
							c-0.26,0.19,0.15,0.27,0.3,0.15c0.74-0.54,1.74-0.56,2.54-0.14c0.83,0.44,1.3,1.33,1.28,2.26c-0.02,0.9-0.56,2.14-1.59,2.22
							c-0.53,0.04-1.13-0.12-1.62-0.29c-0.45-0.16-0.89-0.4-1.18-0.79c-0.83-1.12,0.03-2.48,0.87-3.29
							c0.08-0.08,0.05-0.15-0.05-0.18C65.39,32.89,65.23,32.94,65.15,33.02L65.15,33.02z"/>
					</g>
				</g>
				<g>
					<g>
						<path class="st1" d="M54.27,41.32c1.63-0.72,3.27-1.43,4.92-2.1c0.79-0.33,1.59-0.64,2.39-0.96c0.43-0.17,0.86-0.34,1.29-0.5
							c0.19-0.07,0.37-0.14,0.56-0.21c0.12-0.05,0.25-0.09,0.37-0.14c0.18-0.06,0.34-0.14,0.5-0.24c0.07,0.02,0.14,0.05,0.21,0.07
							c0-0.02-0.01-0.03-0.01-0.05c-0.05-0.17-0.53-0.04-0.48,0.13c0,0.02,0.01,0.03,0.01,0.05c0.02,0.08,0.15,0.08,0.21,0.07
							c0.14-0.01,0.42-0.09,0.4-0.28c-0.03-0.23-0.38-0.17-0.53-0.14c-0.51,0.11-1.02,0.38-1.51,0.56
							c-0.59,0.23-1.17,0.45-1.75,0.68c-2.27,0.9-4.53,1.85-6.76,2.84C53.78,41.25,54.05,41.41,54.27,41.32L54.27,41.32z"/>
					</g>
				</g>
			</g>
			<g>
				<g>
					<g>
						<path class="st1" d="M64.43,50.89c-0.03,1.64,0.37,3.64,2.1,4.3c1.6,0.61,3.52-0.47,4.69-1.52c1.24-1.12,1.08-2.98,0.17-4.25
							c-0.88-1.22-2.38-1.88-3.87-1.6c-1.65,0.31-3.08,1.63-3.35,3.31c-0.03,0.2,0.46,0.12,0.48-0.06c0.21-1.32,1.18-2.46,2.45-2.88
							c1.29-0.42,2.64,0.08,3.53,1.06c0.89,0.98,1.38,2.59,0.65,3.79c-0.38,0.63-1.12,1.06-1.74,1.42
							c-0.74,0.42-1.62,0.78-2.48,0.54c-1.77-0.5-2.19-2.58-2.16-4.17C64.92,50.62,64.43,50.72,64.43,50.89L64.43,50.89z"/>
					</g>
				</g>
				<g>
					<g>
						<path class="st1" d="M55.52,48.66c0.01-0.02,0.01-0.04,0.02-0.07c-0.07,0.04-0.14,0.09-0.21,0.13
							c0.13-0.03,0.45,0.16,0.59,0.21c0.22,0.08,0.44,0.15,0.66,0.23c0.49,0.17,0.99,0.34,1.48,0.52c0.94,0.33,1.88,0.67,2.83,0.98
							c0.8,0.26,1.63,0.47,2.48,0.49c0.06,0,1.42-0.03,1.06-0.43c-0.09-0.1-0.38,0.01-0.45,0.1c-0.01,0.01-0.02,0.02-0.03,0.03
							c-0.11,0.14,0.36,0.09,0.44-0.01c0.01-0.01,0.02-0.02,0.03-0.03c-0.15,0.03-0.3,0.06-0.45,0.1c-0.01-0.01-0.66,0.01-0.68,0.01
							c-0.21-0.02-0.43-0.05-0.64-0.09c-0.47-0.09-0.93-0.22-1.38-0.37c-0.87-0.28-1.72-0.6-2.58-0.9
							c-0.88-0.31-1.76-0.61-2.63-0.92c-0.28-0.1-0.5-0.21-0.79-0.11c-0.15,0.05-0.29,0.13-0.21,0.3c0.02,0.03,0.05,0.05,0.09,0.05
							c0.02,0,0.04,0,0.06,0.01C55.34,48.9,55.77,48.68,55.52,48.66L55.52,48.66z"/>
					</g>
				</g>
			</g>
			<g>
				<g>
					<path class="st1" d="M28.35,39.12c3.36,0.32,6.05,2.74,9.24,3.64c0.15,0.04,0.57-0.18,0.3-0.26c-3.24-0.91-5.92-3.32-9.35-3.65
						C28.35,38.83,28.02,39.09,28.35,39.12L28.35,39.12z"/>
				</g>
			</g>
			<g>
				<g>
					<path class="st1" d="M24.2,51.2c0.86-0.72,1.96-0.88,3.04-1.02c1.06-0.14,2.12-0.28,3.18-0.42c2.2-0.29,4.41-0.58,6.61-0.86
						c0.24-0.03,0.39-0.33,0.06-0.29c-2.53,0.33-5.06,0.66-7.59,0.99c-1.87,0.24-4.17,0.22-5.69,1.5
						C23.59,51.28,24.07,51.31,24.2,51.2L24.2,51.2z"/>
				</g>
			</g>
			<g>
				<g>
					<g>
						<path class="st1" d="M51.47,61.8c0.34,1.16,1.06,2.41,2.41,2.49c1.23,0.07,2.27-0.98,2.89-1.94c0.69-1.07,0.15-2.37-0.82-3.06
							c-0.86-0.61-2.02-0.72-2.97-0.25c-1.09,0.54-1.8,1.75-1.62,2.97c0.02,0.17,0.51,0.06,0.48-0.13
							c-0.13-0.91,0.27-1.84,0.99-2.41c0.74-0.58,1.7-0.55,2.5-0.1c0.82,0.47,1.5,1.49,1.22,2.47c-0.15,0.51-0.56,0.97-0.93,1.35
							c-0.35,0.36-0.78,0.73-1.3,0.8c-1.32,0.18-2.07-1.29-2.37-2.33C51.91,61.5,51.42,61.63,51.47,61.8L51.47,61.8z"/>
					</g>
				</g>
				<g>
					<g>
						<path class="st1" d="M53.55,58.92c-1.04-1.44-2.08-2.89-3.12-4.33c-0.08-0.11-0.51,0.09-0.48,0.13
							c1.04,1.44,2.08,2.89,3.12,4.33C53.15,59.16,53.58,58.96,53.55,58.92L53.55,58.92z"/>
					</g>
				</g>
			</g>
			<g>
				<g>
					<g>
						<path class="st1" d="M41.75,53.6c-1.76,2.89-3.68,5.68-5.73,8.37c-0.19,0.25,0.27,0.34,0.41,0.15
							c2.08-2.71,4.01-5.54,5.79-8.46C42.36,53.43,41.87,53.41,41.75,53.6L41.75,53.6z"/>
					</g>
				</g>
				<g>
					<g>
						<path class="st1" d="M36.8,62.7c-1.93-1.18-4.32-2.03-6.53-1.11c-0.88,0.37-1.69,1.03-2.05,1.94
							c-0.45,1.13-0.14,2.38,0.33,3.45c0.9,2.04,2.45,4.07,4.75,4.54c2.2,0.45,4.29-0.98,5.42-2.79c0.61-0.97,0.9-2.14,0.61-3.27
							c-0.28-1.08-1.03-2.01-2.08-2.43c-0.16-0.06-0.6,0.16-0.38,0.25c1.69,0.68,2.43,2.63,1.9,4.32c-0.59,1.89-2.65,3.86-4.73,3.7
							c-2.07-0.16-3.6-1.8-4.55-3.51c-0.98-1.76-1.7-4.21,0.27-5.58c2.07-1.43,4.72-0.43,6.64,0.75
							C36.58,63.04,37.01,62.83,36.8,62.7L36.8,62.7z"/>
					</g>
				</g>
			</g>
		</g>
		<g>
			<g>
				<path class="st1" d="M52.46,59.85c-0.34,1.05-0.53,2.14-0.56,3.24c-0.01,0.23,0.41,0.16,0.47,0c0.55-1.37,1.1-2.75,1.65-4.12
					c-0.16,0-0.32,0-0.47,0c-0.22,1.48-0.44,2.95-0.66,4.43c-0.04,0.24,0.41,0.15,0.47,0c0.57-1.26,1.15-2.51,1.72-3.77
					c0.1-0.22-0.28-0.22-0.39-0.12c-0.13,0.12-0.22,0.23-0.27,0.41c-0.06,0.18,0.27,0.15,0.35,0.11c0.19-0.1,0.31-0.23,0.38-0.44
					c0.07-0.21-0.43-0.15-0.49,0.04c-0.41,1.33-0.81,2.66-1.2,3.99c-0.06,0.22,0.41,0.15,0.47,0c0.29-0.62,0.58-1.24,0.87-1.86
					c0.14-0.3,0.28-0.6,0.42-0.91c0.12-0.26,0.23-0.63,0.47-0.8c-0.13-0.03-0.27-0.05-0.4-0.08c-0.33,1.16-0.66,2.33-0.99,3.49
					c-0.07,0.23,0.4,0.12,0.47,0c0.43-0.71,0.86-1.43,1.29-2.14c-0.15-0.02-0.31-0.03-0.46-0.05c-0.32,0.68-0.5,1.4-0.52,2.15
					c-0.01,0.24,0.48,0.16,0.49-0.04c0.02-0.72,0.19-1.41,0.49-2.07c0.12-0.25-0.36-0.21-0.46-0.05c-0.43,0.71-0.86,1.43-1.29,2.14
					c0.16,0,0.32,0,0.47,0c0.33-1.16,0.66-2.33,0.99-3.49c0.06-0.2-0.32-0.14-0.4-0.08c-0.24,0.17-0.36,0.41-0.48,0.67
					c-0.16,0.34-0.32,0.69-0.48,1.03c-0.32,0.67-0.63,1.35-0.95,2.02c0.16,0,0.32,0,0.47,0c0.39-1.33,0.79-2.67,1.2-3.99
					c-0.16,0.01-0.33,0.03-0.49,0.04c-0.01,0.06-0.04,0.1-0.1,0.13c0.12,0.04,0.23,0.07,0.35,0.11c0.02-0.06,0.05-0.12,0.1-0.16
					c-0.13-0.04-0.26-0.08-0.39-0.12c-0.57,1.26-1.15,2.51-1.72,3.77c0.16,0,0.32,0,0.47,0c0.22-1.48,0.44-2.95,0.66-4.43
					c0.03-0.23-0.41-0.15-0.47,0c-0.55,1.37-1.1,2.75-1.65,4.12c0.16,0,0.32,0,0.47,0c0.03-1.1,0.22-2.19,0.56-3.24
					C53.02,59.6,52.53,59.65,52.46,59.85L52.46,59.85z"/>
			</g>
		</g>
		<g>
			<g>
				<path class="st1" d="M65.5,49.12c-0.28,1.47-0.41,2.96-0.41,4.46c0,0.14,0.44,0,0.48-0.1c0.35-0.95,0.67-1.91,0.95-2.89
					c0.27-0.96,0.52-1.87,1.1-2.69c-0.15,0.01-0.31,0.03-0.46,0.04c-0.35,2.31-0.71,4.62-1.06,6.94c-0.03,0.16,0.44,0.07,0.48-0.07
					c0.64-2.41,1.29-4.82,2.27-7.12c-0.16,0.02-0.32,0.05-0.48,0.07c-0.41,2.35-0.81,4.7-1.22,7.06c-0.03,0.16,0.44,0.06,0.48-0.07
					c0.6-2.06,1.31-4.08,2.12-6.06c-0.16,0.03-0.32,0.07-0.48,0.1c0.1,0.45-0.06,0.92-0.15,1.37c-0.09,0.43-0.18,0.87-0.27,1.3
					c-0.18,0.89-0.37,1.78-0.55,2.67c-0.03,0.16,0.44,0.06,0.48-0.07c0.51-1.63,1.1-3.22,1.77-4.79c-0.16,0.02-0.32,0.05-0.48,0.07
					c-0.42,1.67-0.84,3.34-1.12,5.05c-0.03,0.17,0.43,0.05,0.48-0.07c0.55-1.29,1.09-2.58,1.64-3.87c-0.16,0.02-0.32,0.05-0.48,0.07
					c-0.11,0.69-0.23,1.38-0.34,2.07c-0.08,0.48-0.27,1.07,0.04,1.5c0.08,0.11,0.42-0.02,0.47-0.12c0.27-0.65,0.53-1.3,0.8-1.95
					c-0.16,0.03-0.32,0.07-0.48,0.1c0.11,0.5,0.03,0.99-0.25,1.42c-0.11,0.16,0.37,0.11,0.44-0.01c0.31-0.47,0.41-0.99,0.29-1.54
					c-0.04-0.16-0.44,0-0.48,0.1c-0.27,0.65-0.53,1.3-0.8,1.95c0.16-0.04,0.31-0.08,0.47-0.12c-0.32-0.44-0.04-1.18,0.04-1.67
					c0.1-0.6,0.2-1.19,0.3-1.79c0.03-0.17-0.43-0.05-0.48,0.07c-0.55,1.29-1.09,2.58-1.64,3.87c0.16-0.02,0.32-0.05,0.48-0.07
					c0.28-1.7,0.7-3.38,1.12-5.05c0.04-0.16-0.43-0.05-0.48,0.07c-0.67,1.57-1.26,3.16-1.77,4.79c0.16-0.02,0.32-0.05,0.48-0.07
					c0.19-0.94,0.39-1.87,0.58-2.81c0.09-0.46,0.19-0.91,0.28-1.37c0.08-0.41,0.2-0.81,0.11-1.22c-0.03-0.16-0.44,0-0.48,0.1
					c-0.81,1.98-1.52,4-2.12,6.06c0.16-0.02,0.32-0.05,0.48-0.07c0.41-2.35,0.81-4.7,1.22-7.06c0.03-0.17-0.43-0.05-0.48,0.07
					c-0.98,2.3-1.63,4.71-2.27,7.12c0.16-0.02,0.32-0.05,0.48-0.07c0.35-2.31,0.71-4.62,1.06-6.94c0.03-0.18-0.41-0.04-0.46,0.04
					c-0.57,0.8-0.84,1.68-1.1,2.62c-0.29,1.02-0.62,2.03-0.99,3.02c0.16-0.03,0.32-0.07,0.48-0.1c0-1.48,0.13-2.95,0.41-4.4
					C66.01,48.89,65.53,48.98,65.5,49.12L65.5,49.12z"/>
			</g>
		</g>
		<g>
			<g>
				<path class="st1" d="M23.12,35.54c-0.12,0.95-0.1,1.92,0.07,2.86c0.02,0.12,0.2,0.1,0.28,0.09c0.28-0.05,0.39-0.27,0.45-0.52
					c0.1-0.39,0.2-0.79,0.3-1.19c0.2-0.79,0.4-1.58,0.6-2.37c-0.16,0.01-0.32,0.03-0.49,0.04c-0.14,1.67-0.27,3.35-0.11,5.02
					c0.02,0.2,0.41,0.07,0.47-0.04c0.4-0.81,0.65-1.68,0.74-2.58c0.02-0.23-0.47-0.16-0.49,0.04c-0.08,0.87-0.32,1.71-0.71,2.49
					c0.16-0.01,0.31-0.03,0.47-0.04c-0.16-1.64-0.03-3.29,0.11-4.93c0.02-0.24-0.44-0.14-0.49,0.04c-0.16,0.65-0.33,1.3-0.49,1.95
					c-0.08,0.32-0.16,0.63-0.24,0.95c-0.04,0.16-0.08,0.32-0.12,0.47c-0.01,0.05-0.08,0.36-0.1,0.36c0.09,0.03,0.19,0.06,0.28,0.09
					c-0.16-0.92-0.18-1.85-0.06-2.78C23.64,35.27,23.15,35.34,23.12,35.54L23.12,35.54z"/>
			</g>
		</g>
		<g>
			<g>
				<path class="st1" d="M25.1,34.97c-0.23,1.39-0.31,2.8-0.24,4.21c0.01,0.1,0.45-0.02,0.48-0.11c0.38-1.19,0.57-2.42,0.56-3.67
					c0-0.08-0.47,0-0.48,0.13c-0.08,1.36-0.16,2.72-0.24,4.08c0,0.08,0.46,0,0.48-0.11c0.29-1.33,0.59-2.66,0.88-3.99
					c0.02-0.1-0.44-0.03-0.48,0.09c-0.37,1.2-0.55,2.45-0.53,3.7c0,0.09,0.45-0.02,0.48-0.11c0.39-1.3,0.71-2.61,0.97-3.94
					c0.02-0.11-0.45-0.03-0.48,0.09c-0.36,1.46-0.55,2.96-0.54,4.46c0,0.09,0.45-0.02,0.48-0.11c0.41-1.28,0.76-2.59,1.03-3.91
					c-0.16,0.04-0.32,0.07-0.48,0.11c-0.09,0.66-0.18,1.33-0.26,1.99c-0.04,0.32-0.1,0.65-0.13,0.97c-0.02,0.18,0.01,0.38,0.21,0.42
					c0.1,0.02,0.4-0.02,0.44-0.14c0.21-0.63,0.43-1.25,0.64-1.88c-0.16,0.04-0.32,0.07-0.48,0.11c0.03,0.69-0.02,1.38-0.17,2.05
					c-0.02,0.1,0.45,0.03,0.48-0.09c0.15-0.69,0.22-1.39,0.18-2.09c0-0.1-0.45,0.02-0.48,0.11c-0.21,0.63-0.43,1.25-0.64,1.88
					c0.15-0.05,0.29-0.09,0.44-0.14c-0.23-0.05-0.11-0.5-0.09-0.65c0.04-0.29,0.08-0.59,0.12-0.88c0.08-0.6,0.16-1.2,0.24-1.81
					c0.01-0.06-0.46-0.01-0.48,0.11c-0.28,1.32-0.62,2.63-1.03,3.91c0.16-0.04,0.32-0.07,0.48-0.11c0-1.49,0.18-2.97,0.54-4.42
					c-0.16,0.03-0.32,0.06-0.48,0.09c-0.26,1.33-0.58,2.64-0.97,3.94c0.16-0.04,0.32-0.07,0.48-0.11c-0.02-1.24,0.15-2.47,0.52-3.66
					c-0.16,0.03-0.32,0.06-0.48,0.09c-0.29,1.33-0.59,2.66-0.88,3.99c0.16-0.04,0.32-0.07,0.48-0.11c0.08-1.36,0.16-2.72,0.24-4.08
					c-0.16,0.04-0.32,0.09-0.48,0.13c0.01,1.23-0.18,2.45-0.56,3.63c0.16-0.04,0.32-0.07,0.48-0.11c-0.07-1.39,0-2.79,0.23-4.16
					C25.6,34.77,25.12,34.85,25.1,34.97L25.1,34.97z"/>
			</g>
		</g>
		<g>
			<g>
				<path class="st1" d="M54.02,16.52c-0.1,1.19,0.01,2.37,0.35,3.52c0.05,0.19,0.46,0.07,0.48-0.09c0.27-1.55,0.55-3.09,0.82-4.64
					c-0.16,0.02-0.32,0.03-0.49,0.05c-0.11,1.49-0.03,2.98,0.24,4.45c0.04,0.21,0.44,0.04,0.48-0.09c0.54-1.49,0.81-3.05,0.8-4.64
					c0-0.22-0.48-0.13-0.49,0.05c-0.1,1.84-0.01,3.69,0.28,5.51c0.03,0.2,0.45,0.05,0.48-0.09c0.49-1.99,0.79-4.03,0.91-6.08
					c-0.16,0.02-0.32,0.03-0.49,0.05c-0.06,2.27-0.02,4.55,0.14,6.81c0.01,0.19,0.45,0.05,0.48-0.09c0.5-2,0.91-4.02,1.22-6.06
					c-0.16,0.02-0.32,0.03-0.49,0.05c0,2.01,0,4.01,0,6.02c0,0.23,0.44,0.11,0.49-0.05c0.47-1.53,0.81-3.1,1.02-4.68
					c-0.16,0.02-0.32,0.03-0.49,0.05c0.03,1.29,0.01,2.59-0.05,3.88c-0.01,0.22,0.48,0.13,0.49-0.05c0.06-1.29,0.08-2.59,0.05-3.88
					c0-0.22-0.46-0.13-0.49,0.05c-0.21,1.59-0.55,3.15-1.02,4.68c0.16-0.02,0.32-0.03,0.49-0.05c0-2.01,0-4.01,0-6.02
					c0-0.22-0.46-0.13-0.49,0.05c-0.31,2.04-0.72,4.06-1.22,6.06c0.16-0.03,0.32-0.06,0.48-0.09c-0.15-2.24-0.2-4.49-0.14-6.74
					c0.01-0.22-0.47-0.13-0.49,0.05c-0.12,2.05-0.42,4.08-0.91,6.08c0.16-0.03,0.32-0.06,0.48-0.09c-0.28-1.8-0.38-3.61-0.28-5.43
					c-0.16,0.02-0.32,0.03-0.49,0.05c0.01,1.58-0.26,3.15-0.8,4.64c0.16-0.03,0.32-0.06,0.48-0.09c-0.26-1.44-0.34-2.91-0.23-4.37
					c0.02-0.22-0.45-0.13-0.49,0.05c-0.27,1.55-0.55,3.09-0.82,4.64c0.16-0.03,0.32-0.06,0.48-0.09c-0.33-1.12-0.45-2.28-0.35-3.44
					C54.53,16.26,54.04,16.34,54.02,16.52L54.02,16.52z"/>
			</g>
		</g>
		<g>
			<g>
				<path class="st1" d="M42.39,37.98c0.21,0,0.5-0.32,0.17-0.32C42.35,37.66,42.06,37.98,42.39,37.98L42.39,37.98z"/>
			</g>
		</g>
		<g>
			<g>
				<path class="st1" d="M42.38,37.97c0.19,0,0.51-0.29,0.18-0.29C42.38,37.68,42.06,37.97,42.38,37.97L42.38,37.97z"/>
			</g>
		</g>
	</g>
</g>
</svg>
