<?xml version="1.0" encoding="utf-8"?>
<!-- Generator: Adobe Illustrator 24.2.0, SVG Export Plug-In . SVG Version: 6.00 Build 0)  -->
<svg version="1.1" id="Слой_1" xmlns="http://www.w3.org/2000/svg" xmlns:xlink="http://www.w3.org/1999/xlink" x="0px" y="0px"
	 viewBox="0 0 88 88" style="enable-background:new 0 0 88 88;" xml:space="preserve">
<style type="text/css">
	.st0{fill:#003974;}
	.st1{fill:#FFFFFF; stroke:#FFFFFF;stroke-width:0.3;stroke-miterlimit:10;}
	.st2{fill:#FFFFFF;stroke:#FFFFFF;stroke-width:0.5;stroke-miterlimit:10;}
	.st3{fill:none;stroke:#FFFFFF;stroke-width:0.75;stroke-miterlimit:10;}
</style>
<g>
	<circle class="st0" cx="44" cy="44" r="37.91"/>
	<g>
		<g>
			<g>
				<g>
					<path class="st1" d="M32.32,21.65c-0.18,0.38-0.35,0.88-0.14,1.28c0.2,0.38,0.62,0.51,1.03,0.49c0.43-0.02,0.86-0.19,1.19-0.46
						c0.32-0.26,0.57-0.66,0.49-1.08c-0.04-0.22-0.18-0.42-0.35-0.55c-0.21-0.16-0.46-0.18-0.71-0.13c-0.08,0.02-0.23,0.1-0.21,0.2
						c0.03,0.11,0.2,0.08,0.28,0.07c-0.01,0,0.03,0,0.05,0c0.02,0,0.04,0.01,0.06,0.02c0.06,0.02,0.13,0.07,0.18,0.11
						c0.11,0.1,0.19,0.23,0.22,0.38c0.08,0.31-0.09,0.62-0.31,0.82c-0.11,0.1-0.24,0.18-0.38,0.24c-0.12,0.05-0.24,0.08-0.38,0.09
						c-0.25,0.01-0.52-0.09-0.66-0.31c-0.21-0.35-0.05-0.81,0.11-1.14C32.88,21.45,32.39,21.49,32.32,21.65L32.32,21.65z"/>
				</g>
			</g>
			<g>
				<g>
					<path class="st1" d="M50.18,20.11c-0.24-0.07-0.52,0.01-0.72,0.17c-0.17,0.13-0.28,0.32-0.37,0.51
						c-0.1,0.2-0.19,0.44-0.13,0.66c0.05,0.2,0.21,0.36,0.38,0.46c0.73,0.43,1.88,0.01,1.99-0.88c0.05-0.43-0.18-0.89-0.65-0.95
						c-0.11-0.01-0.25,0.02-0.34,0.09c-0.08,0.06-0.06,0.12,0.04,0.14c0.28,0.03,0.45,0.35,0.47,0.61c0.03,0.28-0.08,0.58-0.29,0.78
						c-0.04,0.04-0.09,0.07-0.14,0.1c-0.03,0.02-0.03,0.02-0.06,0.03c-0.05,0.02-0.03,0.01-0.01,0.01c0,0-0.08,0.02-0.04,0.01
						c-0.1,0.02-0.24,0.01-0.36-0.03c-0.31-0.1-0.58-0.37-0.52-0.72c0.03-0.19,0.12-0.37,0.22-0.54c0.04-0.07,0.09-0.15,0.16-0.21
						c0.01-0.01,0.05-0.05,0.06-0.05c0,0-0.1,0.02-0.08,0.02c0.11,0.03,0.24,0,0.34-0.05C50.18,20.24,50.3,20.14,50.18,20.11
						L50.18,20.11z"/>
				</g>
			</g>
			<g>
				<g>
					<path class="st1" d="M37.08,36.07c-0.26-0.04-0.57,0.07-0.74,0.26c-0.16,0.18-0.24,0.42-0.3,0.65
						c-0.12,0.47-0.26,1.24,0.23,1.54c0.24,0.15,0.57,0.18,0.85,0.16c0.32-0.02,0.63-0.11,0.92-0.26c0.51-0.26,1.01-0.77,0.94-1.39
						c-0.03-0.29-0.21-0.57-0.45-0.74c-0.3-0.21-0.67-0.24-1.02-0.25c-0.11,0-0.25,0.02-0.34,0.09c-0.07,0.05-0.07,0.12,0.03,0.12
						c0.48,0.02,0.98,0.12,1.21,0.6c0.21,0.45,0.02,0.93-0.32,1.25c-0.32,0.3-0.74,0.45-1.16,0.33c-0.52-0.14-0.53-0.7-0.47-1.14
						c0.03-0.23,0.08-0.47,0.17-0.69c0.04-0.09,0.08-0.18,0.14-0.26c0.02-0.02,0.08-0.06,0.08-0.09c0,0,0.01,0,0.01-0.01
						c-0.03,0.02-0.06,0.03-0.09,0.03c-0.04,0.02-0.03,0,0.02,0.01c0.11,0.02,0.26-0.03,0.34-0.09
						C37.19,36.13,37.18,36.09,37.08,36.07L37.08,36.07z"/>
				</g>
			</g>
			<g>
				<g>
					<path class="st1" d="M21.66,31.51c-0.27,0.28-0.3,0.71-0.12,1.04c0.24,0.44,0.82,0.5,1.25,0.33c0.38-0.15,0.64-0.51,0.66-0.92
						c0.01-0.19-0.03-0.37-0.13-0.54c-0.1-0.17-0.26-0.29-0.44-0.36c-0.44-0.19-1.01-0.07-1.33,0.28c-0.07,0.08-0.05,0.18,0.06,0.21
						c0.11,0.03,0.26,0,0.34-0.09c0.01-0.01,0.02-0.02,0.03-0.04c0.01-0.01,0.02-0.01,0.02-0.02c0,0-0.03,0.02-0.01,0.01
						c0.01-0.01,0.03-0.02,0.04-0.03c0.01-0.01,0.02-0.01,0.03-0.02c0.01,0,0.04-0.02,0.01-0.01c-0.03,0.01,0.02-0.01,0.02-0.01
						c0.01,0,0.05-0.02,0.05-0.02c0,0-0.05,0.02-0.02,0.01c0.01,0,0.02-0.01,0.02-0.01c0.02-0.01,0.04-0.01,0.06-0.02
						c0.05-0.01-0.05,0.01,0,0c0.02,0,0.04-0.01,0.06-0.01c0.02,0,0.03,0,0.05,0c0.03,0-0.02,0-0.02,0c0.01,0,0.02,0,0.03,0
						c0.04,0,0.07,0.01,0.11,0.01c0.03,0-0.04-0.01-0.01,0c0.01,0,0.02,0,0.02,0.01c0.02,0,0.04,0.01,0.06,0.02
						c0.02,0.01,0.04,0.01,0.05,0.02c0.03,0.01-0.02-0.01,0.01,0.01c0.03,0.02,0.07,0.04,0.1,0.06c0.01,0.01,0.03,0.02,0.04,0.03
						c0.01,0.01,0.02,0.01,0.03,0.02c0,0-0.02-0.02,0,0c0.03,0.03,0.05,0.05,0.08,0.09c0.05,0.07,0.07,0.1,0.09,0.17
						c0.02,0.07,0.04,0.13,0.05,0.2c0,0.01,0,0.02,0,0.03c0,0,0-0.02,0,0c0,0.02,0,0.03,0,0.05c0,0.04,0,0.08-0.01,0.11
						c-0.01,0.03-0.01,0.07-0.02,0.1c0,0.01,0,0.02-0.01,0.02c0,0-0.01,0.04-0.01,0.02c0-0.01-0.01,0.03-0.02,0.04
						c-0.01,0.03-0.03,0.06-0.05,0.09c-0.01,0.01-0.02,0.03-0.03,0.04c0,0.01-0.02,0.03-0.01,0.01c0.01-0.02-0.01,0.01-0.01,0.01
						c-0.02,0.03-0.05,0.05-0.07,0.08c-0.03,0.03,0.03-0.02-0.01,0.01c-0.02,0.01-0.03,0.03-0.05,0.04
						c-0.02,0.01-0.04,0.02-0.01,0.01c-0.02,0.01-0.04,0.02-0.06,0.03c-0.01,0-0.02,0.01-0.03,0.01c0,0,0.04-0.01,0.01-0.01
						c-0.02,0-0.05,0.01-0.07,0.02c0.06-0.02-0.01,0-0.03,0c-0.01,0-0.02,0-0.03,0c0,0-0.04,0-0.01,0c0.02,0-0.04,0-0.05,0
						c-0.01,0-0.02,0-0.03,0c0,0-0.04-0.01-0.02,0c0.02,0-0.01,0-0.01,0c-0.01,0-0.03-0.01-0.04-0.01
						c-0.02-0.01-0.04-0.01-0.06-0.02c0.02,0.01-0.03-0.01-0.04-0.02c-0.02-0.01-0.04-0.02-0.05-0.03c-0.01,0-0.01-0.01-0.02-0.01
						c0,0-0.03-0.02-0.01-0.01c0.01,0.01-0.02-0.02-0.02-0.02c-0.03-0.03-0.05-0.05-0.07-0.09c-0.01-0.02-0.02-0.03-0.03-0.05
						c-0.01-0.01-0.01-0.02-0.02-0.03c0.01,0.02,0,0,0-0.01c-0.02-0.04-0.03-0.07-0.04-0.11c-0.01-0.04-0.02-0.08-0.02-0.12
						c-0.01-0.05-0.01-0.04,0-0.09c0-0.04,0.01-0.08,0.01-0.12c0-0.02,0.01-0.04,0.01-0.06c0-0.01,0-0.02,0.01-0.02
						c0.01-0.03-0.01,0.02,0,0c0.02-0.04,0.03-0.07,0.05-0.11c0-0.01,0.01-0.01,0.01-0.02c0.01-0.02-0.03,0.03,0,0
						c0.01-0.02,0.03-0.03,0.04-0.05c0.07-0.08,0.05-0.18-0.06-0.21C21.89,31.39,21.74,31.42,21.66,31.51L21.66,31.51z"/>
				</g>
			</g>
			<g>
				<path class="st1" d="M64.28,28.42c-0.01-0.1-0.13-0.15-0.22-0.13c-0.09,0.02-0.17,0.09-0.23,0.16c-0.41,0.47-0.46,1.3,0.03,1.69
					c0.12,0.09,0.26,0.16,0.41,0.2c0.58,0.16,1.28-0.1,1.52-0.64c0.26-0.57-0.09-1.34-0.69-1.51c-0.44-0.13-0.97,0.06-1.21,0.46
					s-0.14,0.97,0.23,1.25c0.37,0.28,0.96,0.22,1.24-0.14s0.18-0.97-0.22-1.21c-0.4-0.24-1-0.01-1.12,0.43
					c-0.11,0.39,0.19,0.87,0.6,0.89s0.76-0.49,0.56-0.85c-0.1-0.19-0.34-0.31-0.55-0.25s-0.35,0.3-0.28,0.5
					c0.07,0.2,0.37,0.29,0.53,0.14c0.16-0.15,0.06-0.47-0.16-0.49c0,0.07,0,0.15,0,0.22"/>
				<g>
					<path class="st1" d="M64.52,28.36c-0.06-0.25-0.41-0.23-0.59-0.16c-0.2,0.08-0.35,0.24-0.46,0.42
						c-0.18,0.31-0.27,0.68-0.19,1.03c0.18,0.86,1.23,1,1.93,0.73c0.36-0.14,0.67-0.39,0.82-0.75c0.13-0.32,0.09-0.7-0.08-1
						c-0.18-0.32-0.47-0.55-0.84-0.62c-0.42-0.07-0.89,0.05-1.22,0.33c-0.29,0.24-0.44,0.61-0.38,0.99c0.05,0.37,0.3,0.68,0.65,0.8
						c0.73,0.24,1.72-0.26,1.56-1.13c-0.07-0.35-0.33-0.62-0.68-0.69c-0.38-0.07-0.82,0.06-1.09,0.33c-0.26,0.27-0.3,0.66-0.09,0.97
						c0.23,0.35,0.68,0.43,1.06,0.27c0.32-0.14,0.6-0.48,0.52-0.84c-0.1-0.47-0.7-0.55-1.06-0.35c-0.17,0.1-0.31,0.26-0.31,0.46
						c0,0.18,0.11,0.32,0.27,0.38c0.33,0.13,0.94-0.06,0.83-0.5c-0.04-0.15-0.16-0.26-0.32-0.28c-0.08-0.01-0.17,0-0.24,0.03
						c-0.04,0.02-0.15,0.07-0.15,0.13c0,0.07,0,0.15,0,0.22c0,0.11,0.13,0.11,0.21,0.1c0.07-0.01,0.27-0.06,0.27-0.16
						c0-0.07,0-0.15,0-0.22c-0.13,0.05-0.26,0.11-0.39,0.16c0.08,0.01,0.13,0.12,0.14,0.2c0,0.03-0.03,0.09-0.02,0.12
						c0.01,0.03-0.02-0.01,0.01,0c0,0,0.07-0.02,0.07-0.02c0.01-0.01,0.02,0.02,0,0c-0.01-0.01-0.05-0.01-0.06-0.02
						c-0.02-0.01-0.03-0.02-0.05-0.03c-0.05-0.04-0.08-0.1-0.08-0.16c-0.01-0.08,0.03-0.23,0.1-0.26c-0.03,0.02,0.04,0.02,0.06,0.03
						c0.06,0.03,0.12,0.07,0.16,0.13c0.08,0.09,0.1,0.22,0.08,0.34c-0.02,0.11-0.07,0.21-0.14,0.28c-0.01,0.01-0.04,0.03-0.05,0.04
						c-0.01,0-0.06,0.03-0.04,0.02c-0.02,0.01-0.02,0.01-0.03,0.01c0.03,0-0.02,0-0.03,0c-0.24-0.03-0.41-0.29-0.45-0.51
						c-0.04-0.23,0.05-0.46,0.25-0.58c0.03-0.02,0.02-0.01,0.05-0.03c0.04-0.02,0,0,0.04-0.01c0.03-0.01,0.07-0.02,0.11-0.01
						c0.1,0,0.21,0.04,0.29,0.1c0.2,0.14,0.3,0.4,0.3,0.64c0,0.23-0.11,0.47-0.32,0.57c0.02-0.01-0.06,0.02-0.04,0.02
						c0,0-0.05,0.01-0.06,0.02c-0.01,0-0.03,0.01-0.06,0.01c-0.01,0-0.06,0-0.08,0c-0.11-0.01-0.22-0.04-0.32-0.1
						c-0.45-0.27-0.52-1.01-0.14-1.36c0.17-0.16,0.36-0.22,0.59-0.18c0.24,0.05,0.45,0.21,0.59,0.41c0.29,0.42,0.27,1.01-0.13,1.35
						c-0.18,0.15-0.37,0.21-0.58,0.21c-0.27,0-0.55-0.09-0.74-0.3c-0.35-0.38-0.28-1.01,0-1.41c0.02-0.03,0.04-0.05,0.06-0.08
						c0.02-0.02,0.07-0.05,0.07-0.07c0-0.02-0.11,0.03-0.11,0.03c0,0.02,0.04,0.04,0.04,0.06C64.07,28.65,64.56,28.53,64.52,28.36
						L64.52,28.36z"/>
				</g>
			</g>
			<g>
				<g>
					<path class="st1" d="M37.94,22.2c-2.94,1.64-3.42,5.36-2.64,8.38c0.38,1.47,1.26,2.65,2.72,3.17c1.42,0.5,3.05,0.41,4.5,0.11
						c1.31-0.27,2.6-0.78,3.67-1.6c1.38-1.06,2.09-2.6,2.44-4.27c0.35-1.65,0.24-3.36-0.78-4.76c-0.83-1.15-2.08-1.96-3.44-2.35
						c-3.26-0.94-6.76,0.73-8.83,3.25c-0.1,0.12,0.36,0.06,0.44-0.04c1.91-2.32,4.96-3.9,7.99-3.02c2.7,0.78,4.55,3.14,4.3,5.98
						c-0.13,1.52-0.63,3.19-1.64,4.38c-0.92,1.09-2.22,1.78-3.58,2.15c-1.46,0.39-3.14,0.52-4.6,0.03
						c-1.35-0.45-2.25-1.53-2.65-2.87c-0.89-2.97-0.48-6.87,2.45-8.51C38.51,22.1,38.03,22.15,37.94,22.2L37.94,22.2z"/>
				</g>
			</g>
			<g>
				<g>
					<path class="st1" d="M15.97,39.04c-1.29,0.78-1.44,2.53-1.06,3.87c0.18,0.63,0.58,1.14,1.22,1.35c0.6,0.2,1.28,0.15,1.89,0.01
						c0.63-0.14,1.25-0.41,1.73-0.86c0.54-0.51,0.79-1.23,0.91-1.95c0.11-0.7,0.03-1.42-0.38-2.01c-0.35-0.49-0.86-0.86-1.43-1.04
						c-1.44-0.45-3,0.37-3.86,1.51c-0.05,0.07,0.18,0.05,0.19,0.05c0.1-0.01,0.22-0.05,0.28-0.13c0.73-0.96,1.92-1.65,3.13-1.19
						c1.09,0.41,1.71,1.45,1.63,2.6c-0.1,1.28-0.73,2.45-2.02,2.81c-0.55,0.15-1.19,0.18-1.73-0.02c-0.56-0.21-0.9-0.7-1.06-1.26
						c-0.35-1.25-0.27-2.99,0.95-3.72c0.09-0.06,0.04-0.09-0.03-0.11C16.22,38.92,16.05,38.99,15.97,39.04L15.97,39.04z"/>
				</g>
			</g>
			<g>
				<g>
					<path class="st1" d="M55.6,23.33c-0.49,0.27-0.9,0.7-1.13,1.22c-0.27,0.59-0.31,1.26-0.28,1.91c0.03,0.85,0.2,1.77,0.84,2.32
						c0.55,0.47,1.32,0.57,2.04,0.53c1.21-0.08,2.46-0.58,3.11-1.6c0.21-0.34,0.35-0.73,0.45-1.12c0.15-0.58,0.23-1.2,0.09-1.78
						c-0.29-1.28-1.59-2.19-2.9-2.23s-2.56,0.69-3.37,1.71"/>
					<g>
						<path class="st1" d="M55.41,23.32c-1.51,0.87-1.74,2.82-1.31,4.38c0.21,0.74,0.69,1.32,1.43,1.57
							c0.72,0.23,1.54,0.18,2.27,0.02c0.7-0.15,1.38-0.43,1.94-0.88c0.69-0.56,1.03-1.36,1.2-2.21c0.16-0.84,0.1-1.69-0.42-2.39
							c-0.42-0.59-1.06-1-1.75-1.2c-1.68-0.48-3.5,0.4-4.55,1.71c-0.1,0.12,0.36,0.06,0.44-0.04c0.9-1.12,2.31-1.91,3.76-1.47
							c1.32,0.4,2.2,1.58,2.11,2.96c-0.05,0.76-0.29,1.6-0.76,2.21c-0.44,0.56-1.07,0.92-1.75,1.1c-0.67,0.18-1.43,0.22-2.09,0
							c-0.67-0.22-1.11-0.75-1.32-1.41c-0.46-1.47-0.29-3.49,1.17-4.33c0.1-0.06,0.04-0.09-0.03-0.11
							C55.66,23.19,55.49,23.27,55.41,23.32L55.41,23.32z"/>
					</g>
				</g>

					<ellipse transform="matrix(0.9935 -0.1136 0.1136 0.9935 -2.5684 6.7057)" class="st2" cx="57.55" cy="25.89" rx="3.15" ry="3.29"/>
			</g>
			<g>
				<g>
					<path class="st1" d="M26.01,35.24c-0.7,0.39-1.27,1.03-1.6,1.78c-0.38,0.87-0.43,1.85-0.4,2.8c0.05,1.24,0.29,2.6,1.2,3.41
						c0.78,0.69,1.88,0.84,2.9,0.78c1.72-0.11,3.5-0.84,4.41-2.34c0.3-0.5,0.5-1.06,0.64-1.64c0.21-0.85,0.32-1.75,0.13-2.61
						c-0.42-1.88-2.26-3.22-4.12-3.28c-1.86-0.06-3.64,1-4.79,2.5"/>
					<g>
						<path class="st1" d="M25.85,35.16c-2.18,1.29-2.47,4.19-1.85,6.45c0.29,1.05,0.93,1.93,1.98,2.31
							c1.04,0.38,2.24,0.31,3.31,0.06c0.99-0.23,1.95-0.67,2.7-1.37c0.92-0.86,1.36-2.07,1.56-3.29c0.18-1.13,0.06-2.29-0.58-3.26
							c-0.57-0.87-1.47-1.51-2.45-1.84c-2.4-0.78-4.9,0.53-6.37,2.41c-0.14,0.18,0.35,0.15,0.45,0.02c1.24-1.6,3.29-2.78,5.36-2.23
							c1.94,0.51,3.27,2.25,3.18,4.25c-0.05,1.1-0.36,2.33-1,3.23c-0.57,0.8-1.43,1.35-2.35,1.65c-1.93,0.63-4.41,0.45-5.19-1.72
							c-0.39-1.08-0.44-2.35-0.3-3.47c0.15-1.27,0.74-2.38,1.86-3.04C26.44,35.16,26.02,35.06,25.85,35.16L25.85,35.16z"/>
					</g>
				</g>

					<ellipse transform="matrix(0.9952 -0.0976 0.0976 0.9952 -3.671 2.9972)" class="st2" cx="28.79" cy="39.01" rx="4.47" ry="4.82"/>
			</g>
			<g>
				<g>
					<path class="st1" d="M26.56,25.06c-0.41,0.23-0.75,0.61-0.95,1.06c-0.22,0.51-0.25,1.09-0.23,1.66
						c0.03,0.74,0.17,1.54,0.71,2.02c0.46,0.41,1.11,0.5,1.71,0.46c1.01-0.06,2.07-0.5,2.6-1.39c0.18-0.3,0.29-0.63,0.38-0.97
						c0.13-0.5,0.19-1.04,0.07-1.55c-0.25-1.11-1.34-1.91-2.44-1.95c-1.1-0.04-2.15,0.59-2.83,1.48"/>
					<g>
						<path class="st1" d="M26.4,24.98c-1.32,0.78-1.5,2.51-1.13,3.88c0.17,0.64,0.57,1.17,1.21,1.4c0.64,0.23,1.37,0.19,2.03,0.03
							c0.61-0.14,1.2-0.42,1.66-0.84c0.55-0.52,0.82-1.24,0.94-1.98c0.11-0.68,0.04-1.37-0.35-1.96c-0.34-0.53-0.89-0.91-1.48-1.11
							c-1.47-0.48-3.02,0.33-3.91,1.48c-0.07,0.1,0.06,0.15,0.13,0.16c0.12,0.01,0.25-0.04,0.32-0.14c0.7-0.9,1.84-1.58,3.01-1.27
							c1.12,0.3,1.89,1.32,1.84,2.48c-0.06,1.26-0.65,2.42-1.9,2.83c-1.11,0.37-2.51,0.25-2.95-1c-0.23-0.63-0.26-1.38-0.18-2.04
							c0.09-0.73,0.42-1.38,1.06-1.76c0.09-0.05,0.12-0.13,0.04-0.2C26.66,24.87,26.48,24.94,26.4,24.98L26.4,24.98z"/>
					</g>
				</g>

					<ellipse transform="matrix(0.9953 -0.0965 0.0965 0.9953 -2.5038 2.8501)" class="st2" cx="28.2" cy="27.3" rx="2.64" ry="2.86"/>
			</g>
			<g>
				<g>
					<path class="st1" d="M67.88,40.24c0.41-0.23,0.75-0.61,0.95-1.06c0.22-0.51,0.25-1.09,0.23-1.66
						c-0.03-0.74-0.17-1.54-0.71-2.02c-0.46-0.41-1.11-0.5-1.71-0.46c-1.01,0.06-2.07,0.5-2.6,1.39c-0.18,0.3-0.29,0.63-0.38,0.97
						c-0.13,0.5-0.19,1.04-0.07,1.55c0.25,1.11,1.34,1.91,2.44,1.95c1.1,0.04,2.15-0.59,2.83-1.48"/>
					<g>
						<path class="st1" d="M68.03,40.32c1.32-0.78,1.5-2.51,1.13-3.88c-0.17-0.64-0.57-1.17-1.21-1.4
							c-0.64-0.23-1.37-0.19-2.03-0.03c-0.61,0.14-1.2,0.42-1.66,0.84c-0.55,0.52-0.82,1.24-0.94,1.98
							c-0.11,0.68-0.04,1.37,0.35,1.96c0.34,0.53,0.89,0.91,1.48,1.11c1.47,0.48,3.02-0.33,3.91-1.48c0.07-0.1-0.06-0.15-0.13-0.16
							c-0.12-0.01-0.25,0.04-0.32,0.14c-0.7,0.9-1.84,1.58-3.01,1.27c-1.12-0.3-1.89-1.32-1.84-2.48c0.06-1.26,0.65-2.42,1.9-2.83
							c1.11-0.37,2.51-0.25,2.95,1c0.23,0.63,0.26,1.38,0.18,2.04c-0.09,0.73-0.42,1.38-1.06,1.76c-0.09,0.05-0.12,0.13-0.04,0.2
							C67.78,40.44,67.96,40.37,68.03,40.32L68.03,40.32z"/>
					</g>
				</g>

					<ellipse transform="matrix(0.9953 -0.0965 0.0965 0.9953 -3.3603 6.5725)" class="st2" cx="66.24" cy="38.01" rx="2.64" ry="2.86"/>
			</g>
			<g>
				<g>
					<path class="st1" d="M43.23,36.78c-1.3,0.78-1.46,2.52-1.11,3.88c0.16,0.63,0.52,1.17,1.13,1.43c0.6,0.26,1.3,0.24,1.93,0.11
						c0.62-0.12,1.23-0.39,1.71-0.82c0.55-0.49,0.82-1.16,0.96-1.86c0.15-0.72,0.12-1.46-0.26-2.1c-0.32-0.54-0.84-0.96-1.43-1.18
						c-1.46-0.55-3.03,0.24-3.92,1.41c-0.18,0.24,0.27,0.3,0.4,0.13c0.69-0.91,1.83-1.63,3.01-1.31c1.13,0.31,1.86,1.35,1.79,2.51
						c-0.04,0.64-0.21,1.36-0.6,1.88c-0.33,0.44-0.81,0.74-1.32,0.9c-0.52,0.16-1.11,0.23-1.65,0.11c-0.6-0.14-1.01-0.57-1.21-1.15
						c-0.21-0.63-0.24-1.35-0.16-2c0.08-0.73,0.41-1.37,1.05-1.75c0.09-0.06,0.11-0.17,0.03-0.24
						C43.48,36.67,43.32,36.73,43.23,36.78L43.23,36.78z"/>
				</g>
			</g>
			<g>
				<g>
					<path class="st1" d="M52.68,33.26c-0.89,0.51-1.52,1.3-1.78,2.29c-0.25,0.99-0.22,2.14,0.01,3.13
						c0.22,0.93,0.75,1.73,1.66,2.11c0.88,0.37,1.92,0.34,2.85,0.17c0.93-0.17,1.85-0.53,2.58-1.15c0.8-0.68,1.23-1.63,1.45-2.64
						c0.23-1.03,0.19-2.1-0.39-3.01c-0.49-0.78-1.28-1.35-2.14-1.65c-2.14-0.74-4.44,0.35-5.79,2.02c-0.19,0.24,0.27,0.3,0.4,0.13
						c1.08-1.34,2.81-2.33,4.58-1.99c1.75,0.34,3.07,1.83,2.98,3.63c-0.05,0.97-0.34,2.04-0.94,2.81c-0.52,0.67-1.28,1.11-2.08,1.35
						c-1.62,0.5-3.8,0.44-4.51-1.39c-0.34-0.87-0.38-1.88-0.3-2.8c0.1-1.14,0.61-2.18,1.63-2.76
						C53.17,33.37,52.91,33.12,52.68,33.26L52.68,33.26z"/>
				</g>
			</g>
		</g>
		<g>
			<g>
				<g>
					<path class="st1" d="M55.69,66.37c0.19-0.4,0.34-0.9,0.13-1.32c-0.19-0.38-0.63-0.53-1.03-0.52c-0.42,0.01-0.85,0.18-1.17,0.45
						c-0.33,0.27-0.58,0.69-0.49,1.13c0.1,0.5,0.58,0.82,1.08,0.72c0.1-0.02,0.22-0.13,0.19-0.24c-0.03-0.12-0.19-0.13-0.29-0.11
						c-0.02,0-0.07,0-0.11-0.01c-0.07-0.02-0.12-0.06-0.18-0.11c-0.1-0.09-0.17-0.22-0.21-0.35c-0.07-0.29,0.09-0.58,0.3-0.77
						c0.23-0.2,0.5-0.32,0.78-0.33c0.24-0.02,0.5,0.06,0.65,0.28c0.21,0.34,0.04,0.79-0.11,1.11c-0.05,0.11,0.05,0.2,0.15,0.22
						C55.5,66.54,55.64,66.48,55.69,66.37L55.69,66.37z"/>
				</g>
			</g>
			<g>
				<g>
					<path class="st1" d="M37.87,67.96c0.52,0.14,0.86-0.31,1.05-0.73c0.1-0.21,0.17-0.47,0.1-0.7c-0.06-0.21-0.23-0.38-0.41-0.49
						c-0.38-0.23-0.89-0.24-1.29-0.04c-0.37,0.19-0.63,0.56-0.67,0.98c-0.04,0.46,0.24,0.95,0.73,1.01
						c0.12,0.01,0.26-0.04,0.31-0.15c0.05-0.11-0.04-0.2-0.15-0.21c-0.1-0.01-0.2-0.08-0.27-0.18c-0.08-0.11-0.12-0.23-0.13-0.37
						c-0.02-0.26,0.1-0.55,0.29-0.7c0.06-0.05,0.09-0.07,0.15-0.1c0,0,0.06-0.02,0.03-0.01c-0.02,0.01,0.02-0.01,0.02-0.01
						c0.02-0.01,0.03-0.01,0.05-0.02c0,0,0.08-0.02,0.04-0.01c0.13-0.02,0.24-0.01,0.37,0.03c0.13,0.04,0.25,0.12,0.34,0.22
						c0.11,0.13,0.14,0.28,0.11,0.45c-0.03,0.17-0.12,0.34-0.21,0.49c-0.04,0.07-0.09,0.13-0.15,0.18
						c-0.01,0.01-0.05,0.05-0.06,0.04c0,0,0.04-0.01,0.04-0.01c-0.02,0.01-0.03-0.01,0,0c-0.12-0.03-0.26-0.01-0.34,0.09
						C37.74,67.8,37.76,67.93,37.87,67.96L37.87,67.96z"/>
				</g>
			</g>
			<g>
				<g>
					<path class="st1" d="M50.87,51.91c0.26,0.04,0.58-0.04,0.76-0.23c0.17-0.17,0.25-0.4,0.31-0.63c0.12-0.47,0.28-1.24-0.2-1.56
						c-0.23-0.16-0.55-0.17-0.82-0.16c-0.33,0.02-0.66,0.11-0.95,0.26c-0.49,0.25-0.99,0.74-0.95,1.33c0.02,0.3,0.19,0.59,0.44,0.77
						c0.3,0.21,0.68,0.24,1.03,0.26c0.11,0,0.25-0.03,0.34-0.09c0.07-0.05,0.07-0.09-0.03-0.1c-0.48-0.02-0.97-0.13-1.2-0.59
						c-0.22-0.44-0.04-0.93,0.3-1.26c0.32-0.3,0.71-0.46,1.14-0.36c0.53,0.12,0.57,0.66,0.52,1.11c-0.03,0.24-0.07,0.48-0.16,0.71
						c-0.04,0.1-0.08,0.2-0.15,0.29c-0.02,0.03-0.05,0.06-0.08,0.09c-0.01,0.01-0.04,0.03-0.04,0.03c0-0.01,0.19-0.04,0.14-0.05
						c-0.11-0.02-0.24,0.02-0.34,0.06C50.9,51.81,50.76,51.9,50.87,51.91L50.87,51.91z"/>
				</g>
			</g>
			<g>
				<g>
					<path class="st1" d="M66.36,56.41c0.24-0.25,0.28-0.66,0.1-0.96c-0.26-0.43-0.83-0.43-1.25-0.27c-0.21,0.08-0.39,0.21-0.51,0.4
						c-0.09,0.15-0.14,0.32-0.15,0.49c-0.01,0.37,0.2,0.68,0.54,0.81c0.21,0.08,0.46,0.08,0.68,0.04c0.26-0.05,0.52-0.16,0.7-0.35
						c0.07-0.08-0.06-0.09-0.12-0.08c-0.1,0.01-0.25,0.04-0.32,0.12c-0.02,0.03-0.05,0.05-0.08,0.07c-0.01,0.01,0,0,0,0
						c-0.01,0-0.01,0.01-0.02,0.01c-0.01,0.01-0.06,0.04-0.04,0.03c0.02-0.01-0.02,0.01-0.03,0.01c-0.01,0-0.02,0.01-0.02,0.01
						c0.05-0.01,0.02-0.01,0.01-0.01c-0.04,0.02,0.05-0.01,0,0c-0.01,0-0.02,0-0.02,0.01c-0.03,0.01,0.05-0.01,0.01,0
						c-0.03,0-0.04,0.01-0.01,0c-0.02,0.01-0.04,0-0.06,0c-0.01,0-0.02,0-0.02,0c0,0,0.03,0,0.01,0c-0.02,0-0.04,0-0.06,0
						c-0.01,0-0.02,0-0.03,0c0,0,0.02,0,0,0c-0.02,0-0.03-0.01-0.05-0.01c-0.04-0.01-0.08-0.02-0.11-0.03
						c-0.28-0.1-0.45-0.36-0.48-0.65c-0.01-0.14,0.01-0.29,0.07-0.42c0.03-0.06,0.06-0.12,0.1-0.18c0.02-0.03,0.05-0.05,0.07-0.08
						c0.01-0.01,0.02-0.02,0.04-0.03c0,0,0.02-0.02,0.01-0.01c-0.01,0.01,0.02-0.01,0.02-0.02c0.01,0,0.04-0.03,0.02-0.01
						c0.01,0,0.02-0.01,0.03-0.01c0.01,0,0.05-0.02,0.02-0.01c-0.02,0.01,0.01,0,0.01,0c0,0-0.04,0.01-0.01,0
						c0.01,0,0.02-0.01,0.03-0.01c-0.02,0.01-0.03,0.01,0,0c0.05-0.01,0.01,0,0,0c0.01,0,0.02,0,0.03,0c0.02,0,0,0,0,0
						c0.01,0,0.02,0,0.03,0c0.04,0,0.08,0.01,0.12,0.02c0.15,0.04,0.28,0.13,0.36,0.26c0.17,0.26,0.18,0.65-0.04,0.88
						c-0.07,0.08,0.07,0.09,0.12,0.08C66.14,56.52,66.29,56.49,66.36,56.41L66.36,56.41z"/>
				</g>
			</g>
			<g>
				<path class="st1" d="M23.72,59.58c0.01,0.1,0.13,0.15,0.22,0.13s0.17-0.09,0.23-0.16c0.41-0.47,0.46-1.3-0.03-1.69
					c-0.12-0.09-0.26-0.16-0.41-0.2c-0.58-0.16-1.28,0.1-1.52,0.64c-0.26,0.57,0.09,1.34,0.69,1.51c0.44,0.13,0.97-0.06,1.21-0.46
					s0.14-0.97-0.23-1.25s-0.96-0.22-1.24,0.14c-0.28,0.37-0.18,0.97,0.22,1.21c0.4,0.24,1,0.01,1.12-0.43
					c0.11-0.39-0.19-0.87-0.6-0.89s-0.76,0.49-0.56,0.85c0.1,0.19,0.34,0.31,0.55,0.25c0.21-0.06,0.35-0.3,0.28-0.5
					c-0.07-0.2-0.37-0.29-0.53-0.14c-0.16,0.15-0.06,0.47,0.16,0.49c0-0.07,0-0.15,0-0.22"/>
				<g>
					<path class="st1" d="M23.48,59.64c0.06,0.25,0.4,0.25,0.59,0.17c0.2-0.08,0.35-0.24,0.45-0.42c0.19-0.31,0.26-0.69,0.19-1.04
						c-0.18-0.86-1.23-1.02-1.94-0.74c-0.36,0.14-0.67,0.4-0.82,0.76c-0.13,0.33-0.08,0.7,0.08,1.01c0.17,0.32,0.47,0.56,0.84,0.62
						c0.43,0.07,0.88-0.05,1.22-0.33c0.61-0.51,0.48-1.55-0.3-1.81c-0.38-0.13-0.85-0.05-1.17,0.19c-0.3,0.22-0.44,0.58-0.37,0.95
						c0.07,0.35,0.33,0.63,0.68,0.7c0.38,0.07,0.82-0.05,1.09-0.33c0.26-0.28,0.29-0.67,0.09-0.99c-0.23-0.35-0.68-0.44-1.06-0.28
						c-0.32,0.14-0.6,0.49-0.52,0.86c0.1,0.47,0.7,0.57,1.06,0.36c0.17-0.1,0.31-0.27,0.31-0.47c0-0.18-0.11-0.32-0.27-0.39
						c-0.34-0.14-0.94,0.06-0.83,0.51c0.04,0.15,0.16,0.27,0.32,0.29c0.08,0.01,0.16,0.01,0.24-0.03c0.05-0.02,0.14-0.07,0.14-0.14
						c0-0.07,0-0.15,0-0.22c0-0.11-0.12-0.13-0.21-0.12c-0.08,0.01-0.27,0.07-0.27,0.17c0,0.07,0,0.15,0,0.22
						c0.13-0.06,0.26-0.11,0.39-0.17c-0.08-0.01-0.13-0.1-0.14-0.19c0-0.03,0.03-0.08,0.02-0.11c0-0.02,0.02,0-0.01,0
						c-0.01,0-0.02,0.01-0.03,0.01c-0.03,0.01-0.04,0.01-0.02,0.01c0.01-0.02,0.01,0.01,0,0c0.02,0.01,0.07,0.02,0.09,0.05
						c0.05,0.04,0.08,0.09,0.08,0.16c0.01,0.08-0.04,0.22-0.1,0.24c0.02-0.01,0.02,0,0-0.01c-0.02,0-0.04-0.01-0.06-0.02
						c-0.06-0.03-0.12-0.07-0.16-0.12c-0.08-0.09-0.1-0.22-0.08-0.33c0.02-0.1,0.07-0.2,0.15-0.28c0.03-0.03,0.06-0.05,0.09-0.06
						c0.02-0.01,0.02-0.01,0.03-0.01c0,0,0.02,0,0.04,0c0.23,0.04,0.4,0.28,0.44,0.5c0.04,0.23-0.06,0.45-0.25,0.56
						c-0.06,0.04-0.13,0.05-0.2,0.05c-0.11,0-0.21-0.03-0.3-0.1c-0.19-0.14-0.29-0.39-0.28-0.62c0-0.22,0.11-0.46,0.3-0.55
						c0.09-0.05,0.16-0.06,0.27-0.06c0.11,0.01,0.22,0.04,0.32,0.1c0.45,0.27,0.51,0.99,0.13,1.35c-0.17,0.16-0.37,0.22-0.59,0.18
						c-0.24-0.04-0.45-0.2-0.59-0.4c-0.29-0.41-0.27-1,0.13-1.33c0.08-0.07,0.19-0.13,0.26-0.15c0.11-0.04,0.21-0.06,0.32-0.06
						c0.27,0,0.55,0.09,0.74,0.29c0.35,0.38,0.28,1,0,1.4c-0.01,0.02-0.11,0.13-0.11,0.13c0.01,0.02,0.1-0.02,0.1-0.01
						c0,0.01-0.04-0.05-0.04-0.06C23.92,59.33,23.44,59.46,23.48,59.64L23.48,59.64z"/>
				</g>
			</g>
			<g>
				<g>
					<path class="st1" d="M49.99,65.94c2.92-1.63,3.42-5.11,2.8-8.15c-0.3-1.45-1.04-2.76-2.41-3.42c-1.4-0.67-3.08-0.64-4.58-0.38
						c-1.43,0.24-2.85,0.77-4,1.68c-1.28,1.01-1.97,2.41-2.35,3.97c-0.41,1.65-0.41,3.41,0.53,4.89c0.75,1.18,1.94,2.06,3.25,2.53
						c3.36,1.22,7.01-0.45,9.18-3.09c0.2-0.24-0.26-0.32-0.41-0.15c-1.81,2.2-4.7,3.75-7.6,3.16c-2.75-0.56-4.88-2.87-4.72-5.74
						c0.09-1.55,0.57-3.28,1.58-4.5c0.89-1.08,2.17-1.78,3.5-2.16c2.64-0.77,6.17-0.65,7.29,2.34c0.53,1.43,0.6,3.14,0.4,4.64
						c-0.23,1.73-1.11,3.22-2.65,4.08C49.49,65.8,49.74,66.07,49.99,65.94L49.99,65.94z"/>
				</g>
			</g>
			<g>
				<g>
					<path class="st1" d="M72,49.05c1.3-0.78,1.46-2.52,1.12-3.87c-0.16-0.63-0.52-1.17-1.13-1.43c-0.6-0.25-1.3-0.23-1.93-0.11
						c-0.62,0.12-1.23,0.39-1.71,0.81c-0.55,0.49-0.82,1.16-0.96,1.86c-0.15,0.72-0.12,1.45,0.26,2.1c0.32,0.54,0.84,0.96,1.42,1.18
						c1.46,0.55,3.04-0.24,3.92-1.41c0.18-0.24-0.28-0.28-0.4-0.12c-0.69,0.91-1.83,1.63-3.01,1.31c-1.13-0.31-1.86-1.36-1.79-2.52
						c0.04-0.63,0.2-1.33,0.57-1.86c0.32-0.46,0.82-0.77,1.34-0.94c0.52-0.16,1.12-0.23,1.65-0.11c0.61,0.14,1.01,0.57,1.21,1.15
						c0.21,0.63,0.24,1.35,0.16,2.01c-0.08,0.73-0.41,1.37-1.05,1.76c-0.09,0.05-0.11,0.16-0.03,0.23
						C71.74,49.16,71.91,49.1,72,49.05L72,49.05z"/>
				</g>
			</g>
			<g>
				<g>
					<path class="st1" d="M32.4,64.67c0.49-0.27,0.9-0.7,1.13-1.22c0.27-0.59,0.31-1.26,0.28-1.91c-0.03-0.85-0.2-1.77-0.84-2.32
						c-0.55-0.47-1.32-0.57-2.04-0.53c-1.21,0.08-2.46,0.58-3.11,1.6c-0.21,0.34-0.35,0.73-0.45,1.12c-0.15,0.58-0.23,1.2-0.09,1.78
						c0.29,1.28,1.59,2.19,2.9,2.23s2.56-0.69,3.37-1.71"/>
					<g>
						<path class="st1" d="M32.55,64.76c1.52-0.87,1.76-2.79,1.36-4.36c-0.19-0.75-0.63-1.37-1.37-1.66
							c-0.7-0.27-1.51-0.25-2.24-0.11c-0.73,0.14-1.45,0.42-2.04,0.9c-0.67,0.55-1.02,1.31-1.2,2.15c-0.18,0.82-0.15,1.68,0.31,2.41
							c0.39,0.62,1.02,1.07,1.71,1.31c1.71,0.6,3.58-0.29,4.65-1.63c0.18-0.23-0.28-0.25-0.39-0.1c-0.86,1.07-2.24,1.87-3.65,1.54
							c-1.36-0.32-2.34-1.51-2.24-2.92c0.05-0.75,0.27-1.58,0.74-2.18c0.42-0.54,1.04-0.89,1.69-1.07c1.31-0.38,2.94-0.24,3.46,1.23
							c0.24,0.7,0.28,1.51,0.19,2.24c-0.1,0.88-0.51,1.65-1.3,2.1c-0.09,0.05-0.12,0.15-0.04,0.21
							C32.3,64.87,32.47,64.81,32.55,64.76L32.55,64.76z"/>
					</g>
				</g>

					<ellipse transform="matrix(0.9935 -0.1136 0.1136 0.9935 -6.8589 3.8609)" class="st2" cx="30.45" cy="62.11" rx="3.15" ry="3.29"/>
			</g>
			<g>
				<g>
					<path class="st1" d="M61.99,52.76c0.7-0.39,1.27-1.03,1.6-1.78c0.38-0.87,0.43-1.85,0.4-2.8c-0.05-1.24-0.29-2.6-1.2-3.41
						c-0.78-0.69-1.88-0.84-2.9-0.78c-1.72,0.11-3.5,0.84-4.41,2.34c-0.3,0.5-0.5,1.06-0.64,1.64c-0.21,0.85-0.32,1.75-0.13,2.61
						c0.42,1.88,2.26,3.22,4.12,3.28c1.86,0.06,3.64-1,4.79-2.5"/>
					<g>
						<path class="st1" d="M62.15,52.84c2.18-1.29,2.47-4.19,1.85-6.45c-0.29-1.05-0.93-1.93-1.98-2.31
							c-1.04-0.38-2.24-0.31-3.31-0.06c-0.99,0.23-1.95,0.67-2.7,1.37c-0.92,0.86-1.36,2.07-1.56,3.29
							c-0.18,1.13-0.06,2.29,0.58,3.26c0.57,0.87,1.47,1.51,2.45,1.84c2.4,0.78,4.9-0.53,6.37-2.41c0.14-0.18-0.35-0.15-0.45-0.02
							c-1.24,1.6-3.29,2.78-5.36,2.23c-1.94-0.51-3.27-2.25-3.18-4.25c0.05-1.1,0.36-2.33,1-3.23c0.57-0.8,1.43-1.35,2.35-1.65
							c1.93-0.63,4.41-0.45,5.19,1.72c0.39,1.08,0.44,2.35,0.3,3.47c-0.15,1.27-0.74,2.38-1.86,3.04
							C61.56,52.84,61.98,52.94,62.15,52.84L62.15,52.84z"/>
					</g>
				</g>

					<ellipse transform="matrix(0.9952 -0.0976 0.0976 0.9952 -4.5002 6.0149)" class="st2" cx="59.21" cy="48.99" rx="4.47" ry="4.82"/>
			</g>
			<g>
				<g>
					<path class="st1" d="M61.44,62.94c0.41-0.23,0.75-0.61,0.95-1.06c0.22-0.51,0.25-1.09,0.23-1.66
						c-0.03-0.74-0.17-1.54-0.71-2.02c-0.46-0.41-1.11-0.5-1.71-0.46c-1.01,0.06-2.07,0.5-2.6,1.39c-0.18,0.3-0.29,0.63-0.38,0.97
						c-0.13,0.5-0.19,1.04-0.07,1.55c0.25,1.11,1.34,1.91,2.44,1.95s2.15-0.59,2.83-1.48"/>
					<g>
						<path class="st1" d="M61.6,63.02c1.32-0.78,1.5-2.51,1.13-3.88c-0.17-0.64-0.57-1.17-1.21-1.4c-0.64-0.23-1.37-0.19-2.03-0.03
							c-0.61,0.14-1.2,0.42-1.66,0.84c-0.55,0.52-0.82,1.24-0.94,1.98c-0.11,0.68-0.04,1.37,0.35,1.96
							c0.34,0.53,0.89,0.91,1.48,1.11c1.47,0.48,3.02-0.33,3.91-1.48c0.07-0.1-0.06-0.15-0.13-0.16c-0.12-0.01-0.25,0.04-0.32,0.14
							c-0.7,0.9-1.84,1.58-3.01,1.27c-1.12-0.3-1.89-1.32-1.84-2.48c0.06-1.26,0.65-2.42,1.9-2.83c1.11-0.37,2.51-0.25,2.95,1
							c0.23,0.63,0.26,1.38,0.18,2.04c-0.09,0.73-0.42,1.38-1.06,1.76c-0.09,0.05-0.12,0.13-0.04,0.2
							C61.34,63.13,61.52,63.06,61.6,63.02L61.6,63.02z"/>
					</g>
				</g>

					<ellipse transform="matrix(0.9953 -0.0965 0.0965 0.9953 -5.5812 6.057)" class="st2" cx="59.8" cy="60.7" rx="2.64" ry="2.86"/>
			</g>
			<g>
				<g>
					<path class="st1" d="M20.12,47.76c-0.41,0.23-0.75,0.61-0.95,1.06c-0.22,0.51-0.25,1.09-0.23,1.66
						c0.03,0.74,0.17,1.54,0.71,2.02c0.46,0.41,1.11,0.5,1.71,0.46c1.01-0.06,2.07-0.5,2.6-1.39c0.18-0.3,0.29-0.63,0.38-0.97
						c0.13-0.5,0.19-1.04,0.07-1.55c-0.25-1.11-1.34-1.91-2.44-1.95s-2.15,0.59-2.83,1.48"/>
					<g>
						<path class="st1" d="M19.97,47.68c-1.32,0.78-1.5,2.51-1.13,3.88c0.17,0.64,0.57,1.17,1.21,1.4c0.64,0.23,1.37,0.19,2.03,0.03
							c0.61-0.14,1.2-0.42,1.66-0.84c0.55-0.52,0.82-1.24,0.94-1.98c0.11-0.68,0.04-1.37-0.35-1.96c-0.34-0.53-0.89-0.91-1.48-1.11
							c-1.47-0.48-3.02,0.33-3.91,1.48c-0.07,0.1,0.06,0.15,0.13,0.16c0.12,0.01,0.25-0.04,0.32-0.14c0.7-0.9,1.84-1.58,3.01-1.27
							c1.12,0.3,1.89,1.32,1.84,2.48c-0.06,1.26-0.65,2.42-1.9,2.83c-1.11,0.37-2.51,0.25-2.95-1c-0.23-0.63-0.26-1.38-0.18-2.04
							c0.09-0.73,0.42-1.38,1.06-1.76c0.09-0.05,0.12-0.13,0.04-0.2C20.22,47.56,20.04,47.63,19.97,47.68L19.97,47.68z"/>
					</g>
				</g>

					<ellipse transform="matrix(0.9953 -0.0965 0.0965 0.9953 -4.7246 2.3346)" class="st2" cx="21.76" cy="49.99" rx="2.64" ry="2.86"/>
			</g>
			<g>
				<g>
					<path class="st1" d="M44.76,51.19c1.3-0.78,1.47-2.49,1.12-3.85c-0.16-0.64-0.54-1.19-1.16-1.43c-0.6-0.23-1.28-0.21-1.89-0.08
						c-0.65,0.13-1.29,0.41-1.78,0.86c-0.53,0.5-0.79,1.19-0.92,1.89c-0.12,0.69-0.08,1.41,0.29,2.02c0.32,0.53,0.85,0.94,1.43,1.14
						c1.47,0.52,3.03-0.29,3.92-1.46c0.13-0.17-0.35-0.14-0.45-0.01c-0.69,0.91-1.84,1.61-3.01,1.26c-1.14-0.34-1.84-1.42-1.76-2.59
						c0.05-0.62,0.21-1.3,0.57-1.81c0.33-0.47,0.83-0.8,1.38-0.96c0.52-0.16,1.12-0.22,1.66-0.07c0.61,0.16,1,0.62,1.18,1.2
						c0.2,0.62,0.23,1.33,0.15,1.97c-0.08,0.73-0.4,1.38-1.04,1.77c-0.08,0.05-0.12,0.13-0.04,0.19
						C44.5,51.3,44.69,51.23,44.76,51.19L44.76,51.19z"/>
				</g>
			</g>
			<g>
				<g>
					<path class="st1" d="M35.33,54.76c1.92-1.09,2.23-3.45,1.76-5.45c-0.22-0.94-0.75-1.74-1.66-2.13
						c-0.89-0.37-1.92-0.34-2.85-0.18c-0.93,0.17-1.85,0.54-2.58,1.16c-0.81,0.69-1.22,1.64-1.44,2.66
						c-0.23,1.03-0.19,2.11,0.39,3.02c0.49,0.78,1.28,1.36,2.14,1.66c2.14,0.74,4.43-0.34,5.79-2.02c0.19-0.24-0.26-0.35-0.41-0.16
						c-1.08,1.34-2.81,2.31-4.58,1.98c-1.74-0.33-3.06-1.81-2.97-3.61c0.05-0.96,0.34-2.03,0.94-2.8c0.52-0.66,1.28-1.1,2.08-1.35
						c1.61-0.5,3.79-0.45,4.51,1.37c0.34,0.86,0.38,1.88,0.3,2.79c-0.1,1.14-0.61,2.17-1.63,2.75
						C34.83,54.61,35.08,54.9,35.33,54.76L35.33,54.76z"/>
				</g>
			</g>
		</g>
	</g>
</g>
</svg>
