<?xml version="1.0" encoding="utf-8"?>
<!-- Generator: Adobe Illustrator 24.2.0, SVG Export Plug-In . SVG Version: 6.00 Build 0)  -->
<svg version="1.1" id="Слой_1" xmlns="http://www.w3.org/2000/svg" xmlns:xlink="http://www.w3.org/1999/xlink" x="0px" y="0px"
	 viewBox="0 0 88 88" style="enable-background:new 0 0 88 88;" xml:space="preserve">
<style type="text/css">
	.st0{fill:#003974;}
	.st1{fill:#FFFFFF; stroke:#FFFFFF;stroke-width:1;stroke-miterlimit:10;}
	.st2{fill:#FFFFFF;stroke:#FFFFFF;stroke-width:0.5;stroke-miterlimit:10;}
	.st3{fill:none;stroke:#FFFFFF;stroke-width:0.75;stroke-miterlimit:10;}
</style>
<g>
	<circle class="st0" cx="44" cy="44" r="37.91"/>
	<g>
		<g>
			<g>
				<g>
					<path class="st1" d="M41.53,30.6c-1.45,0.88-1.72,2.99-1.52,4.53c0.21,1.59,1.02,3.27,2.54,3.97c1.42,0.65,3.13,0.22,4.24-0.84
						c1.29-1.25,1.67-3.26,1.26-4.97c-0.24-1-0.79-2.02-1.67-2.59c-0.79-0.51-1.78-0.62-2.67-0.31c-0.14,0.05-0.1,0.21,0.04,0.16
						c1.88-0.65,3.44,0.78,3.97,2.49c0.47,1.54,0.27,3.38-0.72,4.69c-0.97,1.28-2.76,1.91-4.27,1.22c-1.34-0.6-2.11-2.02-2.39-3.41
						c-0.33-1.57-0.16-3.91,1.36-4.84C41.83,30.62,41.63,30.54,41.53,30.6L41.53,30.6z"/>
				</g>
			</g>
			<g>
				<g>
					<path class="st1" d="M38.17,40.05c0.36-0.06,0.72-0.12,1.08-0.17c0.33-0.05,0.7-0.16,1.04-0.17c0.36,0,0.54,0.44,0.7,0.71
						c0.16,0.26,0.32,0.53,0.47,0.8c0.64,1.14,1.2,2.33,1.67,3.54c0.02,0.05,0.26-0.02,0.24-0.06c-0.53-1.34-1.14-2.65-1.87-3.89
						c-0.17-0.29-0.34-0.58-0.53-0.85c-0.13-0.19-0.25-0.34-0.49-0.34c-0.36,0-0.74,0.11-1.09,0.16c-0.39,0.06-0.79,0.13-1.18,0.19
						C38.12,39.98,38,40.07,38.17,40.05L38.17,40.05z"/>
				</g>
			</g>
			<g>
				<g>
					<path class="st1" d="M43.69,44.86c0.38-0.03,0.76-0.05,1.14-0.08c0.05,0,0.13-0.02,0.16-0.06c0.03-0.04-0.03-0.06-0.06-0.05
						c-0.38,0.03-0.76,0.05-1.14,0.08c-0.05,0-0.13,0.02-0.16,0.06C43.6,44.85,43.65,44.87,43.69,44.86L43.69,44.86z"/>
				</g>
			</g>
			<g>
				<g>
					<path class="st1" d="M45.63,42.93c0.54-1.03,1.17-2.02,1.89-2.94c0.04-0.05-0.03-0.07-0.07-0.07
						c-0.06-0.01-0.12,0.02-0.16,0.07c-0.71,0.92-1.34,1.91-1.89,2.94C45.35,43.02,45.59,43,45.63,42.93L45.63,42.93z"/>
				</g>
			</g>
			<g>
				<g>
					<path class="st1" d="M48.05,39.84c0.52-0.04,1.08-0.14,1.6-0.12c0.64,0.03,0.84,0.39,0.97,0.94c0.23,0.98,0.19,2,0.19,3
						c0,2.04-0.03,4.09-0.1,6.13c0,0.06,0.24,0.02,0.24-0.06c0.08-2.37,0.12-4.75,0.09-7.12c-0.01-0.54-0.02-1.09-0.11-1.63
						c-0.06-0.37-0.13-0.89-0.43-1.16c-0.23-0.2-0.54-0.23-0.83-0.22c-0.53,0.01-1.06,0.08-1.59,0.12
						C47.97,39.73,47.88,39.85,48.05,39.84L48.05,39.84z"/>
				</g>
			</g>
			<g>
				<g>
					<path class="st1" d="M37.75,41.39c-0.38,0.35-0.46,0.82-0.43,1.32c0.04,0.67,0.13,1.33,0.17,2c0.09,1.48,0.09,2.95,0,4.43
						c0,0.03,0.24,0.01,0.24-0.06c0.08-1.37,0.09-2.75,0.02-4.12c-0.04-0.66-0.09-1.32-0.16-1.98c-0.06-0.58-0.09-1.17,0.37-1.59
						C38.01,41.33,37.79,41.35,37.75,41.39L37.75,41.39z"/>
				</g>
			</g>
			<g>
				<g>
					<path class="st1" d="M38.76,50.15c1.78-0.08,3.57-0.16,5.35-0.24c1.84-0.08,3.71-0.25,5.55-0.07c0.12,0.01,0.25-0.16,0.08-0.17
						c-1.79-0.17-3.6-0.02-5.4,0.06c-1.86,0.08-3.71,0.17-5.57,0.25C38.64,49.98,38.59,50.15,38.76,50.15L38.76,50.15z"/>
				</g>
			</g>
			<g>
				<g>
					<path class="st1" d="M43.58,40.26c0.61-0.02,1.22-0.06,1.83-0.12c-0.02-0.02-0.04-0.03-0.06-0.05
						c-0.56,0.54-0.94,1.25-1.07,2.02c-0.01,0.07,0.23,0.03,0.24-0.04c0.12-0.76,0.49-1.46,1.05-2c0.04-0.04-0.04-0.05-0.06-0.05
						c-0.61,0.05-1.22,0.09-1.83,0.12c-0.04,0-0.14,0.02-0.16,0.06C43.5,40.26,43.55,40.26,43.58,40.26L43.58,40.26z"/>
				</g>
			</g>
			<g>
				<g>
					<path class="st1" d="M43.27,40.65c-0.1,0.45,0.07,0.94,0.44,1.23c0.05,0.04,0.11,0.03,0.16,0.01c0.02-0.01,0.11-0.07,0.06-0.1
						c-0.35-0.27-0.51-0.73-0.42-1.16C43.53,40.52,43.29,40.56,43.27,40.65L43.27,40.65z"/>
				</g>
			</g>
			<g>
				<g>
					<path class="st1" d="M45.29,44.39c0.01-0.42-0.04-0.84-0.17-1.23c-0.11-0.33-0.28-0.66-0.54-0.9
						c-0.04-0.04-0.11-0.04-0.16-0.01c-0.03,0.02-0.1,0.08-0.06,0.12c0.54,0.49,0.71,1.35,0.69,2.05
						C45.04,44.53,45.29,44.49,45.29,44.39L45.29,44.39z"/>
				</g>
			</g>
			<g>
				<g>
					<path class="st1" d="M43.23,44.42c-0.01-0.4,0.04-0.8,0.17-1.18c0.1-0.32,0.26-0.63,0.51-0.86c0.04-0.04,0.02-0.08-0.03-0.09
						c-0.06-0.02-0.13,0.01-0.17,0.05c-0.57,0.52-0.75,1.41-0.73,2.15C42.99,44.57,43.24,44.52,43.23,44.42L43.23,44.42z"/>
				</g>
			</g>
		</g>
		<g>
			<g>
				<g>
					<path class="st1" d="M41.55,26.42c-0.56-1.69-0.34-3.54-0.03-5.26c0.28-1.54,0.87-3.21,2.24-4.12c1.81-1.2,3.27,0.47,3.49,2.21
						c0.11,0.89,0.03,1.81-0.03,2.7c-0.06,0.95-0.16,1.89-0.28,2.83c-0.03,0.23,0.69,0.09,0.72-0.11c0.21-1.64,0.4-3.33,0.36-4.99
						c-0.04-1.3-0.5-2.82-1.86-3.29c-1.2-0.41-2.6,0.17-3.48,1c-1.09,1.01-1.61,2.45-1.87,3.88c-0.32,1.74-0.55,3.64,0.02,5.34
						C40.89,26.83,41.61,26.62,41.55,26.42L41.55,26.42z"/>
				</g>
			</g>
			<g>
				<g>
					<path class="st1" d="M41.58,26.16c0.96-0.35,1.99-0.43,3-0.26c0.97,0.17,1.84,0.72,2.84,0.36c0.09-0.03,0.28-0.12,0.21-0.24
						c-0.07-0.11-0.4,0-0.47,0.02c-0.24,0.09-0.57-0.05-0.8-0.12c-0.25-0.08-0.49-0.17-0.74-0.23c-0.46-0.12-0.92-0.19-1.39-0.21
						c-0.99-0.04-1.97,0.12-2.9,0.47c-0.09,0.03-0.28,0.12-0.21,0.24C41.18,26.29,41.51,26.19,41.58,26.16L41.58,26.16z"/>
				</g>
			</g>
			<g>
				<g>
					<path class="st1" d="M44.76,19.09c-0.17-0.32-0.6-0.24-0.88-0.1c-0.29,0.14-0.47,0.38-0.66,0.63c-0.32,0.43-0.6,1.01-0.36,1.55
						c0.28,0.64,1.04,0.66,1.61,0.41c0.3-0.13,0.56-0.32,0.8-0.54c0.23-0.21,0.45-0.44,0.58-0.72c0.14-0.3,0.15-0.6-0.04-0.87
						c-0.21-0.31-0.6-0.38-0.94-0.28c-0.11,0.03-0.35,0.13-0.31,0.28c0.04,0.15,0.31,0.12,0.41,0.09c0.08-0.03-0.05,0-0.06,0
						c0.01-0.01,0.06,0.02,0.08,0.04c0.06,0.04,0.12,0.11,0.16,0.18c0.1,0.17,0.09,0.35,0.03,0.53c-0.07,0.18-0.2,0.34-0.34,0.48
						c-0.14,0.14-0.3,0.29-0.47,0.4c-0.1,0.06-0.13,0.08-0.23,0.13c-0.01,0-0.07,0.02-0.01,0.01c-0.02,0.01-0.05,0.01-0.07,0.02
						c0.02,0,0.06-0.01-0.01,0c-0.01,0-0.02,0-0.04,0c0.03,0,0.03,0,0,0c-0.13-0.01-0.28-0.1-0.37-0.23
						c-0.21-0.3-0.16-0.72-0.01-1.03c0.11-0.22,0.26-0.41,0.41-0.6c0.04-0.05,0.07-0.08,0.09-0.11c0.01-0.01,0.02-0.02,0.04-0.03
						c0.02-0.02-0.02,0.01,0.02-0.02c0.07-0.06,0,0,0,0c0.03-0.01,0.04-0.02,0.01-0.01c-0.02,0.01-0.04,0.01-0.06,0.01
						c-0.02,0-0.1-0.02-0.12-0.01c-0.01,0-0.01-0.03,0.01,0.01c0.08,0.14,0.28,0.13,0.41,0.09C44.52,19.35,44.84,19.22,44.76,19.09
						L44.76,19.09z"/>
				</g>
			</g>
			<g>
				<g>
					<path class="st1" d="M40.46,22.97C38.64,22.98,36.82,22.99,35,23c-1.2,0.01-2.42,0-3.57,0.39c-2.35,0.79-3.08,3.02-3.26,5.3
						c-0.27,3.45-0.25,6.95-0.37,10.41c-0.13,3.76-0.25,7.52-0.38,11.28c-0.01,0.33,0.72,0.19,0.73-0.08
						c0.21-6.21,0.42-12.43,0.63-18.64c0.08-2.36-0.23-5.74,1.86-7.37c1.32-1.02,3.24-0.84,4.8-0.85c1.58-0.01,3.16-0.02,4.74-0.03
						C40.48,23.42,40.95,22.97,40.46,22.97L40.46,22.97z"/>
				</g>
			</g>
			<g>
				<g>
					<path class="st1" d="M27.93,53.82c-0.08,1.64-0.13,3.29-0.14,4.93c0,1.51-0.13,3.17,0.2,4.66c0.54,2.38,2.91,2.82,5.01,2.99
						c3.15,0.26,6.32,0.41,9.47,0.33c1.52-0.04,3.04-0.13,4.56-0.31c1.84-0.21,3.77-0.82,5.61-0.5c0.17,0.03,0.78-0.24,0.6-0.27
						c-1.16-0.2-2.27-0.06-3.42,0.13c-1.6,0.27-3.2,0.47-4.83,0.58c-3.21,0.21-6.43,0.1-9.63-0.11c-2.52-0.16-6.09-0.08-6.69-3.22
						c-0.27-1.44-0.17-3.01-0.16-4.47c0-1.65,0.05-3.29,0.14-4.93C28.66,53.53,27.94,53.62,27.93,53.82L27.93,53.82z"/>
				</g>
			</g>
			<g>
				<g>
					<path class="st1" d="M48.27,23.21c2.53-0.08,5.08-0.03,7.6,0.26c1.18,0.14,2.44,0.33,3.24,1.3c0.74,0.89,0.78,2.2,0.72,3.3
						c-0.25,4.64-0.69,9.25-0.78,13.9c-0.09,4.77-0.08,9.55-0.27,14.32c-0.1,2.46-0.19,4.94-0.49,7.38c-0.02,0.24-0.06,0.47-0.1,0.7
						c-0.03,0.61-0.37,0.89-1.03,0.83c-0.84,0.24-0.95,0.18-1.74,0.07c-1.15-0.16-2.29-0.11-3.43,0.09
						c-0.36,0.06-0.58,0.54-0.09,0.45c1.29-0.22,2.53-0.2,3.82,0.02c0.63,0.1,1.28,0.24,1.9,0.04c1.3-0.43,1.36-1.86,1.46-3.01
						c0.42-4.51,0.53-9.03,0.59-13.56c0.06-4.53,0.08-9.05,0.29-13.57c0.11-2.22,0.27-4.43,0.49-6.64c0.14-1.41,0.32-3.07-0.48-4.33
						c-0.92-1.46-2.76-1.64-4.32-1.79c-2.43-0.23-4.86-0.28-7.3-0.21C47.98,22.77,47.78,23.23,48.27,23.21L48.27,23.21z"/>
				</g>
			</g>
		</g>
		<g>
			<g>
				<path class="st1" d="M35.77,54.73c1.08-0.48,2.15-0.44,3.26-0.06c0.5,0.17,1.04,0.4,1.58,0.31c0.43-0.07,0.7-0.32,0.93-0.68
					c0.26-0.42,0.61-0.85,1.15-0.57c0.28,0.15,0.52,0.36,0.78,0.54c0.3,0.2,0.62,0.37,0.99,0.33c0.19-0.02,0.35-0.1,0.52-0.19
					c0.48-0.27,0.87-0.5,1.44-0.57c1.33-0.17,2.67,0.21,3.91-0.44c0.14-0.08-0.07-0.11-0.15-0.07c-1.39,0.73-3.01,0.04-4.46,0.54
					c-0.27,0.09-0.47,0.23-0.72,0.36c-0.55,0.3-0.94,0.21-1.42-0.13c-0.34-0.24-0.68-0.57-1.11-0.62c-0.3-0.04-0.59,0.07-0.8,0.29
					c-0.19,0.19-0.28,0.45-0.43,0.66c-0.44,0.62-1.15,0.42-1.74,0.22c-1.32-0.44-2.5-0.6-3.81-0.02
					C35.53,54.7,35.67,54.78,35.77,54.73L35.77,54.73z"/>
			</g>
		</g>
		<g>
			<g>
				<path class="st1" d="M37.01,59.13c0.08-1.04,1.23-1.22,2.06-0.96c0.6,0.19,1.14,0.53,1.74,0.73c0.42,0.14,0.87,0.22,1.31,0.13
					c0.62-0.12,1.07-0.59,1.68-0.72c0.72-0.16,1.27,0.35,1.94,0.53c0.49,0.13,1,0.06,1.5,0c0.73-0.09,1.47-0.19,2.2-0.28
					c0.23-0.03,2.63-0.31,2.63-0.25c0.01-0.1-0.23-0.06-0.24,0.03c0,0.02,0,0.03,0,0.05c0,0.03,0.02,0.05,0.05,0.06
					c0.12,0.03,0.4,0,0.34-0.19c-0.11-0.39-1.67,0.03-1.89,0.05c-1.06,0.13-2.12,0.28-3.18,0.4c-0.7,0.08-1.22,0.04-1.85-0.25
					c-0.29-0.13-0.58-0.29-0.91-0.34c-0.61-0.1-1.07,0.19-1.58,0.48c-1.25,0.71-2.23-0.07-3.39-0.49c-0.95-0.35-2.56-0.27-2.66,1.06
					C36.76,59.26,37,59.22,37.01,59.13L37.01,59.13z"/>
			</g>
		</g>
	</g>
</g>
</svg>
