<?xml version="1.0" encoding="utf-8"?>
<!-- Generator: Adobe Illustrator 24.2.0, SVG Export Plug-In . SVG Version: 6.00 Build 0)  -->
<svg version="1.1" id="Слой_1" xmlns="http://www.w3.org/2000/svg" xmlns:xlink="http://www.w3.org/1999/xlink" x="0px" y="0px"
	 viewBox="0 0 88 88" style="enable-background:new 0 0 88 88;" xml:space="preserve">
<style type="text/css">
	.st0{fill:#003974;}
	.st1{fill:#FFFFFF; stroke:#FFFFFF;stroke-width:1;stroke-miterlimit:10;}
	.st2{fill:#FFFFFF;stroke:#FFFFFF;stroke-width:0.5;stroke-miterlimit:10;}
	.st3{fill:none;stroke:#FFFFFF;stroke-width:0.75;stroke-miterlimit:10;}
</style>
<g>
	<circle class="st0" cx="44" cy="44" r="37.91"/>
	<g>
		<g>
			<g>
				<path class="st1" d="M33.15,30.51c-0.65,1.78-1.37,4.15,0.22,5.69c0.25,0.24,0.54,0.42,0.86,0.54c0.43,0.16,0.67,0.28,0.86,0.73
					c0.1,0.24,0.19,0.49,0.29,0.73c0.43,1.03,0.94,2.03,1.56,2.96c1.14,1.67,2.76,3.09,4.74,3.63c2.16,0.59,4.35-0.11,6.33-0.96
					c0.46-0.2,0.05-0.49-0.3-0.34c-2.15,0.92-4.41,1.53-6.64,0.49c-1.76-0.82-3.08-2.34-4.03-4c-0.52-0.9-0.87-1.86-1.29-2.8
					c-0.36-0.81-1.13-0.69-1.73-1.26c-1.54-1.46-0.78-3.77-0.16-5.47C33.98,30.16,33.25,30.25,33.15,30.51L33.15,30.51z"/>
			</g>
		</g>
		<g>
			<g>
				<path class="st1" d="M38.24,43.12c0.15,1.45,0.06,2.91-0.26,4.32c-0.04,0.17,0.67,0.06,0.72-0.13c0.33-1.44,0.42-2.92,0.27-4.39
					C38.95,42.78,38.22,42.92,38.24,43.12L38.24,43.12z"/>
			</g>
		</g>
		<g>
			<g>
				<path class="st1" d="M50.2,42.19c-0.31,1.54-0.32,3.12-0.02,4.66c0.06,0.34,0.79,0.15,0.72-0.19c-0.28-1.5-0.27-3.03,0.03-4.52
					C51,41.78,50.26,41.86,50.2,42.19L50.2,42.19z"/>
			</g>
		</g>
		<g>
			<g>
				<path class="st1" d="M38.38,47.14c-0.17,0.29-0.03,0.54,0.16,0.78c0.27,0.33,0.56,0.64,0.83,0.96c0.58,0.68,1.14,1.38,1.69,2.09
					c1.08,1.39,2.1,2.83,3.06,4.31c0.14,0.21,0.56,0.02,0.68-0.13c0.07-0.09,0.14-0.19,0.21-0.28c0.11-0.14-0.09-0.23-0.2-0.24
					c-0.18-0.02-0.37,0.07-0.48,0.21c-0.07,0.09-0.14,0.19-0.21,0.28c0.23-0.04,0.45-0.09,0.68-0.13c-0.88-1.35-1.8-2.68-2.78-3.96
					c-0.48-0.63-0.98-1.26-1.49-1.87c-0.25-0.31-0.51-0.61-0.77-0.91c-0.17-0.2-0.86-0.78-0.69-1.07
					C39.24,46.86,38.51,46.91,38.38,47.14L38.38,47.14z"/>
			</g>
		</g>
		<g>
			<g>
				<path class="st1" d="M50.32,46.5c-2.22,2.81-4.29,5.73-6.2,8.76c-0.21,0.33,0.53,0.33,0.69,0.07c1.88-2.99,3.92-5.87,6.11-8.63
					C51.2,46.34,50.51,46.25,50.32,46.5L50.32,46.5z"/>
			</g>
		</g>
		<g>
			<g>
				<path class="st1" d="M38.35,47.2c-2.56,0.69-5.19,1.27-7.7,2.16c-1.82,0.64-3.67,1.56-4.83,3.17c-1.42,1.99-1.43,4.58-1.42,6.93
					c0.01,2.88,0.26,5.75,0.72,8.59c0.05,0.32,0.78,0.14,0.72-0.19c-0.43-2.6-0.67-5.22-0.71-7.86c-0.03-2.28-0.15-4.96,1.1-6.98
					c1.16-1.86,3.25-2.78,5.26-3.42c2.29-0.73,4.65-1.29,6.98-1.92C38.93,47.56,38.8,47.08,38.35,47.2L38.35,47.2z"/>
			</g>
		</g>
		<g>
			<g>
				<path class="st1" d="M50.46,47.32c2.55,0.58,5.16,1.04,7.66,1.77c2.27,0.67,3.84,2.03,4.38,4.38c0.5,2.17,0.36,4.51,0.36,6.72
					c0,2.82-0.09,5.64-0.26,8.46c-0.02,0.27,0.71,0.12,0.72-0.1c0.16-2.78,0.25-5.56,0.26-8.35c0.01-2.45,0.21-5.16-0.52-7.54
					c-0.64-2.06-2.19-3.25-4.2-3.87c-2.59-0.79-5.31-1.26-7.95-1.86C50.7,46.9,50.06,47.23,50.46,47.32L50.46,47.32z"/>
			</g>
		</g>
		<g>
			<g>
				<path class="st1" d="M25.38,68.33c5.66,0.77,11.36,0.44,17.05,0.2c2.87-0.12,5.73-0.2,8.6-0.22c1.48-0.01,2.95-0.01,4.43,0
					c1.18,0.01,3.41-0.35,4.27,0.6c0.11,0.13,0.78-0.13,0.68-0.24c-0.58-0.65-1.46-0.59-2.27-0.61c-1.56-0.03-3.12-0.04-4.68-0.04
					c-3.04,0-6.07,0.06-9.11,0.17c-6.13,0.23-12.28,0.7-18.39-0.13C25.82,68.03,25.21,68.3,25.38,68.33L25.38,68.33z"/>
			</g>
		</g>
		<g>
			<g>
				<path class="st1" d="M31.76,57.97c-0.27,0.65-0.28,1.33-0.29,2.02c0,0.82-0.01,1.65-0.01,2.47c-0.01,1.62-0.01,3.24-0.02,4.85
					c0,0.22,0.72,0.08,0.72-0.19c0.01-1.56,0.01-3.11,0.02-4.67c0-0.76,0.01-1.53,0.01-2.29c0-0.78-0.01-1.55,0.29-2.28
					C32.58,57.66,31.86,57.74,31.76,57.97L31.76,57.97z"/>
			</g>
		</g>
		<g>
			<g>
				<path class="st1" d="M56.77,57.48c-0.29,1.93-0.32,3.87-0.24,5.82c0.04,0.98,0.1,1.97,0.17,2.95c0.03,0.5,0.07,1.01,0.1,1.51
					c0.02,0.32-0.07,0.87,0.19,1.09c0.13,0.11,0.43,0.02,0.56-0.05c0.13-0.08,0.2-0.12,0.2-0.28c0-0.05-0.11-0.07-0.13-0.08
					c-0.02,0-0.03-0.01-0.05-0.01c-0.2-0.04-0.84,0.26-0.45,0.35c-0.03,0-0.06,0-0.09,0c0.05-0.06,0.1-0.12,0.14-0.18
					c-0.02,0.01-0.04,0.02-0.05,0.03c0.19-0.02,0.37-0.03,0.56-0.05c-0.22-0.19-0.15-1.07-0.16-1.34c-0.03-0.47-0.06-0.94-0.09-1.4
					c-0.06-0.91-0.12-1.82-0.15-2.73c-0.08-1.91-0.05-3.83,0.24-5.73C57.52,57.14,56.8,57.27,56.77,57.48L56.77,57.48z"/>
			</g>
		</g>
		<g>
			<g>
				<path class="st1" d="M31.69,49.36c1.14,1.93,2.29,3.85,3.43,5.78c0.36,0.61,0.68,1.26,1.47,1.26c0.95,0,2-0.38,2.93-0.58
					c-0.14-0.07-0.29-0.14-0.43-0.21c-0.04,0.77-0.01,1.55,0.14,2.31c0.05,0.28,0.08,0.81,0.27,1.03c0.18,0.22,0.63,0.35,0.87,0.51
					c1.25,0.78,2.27,1.83,3.04,3.08c0.17,0.27,0.86,0,0.66-0.32c-0.66-1.08-1.52-2.02-2.54-2.77c-0.51-0.37-1.28-0.62-1.48-1.24
					c-0.27-0.84-0.28-1.79-0.24-2.66c0.01-0.23-0.27-0.25-0.43-0.21c-0.81,0.17-1.92,0.61-2.72,0.42c-0.48-0.11-0.58-0.42-0.82-0.82
					c-0.24-0.41-0.48-0.81-0.73-1.22c-0.92-1.56-1.85-3.11-2.77-4.67C32.2,48.77,31.5,49.04,31.69,49.36L31.69,49.36z"/>
			</g>
		</g>
		<g>
			<g>
				<path class="st1" d="M44.06,55.27c-0.21,4.4-0.28,8.81-0.2,13.22c0,0.15,0.73,0.04,0.72-0.19c-0.08-4.41-0.01-8.82,0.2-13.22
					C44.79,54.94,44.07,55.04,44.06,55.27L44.06,55.27z"/>
			</g>
		</g>
		<g>
			<g>
				<path class="st1" d="M33.2,21.76c0.61,1.11,1.36,2.32,2.61,2.77c0.53,0.19,1.16,0.28,1.54-0.22c0.45-0.6,0.79-1.35,1.03-2.05
					c0.1-0.31,0.19-0.65,0.38-0.92c0.3-0.44,0.71-0.31,1.15-0.22c0.66,0.13,1.29,0.13,1.88-0.24c0.61-0.39,0.94-1.03,1.15-1.71
					c0.27-0.85,0.47-1.73,0.7-2.59c-0.24,0.05-0.48,0.09-0.73,0.14c-0.03,0.08-0.06,0.16-0.1,0.24c-0.31,0.3,0.4,0.32,0.59,0.14
					c0.18-0.18,0.24-0.32,0.23-0.57c-0.01-0.28-0.67-0.06-0.73,0.14c-0.19,0.73-0.39,1.46-0.58,2.18c-0.18,0.67-0.43,1.61-1.17,1.88
					c-0.57,0.21-1.27-0.2-1.88-0.13c-0.47,0.05-0.9,0.28-1.17,0.67c-0.3,0.42-0.39,0.95-0.58,1.42c-0.14,0.36-0.33,0.7-0.52,1.04
					c-0.19,0.32-0.25,0.57-0.64,0.44c-1.17-0.38-1.9-1.58-2.45-2.59C33.78,21.3,33.07,21.53,33.2,21.76L33.2,21.76z"/>
			</g>
		</g>
		<g>
			<g>
				<path class="st1" d="M50.81,19.79c-0.78,0.92-1.81,1.63-2.96,2c-0.76,0.24-1.76,0.19-2.41,0.71c-0.29,0.24-0.36,0.49-0.38,0.86
					c-0.03,0.43-0.23,0.6-0.66,0.55c-0.25-0.03-0.49-0.08-0.75-0.08c-0.85-0.02-1.77,0.26-2.41,0.84c-0.52,0.47-0.86,1.32-0.12,1.77
					c0.78,0.48,2,0.23,2.85,0.21c1.13-0.03,2.42,0.1,3.52-0.21c0.38-0.11,0.71-0.28,1.01-0.53c0.38-0.31,0.68-0.79,1.12-1.02
					c0.6-0.31,1.29,0.07,1.91,0.12c0.43,0.03,0.85-0.03,1.23-0.23c0.36-0.19,0.62-0.49,0.84-0.83c0.13-0.2,0.24-0.41,0.35-0.62
					c0.06-0.1,0.11-0.21,0.17-0.31c0.04-0.07,0.28-0.32,0.22-0.24c0.1-0.06,0.19-0.12,0.29-0.17c-0.03,0.01-0.06,0.02-0.1,0.03
					c-0.43,0.13-0.34,0.5,0.1,0.36c0.42-0.13,0.73-0.67,0.13-0.83c-0.74-0.2-1.21,0.64-1.49,1.15c-0.26,0.47-0.47,0.98-1,1.19
					c-0.57,0.22-1.18-0.11-1.77-0.15c-0.82-0.06-1.44,0.32-2.01,0.88c-0.45,0.45-0.8,0.8-1.48,0.91c-0.72,0.12-1.51,0.06-2.24,0.08
					c-0.67,0.02-1.34,0.05-2.01,0.06c-0.55,0.01-1.36-0.03-1.36-0.76c0-0.83,1.16-1.27,1.83-1.28c0.45-0.01,0.89,0.13,1.35,0.11
					c0.29-0.02,0.59-0.08,0.83-0.26c0.39-0.29,0.26-0.61,0.35-1.03c0.15-0.66,1-0.63,1.55-0.75c0.55-0.12,1.08-0.3,1.59-0.54
					c0.99-0.47,1.85-1.13,2.57-1.97C51.69,19.57,50.97,19.62,50.81,19.79L50.81,19.79z"/>
			</g>
		</g>
		<g>
			<g>
				<path class="st1" d="M26.31,52.9c-0.44,0.11-0.67,0.49-0.47,0.92c0.22,0.45,0.76,0.67,1.19,0.86c0.56,0.25,1.12,0.5,1.3,1.14
					c0.22,0.78-0.31,1.14-0.64,1.76c-0.26,0.5-0.14,0.89,0.3,1.2c0.92,0.65-0.98,1.08-1.38,1.24c-0.96,0.37-2.19,1.34-1.63,2.51
					c0.14,0.28,0.85,0.06,0.72-0.19C25,60.86,27.05,60.36,28,60c0.43-0.16,0.93-0.46,0.96-0.98c0.03-0.59-0.81-0.63-0.66-1.22
					c0.14-0.54,0.69-0.86,0.79-1.44c0.08-0.45-0.04-0.93-0.31-1.29c-0.29-0.39-0.75-0.58-1.18-0.78c-0.24-0.11-0.49-0.21-0.71-0.36
					c-0.11-0.08-0.22-0.16-0.3-0.28c-0.07-0.1-0.06-0.35-0.18-0.33C26.87,53.22,26.75,52.79,26.31,52.9L26.31,52.9z"/>
			</g>
		</g>
		<g>
			<g>
				<path class="st1" d="M49.12,67.62c-0.19-0.53-0.42-1.12-0.28-1.69c0.06-0.25,0.22-0.56,0.47-0.66c0.28-0.11,0.65,0,0.94,0.01
					c0.89,0.02,1.77-0.39,2.34-1.08c0.27-0.33,0.48-0.72,0.56-1.15c0.04-0.2,0.05-0.4,0.03-0.6c-0.02-0.25-0.11-0.51,0.21-0.52
					c0.26-0.01,0.52,0.07,0.77,0.12c0.28,0.06,0.6,0.09,0.87,0.19c0.52,0.18,0.79,0.98,1.04,1.42c0.14,0.24,0.84,0,0.67-0.3
					c-0.28-0.5-0.53-1.22-1.08-1.48c-0.32-0.15-0.72-0.19-1.07-0.26c-0.27-0.06-0.55-0.13-0.83-0.15c-0.42-0.03-0.98,0.04-1.24,0.42
					c-0.16,0.24-0.08,0.48-0.07,0.75c0.02,0.3-0.04,0.61-0.16,0.88c-0.23,0.54-0.69,0.99-1.24,1.19c-0.62,0.21-1.28-0.06-1.9,0.14
					c-0.49,0.16-0.86,0.55-1.02,1.04c-0.2,0.64,0.03,1.31,0.25,1.91C48.5,68.1,49.22,67.9,49.12,67.62L49.12,67.62z"/>
			</g>
		</g>
		<g>
			<g>
				<path class="st1" d="M56.2,48.93c-0.9,1.52-1.81,3.04-2.71,4.56c-0.22,0.37-0.44,0.74-0.66,1.11c-0.23,0.38-0.39,0.88-0.85,0.96
					c-0.45,0.08-0.91-0.08-1.35-0.17c-0.44-0.09-0.87-0.18-1.31-0.28c-0.22-0.05-0.59,0.04-0.58,0.32c0.06,1.07-0.08,2.12-0.38,3.15
					c0.07-0.07,0.14-0.15,0.21-0.22c-1.69,0.86-3.1,2.12-4.1,3.74c-0.2,0.32,0.54,0.29,0.68,0.05c0.79-1.28,1.86-2.36,3.16-3.12
					c0.22-0.13,0.57-0.22,0.73-0.43c0.17-0.22,0.21-0.68,0.26-0.94c0.16-0.8,0.2-1.61,0.16-2.43c-0.19,0.11-0.38,0.21-0.58,0.32
					c0.56,0.12,1.11,0.23,1.67,0.35c0.43,0.09,0.89,0.24,1.33,0.22c0.73-0.03,1.09-0.58,1.43-1.14c1.19-2,2.38-4,3.57-6
					C57.08,48.66,56.35,48.69,56.2,48.93L56.2,48.93z"/>
			</g>
		</g>
		<g>
			<g>
				<path class="st1" d="M32.27,27.1c0.65-5.86,5.67-11.06,11.62-11.62c3.31-0.31,6.69,1.86,8.95,4.11c2.05,2.05,3.5,4.6,4.19,7.42
					c0.07,0.29,0.8,0.1,0.72-0.19c-0.78-3.21-2.56-6.1-5.05-8.27c-2.48-2.17-5.78-3.94-9.17-3.46c-6.08,0.86-11.31,5.95-11.99,12.1
					C31.51,27.51,32.24,27.38,32.27,27.1L32.27,27.1z"/>
			</g>
		</g>
		<g>
			<g>
				<path class="st1" d="M31.76,26.73c-0.94,1.35-1.63,2.86-1.99,4.46c-0.11,0.49-0.26,1.23,0.24,1.57
					c0.47,0.33,1.15,0.03,1.59-0.21c0.59-0.33,1.07-0.82,1.56-1.29c0.59-0.57,1.21-1.03,1.98-1.32c1.48-0.56,3.13-0.53,4.69-0.43
					c0.29,0.02,0.77-0.4,0.28-0.43c-2.57-0.16-5.33-0.01-7.31,1.84c-0.49,0.46-0.94,0.98-1.52,1.33c-0.36,0.22-0.78,0.26-0.87-0.24
					c-0.06-0.35,0.05-0.72,0.13-1.06c0.36-1.51,1.01-2.91,1.9-4.18C32.64,26.48,31.91,26.52,31.76,26.73L31.76,26.73z"/>
			</g>
		</g>
		<g>
			<g>
				<path class="st1" d="M57.24,27.08c0.89,1.28,1.56,2.71,1.92,4.24c0.07,0.28,0.15,0.58,0.15,0.87c0,0.13,0.01,0.39-0.1,0.49
					c-0.02,0.03-0.03,0.05-0.03,0.09c-0.13-0.04-0.26-0.08-0.39-0.15c-0.59-0.28-1.05-0.75-1.51-1.2c-0.96-0.93-2-1.55-3.31-1.84
					c-1.34-0.29-2.72-0.27-4.08-0.18c-0.19,0.01-0.79,0.31-0.32,0.28c1.64-0.1,3.38-0.11,4.93,0.52c0.66,0.27,1.25,0.66,1.77,1.15
					c0.55,0.51,1.05,1.09,1.71,1.45c0.51,0.27,1.07,0.39,1.6,0.09c0.46-0.26,0.49-0.78,0.41-1.25c-0.28-1.7-1.06-3.34-2.03-4.74
					C57.85,26.72,57.19,27.01,57.24,27.08L57.24,27.08z"/>
			</g>
		</g>
		<g>
			<g>
				<path class="st1" d="M62.73,59.02c0.41-0.25,0.31-0.75-0.03-1.02c-0.44-0.35-1.05-0.38-1.58-0.45c-0.7-0.09-1.36-0.35-1.54-1.12
					c-0.14-0.63,0.36-1.14,0.27-1.75c-0.03-0.21-0.12-0.41-0.29-0.55c-0.23-0.18-0.66-0.13-0.73-0.46c-0.13-0.56,1.05-1.09,1.4-1.38
					c0.78-0.65,1.48-1.87,0.62-2.76c-0.22-0.23-0.91,0.06-0.66,0.32c1.04,1.08-0.5,2.19-1.3,2.76c-0.38,0.27-0.81,0.62-0.8,1.13
					c0.01,0.2,0.08,0.38,0.23,0.52c0.19,0.17,0.53,0.13,0.7,0.33c0.36,0.42-0.2,1.15-0.21,1.62c-0.02,0.49,0.19,0.97,0.55,1.3
					c0.38,0.36,0.86,0.48,1.36,0.55c0.29,0.04,0.59,0.06,0.88,0.13c0.06,0.01,0.9,0.37,0.64,0.53c-0.14,0.09-0.17,0.26-0.04,0.36
					C62.35,59.19,62.59,59.1,62.73,59.02L62.73,59.02z"/>
			</g>
		</g>
		<g>
			<g>
				<path class="st1" d="M43.47,42.17c1.61,0.46,3.37-0.04,4.95-0.44c1.66-0.42,3.34-0.97,4.79-1.88c1.3-0.81,2.33-1.91,3.02-3.29
					c0.72-1.45,1.01-3.05,1.26-4.64c0.04-0.25-0.69-0.12-0.72,0.1c-0.43,2.71-1.09,5.47-3.39,7.22c-1.22,0.93-2.69,1.5-4.15,1.92
					c-1.56,0.45-3.56,1.13-5.17,0.67C43.85,41.78,43.2,42.09,43.47,42.17L43.47,42.17z"/>
			</g>
		</g>
		<g>
			<g>
				<path class="st1" d="M39.94,29.5c1.73-0.08,3.47-0.17,5.21-0.14c0.91,0.01,1.81,0.06,2.72,0.15c0.79,0.08,1.56,0.17,2.36,0.11
					c0.12-0.01,0.43-0.05,0.48-0.18c0.05-0.13-0.05-0.17-0.18-0.16c-0.87,0.07-1.73-0.07-2.6-0.14c-0.82-0.07-1.65-0.1-2.48-0.11
					c-1.74-0.02-3.47,0.06-5.21,0.14C40.02,29.17,39.46,29.52,39.94,29.5L39.94,29.5z"/>
			</g>
		</g>
		<g>
			<g>
				<path class="st1" d="M54.08,30.57c0.6,1.65,1.44,4.15-0.25,5.49c-0.32,0.26-0.7,0.29-1.04,0.49c-0.34,0.19-0.47,0.44-0.63,0.79
					c-0.39,0.89-0.74,1.78-1.21,2.64c-0.96,1.71-2.32,3.31-4.17,4.09c-2.18,0.93-4.42,0.25-6.49-0.64
					c-0.27-0.12-0.84,0.28-0.43,0.45c2.04,0.88,4.26,1.53,6.47,0.85c1.96-0.61,3.54-2.02,4.68-3.69c0.67-0.98,1.19-2.05,1.64-3.15
					c0.09-0.22,0.15-0.51,0.28-0.7c0.25-0.37,0.48-0.35,0.82-0.5c0.32-0.15,0.62-0.35,0.86-0.61c1.52-1.6,0.85-3.88,0.19-5.69
					C54.69,30.07,53.97,30.28,54.08,30.57L54.08,30.57z"/>
			</g>
		</g>
	</g>
</g>
</svg>
