<?xml version="1.0" encoding="utf-8"?>
<!-- Generator: Adobe Illustrator 24.2.0, SVG Export Plug-In . SVG Version: 6.00 Build 0)  -->
<svg version="1.1" id="Слой_1" xmlns="http://www.w3.org/2000/svg" xmlns:xlink="http://www.w3.org/1999/xlink" x="0px" y="0px"
	 viewBox="0 0 88 88" style="enable-background:new 0 0 88 88;" xml:space="preserve">
<style type="text/css">
	.st0{fill:#003974;}
	.st1{fill:#FFFFFF;}
	.st2{fill:#FFFFFF;stroke:#FFFFFF;stroke-width:0.5;stroke-miterlimit:10;}
	.st3{fill:none;stroke:#FFFFFF;stroke-width:0.75;stroke-miterlimit:10;}
</style>
<g>
	<circle class="st0" cx="44" cy="44" r="37.91"/>
	<g>
		<g>
			<g>
				<path class="st1" d="M13.27,33.14c7.09,0.29,14.19,0.31,21.28,0.06c0.37-0.01,0.59-0.45,0.09-0.44
					c-7.03,0.24-14.07,0.22-21.1-0.07C13.25,32.68,12.78,33.12,13.27,33.14L13.27,33.14z"/>
			</g>
		</g>
		<g>
			<g>
				<path class="st1" d="M22.95,32.92c-0.07-0.68,0.03-1.32,0.45-1.88c0.36-0.47,0.91-0.83,1.52-0.75c0.58,0.08,1.12,0.44,1.41,0.95
					c0.14,0.25,0.21,0.53,0.21,0.82c0,0.27-0.02,0.58,0.23,0.77c0.13,0.1,0.57-0.09,0.45-0.18c-0.24-0.18-0.19-0.51-0.19-0.77
					c-0.01-0.26-0.08-0.51-0.2-0.73c-0.24-0.45-0.66-0.8-1.14-0.98c-1.05-0.39-2.24,0.1-2.83,1.03c-0.37,0.58-0.45,1.19-0.38,1.86
					C22.48,33.2,22.97,33.09,22.95,32.92L22.95,32.92z"/>
			</g>
		</g>
		<g>
			<g>
				<path class="st1" d="M21.46,33.51c-0.16,0.99-0.08,2.01,0.26,2.96c0.31,0.85,0.83,1.64,1.74,1.91c1.62,0.47,3.55-0.27,4.41-1.73
					c0.5-0.86,0.65-1.88,0.4-2.84c-0.04-0.15-0.52-0.02-0.48,0.13c0.52,2-0.82,4.22-2.98,4.32c-0.54,0.02-1.12-0.07-1.57-0.38
					c-0.41-0.29-0.7-0.73-0.9-1.19c-0.45-1.02-0.58-2.15-0.4-3.25C21.97,33.28,21.49,33.36,21.46,33.51L21.46,33.51z"/>
			</g>
		</g>
		<g>
			<g>
				<path class="st1" d="M28.25,36.43c3.86,0.21,7.73,0.29,11.6,0.22c0.27,0,0.37-0.36,0.04-0.35c-3.83,0.07-7.65,0-11.47-0.21
					C28.18,36.06,27.92,36.41,28.25,36.43L28.25,36.43z"/>
			</g>
		</g>
		<g>
			<g>
				<path class="st1" d="M34.41,36.81c0.06,1.77,0.3,3.5,1.87,4.56c1.55,1.04,3.48,1.04,5.28,1.01c2.26-0.05,4.53-0.1,6.79-0.15
					c1.69-0.04,3.46,0.05,4.7-1.28c1.12-1.2,1.46-2.96,1.25-4.54c-0.03-0.2-0.51-0.08-0.48,0.13c0.22,1.67-0.21,3.69-1.65,4.73
					c-0.98,0.7-2.25,0.61-3.4,0.64c-1.17,0.03-2.35,0.05-3.52,0.08c-1.17,0.03-2.35,0.05-3.52,0.08c-1.23,0.03-2.49,0.06-3.68-0.3
					c-0.95-0.28-1.85-0.82-2.41-1.65c-0.65-0.98-0.7-2.21-0.75-3.34C34.89,36.52,34.41,36.61,34.41,36.81L34.41,36.81z"/>
			</g>
		</g>
		<g>
			<g>
				<path class="st1" d="M44.07,42.36c-0.13,1.01-0.1,2.03,0.09,3.03c0.03,0.15,0.51,0.03,0.48-0.13c-0.19-0.98-0.22-1.98-0.09-2.96
					C44.58,42.12,44.09,42.21,44.07,42.36L44.07,42.36z"/>
			</g>
		</g>
		<g>
			<g>
				<path class="st1" d="M41.01,36.38c6.4-0.03,12.8-0.06,19.2-0.09c0.1,0,0.55-0.2,0.31-0.2c-6.4,0.03-12.8,0.06-19.2,0.09
					C41.21,36.18,40.77,36.38,41.01,36.38L41.01,36.38z"/>
			</g>
		</g>
		<g>
			<g>
				<path class="st1" d="M52.86,33.18c7.23-0.19,14.46-0.38,21.69-0.57c0.39-0.01,0.57-0.49,0.08-0.48
					c-7.23,0.19-14.46,0.38-21.69,0.57C52.55,32.71,52.37,33.19,52.86,33.18L52.86,33.18z"/>
			</g>
		</g>
		<g>
			<g>
				<path class="st1" d="M61.49,32.38c-0.33-0.48,0.14-1.1,0.5-1.41c0.4-0.33,0.91-0.51,1.43-0.48c1.04,0.07,1.9,0.95,2.08,1.95
					c0.03,0.14,0.51,0.03,0.48-0.13c-0.23-1.27-1.42-2.16-2.7-2.06c-0.64,0.05-1.27,0.3-1.75,0.73c-0.42,0.38-0.87,1.03-0.5,1.58
					C61.11,32.68,61.58,32.52,61.49,32.38L61.49,32.38z"/>
			</g>
		</g>
		<g>
			<g>
				<path class="st1" d="M60.23,33.61c0.07,1.01,0.14,2.04,0.61,2.95c0.42,0.82,1.12,1.34,2.01,1.56c0.88,0.22,1.89,0.21,2.71-0.23
					c0.75-0.4,1.22-1.11,1.51-1.9c0.17-0.47,0.28-0.95,0.38-1.43c0.12-0.55,0.22-1.11,0.05-1.66c-0.07-0.23-0.56-0.1-0.48,0.13
					c0.18,0.55,0.04,1.11-0.07,1.66c-0.1,0.45-0.2,0.9-0.37,1.33c-0.38,0.99-1.08,1.74-2.18,1.84c-1.05,0.1-2.19-0.21-2.83-1.09
					c-0.67-0.92-0.76-2.1-0.83-3.2C60.7,33.31,60.21,33.38,60.23,33.61L60.23,33.61z"/>
			</g>
		</g>
		<g>
			<g>
				<path class="st1" d="M47.43,45.17c-2.88-0.08-5.77,0.03-8.64,0.33c-0.97,0.1-2.25,0.07-3.01,0.8c-0.69,0.65-0.8,1.69-0.84,2.58
					c-0.06,1.47-0.06,2.95-0.03,4.42c0.01,0.61,0.03,1.23,0.05,1.84c0.02,0.6,0.01,1.23,0.33,1.76c0.44,0.73,1.34,0.97,2.14,1.06
					c1.27,0.14,2.59-0.01,3.87-0.05c3.37-0.1,6.75-0.2,10.12-0.3c0.19-0.01,0.51-0.3,0.18-0.29c-2.59,0.08-5.19,0.15-7.78,0.23
					c-1.32,0.04-2.63,0.08-3.95,0.12c-0.99,0.03-2.05,0.15-3.01-0.15c-1.27-0.39-1.39-1.46-1.43-2.63
					c-0.05-1.31-0.07-2.62-0.06-3.94c0.01-1.1-0.06-2.26,0.18-3.34c0.1-0.47,0.29-0.97,0.67-1.28c0.54-0.45,1.46-0.43,2.14-0.51
					c2.95-0.33,5.92-0.45,8.88-0.37C47.44,45.46,47.75,45.18,47.43,45.17L47.43,45.17z"/>
			</g>
		</g>
		<g>
			<g>
				<path class="st1" d="M48.63,45.68c1.19-0.1,2.65-0.21,3.5,0.81c0.35,0.42,0.43,0.95,0.49,1.48c0.07,0.69,0.11,1.39,0.13,2.08
					c0.04,1.21,0.01,2.42-0.06,3.63c-0.04,0.64-0.09,1.28-0.16,1.92c-0.07,0.66-0.2,1.73-1.16,1.44c-0.21-0.06-0.57,0.25-0.28,0.33
					c0.44,0.13,0.9,0.09,1.28-0.18c0.47-0.33,0.56-0.87,0.62-1.4c0.2-1.77,0.29-3.55,0.26-5.32c-0.01-0.81-0.06-1.62-0.13-2.43
					c-0.06-0.66-0.15-1.32-0.6-1.83c-0.96-1.09-2.53-1.01-3.85-0.9C48.4,45.34,48.3,45.71,48.63,45.68L48.63,45.68z"/>
			</g>
		</g>
		<g>
			<g>
				<path class="st1" d="M39.8,48.15c-1.69,0.37-2.62,2.41-2.5,4c0.13,1.72,1.49,3.13,3.23,3.24c1.56,0.09,3.5-0.65,4.25-2.11
					c0.45-0.87,0.28-1.87-0.03-2.75c-0.29-0.84-0.78-1.56-1.51-2.07c-1.55-1.06-3.69-0.79-5.06,0.45C38.1,48.99,38.26,49,38.3,49
					c0.1,0.01,0.25-0.05,0.32-0.12c1.21-1.09,2.95-1.13,4.26-0.19c0.59,0.43,1.02,1,1.29,1.68c0.3,0.73,0.53,1.61,0.35,2.4
					c-0.33,1.5-2.02,2.41-3.46,2.42c-1.47,0-2.69-0.99-3.12-2.37c-0.25-0.79-0.2-1.65,0.07-2.43c0.26-0.74,0.85-1.86,1.7-2.05
					C39.91,48.3,40.14,48.08,39.8,48.15L39.8,48.15z"/>
			</g>
		</g>
		<g>
			<g>
				<path class="st1" d="M39.58,49.32c-1.16,0.46-1.18,2.15-0.92,3.17c0.31,1.21,1.37,2.21,2.68,2.12c1.33-0.09,2.29-1.21,2.46-2.48
					c0.09-0.69,0.01-1.47-0.36-2.07c-0.32-0.53-0.88-0.88-1.47-1.07c-1.26-0.41-3.15-0.18-3.52,1.34c-0.04,0.17,0.44,0.09,0.48-0.06
					c0.3-1.25,1.7-1.39,2.73-1.02c0.49,0.17,0.95,0.46,1.25,0.89c0.34,0.49,0.44,1.15,0.42,1.73c-0.03,1.03-0.6,2.26-1.72,2.46
					c-1.08,0.19-2.04-0.73-2.38-1.67c-0.21-0.58-0.25-1.21-0.18-1.82c0.06-0.48,0.21-1.13,0.71-1.33c0.07-0.03,0.19-0.1,0.13-0.19
					C39.84,49.24,39.64,49.29,39.58,49.32L39.58,49.32z"/>
			</g>
		</g>
		<g>
			<g>
				<path class="st1" d="M41.07,50.93c-0.16,0.13-0.28,0.33-0.28,0.55c0,0.05,0.01,0.11,0.02,0.16c0.02,0.06,0.04,0.14,0.1,0.17
					c0.11,0.06,0.24,0.09,0.37,0.08c0.23-0.02,0.49-0.15,0.57-0.38c0.07-0.19,0.02-0.41-0.12-0.56c-0.06-0.06-0.13-0.11-0.21-0.12
					c-0.13-0.02-0.27,0.06-0.35,0.16c-0.08,0.12-0.1,0.27-0.02,0.4c0.03,0.04,0.09,0.07,0.14,0.07c0.06,0.01,0.14,0,0.19-0.03
					c0.09-0.05,0.18-0.15,0.11-0.26c0-0.01-0.01-0.01-0.01-0.02c0.01,0.01,0.01,0.03,0.02,0.04c-0.01-0.02-0.01-0.04-0.02-0.06
					c0,0.02,0,0.03,0,0.05c0-0.02,0-0.05,0.01-0.07c0,0.02-0.01,0.03-0.01,0.05c0.01-0.02,0.01-0.04,0.02-0.05
					c-0.01,0.01-0.02,0.03-0.03,0.04c0.01-0.01,0.02-0.03,0.03-0.04c-0.01,0.01-0.03,0.03-0.04,0.04c0.02-0.02,0.05-0.03-0.02,0.01
					c-0.08,0.01-0.16,0.01-0.25,0.02c0,0,0.01,0,0.01,0c-0.02-0.01-0.03-0.02-0.05-0.02c0.03,0.02,0.06,0.04,0.08,0.06
					c-0.01-0.01-0.02-0.02-0.04-0.03c0.03,0.03,0.06,0.07,0.08,0.11c-0.01-0.01-0.01-0.03-0.02-0.04c0.02,0.05,0.03,0.09,0.04,0.15
					c0-0.02,0-0.03,0-0.05c0,0.04,0,0.08-0.01,0.12c0-0.02,0.01-0.03,0.01-0.05c-0.01,0.03-0.02,0.06-0.04,0.09
					c0.01-0.01,0.02-0.03,0.03-0.04c-0.01,0.02-0.03,0.04-0.05,0.06c0.01-0.01,0.03-0.03,0.04-0.04c-0.02,0.02-0.04,0.03-0.06,0.05
					c0,0,0.06-0.03,0.03-0.02c-0.01,0-0.01,0.01-0.01,0.01c-0.01,0.01-0.03,0.01-0.04,0.02c0.02-0.01,0.04-0.02,0.06-0.02
					c-0.02,0.01-0.05,0.02-0.07,0.02c0.02,0,0.04-0.01,0.07-0.01c-0.03,0-0.05,0-0.08,0.01c0,0,0.07,0,0.04,0c-0.01,0-0.01,0-0.02,0
					c-0.01,0-0.03,0-0.04-0.01c0.02,0,0.04,0.01,0.06,0.01c-0.03-0.01-0.05-0.02-0.08-0.03c0.02,0.01,0.03,0.02,0.05,0.02
					c0,0-0.01-0.01-0.01-0.01c0.02,0.03,0.04,0.05,0.06,0.08c-0.02-0.05-0.04-0.11-0.04-0.16c0,0.02,0,0.03,0,0.05
					c0-0.06,0-0.13,0.02-0.19c0,0.02-0.01,0.03-0.01,0.05c0.01-0.05,0.03-0.09,0.06-0.13c-0.01,0.01-0.02,0.03-0.03,0.04
					c0.02-0.03,0.05-0.06,0.07-0.09c-0.01,0.01-0.03,0.03-0.04,0.04c0.01-0.01,0.03-0.02,0.04-0.04c0.04-0.03,0.08-0.08,0.08-0.13
					c0-0.05-0.02-0.1-0.06-0.13C41.32,50.84,41.17,50.86,41.07,50.93L41.07,50.93z"/>
			</g>
		</g>
		<g>
			<g>
				<path class="st1" d="M47.19,48.42c0,0.21,0,0.43,0,0.64c0,0.17-0.04,0.39,0.01,0.56c0.1,0.36,0.69,0.23,0.96,0.22
					c0.85-0.03,1.69-0.06,2.54-0.1c0.11,0,0.25-0.08,0.27-0.2c0.01-0.12-0.13-0.17-0.22-0.16c-0.72,0.03-1.44,0.05-2.16,0.08
					c-0.17,0.01-0.34,0.01-0.51,0.02c-0.09,0-0.17,0.01-0.26,0.01c-0.09,0-0.11,0.03-0.13-0.04c-0.02-0.06,0-0.17,0-0.23
					c0-0.09,0-0.17,0-0.26c0-0.19,0-0.39,0-0.58C47.68,48.12,47.19,48.19,47.19,48.42L47.19,48.42z"/>
			</g>
		</g>
		<g>
			<g>
				<path class="st1" d="M47.59,48.12c0.62-0.08,1.24-0.11,1.86-0.11c0.15,0,0.3,0,0.45,0.01c0.05,0,0.14-0.01,0.18,0.02
					c0.05,0.03,0.04,0.11,0.04,0.16c-0.01,0.31-0.05,0.62-0.08,0.93c-0.01,0.17,0.47,0.07,0.48-0.07c0.01-0.17,0.03-0.35,0.04-0.52
					c0.01-0.17,0.04-0.34,0.04-0.5c-0.01-0.33-0.53-0.26-0.75-0.27c-0.73-0.02-1.47,0.03-2.19,0.12c-0.08,0.01-0.26,0.06-0.28,0.15
					C47.37,48.14,47.54,48.13,47.59,48.12L47.59,48.12z"/>
			</g>
		</g>
		<g>
			<g>
				<path class="st1" d="M48.13,48.33c0.09,0,0.17-0.01,0.26-0.01c0-0.07,0-0.14,0-0.22c-0.34,0.16-0.63,0.38-0.86,0.67
					c-0.06,0.08,0.03,0.12,0.1,0.12c0.11,0.01,0.22-0.03,0.31-0.09c0.02-0.01,0.04-0.03,0.06-0.04c-0.04,0.03,0.03-0.02,0.03-0.02
					c0.04-0.02,0.07-0.05,0.11-0.07c0.08-0.05,0.17-0.1,0.25-0.14c0.04-0.02,0.08-0.04,0.13-0.06c-0.05,0.03,0.02-0.01,0.03-0.01
					c0.02-0.01,0.04-0.02,0.06-0.03c0.09-0.04,0.18-0.08,0.27-0.11c-0.09-0.04-0.19-0.08-0.28-0.12c-0.33,0.23-0.63,0.53-0.85,0.86
					c-0.04,0.06-0.01,0.1,0.05,0.12c0.09,0.02,0.18,0,0.26-0.03c0.25-0.09,0.5-0.18,0.75-0.27c0.05-0.02,0.2-0.11,0.13-0.18
					c-0.07-0.07-0.24-0.03-0.32,0c-0.25,0.09-0.5,0.18-0.75,0.27c0.11,0.03,0.21,0.06,0.32,0.09c0.1-0.15,0.24-0.32,0.36-0.44
					c-0.01,0.01,0.01-0.01,0.02-0.02c0.01-0.01,0.02-0.02,0.03-0.02c0.02-0.02,0.03-0.03,0.05-0.05c0.03-0.03,0.07-0.06,0.11-0.09
					c0.08-0.06,0.15-0.12,0.23-0.18c0.05-0.04,0.07-0.11,0-0.14c-0.09-0.04-0.2-0.01-0.29,0.02c-0.41,0.15-0.79,0.36-1.14,0.61
					c0.14,0.01,0.28,0.02,0.41,0.03c0.05-0.06,0.09-0.12,0.15-0.17c-0.02,0.02,0.01-0.01,0.02-0.02c0.01-0.01,0.03-0.03,0.04-0.04
					c0.03-0.02,0.06-0.05,0.08-0.07c0.03-0.02,0.05-0.04,0.08-0.06c0.01-0.01,0.02-0.01,0.03-0.02c-0.02,0.01-0.02,0.01-0.01,0.01
					c0.02-0.01,0.03-0.02,0.05-0.03c0.03-0.02,0.06-0.04,0.09-0.05c0.01-0.01,0.03-0.02,0.05-0.02c0.01-0.01,0.02-0.01,0.03-0.02
					c-0.03,0.01-0.03,0.02-0.01,0c0.05-0.02,0.15-0.07,0.15-0.14c0-0.07-0.09-0.08-0.14-0.08c-0.09,0-0.17,0.01-0.26,0.01
					c-0.11,0.01-0.25,0.03-0.32,0.13C47.94,48.29,48.06,48.33,48.13,48.33L48.13,48.33z"/>
			</g>
		</g>
		<g>
			<g>
				<path class="st1" d="M49.33,48.19c-0.33,0.26-0.67,0.52-1,0.78c-0.06,0.04-0.08,0.1,0.01,0.11c0.1,0.02,0.23-0.02,0.32-0.06
					c0.39-0.2,0.78-0.39,1.16-0.59c0.05-0.02,0.16-0.1,0.06-0.14c-0.11-0.03-0.24,0.02-0.34,0.06c-0.28,0.12-0.53,0.31-0.71,0.56
					c-0.06,0.08,0.05,0.1,0.12,0.09c0.44-0.03,0.86-0.16,1.24-0.39c0.08-0.05,0.06-0.12-0.03-0.12c-0.23,0-0.5,0.07-0.64,0.26
					c-0.09,0.12-0.14,0.29-0.07,0.43c0.07,0.13,0.53-0.04,0.48-0.13c-0.04-0.08-0.05-0.17-0.01-0.26c0.02-0.04,0.04-0.07,0.07-0.1
					c0.02-0.01,0.02-0.02,0.01-0.01c0.02-0.01,0.02-0.01,0,0c0.04-0.02,0.02-0.01-0.06,0.02c-0.03,0.01-0.06,0.01-0.09,0.01
					c-0.01-0.04-0.02-0.08-0.03-0.12c-0.05,0.03-0.11,0.06-0.17,0.09c-0.04,0.02,0.02-0.01-0.02,0.01
					c-0.02,0.01-0.03,0.01-0.05,0.02s-0.03,0.01-0.05,0.02c-0.01,0-0.06,0.02-0.02,0.01c-0.03,0.01-0.07,0.02-0.1,0.03
					c-0.02,0-0.03,0.01-0.05,0.01c0.03-0.01,0,0-0.01,0c-0.08,0.02-0.12,0.02-0.19,0.03c0.04,0.03,0.08,0.06,0.12,0.09
					c0.15-0.2,0.34-0.36,0.56-0.45c-0.09-0.03-0.19-0.05-0.28-0.08c-0.39,0.2-0.78,0.39-1.16,0.59c0.11,0.02,0.22,0.03,0.33,0.05
					c0.33-0.26,0.67-0.52,1-0.78c0.02-0.01,0.06-0.05,0.05-0.08c-0.01-0.03-0.06-0.04-0.09-0.04
					C49.57,48.09,49.42,48.12,49.33,48.19L49.33,48.19z"/>
			</g>
		</g>
	</g>
</g>
</svg>
