<?xml version="1.0" encoding="utf-8"?>
<!-- Generator: Adobe Illustrator 24.2.0, SVG Export Plug-In . SVG Version: 6.00 Build 0)  -->
<svg version="1.1" id="Слой_1" xmlns="http://www.w3.org/2000/svg" xmlns:xlink="http://www.w3.org/1999/xlink" x="0px" y="0px"
	 viewBox="0 0 88 88" style="enable-background:new 0 0 88 88;" xml:space="preserve">
<style type="text/css">
	.st0{fill:#003974;}
	.st1{fill:#FFFFFF;}
	.st2{fill:#FFFFFF;stroke:#FFFFFF;stroke-width:0.5;stroke-miterlimit:10;}
	.st3{fill:none;stroke:#FFFFFF;stroke-width:0.75;stroke-miterlimit:10;}
</style>
<g>
	<circle class="st0" cx="44" cy="44" r="37.91"/>
	<g>
		<g>
			<g>
				<path class="st1" d="M32,18.01c-0.12,1.38-0.25,2.76-0.37,4.15c-0.06,0.69-0.12,1.38-0.19,2.07c-0.03,0.37-0.07,0.73-0.1,1.1
					c-0.02,0.26-0.16,0.75-0.09,1c0.1,0.36,0.83,0.81,1.11,1.02c0.43,0.32,0.88,0.62,1.36,0.87c0.47,0.25,1.1,0.37,1.52,0.68
					c0.53,0.39,0.19,1.66,0.14,2.26c-0.02,0.27,0.7,0.13,0.72-0.1c0.05-0.6,0.21-1.28,0.15-1.89c-0.04-0.48-0.42-0.62-0.82-0.77
					c-1.12-0.44-2.36-1.09-3.18-1.99c-0.45-0.49-0.16-1.41-0.11-2.03c0.06-0.69,0.12-1.38,0.19-2.07c0.13-1.46,0.26-2.93,0.39-4.39
					C32.74,17.64,32.02,17.78,32,18.01L32,18.01z"/>
			</g>
		</g>
		<g>
			<g>
				<path class="st1" d="M34.81,18.38c-0.08,1.51-0.16,3.01-0.24,4.52c-0.03,0.62-0.16,1.32-0.08,1.94
					c0.07,0.49,0.44,0.67,0.87,0.83c1.31,0.5,2.58,1.05,3.79,1.74c0.4,0.23,0.79,0.39,0.86,0.87c0.05,0.33,0,0.72,0,1.05
					c0,0.74-0.01,1.48-0.01,2.21c0,0.35,0.72,0.22,0.73-0.07c0-0.09,0-0.18,0-0.27c0.01-0.35-0.72-0.22-0.73,0.07
					c0,0.09,0,0.18,0,0.27c0.24-0.02,0.49-0.05,0.73-0.07c0-0.7,0.01-1.4,0.01-2.1c0-0.49,0.17-1.26-0.09-1.71
					c-0.25-0.43-0.99-0.7-1.42-0.93c-0.62-0.34-1.26-0.65-1.91-0.93c-0.26-0.11-0.53-0.22-0.79-0.33c-0.3-0.12-0.7-0.19-0.97-0.37
					c-0.58-0.4-0.29-1.54-0.26-2.17c0.08-1.55,0.17-3.1,0.25-4.64C35.56,17.97,34.83,18.09,34.81,18.38L34.81,18.38z"/>
			</g>
		</g>
		<g>
			<g>
				<path class="st1" d="M39.28,18.26c-0.04,1.01-0.08,2.02-0.12,3.04c0,0.1,0.05,0.13,0.14,0.15c1.17,0.32,2.28,0.82,3.28,1.5
					c0.47,0.32,1.07,0.71,1.41,1.18c0.43,0.59,0.25,1.46,0.22,2.15c-0.05,1.36-0.14,2.72-0.15,4.08c0,0.33,0.03,0.62,0.41,0.63
					c0.24,0,0.58-0.13,0.6-0.4c0.02-0.3-0.71-0.16-0.72,0.09c0.01,0,0.03-0.01,0.04-0.01c0.15-0.03,0.3-0.06,0.45-0.09
					c-0.18-0.03,0.06-3.24,0.07-3.65c0.02-0.65,0.06-1.3,0.07-1.94c0-0.39-0.04-0.75-0.26-1.07c-0.5-0.73-1.5-1.32-2.26-1.75
					c-0.85-0.49-1.77-0.85-2.72-1.11c0.05,0.05,0.09,0.1,0.14,0.15c0.04-1.01,0.08-2.02,0.12-3.04
					C40.02,17.87,39.29,18.01,39.28,18.26L39.28,18.26z"/>
			</g>
		</g>
		<g>
			<g>
				<path class="st1" d="M49.03,31.65c0-2.2,0-4.4,0-6.6c0-0.53,0-1.06,0-1.59c0-0.28,0-0.57,0-0.85c0-0.18-0.06-0.56,0.02-0.73
					c0.18-0.36,1.25-0.53,1.61-0.64c0.54-0.17,1.08-0.34,1.61-0.51c0.13-0.04,0.33-0.12,0.31-0.28c-0.05-0.61-0.09-1.22-0.14-1.82
					c-0.02-0.24-0.75-0.08-0.72,0.19c0.05,0.61,0.09,1.22,0.14,1.82c0.1-0.09,0.21-0.19,0.31-0.28c-0.61,0.19-1.23,0.39-1.84,0.58
					c-0.5,0.16-1.05,0.27-1.52,0.5c-0.82,0.42-0.51,1.69-0.51,2.45c0,2.65,0,5.29,0,7.94C48.3,32.07,49.03,31.93,49.03,31.65
					L49.03,31.65z"/>
			</g>
		</g>
		<g>
			<g>
				<path class="st1" d="M52.92,32.29c-0.11-2.12-0.21-4.23-0.32-6.35c-0.05,0.05-0.1,0.1-0.15,0.15c0.64-0.3,1.27-0.63,1.88-1
					c0.32-0.2,0.64-0.41,0.95-0.62c0.16-0.11,0.55-0.29,0.63-0.48c0.1-0.24-0.04-0.76-0.06-1.02c-0.02-0.37-0.05-0.74-0.07-1.11
					c-0.05-0.86-0.11-1.72-0.16-2.58c-0.01-0.14-0.74-0.01-0.72,0.19c0.09,1.38,0.26,2.79,0.26,4.18c0,0.43-0.09,0.54-0.44,0.78
					c-0.25,0.17-0.5,0.34-0.76,0.5c-0.62,0.39-1.27,0.73-1.93,1.05c-0.06,0.03-0.16,0.08-0.15,0.15c0.11,2.12,0.21,4.23,0.32,6.35
					C52.2,32.62,52.93,32.49,52.92,32.29L52.92,32.29z"/>
			</g>
		</g>
		<g>
			<g>
				<path class="st1" d="M29.31,36.23c-0.16,0.17-0.23,0.41-0.15,0.64c0.08,0.23,0.31,0.39,0.54,0.42c0.59,0.09,1.39-0.21,1.45-0.88
					c0.02-0.23-0.09-0.45-0.26-0.61c-0.23-0.2-0.54-0.24-0.83-0.19c-0.32,0.06-0.69,0.21-0.86,0.51c-0.1,0.18-0.1,0.41,0.06,0.55
					c0.2,0.18,0.55,0.13,0.78,0.07c0.24-0.06,0.58-0.2,0.57-0.5c0-0.04-0.11-0.05-0.13-0.05c-0.09-0.01-0.18,0.01-0.27,0.04
					c-0.08,0.02-0.17,0.05-0.25,0.1c-0.04,0.03-0.09,0.06-0.08,0.11c0,0.01,0,0.04,0,0.03c0-0.01,0,0.02-0.01,0.02
					c-0.01,0.03-0.02,0.05-0.04,0.08c0.01-0.02,0.02-0.02,0,0c0,0-0.02,0.01-0.02,0.02c0,0,0.05-0.03,0.03-0.02
					c-0.05,0.03,0.06-0.03,0.02-0.01c-0.01,0.01-0.04,0.02,0.02-0.01c0.03-0.01,0.04-0.02,0.02-0.01c-0.03,0.01-0.01,0,0.07-0.02
					c-0.05,0.01,0.1-0.02,0.05-0.01c-0.01,0,0.09-0.01,0.06-0.01c-0.01,0-0.05,0,0.01,0c0.06,0,0.01,0-0.01,0c-0.05,0,0.05,0.01,0,0
					c-0.01,0-0.03-0.01-0.04-0.01c-0.02-0.01-0.03-0.01,0,0c-0.03-0.02-0.06-0.03-0.08-0.05c-0.01-0.01-0.02-0.02-0.03-0.03
					c-0.02-0.02,0,0.01-0.01-0.01c-0.02-0.03-0.03-0.06-0.04-0.09c-0.02-0.08-0.02-0.15,0.01-0.23c0.01-0.04,0.03-0.08,0.06-0.11
					c0-0.01,0.03-0.04,0.02-0.02c0.02-0.02,0.03-0.04,0.05-0.05c0.02-0.02,0.04-0.03,0.01-0.01c0.02-0.01,0.04-0.02,0.06-0.04
					c0.03-0.02-0.03,0.02-0.03,0.01c0.05-0.03-0.03,0.01-0.03,0.01c0.01,0,0.05-0.02-0.01,0c-0.03,0.01-0.04,0.01-0.02,0.01
					c0.03-0.01,0.01,0-0.05,0.01c0,0-0.08,0.01-0.04,0.01c0.03,0-0.03,0-0.03,0c0,0,0.08,0,0.05,0c-0.03,0,0.04,0.01,0.04,0.01
					c0.02,0.01,0.04,0.01,0.06,0.02c0.02,0.01,0.01,0,0,0c0.01,0,0.02,0.01,0.03,0.02c0.02,0.01,0.03,0.02,0.05,0.03
					c0.04,0.02,0.08,0.05,0.12,0.08c0.13,0.11,0.21,0.28,0.22,0.45c0,0.08-0.01,0.16-0.04,0.24c-0.01,0.04-0.03,0.08-0.05,0.11
					c-0.01,0.02-0.02,0.04-0.03,0.06c-0.01,0.01-0.01,0.02-0.02,0.02c-0.02,0.03,0.03-0.03-0.01,0.01
					c-0.03,0.03-0.06,0.06-0.09,0.08c-0.02,0.02,0.01-0.01,0.01-0.01c-0.01,0.01-0.02,0.01-0.03,0.02c-0.04,0.03,0.05-0.03-0.01,0
					c-0.04,0.02,0.07-0.03,0.03-0.01c-0.04,0.01,0.06-0.02,0.05-0.02c-0.01,0,0.09-0.02,0.05-0.01c-0.04,0.01,0.08-0.01,0.03,0
					c-0.01,0-0.02,0-0.03,0c0,0,0.06,0,0.03,0c-0.01,0-0.03,0-0.04,0c-0.03,0,0.04,0.01,0,0c-0.1-0.02-0.16-0.04-0.25-0.1
					c-0.08-0.06-0.13-0.13-0.16-0.22c-0.03-0.08-0.04-0.18-0.03-0.27c0.01-0.05,0.02-0.1,0.04-0.14c0.01-0.02,0.02-0.04,0.03-0.06
					c0,0,0.02-0.03,0.01-0.02c-0.01,0.01,0.02-0.02,0.02-0.02c0.11-0.11-0.1-0.13-0.17-0.12c-0.1,0.01-0.19,0.03-0.28,0.06
					C29.44,36.15,29.36,36.18,29.31,36.23L29.31,36.23z"/>
			</g>
		</g>
		<g>
			<g>
				<path class="st1" d="M58.17,39.8c-0.22-0.06-0.47-0.01-0.68,0.09c-0.11,0.05-0.23,0.12-0.31,0.22
					c-0.11,0.14-0.14,0.31-0.12,0.49c0.02,0.17,0.1,0.33,0.22,0.45c0.17,0.17,0.44,0.2,0.67,0.18c0.59-0.05,1.19-0.4,1.41-0.98
					c0.07-0.19,0.1-0.43,0.03-0.63c-0.09-0.24-0.31-0.37-0.56-0.37c-0.38-0.01-0.82,0.13-1.08,0.42c-0.2,0.23-0.28,0.54-0.35,0.83
					c-0.03,0.14,0.22,0.11,0.3,0.1c0.09-0.02,0.19-0.04,0.28-0.09c0.05-0.03,0.13-0.07,0.14-0.13c0.05-0.21,0.1-0.41,0.2-0.6
					c0.04-0.07,0.09-0.13,0.14-0.19c-0.04,0.04,0.01-0.01,0.02-0.01c0.01,0,0.01-0.01,0.02-0.01c0.03-0.02,0.02-0.02-0.01,0.01
					c0.01,0,0.01-0.01,0.02-0.01c0.03-0.02,0.03-0.01-0.02,0.01c0.01-0.01,0.03-0.01,0.04-0.02c-0.06,0.02-0.07,0.02-0.03,0.01
					c-0.15,0.04,0.05,0.01-0.08,0.01c0.07,0-0.06-0.02,0,0c0.07,0.02-0.05-0.02,0.02,0c0.02,0.01,0.04,0.01,0.06,0.02
					c-0.01,0-0.03-0.02,0.01,0.01c0.02,0.01,0.03,0.02,0.05,0.04c0.03,0.03,0.06,0.06,0.08,0.08c0.08,0.13,0.09,0.3,0.07,0.44
					c-0.03,0.17-0.11,0.34-0.21,0.47c-0.02,0.03-0.05,0.06-0.08,0.09c-0.02,0.02-0.03,0.03-0.05,0.05c0,0-0.06,0.05-0.02,0.02
					c-0.04,0.03-0.07,0.06-0.11,0.08c-0.06,0.04,0.06-0.03-0.01,0.01c-0.01,0.01-0.03,0.01-0.04,0.02c0.05-0.02,0.06-0.02,0.02-0.01
					c-0.01,0-0.01,0.01-0.02,0.01c-0.04,0.01-0.03,0.01,0.03-0.01c-0.01,0-0.01,0-0.02,0.01c-0.04,0.01-0.03,0.01,0.03-0.01
					c-0.01,0-0.01,0-0.02,0c-0.04,0.01-0.03,0,0.03,0c0,0-0.05,0-0.04,0c0.01,0,0.02,0,0.04,0c-0.01,0-0.03,0-0.04,0
					c-0.01,0-0.08-0.02-0.02,0c-0.02,0-0.04-0.01-0.06-0.02c-0.01,0-0.07-0.03-0.03-0.01c-0.12-0.06-0.19-0.15-0.23-0.26
					c-0.03-0.07-0.05-0.14-0.06-0.21c0-0.04-0.01-0.07,0-0.11c0-0.05,0,0.02,0-0.01c0-0.02,0.01-0.03,0.01-0.05
					c0.01-0.03,0.02-0.07,0.03-0.1c0.01-0.01,0.01-0.03,0.02-0.04c0.01-0.02,0.01-0.02,0,0.01c0.01-0.01,0.01-0.02,0.02-0.02
					c0,0,0.02-0.03,0.03-0.03c-0.03,0.03-0.04,0.03-0.02,0.02c0.01-0.01,0.02-0.01,0.02-0.02c-0.01,0.01-0.03,0.02-0.04,0.03
					c0.03-0.02,0.02-0.01-0.04,0.02c0.06-0.02,0.02-0.01-0.11,0.03c-0.04,0.01-0.07,0.01-0.11,0c0.16,0.05,0.37,0,0.51-0.08
					C58.16,39.98,58.34,39.85,58.17,39.8L58.17,39.8z"/>
			</g>
		</g>
		<g>
			<g>
				<path class="st1" d="M58.31,47.13c-0.26,0.06-0.6,0.16-0.69,0.46c-0.06,0.2,0.01,0.37,0.14,0.51c0.35,0.39,0.95,0.36,1.41,0.22
					c0.22-0.07,0.46-0.19,0.59-0.4c0.08-0.13,0.11-0.31,0.09-0.46c-0.03-0.16-0.13-0.3-0.27-0.37c-0.27-0.12-0.6-0.05-0.86,0.04
					c-0.26,0.09-0.5,0.24-0.62,0.5c-0.1,0.21-0.11,0.45-0.09,0.68c0,0.04,0.11,0.04,0.13,0.05c0.09,0,0.18-0.01,0.26-0.04
					c0.08-0.02,0.17-0.05,0.25-0.1c0.03-0.02,0.09-0.05,0.09-0.1c-0.02-0.13-0.02-0.27,0.01-0.4c0,0.01,0,0.02-0.01,0.03
					c0.02-0.11,0.05-0.22,0.11-0.31c0.01-0.02,0.03-0.05,0.05-0.07c0-0.01,0.02-0.03,0.01-0.01c0.01-0.01,0.02-0.02,0.03-0.03
					c0.02-0.02,0.04-0.03,0.05-0.05c0.02-0.02,0.01-0.01-0.01,0c0.01-0.01,0.03-0.02,0.04-0.02c0.03-0.02-0.05,0.03-0.02,0.01
					c0.04-0.02-0.07,0.03-0.03,0.01c0.04-0.01-0.09,0.02-0.04,0.01c0.04-0.01-0.09,0.02-0.04,0.01c0.04-0.01-0.08,0.01-0.04,0.01
					c0.04,0-0.06,0-0.02,0c0.01,0,0.05,0,0.01,0c-0.03,0,0.01,0,0.01,0c0.01,0,0.02,0.01,0.03,0.01c0.03,0.01-0.02-0.01,0.01,0
					c0.02,0.01,0.04,0.02,0.06,0.03c0.04,0.02,0.07,0.05,0.1,0.09c-0.01-0.01-0.01-0.02-0.02-0.02c0.1,0.13,0.13,0.29,0.1,0.45
					c0-0.01,0-0.02,0.01-0.03c-0.01,0.05-0.03,0.11-0.05,0.15c-0.01,0.03-0.03,0.05-0.04,0.08c-0.01,0.01-0.02,0.02-0.02,0.03
					c0.02-0.02,0,0-0.01,0.01c-0.01,0.01-0.02,0.02-0.03,0.03c0,0-0.05,0.04-0.02,0.02c0.03-0.02-0.02,0.01-0.02,0.01
					c-0.05,0.04,0.04-0.02,0.01,0c-0.04,0.02,0.08-0.03,0.02-0.01c-0.07,0.02,0.09-0.03,0.02-0.01c0.01,0,0.09-0.02,0.04-0.01
					c0.05-0.01,0.07-0.01,0.04-0.01c-0.01,0-0.02,0-0.03,0c0.02-0.01,0.06,0,0.01,0c-0.02,0-0.03,0-0.05,0c-0.05,0,0.02,0-0.01,0
					c-0.02,0-0.03,0-0.05-0.01c-0.06-0.01-0.12-0.03-0.17-0.05c-0.13-0.05-0.25-0.14-0.34-0.24c0.01,0.01,0.01,0.02,0.02,0.02
					c-0.09-0.11-0.14-0.24-0.12-0.38c0,0.01,0,0.02-0.01,0.03c0.01-0.06,0.03-0.11,0.06-0.16c0.01-0.01,0.01-0.02,0.02-0.03
					c-0.02,0.02,0,0,0.01-0.01c0.02-0.02,0.02-0.02-0.01,0c0,0,0.01-0.01,0.01-0.01c-0.08,0.04-0.16,0.07-0.25,0.09
					c0.09-0.02,0.19-0.04,0.28-0.09c0.04-0.02,0.13-0.06,0.15-0.11C58.64,47.08,58.34,47.13,58.31,47.13L58.31,47.13z"/>
			</g>
		</g>
		<g>
			<g>
				<path class="st1" d="M29.87,50.98c-0.28,0.39-0.57,0.91-0.4,1.4c0.07,0.21,0.22,0.39,0.41,0.5c0.26,0.15,0.59,0.12,0.87,0.02
					c0.39-0.14,0.63-0.47,0.64-0.88c0.01-0.39-0.15-0.93-0.58-1.02c-0.35-0.08-0.79,0.09-1,0.38c-0.18,0.26-0.15,0.58-0.11,0.87
					c0.01,0.06,0.1,0.08,0.14,0.09c0.08,0.02,0.19,0,0.27-0.02c0.11-0.03,0.34-0.11,0.32-0.26c-0.03-0.2-0.06-0.42,0.02-0.62
					c0.01-0.03,0.02-0.05,0.04-0.08c0.01-0.01,0.04-0.05,0.01-0.02c0.01-0.01,0.03-0.02,0.04-0.03c-0.06,0.05,0.03,0-0.02,0.01
					c-0.04,0.01-0.07,0.03-0.11,0.04c-0.02,0-0.05,0-0.07,0c-0.03-0.01-0.02-0.01,0.01,0c0.01,0,0.02,0.01,0.02,0.01
					c0.23,0.14,0.31,0.52,0.3,0.76c0,0.11-0.04,0.25-0.08,0.36c0,0.01-0.03,0.05,0,0.01c-0.01,0.01-0.01,0.02-0.02,0.03
					c-0.02,0.03-0.04,0.05-0.06,0.07c0.03-0.04,0.03-0.02,0.01-0.01c-0.01,0.01-0.03,0.02-0.03,0.03c-0.03,0.03,0.07-0.04,0.01-0.01
					c-0.06,0.03,0.08-0.04,0.02-0.01c-0.05,0.02,0.04-0.01,0.04-0.01c-0.07,0.02,0.1-0.01,0.02,0c0.01,0,0.08,0,0.02,0
					c0.06,0,0.02,0,0.01,0c-0.01,0-0.08-0.02-0.03,0c-0.01-0.01-0.03-0.01-0.04-0.02c-0.04-0.02-0.06-0.03-0.09-0.05
					c-0.13-0.1-0.21-0.23-0.26-0.38c-0.13-0.42,0.13-0.84,0.36-1.17c0.1-0.13-0.08-0.19-0.19-0.19
					C30.2,50.79,29.97,50.84,29.87,50.98L29.87,50.98z"/>
			</g>
		</g>
		<g>
			<g>
				<path class="st1" d="M19.03,54.01c1.44-0.04,2.87-0.09,4.31-0.13c0.47-0.01,1.01,0.05,1.45-0.16c0.44-0.2,0.54-0.66,0.7-1.09
					c0.52-1.35,0.98-2.74,1.54-4.07c0.05-0.12,0.1-0.31,0.19-0.4c0.15-0.14,0.42-0.15,0.61-0.18c0.34-0.05,0.68-0.1,1.02-0.15
					c0.76-0.1,1.52-0.19,2.28-0.26c0.33-0.03,0.62-0.39,0.12-0.34c-1.31,0.12-2.76,0.17-4.02,0.54c-0.37,0.11-0.65,0.3-0.82,0.66
					c-0.31,0.63-0.5,1.34-0.75,2c-0.25,0.66-0.5,1.32-0.75,1.98c-0.11,0.28-0.18,0.71-0.37,0.94c-0.18,0.22-0.49,0.15-0.78,0.16
					c-1.47,0.05-2.95,0.09-4.42,0.14C19.09,53.66,18.55,54.02,19.03,54.01L19.03,54.01z"/>
			</g>
		</g>
		<g>
			<g>
				<path class="st1" d="M31.91,43.68c-1.29-0.08-2.58-0.16-3.87-0.24c-0.86-0.05-2.04-0.35-2.85,0.08
					c-0.32,0.17-0.49,0.44-0.69,0.72c-0.38,0.53-0.76,1.07-1.13,1.61c-0.76,1.07-1.51,2.14-2.27,3.22c0.14-0.07,0.28-0.14,0.42-0.21
					c-1.01,0.19-2.01,0.38-3.02,0.57c-0.3,0.06-0.64,0.38-0.13,0.29c0.66-0.12,1.32-0.25,1.97-0.37c0.41-0.08,1.04-0.07,1.39-0.32
					c0.4-0.29,0.72-0.99,1-1.39c0.4-0.57,0.8-1.14,1.2-1.71c0.38-0.54,0.76-1.07,1.13-1.61c0.31-0.44,0.62-0.69,1.17-0.65
					c0.32,0.02,0.64,0.04,0.97,0.06c1.41,0.09,2.82,0.17,4.23,0.26C31.61,44,32.27,43.7,31.91,43.68L31.91,43.68z"/>
			</g>
		</g>
		<g>
			<g>
				<path class="st1" d="M29.91,39.7c-1.34,0.07-2.69,0.15-4.03,0.22c-0.69,0.04-1.38,0.08-2.07,0.11c-0.33,0.02-0.72,0.1-1.04,0.06
					c-0.34-0.05-0.44-0.42-0.58-0.69c-0.25-0.5-0.49-1.02-0.63-1.57c-0.07-0.28-0.12-0.58-0.12-0.87c0-0.22,0.08-0.54-0.06-0.74
					c-0.21-0.31-0.78-0.27-1.1-0.29c-0.66-0.05-1.31-0.04-1.97-0.01c-0.23,0.01-0.78,0.38-0.3,0.36c0.68-0.04,1.36-0.04,2.03,0.01
					c0.19,0.02,0.57,0.04,0.67,0.26c0.03,0.07,0.01,0.23,0.01,0.31c0,0.3,0,0.58,0.06,0.88c0.1,0.55,0.32,1.08,0.56,1.59
					c0.15,0.32,0.32,0.89,0.66,1.06c0.41,0.21,1.08,0.03,1.51,0c0.65-0.04,1.31-0.07,1.96-0.11c1.38-0.08,2.76-0.15,4.15-0.23
					C29.84,40.04,30.39,39.67,29.91,39.7L29.91,39.7z"/>
			</g>
		</g>
		<g>
			<g>
				<path class="st1" d="M33.63,51.06c-0.19-4.83-0.41-9.65-0.57-14.48c-0.03-1-0.04-2.31,1.02-2.78c0.48-0.21,1.05-0.19,1.56-0.2
					c0.62-0.01,1.24-0.02,1.86-0.02c2.39-0.03,4.79-0.06,7.18-0.09c2.72-0.03,5.45-0.07,8.17-0.1c0.21,0,0.79-0.32,0.31-0.31
					c-5.33,0.07-10.65,0.13-15.98,0.2c-1.58,0.02-4.11-0.23-4.71,1.71c-0.31,1-0.13,2.15-0.09,3.17c0.05,1.33,0.11,2.66,0.16,4
					c0.12,3.04,0.24,6.08,0.36,9.11C32.91,51.39,33.64,51.27,33.63,51.06L33.63,51.06z"/>
			</g>
		</g>
		<g>
			<g>
				<path class="st1" d="M53.06,33.55c2.18,0,1.64,3.46,1.59,4.78c-0.08,2.1-0.16,4.2-0.24,6.3s-0.16,4.2-0.24,6.3
					c-0.04,1.01-0.03,2.04-0.12,3.04c-0.05,0.56-0.2,1.07-0.77,1.25c-0.4,0.12-0.84,0.08-1.25,0.08c-1.64-0.03-3.21,0.4-4.46,1.5
					c-0.13,0.12,0.52,0.04,0.65-0.07c0.91-0.8,1.96-1.18,3.17-1.17c0.65,0.01,1.3,0.03,1.93-0.13c0.5-0.13,1.03-0.36,1.28-0.85
					c0.19-0.38,0.18-0.84,0.2-1.26c0.02-0.58,0.04-1.15,0.07-1.73c0.17-4.53,0.35-9.06,0.52-13.59c0.06-1.52,0.53-4.74-1.84-4.74
					C53.4,33.28,52.72,33.55,53.06,33.55L53.06,33.55z"/>
			</g>
		</g>
		<g>
			<g>
				<path class="st1" d="M32.96,51.17c-0.14,0.86-0.17,1.72-0.09,2.59c0.07,0.67,0.14,1.48,0.77,1.86c0.6,0.37,1.49,0.31,2.16,0.35
					c0.92,0.06,1.84,0.08,2.77,0.08c1.95,0,3.9-0.11,5.84-0.22c0.93-0.05,1.87-0.11,2.8-0.15c0.49-0.02,0.97-0.04,1.46-0.06
					c0.45-0.01,1.27-0.18,1.62,0.16c0.24,0.24,0.86-0.13,0.55-0.43c-0.47-0.46-1.27-0.31-1.87-0.3c-0.89,0.03-1.79,0.07-2.68,0.12
					c-1.83,0.1-3.65,0.22-5.48,0.28c-1.83,0.06-3.67,0.07-5.5-0.09c-0.39-0.03-0.94-0.01-1.26-0.27c-0.3-0.24-0.35-0.72-0.4-1.08
					c-0.15-0.96-0.12-1.94,0.04-2.9C33.76,50.75,33.02,50.83,32.96,51.17L32.96,51.17z"/>
			</g>
		</g>
		<g>
			<g>
				<path class="st1" d="M36.27,35.77c-0.27,4.39-0.28,8.79-0.02,13.17c0.09,1.49,0.11,3.33,2.01,3.46c0.8,0.05,1.59-0.18,2.36-0.36
					c1.09-0.25,2.2-0.44,3.31-0.58c2.51-0.32,5.05-0.35,7.57-0.12c0.15,0.01,0.41,0,0.51-0.14c0.07-0.1,0.12-0.23-0.07-0.24
					c-3.86-0.36-7.76-0.11-11.54,0.77c-0.86,0.2-2.02,0.6-2.76-0.09c-0.62-0.58-0.6-1.6-0.65-2.39c-0.13-2.06-0.21-4.12-0.22-6.19
					c-0.02-2.46,0.06-4.92,0.21-7.38C37.01,35.39,36.29,35.53,36.27,35.77L36.27,35.77z"/>
			</g>
		</g>
		<g>
			<g>
				<path class="st1" d="M37.11,36.35c2.46-0.08,4.92-0.16,7.38-0.24c1.15-0.04,2.3-0.08,3.44-0.11c0.5-0.02,1.68-0.27,2.07,0.13
					c0.32,0.33,0.46,1.06,0.57,1.49c0.54,2.1,0.3,4.29,0.19,6.42c-0.05,1.04-0.08,2.08,0.02,3.12c0.11,1.18,0.6,2.39,0.34,3.57
					c-0.06,0.28,0.67,0.17,0.73-0.09c0.26-1.16-0.2-2.31-0.32-3.46c-0.13-1.22-0.08-2.45-0.02-3.67c0.12-2.22,0.33-4.55-0.4-6.7
					c-0.13-0.37-0.26-0.89-0.61-1.13c-0.36-0.24-0.9-0.15-1.3-0.14c-1.31,0.04-2.62,0.09-3.94,0.13c-2.62,0.09-5.25,0.17-7.87,0.26
					C37.11,35.94,36.62,36.36,37.11,36.35L37.11,36.35z"/>
			</g>
		</g>
		<g>
			<g>
				<path class="st1" d="M42.36,40.77c-0.43-0.06-0.86-0.13-1.3-0.19c-0.31-0.05-0.66-0.14-0.98-0.11c-0.5,0.04-0.79,0.34-0.79,0.83
					c-0.01,0.91,0.15,1.84,0.23,2.74c0.08,0.91,0.15,1.81,0.23,2.72c0.04,0.43,0.05,0.88,0.11,1.31c0.04,0.27,0.12,0.47,0.41,0.54
					c0.33,0.08,0.72-0.05,1.04-0.09c0.42-0.06,0.84-0.11,1.27-0.14c1.87-0.16,3.75-0.1,5.6,0.18c0.14,0.02,0.58-0.03,0.58-0.25
					c-0.01-1.7-0.02-3.41-0.03-5.11c0-0.81-0.01-1.61-0.01-2.42c0-0.69,0.11-1.48-0.03-2.16c-0.13-0.6-0.65-0.64-1.18-0.71
					c-0.74-0.1-1.48-0.15-2.22-0.16c-1.56-0.01-3.11,0.17-4.63,0.53c-0.44,0.1-0.34,0.48,0.1,0.38c1.39-0.33,2.82-0.5,4.25-0.49
					c0.75,0.01,1.5,0.06,2.25,0.16c0.31,0.04,0.58,0.06,0.69,0.41c0.1,0.31,0.03,0.7,0.04,1.02c0.01,2.87,0.03,5.75,0.04,8.62
					c0.19-0.08,0.39-0.16,0.58-0.25c-1.39-0.21-2.79-0.31-4.19-0.28c-0.68,0.01-1.37,0.05-2.05,0.12c-0.39,0.04-0.78,0.09-1.17,0.15
					c-0.19,0.03-0.34,0.1-0.5-0.02c-0.17-0.14-0.13-0.32-0.15-0.53c-0.12-1.48-0.25-2.95-0.37-4.43c-0.03-0.37-0.06-0.74-0.09-1.11
					c-0.02-0.25-0.18-0.84-0.06-1.07c0.06-0.11,0.03-0.07,0.22-0.04c0.19,0.03,0.37,0.05,0.56,0.08c0.37,0.05,0.74,0.11,1.11,0.16
					c0.16,0.02,0.41,0,0.51-0.14C42.52,40.93,42.54,40.79,42.36,40.77L42.36,40.77z"/>
			</g>
		</g>
		<g>
			<g>
				<path class="st1" d="M55.24,43.89c1.79-0.05,3.58-0.06,5.36-0.03c0.51,0.01,1.19,0.14,1.62-0.22c0.46-0.38,0.6-1.26,0.79-1.79
					c0.29-0.8,0.59-1.6,0.88-2.41c0.27-0.74,0.49-1.56,0.89-2.25c0.53-0.9,1.46-0.85,2.38-0.83c0.85,0.02,1.69,0.05,2.54,0.07
					c0.3,0.01,0.76-0.44,0.27-0.45c-0.85-0.02-1.69-0.05-2.54-0.07c-0.67-0.02-1.36-0.05-2.01,0.16c-1.37,0.44-1.69,1.9-2.13,3.1
					c-0.31,0.84-0.61,1.68-0.92,2.52c-0.15,0.42-0.31,0.84-0.46,1.26c-0.13,0.36-0.16,0.4-0.54,0.45c-0.2,0.03-0.42-0.01-0.62-0.01
					c-1.81-0.03-3.62-0.01-5.42,0.04C54.95,43.45,54.75,43.9,55.24,43.89L55.24,43.89z"/>
			</g>
		</g>
		<g>
			<g>
				<path class="st1" d="M54.88,36.84c1.31-0.15,2.62-0.26,3.93-0.34c0.43-0.02,1.14,0.09,1.51-0.15c0.35-0.23,0.57-0.93,0.78-1.29
					c0.24-0.42,0.49-1.2,0.94-1.4c0.25-0.11,0.7-0.07,0.97-0.09c0.32-0.03,0.65-0.06,0.97-0.09c1.3-0.12,2.59-0.24,3.89-0.36
					c0.37-0.03,0.59-0.49,0.09-0.44c-1.82,0.17-3.65,0.34-5.47,0.51c-0.56,0.05-1.04,0.1-1.37,0.6c-0.5,0.77-0.91,1.62-1.37,2.42
					c0.13-0.07,0.26-0.13,0.38-0.2c-1.73,0.07-3.45,0.2-5.17,0.4C54.6,36.45,54.38,36.9,54.88,36.84L54.88,36.84z"/>
			</g>
		</g>
		<g>
			<g>
				<path class="st1" d="M54.49,52.43c2.04-0.13,4.09-0.23,6.14-0.28c0.32-0.01,0.73,0.06,1.03-0.08c0.28-0.13,0.4-0.49,0.54-0.75
					c0.46-0.82,0.91-1.64,1.34-2.48c0.83-1.62,1.61-3.26,2.32-4.93c0.34-0.79,0.61-1.64,1.06-2.37c0.49-0.8,1.53-1.5,2.31-0.61
					c0.16,0.19,0.86-0.07,0.67-0.28c-0.63-0.72-1.71-0.65-2.5-0.25c-1.09,0.56-1.51,1.79-1.95,2.85c-1.24,2.98-2.67,5.88-4.28,8.67
					c0.16-0.07,0.32-0.13,0.48-0.2c-2.36,0.06-4.72,0.16-7.07,0.31C54.24,52.06,53.99,52.47,54.49,52.43L54.49,52.43z"/>
			</g>
		</g>
		<g>
			<g>
				<path class="st1" d="M36.18,55.84c0.02,1.01-0.05,2.01-0.2,3.01c0.07-0.07,0.14-0.14,0.22-0.2c-1.01,0.43-1.98,0.93-2.91,1.53
					c-0.44,0.28-0.87,0.59-1.29,0.91c-0.23,0.17-0.45,0.35-0.67,0.53c-0.13,0.11-0.43,0.29-0.51,0.45
					c-0.16,0.35,0.01,0.99,0.04,1.38c0.04,0.66,0.07,1.32,0.09,1.98c0.04,1.39,0.05,2.77,0.01,4.16c-0.01,0.32,0.72,0.17,0.73-0.08
					c0.03-1.46,0.03-2.93-0.02-4.39c-0.03-0.78-0.06-1.57-0.12-2.35c-0.03-0.44-0.06-0.64,0.28-0.93c0.3-0.26,0.62-0.51,0.94-0.74
					c1.1-0.81,2.27-1.47,3.52-2.02c0.55-0.24,0.48-0.66,0.54-1.23c0.07-0.73,0.09-1.45,0.08-2.18C36.9,55.4,36.17,55.55,36.18,55.84
					L36.18,55.84z"/>
			</g>
		</g>
		<g>
			<g>
				<path class="st1" d="M40.04,56.42c-0.04,0.68-0.08,1.35-0.15,2.02c-0.06,0.65-0.01,1.61-0.35,2.17
					c-0.33,0.54-1.15,0.87-1.68,1.21c-0.6,0.39-1.2,0.77-1.8,1.16c-0.44,0.28-1.05,0.55-1.39,0.96c-0.32,0.39-0.23,0.96-0.24,1.43
					c-0.02,1.44-0.04,2.88-0.06,4.32c-0.01,0.35,0.73,0.23,0.73-0.07c0.02-1.4,0.04-2.8,0.06-4.2c0-0.31-0.04-0.69,0.02-1
					c0.07-0.37,0.35-0.51,0.65-0.7c0.6-0.39,1.2-0.77,1.8-1.16c0.57-0.36,1.14-0.73,1.7-1.09c0.4-0.25,0.86-0.48,1.02-0.96
					c0.19-0.59,0.19-1.29,0.24-1.91c0.07-0.75,0.13-1.51,0.17-2.26C40.79,56,40.05,56.12,40.04,56.42L40.04,56.42z"/>
			</g>
		</g>
		<g>
			<g>
				<path class="st1" d="M44.55,55.47c-0.07,1.54-0.14,3.08-0.21,4.61c-0.03,0.77-0.06,1.54-0.1,2.31
					c-0.02,0.44-0.08,0.81-0.42,1.11c-0.31,0.27-0.69,0.49-1.02,0.73c-1.22,0.85-2.44,1.7-3.65,2.56c-0.4,0.28-0.66,0.49-0.67,1.01
					c-0.01,0.76,0.19,1.58,0.29,2.34c0.02,0.13,0.75-0.01,0.72-0.19c-0.09-0.73-0.26-1.5-0.28-2.23c-0.02-0.85,0.95-1.24,1.57-1.67
					c1.18-0.83,2.41-1.61,3.55-2.49c0.44-0.34,0.59-0.68,0.62-1.23c0.05-0.77,0.07-1.54,0.1-2.31c0.07-1.58,0.14-3.16,0.21-4.74
					C45.28,55.17,44.56,55.26,44.55,55.47L44.55,55.47z"/>
			</g>
		</g>
		<g>
			<g>
				<path class="st1" d="M50.12,55.21c-0.17,4.39-0.06,8.78,0.32,13.15c0.02,0.2,0.75,0.05,0.72-0.19
					c-0.38-4.37-0.48-8.76-0.32-13.15C50.85,54.84,50.13,54.95,50.12,55.21L50.12,55.21z"/>
			</g>
		</g>
	</g>
</g>
</svg>
