<?xml version="1.0" encoding="utf-8"?>
<!-- Generator: Adobe Illustrator 24.2.0, SVG Export Plug-In . SVG Version: 6.00 Build 0)  -->
<svg version="1.1" id="Слой_1" xmlns="http://www.w3.org/2000/svg" xmlns:xlink="http://www.w3.org/1999/xlink" x="0px" y="0px"
	 viewBox="0 0 88 88" style="enable-background:new 0 0 88 88;" xml:space="preserve">
<style type="text/css">
	.st0{fill:#003974;}
	.st1{fill:#FFFFFF;}
	.st2{fill:#FFFFFF;stroke:#FFFFFF;stroke-width:0.5;stroke-miterlimit:10;}
	.st3{fill:none;stroke:#FFFFFF;stroke-width:0.75;stroke-miterlimit:10;}
</style>
<g>
	<circle class="st0" cx="44" cy="44" r="37.91"/>
	<g>
		<g>
			<g>
				<path class="st1" d="M31.49,36.69c-1.39-2.84-2.79-5.69-4.18-8.53c-0.15,0.06-0.31,0.11-0.46,0.17
					c1.68,1.64,3.36,3.28,5.04,4.92c0.14,0.14,0.6-0.05,0.44-0.2c-1.68-1.64-3.36-3.28-5.04-4.92c-0.11-0.1-0.56-0.03-0.46,0.17
					c1.39,2.84,2.79,5.69,4.18,8.53C31.11,37.01,31.58,36.87,31.49,36.69L31.49,36.69z"/>
			</g>
		</g>
		<g>
			<g>
				<path class="st1" d="M33.7,33.81c-1.01-2.72-1.86-5.5-2.57-8.31c-0.13,0.07-0.26,0.14-0.38,0.22c0.61,0.15,0.83,0.89,1.09,1.38
					c0.33,0.63,0.7,1.24,1.11,1.82c0.79,1.12,1.74,2.11,2.79,2.98c0.15,0.12,0.58-0.09,0.38-0.26c-1.14-0.94-2.14-2.04-2.96-3.27
					c-0.41-0.61-0.76-1.25-1.09-1.91c-0.23-0.46-0.5-0.92-1.03-1.05c-0.12-0.03-0.43,0.03-0.38,0.22c0.71,2.81,1.57,5.59,2.57,8.31
					C33.29,34.14,33.77,34,33.7,33.81L33.7,33.81z"/>
			</g>
		</g>
		<g>
			<g>
				<path class="st1" d="M37.99,35.78c-0.8-2.97-1.37-6-1.7-9.07c-0.16,0.04-0.32,0.09-0.48,0.13c1.13,2.63,2.92,4.89,4.69,7.11
					c0.1,0.12,0.56-0.04,0.45-0.18c-1.76-2.2-3.54-4.44-4.66-7.05c-0.07-0.15-0.5-0.04-0.48,0.13c0.32,3.06,0.89,6.09,1.7,9.07
					C37.55,36.06,38.03,35.94,37.99,35.78L37.99,35.78z"/>
			</g>
		</g>
		<g>
			<g>
				<path class="st1" d="M38.75,30c0.01-2.32,0.01-4.65,0.02-6.97c-0.16,0.04-0.32,0.09-0.48,0.13c0.9,2.85,2.11,5.58,3.6,8.17
					c0.06,0.11,0.52-0.07,0.48-0.13c-1.49-2.59-2.7-5.32-3.6-8.17c-0.03-0.1-0.48,0.02-0.48,0.13c-0.01,2.32-0.01,4.65-0.02,6.97
					C38.26,30.19,38.75,30.13,38.75,30L38.75,30z"/>
			</g>
		</g>
		<g>
			<g>
				<path class="st1" d="M42.53,35.66c0.09-2.03,0.17-4.06,0.26-6.09c-0.16,0.03-0.32,0.06-0.48,0.09c0.73,1.72,1.45,3.44,2.18,5.16
					c0.36,0.86,0.73,1.72,1.09,2.58c0.26,0.6,0.44,1.39,1.03,1.76c0.14,0.09,0.58-0.11,0.38-0.24c-0.35-0.22-0.49-0.6-0.64-0.96
					c-0.17-0.4-0.34-0.8-0.51-1.2c-0.34-0.8-0.68-1.61-1.02-2.41c-0.68-1.61-1.36-3.21-2.04-4.82c-0.07-0.15-0.48-0.07-0.48,0.09
					c-0.09,2.03-0.17,4.06-0.26,6.09C42.04,35.92,42.52,35.83,42.53,35.66L42.53,35.66z"/>
			</g>
		</g>
		<g>
			<g>
				<path class="st1" d="M41.62,43.14c0.11,0.4,0.48,0.66,0.87,0.74c0.47,0.1,0.96-0.02,1.39-0.23c0.23-0.12,0.45-0.27,0.66-0.43
					c0.18-0.14,0.37-0.29,0.52-0.47c0.14-0.16,0.24-0.36,0.21-0.58c-0.02-0.19-0.14-0.35-0.32-0.41c-0.1-0.04-0.25,0.01-0.34,0.06
					c-0.05,0.03-0.16,0.1-0.06,0.14c0.37,0.13,0.24,0.62,0.05,0.84c-0.25,0.29-0.59,0.54-0.92,0.73c-0.3,0.17-0.6,0.24-0.93,0.13
					c-0.31-0.1-0.57-0.32-0.66-0.64C42.07,42.89,41.59,43.02,41.62,43.14L41.62,43.14z"/>
			</g>
		</g>
		<g>
			<g>
				<path class="st1" d="M41.09,35.48c1.42,2.29,2.84,4.58,4.26,6.86c0.08,0.12,0.53-0.06,0.48-0.13c-1.42-2.29-2.84-4.58-4.26-6.86
					C41.5,35.23,41.05,35.41,41.09,35.48L41.09,35.48z"/>
			</g>
		</g>
		<g>
			<g>
				<path class="st1" d="M40.77,35.2c-0.17,2.59-0.28,5.19-0.31,7.78c0,0.21,0.48,0.11,0.48-0.06c0.03-2.6,0.13-5.19,0.31-7.78
					C41.26,34.94,40.78,35.04,40.77,35.2L40.77,35.2z"/>
			</g>
		</g>
		<g>
			<g>
				<path class="st1" d="M38.9,45.43c-0.07,1.09,0.27,2.26,1.23,2.88c0.85,0.55,2.02,0.5,2.79-0.18c0.4-0.35,0.64-0.86,0.59-1.4
					c-0.01-0.08-0.5,0-0.48,0.13c0.05,0.53-0.2,1.04-0.61,1.37c-0.47,0.37-1.07,0.31-1.58,0.06c-1.11-0.55-1.52-1.81-1.45-2.98
					C39.39,45.24,38.91,45.29,38.9,45.43L38.9,45.43z"/>
			</g>
		</g>
		<g>
			<g>
				<path class="st1" d="M39.38,45.34c0.24-0.78,0.47-1.56,0.71-2.33c-0.16,0.04-0.31,0.08-0.47,0.12c1.43,1.3,2.94,2.51,4.52,3.63
					c0.11,0.08,0.53-0.11,0.45-0.17c-1.57-1.12-3.08-2.34-4.52-3.63c-0.08-0.07-0.43,0.02-0.47,0.12c-0.24,0.78-0.47,1.56-0.71,2.33
					C38.87,45.52,39.34,45.46,39.38,45.34L39.38,45.34z"/>
			</g>
		</g>
		<g>
			<g>
				<path class="st1" d="M44.91,43.31c-0.34,1.1-0.06,2.32,0.74,3.15c0.76,0.8,2.1,1.22,3.04,0.47c1.16-0.93,0.91-2.67,0.89-3.98
					c-0.02-1.77-0.04-3.54-0.06-5.31c0-0.25-0.4-0.19-0.48-0.01c-0.83,1.99-1.96,3.84-3.36,5.48c-0.2,0.23,0.26,0.33,0.41,0.15
					c1.42-1.67,2.57-3.55,3.42-5.57c-0.16,0-0.32-0.01-0.48-0.01c0.02,1.34,0.03,2.68,0.05,4.03c0.01,0.67,0.02,1.34,0.02,2.01
					c0.01,0.67,0.06,1.37-0.14,2.02c-0.19,0.63-0.63,1.21-1.35,1.21c-0.59,0-1.17-0.33-1.56-0.76c-0.7-0.75-0.97-1.85-0.67-2.83
					C45.46,43.1,44.98,43.09,44.91,43.31L44.91,43.31z"/>
			</g>
		</g>
		<g>
			<g>
				<path class="st1" d="M46.59,38.04c0.72-1.96,1.55-3.88,2.51-5.73c-0.16,0.03-0.32,0.07-0.48,0.1c0.69,1.61,1.24,3.29,1.62,5
					c0.03,0.15,0.52,0.03,0.48-0.13c-0.38-1.72-0.92-3.39-1.62-5c-0.07-0.16-0.43-0.01-0.48,0.1c-0.95,1.86-1.79,3.77-2.51,5.73
					C46.06,38.25,46.54,38.19,46.59,38.04L46.59,38.04z"/>
			</g>
		</g>
		<g>
			<g>
				<path class="st1" d="M44.02,30.76c0.3-1.18,0.6-2.37,0.9-3.55c0.27-1.07,0.67-2.19,0.6-3.31c-0.01-0.09-0.48,0-0.48,0.13
					c-0.07,1.36,0.3,2.68,0.65,3.98c0.36,1.34,0.73,2.67,1.09,4.01c0.03,0.11,0.51-0.02,0.48-0.13c-0.36-1.34-0.73-2.67-1.09-4.01
					c-0.36-1.3-0.72-2.62-0.65-3.98c-0.16,0.04-0.32,0.09-0.48,0.13c0.07,1.15-0.35,2.31-0.63,3.42c-0.29,1.13-0.57,2.26-0.86,3.4
					C43.52,30.95,43.99,30.88,44.02,30.76L44.02,30.76z"/>
			</g>
		</g>
		<g>
			<g>
				<path class="st1" d="M45.52,34.03c0.07-0.14,0.53-0.51,0.68-0.71c0.14-0.2,0.28-0.41,0.4-0.61c0.22-0.37,0.43-0.74,0.62-1.13
					c0.4-0.82,0.72-1.68,1-2.54c0.64-1.95,1.13-3.96,1.67-5.94c-0.16,0.03-0.32,0.06-0.49,0.09c0.17,2.06,0.81,4.02,1.88,5.78
					c0.1,0.17,0.57,0,0.44-0.21c-1.06-1.74-1.68-3.68-1.85-5.71c-0.02-0.22-0.45-0.06-0.49,0.09c-0.68,2.46-1.24,5.01-2.2,7.38
					c-0.45,1.1-1.01,2.13-1.71,3.09c-0.14,0.19-0.37,0.5-0.07,0.66c0.2,0.1,0.46,0,0.55-0.19C46.09,33.83,45.61,33.85,45.52,34.03
					L45.52,34.03z"/>
			</g>
		</g>
		<g>
			<g>
				<path class="st1" d="M49.54,30.96c0.76-1.42,1.53-2.83,2.29-4.25c-0.16,0.04-0.32,0.07-0.48,0.11c0.13,1.77,0.35,3.53,0.67,5.28
					c0.08,0.43,0.16,0.86,0.25,1.29c0.08,0.38,0.11,0.9,0.28,1.25c0.14,0.28,0.77,0.15,0.65-0.11c-0.03-0.05-0.15-0.03-0.2-0.02
					c-0.01,0-0.03,0.01-0.04,0.01c-0.19,0.04-0.43,0.24-0.09,0.17c0.01,0,0.03-0.01,0.04-0.01c-0.07-0.01-0.13-0.01-0.2-0.02
					c0.01,0.02,0.02,0.04,0.03,0.06c0.14-0.03,0.27-0.05,0.41-0.08c-0.22-0.09-0.26-0.72-0.31-0.92c-0.07-0.3-0.13-0.6-0.19-0.91
					c-0.14-0.68-0.26-1.37-0.37-2.05c-0.21-1.35-0.36-2.7-0.46-4.06c-0.01-0.11-0.44,0.04-0.48,0.11c-0.76,1.42-1.53,2.83-2.29,4.25
					C49.03,31.11,49.48,31.08,49.54,30.96L49.54,30.96z"/>
			</g>
		</g>
		<g>
			<g>
				<path class="st1" d="M52.56,34.3c1.57-2.26,3.14-4.53,4.71-6.79c-0.15-0.02-0.3-0.04-0.45-0.06c-0.09,1.58-0.38,3.14-0.87,4.65
					c-0.09,0.27,0.4,0.27,0.46,0.06c0.5-1.54,0.8-3.13,0.89-4.74c0.01-0.22-0.36-0.19-0.45-0.06c-1.57,2.26-3.14,4.53-4.71,6.79
					C51.98,34.41,52.43,34.49,52.56,34.3L52.56,34.3z"/>
			</g>
		</g>
		<g>
			<g>
				<path class="st1" d="M51.67,39.43c0.91-1.47,1.93-2.88,3.05-4.2c-0.15-0.02-0.3-0.04-0.45-0.06c-0.25,1.92-0.5,3.84-0.75,5.76
					c-0.03,0.25,0.46,0.19,0.49-0.03c0.25-1.92,0.5-3.84,0.75-5.76c0.03-0.24-0.36-0.17-0.45-0.06c-1.14,1.35-2.18,2.79-3.11,4.29
					C51.06,39.6,51.55,39.62,51.67,39.43L51.67,39.43z"/>
			</g>
		</g>
		<g>
			<g>
				<path class="st1" d="M55.11,34.63c0.67-1.06,1.56-1.95,2.63-2.61c-0.14,0.02-0.28,0.04-0.43,0.06
					c-0.19,2.06-0.56,4.09-1.11,6.08c-0.03,0.1,0.44,0.04,0.48-0.09c0.55-2.01,0.92-4.05,1.11-6.12c0.01-0.1-0.39,0.04-0.43,0.06
					c-1.11,0.68-2.04,1.6-2.73,2.7C54.61,34.77,55.04,34.75,55.11,34.63L55.11,34.63z"/>
			</g>
		</g>
		<g>
			<g>
				<path class="st1" d="M57.06,35.56c2.65-0.93,4.9-2.78,6.31-5.21c-0.15-0.02-0.31-0.04-0.46-0.06c-0.75,2.26-1.49,4.53-2.24,6.79
					c-0.09,0.27,0.39,0.28,0.46,0.06c0.75-2.26,1.49-4.53,2.24-6.79c0.09-0.29-0.36-0.24-0.46-0.06c-1.32,2.28-3.45,4.05-5.94,4.93
					C56.67,35.31,56.76,35.66,57.06,35.56L57.06,35.56z"/>
			</g>
		</g>
		<g>
			<g>
				<path class="st1" d="M58,44.05c1.69-0.75,3.03-2.02,4.15-3.48c1.32-1.71,2.42-3.61,3.51-5.47c-0.15,0.02-0.31,0.05-0.46,0.07
					c0.01,0.11,0.01,0.21,0.02,0.32c0.01,0.13,0.49,0.03,0.48-0.13c-0.01-0.11-0.01-0.21-0.02-0.32c-0.01-0.14-0.42,0-0.46,0.07
					c-1.02,1.74-2.06,3.5-3.26,5.13c-1.1,1.49-2.42,2.88-4.14,3.64C57.51,44.03,57.79,44.14,58,44.05L58,44.05z"/>
			</g>
		</g>
		<g>
			<g>
				<path class="st1" d="M58.11,39.34c1.44-0.28,2.58-1.15,3.7-2.04c0.6-0.48,1.21-0.96,1.88-1.33c0.57-0.31,1.31-0.48,1.66-1.08
					c0.05-0.08-0.4-0.05-0.48,0.08c-0.2,0.34-0.55,0.48-0.89,0.64c-0.27,0.12-0.54,0.25-0.79,0.41c-0.56,0.33-1.08,0.73-1.59,1.13
					c-1.03,0.81-2.09,1.74-3.41,2C57.99,39.17,57.77,39.4,58.11,39.34L58.11,39.34z"/>
			</g>
		</g>
		<g>
			<g>
				<path class="st1" d="M20.52,34.47c1.6,2.17,3.46,4.14,5.55,5.84c0.1,0.09,0.54-0.1,0.45-0.17c-2.08-1.69-3.93-3.64-5.52-5.8
					C20.91,34.22,20.48,34.41,20.52,34.47L20.52,34.47z"/>
			</g>
		</g>
		<g>
			<g>
				<path class="st1" d="M21.31,34.1c2.03,1.65,4.34,2.93,6.82,3.78c0.12,0.04,0.56-0.15,0.39-0.21c-2.46-0.84-4.74-2.11-6.75-3.75
					C21.65,33.83,21.22,34.02,21.31,34.1L21.31,34.1z"/>
			</g>
		</g>
		<g>
			<g>
				<path class="st1" d="M20.71,44.22c-0.73,0.54-1.24,1.28-1.63,2.09c-0.42,0.88-0.77,1.85-0.83,2.83
					c-0.12,1.99,1.27,3.27,2.72,4.4c0.15,0.12,0.59-0.1,0.38-0.26c-1.37-1.07-2.72-2.29-2.61-4.18c0.05-0.91,0.36-1.79,0.74-2.61
					c0.36-0.8,0.83-1.54,1.55-2.07C21.29,44.22,20.89,44.09,20.71,44.22L20.71,44.22z"/>
			</g>
		</g>
		<g>
			<g>
				<path class="st1" d="M16.83,53.63c0.21,1.07,1.07,1.83,1.82,2.55c0.89,0.85,1.8,1.67,2.75,2.46c0.13,0.1,0.57-0.08,0.45-0.19
					c-0.92-0.77-1.81-1.56-2.68-2.39c-0.75-0.72-1.65-1.48-1.86-2.56C17.28,53.35,16.8,53.46,16.83,53.63L16.83,53.63z"/>
			</g>
		</g>
		<g>
			<g>
				<path class="st1" d="M27.55,60.83c1.75,1.85,4.37,2.26,6.8,2.34c2.77,0.09,5.57-0.06,8.33-0.37c5.57-0.64,11.1-2.07,16.13-4.57
					c2.81-1.4,5.45-3.13,7.82-5.19c0.25-0.21-0.14-0.35-0.31-0.2c-8.22,7.15-19.29,9.93-29.98,10.02c-2.85,0.02-6.22,0-8.33-2.23
					C27.86,60.48,27.4,60.67,27.55,60.83L27.55,60.83z"/>
			</g>
		</g>
		<g>
			<g>
				<path class="st1" d="M66.97,38.23c1.66,1.82,0.74,4.39-0.34,6.25c-0.14,0.24,0.35,0.26,0.46,0.07c1.12-1.94,2.04-4.64,0.31-6.53
					C67.25,37.84,66.79,38.04,66.97,38.23L66.97,38.23z"/>
			</g>
		</g>
		<g>
			<g>
				<path class="st1" d="M72.03,43.64c0.21,9.13-8.03,14.9-14.83,19.34c-0.21,0.13,0.28,0.1,0.37,0.03
					c6.85-4.48,15.15-10.3,14.94-19.5C72.51,43.41,72.03,43.49,72.03,43.64L72.03,43.64z"/>
			</g>
		</g>
		<g>
			<g>
				<path class="st1" d="M65.94,60.72c1.45-0.59,2.77-1.45,3.89-2.53c0.08-0.08,0.04-0.18-0.06-0.22c-0.12-0.04-0.26,0.01-0.34,0.09
					c-1.07,1.03-2.33,1.84-3.7,2.4c-0.09,0.04-0.18,0.14-0.12,0.24C65.68,60.79,65.85,60.76,65.94,60.72L65.94,60.72z"/>
			</g>
		</g>
		<g>
			<g>
				<path class="st1" d="M44.84,47.36c-0.5,0.71-0.64,1.64-0.37,2.47c0.14,0.43,0.39,0.8,0.72,1.12c0.37,0.36,0.78,0.71,1.22,0.98
					c0.82,0.51,1.7,0.4,2.48-0.13c0.74-0.5,1.45-1.25,1.74-2.11c0.3-0.88,0.11-1.97-0.7-2.52c-0.13-0.08-0.55,0.11-0.45,0.18
					c0.61,0.42,0.88,1.18,0.79,1.9c-0.1,0.8-0.59,1.49-1.17,2.02c-0.32,0.3-0.7,0.63-1.13,0.74c-0.46,0.12-0.93-0.13-1.3-0.39
					c-0.66-0.47-1.39-1.03-1.68-1.81c-0.31-0.81-0.21-1.75,0.29-2.46C45.39,47.19,44.91,47.24,44.84,47.36L44.84,47.36z"/>
			</g>
		</g>
		<g>
			<g>
				<path class="st1" d="M40.6,49.33c-0.5,0.36-0.66,0.93-0.75,1.52c-0.09,0.6-0.19,1.28,0.15,1.82c0.34,0.56,1.09,0.83,1.69,0.99
					c0.65,0.17,1.36,0.17,1.98-0.11c0.59-0.27,1.08-0.77,1.18-1.43c0.03-0.2-0.46-0.12-0.48,0.05c-0.1,0.62-0.59,1.11-1.2,1.26
					c-0.72,0.17-1.54-0.08-2.16-0.44c-0.3-0.17-0.55-0.41-0.67-0.74c-0.11-0.32-0.11-0.66-0.07-1c0.06-0.57,0.11-1.39,0.63-1.76
					C41.17,49.3,40.76,49.21,40.6,49.33L40.6,49.33z"/>
			</g>
		</g>
		<g>
			<g>
				<path class="st1" d="M39.98,53.83c-0.4-0.14-0.75,0.18-0.69,0.59c0.04,0.3,0.2,0.61,0.31,0.88c0.13,0.31,0.27,0.62,0.42,0.93
					c0.56,1.17,1.19,2.33,1.32,3.64c0.01,0.14,0.5,0.04,0.48-0.13c-0.1-1.05-0.53-2.01-0.98-2.94c-0.23-0.47-0.46-0.93-0.67-1.41
					c-0.08-0.18-0.63-1.27-0.34-1.41c-0.08,0.02-0.16,0.04-0.24,0.07c0,0,0,0,0,0c0.11,0.04,0.25,0.01,0.34-0.05
					C39.98,53.97,40.09,53.87,39.98,53.83L39.98,53.83z"/>
			</g>
		</g>
		<g>
			<g>
				<path class="st1" d="M42.5,59.92c0.76-2.88,1.93-5.63,3.49-8.16c0.12-0.19-0.37-0.15-0.45-0.01c-1.57,2.56-2.76,5.33-3.52,8.23
					C41.97,60.15,42.45,60.08,42.5,59.92L42.5,59.92z"/>
			</g>
		</g>
		<g>
			<g>
				<path class="st1" d="M44.47,54.6c1.12,1.31,2.26,2.6,3.41,3.88c0.11,0.12,0.57-0.06,0.45-0.18c-1.16-1.28-2.29-2.57-3.41-3.88
					C44.82,54.29,44.36,54.46,44.47,54.6L44.47,54.6z"/>
			</g>
		</g>
		<g>
			<g>
				<path class="st1" d="M50.65,52.98c0.01,0,0.02,0,0.03,0c0.09,0,0.36-0.03,0.4-0.14c0.11-0.28-0.53-0.07-0.61,0.1
					c-0.14,0.28-0.2,0.62-0.3,0.92c-0.11,0.33-0.21,0.67-0.32,1c-0.41,1.3-0.82,2.59-1.24,3.89c-0.02,0.08,0.44,0.03,0.48-0.09
					c0.32-1,0.64-2,0.95-3c0.15-0.48,0.31-0.96,0.46-1.44c0.08-0.26,0.16-0.52,0.25-0.78c0.07-0.22,0.11-0.49,0.24-0.67
					c-0.05,0.03-0.1,0.06-0.16,0.09c0.02-0.01,0.04-0.01,0.06-0.02c-0.1,0.01-0.21,0.02-0.31,0.03c0.01,0.02,0.01,0.04,0.02,0.07
					c0.13-0.05,0.26-0.09,0.4-0.14c-0.01,0-0.02,0-0.03,0c-0.09,0-0.28,0.02-0.34,0.09C50.57,52.94,50.53,52.97,50.65,52.98
					L50.65,52.98z"/>
			</g>
		</g>
		<g>
			<g>
				<path class="st1" d="M49.66,52.57c2.21,1.72,5.36,1.98,7.84,0.72c0.29-0.15,0.03-0.4-0.21-0.28c-2.32,1.18-5.21,0.88-7.26-0.71
					C49.87,52.17,49.44,52.41,49.66,52.57L49.66,52.57z"/>
			</g>
		</g>
		<g>
			<g>
				<path class="st1" d="M52.2,49.41c1.91,0.8,3.61,2.06,4.96,3.64c0.14,0.16,0.6-0.03,0.44-0.21c-1.39-1.63-3.14-2.92-5.12-3.75
					C52.28,49.01,51.92,49.29,52.2,49.41L52.2,49.41z"/>
			</g>
		</g>
		<g>
			<g>
				<path class="st1" d="M23.98,53.15c1.4,1,3.15,1.12,4.82,1.06c1.57-0.06,3.4-0.07,4.66-1.14c0.21-0.18-0.27-0.17-0.38-0.07
					c-1.15,0.98-2.95,0.92-4.38,0.96c-1.48,0.04-3.02-0.1-4.27-0.99C24.29,52.87,23.85,53.06,23.98,53.15L23.98,53.15z"/>
			</g>
		</g>
		<g>
			<g>
				<path class="st1" d="M24.3,52.87c2.08-0.87,4.19-1.66,6.34-2.36c0.05-0.02,0.24-0.08,0.21-0.16c-0.03-0.09-0.21-0.05-0.27-0.03
					c-2.19,0.71-4.34,1.51-6.46,2.4C23.81,52.84,24.1,52.95,24.3,52.87L24.3,52.87z"/>
			</g>
		</g>
		<g>
			<g>
				<path class="st1" d="M22.69,46.58c2.21,1.18,4.47,2.39,6.18,4.26c0.15,0.16,0.6-0.03,0.44-0.21c-1.73-1.9-4.01-3.13-6.25-4.33
					C22.88,46.21,22.45,46.46,22.69,46.58L22.69,46.58z"/>
			</g>
		</g>
		<g>
			<g>
				<path class="st1" d="M23.57,45.89c1.71-0.03,3.42-0.07,5.13-0.1c1.54-0.03,3.49-0.21,4.47,1.25c0.11,0.17,0.58-0.01,0.44-0.21
					c-0.91-1.35-2.62-1.42-4.1-1.4c-1.97,0.03-3.93,0.08-5.9,0.11C23.35,45.56,23.24,45.89,23.57,45.89L23.57,45.89z"/>
			</g>
		</g>
		<g>
			<g>
				<path class="st1" d="M21.04,41c1.02,0.53,1.81,1.28,2.49,2.19c0.68,0.91,1.44,1.71,2.37,2.37c0.14,0.1,0.58-0.1,0.38-0.25
					c-0.96-0.68-1.7-1.53-2.41-2.46c-0.66-0.87-1.47-1.59-2.45-2.1C21.27,40.67,20.83,40.89,21.04,41L21.04,41z"/>
			</g>
		</g>
		<g>
			<g>
				<path class="st1" d="M21.58,40.47c3.42,0.45,6.73,1.52,9.77,3.16c0.15,0.08,0.59-0.13,0.38-0.25c-3.1-1.67-6.48-2.75-9.97-3.21
					C21.56,40.15,21.26,40.43,21.58,40.47L21.58,40.47z"/>
			</g>
		</g>
		<g>
			<g>
				<path class="st1" d="M26.98,35.55c-0.01,0-0.02,0-0.03,0.01c0.07,0.01,0.13,0.02,0.2,0.03c-0.02-0.02-0.03-0.04-0.02-0.06
					c-0.13,0.04-0.25,0.08-0.38,0.12c0.08,0,0.18,0.18,0.22,0.24c0.1,0.13,0.2,0.26,0.3,0.4c0.17,0.22,0.34,0.45,0.5,0.67
					c0.33,0.45,0.66,0.9,0.98,1.36c0.64,0.92,1.25,1.85,1.84,2.8c0.08,0.12,0.53-0.06,0.48-0.13c-0.74-1.2-1.53-2.38-2.35-3.53
					c-0.39-0.55-0.79-1.08-1.2-1.62c-0.16-0.2-0.26-0.43-0.54-0.39c-0.11,0.01-0.44,0.1-0.32,0.27c0.04,0.05,0.14,0.04,0.2,0.03
					c0.01,0,0.02,0,0.03-0.01c0.06-0.01,0.28-0.05,0.28-0.13C27.18,35.52,27.03,35.54,26.98,35.55L26.98,35.55z"/>
			</g>
		</g>
		<g>
			<g>
				<path class="st1" d="M26.99,35.46c0.35-0.06,0.72,0.3,0.99,0.48c0.29,0.19,0.57,0.39,0.86,0.58c0.53,0.36,1.07,0.73,1.6,1.09
					c1.1,0.75,2.21,1.5,3.31,2.25c0.16,0.11,0.59-0.11,0.38-0.26c-1.22-0.83-2.44-1.66-3.66-2.49c-0.61-0.41-1.22-0.83-1.83-1.24
					c-0.46-0.32-0.99-0.83-1.6-0.73C26.79,35.18,26.66,35.51,26.99,35.46L26.99,35.46z"/>
			</g>
		</g>
		<g>
			<g>
				<path class="st1" d="M34.02,46.12c-0.35-1.35-0.71-2.7-1.06-4.05c-0.28-1.07-0.55-2.18-1.35-2.99c-0.15,0.05-0.3,0.11-0.46,0.16
					c2.08,1.4,4.26,2.66,6.51,3.77c0.12,0.06,0.49-0.14,0.46-0.16c-2.25-1.11-4.43-2.36-6.51-3.77c-0.09-0.06-0.52,0.09-0.46,0.16
					c0.82,0.83,1.08,2.01,1.36,3.1c0.34,1.31,0.69,2.61,1.03,3.92C33.57,46.35,34.05,46.22,34.02,46.12L34.02,46.12z"/>
			</g>
		</g>
		<g>
			<g>
				<path class="st1" d="M36.83,42.64c-0.56-2.74-1.12-5.48-1.68-8.22c-0.16,0.04-0.32,0.09-0.48,0.13c1.13,1.64,2.38,3.2,3.74,4.65
					c0.08,0.08,0.52-0.09,0.46-0.16c-1.35-1.45-2.59-2.99-3.72-4.62c-0.06-0.09-0.5,0.02-0.48,0.13c0.56,2.74,1.12,5.48,1.68,8.22
					C36.37,42.86,36.85,42.75,36.83,42.64L36.83,42.64z"/>
			</g>
		</g>
		<g>
			<g>
				<path class="st1" d="M51.25,44.4c1.39-1.27,2.74-2.6,4.03-3.98c1.16-1.25,2.27-2.58,3.02-4.13c-0.15-0.02-0.31-0.04-0.46-0.06
					c-0.86,2.87-1.86,5.69-2.99,8.47c-0.11,0.26,0.38,0.26,0.46,0.06c1.14-2.77,2.14-5.6,2.99-8.47c0.08-0.27-0.37-0.25-0.46-0.06
					c-0.73,1.52-1.82,2.81-2.96,4.04c-1.26,1.36-2.58,2.66-3.94,3.91C50.69,44.4,51.07,44.57,51.25,44.4L51.25,44.4z"/>
			</g>
		</g>
		<g>
			<g>
				<path class="st1" d="M57.64,46.03c2.73-1.44,5.46-2.88,8.19-4.33c-0.11-0.05-0.22-0.1-0.33-0.15c-1.21,2.44-2.96,4.58-5.13,6.24
					c-0.26,0.2,0.14,0.33,0.31,0.19c2.22-1.7,4.03-3.88,5.27-6.39c0.1-0.19-0.23-0.2-0.33-0.15c-2.73,1.44-5.46,2.88-8.19,4.33
					C57.14,45.93,57.41,46.15,57.64,46.03L57.64,46.03z"/>
			</g>
		</g>
		<g>
			<g>
				<path class="st1" d="M56.48,48.13c2.48,1.2,5.35,1.42,7.99,0.61c0.29-0.09,0.22-0.39-0.08-0.3c-2.48,0.77-5.19,0.56-7.53-0.57
					C56.69,47.79,56.26,48.02,56.48,48.13L56.48,48.13z"/>
			</g>
		</g>
		<g>
			<g>
				<path class="st1" d="M57.2,52.26c2.97,0.66,5.58-1.18,7.81-2.9c0.2-0.16-0.28-0.12-0.38-0.04c-2,1.54-4.35,3.33-7.04,2.73
					c-0.11-0.02-0.25-0.01-0.34,0.05C57.22,52.13,57.08,52.23,57.2,52.26L57.2,52.26z"/>
			</g>
		</g>
		<g>
			<g>
				<path class="st1" d="M51.77,46.83c1.96-1.25,4.6-1.57,5.99-3.61c0.14-0.2-0.35-0.19-0.46-0.03c-0.66,0.97-1.69,1.52-2.74,1.99
					c-1.05,0.46-2.13,0.86-3.11,1.48C51.18,46.82,51.59,46.94,51.77,46.83L51.77,46.83z"/>
			</g>
		</g>
		<g>
			<g>
				<path class="st1" d="M57.81,42.87c-0.18,2.8-1.22,5.5-2.99,7.68c-0.11,0.14,0.36,0.09,0.44-0.01c1.78-2.2,2.85-4.91,3.03-7.74
					C58.3,42.63,57.81,42.73,57.81,42.87L57.81,42.87z"/>
			</g>
		</g>
		<g>
			<g>
				<path class="st1" d="M38.02,47.6c-1.99,0.15-4,0.03-5.96-0.35c-0.11-0.02-0.45,0.13-0.31,0.28c1.57,1.52,3.14,3.04,4.71,4.57
					c0.14,0.13,0.58,0.02,0.44-0.21c-0.07-0.12-0.14-0.24-0.21-0.36c-0.11-0.18-0.57,0-0.44,0.21c0.07,0.12,0.14,0.24,0.21,0.36
					c0.15-0.07,0.3-0.14,0.44-0.21c-1.57-1.52-3.14-3.04-4.71-4.57c-0.1,0.09-0.2,0.18-0.31,0.28c2,0.39,4.05,0.51,6.08,0.35
					C38.24,47.93,38.35,47.58,38.02,47.6L38.02,47.6z"/>
			</g>
		</g>
		<g>
			<g>
				<path class="st1" d="M37.86,47.88c0.4,1.47-0.17,3.17-1.44,4.04c-0.27,0.18,0.15,0.23,0.3,0.13c1.37-0.93,2.07-2.69,1.62-4.3
					C38.3,47.59,37.82,47.72,37.86,47.88L37.86,47.88z"/>
			</g>
		</g>
		<g>
			<g>
				<path class="st1" d="M36.35,51.79c-1.27,1.43-2.7,2.72-4.26,3.83c-0.08,0.06-0.12,0.17-0.03,0.24c0.1,0.07,0.26,0.03,0.35-0.03
					c1.59-1.14,3.04-2.45,4.34-3.91C36.96,51.7,36.49,51.63,36.35,51.79L36.35,51.79z"/>
			</g>
		</g>
		<g>
			<g>
				<path class="st1" d="M31.94,56.7c0.76,0.57,1.63,1.08,2.61,1.12c0.83,0.04,1.71-0.25,2.24-0.91c0.18-0.23-0.28-0.27-0.4-0.12
					c-0.44,0.57-1.16,0.78-1.85,0.7c-0.83-0.1-1.56-0.56-2.21-1.05C32.17,56.33,31.74,56.55,31.94,56.7L31.94,56.7z"/>
			</g>
		</g>
		<g>
			<g>
				<path class="st1" d="M37.85,51.66c0.76,0.79,1,2.02,0.57,3.03c-0.1,0.22,0.38,0.18,0.45,0.02c0.47-1.08,0.25-2.39-0.57-3.25
					C38.17,51.34,37.71,51.52,37.85,51.66L37.85,51.66z"/>
			</g>
		</g>
	</g>
</g>
</svg>
