<?xml version="1.0" encoding="utf-8"?>
<!-- Generator: Adobe Illustrator 24.2.0, SVG Export Plug-In . SVG Version: 6.00 Build 0)  -->
<svg version="1.1" id="Слой_1" xmlns="http://www.w3.org/2000/svg" xmlns:xlink="http://www.w3.org/1999/xlink" x="0px" y="0px"
	 viewBox="0 0 88 88" style="enable-background:new 0 0 88 88;" xml:space="preserve">
<style type="text/css">
	.st0{fill:#003974;}
	.st1{fill:#FFFFFF;}
	.st2{fill:#FFFFFF;stroke:#FFFFFF;stroke-width:0.5;stroke-miterlimit:10;}
	.st3{fill:none;stroke:#FFFFFF;stroke-width:0.75;stroke-miterlimit:10;}
</style>
<g>
	<circle class="st0" cx="44" cy="44" r="37.91"/>
	<g>
		<g>
			<g>
				<path class="st1" d="M28.06,23.15c0.13,7.5,0.26,14.99,0.39,22.49c0,0.22,0.49,0.13,0.49-0.05c-0.13-7.5-0.26-14.99-0.39-22.49
					C28.55,22.87,28.06,22.96,28.06,23.15L28.06,23.15z"/>
			</g>
		</g>
		<g>
			<g>
				<path class="st1" d="M33.81,21.88c-0.89,7.96-1.14,15.98-0.74,23.98c0,0.07,0.49,0,0.48-0.13c-0.4-8-0.15-16.02,0.74-23.98
					C34.3,21.7,33.83,21.74,33.81,21.88L33.81,21.88z"/>
			</g>
		</g>
		<g>
			<g>
				<path class="st1" d="M28.98,44.58c-2.02,1.9-4.05,3.81-6.07,5.71c-1.56,1.47-3.52,3.05-3.87,5.29c-0.31,1.97,0.73,3.6,2.7,3.98
					c1.12,0.22,2.31,0.19,3.45,0.23c1.39,0.06,2.79,0.11,4.18,0.14c3.09,0.06,6.18-0.01,9.26-0.37c0.22-0.03,0.41-0.28,0.07-0.24
					c-5.06,0.59-10.18,0.38-15.25,0.13c-1.1-0.05-2.33-0.16-3.15-1c-0.68-0.7-0.9-1.74-0.81-2.69c0.21-2.24,2.1-3.82,3.63-5.26
					c2.08-1.96,4.17-3.92,6.25-5.88C29.56,44.45,29.09,44.48,28.98,44.58L28.98,44.58z"/>
			</g>
		</g>
		<g>
			<g>
				<path class="st1" d="M33.13,45.58c1.34,1.15,2.68,2.29,4.01,3.44c1.19,1.03,2.4,2.14,3.06,3.6c0.61,1.33,0.74,3.03-0.13,4.27
					c-0.91,1.31-2.58,1.72-4.04,2.07c-0.29,0.07-0.23,0.3,0.06,0.23c1.38-0.33,2.88-0.72,3.93-1.72c1.11-1.06,1.35-2.63,0.98-4.07
					c-0.44-1.66-1.63-2.96-2.88-4.08c-1.49-1.34-3.03-2.61-4.55-3.92C33.46,45.29,33.01,45.47,33.13,45.58L33.13,45.58z"/>
			</g>
		</g>
		<g>
			<g>
				<path class="st1" d="M24.91,50.28c-0.17-0.78,0.95-0.82,1.4-0.54c0.51,0.32,0.88,0.83,1.37,1.18c0.78,0.55,1.69,0.51,2.56,0.21
					c1-0.35,1.93-1,2.99-1.15c1.15-0.16,2.16,0.9,3.29,0.38c0.3-0.14,0.04-0.42-0.22-0.31c-0.73,0.33-1.58-0.36-2.31-0.45
					c-0.51-0.07-1.04,0.03-1.52,0.19c-1.11,0.37-2.25,1.26-3.46,1.19c-1.31-0.08-1.8-1.7-3.07-1.8c-0.71-0.06-1.7,0.37-1.51,1.22
					C24.48,50.64,24.96,50.52,24.91,50.28L24.91,50.28z"/>
			</g>
		</g>
		<g>
			<g>
				<path class="st1" d="M30.14,21.39c-0.62-0.13-1.45-0.03-1.83,0.54c-0.17,0.25-0.22,0.61-0.09,0.89
					c0.14,0.29,0.44,0.41,0.75,0.43c0.41,0.03,0.83-0.07,1.24-0.15c0.48-0.09,0.97-0.19,1.45-0.3c0.97-0.24,1.93-0.53,2.86-0.89
					c0.04-0.01,0.21-0.09,0.14-0.16c-0.67-0.57-1.54-0.72-2.38-0.52c-0.05,0.01-0.25,0.08-0.22,0.15c0.03,0.08,0.21,0.04,0.27,0.03
					c0.67-0.16,1.37,0.08,1.88,0.52c0.05-0.05,0.09-0.1,0.14-0.16c-1.33,0.5-2.7,0.88-4.1,1.13c-0.52,0.09-1.42,0.35-1.58-0.38
					c-0.05-0.24,0.01-0.51,0.16-0.7c0.23-0.28,0.6-0.3,0.94-0.23c0.11,0.02,0.24,0,0.34-0.06C30.13,21.51,30.26,21.41,30.14,21.39
					L30.14,21.39z"/>
			</g>
		</g>
		<g>
			<g>
				<path class="st1" d="M46.65,23.34c-0.12,10.34-0.25,20.68-0.37,31.03c-0.04,2.95-0.07,5.9-0.11,8.85c0,0.27,0.49,0.21,0.49-0.03
					c0.12-10.34,0.25-20.68,0.37-31.03c0.04-2.95,0.07-5.9,0.11-8.85C47.14,23.04,46.65,23.1,46.65,23.34L46.65,23.34z"/>
			</g>
		</g>
		<g>
			<g>
				<path class="st1" d="M37.73,66.44c3.61,1.41,7.66,1.37,11.25-0.05c0.32-0.13,0.02-0.25-0.18-0.16c-3.42,1.36-7.26,1.34-10.68,0
					C37.99,66.17,37.55,66.36,37.73,66.44L37.73,66.44z"/>
			</g>
		</g>
		<g>
			<g>
				<path class="st1" d="M53.97,29.01c0.5,3.81,0.8,7.65,0.91,11.49c0,0.17,0.49,0.07,0.48-0.13c-0.11-3.84-0.41-7.68-0.91-11.49
					C54.43,28.7,53.95,28.81,53.97,29.01L53.97,29.01z"/>
			</g>
		</g>
		<g>
			<g>
				<path class="st1" d="M54.83,40.17c-1.4,6.27-3.43,12.37-6.06,18.23c-0.04,0.08,0.42,0.04,0.48-0.08
					c2.63-5.86,4.66-11.96,6.06-18.23C55.33,39.98,54.85,40.05,54.83,40.17L54.83,40.17z"/>
			</g>
		</g>
		<g>
			<g>
				<path class="st1" d="M62.03,28.99c-0.33,2.97-0.35,5.97-0.06,8.94c0.01,0.1,0.5,0.01,0.48-0.13c-0.29-2.98-0.28-5.97,0.06-8.94
					C62.52,28.79,62.05,28.84,62.03,28.99L62.03,28.99z"/>
			</g>
		</g>
		<g>
			<g>
				<path class="st1" d="M62.26,39.77c1.83,6.87,3.93,13.67,6.27,20.39c0.05,0.15,0.53,0.01,0.48-0.13
					c-2.34-6.72-4.43-13.52-6.27-20.39C62.71,39.49,62.22,39.62,62.26,39.77L62.26,39.77z"/>
			</g>
		</g>
		<g>
			<g>
				<path class="st1" d="M50.24,61.56c5.81,1.71,12.57,1.56,18.25-0.6c0.31-0.12,0.03-0.32-0.2-0.23
					c-5.52,2.11-12.11,2.21-17.76,0.55C50.35,61.22,49.96,61.47,50.24,61.56L50.24,61.56z"/>
			</g>
		</g>
		<g>
			<g>
				<path class="st1" d="M51.74,50.68c4.18,2.23,9.24,2.44,13.62,0.66c0.32-0.13,0.02-0.19-0.17-0.11
					c-4.19,1.71-9.01,1.41-12.99-0.71C52.07,50.45,51.68,50.64,51.74,50.68L51.74,50.68z"/>
			</g>
		</g>
		<g>
			<g>
				<path class="st1" d="M55.94,49.69c1.62-0.07,3.24-0.14,4.86-0.22c1-0.04,2.74-0.25,3.12,1c0.04,0.14,0.52,0,0.48-0.13
					c-0.34-1.12-1.8-1.17-2.77-1.13c-1.83,0.08-3.66,0.16-5.49,0.25C55.99,49.46,55.62,49.7,55.94,49.69L55.94,49.69z"/>
			</g>
		</g>
		<g>
			<g>
				<path class="st1" d="M31.33,53.96c-0.27,0.51,0.16,1.18,0.73,1.19c0.33,0.01,0.65-0.15,0.84-0.42c0.15-0.22,0.22-0.51,0.12-0.76
					c-0.03-0.07-0.05-0.12-0.13-0.15c-0.05-0.02-0.11-0.02-0.16-0.03c-0.11-0.01-0.23,0-0.34,0.03c-0.21,0.05-0.41,0.17-0.55,0.33
					c-0.07,0.08-0.05,0.19,0.06,0.23c0.11,0.03,0.26,0,0.34-0.09c0.02-0.02,0.04-0.04,0.06-0.06c-0.02,0.02-0.01,0.01,0.01,0
					c0.01-0.01,0.02-0.02,0.04-0.03c0,0,0.03-0.02,0.03-0.02c-0.03,0.01-0.03,0.02-0.01,0.01c0.01,0,0.01-0.01,0.02-0.01
					c0.01-0.01,0.03-0.01,0.04-0.02c0.04-0.02-0.03,0.01,0,0c0.03-0.01,0.05-0.02,0.08-0.02c0.06-0.01-0.04,0,0,0
					c0.01,0,0.03,0,0.04,0c0.01,0,0.03,0,0.04,0c0.03,0-0.06-0.01,0,0c0.03,0,0.06,0.01,0.09,0.01c-0.05-0.02-0.09-0.04-0.14-0.07
					c0.02,0.03,0,0,0,0c0,0.01,0.01,0.02,0.01,0.03c0.01,0.02,0.01,0.04,0.02,0.06c0,0.02,0.01,0.04,0.01,0.06c0,0.01,0,0.02,0,0.03
					c0,0.01,0,0.01,0,0.02c0-0.02,0-0.02,0-0.01c0,0.04,0,0.08-0.01,0.12c0,0.02-0.01,0.04-0.01,0.06c0,0.01,0,0.02-0.01,0.03
					c0.01-0.02,0.01-0.02,0,0c-0.01,0.04-0.03,0.08-0.05,0.11c-0.01,0.02-0.02,0.03-0.03,0.05c-0.02,0.03,0,0,0-0.01
					c-0.01,0.01-0.02,0.02-0.03,0.03c-0.01,0.01-0.02,0.03-0.04,0.04c-0.01,0.01-0.01,0.01-0.02,0.02
					c-0.03,0.03,0.01-0.01,0.01-0.01c0,0-0.04,0.03-0.04,0.04c-0.01,0.01-0.02,0.01-0.02,0.02c-0.04,0.02-0.02,0,0.01,0
					c-0.02,0-0.04,0.02-0.05,0.03c-0.01,0-0.02,0.01-0.03,0.01c0.04-0.03,0.05-0.02,0.02-0.01c-0.01,0-0.08,0.02-0.04,0.01
					c0.05-0.01-0.03,0-0.04,0c-0.01,0-0.05,0.01-0.01,0c0.03-0.01,0.01,0,0,0c-0.01,0-0.02,0-0.03,0c-0.03,0-0.01-0.01-0.01,0
					c0,0.01,0.02,0.01-0.01,0c-0.01,0-0.02-0.01-0.03-0.01c-0.01,0-0.02-0.01-0.03-0.01c-0.01,0-0.04-0.02-0.02-0.01
					c0.03,0.01-0.03-0.01-0.03-0.02c-0.02-0.01-0.04-0.02-0.05-0.04c-0.02-0.01-0.03-0.02-0.04-0.04c0,0,0.03,0.03,0,0
					c-0.01-0.01-0.02-0.02-0.03-0.03c-0.03-0.03-0.05-0.06-0.07-0.09c-0.01-0.02-0.02-0.03-0.03-0.05c0-0.01-0.01-0.02-0.01-0.03
					c0.02,0.04,0-0.01,0-0.01c-0.02-0.04-0.03-0.08-0.04-0.13c-0.01-0.02-0.01-0.05-0.01-0.07c0-0.01,0-0.02,0-0.03
					c0-0.02,0,0.03,0,0c0-0.05,0-0.09,0.01-0.14c0-0.01,0-0.02,0.01-0.03c0.01-0.04-0.01,0.03,0-0.01c0.01-0.02,0.02-0.04,0.03-0.07
					c0.05-0.1-0.05-0.19-0.15-0.2C31.53,53.81,31.39,53.85,31.33,53.96L31.33,53.96z"/>
			</g>
		</g>
		<g>
			<g>
				<path class="st1" d="M26.71,53.37c-0.1-0.28-0.53-0.16-0.69-0.01c-0.21,0.19-0.1,0.44,0.08,0.6c0.06,0.05,0.12,0.11,0.2,0.12
					c0.08,0.01,0.17,0,0.25-0.02c0.12-0.02,0.22-0.07,0.32-0.13c0.17-0.1,0.32-0.25,0.42-0.41c0.19-0.32,0.23-0.74,0.01-1.06
					c-0.24-0.36-0.7-0.42-1.09-0.35c-0.43,0.08-0.88,0.39-0.95,0.85c-0.03,0.21,0.46,0.13,0.49-0.05c0.02-0.12,0.05-0.18,0.12-0.29
					c0.03-0.04-0.03,0.03,0.01-0.01c0.01-0.01,0.01-0.02,0.02-0.02c0.02-0.02,0.04-0.04,0.06-0.06c0.04-0.04-0.04,0.03,0.01-0.01
					c0.01-0.01,0.02-0.01,0.03-0.02c0.03-0.02,0.06-0.04,0.08-0.05c-0.06,0.03,0.02-0.01,0.03-0.02c0.01-0.01,0.03-0.01,0.04-0.02
					c0.05-0.02-0.01,0.01-0.01,0c0,0,0.07-0.02,0.08-0.02c0.01,0,0.03-0.01,0.04-0.01c0.02,0,0.01,0-0.02,0c0.01,0,0.02,0,0.03,0
					c0.03,0,0.05-0.01,0.08-0.01c0.04,0-0.01,0-0.01,0c0.02,0,0.03,0,0.05,0c0.03,0,0.05,0,0.08,0.01c-0.05,0-0.02,0-0.01,0
					c0.02,0,0.04,0.01,0.06,0.01c0.01,0,0.08,0.03,0.05,0.01c0.02,0.01,0.05,0.02,0.07,0.03c0.06,0.03,0.09,0.05,0.12,0.08
					c0.09,0.08,0.13,0.16,0.17,0.27c0.04,0.11,0.04,0.21,0.03,0.32c-0.01,0.12-0.05,0.22-0.09,0.31c-0.02,0.03-0.03,0.06-0.05,0.09
					c-0.01,0.01-0.01,0.02-0.02,0.03c0,0.01-0.04,0.05-0.02,0.03c0.02-0.02-0.02,0.02-0.02,0.02c-0.01,0.01-0.02,0.02-0.03,0.04
					c-0.01,0.01-0.02,0.02-0.04,0.03c-0.01,0.01-0.05,0.04-0.01,0.01c-0.03,0.02-0.05,0.04-0.08,0.06c-0.04,0.03,0.04-0.01,0,0
					c-0.02,0.01-0.04,0.02-0.05,0.02c-0.04,0.02,0.01-0.01,0.02-0.01c0,0-0.06,0.02-0.06,0.02c-0.04,0.01,0.02-0.01,0.02,0
					c0,0-0.06,0.01-0.07,0.01c0.05,0.01,0.11,0.02,0.16,0.03c-0.1-0.08-0.21-0.17-0.22-0.31c0,0,0-0.01,0-0.01c0-0.01,0-0.01,0,0.01
					c0,0,0-0.01,0.01-0.01c-0.01,0.02-0.02,0.02-0.01,0.01c0,0,0.05-0.04,0,0c0.03-0.02-0.02,0.01-0.03,0.01
					c-0.02,0.01-0.02,0.01-0.01,0c0.02-0.01,0.01,0-0.03,0.01c-0.03,0-0.05,0-0.08-0.01c-0.01-0.01-0.01-0.01,0,0
					c0,0-0.01-0.01-0.01-0.01c0.02,0.02,0-0.02,0.01,0.01c0.04,0.1,0.19,0.1,0.28,0.07C26.57,53.55,26.74,53.47,26.71,53.37
					L26.71,53.37z"/>
			</g>
		</g>
		<g>
			<g>
				<path class="st1" d="M34.79,51.25c-0.09-0.04-0.19-0.04-0.29-0.03c-0.1,0.01-0.21,0.05-0.3,0.1c-0.07,0.04-0.13,0.09-0.18,0.16
					c-0.03,0.05-0.06,0.11-0.07,0.16c-0.01,0.06,0,0.11,0.02,0.16c0.02,0.05,0.05,0.09,0.1,0.11c0.12,0.08,0.27,0.1,0.41,0.07
					c0.1-0.02,0.21-0.05,0.3-0.1c0.08-0.05,0.14-0.11,0.18-0.19c0.02-0.03-0.02-0.07-0.05-0.08c-0.04-0.02-0.11-0.02-0.16-0.01
					c-0.1,0.02-0.23,0.06-0.28,0.16c0,0,0,0.01,0,0.01c0.01-0.01,0.01-0.02,0.02-0.03c-0.01,0.02-0.02,0.04-0.04,0.05
					c0.01-0.01,0.02-0.02,0.03-0.03c-0.01,0.01-0.02,0.02-0.03,0.02c-0.02,0.02,0.05-0.03,0.03-0.02c0,0-0.01,0.01-0.01,0.01
					c-0.03,0.02,0.07-0.03,0.03-0.01c0,0-0.01,0-0.02,0.01c0.05-0.02,0.07-0.02,0.05-0.02c0,0-0.01,0-0.01,0
					c-0.01,0-0.04,0.01,0.01,0c0.06-0.01,0.01,0-0.01,0c0.09-0.01,0.06,0,0.04,0c-0.01,0-0.01,0-0.02,0c-0.03,0,0.06,0.01,0.03,0
					c-0.01,0-0.01,0-0.02,0c-0.01,0-0.03,0-0.04-0.01c0.01,0,0.03,0.01,0.04,0.01c-0.03-0.01-0.05-0.02-0.08-0.03
					c0.01,0.01,0.02,0.01,0.03,0.02c-0.03-0.02-0.06-0.05-0.08-0.08c0.01,0.01,0.01,0.02,0.02,0.03c-0.02-0.04-0.03-0.08-0.03-0.12
					c0,0.01,0,0.02,0,0.03c0-0.04,0.01-0.08,0.03-0.12c-0.01,0.01-0.01,0.02-0.02,0.03c0.02-0.03,0.03-0.05,0.06-0.08
					c-0.01,0.01-0.02,0.02-0.03,0.03c0.01-0.01,0.02-0.01,0.02-0.02c0,0,0.01-0.01,0.02-0.01c0.02-0.02-0.03,0.02-0.03,0.02
					c0.01,0,0.02-0.01,0.03-0.02c0.03-0.02-0.06,0.03-0.03,0.02c0,0,0.01,0,0.01-0.01c0.02-0.01-0.07,0.02-0.04,0.01
					c0.01,0,0.04-0.01-0.01,0c-0.08,0.02,0.05,0-0.03,0c-0.05,0-0.02,0-0.01,0c0.03,0-0.05-0.01-0.03,0c0.01,0,0.02,0,0.03,0.01
					c-0.01,0-0.03-0.01-0.04-0.01c0.01,0,0.03,0.01,0.04,0.02c0.04,0.02,0.11,0.02,0.16,0.01c0.06-0.01,0.13-0.03,0.18-0.06
					c0.03-0.02,0.09-0.05,0.09-0.09C34.85,51.29,34.83,51.27,34.79,51.25L34.79,51.25z"/>
			</g>
		</g>
		<g>
			<g>
				<path class="st1" d="M37.35,55.48c0.09-0.09,0.17-0.17,0.26-0.26c0.01-0.01,0.02-0.02,0.02-0.04c0-0.01,0-0.02-0.01-0.03
					c-0.02-0.01-0.03-0.02-0.05-0.02c-0.02-0.01-0.05-0.01-0.07,0c-0.06,0-0.13,0.02-0.19,0.04c-0.05,0.02-0.1,0.04-0.13,0.08
					c-0.09,0.09-0.17,0.17-0.26,0.26c-0.01,0.01-0.02,0.02-0.02,0.04c0,0.01,0,0.02,0.01,0.03c0.02,0.01,0.03,0.02,0.05,0.02
					c0.02,0.01,0.05,0.01,0.07,0c0.06,0,0.13-0.02,0.19-0.04C37.27,55.54,37.31,55.52,37.35,55.48L37.35,55.48z"/>
			</g>
		</g>
		<g>
			<g>
				<path class="st1" d="M24.27,56.92c0.09,0,0.17,0,0.26,0c0.07,0,0.13-0.01,0.19-0.04c0.03-0.01,0.05-0.03,0.08-0.05
					c0.02-0.01,0.04-0.03,0.05-0.05c0.01-0.01,0.01-0.03,0.02-0.04c0.01-0.03,0-0.05-0.02-0.07c-0.01-0.01-0.02-0.02-0.03-0.03
					c-0.03-0.02-0.06-0.02-0.1-0.02c-0.09,0-0.17,0-0.26,0c-0.07,0-0.13,0.01-0.19,0.04c-0.03,0.01-0.05,0.03-0.08,0.05
					c-0.02,0.01-0.04,0.03-0.05,0.05c-0.01,0.01-0.01,0.03-0.02,0.04c-0.01,0.03,0,0.05,0.02,0.07c0.01,0.01,0.02,0.02,0.03,0.03
					C24.21,56.91,24.24,56.92,24.27,56.92L24.27,56.92z"/>
			</g>
		</g>
		<g>
			<g>
				<path class="st1" d="M45.17,21.47c0.51-0.32,0.98,0.37,1.11,0.79c0.06,0.21,0.1,0.45,0.04,0.67c-0.09,0.34-0.37,0.32-0.67,0.33
					c-1.34,0.02-2.67-0.17-3.97-0.51c0.01,0.02,0.03,0.04,0.04,0.06c0.2-0.48,0.58-1,1.15-0.95c0.11,0.01,0.26-0.02,0.34-0.09
					c0.06-0.06,0.07-0.12-0.03-0.13c-0.88-0.07-1.61,0.45-1.94,1.25c-0.01,0.03,0.02,0.06,0.04,0.06c0.93,0.25,1.87,0.42,2.83,0.49
					c0.46,0.03,0.92,0.05,1.38,0.04c0.33-0.01,0.68-0.02,0.97-0.2c0.56-0.35,0.38-1.17,0.06-1.63c-0.42-0.6-1.17-0.57-1.74-0.21
					c-0.09,0.06-0.05,0.11,0.03,0.13C44.94,21.58,45.08,21.52,45.17,21.47L45.17,21.47z"/>
			</g>
		</g>
		<g>
			<g>
				<path class="st1" d="M41.24,22.75c-0.12,10.54-0.25,21.09-0.37,31.63c-0.04,2.99-0.07,5.98-0.11,8.97
					c0,0.27,0.49,0.21,0.49-0.03c0.12-10.54,0.25-21.09,0.37-31.63c0.04-2.99,0.07-5.98,0.11-8.97
					C41.74,22.45,41.25,22.51,41.24,22.75L41.24,22.75z"/>
			</g>
		</g>
		<g>
			<g>
				<path class="st1" d="M40.89,63.62c0.09,0.03,0.17,0.05,0.27,0.03c0.08-0.01,0.27-0.06,0.29-0.16c0.02-0.1-0.15-0.16-0.22-0.18
					c-0.18-0.06-0.37-0.07-0.55-0.02c-0.26,0.07-0.44,0.3-0.63,0.47c-0.89,0.84-1.72,1.74-2.47,2.71c-0.07,0.09,0.06,0.13,0.13,0.13
					c0.11,0,0.25-0.04,0.32-0.13c0.51-0.66,1.06-1.3,1.65-1.9c0.3-0.31,0.6-0.6,0.91-0.89c0.02-0.02,0.22-0.18,0.21-0.19
					c0.02,0.04-0.15,0,0,0.03c0.04,0.01,0.08,0.02,0.12,0.04c0.01,0,0.03,0.02,0.04,0.02c0,0,0.01,0.01,0.01,0.01
					c0.03,0.03,0.05,0,0.04-0.09c0.08-0.03,0.15-0.06,0.23-0.09c0.1-0.02,0.09,0.01,0.04-0.01c-0.11-0.03-0.24-0.01-0.34,0.05
					C40.88,63.47,40.77,63.58,40.89,63.62L40.89,63.62z"/>
			</g>
		</g>
		<g>
			<g>
				<path class="st1" d="M45.91,63.14c-0.03,0.01-0.04,0.01-0.02,0.01c0.06-0.01,0.11,0.03,0.14,0.13
					c-0.01-0.01-0.01,0.01-0.01,0.01c0.01,0,0.05-0.02,0.05-0.02c0.12-0.01,0.2,0.11,0.29,0.18c0.32,0.3,0.64,0.61,0.95,0.92
					c0.6,0.62,1.16,1.27,1.69,1.94c0.09,0.12,0.56-0.04,0.45-0.18c-0.73-0.95-1.54-1.83-2.41-2.66c-0.16-0.15-0.34-0.39-0.56-0.45
					c-0.19-0.05-0.39-0.01-0.57,0.05c-0.09,0.03-0.31,0.11-0.32,0.22c-0.02,0.17,0.31,0.09,0.39,0.07c0.06-0.02,0.24-0.08,0.21-0.18
					C46.16,63.09,45.97,63.12,45.91,63.14L45.91,63.14z"/>
			</g>
		</g>
		<g>
			<g>
				<path class="st1" d="M53.17,27.88c-0.38,0.09-0.58,0.5-0.18,0.74c0.24,0.15,0.65,0.11,0.91,0.12c0.46,0.02,0.93,0.04,1.39,0.06
					c1.93,0.08,3.87,0.25,5.79,0.23c0.43,0,0.87-0.03,1.3-0.08c0.23-0.03,0.56-0.04,0.76-0.18c0.43-0.31-0.08-0.83-0.39-1
					c-0.58-0.32-1.3-0.32-1.94-0.37c-0.96-0.08-1.93-0.12-2.9-0.15c-0.18,0-0.51,0.26-0.19,0.27c1.28,0.03,2.61,0.05,3.87,0.24
					c0.32,0.05,1.2,0.24,1.2,0.71c0,0.41-1.57,0.3-1.9,0.3c-1.28-0.02-2.55-0.1-3.83-0.15c-0.66-0.03-1.32-0.06-1.98-0.09
					c-0.3-0.01-0.59-0.03-0.89-0.04c-0.16-0.01-0.34,0.01-0.5-0.02c-0.13-0.04-0.27-0.08-0.4-0.13c0.04-0.12,0.02-0.19-0.06-0.22
					C53.52,28.05,53.46,27.82,53.17,27.88L53.17,27.88z"/>
			</g>
		</g>
		<g>
			<g>
				<path class="st1" d="M42.75,21.54c-0.84-0.03-1.68,0.17-2.41,0.57c-0.27,0.15-0.73,0.39-0.77,0.74
					c-0.04,0.38,0.47,0.5,0.74,0.59c0.91,0.3,1.89,0.32,2.84,0.34c1.11,0.03,2.21,0.05,3.32,0.08c0.09,0,0.28-0.02,0.34-0.09
					c0.05-0.05,0.09-0.1-0.03-0.1c-0.82-0.02-1.64-0.04-2.45-0.06c-0.82-0.02-1.64-0.01-2.45-0.1c-0.4-0.05-2.12-0.25-1.76-0.91
					c0.18-0.33,0.69-0.54,1.02-0.66c0.42-0.16,0.86-0.21,1.31-0.2C42.53,21.73,42.98,21.55,42.75,21.54L42.75,21.54z"/>
			</g>
		</g>
		<g>
			<g>
				<path class="st1" d="M45.69,21.14c0,0.01-0.01,0.01-0.01,0.02c0.04-0.03,0.09-0.06,0.13-0.09c-0.01,0-0.01,0-0.02,0.01
					c0.08-0.01,0.16-0.02,0.24-0.03c0.09,0.02,0.03,0.05-0.2,0.1c0.03,0.01,0.07,0.01,0.1,0.02c0.08,0.02,0.16,0.03,0.24,0.05
					c0.14,0.03,0.28,0.06,0.42,0.09c0.28,0.06,0.56,0.11,0.83,0.17c0.23,0.05,0.53,0.07,0.63,0.32c0.07,0.18,0.04,0.4-0.07,0.56
					c-0.13,0.2-0.34,0.31-0.54,0.42c-0.26,0.13-0.52,0.25-0.79,0.37c-0.53,0.23-1.06,0.43-1.61,0.61c-0.07,0.02-0.24,0.08-0.21,0.18
					c0.03,0.09,0.21,0.07,0.27,0.05c0.61-0.19,1.2-0.42,1.79-0.67c0.28-0.12,0.57-0.26,0.84-0.4c0.23-0.12,0.46-0.26,0.63-0.47
					c0.29-0.35,0.28-0.92-0.2-1.1c-0.28-0.11-0.59-0.14-0.88-0.2c-0.32-0.07-0.64-0.13-0.95-0.2c-0.15-0.03-0.29-0.07-0.45-0.04
					c-0.12,0.02-0.3,0.08-0.34,0.21c-0.08,0.28,0.47,0.2,0.57,0.04C46.25,20.96,45.77,21.01,45.69,21.14L45.69,21.14z"/>
			</g>
		</g>
		<g>
			<g>
				<path class="st1" d="M41.9,30.81c0.12-0.66,0.94-0.27,1.31-0.11c0.45,0.19,0.95,0.31,1.42,0.1c0.09-0.04,0.18-0.1,0.26-0.17
					c0.08-0.07,0.17-0.2,0.28-0.22c0.17-0.04,0.41,0.08,0.57,0.14c0.39,0.14,0.74,0.21,1.12,0c0.08-0.05,0.12-0.15,0.04-0.21
					c-0.09-0.07-0.26-0.01-0.34,0.04c-0.14,0.08-0.45-0.08-0.58-0.13c-0.2-0.07-0.4-0.14-0.62-0.14c-0.21,0-0.42,0.07-0.59,0.2
					c-0.1,0.07-0.18,0.17-0.28,0.24c-0.15,0.1-0.34,0.08-0.51,0.04c-0.54-0.12-1-0.5-1.58-0.45c-0.43,0.04-0.9,0.28-0.99,0.73
					C41.38,31.07,41.87,30.99,41.9,30.81L41.9,30.81z"/>
			</g>
		</g>
		<g>
			<g>
				<path class="st1" d="M51.88,51.84c0.19,0,0.51-0.28,0.19-0.28C51.88,51.55,51.55,51.84,51.88,51.84L51.88,51.84z"/>
			</g>
		</g>
		<g>
			<g>
				<path class="st1" d="M52.37,51.22c-0.34,0.19-0.62,0.43-0.89,0.71c-0.05,0.06,0.34-0.01,0.37-0.02
					c0.36-0.16,0.73-0.32,1.09-0.48c-0.09-0.01-0.18-0.03-0.27-0.04c-0.49,0.23-0.89,0.55-1.22,0.98c-0.05,0.07,0.3,0,0.32,0
					c0.63-0.21,1.26-0.42,1.89-0.63c-0.09-0.01-0.18-0.03-0.26-0.04c-0.87,0.48-1.63,1.11-2.27,1.88c-0.05,0.06,0.3,0.01,0.32,0
					c0.8-0.3,1.57-0.66,2.31-1.1c-0.12,0-0.24,0-0.37,0c-1.12,0.67-2.14,1.47-3.06,2.4c-0.11,0.11,0.32,0.01,0.35,0
					c1.32-0.55,2.6-1.2,3.83-1.92c0.2-0.12-0.26-0.05-0.32-0.02c-1.27,0.57-2.39,1.39-3.31,2.45c-0.05,0.05,0.37-0.02,0.42-0.05
					c1.29-0.74,2.59-1.49,3.88-2.23c0.2-0.12-0.29-0.04-0.37,0c-1.82,0.91-3.5,2.07-4.99,3.46c-0.11,0.11,0.32,0.01,0.35,0
					c2.07-0.81,3.99-1.93,5.9-3.06c0.2-0.12-0.29-0.04-0.37,0c-1.95,1.04-3.81,2.22-5.59,3.54c-0.09,0.07,0.08,0.07,0.11,0.06
					c1.04-0.1,1.98-0.64,2.92-1.07c1.12-0.52,2.24-1.04,3.36-1.56c0.29-0.13-0.17-0.09-0.27-0.04c-2.49,1.11-4.86,2.45-7.08,4.02
					c-0.07,0.05,0.02,0.07,0.06,0.07c1.28-0.02,2.41-0.68,3.53-1.23c1.4-0.69,2.81-1.38,4.21-2.06c0.29-0.14-0.17-0.09-0.27-0.04
					c-2.55,1.05-5,2.34-7.21,4.01c-0.12,0.09,0.27,0.03,0.3,0.02c2.58-0.88,5.07-1.99,7.44-3.32c0.2-0.11-0.21-0.06-0.26-0.04
					c-2.76,1.01-5.34,2.44-7.64,4.27c-0.12,0.09,0.31,0.01,0.35,0c2.68-1.1,5.32-2.31,7.9-3.62c0.2-0.1-0.26-0.05-0.32-0.02
					c-2.65,1.13-5.33,2.29-7.59,4.12c-0.12,0.1,0.27,0.03,0.3,0.02c1.24-0.43,2.46-0.91,3.66-1.44c0.29-0.13-0.17-0.09-0.27-0.04
					c-1.16,0.52-2.35,0.98-3.55,1.4c0.1,0.01,0.2,0.01,0.3,0.02c2.21-1.79,4.83-2.92,7.43-4.03c-0.11-0.01-0.21-0.01-0.32-0.02
					c-2.55,1.3-5.16,2.49-7.81,3.58c0.12,0,0.24,0,0.35,0c2.22-1.76,4.7-3.16,7.37-4.13c-0.09-0.01-0.18-0.03-0.26-0.04
					c-2.31,1.29-4.73,2.37-7.24,3.23c0.1,0.01,0.2,0.01,0.3,0.02c2.16-1.63,4.55-2.89,7.04-3.92c-0.09-0.01-0.18-0.03-0.27-0.04
					c-1.16,0.57-2.31,1.13-3.47,1.7c-0.6,0.29-1.2,0.59-1.8,0.88c-0.28,0.13-0.56,0.27-0.85,0.38c-0.14,0.05-0.62,0.26-0.76,0.19
					c-0.14-0.07,0.04-0.1,0.14-0.17c2.07-1.43,4.27-2.66,6.57-3.68c-0.09-0.01-0.18-0.03-0.27-0.04c-0.9,0.42-1.8,0.84-2.7,1.26
					c-0.44,0.2-0.87,0.41-1.31,0.61c-0.57,0.26-1.14,0.58-1.78,0.64c0.04,0.02,0.07,0.04,0.11,0.06c1.75-1.3,3.59-2.47,5.52-3.49
					c-0.12,0-0.24,0-0.37,0c-1.88,1.11-3.77,2.22-5.81,3.02c0.12,0,0.24,0,0.35,0c1.47-1.37,3.12-2.52,4.92-3.42
					c-0.12,0-0.24,0-0.37,0c-1.29,0.74-2.59,1.49-3.88,2.23c0.14-0.02,0.28-0.03,0.42-0.05c0.86-0.99,1.91-1.78,3.11-2.31
					c-0.11-0.01-0.21-0.01-0.32-0.02c-1.2,0.71-2.45,1.34-3.73,1.88c0.12,0,0.24,0,0.35,0c0.9-0.9,1.9-1.69,2.99-2.35
					c0.19-0.12-0.28-0.05-0.37,0c-0.67,0.4-1.37,0.74-2.11,1.01c0.11,0,0.21,0,0.32,0c0.61-0.73,1.33-1.33,2.16-1.79
					c0.2-0.11-0.21-0.06-0.26-0.04c-0.63,0.21-1.26,0.42-1.89,0.63c0.11,0,0.21,0,0.32,0c0.28-0.37,0.6-0.64,1.02-0.84
					c0.29-0.14-0.17-0.09-0.27-0.04c-0.36,0.16-0.73,0.32-1.09,0.48c0.12-0.01,0.25-0.02,0.37-0.02c0.23-0.25,0.48-0.45,0.78-0.62
					C52.93,51.11,52.45,51.17,52.37,51.22L52.37,51.22z"/>
			</g>
		</g>
		<g>
			<g>
				<path class="st1" d="M57.12,57.19c-2.41,0.95-4.66,2.26-6.68,3.89c-0.02,0.02-0.03,0.05-0.01,0.07
					c0.23,0.21,0.58,0.14,0.86,0.05c0.49-0.15,0.97-0.39,1.44-0.59c1.02-0.44,2.03-0.91,3.02-1.41c0.28-0.14-0.16-0.13-0.28-0.07
					c-0.94,0.47-1.89,0.92-2.85,1.34c-0.27,0.12-0.54,0.23-0.81,0.35c-0.04,0.02-0.84,0.38-0.86,0.23
					c-0.02-0.14,0.42-0.37,0.53-0.46c0.2-0.15,0.4-0.3,0.6-0.44c1.61-1.15,3.36-2.09,5.2-2.82C57.61,57.19,57.31,57.12,57.12,57.19
					L57.12,57.19z"/>
			</g>
		</g>
		<g>
			<g>
				<path class="st1" d="M59.31,57.23c-2.38,1.05-4.62,2.35-6.71,3.89c-0.11,0.08,0.15,0.07,0.17,0.06
					c1.13-0.16,2.14-0.71,3.16-1.18c1.27-0.59,2.54-1.18,3.8-1.77c-0.09-0.02-0.18-0.04-0.28-0.05c-2.27,1.16-4.55,2.33-6.54,3.94
					c-0.02,0.02-0.03,0.04-0.01,0.06c0.28,0.31,0.71,0.24,1.07,0.13c0.74-0.21,1.44-0.61,2.14-0.92c1.68-0.76,3.35-1.55,5.02-2.36
					c0.29-0.14-0.17-0.1-0.28-0.05c-0.96,0.42-1.89,0.9-2.78,1.45c-0.66,0.41-1.54,0.85-1.75,1.66c-0.03,0.11,0.34,0,0.38-0.02
					c1.91-0.83,3.82-1.67,5.73-2.5c-0.09-0.02-0.18-0.04-0.28-0.05c-1.25,0.61-2.49,1.24-3.4,2.32c-0.06,0.07,0.35,0,0.38-0.02
					c1.67-0.71,3.35-1.41,5.02-2.12c-0.09-0.02-0.18-0.04-0.28-0.05c-1.2,0.61-2.24,1.43-3.08,2.49c-0.06,0.07,0.34,0,0.38-0.02
					c1.59-0.73,3.14-1.53,4.66-2.39c-0.12,0-0.25,0-0.37-0.01c-0.8,0.51-1.46,1.17-1.98,1.97c-0.05,0.08,0.25,0.03,0.26,0.02
					c1.38-0.43,2.61-1.12,3.65-2.12c0.09-0.09-0.35-0.04-0.44,0.04c-0.93,0.89-2.02,1.56-3.25,1.94c0.09,0.01,0.17,0.02,0.26,0.02
					c0.49-0.76,1.11-1.39,1.87-1.87c0.2-0.13-0.29-0.05-0.37-0.01c-1.49,0.85-3.01,1.63-4.56,2.34c0.13-0.01,0.25-0.01,0.38-0.02
					c0.79-0.98,1.75-1.78,2.88-2.35c0.29-0.14-0.17-0.1-0.28-0.05c-1.67,0.71-3.35,1.41-5.02,2.12c0.13-0.01,0.25-0.01,0.38-0.02
					c0.85-1.01,2.03-1.61,3.2-2.18c0.29-0.14-0.17-0.1-0.28-0.05c-1.91,0.83-3.82,1.67-5.73,2.5c0.13-0.01,0.25-0.01,0.38-0.02
					c0.22-0.83,1.15-1.27,1.83-1.68c0.8-0.48,1.64-0.91,2.5-1.28c-0.09-0.02-0.18-0.04-0.28-0.05c-1.16,0.56-2.32,1.11-3.48,1.65
					c-0.58,0.27-1.17,0.54-1.75,0.8c-0.18,0.08-2.12,1.01-2.16,0.69c-0.05-0.36,1.23-1.04,1.47-1.2c0.49-0.33,1-0.64,1.51-0.93
					c1.08-0.62,2.19-1.19,3.3-1.75c0.28-0.14-0.17-0.1-0.28-0.05c-1.04,0.48-2.09,0.97-3.13,1.45c-1.1,0.51-2.25,1.2-3.47,1.38
					c0.06,0.02,0.11,0.04,0.17,0.06c2.04-1.5,4.23-2.77,6.55-3.79C59.87,57.16,59.42,57.18,59.31,57.23L59.31,57.23z"/>
			</g>
		</g>
		<g>
			<g>
				<path class="st1" d="M53.74,49.47c1.3-0.21,2.6-0.37,3.91-0.47c0.64-0.05,1.28-0.09,1.93-0.1c0.66-0.02,1.31,0.01,1.9,0.33
					c0.12,0.06,0.5-0.14,0.46-0.16c-1.11-0.6-2.56-0.36-3.77-0.28c-1.45,0.1-2.9,0.27-4.34,0.51C53.65,49.33,53.4,49.52,53.74,49.47
					L53.74,49.47z"/>
			</g>
		</g>
		<g>
			<g>
				<path class="st1" d="M60.72,30.02c0.05-0.15,0.1-0.3,0.14-0.45c-0.16,0.02-0.32,0.05-0.48,0.07c-0.38,2.86-0.45,5.75-0.22,8.62
					c0.01,0.13,0.5,0.03,0.48-0.13c-0.23-2.85-0.16-5.72,0.21-8.56c0.02-0.16-0.44-0.06-0.48,0.07c-0.05,0.15-0.1,0.3-0.14,0.45
					C60.2,30.22,60.68,30.16,60.72,30.02L60.72,30.02z"/>
			</g>
		</g>
		<g>
			<g>
				<path class="st1" d="M45.32,39.08c-0.11,4.85-0.23,9.7-0.34,14.55c-0.01,0.23,0.48,0.14,0.49-0.05
					c0.11-4.85,0.23-9.7,0.34-14.55C45.82,38.81,45.33,38.89,45.32,39.08L45.32,39.08z"/>
			</g>
		</g>
		<g>
			<g>
				<path class="st1" d="M45.22,55.11c0,0.57,0,1.15,0,1.72c0,0.12,0.48,0.04,0.48-0.13c0-0.57,0-1.15,0-1.72
					C45.7,54.86,45.22,54.94,45.22,55.11L45.22,55.11z"/>
			</g>
		</g>
		<g>
			<g>
				<path class="st1" d="M29.56,20.81c-0.88-0.01-1.76,0.31-2.42,0.89c-0.16,0.14-0.3,0.29-0.43,0.46
					c-0.13,0.16-0.28,0.36-0.33,0.56c-0.12,0.45,0.41,0.58,0.74,0.6c0.62,0.05,1.25,0.07,1.87,0.1c0.1,0.01,0.26-0.04,0.32-0.13
					c0.06-0.1-0.05-0.15-0.13-0.15c-0.6-0.03-1.2-0.07-1.8-0.1c-0.16-0.01-0.4-0.02-0.5-0.17c-0.12-0.2,0.11-0.47,0.23-0.63
					c0.52-0.71,1.38-1.16,2.27-1.15c0.1,0,0.26-0.03,0.32-0.13C29.75,20.86,29.65,20.81,29.56,20.81L29.56,20.81z"/>
			</g>
		</g>
		<g>
			<g>
				<path class="st1" d="M32.52,21.13c0.39-0.23,0.83-0.36,1.28-0.36c0.42,0,0.94,0.07,1.27,0.34c0.45,0.35,0.07,0.81-0.24,1.11
					c-0.34,0.32-0.73,0.58-1.15,0.77c-0.06,0.03-0.2,0.1-0.13,0.18c0.06,0.08,0.25,0.02,0.32,0c0.42-0.18,0.81-0.41,1.16-0.71
					c0.3-0.25,0.73-0.61,0.75-1.03c0.02-0.41-0.41-0.63-0.74-0.74c-0.43-0.14-0.88-0.18-1.33-0.14c-0.52,0.05-1.03,0.21-1.48,0.48
					c-0.07,0.04-0.14,0.12-0.05,0.17C32.27,21.23,32.44,21.18,32.52,21.13L32.52,21.13z"/>
			</g>
		</g>
	</g>
</g>
</svg>
