<?xml version="1.0" encoding="utf-8"?>
<!-- Generator: Adobe Illustrator 24.2.0, SVG Export Plug-In . SVG Version: 6.00 Build 0)  -->
<svg version="1.1" id="Слой_1" xmlns="http://www.w3.org/2000/svg" xmlns:xlink="http://www.w3.org/1999/xlink" x="0px" y="0px"
	 viewBox="0 0 88 88" style="enable-background:new 0 0 88 88;" xml:space="preserve">
<style type="text/css">
	.st0{fill:#003974;}
	.st1{fill:#FFFFFF;}
	.st2{fill:#FFFFFF;stroke:#FFFFFF;stroke-width:0.5;stroke-miterlimit:10;}
	.st3{fill:none;stroke:#FFFFFF;stroke-width:0.75;stroke-miterlimit:10;}
</style>
<g>
	<circle class="st0" cx="44" cy="44" r="37.91"/>
	<g>
		<g>
			<g>
				<path class="st1" d="M33.86,21.67c-2.78,1.31-4.37,4.22-4.14,7.27c0.11,1.53,0.63,3.41,1.85,4.45c1.09,0.93,2.78,1.21,4.17,1.19
					c2.72-0.04,5.15-1.41,6.23-3.96c0.57-1.36,0.78-2.86,0.79-4.32c0.01-1.54-0.36-3-1.64-3.97c-1.21-0.91-2.8-1.25-4.28-1.34
					c-1.09-0.07-2.43,0.03-3.13,0.99c-0.02,0.02,0.39,0.02,0.47-0.09c0.83-1.14,2.8-0.75,4-0.48c1.09,0.25,2.2,0.7,2.98,1.52
					c0.94,0.98,1.13,2.31,1.11,3.61c-0.02,1.23-0.17,2.48-0.58,3.65c-0.4,1.17-1.06,2.25-2.04,3.02c-1.21,0.96-2.79,1.29-4.31,1.17
					c-1.33-0.11-2.84-0.48-3.72-1.55c-0.81-0.98-1.22-2.34-1.38-3.58c-0.39-3.04,1.06-6.19,3.89-7.53
					C34.42,21.58,33.97,21.62,33.86,21.67L33.86,21.67z"/>
			</g>
		</g>
		<g>
			<g>
				<path class="st1" d="M32.33,27.3c-0.41,1.47-0.05,3.12,0.98,4.25c1.02,1.13,2.59,1.65,4.08,1.46c0.24-0.03,0.39-0.33,0.06-0.29
					c-1.42,0.19-2.89-0.39-3.81-1.5c-0.91-1.09-1.21-2.62-0.83-3.98C32.87,27.06,32.38,27.13,32.33,27.3L32.33,27.3z"/>
			</g>
		</g>
		<g>
			<g>
				<path class="st1" d="M41.99,22.42c3.01-0.76,6.51-0.14,9.13,1.53c2.4,1.53,3.56,4.12,3.44,6.93c-0.11,2.67-1.19,5.31-2.86,7.37
					c-1.93,2.38-5.07,4.01-8.15,2.97c-1.5-0.51-2.76-1.54-3.82-2.7c-1.07-1.16-2.56-2.75-2.21-4.45c0.04-0.21-0.45-0.14-0.49,0.05
					c-0.33,1.64,0.93,3.09,1.92,4.24c0.98,1.13,2.11,2.17,3.47,2.81c2.77,1.33,5.98,0.56,8.27-1.38c4.23-3.57,6.51-11.56,1.6-15.54
					c-2.77-2.25-6.96-3-10.38-2.14C41.61,22.2,41.69,22.49,41.99,22.42L41.99,22.42z"/>
			</g>
		</g>
		<g>
			<g>
				<path class="st1" d="M39.38,34.19c0.69,2.86,3.46,4.91,6.38,4.87c0.26,0,0.38-0.32,0.05-0.32c-2.75,0.04-5.3-2.03-5.95-4.68
					C39.81,33.86,39.33,33.99,39.38,34.19L39.38,34.19z"/>
			</g>
		</g>
		<g>
			<g>
				<g>
					<path class="st1" d="M52.84,24.79c0.88-0.5,1.83-1.05,2.86-1.12c0.97-0.07,1.87,0.34,2.63,0.91c1.44,1.08,2.59,2.6,3.79,3.93
						c0.09,0.1,0.54-0.07,0.45-0.17c-0.77-0.85-1.53-1.71-2.31-2.55c-0.72-0.77-1.5-1.53-2.47-1.98c-1.82-0.85-3.63-0.01-5.24,0.9
						C52.28,24.86,52.72,24.86,52.84,24.79L52.84,24.79z"/>
				</g>
			</g>
		</g>
		<g>
			<g>
				<path class="st1" d="M57.17,33.9c0.5-1.86,1.14-4,3.08-4.81c1.02-0.43,2.17-0.45,3.26-0.39c1.09,0.06,2.28,0.25,3.04,1.13
					c0.71,0.83,1.16,2.04,1.38,3.1c0.26,1.25-0.01,2.42-0.76,3.45c-1.25,1.69-3.38,2.83-5.5,2.59c-2.11-0.24-4.01-2.01-4.17-4.17
					c-0.02-0.26-0.51-0.19-0.49,0.03c0.16,2.12,1.8,3.86,3.83,4.38c2.22,0.57,4.6-0.39,6.15-1.99c0.86-0.89,1.52-2.01,1.54-3.27
					c0.02-1.29-0.48-2.62-1.11-3.73c-0.61-1.06-1.57-1.59-2.75-1.79c-1.15-0.19-2.4-0.2-3.55,0.03c-1.26,0.25-2.34,0.92-3.06,2
					c-0.7,1.05-1.05,2.28-1.37,3.48C56.62,34.17,57.11,34.12,57.17,33.9L57.17,33.9z"/>
			</g>
		</g>
		<g>
			<g>
				<path class="st1" d="M58.86,33.49c0.27,1.84,1.89,3.28,3.73,3.43c0.1,0.01,0.27-0.04,0.32-0.13c0.06-0.1-0.05-0.13-0.13-0.13
					c-1.72-0.14-3.19-1.61-3.44-3.3C59.32,33.2,58.83,33.31,58.86,33.49L58.86,33.49z"/>
			</g>
		</g>
		<g>
			<g>
				<path class="st1" d="M61.78,39.32c0.05,0.6,0.14,1.2,0.14,1.8c0,0.34-0.02,0.86-0.4,1c-0.09,0.04-0.18,0.15-0.11,0.25
					c0.07,0.1,0.23,0.07,0.33,0.03c0.5-0.19,0.66-0.71,0.68-1.2c0.01-0.29-0.03-0.59-0.05-0.88c-0.03-0.38-0.06-0.75-0.09-1.13
					C62.25,38.97,61.76,39.09,61.78,39.32L61.78,39.32z"/>
			</g>
		</g>
		<g>
			<g>
				<path class="st1" d="M55.61,30.59c-0.13,0.21-0.03,0.44,0.18,0.56c0.26,0.15,0.56,0.08,0.84,0.14c0.47,0.1,0.84,0.5,0.95,0.96
					c0.03,0.13,0.52,0.01,0.48-0.13c-0.1-0.46-0.45-0.83-0.89-0.99c-0.12-0.04-0.24-0.07-0.36-0.08c-0.14-0.01-0.28-0.01-0.42-0.03
					c-0.11-0.02-0.21-0.07-0.28-0.16c-0.06-0.07-0.1-0.2-0.05-0.28c0.06-0.09-0.05-0.11-0.12-0.11
					C55.85,30.47,55.67,30.51,55.61,30.59L55.61,30.59z"/>
			</g>
		</g>
		<g>
			<g>
				<path class="st1" d="M67.29,35.61c1.75,1.53,1.42,4.43,0.84,6.43c-0.65,2.26-1.99,4.28-3.8,5.78c-0.1,0.08,0.35,0.04,0.44-0.04
					c1.88-1.55,3.26-3.66,3.9-6.01c0.55-2.01,0.82-4.8-0.91-6.32C67.65,35.36,67.22,35.55,67.29,35.61L67.29,35.61z"/>
			</g>
		</g>
		<g>
			<g>
				<path class="st1" d="M52.97,41.79c-0.25,0.11-0.34,0.41-0.06,0.56c0.39,0.2,0.87-0.3,1.16-0.48c1.33-0.79,2.99-0.78,4.44-0.35
					c1.56,0.46,2.85,1.33,3.55,2.82c0.54,1.15,0.72,2.45,0.56,3.71c-0.33,2.67-2.18,4.99-4.9,5.46c-2.65,0.45-5.4-0.8-6.55-3.28
					c-0.66-1.41-0.79-3.02-0.52-4.54c0.27-1.54,1-3.53,2.63-4.06c0.29-0.09,0.22-0.38-0.08-0.28c-2.71,0.89-3.46,4.64-3.08,7.12
					c0.43,2.81,2.48,4.93,5.3,5.37c2.56,0.39,5.21-0.64,6.62-2.85c1.46-2.27,1.53-5.44-0.02-7.68c-0.95-1.36-2.69-2.07-4.29-2.31
					c-0.8-0.12-1.61-0.1-2.4,0.07c-0.82,0.18-1.43,0.64-2.17,0.97C53.47,41.9,53.2,41.69,52.97,41.79L52.97,41.79z"/>
			</g>
		</g>
		<g>
			<g>
				<path class="st1" d="M39.42,39.54c-3.12,2.94-4.13,7.59-2.35,11.52c0.83,1.84,2.28,3.7,4.2,4.5c1.84,0.77,4.17,0.63,6.09,0.31
					c1.9-0.32,3.8-1.09,4.84-2.8c0.13-0.21-0.36-0.2-0.46-0.04c-0.95,1.56-2.68,2.25-4.42,2.53c-1.89,0.31-4.21,0.45-5.98-0.4
					c-1.74-0.84-3.08-2.59-3.84-4.33c-0.76-1.72-1.03-3.64-0.73-5.5c0.35-2.18,1.43-4.18,3.03-5.69
					C40.03,39.45,39.56,39.41,39.42,39.54L39.42,39.54z"/>
			</g>
		</g>
		<g>
			<g>
				<path class="st1" d="M51.04,39.34c0.71,0.87,1.42,1.74,2.13,2.61c0.15,0.18,0.6-0.02,0.44-0.22c-0.71-0.87-1.42-1.74-2.13-2.61
					C51.33,38.95,50.87,39.15,51.04,39.34L51.04,39.34z"/>
			</g>
		</g>
		<g>
			<g>
				<path class="st1" d="M46.91,55.99c1.91,3.39,6.04,4.97,9.79,4.36c3.94-0.64,7.35-3.46,8.56-7.28c0.71-2.23,0.68-4.64-0.08-6.85
					c-0.08-0.22-0.56-0.09-0.48,0.13c1.28,3.67,0.43,7.92-2.32,10.7c-2.68,2.72-6.83,3.81-10.45,2.5c-1.92-0.69-3.57-2-4.58-3.79
					C47.24,55.58,46.78,55.77,46.91,55.99L46.91,55.99z"/>
			</g>
		</g>
		<g>
			<g>
				<path class="st1" d="M24.84,37.43c2.05-0.41,4.07,1,4.68,2.94c0.64,2.06-0.13,4.29-1.66,5.73c-0.78,0.73-1.74,1.28-2.76,1.61
					c-1.16,0.38-2.23,0.26-3.18-0.53c-1.46-1.2-2.38-3.37-2.47-5.23c-0.14-2.72,2.13-3.97,4.32-4.89c0.31-0.13,0.03-0.27-0.19-0.18
					c-1.98,0.82-4.3,1.94-4.59,4.32c-0.27,2.16,0.87,4.92,2.6,6.25c1.8,1.38,4.18,0.52,5.86-0.66c1.88-1.32,3.1-3.55,2.71-5.89
					c-0.4-2.45-2.78-4.24-5.25-3.74C24.69,37.23,24.5,37.5,24.84,37.43L24.84,37.43z"/>
			</g>
		</g>
		<g>
			<g>
				<path class="st1" d="M26.6,35.79c-0.21-2.25,0.88-4.52,2.77-5.76c0.1-0.06,0.04-0.11-0.04-0.14c-0.1-0.04-0.26,0.04-0.34,0.09
					c-1.95,1.28-3.09,3.61-2.87,5.94C26.13,36.05,26.62,35.95,26.6,35.79L26.6,35.79z"/>
			</g>
		</g>
		<g>
			<g>
				<path class="st1" d="M30.27,41.73c0.82-1.17,2.51-1.5,3.83-1.7c1.53-0.24,3.08-0.2,4.6,0.09c0.13,0.03,0.56-0.19,0.3-0.24
					c-1.75-0.33-3.55-0.34-5.3,0c-1.36,0.26-3.03,0.65-3.87,1.86C29.72,41.9,30.19,41.84,30.27,41.73L30.27,41.73z"/>
			</g>
		</g>
		<g>
			<g>
				<path class="st1" d="M26.1,46.87c-1.25,4.61,1.12,9.43,5.52,11.27c0.11,0.05,0.55-0.13,0.39-0.19
					c-4.34-1.82-6.66-6.62-5.43-11.16C26.61,46.68,26.14,46.74,26.1,46.87L26.1,46.87z"/>
			</g>
		</g>
		<g>
			<g>
				<path class="st1" d="M31.68,58.24c0.66-2.56,3.63-3.13,5.89-2.62c0.99,0.22,1.97,0.69,2.6,1.51c0.64,0.84,0.82,2.05,1,3.07
					c0.17,0.99,0.25,2.07-0.13,3.03c-0.48,1.22-1.66,1.8-2.78,2.34c-1.14,0.55-2.36,1.1-3.67,0.96c-1.05-0.12-2.03-0.62-2.79-1.33
					c-1.88-1.78-2.01-4.7-0.74-6.86c0.11-0.18-0.37-0.13-0.45,0c-1.29,2.2-1.22,5.15,0.67,6.99c0.81,0.79,1.88,1.32,3,1.46
					c1.29,0.15,2.53-0.27,3.69-0.81c1.1-0.51,2.37-1.03,3.12-2.03c0.71-0.96,0.77-2.19,0.63-3.33c-0.14-1.17-0.35-2.61-1.06-3.59
					c-0.69-0.95-1.84-1.44-2.96-1.67c-2.45-0.49-5.8,0.19-6.51,2.97C31.16,58.47,31.64,58.4,31.68,58.24L31.68,58.24z"/>
			</g>
		</g>
		<g>
			<g>
				<path class="st1" d="M41.46,58.63c0.06-0.75,0.49-1.49,1.14-1.88c0.08-0.05,0.19-0.14,0.12-0.24c-0.07-0.09-0.24-0.08-0.33-0.03
					c-0.79,0.46-1.34,1.28-1.42,2.2C40.95,58.91,41.45,58.84,41.46,58.63L41.46,58.63z"/>
			</g>
		</g>
		<g>
			<g>
				<path class="st1" d="M40,65.13c2.16,1.87,5.24,2.42,7.95,1.6c3.23-0.98,4.92-3.79,6.41-6.6c0.11-0.22-0.37-0.18-0.45-0.02
					c-1.36,2.57-2.89,5.3-5.81,6.29c-2.59,0.87-5.58,0.34-7.65-1.46C40.31,64.81,39.86,65,40,65.13L40,65.13z"/>
			</g>
		</g>
		<g>
			<g>
				<path class="st1" d="M51.57,65.13c2.43,1.38,5.52,0.91,7.67-0.78c1.08-0.85,1.94-1.98,2.53-3.22c0.22-0.46,0.65-1.19,0.57-1.71
					c-0.06-0.39-0.4-0.52-0.71-0.3c-0.27,0.19,0.14,0.28,0.31,0.16c-0.13,0.09-0.12,0.57-0.18,0.75c-0.09,0.26-0.19,0.53-0.3,0.78
					c-0.2,0.46-0.44,0.91-0.71,1.34c-0.59,0.93-1.36,1.76-2.27,2.38c-1.92,1.3-4.48,1.52-6.52,0.36
					C51.8,64.8,51.36,65.02,51.57,65.13L51.57,65.13z"/>
			</g>
		</g>
		<g>
			<g>
				<path class="st1" d="M50.34,56.62c1.82,1.18,4.05,1.61,6.18,1.2c0.07-0.01,0.27-0.06,0.28-0.16c0-0.1-0.13-0.1-0.2-0.09
					c-2,0.38-4.1-0.03-5.81-1.14C50.66,56.35,50.23,56.55,50.34,56.62L50.34,56.62z"/>
			</g>
		</g>
		<g>
			<g>
				<path class="st1" d="M32.12,60.42c-0.12,1.08,0.27,2.21,1.06,2.96c0.79,0.76,1.92,1.11,3,0.98c0.09-0.01,0.26-0.07,0.27-0.18
					c0.01-0.11-0.13-0.14-0.22-0.13c-0.99,0.12-2-0.24-2.7-0.96c-0.7-0.72-1.04-1.73-0.93-2.72C32.63,60.15,32.14,60.22,32.12,60.42
					L32.12,60.42z"/>
			</g>
		</g>
		<g>
			<g>
				<path class="st1" d="M37.77,47.61c1.16,3.77,5.03,6.36,8.95,6.08c0.16-0.01,0.52-0.27,0.2-0.24c-3.81,0.28-7.54-2.32-8.67-5.96
					C38.21,47.33,37.73,47.47,37.77,47.61L37.77,47.61z"/>
			</g>
		</g>
		<g>
			<g>
				<path class="st1" d="M52.27,47.01c-0.02,1.44,0.58,2.84,1.66,3.79c1.08,0.95,2.58,1.38,4,1.18c0.27-0.04,0.37-0.4,0.04-0.35
					c-1.32,0.18-2.67-0.22-3.67-1.11c-1-0.89-1.56-2.22-1.55-3.55C52.77,46.72,52.28,46.79,52.27,47.01L52.27,47.01z"/>
			</g>
		</g>
		<g>
			<g>
				<path class="st1" d="M21.65,41.31c-0.49,0.99-0.13,2.15,0.55,2.95c0.78,0.92,1.96,1.39,3.05,1.83c0.12,0.05,0.55-0.13,0.39-0.2
					c-1.05-0.43-2.17-0.88-2.94-1.75c-0.69-0.77-1.05-1.94-0.57-2.91C22.18,41.14,21.72,41.18,21.65,41.31L21.65,41.31z"/>
			</g>
		</g>
		<g>
			<g>
				<path class="st1" d="M41.5,62.92c1.48,0.99,3.45,1.1,5.05,0.33c0.3-0.14,0.03-0.37-0.21-0.26c-1.43,0.69-3.15,0.55-4.47-0.33
					C41.72,62.55,41.29,62.78,41.5,62.92L41.5,62.92z"/>
			</g>
		</g>
	</g>
</g>
</svg>
