<?xml version="1.0" encoding="utf-8"?>
<!-- Generator: Adobe Illustrator 24.2.0, SVG Export Plug-In . SVG Version: 6.00 Build 0)  -->
<svg version="1.1" id="Слой_1" xmlns="http://www.w3.org/2000/svg" xmlns:xlink="http://www.w3.org/1999/xlink" x="0px" y="0px"
	 viewBox="0 0 88 88" style="enable-background:new 0 0 88 88;" xml:space="preserve">
<style type="text/css">
	.st0{fill:#003974;}
	.st1{fill:#FFFFFF;}
	.st2{fill:#FFFFFF;stroke:#FFFFFF;stroke-width:0.5;stroke-miterlimit:10;}
	.st3{fill:none;stroke:#FFFFFF;stroke-width:0.75;stroke-miterlimit:10;}
</style>
<g>
	<circle class="st0" cx="44" cy="44" r="37.91"/>
	<g>
		<g>
			<g>
				<path class="st1" d="M44.3,13.33c-2.27,3.38-2.82,7.93-0.98,11.63c1.68,3.38,5.08,5.7,8.83,6.06c0.28,0.03,0.77-0.37,0.28-0.42
					c-3.67-0.35-7.02-2.82-8.54-6.16c-1.62-3.58-1.08-7.86,1.08-11.08C45.17,13.07,44.44,13.12,44.3,13.33L44.3,13.33z"/>
			</g>
		</g>
		<g>
			<g>
				<path class="st1" d="M44.07,13.72c-2.66,0.6-5.39,1.43-7.55,3.15c-2.17,1.72-3.43,4.28-3.47,7.05
					c-0.04,2.76,1.12,5.38,3.04,7.34c1.89,1.93,4.57,3.44,7.29,3.64c3.41,0.25,6.36-1.8,8.88-3.83c0.38-0.31-0.19-0.59-0.49-0.35
					c-2.13,1.71-4.56,3.52-7.4,3.65c-2.66,0.12-5.38-1.32-7.28-3.08c-1.86-1.72-3.12-4.07-3.29-6.62c-0.18-2.61,0.75-5.23,2.7-7
					c2.12-1.93,4.97-2.79,7.71-3.4C44.67,14.14,44.52,13.62,44.07,13.72L44.07,13.72z"/>
			</g>
		</g>
		<g>
			<g>
				<path class="st1" d="M44.07,15.17c1.84,0.26,3.64,0.44,5.22,1.5c1.25,0.83,2.24,2.04,2.79,3.44c0.59,1.5,0.62,3.15,0.51,4.74
					c-0.14,1.95-0.58,3.86-1.24,5.7c-0.1,0.28,0.63,0.2,0.73-0.07c0.7-1.99,1.17-4.06,1.26-6.16c0.08-1.66-0.02-3.33-0.74-4.85
					c-0.65-1.38-1.69-2.53-2.99-3.33c-1.62-1-3.44-1.17-5.29-1.43C44.02,14.66,43.58,15.11,44.07,15.17L44.07,15.17z"/>
			</g>
		</g>
		<g>
			<g>
				<path class="st1" d="M37.08,23.94c0.79,0,1.59,0,2.38,0c0.17,0,0.37-0.04,0.51-0.14c0.11-0.07,0.1-0.16-0.04-0.16
					c-0.79,0-1.59,0-2.38,0c-0.17,0-0.37,0.04-0.51,0.14C36.93,23.85,36.93,23.94,37.08,23.94L37.08,23.94z"/>
			</g>
		</g>
		<g>
			<g>
				<path class="st1" d="M41.43,29.78c1.19,0.06,2.38,0.12,3.57,0.18c0.15,0.01,0.4-0.06,0.48-0.2c0.09-0.15-0.07-0.2-0.19-0.21
					c-1.19-0.06-2.38-0.12-3.57-0.18c-0.15-0.01-0.4,0.06-0.48,0.2C41.15,29.72,41.31,29.78,41.43,29.78L41.43,29.78z"/>
			</g>
		</g>
		<g>
			<g>
				<path class="st1" d="M41.35,34.83c-0.11,0.91-0.07,1.85,0.13,2.74c0.07,0.32,0.8,0.13,0.72-0.19c-0.19-0.86-0.23-1.74-0.12-2.61
					C42.13,34.42,41.39,34.53,41.35,34.83L41.35,34.83z"/>
			</g>
		</g>
		<g>
			<g>
				<path class="st1" d="M45.45,34.92c0.13,0.03,0.27,0.01,0.39-0.03c0.09-0.03,0.24-0.08,0.29-0.18c0.05-0.11-0.02-0.19-0.13-0.22
					c-0.2-0.05-0.52,0.05-0.65,0.21c-0.1,0.13-0.07,0.33-0.07,0.48c-0.02,0.82,0,1.64,0.05,2.46c0.01,0.16,0.74,0.03,0.72-0.19
					C46.02,36.96,46,36.48,46,35.99c0-0.24,0-0.48,0-0.71c0-0.11,0-0.23,0.01-0.34c0-0.07-0.02-0.23,0.03-0.29
					c-0.04,0.03-0.08,0.05-0.12,0.08c0.01,0,0.02-0.01,0.02-0.01c-0.12,0.03-0.24,0.07-0.37,0.1c0.01,0,0.01,0,0.02,0
					c-0.06-0.01-0.13-0.02-0.19-0.03c0.02,0.01,0.02,0.03,0.01,0.05c0.05-0.04,0.1-0.08,0.15-0.12c0,0-0.01,0-0.01,0.01
					c0.17-0.03,0.34-0.06,0.51-0.09c-0.01,0-0.01,0-0.02,0c-0.16-0.04-0.36,0.01-0.51,0.09C45.46,34.74,45.28,34.88,45.45,34.92
					L45.45,34.92z"/>
			</g>
		</g>
		<g>
			<g>
				<path class="st1" d="M43.7,37.92c-1.95-0.47-5.01-0.88-6.05,1.41c-0.54,1.18-0.24,2.76-0.21,4.01c0.03,1.56,0.04,3.11,0.03,4.67
					c-0.03,3.2-0.22,6.39-0.36,9.59c-0.06,1.44-0.06,2.88,0.14,4.31c0.21,1.44,0.57,2.86,0.8,4.29c0.49,3.11,0.63,6.31,1.95,9.22
					c0.11,0.24,0.82,0.02,0.72-0.19c-1.07-2.36-1.37-4.93-1.7-7.47c-0.34-2.61-1.09-5.18-1.21-7.81c-0.12-2.83,0.21-5.69,0.3-8.52
					c0.09-2.8,0.1-5.61,0.04-8.41c-0.03-1.31-0.42-3.18,0.52-4.26c1.15-1.31,3.12-0.81,4.58-0.46
					C43.48,38.35,44.11,38.01,43.7,37.92L43.7,37.92z"/>
			</g>
		</g>
		<g>
			<g>
				<path class="st1" d="M43.26,38.14c0.3,4.94,0.37,9.9,0.18,14.84c-0.18,4.88-0.65,9.75-1.16,14.61
					c-0.28,2.74-0.62,5.48-1.23,8.17c-0.05,0.24,0.67,0.13,0.72-0.1c1.08-4.8,1.42-9.77,1.86-14.66c0.43-4.88,0.66-9.78,0.63-14.69
					c-0.02-2.79-0.11-5.58-0.28-8.37C43.97,37.74,43.25,37.88,43.26,38.14L43.26,38.14z"/>
			</g>
		</g>
		<g>
			<g>
				<path class="st1" d="M41.8,74.91c-1.5-0.24-3.03-0.07-4.45,0.47c-0.14,0.05-0.27,0.24-0.17,0.38c0.11,0.16,0.35,0.11,0.49,0.06
					c1.23-0.47,2.58-0.58,3.88-0.37c0.17,0.03,0.4-0.06,0.47-0.22C42.1,75.05,41.96,74.94,41.8,74.91L41.8,74.91z"/>
			</g>
		</g>
		<g>
			<g>
				<path class="st1" d="M36.63,55.97c2.05,0.45,4.07-0.03,6.1-0.35c1.16-0.18,2.32-0.25,3.5-0.26c0.43,0,3.23-0.2,3.27,0.25
					c0.02,0.24,0.75,0.08,0.72-0.19c-0.07-0.75-1.82-0.47-2.26-0.47c-1.17,0-2.33-0.01-3.5,0.07c-2.46,0.19-4.93,1.1-7.4,0.56
					C36.84,55.52,36.22,55.88,36.63,55.97L36.63,55.97z"/>
			</g>
		</g>
		<g>
			<g>
				<path class="st1" d="M37.26,44.44c-1,0.1-1.97,0.48-2.75,1.11c-0.7,0.56-1.39,1.41-1.29,2.36c0.1,1.02,1.05,1.32,1.91,1.49
					c0.49,0.09,1.01,0.19,1.42,0.51c0.41,0.32,0.64,0.86,0.41,1.36c-0.09,0.2,0.62,0.13,0.72-0.1c0.36-0.8-0.29-1.55-0.99-1.84
					c-0.75-0.32-1.84-0.21-2.43-0.85c-0.69-0.75-0.18-1.82,0.41-2.45c0.66-0.69,1.54-1.11,2.49-1.21c0.11-0.01,0.41-0.09,0.41-0.24
					C37.58,44.42,37.37,44.43,37.26,44.44L37.26,44.44z"/>
			</g>
		</g>
		<g>
			<g>
				<path class="st1" d="M37.28,40.08c-2.79,1.2-6.17,2.66-7.48,5.64c-0.59,1.35-0.62,2.97,0.53,4.04c1.02,0.95,2.5,1.22,3.85,1.25
					c0.97,0.02,2.24,0.03,2.45,1.24c0.2,1.15-0.75,2.03-1.52,2.73c-0.32,0.29,0.39,0.33,0.59,0.15c0.69-0.63,1.46-1.33,1.65-2.29
					c0.17-0.87-0.2-1.69-1.03-2.04c-0.83-0.35-1.78-0.19-2.65-0.28c-1-0.11-2.06-0.42-2.77-1.16c-1.71-1.77-0.28-4.37,1.18-5.75
					c1.55-1.47,3.57-2.33,5.51-3.17C38.04,40.22,37.62,39.93,37.28,40.08L37.28,40.08z"/>
			</g>
		</g>
		<g>
			<g>
				<path class="st1" d="M44.61,37.85c1.09,0.07,2.21,0.23,3.25,0.59c1.1,0.38,1.09,1.26,1.2,2.27c0.24,2.2,0.36,4.42,0.37,6.63
					c0.2-0.09,0.4-0.17,0.59-0.26c-1.08-0.16-2.21-0.29-3.24,0.14c-0.76,0.32-1.54,1-1.54,1.89c0,0.98,0.94,1.68,1.77,2.01
					c0.95,0.38,2.01,0.37,2.98,0.08c-0.13-0.01-0.27-0.03-0.4-0.04c-0.03,1.28,0.06,2.55,0.25,3.82c0.03,0.18,0.76,0.02,0.72-0.19
					c-0.19-1.27-0.27-2.54-0.25-3.82c0-0.12-0.36-0.05-0.4-0.04c-1.3,0.38-3.33-0.06-3.86-1.5c-0.24-0.66,0.05-1.33,0.58-1.75
					c0.81-0.65,1.98-0.41,2.92-0.27c0.15,0.02,0.59-0.06,0.59-0.26c-0.01-2.46-0.13-4.93-0.46-7.37c-0.13-0.99-0.5-1.42-1.47-1.71
					c-1.03-0.31-2.09-0.48-3.16-0.55C44.89,37.51,44.23,37.83,44.61,37.85L44.61,37.85z"/>
			</g>
		</g>
		<g>
			<g>
				<path class="st1" d="M44.3,55.6c1.68-0.17,3.37-0.24,5.06-0.22c0.14,0,0.4-0.05,0.48-0.19c0.09-0.14-0.07-0.17-0.18-0.17
					c-1.75-0.03-3.5,0.05-5.24,0.23c-0.11,0.01-0.4,0.09-0.42,0.22C43.97,55.63,44.21,55.61,44.3,55.6L44.3,55.6z"/>
			</g>
		</g>
		<g>
			<g>
				<path class="st1" d="M44.21,42.05c0.51-0.08,1.01-0.17,1.52-0.25c0.12-0.02,0.23-0.04,0.35-0.06c-0.08,0.01,0.02,0,0.03,0
					c0.04,0,0.04,0,0.01,0c0.02,0,0.04,0,0.06,0.01c0.1,0.01,0.21,0.06,0.22,0.21c0.01,0.19,0.74,0.05,0.72-0.19
					c-0.02-0.45-0.75-0.4-1.04-0.35c-0.59,0.1-1.18,0.19-1.77,0.29c-0.12,0.02-0.38,0.08-0.42,0.23
					C43.87,42.08,44.13,42.06,44.21,42.05L44.21,42.05z"/>
			</g>
		</g>
		<g>
			<g>
				<path class="st1" d="M44.71,43.91c0.76-0.03,1.52-0.06,2.28-0.1c0.15-0.01,0.38-0.11,0.4-0.29c0.02-0.18-0.2-0.23-0.33-0.23
					c-0.76,0.03-1.52,0.06-2.28,0.1c-0.15,0.01-0.38,0.11-0.4,0.29C44.36,43.87,44.57,43.91,44.71,43.91L44.71,43.91z"/>
			</g>
		</g>
		<g>
			<g>
				<path class="st1" d="M49.94,39.76c0.45-0.09,0.96,0.15,1.29,0.44c0.4,0.36,0.56,0.91,0.48,1.43c-0.13,0.88-0.89,1.91-1.88,1.84
					c-0.17-0.01-0.38,0.02-0.51,0.14c-0.1,0.09-0.1,0.21,0.06,0.22c1.06,0.08,2.16-0.45,2.71-1.37c0.55-0.92,0.49-2.15-0.49-2.75
					c-0.53-0.32-1.14-0.39-1.74-0.26c-0.09,0.02-0.36,0.12-0.32,0.25C49.58,39.84,49.86,39.77,49.94,39.76L49.94,39.76z"/>
			</g>
		</g>
		<g>
			<g>
				<path class="st1" d="M52.12,41.32c0.88-0.06,1.77-0.06,2.65,0.01c0.77,0.06,1.65,0.33,2.32-0.18c0.13-0.1-0.12-0.11-0.17-0.1
					c-0.17,0.01-0.35,0.07-0.49,0.17c0.16-0.03,0.18-0.04,0.07-0.04c-0.03,0-0.05,0-0.08,0c-0.09-0.01-0.18-0.02-0.26-0.03
					c-0.17-0.02-0.34-0.04-0.52-0.06c-0.35-0.03-0.7-0.06-1.06-0.07c-0.72-0.03-1.44-0.01-2.16,0.04c-0.14,0.01-0.4,0.05-0.49,0.17
					C51.87,41.33,52.04,41.32,52.12,41.32L52.12,41.32z"/>
			</g>
		</g>
		<g>
			<g>
				<path class="st1" d="M58.23,39.58c-0.51-0.14-1.07,0.09-1.36,0.52c-0.27,0.39-0.34,0.92-0.4,1.38
					c-0.07,0.47-0.04,0.96,0.22,1.38c0.26,0.41,0.73,0.58,1.2,0.6c0.97,0.03,2.09-0.31,2.63-1.18c0.22-0.36,0.31-0.82,0.18-1.23
					c-0.13-0.41-0.45-0.73-0.81-0.96c-0.47-0.3-1.05-0.54-1.62-0.46c-0.52,0.07-1.06,0.41-1.14,0.97c-0.05,0.36,0.69,0.25,0.73-0.06
					c0.09-0.73,1.05-0.3,1.42-0.07c0.52,0.32,0.91,0.87,0.66,1.5c-0.25,0.61-0.87,0.89-1.49,0.95c-0.31,0.03-0.65,0.05-0.91-0.15
					c-0.24-0.2-0.35-0.53-0.37-0.83c-0.03-0.41,0.07-0.85,0.17-1.25c0.04-0.18,0.2-0.71,0.47-0.63c0.17,0.05,0.39,0,0.51-0.14
					C58.42,39.79,58.39,39.62,58.23,39.58L58.23,39.58z"/>
			</g>
		</g>
		<g>
			<g>
				<path class="st1" d="M58.8,32.99c-0.13,0.5-0.1,1.04-0.12,1.56c-0.02,0.6-0.04,1.19-0.07,1.79c-0.04,1.19-0.09,2.39-0.13,3.58
					c0,0.13,0.72,0.03,0.72-0.19c0.04-1.15,0.08-2.3,0.13-3.45c0.02-0.55,0.04-1.1,0.06-1.65c0.02-0.58-0.02-1.2,0.12-1.76
					C59.56,32.69,58.84,32.79,58.8,32.99L58.8,32.99z"/>
			</g>
		</g>
		<g>
			<g>
				<path class="st1" d="M55.79,30.68c-0.09,0.59-0.13,1.19-0.12,1.79c0.01,0.25-0.01,0.49,0.29,0.53c0.29,0.04,0.6,0.02,0.89,0.03
					c1.26,0.04,2.52,0.08,3.79,0.12c0.1,0,0.57-0.09,0.51-0.28c-0.41-1.32-0.63-2.69-0.65-4.08c0-0.19-0.7-0.04-0.72,0.15
					c-0.01,0.09-0.02,0.18-0.02,0.27c-0.02,0.25,0.7,0.1,0.72-0.11c0.01-0.09,0.02-0.18,0.02-0.27c-0.24,0.05-0.48,0.1-0.72,0.15
					c0.02,1.38,0.24,2.75,0.65,4.08c0.17-0.09,0.34-0.18,0.51-0.28c-1.1-0.03-2.21-0.07-3.31-0.1c-0.27-0.01-0.54-0.02-0.8-0.03
					c-0.09,0-0.34,0.03-0.4-0.04c-0.05-0.06-0.02-0.28-0.02-0.35c-0.02-0.57,0.02-1.14,0.11-1.7
					C56.55,30.33,55.82,30.46,55.79,30.68L55.79,30.68z"/>
			</g>
		</g>
		<g>
			<g>
				<path class="st1" d="M57.86,29.59c0,1.08,0,2.17,0,3.25c0,0.16,0.19,0.18,0.32,0.16c0.11-0.01,0.41-0.1,0.41-0.25
					c0-1.08,0-2.17,0-3.25c0-0.16-0.19-0.18-0.32-0.16C58.17,29.35,57.86,29.43,57.86,29.59L57.86,29.59z"/>
			</g>
		</g>
		<g>
			<g>
				<path class="st1" d="M49.01,22.7c-0.24,0.03-0.54,0.16-0.6,0.42c-0.02,0.07-0.02,0.15,0,0.22c0.01,0.03,0.02,0.05,0.03,0.07
					c0.02,0.03,0.04,0.07,0.07,0.09c0.05,0.04,0.1,0.05,0.16,0.06c0.08,0.01,0.16,0,0.23-0.02c0.08-0.02,0.17-0.04,0.24-0.08
					c0.09-0.05,0.17-0.12,0.21-0.22c0.02-0.06,0.03-0.13,0.02-0.18c0-0.02-0.01-0.04-0.02-0.06c-0.03-0.05-0.05-0.07-0.11-0.09
					c-0.05-0.02-0.12-0.02-0.17-0.02c-0.1,0-0.21,0.03-0.3,0.06c-0.09,0.04-0.18,0.08-0.24,0.16c-0.06,0.06-0.09,0.15-0.06,0.24
					c0.02,0.05,0.09,0.07,0.13,0.08c0.08,0.01,0.19,0,0.27-0.03c0.08-0.02,0.18-0.05,0.24-0.11c0.04-0.03,0.09-0.08,0.08-0.13
					c-0.01-0.02-0.01-0.04-0.01-0.05c0,0.01,0,0.03,0,0.04c0-0.03,0.01-0.05,0.02-0.07c-0.01,0.01-0.02,0.03-0.03,0.04
					c0.01-0.01,0.02-0.02,0.03-0.03c-0.02,0.01-0.03,0.03-0.05,0.04c0.01,0,0.01-0.01,0.02-0.01c-0.02,0.01-0.04,0.03-0.07,0.04
					c0,0,0.01-0.01,0.01-0.01c-0.03,0.01-0.06,0.03-0.08,0.04c0,0,0.01,0,0.01,0c-0.03,0.01-0.06,0.02-0.09,0.03c0,0,0.01,0,0.01,0
					c-0.03,0.01-0.07,0.01-0.1,0.02c0,0,0,0,0,0c-0.03,0-0.06,0.01-0.09,0.01c0,0,0.01,0,0.01,0c-0.03,0-0.05,0-0.08,0
					c0,0,0.01,0,0.01,0c-0.02,0-0.04-0.01-0.06-0.01c0,0,0.01,0,0.01,0.01c-0.02-0.01-0.03-0.02-0.05-0.03
					c0.01,0.01,0.02,0.02,0.03,0.03c-0.01-0.01-0.02-0.02-0.02-0.04c0.02,0.04,0.03,0.08,0.02,0.12c0-0.01,0-0.03,0-0.04
					c0,0.04-0.01,0.08-0.03,0.12c0.01-0.01,0.02-0.03,0.03-0.04c-0.01,0.01-0.02,0.03-0.03,0.04c0.02-0.01,0.03-0.03,0.05-0.04
					c0,0-0.01,0.01-0.02,0.01c0.02-0.01,0.04-0.03,0.07-0.04c0,0-0.01,0-0.01,0c0.03-0.01,0.06-0.03,0.08-0.04c0,0-0.01,0-0.01,0
					c0.03-0.01,0.06-0.02,0.09-0.03c0,0-0.01,0-0.01,0c0.03-0.01,0.07-0.01,0.1-0.02c0,0,0,0,0,0c0.03,0,0.06-0.01,0.09-0.01
					c0,0-0.01,0-0.01,0c0.03,0,0.05,0,0.08,0c-0.01,0-0.01,0-0.02,0c0.02,0,0.04,0.01,0.06,0.01c-0.01,0-0.02-0.01-0.02-0.01
					c0.02,0.01,0.03,0.02,0.05,0.03c-0.02-0.01-0.04-0.03-0.05-0.05c0.01,0.01,0.02,0.02,0.02,0.04c-0.04-0.06-0.05-0.13-0.05-0.2
					c0,0.01,0,0.03,0,0.04c0-0.05,0.02-0.1,0.05-0.15c-0.01,0.01-0.02,0.03-0.03,0.04c0.01-0.02,0.03-0.04,0.05-0.06
					c-0.02,0.01-0.03,0.03-0.05,0.04c0.01-0.01,0.02-0.02,0.03-0.02c-0.02,0.01-0.04,0.03-0.07,0.04c0.01-0.01,0.02-0.01,0.03-0.01
					c-0.03,0.01-0.06,0.03-0.08,0.04c0.01,0,0.01,0,0.02-0.01c-0.03,0.01-0.06,0.02-0.09,0.03c0.01,0,0.01,0,0.02,0
					c-0.03,0.01-0.07,0.01-0.1,0.02c0,0,0.01,0,0.01,0c0.09-0.01,0.19-0.04,0.28-0.09c0.03-0.02,0.07-0.04,0.09-0.07
					c0.02-0.02,0.04-0.04,0.05-0.07c0-0.01,0-0.03,0-0.04c-0.01-0.03-0.04-0.05-0.07-0.06C49.17,22.68,49.08,22.68,49.01,22.7
					L49.01,22.7z"/>
			</g>
		</g>
		<g>
			<g>
				<path class="st1" d="M48.03,55.33c-0.29,2.73-0.5,5.46-0.63,8.2c-0.02,0.37,0.72,0.26,0.73-0.06c0.13-2.74,0.34-5.47,0.63-8.2
					C48.81,54.91,48.07,55.02,48.03,55.33L48.03,55.33z"/>
			</g>
		</g>
		<g>
			<g>
				<path class="st1" d="M47.55,66.54c-0.1,1.32-0.21,2.64-0.31,3.95c-0.09,1.08-0.23,2.2,0.05,3.26c0.22,0.85,0.78,1.76,1.7,1.95
					c0.7,0.14,1.63-0.16,1.92-0.86c0.07-0.16-0.63-0.09-0.72,0.12c-0.45,1.08-1.6-0.07-1.9-0.65c-0.37-0.72-0.45-1.55-0.43-2.35
					c0.03-1.87,0.27-3.75,0.42-5.61C48.29,66.21,47.57,66.3,47.55,66.54L47.55,66.54z"/>
			</g>
		</g>
		<g>
			<g>
				<path class="st1" d="M47.86,69.01c-0.49-0.25-1.09-0.16-1.57,0.06c-0.46,0.21-0.77,0.59-0.97,1.04
					c-0.19,0.44-0.29,0.96-0.11,1.42c0.15,0.4,0.49,0.67,0.89,0.82c0.52,0.19,1.12,0.13,1.61-0.12c0.08-0.04,0.23-0.16,0.08-0.22
					c-0.15-0.06-0.38,0.02-0.51,0.08c-0.01,0-0.09,0.03-0.04,0.02c-0.04,0.01-0.03,0.01-0.05,0.01c-0.08,0-0.16,0-0.25-0.01
					c-0.18-0.03-0.35-0.09-0.5-0.19c-0.38-0.23-0.58-0.62-0.59-1.06c-0.01-0.45,0.17-0.96,0.44-1.31c0.24-0.31,0.52-0.48,0.89-0.3
					c0.14,0.07,0.33,0.03,0.47-0.03C47.69,69.23,47.99,69.08,47.86,69.01L47.86,69.01z"/>
			</g>
		</g>
		<g>
			<g>
				<path class="st1" d="M47.44,63.86c-0.23-0.1-0.52,0.01-0.69,0.18c-0.13,0.13-0.18,0.3-0.24,0.47c-0.09,0.28-0.16,0.58-0.16,0.88
					c0,0.29,0.06,0.59,0.25,0.83c0.22,0.27,0.57,0.41,0.91,0.41c0.81,0.01,1.44-0.52,1.81-1.19c0.1-0.18,0.18-0.38,0.16-0.59
					c-0.02-0.18-0.12-0.33-0.23-0.47c-0.21-0.27-0.44-0.54-0.74-0.71c-0.35-0.2-0.76-0.24-1.14-0.11c-0.35,0.12-0.71,0.38-0.74,0.77
					c-0.03,0.35,0.7,0.24,0.73-0.07c0-0.05,0.01-0.08,0.02-0.11c0.01-0.02,0.02-0.03,0.03-0.05c0.04-0.08-0.02,0.02,0.01-0.02
					c0.02-0.02,0.03-0.04,0.05-0.05c-0.01,0.01-0.04,0.03,0.01,0c0.05-0.04,0.01-0.01,0,0c0.01-0.01,0.11-0.05,0.07-0.03
					c-0.06,0.02,0.04-0.01,0.04-0.01c0.02-0.01,0.07-0.01-0.01,0c0.02,0,0.04,0,0.06-0.01c0.09-0.01-0.06-0.01,0.03,0
					c0.02,0,0.04,0,0.06,0.01c-0.05-0.01,0,0,0.01,0c0.06,0.02,0.11,0.03,0.17,0.06c0.22,0.12,0.39,0.3,0.55,0.49
					c0.16,0.19,0.35,0.38,0.27,0.64c-0.07,0.22-0.23,0.44-0.38,0.62c-0.08,0.09-0.14,0.15-0.23,0.21c-0.09,0.06-0.17,0.1-0.24,0.12
					c0.01,0-0.11,0.02-0.06,0.01c0.05-0.01-0.07,0.01-0.06,0c-0.01,0-0.07,0-0.02,0c-0.03,0-0.06,0-0.09-0.01
					c-0.02,0-0.07-0.01-0.11-0.03c-0.05-0.02-0.1-0.04-0.14-0.08c-0.15-0.11-0.23-0.27-0.27-0.45c-0.05-0.23-0.02-0.47,0.02-0.7
					c0.02-0.13,0.06-0.25,0.1-0.38c0.01-0.04,0.03-0.09,0.04-0.13c0.01-0.03,0.02-0.06,0.04-0.08c0.08-0.15,0,0.16-0.29,0.04
					c0.16,0.07,0.4-0.01,0.51-0.14C47.65,64.05,47.59,63.93,47.44,63.86L47.44,63.86z"/>
			</g>
		</g>
		<g>
			<g>
				<path class="st1" d="M45.27,55.25c-0.18,0.86-0.23,1.73-0.17,2.6c0.06,0.77,0.17,1.63,0.56,2.32c0.32,0.58,0.87,0.92,1.54,0.85
					c0.53-0.06,1.25-0.39,1.25-1.01c0-0.33-0.73-0.18-0.73,0.08c0,0.4-0.38,0.58-0.73,0.45c-0.51-0.2-0.76-0.8-0.89-1.28
					c-0.37-1.32-0.38-2.74-0.1-4.09C46.06,54.87,45.33,54.97,45.27,55.25L45.27,55.25z"/>
			</g>
		</g>
		<g>
			<g>
				<path class="st1" d="M48.52,47.24c0.09,1.33,0.17,2.67,0.26,4c0.02,0.25,0.74,0.09,0.72-0.19c-0.09-1.33-0.17-2.67-0.26-4
					C49.22,46.8,48.5,46.95,48.52,47.24L48.52,47.24z"/>
			</g>
		</g>
		<g>
			<g>
				<path class="st1" d="M49.65,53.34c0.04-0.36-0.26-0.59-0.58-0.66c-0.44-0.09-0.87,0.11-1.24,0.33c-0.28,0.16-0.55,0.3-0.88,0.32
					c-0.31,0.02-0.63-0.08-0.87-0.29c-0.13-0.11-0.34-0.08-0.48-0.01c-0.08,0.03-0.32,0.19-0.19,0.3c0.55,0.48,1.35,0.51,2.02,0.31
					c0.37-0.11,0.66-0.31,1-0.48c0.12-0.06,0.18-0.09,0.3-0.03c0.12,0.06,0.21,0.17,0.19,0.3C48.89,53.73,49.62,53.6,49.65,53.34
					L49.65,53.34z"/>
			</g>
		</g>
		<ellipse class="st3" cx="48.91" cy="23.21" rx="2.35" ry="2.31"/>
		<g>
			<g>
				<g>
					<path class="st1" d="M49.31,25.49c-0.08-0.07-0.1-0.17-0.08-0.27c-0.24,0.05-0.48,0.11-0.72,0.16c0,1.52,0,3.04,0,4.55
						c0,0.12,0.72,0.02,0.72-0.19c0-1.52,0-3.04,0-4.55c0-0.13-0.69,0.01-0.72,0.16c-0.03,0.16-0.01,0.28,0.11,0.39
						C48.76,25.87,49.42,25.6,49.31,25.49L49.31,25.49z"/>
				</g>
			</g>
			<g>
				<g>
					<path class="st1" d="M49.31,16.22c-0.08-0.07-0.1-0.17-0.08-0.27c-0.24,0.05-0.48,0.11-0.72,0.16c0,1.52,0,3.04,0,4.56
						c0,0.12,0.72,0.02,0.72-0.19c0-1.52,0-3.04,0-4.56c0-0.13-0.69,0.01-0.72,0.16c-0.03,0.16-0.01,0.28,0.11,0.39
						C48.76,16.6,49.42,16.33,49.31,16.22L49.31,16.22z"/>
				</g>
			</g>
		</g>
		<g>
			<g>
				<path class="st1" d="M51.02,23.2c0,0.02-0.01,0.04-0.01,0.05c-0.02,0.04-0.04,0.04,0.05-0.03c0.05-0.02,0.1-0.05,0.15-0.07
					c0,0,0,0-0.01,0c0.09-0.02,0.19-0.04,0.28-0.06c0,0,0,0-0.01,0c0.05,0,0.09,0,0.14,0.01c0.03,0.02,0.04,0.02,0.02,0
					c-0.19,0.09-0.38,0.18-0.58,0.27c0.39,0,0.77,0,1.16,0c0.17,0,0.37-0.04,0.51-0.14c0.03-0.02,0.1-0.06,0.08-0.11
					c-0.01-0.05-0.09-0.05-0.13-0.05c-0.39,0-0.77,0-1.16,0c-0.15,0-0.31,0.03-0.44,0.1c-0.05,0.03-0.2,0.1-0.13,0.17
					c0.05,0.05,0.15,0.04,0.21,0.04c0.12-0.01,0.23-0.04,0.34-0.08c0.11-0.05,0.21-0.11,0.24-0.23c0.03-0.13-0.23-0.08-0.29-0.07
					c-0.09,0.02-0.19,0.04-0.28,0.09C51.12,23.11,51.03,23.14,51.02,23.2L51.02,23.2z"/>
			</g>
		</g>
		<g>
			<g>
				<path class="st1" d="M43.09,23.2c0.15-0.04,0.29-0.08,0.44-0.11c-0.18,0.1-0.35,0.19-0.53,0.29c1,0,2,0,3.01,0
					c0.17,0,0.37-0.04,0.51-0.14c0.11-0.07,0.1-0.16-0.04-0.16c-1,0-2,0-3.01,0c-0.16,0-0.34,0.04-0.48,0.12
					c-0.07,0.04-0.19,0.13-0.05,0.17c0.28,0.09,0.71-0.05,0.87-0.29c0.07-0.11-0.26-0.08-0.29-0.07
					C43.38,23.02,43.17,23.07,43.09,23.2L43.09,23.2z"/>
			</g>
		</g>
	</g>
</g>
</svg>
