<?xml version="1.0"?>
<svg xmlns="http://www.w3.org/2000/svg" id="Layer_1" data-name="Layer 1" viewBox="0 0 512 512" width="512" height="512"><title>Tram</title><path d="M144,254a17,17,0,0,0-17-17H65a17,17,0,0,0-17,17v39a17,17,0,0,0,17,17h62a17,17,0,0,0,17-17Zm-14,39a3,3,0,0,1-3,3H65a3,3,0,0,1-3-3V254a3,3,0,0,1,3-3h62a3,3,0,0,1,3,3Z"/><path d="M355,254a17,17,0,0,0-17-17H316a17,17,0,0,0-17,17v39a17,17,0,0,0,17,17h22a17,17,0,0,0,17-17Zm-14,39a3,3,0,0,1-3,3H316a3,3,0,0,1-3-3V254a3,3,0,0,1,3-3h22a3,3,0,0,1,3,3Z"/><path d="M493.028,406H18.972a7,7,0,1,0,0,14H493.028a7,7,0,0,0,0-14Z"/><path d="M152.405,371h13.857c3.343,19,20.632,35,41.405,35s38.062-16,41.405-35h13.856c3.343,19,20.632,35,41.405,35s38.062-16,41.4-35H359.6c3.343,19,20.632,35,41.4,35s38.062-16,41.4-35h20.768a32.342,32.342,0,0,0,32.091-32.341,7.836,7.836,0,0,0-.341-2.282L446.007,185.5A26.761,26.761,0,0,0,420.32,167H258.781l-43.923-23.888L283.724,107H310a7,7,0,0,0,0-14H234a7,7,0,0,0,0,14h19.578l-56.829,29.551A6.809,6.809,0,0,0,193,142.572a7.3,7.3,0,0,0,3.655,6.39L229.478,167H44.866A26.494,26.494,0,0,0,18,193.5v150C18,358.388,29.979,371,44.866,371H69.6c3.343,19,20.632,35,41.405,35S149.062,390,152.405,371ZM270,357H234V251h36Zm-50,0H184V251h36Zm-12.333,35a28.121,28.121,0,0,1-27.114-21h54.228A28.121,28.121,0,0,1,207.667,392Zm96.666,0a28.121,28.121,0,0,1-27.114-21h54.228A28.121,28.121,0,0,1,304.333,392ZM401,392a28.121,28.121,0,0,1-27.114-21h54.228A28.121,28.121,0,0,1,401,392Zm63.746-103h-55.88C401.7,289,396,282.668,396,275.5v-42c0-7.168,5.7-12.5,12.866-12.5h33.862ZM32,343.5v-150c0-7.168,5.7-12.5,12.866-12.5H420.32a12.966,12.966,0,0,1,12.368,9l5.506,17H408.866A26.494,26.494,0,0,0,382,233.5v42c0,14.888,11.979,27.5,26.866,27.5h60.413l11.956,36.926A18.113,18.113,0,0,1,463.173,357H284V243.5c0-3.866-3.134-6.5-7-6.5H177c-3.866,0-7,2.634-7,6.5V357H44.866C37.7,357,32,350.668,32,343.5ZM111,392a28.121,28.121,0,0,1-27.114-21h54.228A28.121,28.121,0,0,1,111,392Z"/></svg>
