<svg fill="#fff" xmlns="http://www.w3.org/2000/svg" width="70" height="50" viewBox="0 0 511.99 511.99"><path d="M479.992 175.992H319.994v-21.328c0-5.891-4.766-10.672-10.671-10.672h-26.874L200.325 41.338c-3.688-4.601-10.391-5.351-15-1.672-4.594 3.68-5.344 10.398-1.656 14.992l71.467 89.334h-26.015L146.982 41.338c-3.672-4.601-10.375-5.351-14.984-1.672-4.594 3.68-5.344 10.398-1.672 14.992l71.467 89.334h-20.467c-5.875 0-10.656 4.781-10.656 10.672v21.328H32c-17.641 0-32 14.359-32 32v181.325c0 17.656 14.359 31.999 32 31.999h10.671c0 29.406 23.921 53.344 53.327 53.344s53.327-23.938 53.327-53.344h191.996c0 29.406 23.938 53.344 53.343 53.344 29.405 0 53.327-23.938 53.327-53.344h32c17.64 0 31.999-14.343 31.999-31.999V207.993c.001-17.642-14.358-32.001-31.998-32.001zm-255.995-10.664h74.672v10.664h-106.67v-10.664h31.998zM47.14 399.988H32c-5.891 0-10.672-4.781-10.672-10.672h32.031a52.641 52.641 0 00-6.219 10.672zm48.859 53.327c-17.64 0-32-14.344-32-32 0-17.64 14.359-31.999 32-31.999s32 14.359 32 31.999c-.001 17.657-14.36 32-32 32zm74.67-149.324h-42.671v-64h42.671v64zm63.999 95.997h-42.671v-74.671h42.671v74.671zm0-95.997h-42.671v-64h42.671v64zm63.999 95.997h-42.671v-74.671h42.671v74.671zm0-95.998h-42.671v-64h42.671v64zm95.998 149.325c-17.655 0-31.999-14.344-31.999-32 0-17.64 14.344-31.999 31.999-31.999 17.64 0 31.999 14.359 31.999 31.999 0 17.657-14.359 32-31.999 32zm95.998-106.654H469.32c-5.875 0-10.656 4.766-10.656 10.656s4.781 10.672 10.656 10.672h21.343v21.327c0 5.891-4.78 10.672-10.671 10.672h-36.469c-8.234-18.812-27.047-31.999-48.858-31.999-21.827 0-40.624 13.188-48.874 31.999h-25.797v-74.671H490.663v21.344zM319.994 303.99v-64h42.672v64h-42.672zm64 .001v-64h106.669v64H383.994zm106.67-85.328H53.328c-5.875 0-10.656 4.773-10.656 10.664v85.334c0 5.891 4.781 10.656 10.656 10.656h117.341v74.671h-25.812c-8.25-18.812-27.031-31.999-48.858-31.999h-74.67V207.992c0-5.875 4.781-10.664 10.672-10.664H479.993c5.891 0 10.671 4.789 10.671 10.664v10.671zM106.67 239.99v64H63.999v-64h42.671z"/><path d="M88.452 413.784c-4.156 4.156-4.156 10.906 0 15.078a10.666 10.666 0 0015.094 0c4.156-4.172 4.156-10.922 0-15.078a10.668 10.668 0 00-15.094 0zM387.118 413.784c-4.171 4.156-4.171 10.906 0 15.078 4.172 4.172 10.922 4.172 15.078 0 4.172-4.172 4.172-10.922 0-15.078-4.156-4.171-10.906-4.171-15.078 0z"/></svg>
