<?xml version="1.0" encoding="iso-8859-1"?>
<!-- Generator: Adobe Illustrator 17.1.0, SVG Export Plug-In . SVG Version: 6.00 Build 0)  -->
<!DOCTYPE svg PUBLIC "-//W3C//DTD SVG 1.1//EN" "http://www.w3.org/Graphics/SVG/1.1/DTD/svg11.dtd">
<svg version="1.1" id="Capa_1" xmlns="http://www.w3.org/2000/svg" xmlns:xlink="http://www.w3.org/1999/xlink" x="0px" y="0px"
	 viewBox="0 0 448 448" style="enable-background:new 0 0 448 448;" xml:space="preserve">
<g>
	<path d="M95.721,331.434c-4.418,0-8,3.582-8,8c0,4.241-3.448,7.691-7.687,7.691c-4.241,0-7.691-3.45-7.691-7.691
		c0-4.24,3.45-7.689,7.691-7.689c4.418,0,8-3.582,8-8s-3.582-8-8-8c-13.063,0-23.691,10.627-23.691,23.689
		c0,13.063,10.628,23.691,23.691,23.691c13.061,0,23.687-10.628,23.687-23.691C103.721,335.016,100.14,331.434,95.721,331.434z"/>
	<path d="M384.091,331.434c-4.418,0-8,3.582-8,8c0,4.241-3.448,7.691-7.687,7.691c-4.241,0-7.691-3.45-7.691-7.691
		c0-4.24,3.45-7.689,7.691-7.689c4.418,0,8-3.582,8-8s-3.582-8-8-8c-13.063,0-23.691,10.627-23.691,23.689
		c0,13.063,10.628,23.691,23.691,23.691c13.061,0,23.687-10.628,23.687-23.691C392.091,335.016,388.51,331.434,384.091,331.434z"/>
	<path d="M416,147.364H312.326c-0.164-13.094-10.861-23.697-23.992-23.697h-20.186l-60.782-60.782
		c-3.124-3.124-8.189-3.124-11.313,0c-3.125,3.125-3.125,8.19,0,11.314l49.468,49.468h-25.748L158.99,62.885
		c-3.124-3.124-8.189-3.124-11.313,0c-3.125,3.125-3.125,8.19,0,11.314l49.468,49.468h-36.811
		c-13.132,0-23.828,10.603-23.992,23.697H32c-17.645,0-32,14.355-32,32v130.812c0,21.896,18.541,32.275,32.48,35.886
		c3.24,23.354,23.326,41.396,47.558,41.396c20.739,0,38.446-13.221,45.147-31.678h198.066c6.703,18.457,24.414,31.678,45.157,31.678
		c20.739,0,38.446-13.221,45.147-31.678H440c4.418,0,8-3.582,8-8V179.364C448,161.719,433.645,147.364,416,147.364z M432,259.153
		h-31.629c-4.5,0-8.162-3.661-8.162-8.162v-63.377H432V259.153z M160.333,139.667h128c4.309,0,7.823,3.427,7.985,7.697H152.349
		C152.51,143.094,156.025,139.667,160.333,139.667z M80.038,371.458c-17.041,0-31.012-13.38-31.97-30.185
		c0.068-0.292,0.125-0.588,0.162-0.893c0.114-0.955,0.046-1.888-0.163-2.773c0.949-16.81,14.924-30.197,31.971-30.197
		c17.653,0,32.015,14.365,32.015,32.021C112.053,357.091,97.691,371.458,80.038,371.458z M176.583,187.614h87.688v71.539h-87.688
		V187.614z M160.583,259.153H56.173c-4.5,0-8.162-3.661-8.162-8.162v-63.377h112.572V259.153z M352.629,187.614v63.708
		c0,4.318-3.513,7.831-7.831,7.831h-64.527v-71.539H352.629z M264.271,275.153v64.627h-87.688v-64.627H264.271z M368.408,371.458
		c-17.659,0-32.026-14.367-32.026-32.026c0-17.656,14.367-32.021,32.026-32.021c17.653,0,32.015,14.365,32.015,32.021
		C400.423,357.091,386.061,371.458,368.408,371.458z M416.414,339.78c0.001-0.117,0.009-0.231,0.009-0.348
		c0-26.479-21.54-48.021-48.015-48.021c-26.481,0-48.026,21.542-48.026,48.021c0,0.117,0.008,0.232,0.009,0.348h-40.12v-64.627
		h64.527c13.141,0,23.831-10.69,23.831-23.831v-71.708c0-4.418-3.582-8-8-8H40.011c-4.418,0-8,3.582-8,8v71.377
		c0,13.323,10.839,24.162,24.162,24.162h104.41v64.627h-32.54c0.001-0.117,0.009-0.231,0.009-0.348
		c0-26.479-21.54-48.021-48.015-48.021c-23.082,0-42.408,16.368-46.991,38.104C25.667,327.005,16,321.55,16,310.176V179.364
		c0-8.823,7.178-16,16-16h384c6.011,0,11.253,3.336,13.987,8.25h-45.779c-4.418,0-8,3.582-8,8v71.377
		c0,13.323,10.839,24.162,24.162,24.162H432v8.294h-7.789c-4.418,0-8,3.582-8,8s3.582,8,8,8H432v40.333H416.414z"/>
</g>
<g>
</g>
<g>
</g>
<g>
</g>
<g>
</g>
<g>
</g>
<g>
</g>
<g>
</g>
<g>
</g>
<g>
</g>
<g>
</g>
<g>
</g>
<g>
</g>
<g>
</g>
<g>
</g>
<g>
</g>
</svg>
