<?xml version="1.0" encoding="utf-8"?>
<!-- Generator: Adobe Illustrator 24.2.0, SVG Export Plug-In . SVG Version: 6.00 Build 0)  -->
<svg version="1.1" id="Слой_1" xmlns="http://www.w3.org/2000/svg" xmlns:xlink="http://www.w3.org/1999/xlink" x="0px" y="0px"
	 viewBox="0 0 105 88" style="enable-background:new 0 0 105 88;" xml:space="preserve">
<style type="text/css">
	.st0{fill:#003974;}
	.st1{fill:#FFFFFF;}
</style>

<g>
	<g>
		<g>
			<g>
				<path class="st0" d="M65.57,46.86c-0.07,0.22-0.29,0.38-0.44,0.57c-0.22,0.27-0.38,0.57-0.37,0.93c0.02,0.76,0.7,1.28,1.37,1.49
					c0.61,0.19,1.35,0.14,1.9,0.5c0.65,0.43,0.32,1.12,0,1.66c-0.18,0.31,0.16,0.53,0.43,0.56c0.35,0.03,0.76-0.12,0.95-0.43
					c0.39-0.66,0.72-1.45,0.23-2.15c-0.43-0.61-1.23-0.8-1.92-0.91c-0.54-0.09-1.38-0.2-1.48-0.89c-0.03-0.26,0.11-0.4,0.27-0.57
					c0.24-0.27,0.44-0.54,0.55-0.89c0.1-0.34-0.44-0.45-0.66-0.43C66.03,46.34,65.67,46.52,65.57,46.86L65.57,46.86z"/>
			</g>
		</g>
		<g>
			<g>
				<g>
					<g>
						<path class="st0" d="M59.29,20.94c-1.24-0.36-2.54-0.54-3.72,0.12c-0.39,0.22-0.77,0.53-0.96,0.95
							c-0.3,0.67,0.04,1.09,0.27,1.71c0.33,0.88,0.09,1.84-0.13,2.73c-0.09,0.37-0.19,0.73-0.34,1.08c-0.07,0.17-0.15,0.35-0.25,0.5
							c-0.3,0.48-1.02,0.87-1.61,0.62c-1.26-0.54-0.75-2.84-0.69-3.79c0.17-2.49-3.39-0.78-4,0.51c-0.24,0.51-0.33,1.11-0.18,1.65
							c0.08,0.32,0.28,0.58,0.41,0.87c0.29,0.63,0.04,1.19-0.72,1.19c-1.55-0.01-2.88-2.12-3.4-3.31c-0.41-0.95-0.39-2.54-1.72-2.57
							c-0.86-0.02-1.8,0.42-2.21,1.2c-0.69,1.29,0.2,2.51,1.05,3.44c0.58,0.64,1.21,1.26,1.56,2.07c0.32,0.74,0.49,2.27-0.54,2.41
							c-1.01,0.13-1.8-1.45-2.84-1.67c-0.85-0.18-2.01,0.14-2.52,0.88c-0.77,1.11,0.18,2.13,1.3,2.24c0.97,0.09,1.73-0.05,1.94,1.1
							c0.14,0.77-0.16,1.57-0.56,2.22c-0.71,1.14-2.08,1.89-3.25,0.87c-0.58-0.51-0.74-1.35-1.44-1.75
							c-0.88-0.51-2.2-0.19-2.99,0.34c-1,0.67-1.21,1.92-0.25,2.74c0.88,0.74,2.08,0.59,3.03,0.12c0.86-0.42-0.47-0.45-0.85-0.26
							c-0.58,0.28-1.34-0.92-1.38-1.35c-0.05-0.54,0.14-0.84,0.63-0.98c0.65-0.19,0.8,0.15,1.18,0.7c0.73,1.04,1.4,1.63,2.73,1.64
							c2.05,0.01,4.08-1.49,4.54-3.52c0.18-0.82,0.1-1.84-0.69-2.3c-0.48-0.28-0.92-0.15-1.43-0.22c-0.56-0.08-1.23-0.26-1.34-0.88
							c-0.17-0.96,0.62-0.84,1.11-0.45c0.73,0.58,1.34,1.33,2.32,1.42c0.77,0.07,1.65-0.23,2.21-0.75c2.51-2.34-1.38-4.6-2.16-6.55
							c-0.13-0.32-0.39-1.48,0.05-1.73c0.56-0.32,0.74,1.19,0.85,1.5c0.42,1.17,1.1,2.32,2.06,3.12c1.19,0.99,4.27,1.81,5.24,0
							c0.52-0.96-0.7-1.93-0.54-2.98c0.08-0.54,1.1-2.13,1.33-0.89c0.1,0.52-0.19,1.27-0.18,1.83c0.01,1.11,0.36,2.35,1.53,2.72
							c0.95,0.3,2.13-0.06,2.91-0.64c1.18-0.87,1.59-2.53,1.76-3.92c0.08-0.7,0-1.21-0.27-1.85c-0.17-0.4-0.37-0.64-0.22-1.13
							c0.32-1,1.42-0.58,2.13-0.37C58.48,21.65,59.77,21.08,59.29,20.94L59.29,20.94z"/>
					</g>
				</g>
				<g>
					<g>
						<path class="st0" d="M58.31,22.28c0.19,0.79,0.19,1.58-0.04,2.36c-0.25,0.82-0.82,1.44-1.21,2.18
							c-0.52,0.97-0.64,2.42,0.54,2.96c1.11,0.5,2.51-0.19,3.15-1.14c0.31-0.45,0.36-0.97,0.58-1.46c0.16-0.35,0.24-0.32,0.5-0.03
							c0.3,0.34,0.32,0.81,0.19,1.23c-0.35,1.16-2.13,2.09-1.25,3.45c0.68,1.05,2.17,1.2,3.29,0.97c1.25-0.25,2.4-0.97,3.12-2.03
							c0.36-0.53,0.44-1.2,0.78-1.72c0.59-0.91,1.41,0.8,1.55,1.3c0.1,0.38,0.2,0.9-0.06,1.24c-0.19,0.25-0.48,0.25-0.78,0.28
							c-0.74,0.08-1.46,0.12-2.13,0.47c-1.28,0.66-1.8,2.06-2.19,3.36c-0.18,0.6,1.29,0.42,1.46-0.14c0.18-0.62,0.39-1.24,0.73-1.8
							c0.4-0.65,0.87-0.85,1.61-0.92c1.13-0.11,2.56-0.34,2.87-1.65c0.28-1.19-0.5-2.83-1.67-3.24c-1.41-0.5-2.55,0.35-3.02,1.64
							c-0.46,1.26-1.49,2.5-2.98,2.36c-0.54-0.05-1.23-0.39-1.34-0.98c-0.14-0.75,0.82-1.4,1.16-1.99c0.64-1.12,0.47-2.63-0.95-2.99
							c-1.28-0.32-2.12,0.63-2.47,1.72c-0.14,0.45-0.68,1.75-1.33,1.11c-0.57-0.56-0.22-1.5,0.11-2.08c0.44-0.75,0.95-1.4,1.2-2.24
							c0.25-0.85,0.24-1.75,0.03-2.61C59.62,21.31,58.16,21.68,58.31,22.28L58.31,22.28z"/>
					</g>
				</g>
				<g>
					<g>
						<path class="st0" d="M35.8,40.21c1.34,0.1,3.06,0.34,3.54,1.83c0.23,0.7,0.13,1.49-0.29,2.1c-0.5,0.73-1.19,0.87-2.01,0.9
							c-0.9,0.04-2.42,0.33-2.4,1.51c0.02,1.26,1.52,1.4,2.44,1.09c0.53-0.18,0.93-0.5,1.29-0.91c0.12-0.13,0.37-0.58,0.55-0.61
							c0.25-0.04,0.72,0.67,0.81,0.86c0.69,1.41,0.04,2.96-1.22,3.76c-1.09,0.7-2.4,1.19-3.08,2.36c-0.6,1.02-0.42,2.26,0.86,2.52
							c1.3,0.27,2.61-0.44,3.45-1.4c1.02-1.17,1.34-2.84,2.58-3.83c0.25-0.2,0.13-0.41-0.13-0.49c-0.32-0.1-0.78,0.07-1.02,0.27
							c-0.98,0.79-1.45,1.91-2.05,2.99c-0.31,0.56-0.7,1.15-1.25,1.51c-0.87,0.57-1.5-0.29-1.27-1.14c0.36-1.34,1.97-1.83,3-2.52
							c1-0.67,1.77-1.61,1.84-2.86c0.07-1.07-0.36-2.31-1.45-2.72c-0.95-0.36-1.97,0.12-2.6,0.83c-0.15,0.17-0.35,0.55-0.55,0.63
							c-0.47,0.19-0.82-0.32-0.77-0.72c0.08-0.57,1.1-0.34,1.54-0.41c1.13-0.18,2.29-0.79,2.89-1.8c0.63-1.08,0.51-2.55-0.44-3.41
							c-0.99-0.9-2.44-1.03-3.71-1.12C35.83,39.37,34.83,40.13,35.8,40.21L35.8,40.21z"/>
					</g>
				</g>
				<g>
					<g>
						<path class="st0" d="M42.63,50.45c0.18-0.37-0.19,0.44-0.76,0.16c0.04,0.02,0.1,0.01,0.15,0.04c0.1,0.05,0.22,0.09,0.32,0.15
							c0.25,0.15,0.48,0.33,0.71,0.51c0.45,0.36,0.88,0.79,1.09,1.34c0.48,1.3-0.65,2.26-1.55,3c-0.47,0.4-0.96,0.83-1.25,1.39
							c-0.24,0.46-0.48,1.33-0.24,1.84c0.21,0.44,1.25,0.29,1.63,0.22c0.63-0.12,1.26-0.37,1.77-0.78c0.56-0.45,0.91-1.09,1.19-1.74
							c0.33-0.75,0.62-1.52,0.93-2.28c0.09-0.22-0.49-0.12-0.57-0.1c-0.2,0.04-0.76,0.14-0.85,0.37c-0.27,0.66-0.53,1.32-0.8,1.97
							c-0.24,0.57-0.49,1.15-0.9,1.63c-0.13,0.15-0.42,0.42-0.56,0.47c0.13-0.04-0.17-0.02-0.24-0.06c-0.2-0.09-0.2-0.29-0.21-0.49
							c-0.04-0.67,0.19-1.3,0.61-1.82c0.76-0.93,1.99-1.46,2.45-2.63c0.44-1.12-0.24-2.09-1.09-2.78c-0.42-0.34-0.88-0.72-1.43-0.79
							c-0.55-0.07-1.55,0.1-1.82,0.65c-0.11,0.22,0.5,0.12,0.57,0.1C41.99,50.78,42.51,50.69,42.63,50.45L42.63,50.45z"/>
					</g>
				</g>
				<g>
					<g>
						<path class="st0" d="M47.2,54.71c0.25-0.84,1.12-0.33,1.43,0.21c0.46,0.81,0.33,1.89,0.12,2.75
							c-0.21,0.89-0.61,1.71-1.14,2.45c-0.46,0.64-1.06,1.34-1.04,2.18c0.03,1.42,1.72,1.69,2.78,1.23c1.59-0.7,1.63-2.46,1.71-3.96
							c0.08-1.37,0.46-4.5,2.49-4.24c1.99,0.25,0.97,2.61,0.94,3.84c-0.03,1.46,1.35,2.72,2.85,2.45c1.61-0.28,1.45-2.69,0.91-3.79
							c-0.35-0.71-1.28-1.6-1.06-2.46c0.21-0.85,1.63-1.11,2.36-0.99c0.98,0.17,1.19,1.5,1.43,2.29c0.35,1.16,0.7,2.33,1.05,3.49
							c0.21,0.69,1.65,0.29,1.45-0.39c-0.29-0.97-0.58-1.94-0.87-2.91c-0.23-0.77-0.41-1.6-0.79-2.31
							c-0.76-1.41-2.37-1.45-3.77-1.08c-1.18,0.31-2.47,1.14-2.33,2.52c0.07,0.74,0.55,1.36,0.93,1.97
							c0.44,0.72,0.91,2.16,0.18,2.87c0.16-0.1,0.31-0.19,0.47-0.29c-0.53,0.12-1.17-0.59-1.28-1.02c-0.15-0.56,0.04-1.19,0.14-1.75
							c0.18-0.99,0.25-2.04-0.53-2.8c-1.66-1.62-4.22-0.47-5.23,1.27c-0.67,1.16-0.77,2.53-0.83,3.84c-0.03,0.58-0.03,1.2-0.23,1.76
							c-0.16,0.44-0.8,1.24-1.21,0.53c-0.32-0.56,0.32-1.29,0.63-1.72c0.38-0.52,0.73-1.06,0.99-1.65c0.48-1.09,0.77-2.36,0.61-3.55
							c-0.16-1.14-0.88-2.13-2.07-2.28c-0.98-0.12-2.18,0.33-2.47,1.34C45.57,55.34,47.01,55.35,47.2,54.71L47.2,54.71z"/>
					</g>
				</g>
				<g>
					<g>
						<path class="st0" d="M62.92,60.05c0.26,1.39,2.47,0.93,3.14,0.18c1.03-1.14,0.21-2.81-0.52-3.87
							c-0.79-1.14-2.33-2.52-2.1-4.05c0.11-0.77,0.55-0.99,1.19-0.61c0.28,0.16,0.52,0.42,0.7,0.69c0.23,0.34,0.31,0.74,0.52,1.08
							c0.43,0.69,1.34,0.79,2.09,0.8c0.43,0.01,0.99-0.06,1.29-0.41c0.31-0.37-0.08-0.58-0.44-0.59c-0.3-0.01-0.79,0.11-0.96,0.39
							c-0.18,0.29,0.15,0.38,0.38,0.39c0.02,0,0.05,0,0.07,0c-0.13-0.04-0.26-0.07-0.39-0.11c0.02,0.02,0.03,0.05,0.05,0.07
							c-0.02-0.06-0.03-0.12-0.05-0.18c0.02-0.02,0.04-0.04,0.07-0.06c0.16-0.08,0.32-0.16,0.49-0.23c0.03-0.01,0.31,0,0.13-0.03
							c-0.08-0.01-0.17,0-0.26-0.01c-0.12-0.01-0.24-0.02-0.36-0.04c-0.35-0.08-0.62-0.25-0.78-0.58c-0.27-0.56-0.45-1.09-0.93-1.51
							c-0.97-0.85-2.54-0.8-3.54-0.02c-1.1,0.86-0.78,2.28-0.15,3.33c0.67,1.1,1.63,2.02,2.18,3.19c0.28,0.61,0.49,1.35,0.22,2.01
							c-0.02,0.04-0.22,0.34-0.22,0.35c-0.05-0.12,0.35,0.09,0.03-0.06c-0.23-0.11-0.36-0.23-0.41-0.49
							C64.29,59.2,62.83,59.55,62.92,60.05L62.92,60.05z"/>
					</g>
				</g>
				<g>
					<g>
						<path class="st0" d="M67.03,46.43c0.14-0.49,0.66-0.53,1.1-0.55c0.58-0.02,1.17,0.1,1.71,0.32c0.56,0.23,1.07,0.56,1.5,0.99
							c0.39,0.39,0.7,0.9,1.23,1.12c1.19,0.5,2.45-0.42,2.69-1.58c0.22-1.1-0.05-2.42-1.13-2.96c-1.34-0.67-3.14-0.08-4.51,0.17
							c-0.25,0.05-0.77,0.16-0.83,0.48c-0.06,0.31,0.44,0.31,0.62,0.28c0.68-0.12,1.36-0.26,2.05-0.37c0.49-0.07,1-0.12,1.46,0.09
							c1,0.46,1.14,1.96,0.79,2.87c-0.04,0.1-0.08,0.19-0.14,0.28c-0.02,0.03-0.08,0.09-0.09,0.12c-0.01,0.01-0.01,0.01-0.02,0.02
							c-0.11,0.09-0.01,0.07,0.3-0.07c-0.02-0.04-0.18-0.09-0.21-0.12c-0.11-0.08-0.2-0.18-0.29-0.28
							c-0.38-0.41-0.72-0.82-1.18-1.14c-0.92-0.64-2-0.99-3.12-1.02c-1.12-0.03-3.02,0.24-3.37,1.52
							C65.46,47.11,66.9,46.9,67.03,46.43L67.03,46.43z"/>
					</g>
				</g>
			</g>
			<g>
				<g>
					<path class="st0" d="M65.39,35.27c-1.07,0.91-1.02,2.59,0.17,3.39c1.28,0.86,3.02,0.5,4.13-0.47c0.27-0.23,0.51-0.49,0.72-0.77
						c0.06-0.08,0.11-0.16,0.16-0.23c0.08-0.11,0.21-0.16-0.05-0.09c-0.29,0.08-0.13-0.01-0.09,0.11c0.03,0.08,0.1,0.15,0.13,0.24
						c0.13,0.32,0.16,0.73,0.18,1.07c0.03,0.39,0.02,0.84-0.18,1.19c-0.11,0.18-0.19,0.28-0.39,0.28c-0.37,0-0.74-0.18-1.1-0.23
						c-0.86-0.13-1.63,0.19-2.27,0.74c-0.65,0.56-1.13,1.35-0.79,2.22c0.32,0.82,1.24,1.23,2.08,1.09c0.32-0.05,0.76-0.21,0.8-0.6
						c0.03-0.35-0.38-0.54-0.67-0.49c-0.55,0.09-0.94-0.45-0.82-0.98c0.11-0.46,0.71-0.98,1.19-0.9c0.68,0.11,1.3,0.37,2,0.17
						c0.68-0.19,1.25-0.71,1.49-1.38c0.25-0.71,0.17-1.5,0.03-2.23c-0.12-0.66-0.53-1.24-1.24-1.34c-1.5-0.2-1.76,1.71-3.1,1.97
						c-0.56,0.11-1.16-0.12-1.48-0.59c-0.27-0.4-0.33-1.14,0.07-1.48c0.24-0.21,0.37-0.55,0.07-0.77
						C66.15,34.98,65.65,35.05,65.39,35.27L65.39,35.27z"/>
				</g>
			</g>
		</g>
	</g>
	<g>
		<g>
			<g>
				<path class="st0" d="M32.88,24.26c-7.98,8.16-9.91,22.07-3.79,31.88c2.39,3.83,5.54,7.26,9.32,9.74
					c4.79,3.14,10.74,4.31,16.4,4.41c6,0.11,12.78-1.17,16.97-5.83c0.86-0.96-1.24-0.99-1.76-0.41c-3.51,3.91-8.98,4.98-14.03,4.95
					c-5.25-0.04-10.78-1.06-15.3-3.84c-3.7-2.28-6.77-5.58-9.15-9.19c-2.19-3.32-3.27-7.06-3.67-11.03
					c-0.74-7.36,1.55-14.92,6.76-20.25C35.54,23.75,33.42,23.71,32.88,24.26L32.88,24.26z"/>
			</g>
		</g>
		<g>
			<g>
				<path class="st0" d="M38.2,21.19c7.87-6.77,18.91-7.08,27.87-2.34c3.91,2.07,7.59,5.05,9.74,8.97c2.6,4.72,3.87,9.97,3.82,15.35
					c-0.06,5.94-1.78,11.46-5.56,16.09c-0.49,0.6,1.62,0.36,1.99-0.09c7.29-8.94,7.4-22.03,1.93-31.93
					c-4.56-8.26-15.37-13.2-24.6-12.65c-6.16,0.37-12.16,2.38-16.88,6.44C35.64,21.77,37.78,21.55,38.2,21.19L38.2,21.19z"/>
			</g>
		</g>
		<g>
			<g>
				<path class="st0" d="M32.16,22.4C43.5,35.18,56.12,46.72,68.63,58.31c3.72,3.45,7.44,6.89,11.16,10.34
					c0.65,0.6,2.71-0.26,2-0.92C69.1,55.98,56.17,44.41,44.05,32.06c-3.38-3.44-6.68-6.96-9.89-10.57
					C33.57,20.82,31.49,21.66,32.16,22.4L32.16,22.4z"/>
			</g>
		</g>
	</g>
</g>
</svg>
