<?xml version="1.0" encoding="utf-8"?>
<!-- Generator: Adobe Illustrator 24.2.0, SVG Export Plug-In . SVG Version: 6.00 Build 0)  -->
<svg version="1.1" id="Слой_1" xmlns="http://www.w3.org/2000/svg" xmlns:xlink="http://www.w3.org/1999/xlink" x="0px" y="0px"
	 viewBox="0 0 90 88" style="enable-background:new 0 0 90 88;" xml:space="preserve">
<style type="text/css">
	.st0{fill:#003974;}
	.st1{fill:#FFFFFF;}
</style>

<g>
	<g>
		<g>
			<path class="st0" d="M45.58,25.33c-0.96,0.71-2.44,1.21-3.61,1.69c-2.19,0.89-4.41,1.72-6.63,2.54
				c-4.82,1.77-9.66,3.45-14.52,5.11c-1.46,0.5-2.91,0.99-4.37,1.48c-0.42,0.14-0.83,0.57-0.41,0.96c0.82,0.76,2.24,1.17,3.25,1.6
				c2.22,0.95,4.47,1.84,6.71,2.73c4.97,1.96,9.96,3.85,14.96,5.73c1.26,0.47,2.52,1.03,3.81,1.42c0.74,0.22,1.3-0.11,2.01-0.37
				c4.76-1.75,9.52-3.49,14.28-5.22c5.5-1.99,10.98-4.05,16.55-5.85c0.28-0.09,0.84-0.49,0.52-0.86c-0.55-0.62-1.7-0.89-2.43-1.17
				c-1.87-0.72-3.76-1.38-5.65-2.04c-5.22-1.82-10.46-3.57-15.71-5.31c-2.62-0.87-5.24-1.73-7.86-2.59
				c-0.66-0.22-1.7,0.73-0.82,1.02c9.36,3.08,18.76,6.07,28,9.49c0.76,0.28,1.51,0.56,2.26,0.87c0.23,0.1,0.48,0.26,0.73,0.32
				c0.07,0.02,0.29,0.2,0.17,0.07c0.17-0.29,0.35-0.57,0.52-0.86c-9.89,3.2-19.62,6.96-29.38,10.54c-0.68,0.25-1.35,0.5-2.03,0.74
				c-0.15,0.05-0.38,0.09-0.5,0.19c-0.46,0.33,0.37-0.71,0.37,0.08c0-0.17-2.54-0.95-2.73-1.02c-4.73-1.77-9.45-3.56-14.15-5.39
				c-2.61-1.02-5.23-2.04-7.81-3.13c-1.21-0.51-2.98-0.96-3.95-1.86c-0.14,0.32-0.27,0.64-0.41,0.96c8.5-2.82,17.02-5.7,25.33-9.04
				c1.49-0.6,3.19-1.15,4.5-2.12C47.34,25.46,46.18,24.88,45.58,25.33L45.58,25.33z"/>
		</g>
	</g>
	<g>
		<g>
			<path class="st0" d="M28.19,43.34c0.19,3.66,0.22,7.33,0.12,10.99c-0.02,0.71,1.44,0.46,1.46-0.13c0.11-3.75,0.06-7.5-0.13-11.24
				C29.61,42.37,28.16,42.69,28.19,43.34L28.19,43.34z"/>
		</g>
	</g>
	<g>
		<g>
			<path class="st0" d="M63.82,43.34c0.04,3.43,0.08,6.87,0.12,10.3c0.01,0.69,1.47,0.42,1.46-0.14c-0.04-3.43-0.08-6.87-0.12-10.3
				C65.27,42.51,63.81,42.78,63.82,43.34L63.82,43.34z"/>
		</g>
	</g>
	<g>
		<g>
			<path class="st0" d="M28.67,54.49c10.92,6.88,24.81,6.67,35.71-0.13c0.62-0.39-0.83-0.27-1.12-0.09
				c-10.22,6.37-23.09,6.09-33.23-0.3C29.67,53.75,28.43,54.34,28.67,54.49L28.67,54.49z"/>
		</g>
	</g>
	<g>
		<g>
			<path class="st0" d="M16.76,38.25c0,1.35,0,2.7,0,4.05c0,0.11,0.21,0.17,0.28,0.18c0.17,0.03,0.38,0.01,0.54-0.04
				c0.26-0.07,0.63-0.22,0.63-0.53c0-1.35,0-2.7,0-4.05c0-0.11-0.21-0.17-0.28-0.18c-0.17-0.03-0.38-0.01-0.54,0.04
				C17.14,37.8,16.76,37.94,16.76,38.25L16.76,38.25z"/>
		</g>
	</g>
	<g>
		<g>
			<path class="st0" d="M17.01,41.67c-0.85,1.32-1.5,2.76-1.91,4.27c-0.36,1.34-0.82,3.15-0.22,4.47c0.6,1.33,2.14,1.53,3.34,0.89
				c1.33-0.72,1.33-2.34,1.08-3.64c-0.37-1.93-0.87-3.84-1.31-5.75c-0.08-0.34-1.53,0.02-1.45,0.39c0.4,1.77,0.83,3.53,1.21,5.3
				c0.19,0.85,0.37,1.78,0.1,2.63c-0.09,0.29-0.25,0.66-0.51,0.84c0.18-0.03,0.18-0.05,0.01-0.07c-0.05-0.02-0.11-0.04-0.16-0.06
				c-0.17-0.08-0.32-0.2-0.45-0.33c-1.16-1.12-0.61-3.32-0.26-4.67c0.41-1.61,1.08-3.13,1.98-4.52c0.15-0.23-0.52-0.18-0.59-0.17
				C17.57,41.31,17.18,41.41,17.01,41.67L17.01,41.67z"/>
		</g>
	</g>
</g>
</svg>
