<?xml version="1.0" encoding="utf-8"?>
<!-- Generator: Adobe Illustrator 24.2.0, SVG Export Plug-In . SVG Version: 6.00 Build 0)  -->
<svg version="1.1" id="Слой_1" xmlns="http://www.w3.org/2000/svg" xmlns:xlink="http://www.w3.org/1999/xlink" x="0px" y="0px"
	 viewBox="0 0 90 88" style="enable-background:new 0 0 200 88;" xml:space="preserve">
<style type="text/css">
	.st0{fill:#003974;}
	.st1{fill:#FFFFFF;}
</style>

<g>
	<g>
		<g>
			<path class="st0" d="M32.51,24.09c0.05,15.95,0.1,31.9,0.16,47.85c0,0.73,1.47,0.49,1.46-0.12c-0.05-15.95-0.1-31.9-0.16-47.85
				C33.97,23.24,32.51,23.47,32.51,24.09L32.51,24.09z"/>
		</g>
	</g>
	<g>
		<g>
			<path class="st0" d="M37.23,20.67c5.01,0.49,10.05,0.59,15.08,0.29c2.47-0.15,4.93-0.4,7.37-0.73c1.19-0.17,2.39-0.35,3.57-0.56
				c0.63-0.11,1.27-0.23,1.9-0.36c0.89-0.18,1.79-0.35,2.03,0.68c0.24,1.03,0.1,2.31,0.14,3.37c0.04,1.2,0.09,2.4,0.12,3.6
				c0.06,1.93,0.11,3.87,0.14,5.8c0.05,3.35,0.01,6.69-0.13,10.04c-0.19,4.7-0.52,9.39-0.86,14.08c-0.01,0.19,1.42,0.04,1.45-0.39
				c0.55-7.81,1.08-15.62,0.99-23.45c-0.02-2.02-0.07-4.04-0.13-6.06c-0.07-2.37,0.05-4.86-0.26-7.21
				c-0.26-1.94-2.65-1.07-3.93-0.82c-2.7,0.52-5.43,0.91-8.17,1.18c-6.11,0.6-12.26,0.58-18.38-0.02
				C37.87,20.05,36.52,20.6,37.23,20.67L37.23,20.67z"/>
		</g>
	</g>
	<g>
		<g>
			<path class="st0" d="M29.25,18.49c0.43-0.91,1.01-1.86,1.93-2.33c0.78-0.4,1.74-0.27,2.53,0.14c1.04,0.54,1.65,1.52,1.63,2.7
				c-0.01,0.67-0.15,1.33-0.26,1.98c-0.13,0.73-0.25,1.46-0.38,2.19c-0.11,0.65,1.36,0.43,1.46-0.14c0.22-1.27,0.53-2.56,0.63-3.85
				c0.08-1.11-0.18-2.22-1.02-3c-1.53-1.43-3.93-1.59-5.68-0.48c-1,0.63-1.7,1.63-2.19,2.68C27.56,19.08,29.01,19,29.25,18.49
				L29.25,18.49z"/>
		</g>
	</g>
	<g>
		<g>
			<path class="st0" d="M46.36,17.45c0.46-0.48,1.07-0.92,1.76-0.85c0.68,0.06,1.33,0.58,1.74,1.13c0.5,0.67,0.68,1.48,0.39,2.28
				c-0.34,0.94-0.89,1.83-1.35,2.72c-0.17,0.33,0.15,0.6,0.45,0.65c0.36,0.05,0.77-0.12,0.94-0.45c0.3-0.59,0.61-1.19,0.91-1.78
				c0.26-0.5,0.5-1,0.61-1.55c0.21-1.06-0.23-2.13-0.96-2.88c-0.73-0.75-1.69-1.24-2.75-1.22c-1.18,0.03-2.17,0.69-2.97,1.51
				c-0.24,0.25-0.1,0.62,0.2,0.74C45.7,17.87,46.1,17.72,46.36,17.45L46.36,17.45z"/>
		</g>
	</g>
	<g>
		<g>
			<path class="st0" d="M39.03,17.41c0.47-0.48,1.05-0.95,1.76-0.86c0.7,0.08,1.34,0.62,1.75,1.17c0.51,0.69,0.68,1.52,0.4,2.34
				c-0.15,0.42-0.38,0.82-0.58,1.22c-0.25,0.5-0.51,0.99-0.76,1.49c-0.16,0.31,0.14,0.53,0.43,0.56c0.33,0.03,0.78-0.11,0.95-0.43
				c0.3-0.59,0.61-1.19,0.91-1.78c0.25-0.49,0.5-0.99,0.61-1.54c0.21-1.05-0.22-2.1-0.95-2.85c-0.74-0.75-1.68-1.2-2.74-1.17
				c-1.16,0.03-2.18,0.68-2.97,1.49c-0.23,0.24-0.13,0.55,0.17,0.65C38.35,17.79,38.79,17.66,39.03,17.41L39.03,17.41z"/>
		</g>
	</g>
	<g>
		<g>
			<path class="st0" d="M53.72,17.17c0.46-0.47,0.95-0.95,1.64-0.79c0.75,0.17,1.44,0.74,1.86,1.37c0.5,0.75,0.62,1.62,0.32,2.46
				c-0.34,0.94-0.89,1.83-1.35,2.72c-0.12,0.24,0.5,0.17,0.58,0.16c0.25-0.04,0.71-0.14,0.85-0.41c0.3-0.59,0.61-1.19,0.91-1.78
				c0.25-0.49,0.5-0.98,0.59-1.52c0.17-1.03-0.28-1.98-1.01-2.69c-0.72-0.7-1.66-1.05-2.66-0.96c-1.18,0.11-2.24,0.68-3.06,1.52
				c-0.23,0.23,0.2,0.27,0.35,0.26C53.06,17.5,53.5,17.41,53.72,17.17L53.72,17.17z"/>
		</g>
	</g>
	<g>
		<g>
			<path class="st0" d="M60.99,17.44c0.46-0.48,1.06-0.93,1.76-0.86c0.69,0.07,1.33,0.59,1.74,1.14c0.5,0.67,0.68,1.49,0.39,2.29
				c-0.34,0.94-0.89,1.83-1.35,2.72c-0.17,0.32,0.15,0.58,0.44,0.62c0.35,0.05,0.77-0.12,0.94-0.45c0.3-0.59,0.61-1.19,0.91-1.78
				c0.25-0.5,0.5-1,0.61-1.55c0.21-1.05-0.22-2.12-0.96-2.87c-0.74-0.75-1.68-1.23-2.75-1.2c-1.17,0.03-2.17,0.69-2.97,1.5
				c-0.24,0.25-0.11,0.6,0.19,0.71C60.32,17.85,60.74,17.7,60.99,17.44L60.99,17.44z"/>
		</g>
	</g>
	<g>
		<g>
			<path class="st0" d="M30.11,21.35c-0.29,16.68-0.58,33.37-0.86,50.05c0,0.22,1.44,0.03,1.45-0.39
				c0.29-16.68,0.58-33.37,0.86-50.05C31.57,20.74,30.12,20.93,30.11,21.35L30.11,21.35z"/>
		</g>
	</g>
	<g>
		<g>
			<path class="st0" d="M34.46,72.82c4.87-0.76,9.67-2.04,14.21-3.97c3.92-1.67,7.05-4.5,7.42-8.96c-0.47,0.12-0.93,0.25-1.4,0.37
				c3.79,3.83,8.99,0.37,12.14-2.42c0.73-0.65-0.42-1.12-0.96-0.65c-2.49,2.21-6.71,5.61-9.86,2.43c-0.35-0.36-1.35-0.22-1.4,0.37
				c-0.17,2.01-0.93,3.91-2.35,5.37c-1.37,1.42-3.22,2.24-5.02,2.96c-4.07,1.63-8.34,2.77-12.67,3.44
				C33.81,71.9,33.48,72.97,34.46,72.82L34.46,72.82z"/>
		</g>
	</g>
	<g>
		<g>
			<path class="st0" d="M27.45,22.98c-0.29,14.68-0.58,29.36-0.86,44.05c-0.02,0.77,1.46,0.56,1.47-0.1
				c0.29-14.68,0.58-29.36,0.86-44.05C28.94,22.11,27.47,22.32,27.45,22.98L27.45,22.98z"/>
		</g>
	</g>
	<g>
		<g>
			<path class="st0" d="M33.21,72.82c10.28-1.77,20.68-2.64,31.11-2.61c0.47,0,1.56-0.7,0.6-0.7c-10.55-0.03-21.08,0.85-31.48,2.64
				C32.81,72.26,32.2,72.99,33.21,72.82L33.21,72.82z"/>
		</g>
	</g>
	<g>
		<g>
			<path class="st0" d="M66.6,59.6c0.04,2.33-0.18,4.66-0.67,6.94c-0.15,0.68,1.33,0.5,1.46-0.12c0.49-2.28,0.71-4.6,0.67-6.94
				c-0.01-0.35-0.35-0.47-0.66-0.45C67.14,59.05,66.59,59.25,66.6,59.6L66.6,59.6z"/>
		</g>
	</g>
	<g>
		<g>
			<path class="st0" d="M41.69,34.79c0.32-0.53,0.5-1.4,0.96-1.82c0.57-0.51,0.94-0.04,1.33,0.43c0.52,0.64,1.02,1.24,1.87,1.4
				c0.99,0.18,1.99-0.22,2.78-0.79c1.18-0.84,1.99-1.65,3.5-1.85c0.66-0.09,1.45-0.24,2.1-0.04c0.47,0.14,0.88,0.45,1.35,0.6
				c0.75,0.24,1.59,0.13,2.18-0.42c0.3-0.28,0.58-1.06,0.98-1.15c0.31-0.07,0.93,0.32,1.22,0.42c0.77,0.27,1.52,0.34,2.27-0.03
				c0.89-0.44,0.09-1.13-0.62-0.78c-0.42,0.21-1.11-0.24-1.5-0.38c-0.38-0.13-0.76-0.23-1.16-0.23c-0.88,0.01-1.38,0.46-1.89,1.1
				c-0.16,0.2-0.3,0.54-0.62,0.55c-0.26,0.01-0.68-0.31-0.94-0.43c-0.47-0.21-0.9-0.32-1.41-0.34c-1.2-0.04-2.56,0.16-3.69,0.57
				c-1.14,0.42-1.85,1.28-2.84,1.91c-1.48,0.93-1.98-0.72-2.91-1.46c-0.65-0.51-1.52-0.57-2.27-0.22c-1.17,0.55-1.45,1.79-2.06,2.81
				C39.92,35.32,41.39,35.29,41.69,34.79L41.69,34.79z"/>
		</g>
	</g>
	<g>
		<g>
			<path class="st0" d="M41.35,40.65c0.15-0.32,0.62-1.5,1.01-1.58c0.42-0.09,1.08,0.67,1.35,0.9c0.83,0.72,1.6,1.04,2.69,0.79
				c1.06-0.24,1.87-0.84,2.56-1.67c0.31-0.37,0.57-0.78,0.9-1.14c0.07-0.07,0.14-0.15,0.21-0.22c0.29-0.22,0.31-0.26,0.05-0.13
				c0.61,0.25,1.02,1.06,1.51,1.47c0.83,0.69,1.88,0.71,2.83,0.24c0.43-0.21,0.68-0.57,1.06-0.82c0.18-0.2,0.22-0.21,0.12-0.05
				c-0.11,0.12-0.06,0.21,0.14,0.25c0.15,0.19,0.51,0.32,0.73,0.39c0.86,0.28,1.9,0.09,2.69-0.32c0.19-0.1,0.48-0.24,0.62-0.4
				c0.06-0.05,0.11-0.1,0.17-0.15c-0.63,0-0.79,0.1-0.47,0.3c0.1,0.35,0.65,0.72,0.97,0.83c0.32,0.11,1.6-0.41,1.19-0.55
				c-0.49-0.17-0.62-0.77-1.1-0.96c-0.35-0.14-0.77-0.03-1.11,0.08c-0.48,0.16-0.94,0.73-1.46,0.71c-0.62-0.03-0.99-0.66-1.58-0.78
				c-1.01-0.21-1.63,0.48-2.38,0.94c-1.12,0.68-1.97-1.79-3.16-1.86c-1.06-0.06-1.96,0.7-2.59,1.46c-0.47,0.57-1.18,1.96-2.04,1.88
				c-0.59-0.05-1.15-0.77-1.56-1.11c-0.82-0.68-1.7-0.81-2.7-0.45c-1.06,0.37-1.62,1.24-2.07,2.22
				C39.83,41.11,41.18,41.01,41.35,40.65L41.35,40.65z"/>
		</g>
	</g>
	<g>

			<rect x="24.67" y="57.69" transform="matrix(0.7666 -0.6421 0.6421 0.7666 -31.6827 37.4966)" class="st1" width="22.15" height="9.3"/>
		<g>
			<path class="st1" d="M30.9,72.69c-1.99-2.38-3.98-4.75-5.97-7.13c-0.06,0.22-0.12,0.43-0.18,0.65c4.96-4.15,9.91-8.3,14.87-12.45
				c0.71-0.59,1.41-1.18,2.12-1.77c-0.38,0-0.76-0.01-1.14-0.01c1.99,2.38,3.98,4.75,5.97,7.13c0.06-0.22,0.12-0.43,0.18-0.65
				c-4.96,4.15-9.91,8.3-14.87,12.45c-0.71,0.59-1.41,1.18-2.12,1.77c-0.75,0.63,0.4,1.13,0.96,0.66c4.96-4.15,9.91-8.3,14.87-12.45
				c0.71-0.59,1.41-1.18,2.12-1.77c0.17-0.15,0.37-0.43,0.18-0.65c-1.99-2.38-3.98-4.75-5.97-7.13c-0.27-0.32-0.85-0.26-1.14-0.01
				c-4.96,4.15-9.91,8.3-14.87,12.45c-0.71,0.59-1.41,1.18-2.12,1.77c-0.17,0.15-0.37,0.43-0.18,0.65c1.99,2.38,3.98,4.75,5.97,7.13
				C30,73.83,31.37,73.26,30.9,72.69z"/>
		</g>
	</g>
	<g>
		<g>
			<g>
				<path class="st0" d="M30.21,72.66c1.69-0.18,2.81-1.78,3.92-2.9c1.51-1.53,3.02-3.05,4.54-4.58c2.99-3.01,5.97-6.02,8.96-9.03
					c0.62-0.62-0.79-0.72-1.19-0.33c-2.68,2.7-5.35,5.4-8.03,8.1c-1.32,1.33-2.64,2.66-3.95,3.99c-0.66,0.66-1.32,1.33-1.98,1.99
					c-0.51,0.51-1.34,1.75-2.1,1.83C29.62,71.82,29.21,72.77,30.21,72.66L30.21,72.66z"/>
			</g>
		</g>
		<g>
			<g>
				<path class="st0" d="M47.54,54.15c-1.69-1.68-3.24-3.49-4.67-5.4c-0.33-0.45-1.73,0.07-1.34,0.6c1.42,1.91,2.98,3.72,4.67,5.4
					c0.24,0.24,0.68,0.18,0.97,0.05C47.37,54.72,47.79,54.4,47.54,54.15L47.54,54.15z"/>
			</g>
		</g>
		<g>
			<g>
				<path class="st0" d="M41.36,49.82c-3.35,3.62-6.92,7.02-10.71,10.17c-1.87,1.56-3.79,3.05-5.76,4.48
					c-0.27,0.2-1.98,1.09-1.64,1.6c0.28,0.43,1.38-0.09,1.65-0.31c0.05-0.03,0.07-0.08,0.07-0.13c-0.01-0.03-0.02-0.06-0.03-0.09
					c-0.1-0.31-1.54,0.11-1.45,0.39c0,0.01,0.01,0.02,0.01,0.04c0.32-0.11,0.65-0.23,0.97-0.34c0.19-0.02,0.64-0.5,0.8-0.62
					c0.18-0.13,0.35-0.25,0.53-0.38c0.39-0.28,0.79-0.57,1.18-0.86c0.83-0.61,1.64-1.23,2.45-1.87c1.57-1.24,3.12-2.51,4.62-3.83
					c3.02-2.64,5.89-5.44,8.61-8.38C42.94,49.4,41.59,49.57,41.36,49.82L41.36,49.82z"/>
			</g>
		</g>
		<g>
			<g>
				<path class="st0" d="M29.62,71.21c-1.42-1.9-2.91-3.75-4.45-5.55c-0.26-0.31-1.64,0.2-1.36,0.52c1.55,1.8,3.03,3.65,4.45,5.55
					c0.06,0.08,0.3,0.08,0.38,0.07c0.19-0.01,0.39-0.05,0.57-0.12C29.37,71.62,29.79,71.44,29.62,71.21L29.62,71.21z"/>
			</g>
		</g>
		<g>
			<g>
				<path class="st0" d="M48.87,55.23c1.3-3.63,3.05-7.08,5.21-10.28c0.35-0.52-0.76-0.39-0.96-0.31c-3.06,1.3-6.19,2.41-9.39,3.32
					c-0.21,0.06-0.71,0.25-0.63,0.55c0.08,0.29,0.63,0.22,0.82,0.16c3.32-0.94,6.59-2.1,9.77-3.45c-0.32-0.1-0.64-0.2-0.96-0.31
					c-2.21,3.26-3.99,6.78-5.31,10.49C47.25,55.89,48.7,55.72,48.87,55.23L48.87,55.23z"/>
			</g>
		</g>
		<g>
			<g>
				<path class="st0" d="M50.57,49.01c-0.62-0.53-1.25-1.06-1.87-1.59c-0.41,0.22-0.83,0.45-1.24,0.67c1.35,0.81,3.39,0.42,4.38-0.8
					c0.08-0.1,0.17-0.21,0.13-0.35c-0.03-0.12-0.17-0.21-0.29-0.23c-0.31-0.07-0.81,0.01-1.02,0.27c-0.08,0.1-0.17,0.2-0.27,0.29
					c-0.01,0.01-0.12,0.08-0.04,0.03c0.09-0.05-0.03,0.02-0.04,0.03c-0.05,0.04-0.11,0.07-0.17,0.11c-0.05,0.03-0.13,0.04,0.03-0.01
					c-0.03,0.01-0.05,0.03-0.08,0.04c-0.06,0.03-0.12,0.05-0.18,0.08c-0.09,0.04,0.17-0.05,0.04-0.02
					c-0.03,0.01-0.06,0.02-0.08,0.02c-0.07,0.02-0.3,0.04-0.06,0.02c-0.07,0.01-0.13,0.02-0.2,0.03c-0.03,0-0.06,0.01-0.09,0.01
					c-0.11,0.01-0.03-0.01,0.03,0c-0.06-0.01-0.13,0-0.2-0.01c-0.04,0-0.07-0.01-0.11-0.01c-0.09-0.01,0-0.01,0.03,0.01
					c-0.06-0.03-0.15-0.03-0.21-0.05c-0.06-0.02-0.12-0.04-0.19-0.06c-0.08-0.02,0.09,0.04,0.01,0.01c-0.03-0.02-0.07-0.03-0.1-0.04
					c-0.07-0.03-0.13-0.07-0.19-0.11c-0.28-0.16-0.69-0.07-0.95,0.07c-0.16,0.09-0.53,0.39-0.29,0.6c0.62,0.53,1.25,1.06,1.87,1.59
					c0.26,0.22,0.67,0.19,0.97,0.05c0.15-0.07,0.3-0.16,0.38-0.3C50.64,49.25,50.67,49.1,50.57,49.01L50.57,49.01z"/>
			</g>
		</g>
	</g>
</g>
</svg>
