<?xml version="1.0" encoding="utf-8"?>
<!-- Generator: Adobe Illustrator 24.2.0, SVG Export Plug-In . SVG Version: 6.00 Build 0)  -->
<svg version="1.1" id="Слой_1" xmlns="http://www.w3.org/2000/svg" xmlns:xlink="http://www.w3.org/1999/xlink" x="0px" y="0px"
	 viewBox="0 0 110 88" style="enable-background:new 0 0 110 88;" xml:space="preserve">
<style type="text/css">
	.st0{fill:#003974;}
	.st1{fill:#FFFFFF;}
</style>

<g>
	<g>
		<g>
			<g>
				<path class="st0" d="M66.94,66.53c1.39,0.54,2.76,1.15,4.11,1.79c2.17,1.02,4.47,2.11,6.27,3.72c0.47,0.42,2.18,0.07,2.1-0.71
					c-0.42-3.9-0.96-7.79-1.64-11.66c-0.12-0.7-2.31-0.19-2.17,0.58c0.67,3.87,1.22,7.75,1.64,11.66c0.7-0.24,1.4-0.47,2.1-0.71
					c-1.85-1.65-4.2-2.79-6.43-3.85c-1.39-0.66-2.81-1.29-4.24-1.85c-0.48-0.19-1.1-0.05-1.54,0.21
					C66.88,65.87,66.45,66.34,66.94,66.53L66.94,66.53z"/>
			</g>
		</g>
		<g>
			<g>
				<path class="st0" d="M24.19,40.68c0.18-3.24,1.54-6.52,3.16-9.29c2.92-4.99,7.51-8.73,12.91-10.75
					c3.79-1.42,7.85-1.97,11.88-2.07c4.75-0.11,9.56,0.22,14.21,1.18c4.44,0.92,8.92,2.43,12.59,5.17
					c3.56,2.66,6.17,6.55,7.34,10.84c2.79,10.21-3.59,20.14-12.71,24.49c-1.35,0.64-0.14,1.69,0.94,1.18
					c8.29-3.95,15.06-12.22,14.64-21.78c-0.2-4.65-2.03-9.18-5.06-12.71c-3.07-3.58-7.26-5.86-11.7-7.32
					c-4.87-1.6-10.03-2.3-15.14-2.51c-4.61-0.18-9.26-0.02-13.76,1.05c-6.56,1.56-12.61,5.13-16.62,10.61
					c-2.49,3.41-4.64,7.79-4.88,12.09C21.93,41.94,24.14,41.59,24.19,40.68L24.19,40.68z"/>
			</g>
		</g>
		<g>
			<g>
				<path class="st0" d="M65.98,64.47c-8.6,1.93-17.8,0.98-25.9-2.45c-3.82-1.62-7.57-3.79-10.56-6.69
					c-2.95-2.86-4.83-6.44-5.61-10.46c-0.12-0.63-2.31-0.11-2.17,0.58c1.32,6.85,5.9,11.68,11.77,15.12
					c6.19,3.62,13.27,5.57,20.41,5.91c4.14,0.2,8.27-0.19,12.3-1.09c0.25-0.06,1.09-0.36,0.96-0.75
					C67.05,64.23,66.24,64.41,65.98,64.47L65.98,64.47z"/>
			</g>
		</g>
	</g>
	<g>
		<g>
			<g>
				<path class="st0" d="M52.11,36.36c-1.44-2.93-0.91-6.87,1.76-8.95c2.92-2.27,7.07-1.07,9.04,1.84c1.91,2.82,1.61,6.4-0.48,9.01
					c-2.02,2.54-5.11,4.04-7.86,5.64c-1.25,0.73-2.94,1.72-3.1,3.33c-0.16,1.6,1.19,2.49,2.63,2.34c1.04-0.11,1.82-1.31,0.31-1.15
					c-0.65,0.07-0.8-1.5-0.7-1.85c0.29-1.01,1.36-1.57,2.2-2.06c1.47-0.85,2.96-1.67,4.38-2.61c2.66-1.76,5.34-4.09,5.98-7.38
					c0.65-3.32-1.02-6.89-3.99-8.51c-3-1.64-7.04-1.14-9.78,0.82c-3.15,2.26-4.26,6.63-2.56,10.12
					C50.29,37.67,52.41,36.97,52.11,36.36L52.11,36.36z"/>
			</g>
		</g>
		<g>
			<g>
				<path class="st0" d="M53.58,53c-0.65,0.53-1.35,1.1-1.72,1.88c-0.19,0.4-0.27,0.78-0.23,1.22c0.03,0.34,0.16,0.66,0.35,0.94
					c0.51,0.77,1.56,0.92,2.38,0.66c0.45-0.14,0.89-0.37,1.19-0.74c0.24-0.29,0.38-0.6,0.48-0.96c0.18-0.66,0.13-1.4-0.01-2.05
					c-0.04-0.2-0.27-0.32-0.44-0.37c-0.25-0.07-0.57-0.06-0.82,0.02c-0.39,0.11-1.02,0.43-0.91,0.94c0.06,0.27,0.1,0.55,0.11,0.83
					c0-0.06-0.01-0.12-0.01-0.18c0.01,0.31-0.01,0.63-0.08,0.93c-0.02,0.07-0.04,0.13-0.05,0.2c-0.03,0.12,0.06-0.13,0.02-0.05
					c-0.01,0.03-0.02,0.06-0.04,0.09c-0.03,0.06-0.06,0.11-0.09,0.17c-0.05,0.08-0.1,0.08,0.05-0.06c-0.02,0.02-0.04,0.05-0.06,0.07
					c-0.01,0.01-0.06,0.06-0.06,0.06c-0.01-0.01,0.23-0.17,0.1-0.08c-0.14,0.09,0.13-0.07,0.14-0.07c-0.05,0.02-0.17,0.07,0.04-0.01
					c0.21-0.07,0.09-0.03,0.04-0.02c-0.16,0.05,0.32-0.05,0.14-0.03c-0.16,0.02,0.25,0.01,0.13,0c-0.1-0.01-0.1-0.05,0.1,0.02
					c-0.03-0.01-0.07-0.02-0.1-0.03c-0.09-0.02,0.19,0.1,0.07,0.03c-0.03-0.02-0.06-0.04-0.09-0.05c-0.11-0.06,0.01-0.01,0.03,0.04
					c-0.03-0.06-0.12-0.12-0.16-0.18c-0.05-0.07-0.09-0.13-0.13-0.21c0.03,0.05,0.06,0.11,0.09,0.16c-0.12-0.22-0.18-0.46-0.2-0.71
					c0,0.06,0.01,0.12,0.01,0.18c0-0.1,0-0.2,0.01-0.3c0.01-0.05,0.02-0.09,0.03-0.13c0-0.02,0.06-0.2,0.02-0.09
					c-0.03,0.11,0.04-0.09,0.05-0.12c0.02-0.05,0.05-0.1,0.08-0.15c0.03-0.05,0.13-0.27,0.19-0.28c-0.07,0.09-0.09,0.12-0.05,0.06
					c0.02-0.02,0.04-0.04,0.05-0.07c0.04-0.04,0.08-0.09,0.11-0.13c0.08-0.09,0.16-0.17,0.24-0.25c0.08-0.08,0.17-0.16,0.26-0.23
					c0.05-0.04,0.1-0.09,0.15-0.13c0.06-0.05,0.03-0.02-0.08,0.07c0.03-0.02,0.06-0.05,0.09-0.07c0.16-0.14,0.36-0.29,0.4-0.52
					c0.03-0.19-0.08-0.38-0.24-0.47C54.7,52.6,53.97,52.68,53.58,53L53.58,53z"/>
			</g>
		</g>
	</g>
</g>
</svg>
