<?xml version="1.0" encoding="utf-8"?>
<!-- Generator: Adobe Illustrator 24.2.0, SVG Export Plug-In . SVG Version: 6.00 Build 0)  -->
<svg version="1.1" id="Слой_1" xmlns="http://www.w3.org/2000/svg" xmlns:xlink="http://www.w3.org/1999/xlink" x="0px" y="0px"
	 viewBox="0 0 90 88" style="enable-background:new 0 0 90 88;" xml:space="preserve">
<style type="text/css">
	.st0{fill:#003974;}
	.st1{fill:#FFFFFF;}
</style>

<g>
	<g>
		<g>
			<path class="st0" d="M25.63,36.18c0,7.21,0,14.43,0,21.64c0,0.35,1.45,0.11,1.45-0.39c0-7.21,0-14.43,0-21.64
				C27.08,35.45,25.63,35.69,25.63,36.18L25.63,36.18z"/>
		</g>
	</g>
	<g>
		<g>
			<path class="st0" d="M36.03,36.45c-0.08,7.02-0.15,14.04-0.23,21.06c-0.01,0.65,1.45,0.37,1.45-0.16
				c0.08-7.02,0.15-14.04,0.23-21.06C37.49,35.64,36.03,35.93,36.03,36.45L36.03,36.45z"/>
		</g>
	</g>
	<g>
		<g>
			<path class="st0" d="M45.68,36.38c0.23,6.89,0.31,13.78,0.24,20.68c0,0.25,1.44,0.04,1.45-0.39c0.06-6.89-0.02-13.79-0.24-20.68
				C47.12,35.72,45.66,35.96,45.68,36.38L45.68,36.38z"/>
		</g>
	</g>
	<g>
		<g>
			<path class="st0" d="M55.73,36.26c-0.31,7.02-0.44,14.05-0.39,21.07c0,0.64,1.46,0.35,1.45-0.16
				c-0.05-7.03,0.08-14.05,0.39-21.07C57.21,35.46,55.75,35.73,55.73,36.26L55.73,36.26z"/>
		</g>
	</g>
	<g>
		<g>
			<g>
				<path class="st0" d="M20.39,28.73c0.01-0.31,0.02-0.61,0.02-0.92c0.02-0.74-1.43-0.52-1.47,0.12c-0.09,1.74-0.18,3.47-0.26,5.21
					c-0.04,0.74,1.43,0.52,1.47-0.12c0.09-1.74,0.18-3.47,0.26-5.21c-0.49,0.04-0.98,0.08-1.47,0.12c-0.01,0.31-0.02,0.61-0.02,0.92
					c-0.01,0.36,0.36,0.48,0.66,0.46C19.87,29.28,20.38,29.08,20.39,28.73L20.39,28.73z"/>
			</g>
		</g>
		<g>
			<g>
				<path class="st0" d="M19.69,28.53c8.52-3.44,16.99-7,25.4-10.69c0.93-0.41,0.06-0.7-0.53-0.44c-8.41,3.69-16.88,7.25-25.4,10.69
					C18.21,28.47,19.09,28.77,19.69,28.53L19.69,28.53z"/>
			</g>
		</g>
		<g>
			<g>
				<path class="st0" d="M19.51,32.5c6.81-0.99,13.69-1.35,20.57-1.1c0.28,0.01,0.83-0.04,1.02-0.27c0.14-0.17,0.26-0.34-0.09-0.35
					c-7.1-0.26-14.21,0.13-21.24,1.15C19.16,32.01,18.49,32.65,19.51,32.5L19.51,32.5z"/>
			</g>
		</g>
		<g>
			<g>
				<path class="st0" d="M50.88,21.32c6.53,2.06,12.92,4.54,19.12,7.44c0.34,0.16,1.66-0.38,1.18-0.6
					c-6.2-2.89-12.59-5.38-19.12-7.44C51.7,20.6,50.4,21.17,50.88,21.32L50.88,21.32z"/>
			</g>
		</g>
		<g>
			<g>
				<path class="st0" d="M22.22,31.92c0.59,0.97,1.02,2.04,1.28,3.14c0.03,0.11,0.18,0.16,0.28,0.18c0.17,0.03,0.38,0.01,0.54-0.04
					c0.2-0.06,0.7-0.24,0.63-0.53c-0.28-1.17-0.75-2.28-1.38-3.3c-0.06-0.1-0.3-0.11-0.39-0.11c-0.18,0-0.4,0.04-0.57,0.12
					C22.4,31.47,22.05,31.65,22.22,31.92L22.22,31.92z"/>
			</g>
		</g>
		<g>
			<g>
				<path class="st0" d="M25.04,33.45c-0.02-0.03-0.03-0.05-0.05-0.08c-0.12-0.23-0.62-0.09-0.79-0.05
					c-0.33,0.08-0.69,0.18-0.83,0.51c-0.02,0.05-0.01,0.09,0.03,0.13c0.31,0.27,0.63,0.22,1.02,0.22c0.83,0,1.66-0.03,2.49-0.05
					c1.74-0.03,3.48-0.07,5.22-0.1c3.48-0.07,6.96-0.14,10.44-0.2c6.96-0.14,13.92-0.27,20.88-0.41c0.41-0.01,1.58-0.63,0.62-0.61
					c-6.55,0.13-13.09,0.25-19.64,0.38c-3.23,0.06-6.46,0.13-9.7,0.19c-1.66,0.03-3.31,0.06-4.97,0.1
					c-0.75,0.01-1.49,0.03-2.24,0.04c-0.2,0-2.7-0.02-2.68-0.05c-0.22,0.12-0.43,0.24-0.65,0.36c0.04-0.01,0.09-0.02,0.13-0.03
					c-0.26-0.02-0.53-0.03-0.79-0.05c0.02,0.03,0.03,0.05,0.05,0.08C23.8,34.21,25.17,33.69,25.04,33.45L25.04,33.45z"/>
			</g>
		</g>
		<g>
			<g>
				<path class="st0" d="M54.71,31.65c4.95-0.32,9.9-0.38,14.86-0.18c0.32,0.01,0.81-0.1,0.95-0.43c0.13-0.31-0.12-0.54-0.43-0.55
					c-5.08-0.21-10.16-0.15-15.23,0.18C54.07,30.73,53.72,31.72,54.71,31.65L54.71,31.65z"/>
			</g>
		</g>
		<g>
			<g>
				<path class="st0" d="M69.39,27.9c-0.12,1.27-0.07,2.55,0.16,3.8c0.02,0.11,0.19,0.15,0.27,0.16c0.17,0.03,0.38,0,0.54-0.05
					c0.19-0.06,0.69-0.22,0.64-0.51c-0.22-1.19-0.28-2.41-0.17-3.62c0.03-0.3-0.41-0.28-0.61-0.25c-0.19,0.03-0.38,0.08-0.55,0.18
					C69.58,27.69,69.4,27.78,69.39,27.9L69.39,27.9z"/>
			</g>
		</g>
	</g>
	<g>
		<g>
			<g>
				<path class="st0" d="M22.82,60.87c14.55-0.01,29.11-0.01,43.66-0.02c0.57,0,1.53-0.85,0.56-0.85
					C52.48,60,37.93,60.01,23.37,60.01C22.81,60.01,21.84,60.87,22.82,60.87L22.82,60.87z"/>
			</g>
		</g>
		<g>
			<g>
				<path class="st0" d="M23.72,59.51c-0.95-0.94,0.33-1.62,1.19-1.66c0.77-0.04,1.54-0.05,2.31-0.07c1.64-0.04,3.27-0.06,4.91-0.07
					c3.24-0.02,6.49,0.01,9.73,0.05c6.45,0.07,12.89,0.16,19.34-0.06c0.49-0.02,1.55-0.78,0.58-0.75
					c-7.79,0.26-15.59,0.08-23.39,0.02c-3.84-0.03-7.68-0.03-11.52,0.08c-1.26,0.04-2.68-0.06-3.83,0.55
					c-0.9,0.48-1.51,1.61-0.67,2.44C22.7,60.38,24.06,59.85,23.72,59.51L23.72,59.51z"/>
			</g>
		</g>
		<g>
			<g>
				<path class="st0" d="M63.84,57.49c0.38,0.08,0.84,0.18,1.15,0.31c0.34,0.15,0.61,0.32,0.82,0.61c0.22,0.29,0.31,0.67,0.36,1.03
					c0.06,0.43,0.06,0.85,0.02,1.28c-0.03,0.33,0.39,0.41,0.64,0.38c0.26-0.03,0.78-0.19,0.81-0.53c0.09-0.9,0.07-2-0.5-2.75
					c-0.57-0.76-1.56-1.01-2.44-1.2c-0.34-0.07-0.78,0.01-1.02,0.27C63.48,57.12,63.51,57.42,63.84,57.49L63.84,57.49z"/>
			</g>
		</g>
	</g>
	<g>
		<g>
			<g>
				<path class="st0" d="M18.81,68.59c17.65-0.67,35.32-0.68,52.97-0.02c0.68,0.03,1.49-0.98,0.51-1.02
					c-17.77-0.67-35.57-0.66-53.34,0.02C18.14,67.6,17.82,68.62,18.81,68.59L18.81,68.59z"/>
			</g>
		</g>
		<g>
			<g>
				<path class="st0" d="M18.97,67.71c0.04-1.04,0.09-2.07,0.13-3.11c0.01-0.26,0.02-0.52,0.03-0.78c0-0.1,0.04-0.23,0.02-0.33
					c-0.01-0.07,0.06-0.17-0.05-0.08c0.09-0.07,0.46-0.06,0.57-0.07c0.25-0.03,0.51-0.06,0.76-0.08c2.06-0.2,4.14-0.23,6.2-0.09
					c0.34,0.02,0.79-0.1,0.94-0.44c0.14-0.32-0.13-0.59-0.44-0.61c-2.47-0.18-4.96-0.13-7.42,0.17c-0.51,0.06-1.08,0.1-1.51,0.42
					c-0.44,0.32-0.52,0.8-0.54,1.31c-0.06,1.26-0.11,2.53-0.16,3.8C17.47,68.58,18.94,68.37,18.97,67.71L18.97,67.71z"/>
			</g>
		</g>
		<g>
			<g>
				<path class="st0" d="M68.31,63.17c0.19,0,0.4,0,0.66,0.03c0.24,0.02,0.47,0.05,0.66,0.11c0.44,0.13,0.78,0.4,0.98,0.84
					c0.25,0.52,0.37,1.13,0.45,1.7c0.09,0.63,0.09,1.26,0.02,1.89c-0.08,0.72,1.4,0.52,1.47-0.12c0.08-0.73,0.06-1.48-0.04-2.2
					c-0.1-0.68-0.27-1.39-0.61-2c-0.69-1.21-2.21-1.28-3.44-1.28c-0.31,0-0.76,0.24-0.8,0.58C67.6,63.09,68.04,63.17,68.31,63.17
					L68.31,63.17z"/>
			</g>
		</g>
		<g>
			<g>
				<path class="st0" d="M41.66,62.99c8.12-0.08,16.23-0.19,24.35-0.36c0.48-0.01,1.56-0.74,0.59-0.72
					c-8.11,0.16-16.23,0.28-24.35,0.36C41.77,62.27,40.69,63,41.66,62.99L41.66,62.99z"/>
			</g>
		</g>
	</g>
	<g>
		<g>
			<path class="st0" d="M63.68,36.3c-0.31,7.02-0.44,14.05-0.39,21.07c0,0.22,1.45,0.02,1.45-0.39c-0.05-7.03,0.08-14.05,0.39-21.07
				C65.14,35.72,63.7,35.89,63.68,36.3L63.68,36.3z"/>
		</g>
	</g>
</g>
</svg>
