<?xml version="1.0" encoding="utf-8"?>
<!-- Generator: Adobe Illustrator 24.2.0, SVG Export Plug-In . SVG Version: 6.00 Build 0)  -->
<svg version="1.1" id="Слой_1" xmlns="http://www.w3.org/2000/svg" xmlns:xlink="http://www.w3.org/1999/xlink" x="0px" y="0px"
	 viewBox="0 0 70 88" style="enable-background:new 0 0 105 88;" xml:space="preserve">
<style type="text/css">
	.st0{fill:#003974;}
	.st1{fill:#FFFFFF;}
</style>
<g>
	<g>
		<g>
			<g>
				<path class="st0" d="M37.46,31.46c1.04-4.3,6.09-3.97,9.6-4.12c3.83-0.16,7.65-0.2,11.48-0.12c0.28,0.01,1.63-0.53,0.95-0.55
					c-4.94-0.1-9.88,0-14.81,0.3c-3.32,0.2-7.73,0.94-8.65,4.77C35.97,31.98,37.37,31.8,37.46,31.46L37.46,31.46z"/>
			</g>
		</g>
		<g>
			<g>
				<path class="st0" d="M59.18,28.43c-0.25,11.3-0.13,22.61,0.36,33.91c0.02,0.5,1.47,0.2,1.45-0.39
					c-0.48-11.22-0.6-22.46-0.35-33.69C60.65,27.63,59.19,27.92,59.18,28.43L59.18,28.43z"/>
			</g>
		</g>
		<g>
			<g>
				<path class="st0" d="M38,66.09c0.15-2.3,1.98-4.11,4.23-4.44c2.05-0.31,4.22,0.07,6.27,0.24c3.69,0.3,7.39,0.58,11.08,0.89
					c0.33,0.03,1.66-0.55,0.93-0.61c-4.65-0.39-9.31-0.77-13.96-1.13c-3.89-0.3-9.68,0.46-10,5.45C36.53,66.7,37.97,66.53,38,66.09
					L38,66.09z"/>
			</g>
		</g>
		<g>
			<g>
				<path class="st0" d="M35.22,33.41c0.13,10.18,0.3,20.36,0.53,30.53c0.02,0.77,1.48,0.56,1.47-0.1
					c-0.22-10.18-0.4-20.35-0.53-30.53C36.68,32.54,35.21,32.75,35.22,33.41L35.22,33.41z"/>
			</g>
		</g>
		<g>
			<g>
				<g>
					<path class="st0" d="M36.12,31.41c-0.95-3.94-5.25-4.44-8.63-4.63c-4.69-0.27-9.38-0.35-14.08-0.25
						c-0.56,0.01-1.53,0.87-0.56,0.85c4.12-0.08,8.24-0.03,12.35,0.16c3.44,0.16,8.46,0.04,9.47,4.26
						C34.8,32.32,36.25,31.94,36.12,31.41L36.12,31.41z"/>
				</g>
			</g>
			<g>
				<g>
					<path class="st0" d="M11.49,28.21c0.25,11.27,0.13,22.54-0.35,33.8c-0.03,0.79,1.44,0.61,1.47-0.09
						c0.48-11.26,0.6-22.53,0.35-33.8C12.95,27.33,11.48,27.52,11.49,28.21L11.49,28.21z"/>
				</g>
			</g>
			<g>
				<g>
					<path class="st0" d="M35.6,66.04c-0.13-2.05-1.36-3.72-3.17-4.65c-2.12-1.09-4.6-0.91-6.9-0.72c-4.46,0.37-8.92,0.7-13.38,1.08
						c-0.81,0.07-1.12,1.14-0.13,1.06c3.85-0.33,7.71-0.62,11.57-0.93c2.01-0.16,4.12-0.52,6.12-0.14c2.22,0.42,4.26,2.04,4.41,4.42
						C34.18,66.91,35.64,66.68,35.6,66.04L35.6,66.04z"/>
				</g>
			</g>
		</g>
	</g>
	<g>
		<g>
			<g>
				<g>
					<path class="st0" d="M36.84,29.69c-0.07-1.15,0.59-2.1,1.31-2.92c0.66-0.75,1.39-1.45,2.19-2.05c1.64-1.25,3.6-2.11,5.69-1.9
						c2.11,0.21,4.15,1.01,6.23,1.4c1.96,0.37,3.92,0.42,5.82-0.27c0.31-0.11,0.03-0.34-0.21-0.26c-2.46,0.9-5.07,0.34-7.52-0.28
						c-1.99-0.5-4.05-1.22-6.13-0.85c-1.83,0.32-3.48,1.31-4.87,2.51c-1.36,1.17-3.12,2.79-3,4.74
						C36.37,30.02,36.86,29.91,36.84,29.69L36.84,29.69z"/>
				</g>
			</g>
			<g>
				<g>
					<path class="st0" d="M36.55,28.91c0.02-3.29,1.6-6.58,4.52-8.24c1.49-0.85,3.16-1.17,4.85-0.99c1.68,0.18,3.31,0.66,5.01,0.49
						c0.26-0.03,0.38-0.36,0.05-0.32c-2.02,0.21-3.97-0.56-5.99-0.55c-1.51,0.01-3,0.45-4.3,1.21c-2.96,1.74-4.61,5.07-4.64,8.45
						C36.07,29.19,36.55,29.11,36.55,28.91L36.55,28.91z"/>
				</g>
			</g>
			<g>
				<g>
					<path class="st0" d="M51.08,20.16c-0.27,1.33,1.01,2.36,2.09,2.83c1.19,0.51,2.54,0.55,3.81,0.39
						c0.26-0.03,0.38-0.38,0.05-0.34c-1.14,0.14-2.33,0.12-3.41-0.3c-1.03-0.4-2.31-1.36-2.05-2.62
						C51.62,19.89,51.13,19.96,51.08,20.16L51.08,20.16z"/>
				</g>
			</g>
			<g>
				<g>
					<path class="st0" d="M58.44,23.57c-0.66,0.18-1.05,0.87-0.92,1.54c0.14,0.72,0.8,1.21,1.48,1.37c0.49,0.12,1,0.09,1.5,0.03
						c0.09-0.01,0.26-0.06,0.27-0.16c0.02-0.11-0.14-0.11-0.21-0.1c-0.84,0.09-1.76,0.04-2.3-0.69c-0.22-0.3-0.33-0.67-0.26-1.04
						c0.05-0.27,0.21-0.64,0.5-0.72c0.07-0.02,0.24-0.08,0.21-0.18C58.68,23.52,58.5,23.55,58.44,23.57L58.44,23.57z"/>
				</g>
			</g>
		</g>
		<g>
			<g>
				<g>
					<path class="st0" d="M36.2,29.75c0.13-1.95-1.66-3.58-3.01-4.75c-1.41-1.21-3.1-2.21-4.97-2.48c-2.08-0.31-4.15,0.45-6.15,0.94
						c-2.42,0.6-4.94,1.08-7.35,0.2c-0.22-0.08-0.57,0.23-0.28,0.34c1.92,0.7,3.94,0.6,5.92,0.22c2.12-0.41,4.22-1.27,6.38-1.39
						c2-0.11,3.88,0.76,5.44,1.95c0.8,0.61,1.53,1.3,2.19,2.05c0.74,0.83,1.41,1.79,1.33,2.95C35.69,30.04,36.19,29.98,36.2,29.75
						L36.2,29.75z"/>
				</g>
			</g>
			<g>
				<g>
					<path class="st0" d="M36.49,28.89c-0.02-3.31-1.62-6.59-4.51-8.32c-1.33-0.8-2.88-1.23-4.44-1.21
						c-1.95,0.03-3.84,0.75-5.8,0.55c-0.14-0.01-0.56,0.21-0.3,0.24c1.68,0.17,3.29-0.28,4.95-0.48c1.76-0.21,3.49,0.13,5.03,1.01
						c2.95,1.68,4.56,5.01,4.59,8.33C36.01,29.14,36.49,29.06,36.49,28.89L36.49,28.89z"/>
				</g>
			</g>
			<g>
				<g>
					<path class="st0" d="M20.99,20.22c0.25,1.24-0.99,2.18-2.01,2.58c-1.06,0.41-2.23,0.41-3.34,0.27
						c-0.21-0.03-0.5,0.27-0.18,0.31c1.3,0.16,2.67,0.11,3.89-0.41c1.1-0.47,2.41-1.52,2.13-2.87
						C21.43,19.9,20.95,20.03,20.99,20.22L20.99,20.22z"/>
				</g>
			</g>
			<g>
				<g>
					<path class="st0" d="M13.94,23.84c0.32,0.09,0.52,0.4,0.59,0.7c0.09,0.37,0.02,0.74-0.19,1.05c-0.5,0.74-1.43,0.74-2.22,0.66
						c-0.1-0.01-0.27,0.04-0.32,0.14c-0.05,0.1,0.05,0.15,0.14,0.16c0.82,0.09,1.72,0.07,2.4-0.46c0.56-0.43,0.89-1.13,0.63-1.82
						c-0.13-0.34-0.38-0.62-0.74-0.72c-0.11-0.03-0.26,0.01-0.34,0.09C13.82,23.73,13.84,23.82,13.94,23.84L13.94,23.84z"/>
				</g>
			</g>
		</g>
	</g>
</g>
</svg>
