<?xml version="1.0" encoding="utf-8"?>
<!-- Generator: Adobe Illustrator 24.2.0, SVG Export Plug-In . SVG Version: 6.00 Build 0)  -->
<svg version="1.1" id="Слой_1" xmlns="http://www.w3.org/2000/svg" xmlns:xlink="http://www.w3.org/1999/xlink" x="0px" y="0px"
	 viewBox="0 0 100 88" style="enable-background:new 0 0 100 88;" xml:space="preserve">
<style type="text/css">
	.st0{fill:#003974;}
	.st1{fill:#FFFFFF;}
</style>

<g>
	<g>
		<g>
			<g>
				<path class="st0" d="M43.87,36.93c-3.4,3.28-6.7,8.42-4.12,13.18c1.03,1.9,2.88,3.11,4.84,3.89c2.16,0.87,4.7,1.48,7.03,1.54
					c4.72,0.11,8.16-4.01,8.82-8.41c0.62-4.07-0.97-8.35-4.49-10.62c-3.86-2.49-9.25-2.41-12.96,0.33
					c-0.53,0.39,0.27,0.65,0.63,0.39c3.04-2.24,7.29-2.42,10.63-0.73c3.46,1.74,5.42,5.36,5.35,9.19c-0.03,1.88-0.52,3.75-1.49,5.37
					c-1.1,1.83-2.93,3.5-5.11,3.78c-1.29,0.17-2.6-0.06-3.86-0.32c-0.96-0.19-1.91-0.42-2.85-0.72c-1.85-0.59-3.69-1.5-4.94-3.04
					c-1.62-2.01-1.82-4.75-1.08-7.15c0.78-2.54,2.53-4.62,4.41-6.43C45.09,36.77,44.15,36.66,43.87,36.93L43.87,36.93z"/>
			</g>
		</g>
		<g>
			<g>
				<path class="st0" d="M60.09,10.86c-1.37,1.33-2.75,3.42-1.71,5.36c0.42,0.79,1.18,1.3,2,1.62c0.9,0.35,1.94,0.61,2.92,0.63
					c2.01,0.03,3.59-1.58,3.9-3.5c0.27-1.7-0.39-3.45-1.87-4.38c-1.65-1.05-3.98-0.94-5.55,0.2c-0.53,0.39,0.29,0.54,0.61,0.31
					c1.14-0.83,2.65-0.85,3.89-0.2c1.31,0.69,2.04,2.09,2.01,3.55c-0.03,1.36-0.83,3.33-2.41,3.45c-0.82,0.06-1.75-0.19-2.52-0.46
					c-0.71-0.24-1.39-0.62-1.84-1.23c-1.29-1.75,0.05-3.9,1.36-5.16c0.15-0.15,0.1-0.3-0.1-0.36
					C60.56,10.62,60.24,10.71,60.09,10.86L60.09,10.86z"/>
			</g>
		</g>
		<g>
			<g>
				<path class="st0" d="M33.53,14.77c-1.27,1.16-2.57,3.02-1.55,4.75c0.41,0.69,1.13,1.11,1.86,1.38c0.83,0.3,1.77,0.52,2.66,0.54
					c1.82,0.03,3.37-1.35,3.65-3.12c0.25-1.52-0.43-3.04-1.77-3.83c-1.54-0.9-3.67-0.8-5.13,0.21c-0.14,0.1-0.27,0.27-0.08,0.39
					c0.18,0.11,0.52,0.03,0.69-0.09c1.02-0.71,2.39-0.72,3.49-0.18c1.18,0.57,1.91,1.77,1.89,3.08c-0.02,1.22-0.8,2.86-2.18,2.96
					c-0.74,0.05-1.56-0.17-2.26-0.38c-0.63-0.19-1.25-0.5-1.68-1.01c-0.55-0.65-0.62-1.54-0.38-2.33c0.27-0.88,0.91-1.59,1.58-2.2
					c0.16-0.14,0.09-0.31-0.1-0.36C34,14.53,33.7,14.62,33.53,14.77L33.53,14.77z"/>
			</g>
		</g>
		<g>
			<g>
				<path class="st0" d="M16.04,47.13c-2.03,1.62-4.19,4.36-2.88,7.09c0.51,1.06,1.46,1.8,2.5,2.31c1.16,0.57,2.53,1.04,3.82,1.15
					c2.6,0.23,4.77-1.91,5.36-4.31c0.54-2.22-0.16-4.63-2.01-6.02c-2.07-1.55-5.01-1.66-7.22-0.35c-0.17,0.1-0.25,0.26-0.08,0.39
					c0.17,0.13,0.53,0.01,0.69-0.09c1.7-1.01,3.88-0.77,5.51,0.28c1.69,1.1,2.51,3.11,2.3,5.08c-0.21,1.96-1.62,4.49-3.87,4.45
					c-1.17-0.02-2.46-0.5-3.51-0.99c-0.89-0.41-1.74-0.97-2.29-1.81c-1.7-2.59,0.48-5.44,2.48-7.03c0.17-0.14,0.08-0.3-0.1-0.36
					C16.5,46.87,16.21,46.99,16.04,47.13L16.04,47.13z"/>
			</g>
		</g>
		<g>
			<g>
				<path class="st0" d="M24.25,32.66c-1.16,1.13-2.32,2.9-1.44,4.54c0.36,0.67,1,1.11,1.69,1.38c0.77,0.3,1.65,0.52,2.47,0.54
					c1.73,0.03,3.11-1.34,3.37-3c0.23-1.44-0.33-2.92-1.58-3.72c-1.41-0.9-3.42-0.8-4.75,0.19c-0.14,0.1-0.27,0.27-0.08,0.39
					c0.18,0.11,0.53,0.03,0.69-0.09c0.92-0.68,2.14-0.68,3.14-0.16c1.08,0.57,1.69,1.75,1.67,2.96c-0.01,0.59-0.15,1.19-0.45,1.7
					c-0.31,0.54-0.83,1.1-1.48,1.15c-0.67,0.05-1.44-0.17-2.07-0.39c-0.58-0.2-1.15-0.52-1.52-1.03c-1.07-1.46,0.05-3.25,1.13-4.3
					c0.15-0.15,0.1-0.31-0.1-0.36C24.72,32.42,24.4,32.51,24.25,32.66L24.25,32.66z"/>
			</g>
		</g>
		<g>
			<g>
				<path class="st0" d="M37.43,20.62c2.04,5.2,6.01,9.47,7.47,14.91c0.05,0.2,1.02-0.05,0.97-0.26c-1.46-5.45-5.43-9.72-7.47-14.91
					C38.31,20.15,37.36,20.45,37.43,20.62L37.43,20.62z"/>
			</g>
		</g>
		<g>
			<g>
				<path class="st0" d="M61.06,18.19c-3.61,5.41-6.47,11.29-8.48,17.47c-0.06,0.17,0.87,0.07,0.95-0.17
					c2.01-6.18,4.87-12.07,8.48-17.47c0.1-0.14-0.35-0.09-0.39-0.09C61.45,17.95,61.17,18.02,61.06,18.19L61.06,18.19z"/>
			</g>
		</g>
		<g>
			<g>
				<g>
					<path class="st0" d="M70.97,30.66c-0.99,0.96-1.98,2.46-1.23,3.85c0.31,0.57,0.85,0.95,1.44,1.18
						c0.66,0.26,1.41,0.45,2.12,0.46c1.49,0.03,2.72-1.13,2.95-2.58c0.2-1.23-0.29-2.48-1.35-3.16c-1.22-0.77-2.97-0.68-4.13,0.17
						c-0.14,0.1-0.28,0.27-0.08,0.39c0.18,0.11,0.53,0.03,0.69-0.09c0.75-0.55,1.73-0.55,2.55-0.12c0.9,0.47,1.41,1.45,1.39,2.46
						c-0.01,0.49-0.13,0.99-0.37,1.41c-0.24,0.42-0.65,0.89-1.17,0.93c-0.55,0.04-1.2-0.14-1.72-0.32
						c-0.48-0.17-0.95-0.43-1.26-0.85c-0.89-1.21,0.04-2.7,0.95-3.57c0.15-0.14,0.1-0.31-0.1-0.36
						C71.44,30.42,71.13,30.51,70.97,30.66L70.97,30.66z"/>
				</g>
			</g>
			<g>
				<g>
					<path class="st0" d="M59.02,40.11c1.83-0.81,3.67-1.6,5.52-2.36c0.89-0.37,1.79-0.72,2.68-1.08c0.48-0.19,0.97-0.38,1.45-0.56
						c0.21-0.08,1.16-0.54,1.23-0.49c-0.03-0.06-0.07-0.12-0.1-0.18c0,0.02,0,0.05,0,0.07c0.06-0.07,0.12-0.14,0.18-0.21
						c0.08-0.02,0.15-0.05,0.23-0.07c0.14,0.05,0.28,0.1,0.42,0.15c-0.01-0.02-0.01-0.04-0.02-0.05c-0.1-0.35-1.06-0.08-0.97,0.26
						c0.01,0.02,0.01,0.04,0.02,0.05c0.05,0.16,0.29,0.16,0.42,0.15c0.23-0.02,0.7-0.16,0.68-0.46c-0.02-0.37-0.6-0.3-0.84-0.24
						c-0.59,0.15-1.18,0.43-1.75,0.65c-0.66,0.25-1.31,0.51-1.97,0.77c-2.55,1.01-5.08,2.08-7.59,3.19
						C58.02,39.97,58.58,40.3,59.02,40.11L59.02,40.11z"/>
				</g>
			</g>
		</g>
		<g>
			<g>
				<g>
					<path class="st0" d="M70.12,50.79c-0.03,1.88,0.43,4.15,2.41,4.91c1.91,0.73,4.2-0.52,5.6-1.77c1.44-1.29,1.27-3.42,0.21-4.89
						c-1.04-1.44-2.82-2.16-4.57-1.82c-1.92,0.37-3.62,1.89-3.94,3.86c-0.06,0.39,0.91,0.23,0.97-0.11c0.23-1.4,1.23-2.66,2.6-3.11
						c1.36-0.44,2.78,0.15,3.71,1.17c0.97,1.07,1.53,2.84,0.72,4.17c-0.42,0.69-1.21,1.15-1.89,1.54c-0.75,0.43-1.64,0.8-2.52,0.55
						c-1.93-0.54-2.38-2.87-2.35-4.58C71.1,50.26,70.13,50.45,70.12,50.79L70.12,50.79z"/>
				</g>
			</g>
			<g>
				<g>
					<path class="st0" d="M60.47,48.16c-0.02,0-0.05,0-0.07-0.01c0.06,0.03,0.12,0.07,0.18,0.1c0-0.03-0.01-0.07-0.01-0.1
						c-0.14,0.09-0.28,0.18-0.43,0.27c0.04-0.01,0.08-0.02,0.13-0.03c-0.15,0.01-0.3,0.01-0.44,0.02c1.08,0.26,2.14,0.73,3.19,1.1
						c1.06,0.37,2.11,0.76,3.18,1.1c0.93,0.3,1.89,0.54,2.87,0.56c0.16,0,1.97-0.1,1.48-0.67c-0.17-0.2-0.76,0.02-0.9,0.19
						c-0.01,0.01-0.02,0.02-0.03,0.04c-0.23,0.29,0.72,0.19,0.89-0.03c0.01-0.01,0.02-0.02,0.03-0.04c-0.3,0.06-0.6,0.13-0.9,0.19
						c0.25-0.15,0.25-0.2,0.01-0.15c-0.15,0-0.29,0-0.44-0.01c-0.24-0.02-0.48-0.05-0.72-0.1c-0.51-0.09-1.01-0.24-1.51-0.4
						c-0.97-0.32-1.94-0.67-2.9-1.01c-0.99-0.34-1.97-0.69-2.96-1.03c-0.39-0.13-0.68-0.24-1.08-0.11
						c-0.21,0.07-0.55,0.21-0.42,0.48c0.03,0.07,0.11,0.09,0.18,0.1c0.02,0,0.05,0,0.07,0.01c0.21,0.02,0.52-0.03,0.68-0.18
						C60.67,48.32,60.69,48.18,60.47,48.16L60.47,48.16z"/>
				</g>
			</g>
		</g>
		<g>
			<g>
				<path class="st0" d="M29.76,37.67c3.75,0.36,6.76,3.08,10.32,4.08c0.3,0.08,1.13-0.37,0.59-0.52c-3.66-1.03-6.67-3.72-10.54-4.1
					C29.77,37.1,29.11,37.61,29.76,37.67L29.76,37.67z"/>
			</g>
		</g>
		<g>
			<g>
				<path class="st0" d="M25.35,51.15c0.84-0.72,1.95-0.89,3.01-1.04c1.25-0.17,2.49-0.33,3.74-0.49c2.48-0.32,4.97-0.65,7.45-0.97
					c0.49-0.06,0.79-0.67,0.12-0.58c-2.81,0.37-5.62,0.73-8.43,1.1c-2.21,0.29-4.89,0.27-6.68,1.79c-0.17,0.15-0.07,0.31,0.1,0.38
					C24.88,51.42,25.19,51.29,25.35,51.15L25.35,51.15z"/>
			</g>
		</g>
		<g>
			<g>
				<g>
					<path class="st0" d="M55.58,63.07c0.4,1.37,1.26,2.77,2.84,2.86c1.49,0.09,2.77-1.12,3.52-2.29c0.8-1.25,0.18-2.75-0.96-3.55
						c-1.04-0.73-2.45-0.83-3.59-0.27c-1.29,0.64-2.16,2.03-1.95,3.49c0.05,0.34,1.02,0.12,0.97-0.26
						c-0.14-0.97,0.28-1.99,1.05-2.59c0.74-0.59,1.69-0.51,2.49-0.06c0.89,0.51,1.63,1.63,1.33,2.69c-0.16,0.55-0.61,1.04-1,1.45
						c-0.34,0.35-0.76,0.74-1.26,0.82c-0.58,0.08-1.16-0.29-1.54-0.7c-0.48-0.52-0.74-1.18-0.94-1.85
						C56.45,62.45,55.48,62.72,55.58,63.07L55.58,63.07z"/>
				</g>
			</g>
			<g>
				<g>
					<path class="st0" d="M58.33,59.72c-1.17-1.62-2.34-3.24-3.51-4.86c-0.16-0.22-1.03,0.17-0.97,0.26
						c1.17,1.62,2.34,3.24,3.51,4.86C57.53,60.2,58.4,59.8,58.33,59.72L58.33,59.72z"/>
				</g>
			</g>
		</g>
		<g>
			<g>
				<g>
					<path class="st0" d="M44.68,53.77c-1.97,3.23-4.11,6.35-6.41,9.35c-0.38,0.49,0.53,0.67,0.81,0.31
						c2.34-3.06,4.52-6.24,6.52-9.53c0.13-0.21-0.12-0.4-0.3-0.43C45.05,53.43,44.81,53.56,44.68,53.77L44.68,53.77z"/>
				</g>
			</g>
			<g>
				<g>
					<path class="st0" d="M39.5,63.91c-2.25-1.37-5.02-2.31-7.58-1.23c-1.04,0.44-1.98,1.2-2.41,2.26
						c-0.52,1.29-0.18,2.71,0.36,3.94c1.03,2.33,2.79,4.62,5.42,5.16c2.59,0.53,5.07-1.11,6.41-3.25c0.7-1.11,1.03-2.45,0.7-3.74
						c-0.32-1.24-1.18-2.3-2.37-2.78c-0.22-0.09-0.49-0.06-0.69,0.08c-0.11,0.09-0.3,0.33-0.07,0.42c1.87,0.75,2.67,2.9,2.09,4.76
						c-0.62,1.99-2.8,4.17-5.01,4c-2.27-0.18-3.95-2.02-4.99-3.89c-1.06-1.9-1.9-4.61,0.25-6.1c2.22-1.54,5.1-0.38,7.15,0.87
						C39.04,64.6,39.92,64.17,39.5,63.91L39.5,63.91z"/>
				</g>
			</g>
		</g>
	</g>
	<g>
		<g>
			<path class="st0" d="M56.69,60.84c-0.39,1.18-0.6,2.4-0.63,3.64c-0.01,0.46,0.82,0.32,0.95,0c0.62-1.54,1.24-3.09,1.85-4.63
				c-0.32,0-0.63,0-0.95,0c-0.25,1.66-0.5,3.32-0.74,4.97c-0.07,0.47,0.82,0.29,0.95,0c0.64-1.41,1.29-2.82,1.93-4.23
				c0.2-0.44-0.56-0.43-0.77-0.25c-0.19,0.17-0.3,0.32-0.38,0.56c-0.11,0.35,0.55,0.3,0.7,0.22c0.28-0.14,0.45-0.33,0.54-0.62
				c0.07-0.23-0.29-0.3-0.44-0.29c-0.24,0.02-0.46,0.14-0.54,0.38c-0.46,1.49-0.91,2.98-1.35,4.48c-0.06,0.21,0.24,0.29,0.38,0.29
				c0.2,0,0.48-0.09,0.57-0.29c0.32-0.69,0.65-1.39,0.97-2.08c0.16-0.34,0.32-0.68,0.48-1.02c0.12-0.26,0.23-0.66,0.47-0.83
				c-0.27-0.05-0.54-0.11-0.8-0.16c-0.37,1.3-0.74,2.61-1.11,3.91c-0.06,0.21,0.24,0.29,0.38,0.29c0.22,0,0.45-0.09,0.57-0.29
				c0.48-0.8,0.96-1.6,1.45-2.4c-0.31-0.03-0.61-0.06-0.92-0.09c-0.36,0.77-0.57,1.6-0.6,2.45c-0.02,0.48,0.96,0.33,0.98-0.08
				c0.03-0.79,0.2-1.56,0.54-2.28c0.1-0.21-0.09-0.36-0.29-0.38c-0.24-0.03-0.51,0.08-0.63,0.29c-0.48,0.8-0.96,1.6-1.45,2.4
				c0.32,0,0.63,0,0.95,0c0.37-1.3,0.74-2.61,1.11-3.91c0.04-0.15-0.15-0.26-0.26-0.28c-0.18-0.04-0.39,0.01-0.54,0.12
				c-0.3,0.21-0.45,0.5-0.61,0.83c-0.18,0.39-0.36,0.77-0.54,1.16c-0.35,0.76-0.71,1.51-1.06,2.27c0.32,0,0.63,0,0.95,0
				c0.43-1.5,0.88-2.99,1.35-4.48c-0.33,0.03-0.65,0.06-0.98,0.08c-0.01,0.02-0.01,0.03,0.01,0.01c0.23,0.07,0.46,0.15,0.7,0.22
				c0.01-0.02,0.02-0.05,0.03-0.07c-0.26-0.08-0.52-0.17-0.77-0.25c-0.64,1.41-1.29,2.82-1.93,4.23c0.32,0,0.63,0,0.95,0
				c0.25-1.66,0.5-3.32,0.74-4.97c0.07-0.46-0.83-0.31-0.95,0c-0.62,1.54-1.24,3.09-1.85,4.63c0.32,0,0.63,0,0.95,0
				c0.03-1.24,0.25-2.46,0.63-3.64c0.08-0.23-0.29-0.3-0.44-0.29C56.99,60.48,56.77,60.61,56.69,60.84L56.69,60.84z"/>
		</g>
	</g>
	<g>
		<g>
			<path class="st0" d="M71.33,48.81c-0.31,1.66-0.46,3.34-0.46,5.03c0,0.29,0.89,0,0.96-0.2c0.4-1.07,0.76-2.15,1.07-3.24
				c0.3-1.06,0.58-2.08,1.22-2.99c-0.31,0.03-0.62,0.05-0.92,0.08c-0.4,2.6-0.8,5.19-1.2,7.79c-0.05,0.33,0.89,0.13,0.96-0.14
				c0.72-2.7,1.45-5.41,2.55-7.99c-0.32,0.05-0.64,0.09-0.96,0.14c-0.46,2.64-0.91,5.28-1.37,7.92c-0.06,0.32,0.88,0.13,0.96-0.14
				c0.67-2.31,1.47-4.58,2.38-6.8c-0.32,0.07-0.64,0.13-0.96,0.2c0.11,0.5-0.06,1.02-0.17,1.51c-0.1,0.49-0.2,0.97-0.3,1.46
				c-0.21,1-0.41,2-0.62,3c-0.07,0.32,0.88,0.13,0.96-0.14c0.57-1.83,1.24-3.62,1.99-5.38c-0.32,0.05-0.64,0.09-0.96,0.14
				c-0.48,1.88-0.95,3.75-1.26,5.67c-0.06,0.35,0.86,0.09,0.96-0.14c0.61-1.45,1.23-2.9,1.84-4.35c-0.32,0.05-0.64,0.09-0.96,0.14
				c-0.13,0.77-0.26,1.55-0.38,2.32c-0.09,0.56-0.31,1.23,0.06,1.73c0.17,0.23,0.84-0.04,0.93-0.25c0.3-0.73,0.6-1.46,0.9-2.19
				c-0.32,0.07-0.64,0.13-0.96,0.2c0.12,0.54,0.04,1.08-0.27,1.54c-0.22,0.33,0.73,0.21,0.89-0.02c0.36-0.54,0.49-1.15,0.34-1.78
				c-0.07-0.32-0.88,0-0.96,0.2c-0.3,0.73-0.6,1.46-0.9,2.19c0.31-0.08,0.62-0.17,0.93-0.25c-0.34-0.47-0.03-1.31,0.05-1.82
				c0.11-0.67,0.22-1.34,0.33-2.01c0.06-0.34-0.86-0.09-0.96,0.14c-0.61,1.45-1.23,2.9-1.84,4.35c0.32-0.05,0.64-0.09,0.96-0.14
				c0.31-1.91,0.78-3.79,1.26-5.67c0.08-0.32-0.85-0.1-0.96,0.14c-0.76,1.76-1.42,3.55-1.99,5.38c0.32-0.05,0.64-0.09,0.96-0.14
				c0.22-1.05,0.44-2.1,0.65-3.15c0.11-0.51,0.21-1.03,0.32-1.54c0.1-0.46,0.23-0.93,0.12-1.4c-0.07-0.32-0.88,0-0.96,0.2
				c-0.91,2.22-1.7,4.49-2.38,6.8c0.32-0.05,0.64-0.09,0.96-0.14c0.46-2.64,0.91-5.28,1.37-7.92c0.06-0.34-0.86-0.09-0.96,0.14
				c-1.11,2.58-1.83,5.29-2.55,7.99c0.32-0.05,0.64-0.09,0.96-0.14c0.4-2.6,0.8-5.19,1.2-7.79c0.05-0.36-0.82-0.07-0.92,0.08
				c-0.64,0.91-0.95,1.91-1.25,2.97c-0.32,1.15-0.7,2.28-1.11,3.39c0.32-0.07,0.64-0.13,0.96-0.2c0-1.65,0.15-3.29,0.46-4.92
				C72.35,48.35,71.38,48.52,71.33,48.81L71.33,48.81z"/>
		</g>
	</g>
	<g>
		<g>
			<path class="st0" d="M23.76,33.55c-0.14,1.08-0.11,2.18,0.08,3.25c0.04,0.24,0.41,0.2,0.56,0.18c0.4-0.07,0.59-0.37,0.69-0.73
				c0.12-0.44,0.22-0.89,0.33-1.33c0.22-0.89,0.45-1.78,0.67-2.66c-0.32,0.03-0.65,0.06-0.97,0.09c-0.16,1.89-0.31,3.78-0.12,5.67
				c0.02,0.18,0.31,0.21,0.43,0.2c0.19-0.02,0.42-0.11,0.51-0.29c0.45-0.92,0.74-1.91,0.84-2.93c0.05-0.47-0.94-0.32-0.97,0.09
				c-0.09,0.96-0.35,1.89-0.78,2.76c0.31-0.03,0.63-0.06,0.94-0.09c-0.18-1.83-0.03-3.67,0.13-5.5c0.04-0.49-0.88-0.28-0.97,0.09
				c-0.18,0.73-0.37,1.46-0.55,2.19c-0.09,0.36-0.18,0.71-0.27,1.07c-0.04,0.18-0.09,0.36-0.13,0.53c-0.02,0.09-0.04,0.18-0.07,0.27
				c-0.06,0.19-0.09,0.02,0.14-0.02c0.19,0.06,0.38,0.12,0.56,0.18c-0.18-1.02-0.2-2.05-0.07-3.08
				C24.79,33.01,23.81,33.15,23.76,33.55L23.76,33.55z"/>
		</g>
	</g>
	<g>
		<g>
			<path class="st0" d="M25.99,32.93c-0.26,1.57-0.35,3.15-0.27,4.74c0.01,0.19,0.9-0.04,0.96-0.22c0.43-1.34,0.64-2.73,0.64-4.14
				c0-0.16-0.95-0.01-0.97,0.26c-0.09,1.53-0.18,3.05-0.27,4.58c-0.01,0.15,0.91,0,0.96-0.22c0.33-1.49,0.66-2.99,0.99-4.48
				c0.05-0.21-0.88-0.06-0.95,0.17c-0.42,1.35-0.62,2.76-0.59,4.17c0,0.18,0.9-0.03,0.96-0.22c0.44-1.46,0.8-2.93,1.09-4.42
				c0.04-0.21-0.89-0.06-0.95,0.17c-0.41,1.64-0.62,3.33-0.61,5.03c0,0.18,0.9-0.03,0.96-0.22c0.46-1.44,0.85-2.91,1.16-4.39
				c-0.32,0.07-0.64,0.14-0.96,0.22c-0.1,0.75-0.2,1.49-0.3,2.24c-0.05,0.36-0.11,0.73-0.14,1.09c-0.02,0.23,0.02,0.45,0.28,0.5
				c0.19,0.04,0.79-0.04,0.87-0.27c0.24-0.7,0.48-1.41,0.72-2.11c-0.32,0.07-0.64,0.14-0.96,0.22c0.04,0.77-0.03,1.53-0.19,2.28
				c-0.05,0.2,0.9,0.07,0.95-0.17c0.17-0.78,0.24-1.57,0.21-2.37c-0.01-0.19-0.9,0.04-0.96,0.22c-0.24,0.7-0.48,1.41-0.72,2.11
				c0.29-0.09,0.58-0.18,0.87-0.27c-0.21-0.04-0.08-0.58-0.06-0.7c0.04-0.33,0.09-0.66,0.13-0.99c0.09-0.68,0.18-1.35,0.27-2.03
				c0.02-0.13-0.91-0.01-0.96,0.22c-0.31,1.48-0.7,2.95-1.16,4.39c0.32-0.07,0.64-0.14,0.96-0.22c0-1.67,0.2-3.32,0.6-4.94
				c-0.32,0.06-0.63,0.11-0.95,0.17c-0.29,1.49-0.65,2.97-1.09,4.42c0.32-0.07,0.64-0.14,0.96-0.22c-0.03-1.39,0.17-2.76,0.58-4.09
				c-0.32,0.06-0.63,0.11-0.95,0.17c-0.33,1.49-0.66,2.99-0.99,4.48c0.32-0.07,0.64-0.14,0.96-0.22c0.09-1.53,0.18-3.05,0.27-4.58
				c-0.32,0.09-0.64,0.17-0.97,0.26c0.01,1.38-0.2,2.74-0.62,4.05c0.32-0.07,0.64-0.14,0.96-0.22c-0.08-1.56,0-3.11,0.26-4.65
				C26.98,32.54,26.03,32.7,25.99,32.93L25.99,32.93z"/>
		</g>
	</g>
	<g>
		<g>
			<path class="st0" d="M58.44,12.21c-0.12,1.34,0.01,2.69,0.39,3.98c0.11,0.37,0.91,0.13,0.97-0.18c0.31-1.74,0.62-3.47,0.92-5.21
				c-0.32,0.03-0.65,0.07-0.97,0.1c-0.12,1.68-0.03,3.37,0.26,5.03c0.07,0.42,0.88,0.07,0.97-0.18c0.61-1.67,0.91-3.43,0.89-5.21
				c0-0.44-0.95-0.26-0.97,0.1c-0.11,2.08-0.01,4.16,0.31,6.21c0.06,0.39,0.9,0.1,0.97-0.18c0.55-2.24,0.89-4.52,1.02-6.82
				c-0.32,0.03-0.65,0.07-0.97,0.1c-0.07,2.56-0.02,5.13,0.16,7.68c0.03,0.39,0.9,0.1,0.97-0.18c0.56-2.24,1.02-4.51,1.37-6.8
				c-0.32,0.03-0.65,0.07-0.97,0.1c0,2.25,0,4.5,0,6.75c0,0.47,0.87,0.22,0.97-0.1c0.53-1.72,0.91-3.47,1.15-5.26
				c-0.32,0.03-0.65,0.07-0.97,0.1c0.03,1.45,0.01,2.9-0.06,4.35c-0.02,0.44,0.95,0.26,0.97-0.1c0.07-1.45,0.09-2.9,0.06-4.35
				c-0.01-0.44-0.92-0.26-0.97,0.1c-0.24,1.78-0.62,3.54-1.15,5.26c0.32-0.03,0.65-0.07,0.97-0.1c0-2.25,0-4.5,0-6.75
				c0-0.44-0.92-0.25-0.97,0.1c-0.35,2.29-0.81,4.56-1.37,6.8c0.32-0.06,0.65-0.12,0.97-0.18c-0.17-2.51-0.22-5.02-0.15-7.53
				c0.01-0.44-0.95-0.26-0.97,0.1c-0.13,2.3-0.47,4.58-1.02,6.82c0.32-0.06,0.65-0.12,0.97-0.18c-0.32-2.01-0.42-4.03-0.31-6.06
				c-0.32,0.03-0.65,0.07-0.97,0.1c0.01,1.78-0.29,3.53-0.89,5.21c0.32-0.06,0.65-0.12,0.97-0.18c-0.29-1.61-0.38-3.24-0.26-4.87
				c0.03-0.44-0.91-0.25-0.97,0.1c-0.31,1.74-0.62,3.47-0.92,5.21c0.32-0.06,0.65-0.12,0.97-0.18c-0.37-1.25-0.5-2.53-0.39-3.83
				C59.45,11.68,58.48,11.85,58.44,12.21L58.44,12.21z"/>
		</g>
	</g>
	<g>
		<g>
			<path class="st0" d="M45.52,36.42c0.21,0,0.55-0.06,0.63-0.28c0.07-0.2-0.07-0.36-0.28-0.36c-0.21,0-0.55,0.06-0.63,0.28
				C45.16,36.26,45.3,36.42,45.52,36.42L45.52,36.42z"/>
		</g>
	</g>
	<g>
		<g>
			<path class="st0" d="M45.51,36.38c0.19,0,0.56-0.06,0.64-0.27c0.07-0.2-0.06-0.3-0.27-0.3c-0.19,0-0.56,0.06-0.64,0.27
				C45.17,36.28,45.3,36.38,45.51,36.38L45.51,36.38z"/>
		</g>
	</g>
</g>
</svg>
