<?xml version="1.0" encoding="utf-8"?>
<!-- Generator: Adobe Illustrator 24.2.0, SVG Export Plug-In . SVG Version: 6.00 Build 0)  -->
<svg version="1.1" id="Слой_1" xmlns="http://www.w3.org/2000/svg" xmlns:xlink="http://www.w3.org/1999/xlink" x="0px" y="0px"
	 viewBox="0 0 95 88" style="enable-background:new 0 0 95 88;" xml:space="preserve">
<style type="text/css">
	.st0{fill:#003974;}
	.st1{fill:#FFFFFF;}
</style>

<g>
	<g>
		<g>
			<g>
				<path class="st0" d="M36.03,20c-0.2,0.41-0.38,0.94-0.15,1.38c0.22,0.42,0.69,0.57,1.14,0.56c0.56-0.01,1.11-0.22,1.54-0.58
					c0.34-0.28,0.6-0.73,0.51-1.18c-0.05-0.25-0.21-0.46-0.41-0.61c-0.27-0.2-0.61-0.2-0.93-0.14c-0.16,0.03-0.47,0.19-0.41,0.4
					c0.06,0.22,0.4,0.17,0.55,0.14c-0.13,0.03-0.08,0.02-0.05,0.01c-0.01,0-0.12,0-0.04,0.01c0,0-0.09-0.01-0.04,0
					c0.01,0,0.07,0.02,0.02,0c-0.05-0.01,0.04,0.02,0.06,0.03c0.02,0.01,0.03,0.02,0.05,0.03c-0.04-0.03-0.01-0.01,0.01,0.01
					c0.12,0.12,0.17,0.19,0.21,0.35c0.01,0.03,0.01,0.07,0.02,0.1c0,0.01,0,0.07,0,0.04c0-0.03,0,0.02,0,0.02
					c-0.01,0.08-0.03,0.16-0.06,0.24c0.02-0.05,0,0-0.01,0.01c-0.01,0.02-0.02,0.04-0.03,0.06c-0.02,0.03-0.04,0.06-0.06,0.09
					c-0.01,0.01-0.04,0.06-0.02,0.03c0.03-0.03-0.01,0.01-0.01,0.01c-0.03,0.04-0.07,0.07-0.1,0.1c-0.02,0.01-0.03,0.03-0.05,0.04
					c-0.04,0.03,0.02-0.02,0.02-0.02c-0.01,0.03-0.08,0.06-0.11,0.08c-0.02,0.01-0.04,0.02-0.06,0.03c-0.01,0.01-0.06,0.03,0,0
					c0.06-0.03,0,0-0.02,0.01c-0.02,0.01-0.05,0.02-0.07,0.03c-0.02,0.01-0.13,0.05-0.05,0.02c0.09-0.03-0.05,0.01-0.07,0.02
					c-0.01,0-0.03,0.01-0.04,0.01c-0.08,0.02,0.04-0.01,0.04-0.01c-0.03-0.01-0.1,0.01-0.13,0.02c-0.05,0.01,0.05,0,0.05,0
					c-0.02,0-0.04,0-0.06,0c-0.02,0-0.1,0.01-0.12-0.01c0,0,0.09,0.02,0.04,0c-0.02-0.01-0.04-0.01-0.06-0.01
					c-0.01,0-0.03-0.01-0.04-0.01c-0.03-0.01-0.09-0.04-0.02,0c-0.03-0.02-0.06-0.03-0.09-0.04c-0.02-0.01-0.08-0.06-0.04-0.02
					c-0.06-0.05-0.11-0.11-0.15-0.17c-0.17-0.3-0.03-0.74,0.11-1.03c0.1-0.2-0.09-0.32-0.27-0.32C36.47,19.72,36.13,19.8,36.03,20
					L36.03,20z"/>
			</g>
		</g>
		<g>
			<g>
				<path class="st0" d="M54.33,18.42c-0.36-0.1-0.81,0.01-1.1,0.25c-0.19,0.15-0.31,0.35-0.42,0.57c-0.1,0.21-0.19,0.45-0.13,0.69
					c0.05,0.2,0.21,0.38,0.39,0.49c0.51,0.3,1.16,0.23,1.68-0.02c0.39-0.18,0.72-0.54,0.77-0.98c0.03-0.22,0-0.45-0.12-0.64
					c-0.14-0.22-0.35-0.35-0.61-0.39c-0.22-0.03-0.51,0.04-0.68,0.18c-0.05,0.04-0.12,0.1-0.11,0.17c0.02,0.07,0.12,0.09,0.18,0.1
					c0.06,0.01,0,0-0.01-0.01c0.02,0.01,0.03,0.01,0.05,0.02c0.02,0.01,0.03,0.01,0.05,0.02c-0.04-0.02,0,0,0,0
					c0.06,0.05,0.11,0.09,0.16,0.15c0.08,0.1,0.12,0.25,0.14,0.38c0.01,0.13-0.01,0.26-0.06,0.39c-0.01,0.03-0.03,0.07-0.04,0.1
					c0,0.01-0.05,0.09-0.03,0.06c-0.04,0.06-0.09,0.12-0.14,0.17c-0.03,0.04,0.05-0.03,0.01-0.01c-0.01,0.01-0.03,0.02-0.04,0.03
					c-0.08,0.06,0.07-0.03-0.02,0.02c-0.1,0.05,0.07-0.03,0,0c-0.08,0.04,0.05-0.02,0.05-0.02c-0.01,0-0.03,0.01-0.04,0.01
					c-0.04,0.01-0.02,0,0.06-0.01c-0.01,0-0.04,0.01-0.05,0.01c0.01,0,0.11,0,0.04-0.01c-0.01,0-0.04,0-0.05,0
					c0.01,0,0.09,0.01,0.02,0c-0.03,0-0.06-0.01-0.09-0.01c-0.05-0.01,0.05,0.02,0.01,0c-0.02-0.01-0.04-0.01-0.07-0.02
					c-0.03-0.01-0.07-0.03-0.1-0.04c-0.05-0.02-0.02-0.01-0.01,0c-0.02-0.01-0.03-0.02-0.05-0.03c-0.07-0.04-0.13-0.09-0.19-0.15
					c-0.1-0.11-0.16-0.27-0.13-0.43c0.04-0.19,0.12-0.37,0.22-0.54c-0.02,0.03,0.01-0.01,0.01-0.01c0.02-0.02,0.03-0.05,0.05-0.07
					c0.03-0.03,0.05-0.06,0.08-0.09c0.02-0.03-0.01,0.01-0.02,0.01c0.02-0.02,0.09-0.05-0.01,0c-0.04,0.02-0.1,0.04-0.15,0.05
					c-0.08,0.02-0.19,0.04-0.27,0.02c0.22,0.06,0.49,0,0.68-0.11c0.07-0.04,0.17-0.09,0.19-0.17
					C54.43,18.49,54.39,18.44,54.33,18.42L54.33,18.42z"/>
			</g>
		</g>
		<g>
			<g>
				<path class="st0" d="M41.13,34.34c-0.37-0.06-0.86,0.1-1.12,0.38c-0.17,0.19-0.26,0.43-0.32,0.67
					c-0.12,0.48-0.27,1.27,0.24,1.59c0.28,0.18,0.65,0.2,0.97,0.18c0.4-0.03,0.8-0.14,1.16-0.32c0.55-0.28,1.12-0.82,1.05-1.49
					c-0.03-0.3-0.22-0.59-0.46-0.76c-0.32-0.22-0.71-0.26-1.09-0.28c-0.23-0.01-0.49,0.05-0.68,0.18c-0.05,0.03-0.13,0.09-0.11,0.16
					c0.02,0.06,0.12,0.08,0.17,0.08c0.24,0.01,0.48,0.02,0.7,0.13c0.18,0.09,0.33,0.25,0.42,0.43c0.2,0.43,0.03,0.89-0.3,1.19
					c-0.07,0.06-0.15,0.13-0.24,0.18c0.05-0.03-0.01,0-0.01,0.01c-0.02,0.01-0.05,0.02-0.07,0.03c0.09-0.04,0.01,0-0.02,0
					c-0.06,0.02-0.05,0.04,0,0c-0.01,0-0.13,0.03-0.05,0.01c0.07-0.01-0.01,0-0.03,0c-0.07,0.01,0.07,0,0,0c-0.03,0-0.06,0-0.1,0.01
					c0.07,0-0.07-0.01-0.09-0.01c-0.07-0.01-0.07-0.01-0.14-0.02c-0.48-0.13-0.48-0.68-0.43-1.09c0.03-0.23,0.08-0.47,0.17-0.69
					c0.03-0.08,0.08-0.18,0.12-0.24c0.01-0.02,0.03-0.03,0.05-0.05c0.04-0.05-0.02,0.01,0-0.01c0,0,0.01,0,0.01-0.01
					c-0.1,0.06-0.2,0.1-0.32,0.11c-0.03,0-0.22-0.01-0.1,0.02c0.22,0.04,0.51-0.06,0.68-0.18c0.05-0.03,0.13-0.09,0.11-0.16
					C41.29,34.36,41.19,34.35,41.13,34.34L41.13,34.34z"/>
			</g>
		</g>
		<g>
			<g>
				<path class="st0" d="M25.37,29.78c-0.15,0.16-0.26,0.37-0.28,0.59c-0.02,0.22,0.03,0.42,0.13,0.62
					c0.11,0.21,0.31,0.34,0.53,0.42c0.34,0.12,0.71,0.07,1.04-0.06c0.44-0.17,0.78-0.59,0.8-1.07c0.01-0.23-0.04-0.42-0.15-0.62
					c-0.11-0.2-0.31-0.33-0.52-0.41c-0.24-0.1-0.52-0.12-0.77-0.08c-0.34,0.06-0.67,0.19-0.91,0.45c-0.06,0.06-0.11,0.16-0.08,0.25
					c0.02,0.09,0.12,0.15,0.2,0.17c0.23,0.06,0.52-0.01,0.68-0.18c0.02-0.02,0.03-0.03,0.05-0.05c0.05-0.05-0.1,0.08-0.02,0.02
					c0.01-0.01,0.03-0.02,0.04-0.03c0.06-0.04-0.13,0.07-0.04,0.02c0.02-0.01,0.04-0.02,0.06-0.03c0.07-0.03-0.14,0.04-0.06,0.02
					c0.02-0.01,0.04-0.01,0.06-0.02c0.1-0.02-0.1,0.01-0.06,0.01c0.04,0,0.08-0.01,0.12-0.01c-0.18,0.01-0.04,0,0.01,0.01
					c0.01,0,0.02,0,0.03,0c0.04,0.01,0.02,0-0.06-0.01c0.02,0,0.03,0.01,0.05,0.01c0.04,0.01,0.08,0.03,0.12,0.04
					c-0.03-0.01-0.06-0.03-0.09-0.04c0.08,0.03,0.15,0.08,0.21,0.13c-0.02-0.02-0.05-0.04-0.07-0.06c0.07,0.06,0.13,0.14,0.17,0.22
					c-0.01-0.03-0.03-0.05-0.04-0.08c0.05,0.11,0.08,0.22,0.09,0.34c0-0.03,0-0.06,0-0.08c0,0.12-0.01,0.24-0.05,0.35
					c0.01-0.03,0.02-0.06,0.03-0.08c-0.03,0.08-0.07,0.16-0.12,0.23c0.02-0.03,0.04-0.05,0.06-0.08c-0.02,0.03-0.04,0.05-0.07,0.08
					c-0.01,0.01-0.02,0.02-0.03,0.03c-0.03,0.03,0.1-0.08,0.04-0.03c-0.02,0.01-0.03,0.02-0.05,0.03c-0.04,0.02-0.08,0.03,0.04-0.02
					c-0.02,0.01-0.04,0.02-0.06,0.03c-0.07,0.04,0.13-0.04,0.05-0.02c-0.02,0.01-0.04,0.01-0.06,0.02
					c-0.08,0.02,0.14-0.02,0.05-0.01c-0.02,0-0.04,0-0.06,0.01c-0.08,0.01,0.12,0.01,0.04,0c-0.02,0-0.04,0-0.06,0
					c-0.01,0-0.03,0-0.04-0.01c0.02,0,0.05,0.01,0.07,0.01c-0.03,0.01-0.11-0.03-0.13-0.04c0.03,0.01,0.06,0.03,0.09,0.04
					c-0.06-0.03-0.12-0.06-0.17-0.1c0.02,0.02,0.05,0.04,0.07,0.06c-0.07-0.06-0.12-0.13-0.16-0.21c0.01,0.03,0.03,0.05,0.04,0.08
					c-0.05-0.1-0.08-0.21-0.09-0.32c0,0.03,0,0.06,0,0.08c0-0.1,0.01-0.2,0.04-0.3c-0.01,0.03-0.02,0.06-0.03,0.08
					c0.02-0.06,0.05-0.12,0.09-0.17c-0.02,0.03-0.04,0.05-0.06,0.08c0.02-0.03,0.04-0.05,0.06-0.07c0.06-0.06,0.11-0.16,0.08-0.25
					c-0.02-0.09-0.12-0.15-0.2-0.17C25.82,29.53,25.54,29.6,25.37,29.78L25.37,29.78z"/>
			</g>
		</g>
		<g>
			<g>
				<path class="st0" d="M68.68,26.76c-0.09-0.38-0.67-0.29-0.92-0.19c-0.25,0.1-0.45,0.28-0.59,0.51c-0.2,0.33-0.29,0.72-0.21,1.1
					c0.08,0.4,0.38,0.7,0.77,0.83c0.49,0.17,1.02,0.12,1.5-0.06c0.42-0.16,0.79-0.46,0.97-0.88c0.14-0.33,0.09-0.73-0.08-1.03
					c-0.19-0.36-0.52-0.61-0.93-0.68c-0.54-0.09-1.14,0.07-1.56,0.42c-0.33,0.27-0.49,0.67-0.43,1.09c0.06,0.39,0.33,0.72,0.7,0.85
					c0.84,0.29,2.2-0.24,1.99-1.3c-0.19-1.02-1.61-0.93-2.2-0.33c-0.14,0.15-0.26,0.33-0.28,0.54c-0.01,0.21,0.04,0.39,0.15,0.56
					c0.3,0.45,0.91,0.47,1.37,0.28c0.38-0.16,0.77-0.55,0.67-1c-0.04-0.21-0.21-0.38-0.4-0.46c-0.33-0.14-0.74-0.07-1.05,0.1
					c-0.2,0.11-0.4,0.32-0.41,0.56c-0.01,0.22,0.12,0.38,0.32,0.47c0.31,0.13,0.7,0.06,0.98-0.11c0.2-0.12,0.35-0.33,0.29-0.57
					c-0.05-0.19-0.22-0.32-0.41-0.35c-0.17-0.02-0.33,0-0.49,0.07c-0.09,0.04-0.29,0.14-0.29,0.26c0,0.07,0,0.15-0.01,0.22
					c0,0.21,0.26,0.22,0.42,0.2c0.13-0.02,0.26-0.05,0.37-0.12c0.06-0.04,0.18-0.12,0.18-0.2c0-0.07,0-0.15,0.01-0.22
					c-0.26,0.11-0.52,0.21-0.78,0.32c0.02,0,0.04,0.01,0,0c-0.01,0-0.02,0-0.02-0.01c0.02,0.01,0.03,0.01,0.01,0
					c0-0.01-0.02-0.02,0,0c0.01,0.01,0.02,0.02,0.02,0.02c0.01,0.01,0.03,0.05,0.01,0.02c-0.01-0.03,0,0.01,0,0.01
					c0.01,0.03,0.02,0.06,0.02,0.09c0.01,0.04,0.01-0.01,0,0.02c0,0.01-0.01,0.03-0.01,0.04c0,0,0.03-0.05,0.01-0.02
					c-0.02,0.03,0.03-0.02,0.03-0.02c0.03-0.03,0.08-0.05,0.12-0.07c0.07-0.03,0.15-0.05,0.22-0.05c0.02,0,0.04,0,0.07,0
					c0.03,0,0.04,0.01,0.02,0c-0.04-0.01,0.03,0.01,0.03,0.01c-0.01-0.01-0.03-0.01-0.05-0.02c-0.04-0.02,0.01,0.02-0.02-0.01
					c-0.01-0.01-0.05-0.06-0.04-0.05c0.01,0.02,0-0.01,0-0.02c-0.01-0.02-0.01-0.04-0.02-0.07c0-0.03,0-0.01,0,0
					c0-0.01,0-0.03,0.01-0.04c0-0.01,0.03-0.09,0.01-0.05c0.01-0.01,0.06-0.09,0.03-0.06c-0.03,0.03,0,0,0.01-0.01
					c-0.03,0.02-0.07,0.04-0.1,0.06c-0.08,0.03-0.15,0.03-0.23,0.04c-0.06,0.01,0-0.01,0.01,0c0,0.01-0.08-0.04,0,0
					c0.06,0.03,0.07,0.04,0.13,0.11c0.03,0.03,0.05,0.08,0.06,0.13c0.01,0.03,0.01,0.06,0.01,0.09c0-0.04-0.01,0.05-0.01,0.06
					c0,0.03-0.01,0.05-0.02,0.08c0,0.01-0.01,0.02-0.01,0.04c-0.01,0.04,0.02-0.04,0,0c-0.01,0.02-0.03,0.05-0.04,0.07
					c-0.01,0.01-0.02,0.03-0.03,0.04c-0.02,0.04,0.04-0.03,0.01-0.01c-0.01,0.01-0.02,0.02-0.03,0.03c-0.04,0.04,0-0.03,0.02-0.02
					c-0.01-0.01-0.09,0.05,0.02,0c-0.03,0.02-0.08,0.02,0.05-0.02c-0.01,0,0.12-0.02,0.07-0.01c-0.05,0.01,0.06,0,0.06,0
					c-0.08,0,0.06,0,0.01,0c-0.01,0-0.03-0.01-0.04-0.01c0.01,0,0.05,0.03,0.02,0.01c-0.02-0.02-0.06-0.03-0.09-0.04
					c-0.05-0.02,0.01,0.02-0.03-0.02c-0.03-0.03-0.05-0.05-0.08-0.08c-0.02-0.02-0.04-0.05-0.06-0.08
					c-0.01-0.01-0.02-0.02-0.02-0.04c0,0.01,0.01,0.02,0,0c-0.03-0.06-0.05-0.13-0.07-0.2c-0.01-0.06-0.01-0.1-0.01-0.14
					c0.01-0.03,0.01-0.06,0.02-0.1c0-0.01,0.01-0.03,0.01-0.04c0-0.01,0.02-0.06,0.01-0.03c-0.01,0.02,0.03-0.04,0.04-0.06
					c0.01-0.02,0.03-0.04,0.05-0.06c-0.05,0.07,0,0,0.02-0.01c0,0,0.03-0.02,0.03-0.02c-0.05,0.03-0.06,0.04-0.03,0.03
					c0.01,0,0.01-0.01,0.02-0.01c0-0.01,0.03-0.01,0.03-0.02c0,0-0.11,0.05-0.04,0.02c0.08-0.04-0.11,0.03-0.03,0.01
					c0.08-0.02-0.13,0.01-0.01,0c0.1-0.01-0.08,0,0,0c0.07,0-0.08-0.02,0.01,0c0.03,0.01,0.1,0.04,0.03,0
					c0.02,0.01,0.05,0.02,0.07,0.03c0.02,0.01,0.03,0.02,0.05,0.03c-0.03-0.01-0.02-0.01,0,0c0.05,0.04,0.09,0.08,0.12,0.12
					c0.02,0.02,0.04,0.05,0.05,0.08c-0.02-0.03,0.02,0.05,0.03,0.06c0.02,0.05,0.04,0.11,0.05,0.17c0.01,0.05,0.02,0.14,0.02,0.17
					c0,0.02-0.01,0.11-0.02,0.15c-0.01,0.03-0.02,0.06-0.03,0.09c0,0.01-0.01,0.03-0.01,0.04c0.02-0.04,0,0-0.01,0.01
					c-0.01,0.02-0.03,0.05-0.04,0.07c-0.01,0.01-0.04,0.06-0.01,0.02c0.03-0.03,0,0-0.01,0.01c-0.01,0.01-0.06,0.06-0.06,0.05
					c-0.01,0,0.08-0.05,0.02-0.02c-0.01,0.01-0.04,0.02-0.05,0.03c0,0,0.11-0.05,0.03-0.02c-0.02,0.01-0.07,0.02,0.01,0
					c0.12-0.04-0.1,0.02,0.02,0c0.11-0.02-0.04,0-0.05,0c0,0,0.1,0,0.05,0c-0.02,0-0.05,0-0.07,0c-0.08,0,0.07,0.02,0,0
					c-0.02,0-0.04-0.01-0.06-0.01c-0.01,0-0.05-0.01-0.01,0c0.04,0.01,0,0-0.01,0c-0.02-0.01-0.03-0.01-0.05-0.02
					c-0.03-0.01-0.06-0.03-0.09-0.05c-0.04-0.02,0.03,0.03-0.01,0c-0.01-0.01-0.02-0.02-0.03-0.03c-0.03-0.02-0.05-0.04-0.07-0.07
					c-0.02-0.02-0.04-0.04-0.06-0.07c-0.02-0.03-0.04-0.05-0.04-0.06c-0.06-0.11-0.1-0.24-0.12-0.37c-0.01-0.11,0-0.23,0.04-0.36
					c0.01-0.02,0.03-0.09,0.03-0.07c-0.01,0.02,0.02-0.04,0.03-0.05c0.02-0.03,0.04-0.06,0.06-0.09c0,0,0.03-0.04,0.01-0.01
					c-0.03,0.04,0.03-0.03,0.03-0.03c0.01-0.01,0.07-0.05,0.07-0.06c0,0.01-0.09,0.05-0.01,0.01c0.01-0.01,0.03-0.02,0.04-0.02
					c0.01-0.01,0.03-0.01,0.04-0.02c0,0-0.09,0.04-0.04,0.02c0.02-0.01,0.04-0.01,0.06-0.02c0.06-0.03-0.1,0.03-0.04,0.01
					c0.01,0,0.03-0.01,0.04-0.01c0.08-0.02-0.03,0.01-0.04,0.01c0.02,0,0.07,0,0.09-0.01c-0.08,0.02-0.07,0-0.03,0
					c0.02,0,0.03,0,0.05,0c0.01,0,0.04,0.01,0.05,0c-0.03,0.01-0.08-0.01,0,0c0.01,0,0.1,0.02,0.06,0.01
					c-0.04-0.01,0.05,0.02,0.06,0.02c0.03,0.01,0.05,0.02,0.07,0.04c0.01,0.01,0.1,0.06,0.05,0.03c0.1,0.08,0.19,0.17,0.27,0.27
					c0.03,0.05,0.04,0.06,0.07,0.12c0.03,0.06,0.05,0.12,0.07,0.18c0.02,0.06,0.03,0.12,0.04,0.19c0,0.03,0.01,0.05,0.01,0.08
					c0,0.05,0,0.02,0,0.07c-0.01,0.06-0.01,0.12-0.03,0.17c-0.01,0.03-0.02,0.06-0.03,0.09c-0.01,0.01-0.04,0.09-0.02,0.05
					c-0.03,0.06-0.07,0.12-0.11,0.17c-0.02,0.03-0.06,0.06-0.01,0.02c-0.03,0.03-0.05,0.05-0.08,0.08
					c-0.01,0.01-0.02,0.02-0.03,0.03c-0.04,0.04,0.07-0.04,0.02-0.01c-0.02,0.01-0.05,0.03-0.07,0.05c-0.1,0.06,0.07-0.03-0.01,0
					c-0.04,0.01-0.07,0.03-0.11,0.04c0,0,0.11-0.03,0.06-0.02c-0.01,0-0.03,0.01-0.04,0.01c-0.02,0-0.04,0.01-0.06,0.01
					c0,0,0.11-0.02,0.06-0.01c-0.03,0-0.07,0.01-0.1,0.01c-0.08,0.01,0.1,0-0.01,0c-0.02,0-0.08,0.01-0.1,0c0,0,0.08,0.01,0.04,0
					c-0.01,0-0.03,0-0.04-0.01c-0.03-0.01-0.07-0.01-0.1-0.02c-0.01,0-0.03-0.01-0.04-0.01c0.05,0.01-0.01,0-0.03-0.01
					c-0.14-0.05-0.23-0.11-0.33-0.21c-0.09-0.1-0.12-0.16-0.16-0.29c-0.02-0.06-0.03-0.11-0.04-0.17c0-0.03-0.01-0.06-0.01-0.1
					c0-0.01,0-0.03,0-0.04c0-0.05,0,0.03,0-0.02c0-0.13,0.03-0.27,0.07-0.39c0.01-0.03,0.02-0.06,0.03-0.09
					c0.01-0.01,0.04-0.08,0.01-0.03c0.03-0.06,0.06-0.12,0.1-0.17c0.02-0.03,0.04-0.05,0.06-0.08c0.02-0.03-0.01,0.01-0.01,0.01
					c0.01-0.01,0.03-0.04,0.05-0.04c-0.13,0.05,0.15-0.01-0.25,0.07c-0.42,0.09-0.12,0.02-0.25,0.03c-0.06,0.01,0.01-0.03,0,0
					c0,0.01-0.02-0.07,0,0.01c0.02,0.08,0.12,0.12,0.19,0.13c0.11,0.02,0.25,0.01,0.36-0.02C68.4,27.08,68.72,26.96,68.68,26.76
					L68.68,26.76z"/>
			</g>
		</g>
		<g>
			<g>
				<path class="st0" d="M41.69,20.57c-1.4,0.77-2.4,2.04-2.78,3.6c-0.37,1.54-0.33,3.31,0.05,4.84c0.39,1.53,1.33,2.73,2.84,3.24
					c1.47,0.5,3.16,0.39,4.66,0.07c1.41-0.3,2.78-0.84,3.92-1.73c1.36-1.08,2.07-2.63,2.42-4.3c0.34-1.64,0.23-3.33-0.77-4.72
					c-0.83-1.14-2.05-1.95-3.39-2.37c-3.39-1.04-7.17,0.68-9.34,3.3c-0.19,0.23,0.72,0.11,0.88-0.07c1.84-2.22,4.68-3.73,7.58-2.88
					c2.63,0.76,4.46,3.08,4.25,5.84c-0.11,1.49-0.6,3.14-1.54,4.32c-0.88,1.09-2.14,1.81-3.48,2.16c-1.34,0.35-2.85,0.45-4.19,0.06
					c-1.43-0.42-2.36-1.51-2.78-2.91c-0.88-2.93-0.48-6.82,2.42-8.42c0.2-0.11,0.07-0.17-0.06-0.21
					C42.18,20.33,41.85,20.48,41.69,20.57L41.69,20.57z"/>
			</g>
		</g>
		<g>
			<g>
				<path class="st0" d="M19.67,37.34c-1.33,0.79-1.52,2.55-1.13,3.94c0.18,0.65,0.6,1.16,1.26,1.38c0.67,0.22,1.44,0.15,2.11,0
					c0.7-0.16,1.4-0.45,1.93-0.95c0.55-0.52,0.82-1.24,0.93-1.97c0.11-0.71,0.05-1.43-0.37-2.03c-0.36-0.51-0.88-0.88-1.47-1.07
					c-1.57-0.5-3.35,0.39-4.3,1.64c-0.11,0.14,0.36,0.1,0.39,0.1c0.2-0.03,0.44-0.1,0.57-0.27c0.34-0.45,0.79-0.85,1.31-1.07
					c0.44-0.18,0.93-0.14,1.37,0.03c1.07,0.41,1.68,1.45,1.59,2.58c-0.09,1.14-0.63,2.33-1.81,2.66c-0.48,0.13-1.03,0.14-1.5-0.04
					c-0.55-0.21-0.87-0.69-1.03-1.24c-0.34-1.2-0.28-2.94,0.91-3.65c0.17-0.1,0.11-0.2-0.06-0.21
					C20.14,37.13,19.86,37.23,19.67,37.34L19.67,37.34z"/>
			</g>
		</g>
		<g>
			<g>
				<g>
					<path class="st0" d="M59.17,21.75c-0.75,0.43-1.27,1.12-1.45,1.96c-0.16,0.79-0.15,1.7,0.07,2.48c0.21,0.77,0.71,1.35,1.47,1.6
						c0.76,0.25,1.65,0.19,2.42,0.03c0.79-0.17,1.58-0.47,2.21-0.98c0.7-0.56,1.05-1.37,1.22-2.23c0.17-0.84,0.11-1.7-0.4-2.42
						c-0.44-0.61-1.08-1.03-1.79-1.24c-1.79-0.52-3.84,0.41-4.97,1.8c-0.13,0.16,0.12,0.17,0.23,0.16c0.18-0.01,0.52-0.08,0.65-0.23
						c0.82-1.02,2.02-1.75,3.35-1.34c1.3,0.4,2.15,1.58,2.06,2.94c-0.1,1.43-0.85,2.79-2.3,3.16c-0.6,0.15-1.28,0.17-1.87-0.02
						c-0.65-0.22-1.07-0.75-1.27-1.39c-0.21-0.69-0.24-1.48-0.16-2.19c0.1-0.86,0.52-1.62,1.28-2.06c0.17-0.1,0.11-0.2-0.06-0.21
						C59.62,21.54,59.36,21.64,59.17,21.75L59.17,21.75z"/>
				</g>
			</g>

				<ellipse transform="matrix(0.9939 -0.1103 0.1103 0.9939 -2.3093 6.9317)" class="st0" cx="61.48" cy="24.33" rx="3.15" ry="3.29"/>
		</g>
		<g>
			<g>
				<g>
					<path class="st0" d="M29.6,33.42c-2.25,1.32-2.59,4.25-1.96,6.59c0.3,1.1,0.98,1.99,2.07,2.39c1.1,0.4,2.36,0.32,3.49,0.07
						c1.05-0.24,2.07-0.71,2.86-1.44c0.95-0.88,1.41-2.11,1.61-3.36c0.19-1.16,0.07-2.33-0.58-3.33c-0.59-0.9-1.51-1.55-2.53-1.89
						c-2.52-0.83-5.2,0.54-6.75,2.52c-0.15,0.19,0.13,0.3,0.27,0.31c0.23,0.02,0.49-0.09,0.64-0.27c1.17-1.49,3.06-2.6,4.99-2.09
						c1.88,0.5,3.16,2.21,3.07,4.15c-0.1,2.1-1.09,4.03-3.17,4.71c-1.85,0.61-4.17,0.4-4.91-1.68c-0.38-1.07-0.43-2.32-0.29-3.44
						c0.15-1.22,0.7-2.29,1.78-2.93c0.16-0.1,0.25-0.28,0.08-0.4C30.1,33.21,29.77,33.32,29.6,33.42L29.6,33.42z"/>
				</g>
			</g>

				<ellipse transform="matrix(0.9955 -0.0944 0.0944 0.9955 -3.3791 3.2497)" class="st0" cx="32.68" cy="37.36" rx="4.47" ry="4.82"/>
		</g>
		<g>
			<g>
				<g>
					<path class="st0" d="M30.18,23.25c-1.38,0.81-1.62,2.58-1.23,4.02c0.19,0.69,0.62,1.23,1.3,1.47c0.7,0.25,1.5,0.2,2.21,0.03
						c0.67-0.15,1.32-0.46,1.82-0.92c0.58-0.54,0.86-1.29,0.99-2.05c0.12-0.71,0.04-1.42-0.36-2.03c-0.36-0.55-0.93-0.95-1.56-1.15
						c-1.6-0.52-3.31,0.34-4.29,1.6c-0.15,0.19,0.12,0.3,0.27,0.31c0.23,0.02,0.49-0.09,0.64-0.27c0.62-0.79,1.61-1.41,2.64-1.13
						c1.06,0.28,1.79,1.28,1.73,2.37c-0.06,1.15-0.55,2.28-1.7,2.67c-0.47,0.16-1.02,0.22-1.51,0.12c-0.57-0.12-0.97-0.51-1.16-1.06
						c-0.22-0.62-0.25-1.35-0.17-2.01c0.08-0.68,0.37-1.29,0.98-1.65c0.16-0.09,0.26-0.29,0.08-0.4
						C30.67,23.04,30.36,23.14,30.18,23.25L30.18,23.25z"/>
				</g>
			</g>

				<ellipse transform="matrix(0.9956 -0.0933 0.0933 0.9956 -2.2518 3.1079)" class="st0" cx="32.12" cy="25.65" rx="2.64" ry="2.86"/>
		</g>
		<g>
			<g>
				<g>
					<path class="st0" d="M72.07,38.88c1.38-0.81,1.62-2.58,1.23-4.02c-0.19-0.69-0.62-1.23-1.3-1.47c-0.7-0.25-1.5-0.2-2.21-0.03
						c-0.67,0.15-1.32,0.46-1.82,0.92c-0.58,0.54-0.86,1.29-0.99,2.05c-0.12,0.71-0.04,1.42,0.36,2.03
						c0.36,0.55,0.93,0.95,1.56,1.15c1.6,0.52,3.31-0.34,4.29-1.6c0.15-0.19-0.12-0.3-0.27-0.31c-0.23-0.02-0.49,0.09-0.64,0.27
						c-0.62,0.79-1.61,1.41-2.64,1.13c-1.06-0.28-1.79-1.28-1.73-2.37c0.06-1.15,0.55-2.28,1.7-2.67c0.47-0.16,1.02-0.22,1.51-0.12
						c0.57,0.12,0.97,0.51,1.16,1.06c0.22,0.62,0.25,1.35,0.17,2.01c-0.08,0.68-0.37,1.29-0.98,1.65c-0.16,0.09-0.26,0.29-0.08,0.4
						C71.58,39.09,71.89,38.99,72.07,38.88L72.07,38.88z"/>
				</g>
			</g>

				<ellipse transform="matrix(0.9956 -0.0933 0.0933 0.9956 -3.097 6.6994)" class="st0" cx="70.13" cy="36.48" rx="2.64" ry="2.86"/>
		</g>
		<g>
			<g>
				<path class="st0" d="M46.96,35.08c-1.37,0.82-1.56,2.62-1.21,4.04c0.17,0.68,0.57,1.25,1.23,1.53c0.66,0.28,1.43,0.25,2.12,0.12
					c0.69-0.13,1.35-0.43,1.87-0.9c0.57-0.51,0.86-1.21,1.01-1.95c0.15-0.75,0.11-1.52-0.27-2.19c-0.33-0.57-0.89-1-1.5-1.24
					c-1.56-0.6-3.3,0.23-4.27,1.49c-0.37,0.48,0.55,0.6,0.8,0.27c0.61-0.8,1.61-1.49,2.67-1.2c1.07,0.29,1.75,1.29,1.68,2.38
					c-0.07,1.14-0.57,2.24-1.73,2.6c-0.46,0.14-0.99,0.21-1.47,0.1c-0.56-0.12-0.93-0.53-1.1-1.06c-0.2-0.62-0.23-1.32-0.15-1.96
					c0.08-0.68,0.37-1.26,0.97-1.62c0.18-0.11,0.23-0.35,0.06-0.48C47.45,34.86,47.15,34.96,46.96,35.08L46.96,35.08z"/>
			</g>
		</g>
		<g>
			<g>
				<path class="st0" d="M56.47,31.55c-0.96,0.54-1.65,1.37-1.92,2.45c-0.26,1-0.23,2.17,0.01,3.18c0.23,0.99,0.8,1.81,1.75,2.21
					c0.94,0.4,2.05,0.36,3.03,0.18c0.97-0.18,1.94-0.56,2.7-1.2c0.85-0.72,1.3-1.69,1.54-2.76c0.24-1.06,0.19-2.16-0.4-3.1
					c-0.5-0.8-1.33-1.4-2.21-1.71c-2.24-0.79-4.71,0.34-6.14,2.1c-0.38,0.47,0.54,0.59,0.8,0.27c1.02-1.25,2.63-2.21,4.3-1.87
					c1.66,0.34,2.9,1.78,2.8,3.49c-0.05,0.93-0.32,1.98-0.91,2.72c-0.48,0.62-1.18,1.03-1.93,1.25c-1.52,0.46-3.56,0.41-4.22-1.31
					c-0.33-0.86-0.37-1.85-0.29-2.75c0.1-1.06,0.54-2.06,1.5-2.6C57.47,31.77,56.95,31.28,56.47,31.55L56.47,31.55z"/>
			</g>
		</g>
	</g>
	<g>
		<g>
			<g>
				<path class="st0" d="M56.43,65.71c0.2-0.41,0.38-0.94,0.15-1.37c-0.22-0.42-0.69-0.57-1.14-0.56c-0.56,0.01-1.11,0.22-1.54,0.58
					c-0.34,0.28-0.6,0.73-0.51,1.18c0.05,0.25,0.21,0.46,0.41,0.6c0.27,0.2,0.61,0.2,0.93,0.13c0.16-0.03,0.47-0.19,0.41-0.39
					c-0.06-0.22-0.41-0.16-0.55-0.13c0.01,0,0.11-0.03,0.14-0.02c-0.01,0-0.05,0-0.06,0c0,0.01,0.09,0,0.04,0
					c-0.01,0-0.07-0.02-0.02,0c0.05,0.01-0.04-0.02-0.06-0.03c-0.02-0.01-0.03-0.02-0.05-0.03c0.04,0.03,0,0-0.01-0.01
					c-0.12-0.12-0.17-0.19-0.21-0.35c-0.01-0.03-0.01-0.07-0.02-0.1c0-0.01,0-0.07,0-0.04c0,0.03,0-0.02,0-0.02
					c0.01-0.08,0.03-0.16,0.06-0.24c-0.02,0.05,0,0,0.01-0.01c0.01-0.02,0.02-0.04,0.03-0.06c0.02-0.03,0.04-0.06,0.06-0.09
					c0.01-0.02,0.07-0.09,0.03-0.04c0.03-0.04,0.07-0.07,0.1-0.1c0.02-0.01,0.03-0.03,0.05-0.04c0.03-0.03-0.02,0.01-0.02,0.02
					c0.03-0.03,0.07-0.05,0.11-0.08c0.03-0.02,0.07-0.04,0.1-0.06c0.06-0.03-0.08,0.04-0.02,0.01c0.02-0.01,0.05-0.02,0.07-0.03
					c0.02-0.01,0.13-0.05,0.05-0.02c-0.09,0.03,0.05-0.01,0.07-0.02c0.01,0,0.03-0.01,0.04-0.01c0.08-0.02-0.04,0.01-0.04,0.01
					c0.03,0.01,0.1-0.01,0.13-0.02c0.05-0.01-0.05,0-0.05,0c0.02,0,0.04,0,0.06,0c0.03,0,0.09-0.01,0.12,0.01c0,0-0.08-0.02-0.04,0
					c0.02,0.01,0.04,0.01,0.06,0.01c0.01,0,0.03,0.01,0.04,0.01c0.09,0.02-0.06-0.03,0.02,0c0.03,0.01,0.06,0.03,0.09,0.04
					c0.02,0.01,0.08,0.06,0.04,0.02c0.06,0.05,0.11,0.11,0.15,0.17c0.17,0.3,0.03,0.75-0.11,1.03c-0.04,0.07-0.05,0.15,0.01,0.22
					c0.06,0.07,0.18,0.1,0.26,0.1c0.13,0,0.26-0.02,0.38-0.07C56.27,65.86,56.39,65.8,56.43,65.71L56.43,65.71z"/>
			</g>
		</g>
		<g>
			<g>
				<path class="st0" d="M38.13,67.26c0.17,0.05,0.37,0.01,0.54-0.03c0.22-0.05,0.43-0.13,0.61-0.26c0.17-0.13,0.28-0.31,0.37-0.49
					c0.1-0.21,0.2-0.46,0.15-0.69c-0.05-0.2-0.22-0.37-0.39-0.47c-0.49-0.29-1.15-0.17-1.65,0.04c-0.41,0.18-0.73,0.5-0.81,0.95
					c-0.07,0.43,0.17,0.92,0.64,0.98c0.22,0.03,0.47-0.03,0.67-0.13c0.06-0.03,0.17-0.07,0.2-0.14c0.02-0.05-0.03-0.08-0.08-0.09
					c-0.07-0.01-0.09-0.01-0.16-0.05c-0.06-0.03-0.11-0.08-0.15-0.13c-0.09-0.11-0.15-0.26-0.16-0.4c-0.04-0.27,0.07-0.59,0.25-0.77
					c0.02-0.03,0.05-0.05,0.08-0.07c0.01-0.01,0.03-0.02,0.04-0.03c-0.01,0.01-0.05,0.03,0,0c0.02-0.01,0.07-0.03-0.02,0.01
					c0.03-0.01,0.08-0.03-0.04,0.01c0.03-0.01,0.09-0.02-0.05,0.01c0.08-0.02-0.1,0.02-0.04,0.01c0.06-0.01-0.1,0.01-0.04,0.01
					c0.01,0,0.03,0,0.04,0c-0.07,0.02-0.05,0-0.02,0c0.02,0,0.04,0,0.05,0c-0.07,0,0.03,0.01,0.05,0.01c0.02,0,0.04,0.01,0.05,0.01
					c0,0,0.06,0.02,0.05,0.01c0.31,0.1,0.56,0.37,0.52,0.72c-0.03,0.18-0.12,0.37-0.22,0.53c-0.04,0.06-0.09,0.14-0.12,0.18
					c-0.01,0.01-0.03,0.03-0.04,0.04c-0.02,0.02-0.07,0.04-0.01,0.02c-0.19,0.09,0.77-0.13,0.42-0.12c0.04,0,0.08,0,0.11,0
					c-0.02,0-0.03-0.01-0.05-0.01c-0.09-0.02-0.22,0-0.31,0.02c-0.12,0.02-0.26,0.06-0.37,0.11C38.17,67.07,37.93,67.21,38.13,67.26
					L38.13,67.26z"/>
			</g>
		</g>
		<g>
			<g>
				<path class="st0" d="M51.46,51.47c0.35,0.06,0.75-0.11,0.98-0.39c0.18-0.22,0.28-0.49,0.35-0.77c0.13-0.55,0.23-1.32-0.33-1.67
					c-0.3-0.19-0.7-0.21-1.04-0.19c-0.38,0.03-0.74,0.15-1.07,0.34c-0.56,0.32-1.08,0.92-0.98,1.61c0.05,0.33,0.27,0.62,0.53,0.81
					c0.33,0.23,0.76,0.27,1.15,0.29c0.22,0.01,0.52-0.07,0.63-0.28c0.11-0.2-0.1-0.33-0.28-0.34c-0.41-0.02-0.82-0.07-1-0.5
					c-0.08-0.19-0.09-0.42-0.03-0.59c0.04-0.1,0.1-0.2,0.16-0.29c0.04-0.05-0.03,0.04,0.01-0.01c0.02-0.02,0.04-0.05,0.06-0.07
					c0.02-0.02,0.03-0.03,0.05-0.05c0.01-0.01,0.09-0.08,0.05-0.05c-0.04,0.04,0.06-0.05,0.05-0.04c0.02-0.02,0.04-0.03,0.07-0.05
					c0.03-0.02,0.15-0.08,0.07-0.04c0.05-0.02,0.1-0.04,0.14-0.07c0.11-0.05-0.07,0.02,0,0c0.03-0.01,0.06-0.02,0.09-0.03
					c0,0,0.13-0.03,0.05-0.01c-0.07,0.01,0.01,0,0.03,0c0.02,0,0.2-0.01,0.09-0.01c0.05,0,0.1,0,0.16,0.01
					c0.03,0,0.05,0.01,0.08,0.01c-0.09-0.01,0.03,0.01,0.04,0.01c0.02,0.01,0.05,0.01,0.07,0.02c-0.05-0.02,0,0,0.01,0.01
					c0.02,0.01,0.05,0.02,0.07,0.04c0.09,0.06,0.03,0.02,0.02,0.02c0.09,0.08,0.12,0.16,0.14,0.27c0.05,0.21,0.02,0.43-0.01,0.64
					c-0.02,0.12-0.04,0.23-0.07,0.35c-0.01,0.06-0.03,0.11-0.05,0.17c-0.01,0.02-0.01,0.04-0.02,0.07c0.02-0.05-0.02,0.04-0.02,0.04
					c-0.02,0.05-0.05,0.1-0.07,0.14c-0.01,0.02-0.02,0.03-0.03,0.05c0.03-0.04,0.02-0.04,0,0c-0.02,0.03-0.07,0.06,0.02-0.01
					c-0.07,0.05,0.08-0.04,0.03-0.01c-0.04,0.02,0.15-0.04,0.15-0.04c0.05-0.01,0.1,0.01,0.02-0.01c-0.21-0.03-0.53,0.09-0.63,0.28
					C51.07,51.34,51.29,51.44,51.46,51.47L51.46,51.47z"/>
			</g>
		</g>
		<g>
			<g>
				<path class="st0" d="M67.13,55.77c0.14-0.15,0.22-0.31,0.24-0.51c0.02-0.17-0.02-0.34-0.11-0.49c-0.32-0.54-1.08-0.44-1.57-0.25
					c-0.26,0.1-0.51,0.24-0.67,0.48c-0.1,0.15-0.15,0.33-0.15,0.51c-0.01,0.36,0.2,0.69,0.54,0.82c0.28,0.11,0.58,0.1,0.87,0.05
					c0.34-0.07,0.73-0.19,0.97-0.45c0.03-0.04,0.07-0.08,0.02-0.12c-0.05-0.04-0.19-0.03-0.24-0.02c-0.13,0.01-0.26,0.04-0.38,0.09
					c-0.09,0.03-0.21,0.07-0.27,0.14c-0.02,0.02-0.04,0.04-0.06,0.06c-0.01,0.01-0.02,0.02-0.03,0.03
					c-0.02,0.02-0.05,0.02,0.02-0.01c-0.02,0.01-0.1,0.06-0.02,0.02c0.07-0.03,0.02-0.01,0,0c-0.06,0.03,0.11-0.04,0.06-0.02
					c-0.04,0.01-0.09,0.02,0.07-0.02c-0.01,0-0.02,0.01-0.03,0.01c-0.07,0.02,0.14-0.03,0.07-0.02c-0.06,0.01,0.07-0.01,0.07-0.01
					c-0.01,0-0.03,0-0.04,0c-0.07,0.01,0.04-0.01,0.05,0c-0.01-0.01-0.07,0-0.08,0c-0.04,0,0.03,0,0.03,0c-0.01,0-0.03,0-0.04-0.01
					c-0.03,0-0.05-0.01-0.08-0.02c-0.01,0-0.03-0.01-0.04-0.01c-0.04-0.01,0.03,0.01,0,0c-0.02-0.01-0.05-0.02-0.07-0.03
					c-0.1-0.05-0.19-0.12-0.26-0.2C66,55.8,66,55.81,66.01,55.82c-0.16-0.19-0.2-0.45-0.16-0.69c0,0.01,0,0.03-0.01,0.04
					c0.02-0.12,0.06-0.23,0.13-0.33c0.01-0.02,0.04-0.07,0.06-0.08c-0.01,0.01-0.03,0.03,0,0c0.01-0.01,0.02-0.02,0.03-0.03
					c0.01-0.01,0.02-0.02,0.04-0.03c0.02-0.02,0.06-0.03-0.02,0.01c0.01-0.01,0.02-0.02,0.03-0.02c0.07-0.04-0.06,0.03-0.02,0.01
					c0.07-0.03-0.03,0.01-0.05,0.02c0.08-0.03-0.13,0.03-0.05,0.01c-0.01,0-0.14,0.03-0.06,0.01c0.05-0.01-0.13,0.02-0.04,0.01
					c0.05-0.01-0.1,0-0.03,0c0.01,0,0.02,0,0.03,0c0.02,0,0.01,0-0.03,0c0.01,0.01,0.09,0.01,0.11,0.02c0.02,0,0.03,0.01,0.05,0.01
					c-0.05-0.02,0.01,0.01,0.02,0.01c0.03,0.01,0.06,0.03,0.09,0.05c0.05,0.03,0.1,0.08,0.14,0.12c-0.01-0.01-0.02-0.02-0.03-0.03
					c0.14,0.18,0.2,0.41,0.16,0.63c0-0.01,0-0.03,0.01-0.04c-0.01,0.07-0.03,0.13-0.06,0.19c-0.01,0.03-0.03,0.06-0.05,0.08
					c-0.01,0.01-0.02,0.03-0.03,0.04c-0.01,0.01-0.01,0.01,0.01-0.02c-0.01,0.01-0.01,0.02-0.02,0.02
					c-0.04,0.04-0.07,0.08-0.02,0.12c0.05,0.04,0.19,0.03,0.24,0.02c0.13-0.01,0.26-0.04,0.38-0.09
					C66.95,55.88,67.07,55.84,67.13,55.77L67.13,55.77z"/>
			</g>
		</g>
		<g>
			<g>
				<path class="st0" d="M23.79,58.95c0.09,0.39,0.66,0.35,0.94,0.23c0.25-0.11,0.44-0.3,0.58-0.53c0.2-0.33,0.29-0.74,0.21-1.12
					c-0.09-0.44-0.42-0.73-0.83-0.88c-0.47-0.17-0.99-0.11-1.45,0.07c-0.41,0.16-0.79,0.47-0.96,0.89c-0.14,0.37-0.09,0.77,0.1,1.12
					c0.5,0.9,1.77,0.84,2.48,0.23c0.33-0.28,0.48-0.72,0.41-1.14c-0.07-0.42-0.38-0.74-0.78-0.88c-0.87-0.29-2.12,0.34-1.91,1.37
					c0.21,1.02,1.64,1,2.22,0.33c0.29-0.33,0.34-0.77,0.09-1.14c-0.3-0.45-0.92-0.49-1.39-0.29c-0.39,0.17-0.77,0.61-0.64,1.07
					c0.17,0.62,1.02,0.65,1.48,0.36c0.22-0.15,0.39-0.38,0.37-0.66c-0.02-0.23-0.2-0.38-0.4-0.46c-0.46-0.17-1.34,0.14-1.18,0.75
					c0.07,0.25,0.29,0.35,0.52,0.39c0.15,0.02,0.31-0.03,0.43-0.1c0.09-0.05,0.23-0.14,0.23-0.26c0-0.07,0-0.15,0.01-0.22
					c0.01-0.22-0.25-0.28-0.43-0.25c-0.13,0.02-0.26,0.05-0.36,0.13c-0.07,0.05-0.17,0.13-0.18,0.23c0,0.07,0,0.15-0.01,0.22
					c0.22-0.12,0.44-0.24,0.66-0.36c0.03,0,0.06,0.01,0.09,0.02c0.01,0,0.02,0.01,0.03,0.01c-0.02-0.02-0.02-0.01,0,0
					c0.01-0.01,0.02,0.03,0,0c0-0.01-0.01-0.02-0.02-0.03c-0.03-0.02,0.01,0.04,0,0.01c0-0.01-0.01-0.02-0.01-0.03
					c0-0.01-0.01-0.02-0.01-0.03c-0.01-0.03,0.01-0.06,0,0c0-0.02,0.01-0.05,0.01-0.07c0,0.01-0.04,0.06-0.01,0.02
					c0,0-0.06,0.06-0.03,0.03c0.03-0.03-0.04,0.03-0.04,0.03c-0.05,0.04-0.1,0.05-0.16,0.06c-0.03,0.01-0.06,0.02-0.09,0.03
					c0.04,0,0.03,0-0.01,0c-0.01,0-0.12-0.01-0.09-0.01c0,0,0.04,0.01,0.04,0.01c0,0.01-0.07-0.04-0.02-0.01
					c0.05,0.03-0.02-0.04,0.01,0.01c0.01,0.01,0.02,0.03,0.03,0.04c0,0-0.02-0.05-0.01-0.02c0,0.01,0.01,0.03,0.01,0.04
					c0,0.01,0.01,0.08,0.01,0.04c0-0.03-0.01,0.05-0.01,0.06c0,0.03,0,0,0.01-0.01c-0.01,0.02-0.02,0.03-0.03,0.05
					c-0.03,0.06,0.04-0.03-0.01,0.01c0.08-0.07,0.04-0.03,0.02-0.02c0.04-0.03,0.08-0.05,0.13-0.06c0.04-0.01,0.09-0.02,0.13-0.01
					c-0.02,0-0.06-0.01-0.01,0c0.06,0.02,0.01,0,0,0c0.01,0,0.06,0.03,0.02,0.01c-0.01-0.01-0.09-0.06-0.05-0.02
					c-0.03-0.03-0.06-0.06-0.08-0.09c0,0-0.03-0.04-0.01-0.02c0.01,0.03,0-0.01-0.01-0.01c-0.01-0.03-0.02-0.06-0.02-0.09
					c0-0.01,0-0.03-0.01-0.04c0,0.01-0.01,0.06,0,0c0-0.03,0.01-0.06,0.01-0.09c0.01-0.03,0.03-0.09,0-0.03
					c0.01-0.02,0.02-0.05,0.03-0.07c0.01-0.01,0.07-0.09,0.03-0.05c-0.04,0.04,0.04-0.04,0.05-0.05c0.03-0.03-0.03,0.03-0.03,0.03
					c0,0,0.03-0.02,0.03-0.02c0.05-0.03-0.09,0.05-0.04,0.02c0.01-0.01,0.03-0.01,0.04-0.02c0.01,0-0.11,0.04-0.06,0.02
					c0.05-0.02-0.07,0.01-0.07,0.01c0.07-0.01-0.04,0-0.04,0c0.07,0-0.03,0-0.03-0.01c0-0.01,0.12,0.04,0.06,0.01
					c-0.05-0.02,0.03,0.02,0.04,0.02c0.02,0.01,0.08,0.06,0.03,0.02c0.03,0.03,0.05,0.05,0.08,0.08c0.02,0.02,0.03,0.04,0.05,0.07
					c0.01,0.02,0.02,0.03,0.03,0.05c0-0.01-0.02-0.04-0.01-0.01c0.03,0.06,0.05,0.12,0.06,0.19c0,0.02,0.01,0.1,0.01,0.05
					c0,0.03,0,0.06-0.01,0.08c0,0.03-0.02,0.06-0.02,0.09c0,0.03,0-0.01,0.01-0.02c-0.01,0.02-0.02,0.04-0.03,0.06
					c-0.01,0.02-0.04,0.08-0.02,0.04c0.02-0.04,0,0-0.01,0.01c-0.01,0.01-0.02,0.02-0.03,0.03c-0.01,0.01-0.02,0.02-0.03,0.03
					c-0.03,0.03,0.03-0.03,0.04-0.03c0,0-0.04,0.03-0.04,0.03c-0.05,0.04,0.02-0.02,0.04-0.02c-0.03,0.01-0.06,0.02-0.08,0.04
					c-0.04,0.02,0.06-0.02,0.06-0.02c-0.01,0-0.04,0.01-0.05,0.01c-0.08,0.02,0.11-0.01,0.03-0.01c-0.01,0-0.03,0-0.04,0
					c-0.05,0.01,0.11,0.01,0.03,0c-0.01,0-0.03,0-0.04,0c-0.04,0,0.04,0,0.04,0.01c0-0.01-0.08-0.02-0.09-0.02
					c-0.04-0.01,0.03,0.01,0.03,0.01c-0.01,0-0.05-0.02-0.05-0.02c-0.03-0.02-0.05-0.04-0.08-0.05c-0.04-0.02,0.03,0.04,0,0
					c-0.01-0.01-0.02-0.02-0.03-0.03c-0.02-0.02-0.04-0.04-0.05-0.06c-0.02-0.02-0.04-0.05-0.05-0.08c-0.02-0.03,0,0.01,0,0.01
					c-0.01-0.02-0.02-0.04-0.03-0.06c-0.02-0.05-0.04-0.11-0.05-0.17c-0.01-0.03-0.01-0.06-0.01-0.09c0-0.03,0,0.01,0,0.01
					c0-0.02,0-0.04,0-0.05c0-0.06,0.01-0.13,0.03-0.19c0.01-0.03,0.03-0.07,0-0.02c0.02-0.03,0.03-0.06,0.05-0.1
					c0.02-0.04,0.05-0.06,0-0.01c0.02-0.02,0.05-0.05,0.07-0.07c0.03-0.04-0.03,0.03-0.03,0.03c0,0,0.05-0.03,0.05-0.03
					c0.01-0.01,0.02-0.01,0.04-0.02c0.04-0.03-0.08,0.03-0.03,0.02c0.02,0,0.04-0.01,0.05-0.02c0.04-0.02-0.06,0.02-0.06,0.02
					c0.02,0,0.07-0.01,0.08-0.02c-0.09,0.04-0.1,0.01-0.05,0.01c0.01,0,0.03,0,0.04,0c0.04-0.01-0.05,0-0.05,0
					c0.02,0.01,0.05,0,0.07,0c0.01,0,0.03,0,0.04,0c0.04,0,0.02,0.02,0,0c-0.01,0-0.02,0-0.03,0c0.01,0,0.03,0.01,0.04,0.01
					c0.01,0,0.03,0.01,0.04,0.01c0.01,0,0.03,0.01,0.04,0.01c0.05,0.01-0.05-0.03-0.01,0c0.03,0.02,0.06,0.03,0.09,0.05
					c0.02,0.01,0.03,0.02,0.05,0.03c0,0-0.04-0.03-0.01-0.01c0.03,0.02,0.05,0.05,0.07,0.07c0.04,0.05,0.08,0.1,0.12,0.16
					c-0.02-0.04,0.01,0.02,0.01,0.03c0.01,0.03,0.02,0.06,0.03,0.09c0.02,0.06,0.03,0.13,0.04,0.2c0,0.01,0,0.07,0,0.03
					c0-0.03,0,0.02,0,0.02c0,0.03,0,0.07-0.01,0.1c-0.01,0.07-0.02,0.13-0.04,0.2c-0.01,0.04,0-0.01,0.01-0.01
					c-0.01,0.02-0.02,0.03-0.02,0.05c-0.01,0.03-0.03,0.05-0.04,0.08c-0.01,0.01-0.02,0.02-0.03,0.04c-0.03,0.05,0.04-0.04,0-0.01
					c-0.02,0.02-0.05,0.05-0.07,0.08c-0.05,0.05,0.06-0.04-0.02,0.01c-0.03,0.02-0.06,0.04-0.09,0.06c0,0,0.09-0.04,0.04-0.02
					c-0.01,0.01-0.03,0.01-0.04,0.02c-0.02,0.01-0.04,0.01-0.06,0.02c0.02-0.01,0.11-0.03,0.04-0.02c-0.01,0-0.03,0.01-0.04,0.01
					c-0.05,0.02,0.06-0.01,0.06-0.01c-0.03,0-0.07,0.01-0.1,0.01c-0.05,0.01,0.05,0,0.05,0c-0.02,0-0.04,0-0.06,0
					c-0.02,0-0.03,0-0.05,0c-0.02,0-0.07-0.02-0.02,0c0.06,0.02-0.05-0.01-0.06-0.02c-0.01,0-0.03-0.01-0.04-0.01
					c-0.05-0.01,0.06,0.03,0.01,0.01c-0.06-0.03-0.11-0.06-0.17-0.09c-0.01-0.01-0.02-0.02-0.03-0.02c0.01,0.01,0.05,0.04,0,0
					c-0.02-0.02-0.04-0.04-0.06-0.06c-0.04-0.05-0.09-0.1-0.12-0.15c-0.02-0.03-0.03-0.05-0.05-0.08c-0.02-0.03,0,0,0,0.01
					c-0.01-0.02-0.02-0.03-0.02-0.05c-0.03-0.06-0.05-0.12-0.07-0.18c-0.02-0.06-0.03-0.12-0.03-0.18c0-0.02-0.01-0.1-0.01-0.04
					c0-0.04,0-0.07,0-0.11c0.01-0.06,0.02-0.12,0.03-0.17c0-0.01,0.03-0.08,0.01-0.05c-0.02,0.04,0.01-0.02,0.01-0.02
					c0.01-0.02,0.02-0.03,0.03-0.05c0.02-0.03,0.03-0.06,0.05-0.09c0.02-0.03,0.05-0.06,0.01-0.01c0.02-0.02,0.04-0.05,0.07-0.07
					c0.01-0.01,0.02-0.02,0.03-0.03c0.04-0.05-0.02,0-0.02,0.01c0.01-0.02,0.06-0.05,0.08-0.06c0.01-0.01,0.02-0.02,0.04-0.02
					c0.06-0.04-0.02,0.01-0.03,0.02c0.03-0.01,0.05-0.03,0.08-0.04c0.02-0.01,0.04-0.02,0.05-0.02c0.06-0.03-0.03,0.01-0.04,0.01
					c0.03-0.01,0.07-0.02,0.1-0.03c0.02-0.01,0.12-0.03,0.03-0.01c-0.09,0.02,0.03,0,0.05,0c0.01,0,0.03,0,0.04,0
					c0.04,0,0.08,0.02-0.02,0c0.03,0.01,0.06,0,0.09,0c0.02,0,0.13,0.01,0.06,0c-0.06-0.01,0.03,0.01,0.05,0.01
					c0.04,0.01,0.08,0.03,0.13,0.04c0.04,0.01,0,0-0.01-0.01c0.02,0.01,0.04,0.02,0.06,0.03c0.03,0.02,0.06,0.03,0.09,0.05
					c0.02,0.01,0.04,0.03,0.06,0.04c0,0-0.03-0.03-0.01-0.01c0.02,0.02,0.05,0.04,0.07,0.07c0.04,0.05,0.08,0.1,0.11,0.15
					c-0.03-0.04,0,0.01,0.01,0.03c0.01,0.03,0.03,0.07,0.04,0.1c0.02,0.06,0.03,0.11,0.04,0.17c0,0.03,0.01,0.06,0.01,0.1
					c0-0.06,0,0.05,0,0.06c-0.01,0.13-0.03,0.25-0.07,0.38c0,0.01-0.01,0.03-0.01,0.04c0.02-0.06,0-0.01,0,0
					c-0.01,0.03-0.02,0.05-0.04,0.08c-0.03,0.06-0.07,0.12-0.11,0.18c-0.02,0.04,0.01-0.02,0.02-0.02
					c-0.01,0.01-0.02,0.02-0.03,0.03c-0.03,0.03-0.09,0.08-0.02,0.03c0.06-0.04,0.11-0.04,0.19-0.05c0.12-0.02,0.15-0.02,0.26,0.01
					c-0.05-0.02-0.01,0,0.01,0.01c0.01,0,0.02,0.06,0.01,0c-0.05-0.21-0.4-0.2-0.56-0.15C24.03,58.59,23.74,58.73,23.79,58.95
					L23.79,58.95z"/>
			</g>
		</g>
		<g>
			<g>
				<path class="st0" d="M50.69,65.22c1.36-0.75,2.39-1.95,2.81-3.46c0.43-1.56,0.39-3.4,0.02-4.97c-0.37-1.52-1.27-2.77-2.78-3.31
					c-1.47-0.53-3.16-0.44-4.66-0.14c-1.43,0.29-2.87,0.84-4.01,1.77c-1.32,1.07-2.03,2.56-2.39,4.2c-0.36,1.65-0.28,3.34,0.7,4.76
					c0.82,1.18,2.08,2.03,3.45,2.45c3.41,1.05,7.15-0.66,9.34-3.3c0.22-0.27-0.72-0.16-0.88,0.04c-1.82,2.2-4.7,3.73-7.58,2.88
					c-2.69-0.79-4.52-3.16-4.23-6c0.15-1.42,0.6-2.99,1.51-4.12c0.84-1.05,2.04-1.74,3.33-2.12c1.38-0.4,2.98-0.53,4.37-0.12
					c1.35,0.4,2.29,1.39,2.72,2.72c0.48,1.45,0.54,3.18,0.3,4.67c-0.26,1.62-1.12,3.04-2.58,3.85
					C49.56,65.34,50.43,65.36,50.69,65.22L50.69,65.22z"/>
			</g>
		</g>
		<g>
			<g>
				<path class="st0" d="M72.73,48.54c1.36-0.82,1.57-2.59,1.22-4.02c-0.17-0.67-0.57-1.24-1.22-1.51
					c-0.66-0.27-1.42-0.24-2.12-0.11c-0.71,0.14-1.4,0.45-1.94,0.95c-0.56,0.52-0.83,1.24-0.97,1.98c-0.13,0.73-0.07,1.46,0.31,2.1
					c0.33,0.55,0.88,0.96,1.48,1.19c1.61,0.61,3.35-0.29,4.33-1.57c0.15-0.19-0.13-0.33-0.28-0.35c-0.25-0.02-0.49,0.09-0.63,0.28
					c-0.61,0.8-1.62,1.42-2.65,1.11c-1.08-0.32-1.73-1.35-1.64-2.45c0.09-1.14,0.59-2.24,1.76-2.58c0.47-0.14,1-0.2,1.47-0.07
					c0.56,0.15,0.91,0.57,1.08,1.11c0.19,0.61,0.22,1.3,0.14,1.93c-0.08,0.68-0.36,1.28-0.96,1.64c-0.17,0.1-0.25,0.31-0.07,0.44
					C72.24,48.75,72.55,48.65,72.73,48.54L72.73,48.54z"/>
			</g>
		</g>
		<g>
			<g>
				<g>
					<path class="st0" d="M33.3,63.96c0.77-0.44,1.29-1.14,1.46-2.02c0.15-0.79,0.13-1.69-0.09-2.47c-0.23-0.78-0.76-1.35-1.55-1.58
						c-0.79-0.23-1.67-0.14-2.45,0.04c-0.77,0.18-1.55,0.49-2.16,1.01c-0.68,0.58-1.02,1.42-1.17,2.29
						c-0.15,0.84-0.05,1.68,0.48,2.37c0.45,0.59,1.11,1,1.82,1.18c1.8,0.46,3.79-0.49,4.92-1.88c0.11-0.13-0.36-0.09-0.38-0.09
						c-0.19,0.03-0.44,0.1-0.57,0.26c-0.82,1.02-2.04,1.71-3.35,1.28c-1.31-0.43-2.12-1.62-2.01-2.99c0.12-1.4,0.86-2.74,2.3-3.11
						c0.6-0.15,1.28-0.17,1.87,0.03c0.65,0.22,1.07,0.75,1.27,1.39c0.21,0.69,0.24,1.48,0.16,2.19c-0.1,0.86-0.51,1.63-1.28,2.06
						c-0.17,0.09-0.11,0.19,0.05,0.2C32.84,64.16,33.11,64.07,33.3,63.96L33.3,63.96z"/>
				</g>
			</g>

				<ellipse transform="matrix(0.9939 -0.1103 0.1103 0.9939 -6.5826 3.7932)" class="st0" cx="30.98" cy="61.38" rx="3.15" ry="3.29"/>
		</g>
		<g>
			<g>
				<g>
					<path class="st0" d="M62.87,52.29c2.25-1.32,2.59-4.25,1.96-6.59c-0.3-1.1-0.98-1.99-2.07-2.39c-1.1-0.4-2.36-0.32-3.49-0.07
						c-1.05,0.24-2.07,0.71-2.86,1.44c-0.95,0.88-1.41,2.11-1.61,3.36c-0.19,1.16-0.07,2.33,0.58,3.33c0.59,0.9,1.51,1.55,2.53,1.89
						c2.52,0.83,5.2-0.54,6.75-2.52c0.15-0.19-0.13-0.3-0.27-0.31c-0.23-0.02-0.49,0.09-0.64,0.27c-1.17,1.49-3.06,2.6-4.99,2.09
						c-1.88-0.5-3.16-2.21-3.07-4.15c0.1-2.1,1.09-4.03,3.17-4.71c1.85-0.61,4.17-0.4,4.91,1.68c0.38,1.07,0.43,2.32,0.29,3.44
						c-0.15,1.22-0.7,2.29-1.78,2.93c-0.16,0.1-0.25,0.28-0.08,0.4C62.37,52.5,62.7,52.39,62.87,52.29L62.87,52.29z"/>
				</g>
			</g>

				<ellipse transform="matrix(0.9955 -0.0944 0.0944 0.9955 -4.2955 5.8571)" class="st0" cx="59.79" cy="48.35" rx="4.47" ry="4.82"/>
		</g>
		<g>
			<g>
				<g>
					<path class="st0" d="M62.28,62.47c1.38-0.81,1.62-2.58,1.23-4.02c-0.19-0.69-0.62-1.23-1.3-1.47c-0.7-0.25-1.5-0.2-2.21-0.03
						c-0.67,0.15-1.32,0.46-1.82,0.92c-0.58,0.54-0.86,1.29-0.99,2.05c-0.12,0.71-0.04,1.42,0.36,2.03
						c0.36,0.55,0.93,0.95,1.56,1.15c1.6,0.52,3.31-0.34,4.29-1.6c0.15-0.19-0.12-0.3-0.27-0.31c-0.23-0.02-0.49,0.09-0.64,0.27
						c-0.62,0.79-1.61,1.41-2.64,1.13c-1.06-0.28-1.79-1.28-1.73-2.37c0.06-1.15,0.55-2.28,1.7-2.67c0.47-0.16,1.02-0.22,1.51-0.12
						c0.57,0.12,0.97,0.51,1.16,1.06c0.22,0.62,0.25,1.35,0.17,2.01c-0.08,0.68-0.37,1.29-0.98,1.65c-0.16,0.09-0.26,0.29-0.08,0.4
						C61.79,62.67,62.11,62.57,62.28,62.47L62.28,62.47z"/>
				</g>
			</g>

				<ellipse transform="matrix(0.9956 -0.0933 0.0933 0.9956 -5.3391 5.8896)" class="st0" cx="60.34" cy="60.07" rx="2.64" ry="2.86"/>
		</g>
		<g>
			<g>
				<g>
					<path class="st0" d="M20.4,46.83c-1.38,0.81-1.62,2.58-1.23,4.02c0.19,0.69,0.62,1.23,1.3,1.47c0.7,0.25,1.5,0.2,2.21,0.03
						c0.67-0.15,1.32-0.46,1.82-0.92c0.58-0.54,0.86-1.29,0.99-2.05c0.12-0.71,0.04-1.42-0.36-2.03c-0.36-0.55-0.93-0.95-1.56-1.15
						c-1.6-0.52-3.31,0.34-4.29,1.6c-0.15,0.19,0.12,0.3,0.27,0.31c0.23,0.02,0.49-0.09,0.64-0.27c0.62-0.79,1.61-1.41,2.64-1.13
						c1.06,0.28,1.79,1.28,1.73,2.37c-0.06,1.15-0.55,2.28-1.7,2.67c-0.47,0.16-1.02,0.22-1.51,0.12c-0.57-0.12-0.97-0.51-1.16-1.06
						c-0.22-0.62-0.25-1.35-0.17-2.01c0.08-0.68,0.37-1.29,0.98-1.65c0.16-0.09,0.26-0.29,0.08-0.4
						C20.89,46.62,20.57,46.73,20.4,46.83L20.4,46.83z"/>
				</g>
			</g>

				<ellipse transform="matrix(0.9956 -0.0933 0.0933 0.9956 -4.494 2.2981)" class="st0" cx="22.34" cy="49.23" rx="2.64" ry="2.86"/>
		</g>
		<g>
			<g>
				<path class="st0" d="M45.5,50.64c1.37-0.82,1.56-2.62,1.21-4.04c-0.17-0.68-0.57-1.25-1.23-1.53c-0.66-0.28-1.43-0.25-2.12-0.12
					c-0.69,0.13-1.35,0.43-1.87,0.9c-0.57,0.51-0.86,1.21-1.01,1.95c-0.15,0.75-0.11,1.52,0.27,2.19c0.33,0.57,0.89,1,1.5,1.24
					c1.56,0.6,3.3-0.23,4.27-1.49c0.37-0.48-0.55-0.6-0.8-0.27c-0.61,0.8-1.61,1.49-2.67,1.2c-1.07-0.29-1.75-1.29-1.68-2.38
					c0.07-1.14,0.57-2.24,1.73-2.6c0.46-0.14,0.99-0.21,1.47-0.1c0.56,0.12,0.93,0.53,1.1,1.06c0.2,0.62,0.23,1.32,0.15,1.96
					c-0.08,0.68-0.37,1.26-0.97,1.62c-0.18,0.11-0.23,0.35-0.06,0.48C45.01,50.85,45.32,50.75,45.5,50.64L45.5,50.64z"/>
			</g>
		</g>
		<g>
			<g>
				<path class="st0" d="M35.99,54.16c0.96-0.54,1.65-1.37,1.92-2.45c0.26-1,0.23-2.17-0.01-3.18c-0.23-0.99-0.8-1.81-1.75-2.21
					c-0.94-0.4-2.05-0.36-3.03-0.18c-0.97,0.18-1.94,0.56-2.7,1.2c-0.85,0.72-1.3,1.69-1.54,2.76c-0.24,1.06-0.19,2.16,0.4,3.1
					c0.5,0.8,1.33,1.4,2.21,1.71c2.24,0.79,4.71-0.34,6.14-2.1c0.38-0.47-0.54-0.59-0.8-0.27c-1.02,1.25-2.63,2.21-4.3,1.87
					c-1.66-0.34-2.9-1.78-2.8-3.49c0.05-0.93,0.32-1.98,0.91-2.72c0.48-0.62,1.18-1.03,1.93-1.25c1.52-0.46,3.56-0.41,4.22,1.31
					c0.33,0.86,0.37,1.85,0.29,2.75c-0.1,1.06-0.54,2.06-1.5,2.6C35,53.94,35.52,54.43,35.99,54.16L35.99,54.16z"/>
			</g>
		</g>
	</g>
</g>
</svg>
