<?xml version="1.0" encoding="utf-8"?>
<!-- Generator: Adobe Illustrator 24.2.0, SVG Export Plug-In . SVG Version: 6.00 Build 0)  -->
<svg version="1.1" id="Слой_1" xmlns="http://www.w3.org/2000/svg" xmlns:xlink="http://www.w3.org/1999/xlink" x="0px" y="0px"
	 viewBox="0 0 95 88" style="enable-background:new 0 0 95 88;" xml:space="preserve">
<style type="text/css">
	.st0{fill:#003974;}
	.st1{fill:#FFFFFF;}
</style>

<g>
	<g>
		<g>
			<g>
				<path class="st0" d="M42.46,26.92c-1.97,1.2-2.35,3.99-2.08,6.08c0.27,2.1,1.37,4.29,3.36,5.23c2.01,0.94,4.45,0.32,6-1.18
					c1.72-1.66,2.23-4.33,1.69-6.6c-0.32-1.34-1.06-2.68-2.23-3.44c-1.11-0.72-2.51-0.87-3.76-0.44c-0.57,0.2-0.42,0.84,0.17,0.64
					c2.27-0.79,4.11,1.06,4.74,3.1c0.59,1.92,0.36,4.25-0.88,5.89c-1.15,1.52-3.23,2.28-5.03,1.47c-1.68-0.75-2.63-2.57-2.99-4.29
					c-0.4-1.93-0.24-4.88,1.65-6.03c0.19-0.11,0.22-0.34,0.06-0.48C42.96,26.7,42.63,26.81,42.46,26.92L42.46,26.92z"/>
			</g>
		</g>
		<g>
			<g>
				<path class="st0" d="M38.26,39.38c0.47-0.07,0.93-0.15,1.4-0.22c0.21-0.03,0.42-0.07,0.64-0.1c0.18-0.03,0.45-0.13,0.63-0.1
					c0.33,0.05,0.57,0.63,0.72,0.88c0.21,0.34,0.41,0.69,0.61,1.03c0.83,1.47,1.55,3.01,2.16,4.58c0.08,0.21,1.03-0.1,0.97-0.26
					c-0.68-1.74-1.48-3.42-2.42-5.03c-0.22-0.37-0.44-0.74-0.68-1.1c-0.21-0.32-0.42-0.49-0.82-0.47c-0.49,0.02-1,0.15-1.49,0.22
					c-0.51,0.08-1.02,0.16-1.52,0.24c-0.12,0.02-0.54,0.1-0.57,0.25C37.85,39.47,38.19,39.4,38.26,39.38L38.26,39.38z"/>
			</g>
		</g>
		<g>
			<g>
				<path class="st0" d="M45.33,45.67c0.49-0.04,0.98-0.07,1.48-0.11c0.13-0.01,0.26-0.03,0.38-0.08c0.08-0.03,0.21-0.09,0.26-0.17
					c0.04-0.05,0.07-0.11,0.01-0.16c-0.07-0.05-0.17-0.06-0.25-0.06c-0.49,0.04-0.98,0.07-1.48,0.11c-0.13,0.01-0.26,0.03-0.38,0.08
					c-0.08,0.03-0.21,0.09-0.26,0.17c-0.04,0.05-0.07,0.11-0.01,0.16C45.14,45.66,45.25,45.67,45.33,45.67L45.33,45.67z"/>
			</g>
		</g>
		<g>
			<g>
				<path class="st0" d="M48.28,43.01c0.7-1.34,1.52-2.61,2.44-3.81c0.14-0.18-0.12-0.29-0.27-0.3c-0.23-0.01-0.49,0.08-0.64,0.27
					c-0.92,1.2-1.74,2.47-2.44,3.81C47.16,43.39,48.12,43.3,48.28,43.01L48.28,43.01z"/>
			</g>
		</g>
		<g>
			<g>
				<path class="st0" d="M51.04,39.17c0.64-0.05,1.3-0.16,1.94-0.15c0.72,0.01,0.95,0.49,1.1,1.12c0.3,1.25,0.25,2.57,0.25,3.84
					c0,2.66-0.04,5.32-0.13,7.98c-0.01,0.24,0.95,0.09,0.97-0.26c0.1-3.06,0.16-6.12,0.12-9.19c-0.01-0.69-0.03-1.39-0.14-2.07
					c-0.08-0.52-0.18-1.21-0.59-1.59c-0.32-0.29-0.79-0.34-1.2-0.33c-0.73,0.01-1.46,0.11-2.19,0.17
					C50.74,38.73,50.37,39.22,51.04,39.17L51.04,39.17z"/>
			</g>
		</g>
		<g>
			<g>
				<path class="st0" d="M37.48,41.04c-0.51,0.47-0.62,1.09-0.58,1.76c0.05,0.86,0.17,1.72,0.22,2.59c0.12,1.91,0.11,3.82,0,5.73
					c-0.01,0.13,0.95,0.02,0.97-0.26c0.11-1.78,0.12-3.56,0.02-5.33c-0.05-0.86-0.12-1.71-0.21-2.56c-0.07-0.71-0.12-1.47,0.45-2
					c0.16-0.15-0.14-0.16-0.23-0.15C37.92,40.82,37.63,40.9,37.48,41.04L37.48,41.04z"/>
			</g>
		</g>
		<g>
			<g>
				<path class="st0" d="M39.05,52.57c2.35-0.11,4.71-0.21,7.06-0.32c2.31-0.1,4.65-0.31,6.95-0.08c0.47,0.05,0.99-0.64,0.33-0.7
					c-2.31-0.23-4.64-0.04-6.95,0.07c-2.44,0.11-4.87,0.22-7.31,0.33C38.59,51.89,38.39,52.6,39.05,52.57L39.05,52.57z"/>
			</g>
		</g>
		<g>
			<g>
				<path class="st0" d="M45.19,39.7c0.79-0.03,1.58-0.08,2.36-0.15c-0.08-0.07-0.16-0.13-0.24-0.2c-0.74,0.71-1.24,1.65-1.41,2.66
					c-0.03,0.18,0.29,0.15,0.4,0.13c0.13-0.02,0.25-0.06,0.37-0.12c0.06-0.03,0.18-0.09,0.19-0.17c0.16-0.97,0.62-1.86,1.33-2.54
					c0.16-0.16-0.14-0.21-0.24-0.2c-0.79,0.07-1.58,0.12-2.36,0.15c-0.21,0.01-0.5,0.08-0.64,0.24
					C44.81,39.67,45.08,39.71,45.19,39.7L45.19,39.7z"/>
			</g>
		</g>
		<g>
			<g>
				<path class="st0" d="M44.59,40.09c-0.13,0.61,0.1,1.3,0.59,1.68c0.18,0.14,0.44,0.12,0.64,0.03c0.09-0.04,0.21-0.1,0.26-0.2
					c0.03-0.06,0.06-0.16-0.01-0.22c-0.16-0.13-0.29-0.28-0.39-0.46c0.01,0.02,0.02,0.04,0.04,0.07c-0.12-0.22-0.19-0.47-0.2-0.72
					c0,0.02,0,0.05,0,0.07c0-0.12,0.01-0.24,0.04-0.36c0.02-0.08-0.04-0.15-0.1-0.19c-0.09-0.05-0.22-0.06-0.32-0.04
					c-0.13,0.02-0.26,0.05-0.37,0.13C44.69,39.93,44.61,39.99,44.59,40.09L44.59,40.09z"/>
			</g>
		</g>
		<g>
			<g>
				<path class="st0" d="M47.86,44.86c0.02-0.56-0.05-1.12-0.23-1.66c-0.15-0.44-0.37-0.89-0.73-1.21
					c-0.18-0.16-0.44-0.16-0.65-0.06c-0.13,0.06-0.42,0.31-0.24,0.47c0.32,0.29,0.51,0.66,0.65,1.06c0.16,0.48,0.23,0.98,0.22,1.48
					c-0.01,0.23,0.24,0.31,0.44,0.29C47.51,45.22,47.86,45.09,47.86,44.86L47.86,44.86z"/>
			</g>
		</g>
		<g>
			<g>
				<path class="st0" d="M45.2,44.84c-0.01-0.5,0.06-1,0.22-1.47c0.07-0.2,0.15-0.39,0.26-0.58c0.05-0.09,0.11-0.17,0.17-0.25
					c0.04-0.05-0.01,0.01,0.02-0.02c0.02-0.02,0.03-0.03,0.05-0.05c0.03-0.04,0.07-0.07,0.11-0.11c0.15-0.14,0.1-0.33-0.1-0.38
					c-0.23-0.05-0.51,0.02-0.68,0.18c-0.79,0.71-1.03,1.91-1,2.93c0,0.08,0.14,0.14,0.19,0.15c0.11,0.03,0.25,0.02,0.36-0.01
					C44.98,45.18,45.2,45.07,45.2,44.84L45.2,44.84z"/>
			</g>
		</g>
	</g>
	<g>
		<g>
			<g>
				<path class="st0" d="M42.94,21.59c-0.73-2.17-0.45-4.56-0.04-6.77c0.36-1.95,1.09-4.12,2.84-5.27c2.17-1.42,3.81,0.94,4.05,2.91
					c0.14,1.14,0.04,2.32-0.04,3.46c-0.08,1.22-0.2,2.44-0.36,3.66c-0.06,0.46,1.39,0.19,1.44-0.22c0.27-2.13,0.52-4.33,0.46-6.48
					c-0.05-1.71-0.67-3.68-2.45-4.29c-1.7-0.58-3.7,0.24-4.95,1.41c-1.42,1.32-2.1,3.18-2.44,5.05c-0.41,2.25-0.71,4.72,0.03,6.94
					C41.63,22.39,43.07,21.98,42.94,21.59L42.94,21.59z"/>
			</g>
		</g>
		<g>
			<g>
				<path class="st0" d="M42.83,21.4c1.16-0.43,2.41-0.51,3.62-0.3c0.62,0.11,1.2,0.35,1.8,0.51c0.72,0.19,1.41,0.17,2.12-0.09
					c0.15-0.06,0.6-0.26,0.42-0.47c-0.17-0.21-0.76-0.02-0.94,0.05c0.1-0.02,0.09-0.02-0.03-0.02c-0.09-0.01-0.17-0.02-0.26-0.04
					c-0.15-0.03-0.3-0.08-0.45-0.13c-0.32-0.1-0.63-0.21-0.96-0.3c-0.6-0.15-1.22-0.25-1.85-0.28c-1.37-0.06-2.72,0.17-4.01,0.64
					c-0.15,0.06-0.6,0.26-0.42,0.47C42.06,21.65,42.65,21.46,42.83,21.4L42.83,21.4z"/>
			</g>
		</g>
		<g>
			<g>
				<path class="st0" d="M47.11,12.11c-0.11-0.2-0.25-0.3-0.48-0.34c-0.33-0.06-0.71,0.02-1.01,0.17c-0.43,0.21-0.71,0.54-0.99,0.91
					c-0.43,0.58-0.8,1.36-0.49,2.08c0.42,0.96,1.6,0.94,2.44,0.57c0.42-0.18,0.8-0.45,1.14-0.76c0.3-0.28,0.61-0.59,0.79-0.96
					c0.2-0.42,0.22-0.84-0.05-1.24c-0.32-0.48-0.98-0.55-1.49-0.39c-0.21,0.07-0.71,0.26-0.62,0.57c0.08,0.3,0.62,0.24,0.82,0.18
					c0.12-0.04-0.07,0.01-0.08,0.01c-0.07,0.01-0.12,0.01-0.19,0c0.09,0.01,0,0.01-0.02-0.01c0.02,0.01,0.05,0.02,0.07,0.04
					c-0.07-0.04-0.01-0.01,0,0c0.02,0.02,0.04,0.04,0.06,0.06c0.03,0.04,0.09,0.11,0.1,0.13c0.12,0.2,0.1,0.39,0.02,0.63
					c-0.03,0.08-0.02,0.05-0.01,0.03c-0.01,0.03-0.03,0.06-0.05,0.09c-0.03,0.06-0.07,0.11-0.11,0.17
					c-0.04,0.05-0.08,0.11-0.13,0.16c0.02-0.02,0.06-0.07-0.01,0.01c-0.03,0.03-0.06,0.06-0.09,0.09c-0.1,0.1-0.19,0.19-0.3,0.28
					c-0.05,0.04-0.09,0.08-0.14,0.12c-0.09,0.07-0.01,0.01,0.01,0c-0.04,0.03-0.09,0.06-0.13,0.09c-0.02,0.01-0.18,0.09-0.18,0.11
					c0-0.01,0.16-0.07,0.03-0.01c-0.03,0.01-0.06,0.03-0.09,0.04c-0.1,0.05,0.03-0.04,0.05-0.02c0,0-0.1,0.03-0.09,0.03
					c0.01-0.01,0.19-0.03,0.06-0.01c-0.13,0.02,0.11,0,0.02,0c-0.09,0,0.11,0.03,0.02,0.01c-0.02-0.01-0.05-0.01-0.07-0.01
					c-0.1-0.02-0.02-0.01,0,0c-0.03-0.01-0.06-0.03-0.09-0.04c-0.07-0.03-0.03-0.02-0.01,0c-0.02-0.02-0.04-0.03-0.06-0.05
					c-0.05-0.05-0.1-0.1-0.14-0.15c-0.02-0.02-0.03-0.05-0.04-0.07c0.01,0.02,0.02,0.05-0.01-0.02c-0.02-0.05-0.04-0.1-0.06-0.16
					c-0.03-0.11-0.05-0.22-0.06-0.34c0,0.05,0-0.02,0-0.02c0-0.03,0-0.06,0.01-0.09c0.01-0.06,0.01-0.11,0.03-0.17
					c0.03-0.13,0.08-0.29,0.13-0.37c0.15-0.28,0.33-0.53,0.53-0.78c0.02-0.03,0.04-0.05,0.07-0.08c0.1-0.13-0.08,0.06,0.02-0.02
					c0.01-0.01,0.04-0.03,0.05-0.04c0.04-0.05-0.11,0.06-0.01,0.01c0.11-0.05-0.05,0.02-0.06,0.02c0.06-0.02,0.05-0.02-0.02,0
					c-0.06,0.02-0.12,0.04-0.19,0.04c-0.1,0.01-0.23,0-0.32-0.04c-0.02-0.01-0.03-0.02-0.05-0.04c0.03,0.03,0.03,0.03,0.01-0.01
					c0.15,0.28,0.55,0.26,0.82,0.18c0.17-0.05,0.36-0.12,0.48-0.25C47.03,12.36,47.16,12.21,47.11,12.11L47.11,12.11z"/>
			</g>
		</g>
		<g>
			<g>
				<path class="st0" d="M41.38,17.03c-2.29,0.01-4.58,0.02-6.87,0.04c-1.7,0.01-3.44,0-5.07,0.57c-3.27,1.15-4.16,4.34-4.33,7.49
					c-0.52,9.17-0.63,18.38-0.94,27.55c-0.02,0.65,1.44,0.38,1.46-0.16c0.27-8.14,0.55-16.29,0.82-24.43c0.1-2.91-0.3-7.47,2.55-9.3
					c1.56-1,3.69-0.82,5.46-0.83c2.13-0.01,4.25-0.02,6.38-0.04C41.43,17.93,42.35,17.03,41.38,17.03L41.38,17.03z"/>
			</g>
		</g>
		<g>
			<g>
				<path class="st0" d="M24.82,57.16c-0.11,2.1-0.17,4.21-0.18,6.32c-0.01,1.91-0.14,3.96,0.21,5.85c0.6,3.28,3.76,3.91,6.62,4.14
					c4.18,0.34,8.39,0.55,12.59,0.42c1.98-0.06,3.97-0.19,5.94-0.43c2.23-0.27,4.59-1.02,6.83-0.61c0.33,0.06,1.57-0.48,1.19-0.55
					c-1.75-0.32-3.44-0.01-5.17,0.28c-2.01,0.33-4.03,0.55-6.07,0.67c-4.14,0.24-8.3,0.07-12.44-0.2c-3.37-0.23-7.54-0.31-8.11-4.48
					c-0.24-1.79-0.16-3.66-0.15-5.46c0.01-2.11,0.07-4.21,0.18-6.32C26.28,56.58,24.84,56.75,24.82,57.16L24.82,57.16z"/>
			</g>
		</g>
		<g>
			<g>
				<path class="st0" d="M51.36,17.67c2.55-0.08,5.09-0.03,7.63,0.15c2.1,0.15,4.98,0.08,6.33,2.01c1.16,1.67,0.78,4,0.59,5.89
					c-0.25,2.52-0.43,5.05-0.56,7.58c-0.51,10.06-0.21,20.14-0.77,30.19c-0.08,1.39-0.17,2.78-0.29,4.16
					c-0.1,1.15-0.01,2.67-0.53,3.74c-0.58,1.21-2.7,0.35-3.76,0.26c-1.26-0.11-2.53-0.02-3.78,0.2c-0.73,0.13-1.16,1.08-0.17,0.91
					c1.53-0.27,3.05-0.3,4.58-0.03c0.89,0.15,1.77,0.36,2.67,0.15c2.1-0.51,2.19-2.61,2.36-4.4c0.51-5.71,0.66-11.44,0.74-17.16
					c0.08-5.81,0.1-11.63,0.37-17.43c0.13-2.86,0.33-5.72,0.62-8.56c0.19-1.89,0.47-4.08-0.55-5.8c-1.25-2.13-3.92-2.33-6.13-2.53
					c-3.05-0.27-6.12-0.34-9.18-0.24C50.77,16.79,50.36,17.7,51.36,17.67L51.36,17.67z"/>
			</g>
		</g>
	</g>
	<g>
		<g>
			<path class="st0" d="M35.35,58.4c1.15-0.52,2.36-0.54,3.54-0.15c0.8,0.27,1.6,0.63,2.46,0.53c0.74-0.09,1.28-0.49,1.66-1.11
				c0.1-0.16,0.19-0.43,0.35-0.55c0.23-0.18,0.33-0.1,0.56,0.02c0.31,0.16,0.57,0.39,0.86,0.59c0.52,0.36,1.07,0.64,1.72,0.53
				c0.42-0.07,0.75-0.28,1.1-0.5c0.43-0.27,0.84-0.42,1.35-0.48c1.82-0.22,3.6,0.26,5.3-0.65c0.17-0.09,0.24-0.24,0.09-0.37
				c-0.16-0.13-0.54,0.01-0.68,0.09c-0.89,0.48-1.97,0.38-2.95,0.36c-0.82-0.02-1.66-0.01-2.46,0.21c-0.37,0.1-0.73,0.26-1.06,0.45
				c-0.26,0.15-0.5,0.4-0.82,0.35c-0.18-0.03-0.37-0.16-0.51-0.25c-0.52-0.32-0.98-0.81-1.58-0.97c-0.56-0.15-1.2,0.02-1.63,0.42
				c-0.28,0.27-0.42,0.63-0.64,0.94c-0.41,0.58-1.02,0.37-1.6,0.18c-0.85-0.28-1.65-0.58-2.55-0.61c-0.99-0.04-1.96,0.18-2.86,0.58
				C34.36,58.29,34.92,58.59,35.35,58.4L35.35,58.4z"/>
		</g>
	</g>
	<g>
		<g>
			<path class="st0" d="M37.15,63.92c0.06-1.03,1.03-1.31,1.9-1.09c0.83,0.21,1.56,0.69,2.36,0.97c0.72,0.25,1.48,0.36,2.22,0.17
				c0.72-0.19,1.3-0.82,2.02-0.94c0.75-0.13,1.49,0.51,2.19,0.72c0.81,0.24,1.66,0.09,2.48-0.02c0.96-0.12,1.93-0.24,2.89-0.36
				c0.3-0.04,2.6-0.22,2.63-0.35c0.06-0.07,0.12-0.14,0.18-0.22c0.16-0.02,0.32-0.05,0.49-0.07c0.03,0.06,0.07,0.13,0.1,0.19
				c0-0.02,0.01-0.04,0.01-0.06c0.09-0.38-0.88-0.24-0.97,0.11c0,0.02-0.01,0.04-0.01,0.06c-0.02,0.08,0.04,0.15,0.1,0.19
				c0.3,0.15,1.01,0.06,1.07-0.35c0.09-0.6-1.04-0.38-1.31-0.35c-1.99,0.25-3.99,0.59-5.99,0.75c-1.01,0.08-1.68-0.41-2.59-0.71
				c-0.71-0.23-1.41-0.15-2.07,0.18c-0.32,0.16-0.62,0.36-0.93,0.53c-0.56,0.29-1.13,0.23-1.71,0.05c-0.85-0.27-1.62-0.77-2.48-1.01
				c-1.31-0.37-3.45,0.05-3.56,1.73C36.15,64.44,37.13,64.26,37.15,63.92L37.15,63.92z"/>
		</g>
	</g>
</g>
</svg>
