<?xml version="1.0" encoding="utf-8"?>
<!-- Generator: Adobe Illustrator 24.2.0, SVG Export Plug-In . SVG Version: 6.00 Build 0)  -->
<svg version="1.1" id="Слой_1" xmlns="http://www.w3.org/2000/svg" xmlns:xlink="http://www.w3.org/1999/xlink" x="0px" y="0px"
	 viewBox="0 0 95 88" style="enable-background:new 0 0 95 88;" xml:space="preserve">
<style type="text/css">
	.st0{fill:#003974;}
	.st1{fill:#FFFFFF;}
</style>
<g>
	<g>
		<g>
			<path class="st0" d="M34.95,30.46c-0.72,1.99-1.51,4.64,0.27,6.34c0.3,0.29,0.65,0.51,1.05,0.65c0.75,0.28,0.85,0.82,1.14,1.5
				c0.48,1.14,1.04,2.26,1.74,3.29c1.27,1.87,3.1,3.44,5.32,4.04c2.48,0.67,5-0.11,7.29-1.09c0.92-0.4,0.09-0.98-0.6-0.68
				c-2.24,0.96-4.58,1.61-6.9,0.52c-1.92-0.9-3.35-2.55-4.38-4.36c-0.56-0.98-0.94-2.01-1.39-3.04c-0.41-0.93-1.24-0.8-1.92-1.43
				c-1.67-1.55-0.81-4.1-0.15-5.91C36.6,29.77,35.14,29.94,34.95,30.46L34.95,30.46z"/>
		</g>
	</g>
	<g>
		<g>
			<path class="st0" d="M40.54,44.36c0.16,1.58,0.07,3.17-0.28,4.72c-0.06,0.26,0.46,0.18,0.58,0.15c0.19-0.04,0.38-0.09,0.55-0.17
				c0.09-0.04,0.27-0.12,0.3-0.23c0.36-1.59,0.47-3.23,0.3-4.86C41.96,43.69,40.5,43.97,40.54,44.36L40.54,44.36z"/>
		</g>
	</g>
	<g>
		<g>
			<path class="st0" d="M53.67,43.29c-0.35,1.71-0.35,3.47-0.02,5.19c0.07,0.36,0.59,0.38,0.86,0.31c0.31-0.08,0.66-0.34,0.59-0.7
				c-0.31-1.63-0.29-3.28,0.04-4.9c0.07-0.36-0.41-0.5-0.67-0.49C54.12,42.72,53.74,42.92,53.67,43.29L53.67,43.29z"/>
		</g>
	</g>
	<g>
		<g>
			<path class="st0" d="M40.71,48.68c-0.22,0.38-0.07,0.69,0.18,1.01c0.29,0.36,0.61,0.7,0.91,1.06c0.64,0.75,1.26,1.52,1.86,2.3
				c1.19,1.53,2.31,3.11,3.36,4.74c0.28,0.43,1.13,0.03,1.35-0.26c0.08-0.1,0.16-0.2,0.23-0.31c0.22-0.28-0.19-0.47-0.41-0.49
				c-0.36-0.03-0.74,0.13-0.95,0.41c-0.08,0.1-0.16,0.2-0.23,0.31c0.45-0.09,0.9-0.17,1.35-0.26c-0.96-1.49-1.98-2.94-3.06-4.35
				c-0.53-0.7-1.08-1.38-1.63-2.06c-0.28-0.34-0.56-0.67-0.85-1c-0.13-0.15-0.87-0.82-0.76-1.02c0.17-0.3-0.15-0.47-0.41-0.49
				C41.34,48.25,40.88,48.39,40.71,48.68L40.71,48.68z"/>
		</g>
	</g>
	<g>
		<g>
			<path class="st0" d="M53.86,47.9c-2.46,3.1-4.75,6.33-6.85,9.68c-0.2,0.31,0.17,0.55,0.43,0.58c0.36,0.05,0.75-0.13,0.95-0.44
				c2.05-3.26,4.28-6.41,6.68-9.43C55.63,47.59,54.25,47.41,53.86,47.9L53.86,47.9z"/>
		</g>
	</g>
	<g>
		<g>
			<path class="st0" d="M40.93,48.54c-2.82,0.76-5.7,1.4-8.46,2.37c-2.09,0.74-4.21,1.79-5.54,3.64c-1.59,2.22-1.61,5.08-1.6,7.7
				c0.01,3.18,0.28,6.36,0.79,9.5c0.11,0.65,1.56,0.28,1.45-0.39c-0.46-2.84-0.74-5.7-0.77-8.58c-0.03-2.49-0.17-5.41,1.19-7.61
				c1.2-1.95,3.43-2.91,5.52-3.58c2.52-0.8,5.11-1.42,7.66-2.11C42.08,49.26,41.82,48.3,40.93,48.54L40.93,48.54z"/>
		</g>
	</g>
	<g>
		<g>
			<path class="st0" d="M54.09,49.06c2.78,0.63,5.62,1.13,8.36,1.93c2.47,0.72,4.16,2.19,4.75,4.75c0.55,2.38,0.4,4.96,0.4,7.38
				c0,3.09-0.1,6.17-0.28,9.25c-0.03,0.54,1.42,0.25,1.44-0.2c0.18-3.07,0.28-6.14,0.29-9.22c0.01-2.69,0.23-5.67-0.58-8.28
				c-0.71-2.29-2.44-3.63-4.68-4.31c-2.87-0.88-5.87-1.39-8.79-2.06C54.56,48.23,53.29,48.88,54.09,49.06L54.09,49.06z"/>
		</g>
	</g>
	<g>
		<g>
			<path class="st0" d="M26.47,72.1c6.19,0.85,12.43,0.5,18.65,0.23c3.19-0.14,6.37-0.22,9.56-0.25c1.64-0.01,3.28-0.01,4.92,0
				c1.3,0.01,3.63-0.4,4.57,0.64c0.23,0.25,1.56-0.27,1.37-0.48c-0.74-0.82-2.02-0.68-3.03-0.7c-1.64-0.03-3.28-0.04-4.92-0.04
				c-3.36,0-6.72,0.07-10.08,0.2c-6.62,0.25-13.26,0.75-19.85-0.15C27.34,71.51,26.12,72.05,26.47,72.1L26.47,72.1z"/>
		</g>
	</g>
	<g>
		<g>
			<path class="st0" d="M33.42,60.64c-0.3,0.73-0.31,1.49-0.32,2.26c0,0.91-0.01,1.81-0.01,2.72c-0.01,1.78-0.02,3.56-0.02,5.33
				c0,0.43,1.45,0.17,1.45-0.39c0.01-1.71,0.01-3.42,0.02-5.13c0-0.84,0.01-1.68,0.01-2.52c0-0.84-0.01-1.67,0.32-2.46
				c0.13-0.31-0.47-0.32-0.62-0.3C33.94,60.19,33.54,60.34,33.42,60.64L33.42,60.64z"/>
		</g>
	</g>
	<g>
		<g>
			<path class="st0" d="M60.89,60.11c-0.32,2.13-0.35,4.28-0.27,6.43c0.04,1.08,0.11,2.16,0.18,3.24c0.04,0.55,0.07,1.1,0.11,1.66
				c0.02,0.38-0.07,0.97,0.23,1.23c0.26,0.23,0.87,0.05,1.11-0.1c0.21-0.13,0.34-0.22,0.35-0.47c0-0.11-0.21-0.15-0.27-0.16
				c-0.02,0-0.03-0.01-0.05-0.01c-0.4-0.09-1.69,0.53-0.91,0.71c0.02,0,0.03,0.01,0.05,0.01c-0.09-0.05-0.18-0.11-0.27-0.16
				c0,0.02,0,0.05,0,0.07c0.1-0.12,0.19-0.24,0.29-0.36c-0.02,0.01-0.04,0.02-0.06,0.04c0.37-0.03,0.74-0.07,1.11-0.1
				c-0.22-0.19-0.14-1.17-0.16-1.44c-0.03-0.51-0.07-1.03-0.1-1.54c-0.07-1-0.13-2-0.17-3c-0.08-2.09-0.05-4.18,0.26-6.25
				C62.4,59.42,60.96,59.68,60.89,60.11L60.89,60.11z"/>
		</g>
	</g>
	<g>
		<g>
			<path class="st0" d="M33.37,51.27c1.26,2.12,2.52,4.23,3.77,6.35c0.46,0.78,0.88,1.49,1.89,1.47c1.08-0.02,2.25-0.43,3.3-0.65
				c-0.29-0.14-0.57-0.28-0.86-0.42c-0.05,0.87-0.01,1.74,0.16,2.6c0.06,0.34,0.1,0.91,0.33,1.19c0.22,0.27,0.71,0.42,1.01,0.6
				c1.35,0.84,2.46,1.98,3.29,3.34c0.33,0.54,1.72,0,1.33-0.63c-0.74-1.2-1.7-2.25-2.84-3.08c-0.51-0.38-1.36-0.65-1.55-1.27
				c-0.28-0.91-0.31-1.92-0.26-2.86c0.02-0.46-0.54-0.49-0.86-0.42c-0.44,0.09-0.87,0.18-1.31,0.27c-0.43,0.09-1.08,0.36-1.5,0.23
				c-0.37-0.12-0.53-0.54-0.72-0.87c-0.27-0.45-0.53-0.9-0.8-1.34c-1.02-1.71-2.03-3.42-3.05-5.13
				C34.38,50.1,32.99,50.63,33.37,51.27L33.37,51.27z"/>
		</g>
	</g>
	<g>
		<g>
			<path class="st0" d="M46.93,57.72c-0.23,4.84-0.3,9.68-0.22,14.53c0.01,0.31,1.46,0.07,1.45-0.39
				c-0.08-4.84-0.01-9.69,0.22-14.53C48.39,57.05,46.95,57.25,46.93,57.72L46.93,57.72z"/>
		</g>
	</g>
	<g>
		<g>
			<path class="st0" d="M34.99,20.9c0.7,1.28,1.55,2.63,3,3.15c0.76,0.27,1.67,0.29,2.2-0.42c0.5-0.68,0.88-1.51,1.15-2.31
				c0.11-0.32,0.19-0.68,0.39-0.96c0.2-0.28,0.38-0.15,0.76-0.07c0.86,0.17,1.7,0.14,2.46-0.35c0.73-0.47,1.13-1.21,1.39-2.02
				c0.29-0.94,0.51-1.9,0.77-2.85c-0.48,0.09-0.97,0.18-1.45,0.28c-0.01,0.04-0.03,0.07-0.04,0.11c-0.23,0.22-0.14,0.47,0.15,0.56
				c0.32,0.1,0.79-0.04,1.02-0.27c0.25-0.24,0.33-0.44,0.32-0.78c-0.02-0.56-1.34-0.12-1.45,0.28c-0.15,0.58-0.31,1.15-0.46,1.73
				c-0.15,0.57-0.27,1.18-0.53,1.71c-0.19,0.38-0.49,0.88-0.96,0.84c-0.51-0.04-0.99-0.22-1.5-0.2c-0.93,0.05-1.67,0.55-2.04,1.39
				c-0.18,0.41-0.28,0.85-0.46,1.27c-0.12,0.28-0.26,0.54-0.41,0.8c-0.11,0.2-0.26,0.63-0.45,0.75c0.18-0.06,0.37-0.13,0.55-0.19
				c-0.6,0.1-1.36-0.63-1.72-1.02c-0.49-0.54-0.88-1.16-1.22-1.8C36.16,19.99,34.75,20.45,34.99,20.9L34.99,20.9z"/>
		</g>
	</g>
	<g>
		<g>
			<path class="st0" d="M54.37,18.65c-0.79,0.93-1.83,1.65-3,2.04c-0.93,0.31-2.07,0.24-2.87,0.9c-0.36,0.29-0.45,0.61-0.48,1.06
				C48,23.1,48.15,22.97,47.83,23c-0.27,0.03-0.62-0.09-0.89-0.1c-1.07-0.03-2.23,0.33-3.03,1.05c-0.63,0.57-1.04,1.59-0.15,2.14
				c0.91,0.56,2.29,0.3,3.29,0.27c1.31-0.04,2.76,0.09,4.04-0.25c0.49-0.13,0.94-0.37,1.33-0.69c0.37-0.31,0.72-0.88,1.17-1.08
				c0.49-0.21,1.25,0.18,1.77,0.22c0.57,0.04,1.14-0.06,1.64-0.33c0.45-0.24,0.79-0.6,1.06-1.02c0.14-0.22,0.26-0.45,0.38-0.68
				c0.06-0.11,0.12-0.23,0.19-0.34c0.08-0.13,0.35-0.35,0.06-0.33c-0.16-0.02-0.32-0.03-0.48-0.05c0.02,0.03,0.04,0.07,0.06,0.1
				c0.19-0.12,0.38-0.23,0.58-0.35c-0.04,0.01-0.07,0.02-0.11,0.03c-0.21,0.06-0.71,0.25-0.63,0.56c0.08,0.29,0.63,0.23,0.82,0.17
				c0.32-0.1,0.74-0.25,0.79-0.63c0.05-0.33-0.2-0.56-0.5-0.63c-1.04-0.23-1.71,0.66-2.14,1.44c-0.2,0.37-0.45,1.02-0.86,1.2
				c-0.45,0.19-1.25-0.2-1.75-0.23c-1.03-0.07-1.88,0.39-2.59,1.09c-0.41,0.4-0.72,0.78-1.32,0.87c-0.77,0.12-1.6,0.06-2.38,0.08
				c-0.73,0.02-1.47,0.06-2.2,0.07c-0.52,0.01-1.32-0.01-1.3-0.71c0.02-0.72,0.94-1.13,1.56-1.15c0.51-0.02,1.01,0.15,1.52,0.12
				c0.44-0.02,0.9-0.13,1.26-0.41c0.47-0.36,0.35-0.72,0.45-1.22c0.11-0.57,0.94-0.51,1.42-0.62c0.63-0.14,1.25-0.35,1.83-0.62
				c1.16-0.55,2.16-1.31,2.99-2.29c0.23-0.27-0.2-0.42-0.39-0.43C54.98,18.24,54.6,18.39,54.37,18.65L54.37,18.65z"/>
		</g>
	</g>
	<g>
		<g>
			<path class="st0" d="M27.7,54.83c-0.62,0.15-1.1,0.7-0.76,1.33c0.27,0.5,0.85,0.76,1.35,0.98c0.58,0.26,1.17,0.51,1.35,1.17
				c0.23,0.81-0.34,1.18-0.68,1.82c-0.15,0.28-0.24,0.62-0.15,0.92c0.09,0.3,0.32,0.4,0.53,0.59c0.35,0.31,0.11,0.51-0.24,0.63
				c-0.38,0.14-0.78,0.24-1.16,0.39c-1.12,0.44-2.65,1.62-1.98,3.01c0.27,0.56,1.69,0.12,1.45-0.39c-0.72-1.5,1.38-1.94,2.33-2.3
				c0.56-0.21,1.19-0.61,1.25-1.27c0.02-0.28-0.09-0.5-0.29-0.68c-0.24-0.22-0.54-0.27-0.43-0.67c0.08-0.32,0.37-0.55,0.55-0.81
				c0.16-0.23,0.27-0.5,0.32-0.77c0.09-0.53-0.05-1.09-0.37-1.52c-0.33-0.44-0.85-0.67-1.34-0.89c-0.26-0.12-0.55-0.23-0.78-0.4
				c-0.1-0.07-0.22-0.16-0.28-0.27c-0.04-0.04-0.07-0.09-0.08-0.16c0.02-0.23-0.11-0.19-0.37,0.12c0.25-0.06,0.7-0.3,0.61-0.62
				C28.45,54.74,27.94,54.78,27.7,54.83L27.7,54.83z"/>
		</g>
	</g>
	<g>
		<g>
			<path class="st0" d="M53.14,71.11c-0.21-0.56-0.46-1.19-0.3-1.8c0.04-0.17,0.15-0.45,0.33-0.53c0.16-0.07,0.6,0.05,0.78,0.05
				c1.11,0.03,2.25-0.46,2.96-1.32c0.33-0.4,0.58-0.86,0.68-1.37c0.05-0.23,0.05-0.48,0.03-0.71c0-0.05-0.04-0.41-0.03-0.4
				c-0.05-0.02-0.19,0.14-0.19,0.13c0.03,0.02,0.21,0.01,0.27,0.02c0.17,0.02,0.34,0.07,0.5,0.1c0.3,0.06,0.68,0.08,0.96,0.2
				c0.25,0.11,0.37,0.33,0.5,0.56c0.18,0.31,0.35,0.62,0.53,0.93c0.27,0.48,1.67-0.01,1.34-0.6c-0.33-0.58-0.61-1.36-1.23-1.67
				c-0.37-0.19-0.83-0.23-1.23-0.31c-0.33-0.07-0.66-0.15-0.99-0.17c-0.61-0.04-1.43,0.09-1.79,0.65c-0.2,0.31-0.11,0.59-0.09,0.93
				c0.02,0.29-0.04,0.6-0.15,0.86c-0.21,0.5-0.63,0.97-1.15,1.15c-0.28,0.09-0.56,0.05-0.85,0.03c-0.42-0.03-0.83-0.02-1.24,0.12
				c-0.65,0.21-1.15,0.7-1.36,1.35c-0.23,0.72,0.03,1.48,0.28,2.15C51.91,72.07,53.35,71.66,53.14,71.11L53.14,71.11z"/>
		</g>
	</g>
	<g>
		<g>
			<path class="st0" d="M60.29,50.65c-0.99,1.67-1.98,3.34-2.97,5.01c-0.24,0.41-0.48,0.81-0.73,1.22
				c-0.16,0.26-0.38,0.86-0.66,0.94c-0.3,0.08-0.95-0.19-1.25-0.25c-0.48-0.1-0.96-0.2-1.44-0.3c-0.43-0.09-1.18,0.09-1.15,0.64
				c0.06,1.16-0.09,2.29-0.42,3.41c0.14-0.15,0.28-0.29,0.42-0.44c-1.93,0.98-3.54,2.41-4.68,4.26c-0.39,0.64,1.07,0.59,1.37,0.11
				c0.84-1.37,1.99-2.51,3.38-3.33c0.29-0.17,0.67-0.28,0.88-0.55c0.21-0.27,0.26-0.79,0.33-1.12c0.18-0.9,0.22-1.8,0.17-2.72
				c-0.38,0.21-0.77,0.43-1.15,0.64c0.61,0.13,1.22,0.26,1.83,0.38c0.52,0.11,1.08,0.29,1.62,0.26c0.95-0.05,1.46-0.69,1.91-1.45
				c1.31-2.19,2.61-4.4,3.92-6.59C62.04,50.11,60.58,50.16,60.29,50.65L60.29,50.65z"/>
		</g>
	</g>
	<g>
		<g>
			<path class="st0" d="M34.63,26.65c0.69-6.31,6.15-12.12,12.63-12.55c3.47-0.23,7.07,2.18,9.42,4.56c2.2,2.23,3.75,4.97,4.49,8.01
				c0.14,0.57,1.59,0.2,1.45-0.39c-0.87-3.59-2.88-6.82-5.67-9.23c-2.72-2.35-6.31-4.26-9.99-3.82
				c-6.91,0.82-13.01,6.59-13.78,13.57C33.1,27.46,34.57,27.21,34.63,26.65L34.63,26.65z"/>
		</g>
	</g>
	<g>
		<g>
			<path class="st0" d="M33.44,26.26c-1.04,1.49-1.81,3.17-2.2,4.95c-0.13,0.59-0.28,1.46,0.33,1.85c0.67,0.43,1.59,0.06,2.21-0.29
				c1.41-0.8,2.25-2.25,3.81-2.83c1.55-0.57,3.27-0.52,4.89-0.42c0.31,0.02,0.79-0.11,0.95-0.4c0.17-0.3-0.14-0.44-0.4-0.46
				c-2.96-0.19-6.14,0.03-8.42,2.15c-0.51,0.48-0.99,1.06-1.61,1.41c-0.3,0.17-0.36,0.11-0.42-0.25c-0.06-0.37,0.06-0.76,0.14-1.12
				c0.39-1.64,1.1-3.16,2.06-4.54c0.2-0.29-0.17-0.44-0.4-0.46C34.07,25.84,33.64,25.98,33.44,26.26L33.44,26.26z"/>
		</g>
	</g>
	<g>
		<g>
			<path class="st0" d="M61.41,26.75c0.98,1.41,1.71,2.98,2.11,4.65c0.07,0.31,0.16,0.63,0.16,0.96c0,0.13-0.13,0.42-0.1,0.51
				c-0.13,0.22,0.06,0.19,0.56-0.09c-0.13-0.04-0.26-0.08-0.38-0.15c-0.65-0.3-1.16-0.83-1.66-1.32c-1.06-1.03-2.22-1.72-3.68-2.03
				c-1.51-0.33-3.08-0.3-4.61-0.21c-0.26,0.02-0.82,0.11-0.97,0.34c-0.16,0.24,0.14,0.23,0.34,0.22c1.74-0.11,3.6-0.12,5.25,0.55
				c0.73,0.3,1.37,0.73,1.94,1.26c0.6,0.56,1.15,1.2,1.88,1.59c0.74,0.4,1.57,0.42,2.32,0c0.55-0.31,0.62-0.89,0.53-1.47
				c-0.3-1.86-1.16-3.67-2.23-5.21C62.62,26.02,61.31,26.6,61.41,26.75L61.41,26.75z"/>
		</g>
	</g>
	<g>
		<g>
			<path class="st0" d="M67.98,61.89c0.58-0.34,0.5-1.07,0.01-1.45c-0.53-0.4-1.23-0.46-1.87-0.54c-0.69-0.09-1.31-0.33-1.48-1.08
				c-0.15-0.67,0.41-1.24,0.3-1.92c-0.04-0.27-0.17-0.53-0.39-0.7c-0.19-0.14-0.68-0.18-0.73-0.41c-0.07-0.31,0.41-0.55,0.61-0.69
				c0.28-0.19,0.56-0.38,0.82-0.6c0.93-0.78,1.8-2.24,0.77-3.32c-0.44-0.46-1.82,0.12-1.33,0.63c1.05,1.09-0.55,2.18-1.34,2.74
				c-0.48,0.34-1.01,0.79-0.99,1.44c0.01,0.27,0.12,0.52,0.33,0.7c0.2,0.16,0.56,0.15,0.72,0.32c0.34,0.35-0.25,1.25-0.27,1.66
				c-0.02,0.6,0.24,1.18,0.68,1.59c0.46,0.42,1.04,0.57,1.64,0.65c0.29,0.04,0.6,0.05,0.89,0.12c0.15,0.03,0.34,0.08,0.45,0.18
				c0.05,0.02,0.09,0.06,0.11,0.11c0.02,0.13,0.06,0.11,0.12-0.07c-0.27,0.16-0.35,0.53-0.08,0.73
				C67.25,62.21,67.7,62.06,67.98,61.89L67.98,61.89z"/>
		</g>
	</g>
	<g>
		<g>
			<path class="st0" d="M46.35,43.38c1.87,0.54,3.9-0.02,5.74-0.48c1.88-0.47,3.78-1.1,5.43-2.13c1.48-0.93,2.66-2.17,3.44-3.74
				c0.79-1.59,1.11-3.36,1.38-5.09c0.08-0.5-1.37-0.25-1.44,0.2c-0.47,2.94-1.16,5.95-3.66,7.85c-1.27,0.97-2.82,1.56-4.34,2
				c-0.82,0.24-1.66,0.44-2.5,0.61c-0.94,0.19-1.94,0.39-2.89,0.12c-0.33-0.09-0.73-0.03-1.02,0.15
				C46.35,42.96,46.01,43.29,46.35,43.38L46.35,43.38z"/>
		</g>
	</g>
	<g>
		<g>
			<path class="st0" d="M42.59,29.47c1.91-0.09,3.81-0.19,5.72-0.16c0.97,0.01,1.95,0.06,2.91,0.16c0.89,0.09,1.77,0.19,2.66,0.12
				c0.27-0.02,0.81-0.09,0.96-0.37c0.15-0.26-0.12-0.33-0.36-0.31c-0.93,0.07-1.85-0.07-2.78-0.15c-0.93-0.08-1.86-0.12-2.79-0.13
				c-1.91-0.03-3.82,0.07-5.72,0.16c-0.27,0.01-0.82,0.1-0.96,0.37C42.08,29.43,42.36,29.48,42.59,29.47L42.59,29.47z"/>
		</g>
	</g>
	<g>
		<g>
			<path class="st0" d="M57.93,30.58c0.62,1.7,1.59,4.45-0.19,5.84c-0.33,0.26-0.75,0.3-1.11,0.51c-0.41,0.23-0.6,0.55-0.79,0.98
				c-0.43,0.98-0.81,1.96-1.33,2.89c-1.02,1.82-2.45,3.52-4.41,4.35c-2.28,0.97-4.64,0.19-6.79-0.74c-0.55-0.24-1.68,0.55-0.86,0.91
				c2.33,1,4.85,1.7,7.35,0.93c2.26-0.7,4.08-2.3,5.4-4.23c0.73-1.08,1.31-2.25,1.8-3.46c0.09-0.23,0.16-0.58,0.31-0.77
				c0.21-0.27,0.42-0.27,0.73-0.41c0.4-0.18,0.77-0.44,1.08-0.76c1.72-1.81,1.02-4.35,0.26-6.42C59.16,29.59,57.72,30,57.93,30.58
				L57.93,30.58z"/>
		</g>
	</g>
</g>
</svg>
