<?xml version="1.0" encoding="utf-8"?>
<!-- Generator: Adobe Illustrator 24.2.0, SVG Export Plug-In . SVG Version: 6.00 Build 0)  -->
<svg version="1.1" id="Слой_1" xmlns="http://www.w3.org/2000/svg" xmlns:xlink="http://www.w3.org/1999/xlink" x="0px" y="0px"
	 viewBox="0 0 90 88" style="enable-background:new 0 0 90 88;" xml:space="preserve">
<style type="text/css">
	.st0{fill:url(#SVGID_1_);}
	.st1{fill:url(#SVGID_2_);}
	.st2{fill:#FFFFFF;}
	.st3{fill:url(#SVGID_3_);}
	.st4{fill:url(#SVGID_4_);}
	.st5{fill:url(#SVGID_5_);}
	.st6{fill:url(#SVGID_6_);}
	.st7{fill:#003974;}
	.st8{fill:#FFFFFF;stroke:#FFFFFF;stroke-width:0.5;stroke-miterlimit:10;}
	.st9{fill:none;stroke:#FFFFFF;stroke-width:0.75;stroke-miterlimit:10;}
	.st10{fill:url(#SVGID_7_);}
	.st11{fill:url(#SVGID_8_);}
	.st12{fill:url(#SVGID_9_);}
	.st13{fill:url(#SVGID_10_);}
	.st14{fill:url(#SVGID_11_);}
	.st15{fill:url(#SVGID_12_);}
	.st16{fill:url(#SVGID_13_);}
	.st17{fill:url(#SVGID_14_);}
	.st18{fill:url(#SVGID_15_);}
	.st19{fill:url(#SVGID_16_);}
	.st20{fill:url(#SVGID_17_);}
	.st21{fill:url(#SVGID_18_);}
	.st22{fill:#BCBEC0;stroke:url(#SVGID_19_);stroke-width:0.75;stroke-miterlimit:10;}
	.st23{fill:#BCBEC0;stroke:url(#SVGID_20_);stroke-width:0.75;stroke-miterlimit:10;}
	.st24{fill:#BCBEC0;stroke:url(#SVGID_21_);stroke-width:0.75;stroke-miterlimit:10;}
	.st25{fill:#BCBEC0;stroke:url(#SVGID_22_);stroke-width:0.75;stroke-miterlimit:10;}
	.st26{fill:#BCBEC0;stroke:url(#SVGID_23_);stroke-width:0.75;stroke-miterlimit:10;}
	.st27{fill:#BCBEC0;stroke:url(#SVGID_24_);stroke-width:0.75;stroke-miterlimit:10;}
	.st28{fill:url(#SVGID_25_);}
	.st29{fill:url(#SVGID_26_);}
	.st30{fill:none;stroke:#FFFFFF;stroke-miterlimit:10;}
	.st31{fill:url(#SVGID_27_);}
	.st32{fill:url(#SVGID_28_);}
	.st33{fill:none;stroke:url(#SVGID_29_);stroke-width:0.75;stroke-miterlimit:10;}
	.st34{fill:none;stroke:url(#SVGID_30_);stroke-width:0.75;stroke-miterlimit:10;}
	.st35{fill:none;stroke:url(#SVGID_31_);stroke-width:0.75;stroke-miterlimit:10;}
	.st36{fill:none;stroke:url(#SVGID_32_);stroke-width:0.75;stroke-miterlimit:10;}
	.st37{fill:none;stroke:url(#SVGID_33_);stroke-width:0.75;stroke-miterlimit:10;}
	.st38{fill:none;stroke:url(#SVGID_34_);stroke-width:0.75;stroke-miterlimit:10;}
	.st39{fill:url(#SVGID_35_);}
	.st40{fill:url(#SVGID_36_);}
	.st41{stroke:#FFFFFF;stroke-miterlimit:10;}
	.st42{fill:url(#SVGID_37_);stroke:#FFFFFF;stroke-miterlimit:10;}
	.st43{fill:#003974;stroke:#D1D3D4;stroke-width:0.75;stroke-miterlimit:10;}
	.st44{fill:url(#SVGID_38_);}
	.st45{fill:url(#SVGID_39_);}
	.st46{fill:url(#SVGID_40_);}
	.st47{fill:url(#SVGID_41_);}
	.st48{fill:url(#SVGID_42_);}
	.st49{fill:url(#SVGID_43_);}
	.st50{fill:none;stroke:#FFFFFF;stroke-width:2;stroke-miterlimit:10;}
	.st51{fill:#FFFFFF;stroke:#FFFFFF;stroke-width:0.75;stroke-miterlimit:10;}
	.st52{fill:none;stroke:#FFFFFF;stroke-linecap:round;stroke-linejoin:round;stroke-miterlimit:10;}
	.st53{fill:url(#SVGID_44_);}
	.st54{fill:url(#SVGID_45_);}
	.st55{fill:none;}
	.st56{fill:url(#SVGID_46_);}
	.st57{fill:url(#SVGID_47_);}
	.st58{fill:url(#SVGID_48_);}
	.st59{fill:url(#SVGID_49_);}
	.st60{fill:none;stroke:#FFFFFF;stroke-width:0.25;stroke-miterlimit:10;}
	.st61{fill:url(#SVGID_50_);}
	.st62{fill:url(#SVGID_51_);}
	.st63{fill:url(#SVGID_52_);}
	.st64{fill:url(#SVGID_53_);}
	.st65{fill:#E4F6FF;}
	.st66{fill:#D3EFFB;}
	.st67{fill:#B3E59F;}
	.st68{fill:url(#SVGID_54_);}
	.st69{fill:url(#SVGID_55_);}
	.st70{fill:url(#SVGID_56_);}
	.st71{fill:url(#SVGID_57_);}
	.st72{fill:url(#SVGID_58_);}
	.st73{fill:url(#SVGID_59_);}
	.st74{fill:#030303;}
	.st75{fill:url(#SVGID_60_);}
	.st76{fill:url(#SVGID_61_);}
	.st77{fill:url(#SVGID_62_);}
	.st78{fill:url(#SVGID_63_);}
	.st79{fill:url(#SVGID_64_);}
	.st80{fill:url(#SVGID_65_);}
	.st81{fill:none;stroke:#FFFFFF;stroke-width:3;stroke-miterlimit:10;}
	.st82{fill:url(#SVGID_66_);}
	.st83{fill:url(#SVGID_67_);}
</style>
<g>
	<g>
		<linearGradient id="SVGID_1_" gradientUnits="userSpaceOnUse" x1="7.0851" y1="44" x2="82.9149" y2="44">
			<stop  offset="0" style="stop-color:#BCBEC0"/>
			<stop  offset="0.2456" style="stop-color:#8295A9"/>
			<stop  offset="0.5639" style="stop-color:#3C638D"/>
			<stop  offset="0.794" style="stop-color:#11457B"/>
			<stop  offset="0.9106" style="stop-color:#003974"/>
		</linearGradient>
		<circle class="st0" cx="45" cy="44" r="37.91"/>
		
			<linearGradient id="SVGID_2_" gradientUnits="userSpaceOnUse" x1="-984.8165" y1="44" x2="-913.5665" y2="44" gradientTransform="matrix(-1 0 0 1 -904.1915 0)">
			<stop  offset="0" style="stop-color:#BCBEC0"/>
			<stop  offset="0.2456" style="stop-color:#8295A9"/>
			<stop  offset="0.5639" style="stop-color:#3C638D"/>
			<stop  offset="0.794" style="stop-color:#11457B"/>
			<stop  offset="0.9106" style="stop-color:#003974"/>
		</linearGradient>
		<circle class="st1" cx="45" cy="44" r="35.63"/>
	</g>
	<g>
		<path class="st2" d="M62.13,23.47v-1.74c0-0.39-0.32-0.7-0.7-0.7h-0.2c-0.39,0-0.7,0.32-0.7,0.7v1.74h-2.47v-1.74
			c0-0.39-0.32-0.7-0.7-0.7h-0.2c-0.39,0-0.7,0.32-0.7,0.7v1.74h-2.47v-1.74c0-0.39-0.32-0.7-0.7-0.7h-0.2c-0.39,0-0.7,0.32-0.7,0.7
			v1.74h-2.47v-1.74c0-0.39-0.32-0.7-0.7-0.7h-0.2c-0.39,0-0.7,0.32-0.7,0.7v1.74h-2.47v-1.74c0-0.39-0.32-0.7-0.7-0.7h-0.2
			c-0.39,0-0.7,0.32-0.7,0.7v1.74H41.7v-1.74c0-0.39-0.32-0.7-0.7-0.7h-0.2c-0.39,0-0.7,0.32-0.7,0.7v1.74h-2.47v-1.74
			c0-0.39-0.32-0.7-0.7-0.7h-0.2c-0.39,0-0.7,0.32-0.7,0.7v1.74h-2.47v-1.74c0-0.39-0.32-0.7-0.7-0.7h-0.2c-0.39,0-0.7,0.32-0.7,0.7
			v1.74h-2.47v-1.74c0-0.39-0.32-0.7-0.7-0.7h-0.2c-0.39,0-0.7,0.32-0.7,0.7v1.74h-1.24v8.27h36.77v-8.27H62.13z"/>
		<rect x="26.59" y="25.47" class="st81" width="36.82" height="41.51"/>
	</g>
</g>
</svg>
