<svg width="98" height="98" viewBox="0 0 98 98" fill="none" xmlns="http://www.w3.org/2000/svg">
<path d="M48.5218 97.0436C75.3197 97.0436 97.0436 75.3197 97.0436 48.5218C97.0436 21.724 75.3197 0 48.5218 0C21.724 0 0 21.724 0 48.5218C0 75.3197 21.724 97.0436 48.5218 97.0436Z" fill="url(#paint0_linear)"/>
<path d="M48.5218 94.1254C73.708 94.1254 94.1254 73.708 94.1254 48.5218C94.1254 23.3356 73.708 2.91821 48.5218 2.91821C23.3357 2.91821 2.91824 23.3356 2.91824 48.5218C2.91824 73.708 23.3357 94.1254 48.5218 94.1254Z" fill="url(#paint1_linear)"/>
<path d="M66.8759 23.755H65.0328C65.0328 21.7328 63.3945 20.0817 61.3594 20.0817C59.3243 20.0817 57.686 21.72 57.686 23.755H32.0108C29.9885 23.755 28.3374 25.3933 28.3374 27.4284V31.1018H27.4159C26.9039 31.1018 26.4944 31.5114 26.4944 32.0233C26.4944 32.5353 26.9039 32.9449 27.4159 32.9449H28.3374V36.6183H27.4159C26.9039 36.6183 26.4944 37.0278 26.4944 37.5398C26.4944 38.0518 26.9039 38.4613 27.4159 38.4613H28.3374V42.1347H27.4159C26.9039 42.1347 26.4944 42.5443 26.4944 43.0563C26.4944 43.5682 26.9039 43.9778 27.4159 43.9778H28.3374V47.6512H27.4159C26.9039 47.6512 26.4944 48.0607 26.4944 48.5727C26.4944 49.0847 26.9039 49.4943 27.4159 49.4943H28.3374V53.1676H27.4159C26.9039 53.1676 26.4944 53.5772 26.4944 54.0892C26.4944 54.6011 26.9039 55.0107 27.4159 55.0107H28.3374V58.6841H27.4159C26.9039 58.6841 26.4944 59.0937 26.4944 59.6056C26.4944 60.1176 26.9039 60.5272 27.4159 60.5272H28.3374V64.2006H27.4159C26.9039 64.2006 26.4944 64.6101 26.4944 65.1221C26.4944 65.6341 26.9039 66.0436 27.4159 66.0436H28.3374V69.717H27.4159C26.9039 69.717 26.4944 70.1266 26.4944 70.6386C26.4944 71.1505 26.9039 71.5601 27.4159 71.5601H28.3374V73.3904C28.3374 75.4127 29.9757 77.0638 32.0108 77.0638H66.8759C68.8981 77.0638 70.5492 75.4255 70.5492 73.3904V27.4156C70.5364 25.3933 68.8981 23.755 66.8759 23.755ZM59.5291 23.755C59.5291 22.7439 60.3483 21.9248 61.3594 21.9248C62.3705 21.9248 63.1897 22.7439 63.1897 23.755V26.5069H59.5291V23.755ZM59.5291 28.3372H63.2025V53.1036H59.5291V28.3372ZM59.5291 54.9467H63.2025V55.6507L61.3722 59.3241L59.5419 55.6507V54.9467H59.5291ZM33.8411 75.1311H32.0108C30.9997 75.1311 30.1805 74.3119 30.1805 73.3008V71.4705H31.1021C31.614 71.4705 32.0236 71.0609 32.0236 70.549C32.0236 70.037 31.614 69.6274 31.1021 69.6274H30.1805V65.954H31.1021C31.614 65.954 32.0236 65.5445 32.0236 65.0325C32.0236 64.5205 31.614 64.111 31.1021 64.111H30.1805V60.4376H31.1021C31.614 60.4376 32.0236 60.028 32.0236 59.516C32.0236 59.0041 31.614 58.5945 31.1021 58.5945H30.1805V54.9211H31.1021C31.614 54.9211 32.0236 54.5116 32.0236 53.9996C32.0236 53.4876 31.614 53.078 31.1021 53.078H30.1805V49.4047H31.1021C31.614 49.4047 32.0236 48.9951 32.0236 48.4831C32.0236 47.9712 31.614 47.5616 31.1021 47.5616H30.1805V43.8882H31.1021C31.614 43.8882 32.0236 43.4786 32.0236 42.9667C32.0236 42.4547 31.614 42.0451 31.1021 42.0451H30.1805V38.3717H31.1021C31.614 38.3717 32.0236 37.9622 32.0236 37.4502C32.0236 36.9382 31.614 36.5287 31.1021 36.5287H30.1805V32.8553H31.1021C31.614 32.8553 32.0236 32.4457 32.0236 31.9337C32.0236 31.4218 31.614 31.0122 31.1021 31.0122H30.1805V27.3388C30.1805 26.3277 30.9997 25.5085 32.0108 25.5085H33.8411V75.1311ZM68.7062 73.288C68.7062 74.2991 67.887 75.1183 66.8759 75.1183H35.6714V25.5853H57.686V31.089H56.7645V29.2587C56.7645 28.7467 56.3549 28.3372 55.843 28.3372C55.331 28.3372 54.9214 28.7467 54.9214 29.2587V40.266C54.9214 40.778 55.331 41.1876 55.843 41.1876C56.3549 41.1876 56.7645 40.778 56.7645 40.266V32.9321H57.686V55.8683C57.686 56.0091 57.7244 56.1499 57.7884 56.2778L60.5403 61.7815C60.6938 62.0887 61.0138 62.2935 61.3594 62.2935C61.705 62.2935 62.025 62.1015 62.1786 61.7815L64.9304 56.2778C64.9944 56.1499 65.0328 56.0091 65.0328 55.8683V25.5853H66.8631C67.8742 25.5853 68.6934 26.4045 68.6934 27.4156V73.288H68.7062Z" fill="white"/>
<path d="M62.2809 71.458H52.1952C51.6832 71.458 51.2736 71.8676 51.2736 72.3796C51.2736 72.8915 51.6832 73.3011 52.1952 73.3011H62.2809C62.7929 73.3011 63.2025 72.8915 63.2025 72.3796C63.2025 71.8676 62.7929 71.458 62.2809 71.458Z" fill="white"/>
<path d="M65.9544 71.458H65.0328C64.5208 71.458 64.1113 71.8676 64.1113 72.3796C64.1113 72.8915 64.5208 73.3011 65.0328 73.3011H65.9544C66.4663 73.3011 66.8759 72.8915 66.8759 72.3796C66.8759 71.8676 66.4535 71.458 65.9544 71.458Z" fill="white"/>
<path d="M47.6003 27.4158H38.4232C37.9113 27.4158 37.5017 27.8253 37.5017 28.3373C37.5017 28.8493 37.9113 29.2589 38.4232 29.2589H47.6003C48.1122 29.2589 48.5218 28.8493 48.5218 28.3373C48.5218 27.8253 48.1122 27.4158 47.6003 27.4158Z" fill="white"/>
<path d="M41.1878 30.1675H38.436C37.924 30.1675 37.5145 30.5771 37.5145 31.089C37.5145 31.601 37.924 32.0106 38.436 32.0106H41.1878C41.6998 32.0106 42.1094 31.601 42.1094 31.089C42.0966 30.5899 41.687 30.1675 41.1878 30.1675Z" fill="white"/>
<defs>
<linearGradient id="paint0_linear" x1="-0.00627162" y1="48.5218" x2="97.0499" y2="48.5218" gradientUnits="userSpaceOnUse">
<stop stop-color="#BCBEC0"/>
<stop offset="0.2456" stop-color="#8295A9"/>
<stop offset="0.5639" stop-color="#3C638D"/>
<stop offset="0.794" stop-color="#11457B"/>
<stop offset="0.9106" stop-color="#003974"/>
</linearGradient>
<linearGradient id="paint1_linear" x1="94.119" y1="48.5218" x2="2.92465" y2="48.5218" gradientUnits="userSpaceOnUse">
<stop stop-color="#BCBEC0"/>
<stop offset="0.2456" stop-color="#8295A9"/>
<stop offset="0.5639" stop-color="#3C638D"/>
<stop offset="0.794" stop-color="#11457B"/>
<stop offset="0.9106" stop-color="#003974"/>
</linearGradient>
</defs>
</svg>
