<svg width="98" height="98" viewBox="0 0 98 98" fill="none" xmlns="http://www.w3.org/2000/svg">
<path d="M48.5218 97.0436C75.3197 97.0436 97.0436 75.3197 97.0436 48.5218C97.0436 21.724 75.3197 0 48.5218 0C21.724 0 0 21.724 0 48.5218C0 75.3197 21.724 97.0436 48.5218 97.0436Z" fill="url(#paint0_linear)"/>
<path d="M48.5218 94.1255C73.708 94.1255 94.1254 73.708 94.1254 48.5219C94.1254 23.3357 73.708 2.91827 48.5218 2.91827C23.3356 2.91827 2.91821 23.3357 2.91821 48.5219C2.91821 73.708 23.3356 94.1255 48.5218 94.1255Z" fill="url(#paint1_linear)"/>
<path d="M49.4946 60.0028C54.5064 60.0028 58.5693 56.0774 58.5693 51.2353C58.5693 46.3932 54.5064 42.4678 49.4946 42.4678C44.4828 42.4678 40.42 46.3932 40.42 51.2353C40.42 56.0774 44.4828 60.0028 49.4946 60.0028Z" stroke="white" stroke-width="2" stroke-miterlimit="10"/>
<path d="M62.9379 45.9334C64.6897 45.7005 65.9142 44.0404 65.6729 42.2255C65.4316 40.4106 63.8159 39.1282 62.0641 39.3611C60.3122 39.594 59.0877 41.2541 59.329 43.069C59.5703 44.8839 61.1861 46.1663 62.9379 45.9334Z" stroke="white" stroke-width="0.75" stroke-miterlimit="10"/>
<path d="M35.5727 48.4301C37.3245 48.1971 38.5491 46.5371 38.3078 44.7222C38.0665 42.9073 36.4507 41.6248 34.6989 41.8577C32.9471 42.0907 31.7225 43.7507 31.9638 45.5656C32.2051 47.3805 33.8209 48.663 35.5727 48.4301Z" stroke="white" stroke-width="0.75" stroke-miterlimit="10"/>
<path d="M31.0774 53.5844C32.2055 53.4344 32.9947 52.3698 32.8401 51.2066C32.6854 50.0434 31.6455 49.222 30.5173 49.372C29.3891 49.522 28.5999 50.5866 28.7546 51.7498C28.9092 52.913 29.9492 53.7344 31.0774 53.5844Z" fill="white"/>
<path d="M67.3009 60.7521C70.0197 60.3906 71.9201 57.814 71.5456 54.9971C71.1711 52.1801 68.6634 50.1896 65.9446 50.5511C63.2257 50.9126 61.3253 53.4892 61.6998 56.3061C62.0743 59.1231 64.582 61.1136 67.3009 60.7521Z" fill="white"/>
<path d="M35.5433 67.0404C38.7736 66.6109 41.0321 63.5531 40.5877 60.2106C40.1433 56.8681 37.1643 54.5067 33.9339 54.9362C30.7036 55.3657 28.4451 58.4235 28.8895 61.766C29.3339 65.1085 32.3129 67.4699 35.5433 67.0404Z" fill="white"/>
<path d="M61.6725 78.9719C65.5826 78.452 68.3158 74.7472 67.7773 70.697C67.2388 66.6468 63.6325 63.7849 59.7224 64.3047C55.8123 64.8246 53.0791 68.5294 53.6176 72.5796C54.1561 76.6298 57.7624 79.4918 61.6725 78.9719Z" stroke="white" stroke-width="0.75" stroke-miterlimit="10"/>
<path d="M55.9586 39.6757C59.1889 39.2462 61.4474 36.1884 61.003 32.8459C60.5586 29.5034 57.5796 27.142 54.3492 27.5715C51.1189 28.001 48.8604 31.0588 49.3048 34.4013C49.7492 37.7438 52.7282 40.1052 55.9586 39.6757Z" fill="white"/>
<path d="M44.2133 82.0429C46.5818 81.728 48.2375 79.4846 47.9114 77.032C47.5853 74.5795 45.4009 72.8465 43.0325 73.1614C40.664 73.4763 39.0083 75.7198 39.3344 78.1724C39.6605 80.6249 41.8448 82.3579 44.2133 82.0429Z" stroke="white" stroke-width="0.75" stroke-miterlimit="10"/>
<path d="M22.7058 61.1971C25.6208 60.8096 27.6584 58.0471 27.2569 55.0269C26.8553 52.0068 24.1667 49.8726 21.2517 50.2602C18.3366 50.6478 16.299 53.4103 16.7006 56.4304C17.1021 59.4506 19.7908 61.5847 22.7058 61.1971Z" stroke="white" stroke-width="0.75" stroke-miterlimit="10"/>
<path d="M43.9019 39.9435C46.3545 39.6174 48.0685 37.291 47.7303 34.7473C47.3921 32.2037 45.1298 30.406 42.6772 30.7321C40.2246 31.0582 38.5106 33.3846 38.8488 35.9282C39.187 38.4719 41.4494 40.2696 43.9019 39.9435Z" stroke="white" stroke-width="0.25" stroke-miterlimit="10"/>
<path d="M71.4823 42.2929C72.287 41.4882 72.2667 40.1632 71.437 39.3334C70.6073 38.5037 69.2823 38.4835 68.4775 39.2882C67.6728 40.0929 67.6931 41.4179 68.5228 42.2477C69.3525 43.0774 70.6775 43.0976 71.4823 42.2929Z" fill="white"/>
<path d="M34.5276 37.9869C36.2023 37.7643 37.3734 36.1807 37.1433 34.4499C36.9132 32.7191 35.369 31.4965 33.6942 31.7191C32.0195 31.9418 30.8484 33.5254 31.0785 35.2562C31.3086 36.987 32.8528 38.2096 34.5276 37.9869Z" fill="white"/>
<path d="M69.8109 36.8416C73.3075 36.3767 75.7517 33.063 75.27 29.4402C74.7883 25.8174 71.5632 23.2575 68.0666 23.7224C64.5699 24.1873 62.1258 27.501 62.6075 31.1238C63.0892 34.7466 66.3142 37.3065 69.8109 36.8416Z" stroke="white" stroke-width="0.75" stroke-miterlimit="10"/>
<path d="M34.6473 30.2508C37.3591 29.8903 39.2546 27.3201 38.881 24.5102C38.5074 21.7002 36.0062 19.7146 33.2944 20.0752C30.5825 20.4357 28.687 23.0059 29.0606 25.8159C29.4342 28.6258 31.9355 30.6114 34.6473 30.2508Z" fill="white"/>
<path d="M47.3664 28.2272C50.8841 27.7595 53.343 24.4265 52.8585 20.7827C52.374 17.1389 49.1297 14.5641 45.612 15.0318C42.0943 15.4995 39.6354 18.8325 40.1199 22.4763C40.6044 26.1202 43.8487 28.6949 47.3664 28.2272Z" stroke="white" stroke-width="0.75" stroke-miterlimit="10"/>
<path d="M49.1525 73.0073C50.6942 72.8023 51.7717 71.341 51.5593 69.7433C51.3468 68.1456 49.9249 67.0166 48.3833 67.2216C46.8417 67.4266 45.7642 68.8879 45.9766 70.4855C46.189 72.0832 47.6109 73.2122 49.1525 73.0073Z" fill="white"/>
<path d="M58.1169 26.0231C59.5534 25.8321 60.5661 24.5355 60.3789 23.127C60.1916 21.7185 58.8753 20.7316 57.4388 20.9225C56.0023 21.1135 54.9896 22.4102 55.1768 23.8186C55.3641 25.2271 56.6804 26.2141 58.1169 26.0231Z" fill="white"/>
<path d="M23.6392 47.3336C27.3811 46.8361 29.9976 43.2971 29.4833 39.4291C28.969 35.5611 25.5187 32.8287 21.7768 33.3262C18.0349 33.8237 15.4184 37.3627 15.9327 41.2307C16.4469 45.0988 19.8973 47.8311 23.6392 47.3336Z" stroke="white" stroke-width="0.75" stroke-miterlimit="10"/>
<path d="M76.3573 53.1337C79.2093 52.7545 81.2033 50.0556 80.8111 47.1056C80.4188 44.1555 77.7889 42.0714 74.9369 42.4506C72.0849 42.8298 70.0909 45.5287 70.4831 48.4787C70.8754 51.4288 73.5053 53.5129 76.3573 53.1337Z" fill="white"/>
<path d="M34.7415 75.7433C36.4934 75.5104 37.7179 73.8503 37.4766 72.0354C37.2353 70.2205 35.6195 68.9381 33.8677 69.171C32.1159 69.4039 30.8914 71.064 31.1327 72.8789C31.374 74.6938 32.9897 75.9762 34.7415 75.7433Z" stroke="white" stroke-width="0.75" stroke-miterlimit="10"/>
<path d="M71.3235 66.137C72.1282 65.3322 72.108 64.0072 71.2783 63.1775C70.4485 62.3478 69.1235 62.3275 68.3188 63.1323C67.5141 63.937 67.5343 65.262 68.364 66.0917C69.1938 66.9214 70.5188 66.9417 71.3235 66.137Z" fill="white"/>
<path d="M60.7207 61.862C61.5254 61.0573 61.5051 59.7323 60.6754 58.9025C59.8457 58.0728 58.5207 58.0526 57.716 58.8573C56.9112 59.662 56.9315 60.987 57.7612 61.8167C58.5909 62.6465 59.9159 62.6667 60.7207 61.862Z" fill="white"/>
<path d="M77.809 61.7231C79.9252 61.4418 81.4172 59.5322 81.1414 57.4581C80.8657 55.3839 78.9266 53.9306 76.8104 54.2119C74.6942 54.4933 73.2022 56.4028 73.478 58.477C73.7537 60.5511 75.6928 62.0045 77.809 61.7231Z" stroke="white" stroke-width="0.75" stroke-miterlimit="10"/>
<path d="M41.7363 70.2757C42.8014 70.1341 43.5462 69.1275 43.4 68.0273C43.2537 66.9272 42.2717 66.1501 41.2066 66.2917C40.1415 66.4334 39.3966 67.44 39.5429 68.5402C39.6891 69.6403 40.6712 70.4173 41.7363 70.2757Z" stroke="white" stroke-width="0.75" stroke-miterlimit="10"/>
<path d="M36.3679 53.0446C36.9849 52.9626 37.4155 52.3732 37.3297 51.7282C37.244 51.0832 36.6743 50.6269 36.0574 50.7089C35.4404 50.7909 35.0098 51.3803 35.0956 52.0253C35.1813 52.6702 35.751 53.1266 36.3679 53.0446Z" fill="white"/>
<path d="M46.2225 65.1139C46.8395 65.0319 47.2701 64.4425 47.1843 63.7976C47.0986 63.1526 46.5289 62.6962 45.912 62.7782C45.2951 62.8603 44.8644 63.4496 44.9502 64.0946C45.0359 64.7396 45.6056 65.1959 46.2225 65.1139Z" fill="white"/>
<path d="M52.1553 65.937C53.2204 65.7954 53.9653 64.7888 53.819 63.6886C53.6728 62.5885 52.6907 61.8114 51.6256 61.9531C50.5605 62.0947 49.8157 63.1013 49.9619 64.2015C50.1082 65.3016 51.0902 66.0787 52.1553 65.937Z" stroke="white" stroke-width="0.25" stroke-miterlimit="10"/>
<path d="M67.9166 48.9211C68.8238 48.8293 69.4825 47.9966 69.3878 47.0612C69.2931 46.1259 68.4809 45.442 67.5737 45.5339C66.6665 45.6257 66.0078 46.4584 66.1025 47.3938C66.1971 48.3291 67.0093 49.0129 67.9166 48.9211Z" stroke="white" stroke-width="0.25" stroke-miterlimit="10"/>
<path d="M27.7966 65.7949C28.6014 64.9901 28.5811 63.6651 27.7514 62.8354C26.9217 62.0057 25.5967 61.9854 24.7919 62.7902C23.9872 63.5949 24.0075 64.9199 24.8372 65.7496C25.6669 66.5793 26.9919 66.5996 27.7966 65.7949Z" fill="white"/>
<path d="M27.779 32.3209C28.6863 32.2291 29.345 31.3964 29.2503 30.4611C29.1556 29.5257 28.3434 28.8419 27.4362 28.9337C26.529 29.0255 25.8703 29.8582 25.9649 30.7936C26.0596 31.7289 26.8718 32.4128 27.779 32.3209Z" stroke="white" stroke-width="0.25" stroke-miterlimit="10"/>
<defs>
<linearGradient id="paint0_linear" x1="-0.00627162" y1="48.5218" x2="97.0499" y2="48.5218" gradientUnits="userSpaceOnUse">
<stop stop-color="#BCBEC0"/>
<stop offset="0.2456" stop-color="#8295A9"/>
<stop offset="0.5639" stop-color="#3C638D"/>
<stop offset="0.794" stop-color="#11457B"/>
<stop offset="0.9106" stop-color="#003974"/>
</linearGradient>
<linearGradient id="paint1_linear" x1="94.119" y1="48.5219" x2="2.92462" y2="48.5219" gradientUnits="userSpaceOnUse">
<stop stop-color="#BCBEC0"/>
<stop offset="0.2456" stop-color="#8295A9"/>
<stop offset="0.5639" stop-color="#3C638D"/>
<stop offset="0.794" stop-color="#11457B"/>
<stop offset="0.9106" stop-color="#003974"/>
</linearGradient>
</defs>
</svg>
