<svg width="99" height="99" viewBox="0 0 99 99" fill="none" xmlns="http://www.w3.org/2000/svg">
<path d="M49.7202 98.7821C76.7822 98.7821 98.7202 76.844 98.7202 49.7821C98.7202 22.7201 76.7822 0.782104 49.7202 0.782104C22.6583 0.782104 0.720215 22.7201 0.720215 49.7821C0.720215 76.844 22.6583 98.7821 49.7202 98.7821Z" fill="url(#paint0_linear)"/>
<path d="M49.7202 95.8351C75.1546 95.8351 95.7732 75.2165 95.7732 49.7821C95.7732 24.3477 75.1546 3.72906 49.7202 3.72906C24.2858 3.72906 3.66719 24.3477 3.66719 49.7821C3.66719 75.2165 24.2858 95.8351 49.7202 95.8351Z" fill="url(#paint1_linear)"/>
<path d="M80.237 37.516L66.8334 32.9921C66.3422 32.8241 65.8252 33.0826 65.6572 33.5737C65.4891 34.0649 65.7476 34.5819 66.2388 34.7499L79.5131 39.235L73.2702 42.2854C73.0117 42.1045 72.7144 41.9752 72.4042 41.8977L53.6624 36.9989C53.0679 33.9356 49.2937 32.6431 46.98 34.8275C46.1787 35.5772 45.7134 36.65 45.7134 37.7486V37.7745C45.7134 39.067 46.7991 40.1269 48.1045 40.1269H51.3359C52.176 40.1269 53.0032 39.6874 53.4427 38.8731L70.9178 43.4358C65.3987 46.1242 53.0032 52.1733 51.4264 52.9359C50.3148 53.4788 49.0739 53.44 48.027 52.9359L19.9402 39.235L48.4923 29.5927C49.2937 29.3213 50.1726 29.3213 50.974 29.5927L62.1156 33.354C62.6068 33.522 63.1238 33.2635 63.2918 32.7724C63.4599 32.2812 63.2013 31.7642 62.7102 31.5962L51.5685 27.8349C50.3794 27.4342 49.0739 27.4342 47.8977 27.8349L19.2164 37.5289C17.6912 38.0459 17.549 40.1527 19.0096 40.8636L33.7316 48.0372C32.9173 51.889 31.6894 56.0251 30.3451 59.7088C29.7893 61.2081 30.2676 62.8884 31.5213 63.8708C35.7738 67.2055 40.7888 69.7906 45.9331 71.445C48.3501 72.2205 51.0515 72.2593 53.559 71.445C58.7033 69.7906 63.7184 67.2055 67.9708 63.8708C69.2246 62.8755 69.7028 61.2081 69.147 59.7088C67.8286 56.1155 66.5749 51.9407 65.7606 48.0372L72.6886 44.6637V58.6618C71.4994 58.7523 70.5688 59.7476 70.5688 60.9496V63.6639C70.5688 64.0646 70.7497 64.4265 71.0212 64.685L70.6722 69.9069C70.6076 70.928 71.4219 71.794 72.443 71.794H74.7954C75.8165 71.794 76.6308 70.928 76.5662 69.9069L76.2172 64.685C76.4886 64.4395 76.6696 64.0776 76.6696 63.6639V60.9496C76.6696 59.7476 75.7389 58.7523 74.5498 58.6618V44.6378C74.5498 44.3535 74.4981 44.0691 74.4205 43.8106L80.4825 40.8507C81.8914 40.1527 81.7621 38.033 80.237 37.516ZM51.3359 38.2656H48.1045C47.8202 38.2656 47.5746 38.033 47.5746 37.7745V37.7615C47.5746 37.167 47.8202 36.6112 48.2467 36.1976C49.591 34.9309 51.7753 35.8486 51.8658 37.6581C51.8917 38.0718 51.6073 38.2656 51.3359 38.2656ZM66.3293 57.3047C61.3013 61.234 54.1795 64.0517 51.7236 64.517C51.2195 64.6075 50.8835 65.0987 50.9869 65.6027C51.0774 66.1068 51.5685 66.4429 52.0726 66.3395C54.6448 65.8483 61.6762 63.1082 66.9626 59.1659C67.0919 59.5408 67.247 59.9544 67.3762 60.3292C67.6477 61.0789 67.415 61.9061 66.7946 62.3973C61.7925 66.3266 56.506 68.5239 52.9645 69.6613C50.8447 70.3463 48.544 70.3334 46.4759 69.6613C42.9344 68.5239 37.6479 66.3266 32.6458 62.3973C32.0254 61.9061 31.7928 61.0789 32.0642 60.3292C32.0642 60.3163 32.0771 60.3034 32.0771 60.2904C32.2064 59.9156 32.3615 59.502 32.4778 59.1659C37.635 63.0306 44.6535 65.8225 47.3678 66.3524C47.8719 66.4429 48.363 66.1198 48.4535 65.6157C48.544 65.1116 48.2209 64.6204 47.7168 64.5299C45.4031 64.0905 38.2425 61.3374 33.1111 57.3176C33.8608 55.004 34.7397 52.0441 35.4248 48.8773L47.1998 54.6162C48.7637 55.3788 50.5991 55.4046 52.2277 54.6162L64.0027 48.8773C64.7007 52.0311 65.5667 55.004 66.3293 57.3047ZM72.5076 69.9069L72.8307 65.0211H74.343L74.6661 69.9069H72.5076ZM74.7695 60.9367V63.1599H72.3913V60.9367C72.3913 60.704 72.5852 60.4972 72.8307 60.4972H74.343C74.5757 60.4972 74.7695 60.704 74.7695 60.9367Z" fill="white"/>
<defs>
<linearGradient id="paint0_linear" x1="0.713881" y1="49.7821" x2="98.7265" y2="49.7821" gradientUnits="userSpaceOnUse">
<stop stop-color="#BCBEC0"/>
<stop offset="0.2456" stop-color="#8295A9"/>
<stop offset="0.5639" stop-color="#3C638D"/>
<stop offset="0.794" stop-color="#11457B"/>
<stop offset="0.9106" stop-color="#003974"/>
</linearGradient>
<linearGradient id="paint1_linear" x1="95.7668" y1="49.7821" x2="3.67366" y2="49.7821" gradientUnits="userSpaceOnUse">
<stop stop-color="#BCBEC0"/>
<stop offset="0.2456" stop-color="#8295A9"/>
<stop offset="0.5639" stop-color="#3C638D"/>
<stop offset="0.794" stop-color="#11457B"/>
<stop offset="0.9106" stop-color="#003974"/>
</linearGradient>
</defs>
</svg>
