<svg width="99" height="99" viewBox="0 0 99 99" fill="none" xmlns="http://www.w3.org/2000/svg">
<path d="M49.0746 98.7947C76.1366 98.7947 98.0746 76.8566 98.0746 49.7947C98.0746 22.7327 76.1366 0.794678 49.0746 0.794678C22.0127 0.794678 0.074646 22.7327 0.074646 49.7947C0.074646 76.8566 22.0127 98.7947 49.0746 98.7947Z" fill="url(#paint0_linear)"/>
<path d="M49.0746 95.8477C74.509 95.8477 95.1277 75.2291 95.1277 49.7947C95.1277 24.3603 74.509 3.7417 49.0746 3.7417C23.6403 3.7417 3.02162 24.3603 3.02162 49.7947C3.02162 75.2291 23.6403 95.8477 49.0746 95.8477Z" fill="url(#paint1_linear)"/>
<path d="M74.8995 36.7013C74.8995 38.472 74.8995 40.2299 74.8995 42.0007C74.3437 42.0007 73.775 42.0007 73.1675 42.0007C73.1675 43.1898 73.1675 44.2755 73.1675 45.4388C72.5858 45.4388 72.043 45.4388 71.513 45.4388C71.513 51.7205 71.513 57.9247 71.513 64.1935C72.0818 64.1935 72.5988 64.1935 73.1933 64.1935C73.1933 65.3438 73.1933 66.4554 73.1933 67.6058C73.8137 67.6058 74.3566 67.6058 74.8995 67.6058C74.8995 69.3636 74.8995 71.1344 74.8995 72.8922C57.6829 72.8922 40.4664 72.8922 23.2498 72.8922C23.2498 71.1215 23.2498 69.3636 23.2498 67.6058C23.8056 67.6058 24.3743 67.6058 24.9818 67.6058C24.9818 66.4166 24.9818 65.3309 24.9818 64.1676C25.5634 64.1676 26.1063 64.1676 26.6362 64.1676C26.6362 57.8859 26.6362 51.6817 26.6362 45.413C26.0675 45.413 25.5505 45.413 24.9559 45.413C24.9559 44.2626 24.9559 43.151 24.9559 42.0007C24.3355 42.0007 23.7927 42.0007 23.2498 42.0007C23.2498 40.2299 23.2498 38.472 23.2498 36.7013C23.8444 36.7013 24.4519 36.74 25.0335 36.6883C25.4342 36.6496 25.8866 36.572 26.2097 36.3523C33.771 31.3243 41.3065 26.2834 48.8549 21.2426C48.9971 21.2426 49.1393 21.2426 49.2814 21.2426C49.4882 21.3718 49.708 21.5011 49.9019 21.6303C56.7394 26.18 63.5898 30.7168 70.4015 35.3183C71.8103 36.2747 73.1675 36.9986 74.8995 36.7013ZM29.1696 36.6754C42.5344 36.6754 55.7053 36.6754 68.9797 36.6754C68.7599 36.5074 68.6048 36.3781 68.4368 36.2747C62.3748 32.242 56.3128 28.1964 50.2508 24.1637C49.0876 23.3882 49.0876 23.3752 47.9501 24.1249C41.7589 28.261 35.5547 32.4101 29.1696 36.6754ZM55.8217 64.1547C55.8217 57.8859 55.8217 51.6817 55.8217 45.3871C55.24 45.3871 54.7101 45.3871 54.1284 45.3871C54.1284 44.2238 54.1284 43.1381 54.1284 42.0394C50.7291 42.0394 47.3814 42.0394 43.9562 42.0394C43.9562 43.1898 43.9562 44.3014 43.9562 45.4517C43.3616 45.4517 42.8446 45.4517 42.3147 45.4517C42.3147 51.7076 42.3147 57.9118 42.3147 64.1159C42.8446 64.1159 43.3358 64.1159 43.8657 64.1159C43.8657 59.5404 43.8657 55.0165 43.8657 50.4797C47.3556 50.4797 50.7937 50.4797 54.3223 50.4797C54.3223 55.0682 54.3223 59.605 54.3223 64.1547C54.8523 64.1547 55.3047 64.1547 55.8217 64.1547ZM32.0261 45.413C32.0261 51.7205 32.0261 57.9247 32.0261 64.1159C33.7064 64.1159 35.335 64.1159 36.9248 64.1159C36.9248 57.8601 36.9248 51.6559 36.9248 45.4C36.3561 45.4 35.8391 45.4 35.2445 45.4C35.2445 44.2497 35.2445 43.1381 35.2445 42.0524C34.6887 42.0524 34.1976 42.0524 33.6676 42.0524C33.6676 43.1898 33.6676 44.2755 33.6676 45.413C33.1118 45.413 32.5948 45.413 32.0261 45.413ZM66.1232 64.1418C66.1232 57.873 66.1232 51.6688 66.1232 45.3871C65.5415 45.3871 65.0116 45.3871 64.4299 45.3871C64.4299 44.2238 64.4299 43.1381 64.4299 42.0394C63.8871 42.0394 63.4088 42.0394 62.8531 42.0394C62.8531 43.1898 62.8531 44.3014 62.8531 45.4517C62.2585 45.4517 61.7415 45.4517 61.2115 45.4517C61.2115 51.7076 61.2115 57.9118 61.2115 64.1418C62.8531 64.1418 64.4687 64.1418 66.1232 64.1418ZM25.1498 40.0877C41.1385 40.0877 57.0754 40.0877 72.9865 40.0877C72.9865 39.5578 72.9865 39.0666 72.9865 38.6013C57.0108 38.6013 41.0997 38.6013 25.1498 38.6013C25.1498 39.0925 25.1498 39.5707 25.1498 40.0877ZM25.1369 70.9922C41.1385 70.9922 57.0625 70.9922 72.9994 70.9922C72.9994 70.4752 72.9994 70.0099 72.9994 69.5058C57.0366 69.5058 41.0997 69.5058 25.1369 69.5058C25.1369 70.0099 25.1369 70.4752 25.1369 70.9922ZM26.856 67.5541C41.6943 67.5541 56.4809 67.5541 71.2545 67.5541C71.2545 67.0241 71.2545 66.533 71.2545 66.0677C56.4292 66.0677 41.6555 66.0677 26.856 66.0677C26.856 66.5718 26.856 67.0371 26.856 67.5541ZM30.0615 64.1418C30.0615 57.8601 30.0615 51.6559 30.0615 45.4776C29.5315 45.4776 29.0662 45.4776 28.588 45.4776C28.588 51.7205 28.588 57.9247 28.588 64.1418C29.105 64.1418 29.5703 64.1418 30.0615 64.1418ZM38.8895 45.4647C38.8895 51.7335 38.8895 57.9376 38.8895 64.1418C39.4065 64.1418 39.8718 64.1418 40.3759 64.1418C40.3759 57.8988 40.3759 51.6947 40.3759 45.4647C39.8718 45.4647 39.4065 45.4647 38.8895 45.4647ZM57.7734 45.4388C57.7734 51.7076 57.7734 57.9118 57.7734 64.1159C58.3033 64.1159 58.7816 64.1159 59.2469 64.1159C59.2469 57.8601 59.2469 51.6559 59.2469 45.4388C58.7428 45.4388 58.2904 45.4388 57.7734 45.4388ZM68.0749 45.4647C68.0749 51.7335 68.0749 57.9376 68.0749 64.1418C68.5919 64.1418 69.0572 64.1418 69.5613 64.1418C69.5613 57.8988 69.5613 51.6947 69.5613 45.4647C69.0572 45.4647 68.5919 45.4647 68.0749 45.4647ZM48.0923 64.1418C48.0923 60.1737 48.0923 56.2573 48.0923 52.3539C47.2651 52.3539 46.5025 52.3539 45.7528 52.3539C45.7528 56.309 45.7528 60.2125 45.7528 64.1418C46.5413 64.1418 47.2909 64.1418 48.0923 64.1418ZM50.044 64.1289C50.8583 64.1289 51.6339 64.1289 52.3835 64.1289C52.3835 60.1608 52.3835 56.2444 52.3835 52.3409C51.5822 52.3409 50.8196 52.3409 50.044 52.3409C50.044 56.2702 50.044 60.1608 50.044 64.1289ZM31.8064 43.5388C31.8064 42.9959 31.8064 42.5306 31.8064 42.0265C30.139 42.0265 28.5233 42.0265 26.8818 42.0265C26.8818 42.5565 26.8818 43.0347 26.8818 43.5388C28.5363 43.5388 30.139 43.5388 31.8064 43.5388ZM37.1575 43.5129C38.8636 43.5129 40.4922 43.5129 42.0949 43.5129C42.0949 42.983 42.0949 42.5177 42.0949 42.0394C40.4276 42.0394 38.799 42.0394 37.1575 42.0394C37.1575 42.5565 37.1575 43.0218 37.1575 43.5129ZM56.0285 43.5259C57.7217 43.5259 59.3503 43.5259 60.966 43.5259C60.966 42.9959 60.966 42.5177 60.966 42.0524C59.2857 42.0524 57.6571 42.0524 56.0285 42.0524C56.0285 42.5565 56.0285 43.0088 56.0285 43.5259ZM71.2804 43.5388C71.2804 42.9959 71.2804 42.5306 71.2804 42.0394C69.613 42.0394 67.9844 42.0394 66.3558 42.0394C66.3558 42.5694 66.3558 43.0476 66.3558 43.5388C68.0232 43.5388 69.6389 43.5388 71.2804 43.5388Z" fill="white"/>
<path d="M54.1931 35.1244C54.1931 34.4652 54.1931 33.8965 54.1931 33.289C55.3822 33.289 56.5455 33.289 57.7088 33.289C57.7346 33.2503 57.7475 33.1986 57.7734 33.1598C56.9074 32.5781 56.0414 31.9836 55.1754 31.4019C54.5421 30.9754 53.8958 30.5489 53.2495 30.1223C52.9393 29.9155 52.7325 29.7604 53.0815 29.3726C53.3788 29.0495 53.5727 28.6359 53.8441 28.2223C55.938 29.6182 58.0319 31.0142 60.1129 32.4101C60.5782 32.7203 61.0177 33.0822 61.5088 33.3407C62.0646 33.638 62.1551 34.1421 61.9612 34.5945C61.8449 34.853 61.3537 35.0857 61.0306 35.0986C58.7557 35.1503 56.4938 35.1244 54.1931 35.1244Z" fill="white"/>
<path d="M44.3698 28.248C44.7447 28.8038 45.0549 29.2821 45.4168 29.8249C43.7752 30.9236 42.1337 32.0222 40.3113 33.2372C41.6426 33.2372 42.78 33.2372 43.9562 33.2372C43.9562 33.8964 43.9562 34.4522 43.9562 35.1243C43.5814 35.1243 43.2195 35.1243 42.8446 35.1243C40.9834 35.1243 39.1221 35.0985 37.2738 35.1373C36.7309 35.1502 36.2268 35.0339 36.201 34.491C36.1881 34.1032 36.4466 33.5733 36.7697 33.3277C37.6874 32.6168 38.6956 32.0093 39.665 31.376C41.229 30.342 42.78 29.3079 44.3698 28.248Z" fill="white"/>
<path d="M51.6985 43.6292C51.6985 45.3741 51.6985 47.0802 51.6985 48.8251C49.9536 48.8251 48.2345 48.8251 46.4637 48.8251C46.4637 47.0931 46.4637 45.387 46.4637 43.6292C48.1699 43.6292 49.9019 43.6292 51.6985 43.6292ZM48.312 46.951C48.8678 46.951 49.3461 46.951 49.8243 46.951C49.8243 46.434 49.8243 45.9686 49.8243 45.4646C49.3073 45.4646 48.8291 45.4646 48.312 45.4646C48.312 45.9686 48.312 46.4469 48.312 46.951Z" fill="white"/>
<path d="M35.3876 48.7736C35.3876 49.3813 35.3876 49.9374 35.3876 50.5452C34.7798 50.5452 34.1979 50.5452 33.5901 50.5452C33.5901 49.9503 33.5901 49.3943 33.5901 48.7736C34.1591 48.7736 34.741 48.7736 35.3876 48.7736Z" fill="white"/>
<path d="M33.5901 53.9049C34.1849 53.9049 34.7539 53.9049 35.3617 53.9049C35.3617 54.4868 35.3617 55.0688 35.3617 55.6895C34.7798 55.6895 34.2108 55.6895 33.5901 55.6895C33.5901 55.1076 33.5901 54.5515 33.5901 53.9049Z" fill="white"/>
<path d="M33.603 59.0492C34.2108 59.0492 34.7668 59.0492 35.3746 59.0492C35.3746 59.657 35.3746 60.2389 35.3746 60.8467C34.7798 60.8467 34.2237 60.8467 33.603 60.8467C33.603 60.2777 33.603 59.6958 33.603 59.0492Z" fill="white"/>
<path d="M64.5859 48.7736C64.5859 49.3813 64.5859 49.9245 64.5859 50.5193C63.9911 50.5193 63.4091 50.5193 62.7884 50.5193C62.7884 49.9503 62.7884 49.3813 62.7884 48.7736C63.3833 48.7736 63.9781 48.7736 64.5859 48.7736Z" fill="white"/>
<path d="M64.573 53.9049C64.573 54.5127 64.573 55.0687 64.573 55.6765C63.9781 55.6765 63.4091 55.6765 62.7884 55.6765C62.7884 55.0946 62.7884 54.5127 62.7884 53.9049C63.3704 53.9049 63.9264 53.9049 64.573 53.9049Z" fill="white"/>
<path d="M64.5471 60.8466C63.9394 60.8466 63.3704 60.8466 62.7755 60.8466C62.7755 60.2517 62.7755 59.6957 62.7755 59.075C63.3445 59.075 63.9135 59.075 64.5471 59.075C64.5471 59.631 64.5471 60.2129 64.5471 60.8466Z" fill="white"/>
<defs>
<linearGradient id="paint0_linear" x1="0.0683126" y1="49.7947" x2="98.081" y2="49.7947" gradientUnits="userSpaceOnUse">
<stop stop-color="#BCBEC0"/>
<stop offset="0.2456" stop-color="#8295A9"/>
<stop offset="0.5639" stop-color="#3C638D"/>
<stop offset="0.794" stop-color="#11457B"/>
<stop offset="0.9106" stop-color="#003974"/>
</linearGradient>
<linearGradient id="paint1_linear" x1="95.1212" y1="49.7947" x2="3.02809" y2="49.7947" gradientUnits="userSpaceOnUse">
<stop stop-color="#BCBEC0"/>
<stop offset="0.2456" stop-color="#8295A9"/>
<stop offset="0.5639" stop-color="#3C638D"/>
<stop offset="0.794" stop-color="#11457B"/>
<stop offset="0.9106" stop-color="#003974"/>
</linearGradient>
</defs>
</svg>
