<svg width="98" height="98" viewBox="0 0 98 98" fill="none" xmlns="http://www.w3.org/2000/svg">
<path d="M48.5218 97.0436C75.3197 97.0436 97.0436 75.3197 97.0436 48.5218C97.0436 21.724 75.3197 0 48.5218 0C21.724 0 0 21.724 0 48.5218C0 75.3197 21.724 97.0436 48.5218 97.0436Z" fill="url(#paint0_linear)"/>
<path d="M48.5218 94.1253C73.708 94.1253 94.1254 73.7079 94.1254 48.5217C94.1254 23.3355 73.708 2.91809 48.5218 2.91809C23.3356 2.91809 2.91821 23.3355 2.91821 48.5217C2.91821 73.7079 23.3356 94.1253 48.5218 94.1253Z" fill="url(#paint1_linear)"/>
<path d="M49.6482 58.3897C54.66 58.3897 58.7228 54.4643 58.7228 49.6222C58.7228 44.7801 54.66 40.8547 49.6482 40.8547C44.6364 40.8547 40.5735 44.7801 40.5735 49.6222C40.5735 54.4643 44.6364 58.3897 49.6482 58.3897Z" stroke="white" stroke-width="2" stroke-miterlimit="10"/>
<path d="M64.9478 74.3393C65.3646 73.0253 64.6702 71.6327 63.3967 71.2287C62.1232 70.8247 60.7529 71.5623 60.3361 72.8762C59.9193 74.1901 60.6137 75.5828 61.8872 75.9868C63.1607 76.3908 64.5309 75.6532 64.9478 74.3393Z" stroke="white" stroke-width="0.75" stroke-miterlimit="10"/>
<path d="M61.5898 71.5728L54.0255 57.3145" stroke="white" stroke-miterlimit="10"/>
<path d="M39.2296 75.7071L46.8963 57.6986" stroke="white" stroke-miterlimit="10"/>
<path d="M41.7692 79.7414C42.0483 77.5751 40.4559 75.5845 38.2125 75.2954C35.969 75.0064 33.924 76.5282 33.6448 78.6945C33.3657 80.8609 34.9581 82.8514 37.2016 83.1405C39.445 83.4296 41.49 81.9078 41.7692 79.7414Z" fill="white" stroke="white" stroke-width="0.75" stroke-miterlimit="10"/>
<path d="M41.8795 30.3166C42.5507 28.2008 41.4343 25.9589 39.386 25.3091C37.3376 24.6593 35.133 25.8476 34.4618 27.9633C33.7906 30.0791 34.907 32.321 36.9553 32.9708C39.0037 33.6206 41.2083 32.4323 41.8795 30.3166Z" fill="white" stroke="white" stroke-width="0.75" stroke-miterlimit="10"/>
<path d="M39.7544 32.3947L44.7461 41.8021" stroke="white" stroke-miterlimit="10"/>
<path d="M55.1389 35.5433L52.9247 41.047" stroke="white" stroke-miterlimit="10" stroke-linecap="round" stroke-linejoin="round"/>
<path d="M67.2942 20.0265C67.6583 17.2011 65.5834 14.6053 62.6599 14.2286C59.7364 13.8519 57.0712 15.8369 56.7072 18.6623C56.3431 21.4877 58.418 24.0835 61.3415 24.4602C64.265 24.8369 66.9301 22.8519 67.2942 20.0265Z" stroke="white" stroke-width="0.75" stroke-miterlimit="10"/>
<path d="M73.1347 40.4197L58.9915 46.3585" stroke="white" stroke-miterlimit="10" stroke-linecap="round" stroke-linejoin="round"/>
<path d="M82.2521 39.7247C84.0039 39.4918 85.2284 37.8317 84.9871 36.0168C84.7458 34.2019 83.1301 32.9194 81.3783 33.1524C79.6264 33.3853 78.4019 35.0454 78.6432 36.8603C78.8845 38.6751 80.5003 39.9576 82.2521 39.7247Z" stroke="white" stroke-width="0.75" stroke-miterlimit="10"/>
<path d="M26.5926 62.1671C27.081 60.8782 26.4641 59.4496 25.2148 58.9762C23.9655 58.5029 22.5569 59.164 22.0685 60.453C21.5801 61.742 22.197 63.1706 23.4463 63.6439C24.6956 64.1173 26.1042 63.4561 26.5926 62.1671Z" stroke="white" stroke-width="0.75" stroke-miterlimit="10"/>
<path d="M26.3792 60.3354L41.1495 53.859" stroke="white" stroke-miterlimit="10"/>
<path d="M18.3239 45.8851C20.1251 44.5882 20.5708 42.1278 19.3193 40.3897C18.0678 38.6516 15.5931 38.2939 13.7919 39.5908C11.9907 40.8877 11.545 43.3481 12.7965 45.0862C14.048 46.8243 16.5227 47.182 18.3239 45.8851Z" fill="white" stroke="white" stroke-width="0.75" stroke-miterlimit="10"/>
<path d="M27.8127 44.733L40.4839 46.8833" stroke="white" stroke-miterlimit="10" stroke-linecap="round" stroke-linejoin="round"/>
<path d="M15.551 42.7747L24.3441 44.157" stroke="white" stroke-miterlimit="10" stroke-linecap="round" stroke-linejoin="round"/>
<path d="M77.4845 58.8778C79.0612 57.9197 79.5895 55.909 78.6644 54.3866C77.7394 52.8643 75.7113 52.4069 74.1346 53.365C72.5579 54.323 72.0296 56.3338 72.9547 57.8562C73.8797 59.3785 75.9078 59.8359 77.4845 58.8778Z" fill="white" stroke="white" stroke-width="0.75" stroke-miterlimit="10"/>
<path d="M74.7218 55.8554L59.0811 51.8749" stroke="white" stroke-miterlimit="10"/>
<path d="M59.6316 24.1135L56.2398 32.5994" stroke="white" stroke-miterlimit="10" stroke-linecap="round" stroke-linejoin="round"/>
<path d="M78.8175 37.9495L75.4769 39.3318" stroke="white" stroke-miterlimit="10" stroke-linecap="round" stroke-linejoin="round"/>
<defs>
<linearGradient id="paint0_linear" x1="-0.00627162" y1="48.5218" x2="97.0499" y2="48.5218" gradientUnits="userSpaceOnUse">
<stop stop-color="#BCBEC0"/>
<stop offset="0.2456" stop-color="#8295A9"/>
<stop offset="0.5639" stop-color="#3C638D"/>
<stop offset="0.794" stop-color="#11457B"/>
<stop offset="0.9106" stop-color="#003974"/>
</linearGradient>
<linearGradient id="paint1_linear" x1="94.119" y1="48.5217" x2="2.92462" y2="48.5217" gradientUnits="userSpaceOnUse">
<stop stop-color="#BCBEC0"/>
<stop offset="0.2456" stop-color="#8295A9"/>
<stop offset="0.5639" stop-color="#3C638D"/>
<stop offset="0.794" stop-color="#11457B"/>
<stop offset="0.9106" stop-color="#003974"/>
</linearGradient>
</defs>
</svg>
