<svg width="99" height="99" viewBox="0 0 99 99" fill="none" xmlns="http://www.w3.org/2000/svg">
<path d="M49.0746 98.7947C76.1366 98.7947 98.0746 76.8566 98.0746 49.7947C98.0746 22.7327 76.1366 0.794678 49.0746 0.794678C22.0127 0.794678 0.074646 22.7327 0.074646 49.7947C0.074646 76.8566 22.0127 98.7947 49.0746 98.7947Z" fill="url(#paint0_linear)"/>
<path d="M49.0746 95.8477C74.509 95.8477 95.1276 75.229 95.1276 49.7947C95.1276 24.3603 74.509 3.74164 49.0746 3.74164C23.6402 3.74164 3.02161 24.3603 3.02161 49.7947C3.02161 75.229 23.6402 95.8477 49.0746 95.8477Z" fill="url(#paint1_linear)"/>
<path d="M74.977 46.1368C73.1287 46.1368 71.5389 47.3001 70.9185 48.9416H68.9797C68.8116 46.7443 68.2817 44.6116 67.4157 42.5694C67.0796 41.7809 66.1619 41.419 65.3864 41.768C64.598 42.1041 64.2361 43.0218 64.5851 43.7973C65.5028 45.9171 65.9551 48.1661 65.9551 50.4797C65.9551 54.577 64.4817 58.3383 62.0517 61.2594L61.0823 60.29C60.4748 59.6826 59.4925 59.6826 58.8979 60.29C58.2904 60.8975 58.2904 61.8799 58.8979 62.4744L59.8673 63.4438C56.9462 65.8867 53.1849 67.3473 49.0876 67.3473C44.9902 67.3473 41.229 65.8738 38.3078 63.4438L38.4629 63.2887C39.0704 62.6812 39.0704 61.6989 38.4629 61.1043C37.8554 60.4969 36.8731 60.4969 36.2785 61.1043L36.1234 61.2594C33.6806 58.3383 32.22 54.577 32.22 50.4797C32.22 46.3824 33.6935 42.6211 36.1234 39.7L37.3901 40.9666C37.6874 41.2639 38.0881 41.419 38.4888 41.419C38.8895 41.419 39.2772 41.2639 39.5874 40.9666C40.1949 40.3592 40.1949 39.3768 39.5874 38.7823L38.3208 37.5156C41.2419 35.0727 45.0032 33.6121 49.1005 33.6121C51.4012 33.6121 53.6244 34.0645 55.7183 34.9564C56.5067 35.2924 57.4115 34.9305 57.7475 34.1421C58.0836 33.3536 57.7217 32.4488 56.9333 32.1128C54.9298 31.2597 52.8101 30.7427 50.6386 30.5747V28.6876C52.6679 28.0284 54.1285 26.1284 54.1285 23.8923C54.1285 21.1133 51.8665 18.8514 49.0876 18.8514C46.3086 18.8514 44.0467 21.1133 44.0467 23.8923C44.0467 26.1284 45.5202 28.0284 47.5365 28.6876V30.5747C43.1936 30.9107 39.2255 32.6427 36.1105 35.3183L34.8826 34.0904C35.2057 33.4441 35.3867 32.7203 35.3867 31.9577C35.3867 29.308 33.2282 27.1495 30.5655 27.1495C27.9158 27.1495 25.7573 29.308 25.7573 31.9577C25.7573 34.6074 27.9158 36.7788 30.5655 36.7788C31.3281 36.7788 32.052 36.5979 32.6982 36.2748L33.9261 37.5027C31.2506 40.6306 29.5186 44.5858 29.1825 48.9287H27.2437C26.6233 47.2871 25.0335 46.1239 23.1852 46.1239C20.794 46.1239 18.8423 48.0756 18.8423 50.4668C18.8423 52.8709 20.794 54.8097 23.1852 54.8097C25.0335 54.8097 26.6233 53.6464 27.2437 52.0049H29.1825C29.5186 56.3478 31.2506 60.3159 33.9261 63.4309L31.5737 65.7833C30.9275 65.4602 30.2036 65.2792 29.441 65.2792C26.7913 65.2792 24.6199 67.4378 24.6199 70.0875C24.6199 72.7372 26.7784 74.9086 29.441 74.9086C32.0907 74.9086 34.2493 72.7501 34.2493 70.0875C34.2493 69.3249 34.0683 68.601 33.7452 67.9548L36.0976 65.6024C39.2255 68.2779 43.1807 70.0099 47.5236 70.346V72.2848C45.8821 72.9052 44.7188 74.495 44.7188 76.3433C44.7188 78.7345 46.6705 80.6863 49.0617 80.6863C51.4529 80.6863 53.4046 78.7345 53.4046 76.3433C53.4046 74.495 52.2414 72.9052 50.5998 72.2848V70.346C54.9427 70.0099 58.9108 68.2779 62.0258 65.6024L63.1503 66.7269C62.8272 67.3731 62.6463 68.097 62.6463 68.8596C62.6463 71.5093 64.8048 73.6678 67.4674 73.6678C70.1171 73.6678 72.2756 71.5093 72.2756 68.8596C72.2756 66.2099 70.1171 64.0513 67.4674 64.0513C66.7048 64.0513 65.981 64.2323 65.3347 64.5554L64.2102 63.4309C66.8858 60.303 68.6178 56.3478 68.9538 52.0049H70.8926C71.513 53.6464 73.1029 54.8097 74.9512 54.8097C77.3424 54.8097 79.2941 52.858 79.2941 50.4668C79.3329 48.0885 77.3812 46.1368 74.977 46.1368ZM49.0746 21.9405C50.1474 21.9405 51.0264 22.8195 51.0264 23.8923C51.0264 24.9651 50.1474 25.844 49.0746 25.844C48.0018 25.844 47.1229 24.9651 47.1229 23.8923C47.1229 22.8065 48.0018 21.9405 49.0746 21.9405ZM30.5526 33.6768C29.6091 33.6768 28.8335 32.9012 28.8335 31.9577C28.8335 31.0141 29.6091 30.2386 30.5526 30.2386C31.4962 30.2386 32.2717 31.0141 32.2717 31.9577C32.2717 32.9142 31.4962 33.6768 30.5526 33.6768ZM23.1722 51.7464C22.4872 51.7464 21.9185 51.1777 21.9185 50.4926C21.9185 49.8076 22.4872 49.2389 23.1722 49.2389C23.8573 49.2389 24.426 49.8076 24.426 50.4926C24.426 51.1777 23.8573 51.7464 23.1722 51.7464ZM29.4281 71.8582C28.4846 71.8582 27.709 71.0827 27.709 70.1392C27.709 69.1956 28.4846 68.4201 29.4281 68.4201C30.3717 68.4201 31.1472 69.1956 31.1472 70.1392C31.1472 71.0827 30.3717 71.8582 29.4281 71.8582ZM49.0746 77.6488C48.3896 77.6488 47.8209 77.0801 47.8209 76.395C47.8209 75.71 48.3896 75.1413 49.0746 75.1413C49.7597 75.1413 50.3284 75.71 50.3284 76.395C50.3284 77.0801 49.7597 77.6488 49.0746 77.6488ZM67.4933 67.1922C68.4368 67.1922 69.2123 67.9677 69.2123 68.9113C69.2123 69.8548 68.4368 70.6303 67.4933 70.6303C66.5497 70.6303 65.7742 69.8548 65.7742 68.9113C65.7742 67.9677 66.5497 67.1922 67.4933 67.1922ZM74.977 51.7464C74.292 51.7464 73.7233 51.1777 73.7233 50.4926C73.7233 49.8076 74.292 49.2389 74.977 49.2389C75.6621 49.2389 76.2308 49.8076 76.2308 50.4926C76.2308 51.1777 75.675 51.7464 74.977 51.7464Z" stroke="white" stroke-miterlimit="10"/>
<path d="M35.8003 50.4926C35.8003 53.1423 37.9589 55.3138 40.6086 55.3138C43.2583 55.3138 45.4168 53.1552 45.4168 50.4926C45.4168 47.8429 43.2583 45.6844 40.6086 45.6844C37.9589 45.6715 35.8003 47.83 35.8003 50.4926ZM42.3406 50.4926C42.3406 51.4362 41.565 52.2117 40.6215 52.2117C39.6779 52.2117 38.9024 51.4362 38.9024 50.4926C38.9024 49.5491 39.6779 48.7735 40.6215 48.7735C41.565 48.7606 42.3406 49.5361 42.3406 50.4926Z" stroke="white" stroke-miterlimit="10"/>
<path d="M52.3577 39.1312C49.708 39.1312 47.5495 41.2898 47.5495 43.9395C47.5495 46.5891 49.708 48.7606 52.3577 48.7606C55.0074 48.7606 57.1659 46.6021 57.1659 43.9395C57.1789 41.3027 55.0203 39.1312 52.3577 39.1312ZM52.3577 45.6715C51.4142 45.6715 50.6386 44.8959 50.6386 43.9524C50.6386 43.0088 51.4142 42.2333 52.3577 42.2333C53.3013 42.2333 54.0768 43.0088 54.0768 43.9524C54.0897 44.8959 53.3142 45.6715 52.3577 45.6715Z" stroke="white" stroke-miterlimit="10"/>
<path d="M51.0264 54.1376C48.3767 54.1376 46.2181 56.2961 46.2181 58.9458C46.2181 61.5955 48.3767 63.767 51.0264 63.767C53.6761 63.767 55.8346 61.6084 55.8346 58.9458C55.8346 56.2961 53.6761 54.1376 51.0264 54.1376ZM51.0264 60.6649C50.0828 60.6649 49.3073 59.8894 49.3073 58.9458C49.3073 58.0023 50.0828 57.2267 51.0264 57.2267C51.9699 57.2267 52.7454 58.0023 52.7454 58.9458C52.7454 59.8894 51.9699 60.6649 51.0264 60.6649Z" stroke="white" stroke-miterlimit="10"/>
<path d="M69.3287 35.0469C71.9784 35.0469 74.1369 32.8883 74.1369 30.2386C74.1369 27.5889 71.9784 25.4175 69.3287 25.4175C66.679 25.4175 64.5075 27.576 64.5075 30.2386C64.5204 32.8883 66.679 35.0469 69.3287 35.0469ZM69.3287 28.5066C70.2722 28.5066 71.0477 29.2822 71.0477 30.2257C71.0477 31.1693 70.2722 31.9448 69.3287 31.9448C68.3851 31.9448 67.6096 31.1693 67.6096 30.2257C67.6096 29.2822 68.3851 28.5066 69.3287 28.5066Z" stroke="white" stroke-miterlimit="10"/>
<path d="M62.0775 38.9762C62.4782 38.9762 62.8789 38.8081 63.1762 38.5238C63.4605 38.2394 63.6286 37.8387 63.6286 37.4251C63.6286 37.0244 63.4605 36.6238 63.1762 36.3265C62.8918 36.0421 62.4911 35.8741 62.0775 35.8741C61.6768 35.8741 61.2762 36.0421 60.9789 36.3265C60.6945 36.6108 60.5265 37.0115 60.5265 37.4251C60.5265 37.8387 60.6945 38.2265 60.9789 38.5238C61.2762 38.8081 61.6639 38.9762 62.0775 38.9762Z" stroke="white" stroke-miterlimit="10"/>
<defs>
<linearGradient id="paint0_linear" x1="0.0683126" y1="49.7947" x2="98.081" y2="49.7947" gradientUnits="userSpaceOnUse">
<stop stop-color="#BCBEC0"/>
<stop offset="0.2456" stop-color="#8295A9"/>
<stop offset="0.5639" stop-color="#3C638D"/>
<stop offset="0.794" stop-color="#11457B"/>
<stop offset="0.9106" stop-color="#003974"/>
</linearGradient>
<linearGradient id="paint1_linear" x1="95.1212" y1="49.7947" x2="3.02807" y2="49.7947" gradientUnits="userSpaceOnUse">
<stop stop-color="#BCBEC0"/>
<stop offset="0.2456" stop-color="#8295A9"/>
<stop offset="0.5639" stop-color="#3C638D"/>
<stop offset="0.794" stop-color="#11457B"/>
<stop offset="0.9106" stop-color="#003974"/>
</linearGradient>
</defs>
</svg>
