<svg width="98" height="98" viewBox="0 0 98 98" fill="none" xmlns="http://www.w3.org/2000/svg">
<path d="M48.5218 97.0436C75.3197 97.0436 97.0436 75.3197 97.0436 48.5218C97.0436 21.724 75.3197 0 48.5218 0C21.724 0 0 21.724 0 48.5218C0 75.3197 21.724 97.0436 48.5218 97.0436Z" fill="url(#paint0_linear)"/>
<path d="M48.5219 94.1255C73.7081 94.1255 94.1255 73.708 94.1255 48.5219C94.1255 23.3357 73.7081 2.91827 48.5219 2.91827C23.3358 2.91827 2.91833 23.3357 2.91833 48.5219C2.91833 73.708 23.3358 94.1255 48.5219 94.1255Z" fill="url(#paint1_linear)"/>
<path d="M72.7892 35.9786C72.3284 35.9786 71.9572 36.3498 71.9572 36.8106V69.4358C71.9572 70.8181 70.8309 71.9444 69.4486 71.9444H49.3538V70.0246C50.5698 69.6022 53.7568 68.6038 56.8798 68.6038C64.1625 68.6038 69.1158 70.2165 69.167 70.2293C69.423 70.3189 69.7046 70.2677 69.9222 70.1141C70.1398 69.9606 70.2678 69.7046 70.2678 69.4358V32.6252C70.2678 32.2285 69.999 31.8957 69.615 31.8061C69.615 31.8061 68.9622 31.6653 67.8359 31.4477C67.3879 31.3581 66.94 31.6653 66.8632 32.1133C66.7736 32.5741 67.0807 33.0092 67.5287 33.086C67.9511 33.1628 68.3095 33.2396 68.591 33.2908V68.3095C66.6968 67.8103 62.4858 66.9143 56.8798 66.9143C53.232 66.9143 49.6482 68.1175 48.5475 68.5142C47.5619 68.0791 44.5925 66.9143 40.9831 66.9143C35.2235 66.9143 30.475 67.8615 28.4399 68.3479V33.278C30.1166 32.8684 35.0443 31.7933 40.9831 31.7933C44.0294 31.7933 46.6532 32.7404 47.6771 33.1756V66.0952C47.6771 66.4024 47.8435 66.6712 48.0995 66.8247C48.3555 66.9783 48.6883 66.9655 48.9443 66.812C49.0211 66.7608 57.3149 61.8075 64.6745 59.3628C65.0201 59.2476 65.2505 58.9276 65.2505 58.5693V24.2674C65.2505 23.9986 65.1097 23.7426 64.8921 23.5762C64.6617 23.4226 64.3801 23.3842 64.1241 23.4738C57.4301 25.9825 50.6594 30.1934 50.5954 30.2446C50.1986 30.4878 50.0834 30.9997 50.3266 31.3965C50.5698 31.7933 51.0817 31.9085 51.4785 31.6653C51.5425 31.6269 57.4301 27.9535 63.5866 25.4833V57.9677C57.8781 59.9516 51.9137 63.1898 49.3666 64.6489V32.6252C49.3666 32.3053 49.1874 32.0237 48.9059 31.8701C48.7651 31.7933 45.3349 30.1038 40.9959 30.1038C33.4316 30.1038 27.6208 31.7421 27.3776 31.8061C27.0192 31.9085 26.776 32.2413 26.776 32.6124V69.423C26.776 69.679 26.904 69.935 27.1088 70.0885C27.2624 70.2037 27.4288 70.2549 27.608 70.2549C27.6848 70.2549 27.7616 70.2421 27.8384 70.2165C27.8896 70.2037 33.6748 68.5782 40.9959 68.5782C44.055 68.5782 46.666 69.5254 47.6899 69.9606V71.9316H27.608C26.2257 71.9316 25.0993 70.8053 25.0993 69.423V36.8106C25.0993 36.3498 24.7281 35.9786 24.2674 35.9786C23.8066 35.9786 23.4354 36.3498 23.4354 36.8106V69.4358C23.4354 71.7397 25.3169 73.6211 27.6208 73.6211H69.4486C71.7525 73.6211 73.6339 71.7397 73.6339 69.4358V36.8106C73.6211 36.3498 73.25 35.9786 72.7892 35.9786Z" fill="white"/>
<path d="M52.157 46.858C52.3106 47.1524 52.605 47.3188 52.8994 47.3188C53.0274 47.3188 53.1554 47.2932 53.2833 47.2292C53.3345 47.2036 58.2622 44.7077 60.6813 43.9398C61.1165 43.799 61.3597 43.3254 61.2317 42.8902C61.0909 42.4551 60.6301 42.1991 60.1821 42.3399C57.6223 43.1462 52.733 45.6293 52.5282 45.7445C52.1058 45.9493 51.9394 46.4484 52.157 46.858Z" fill="white"/>
<path d="M52.8993 37.2841C53.0273 37.2841 53.1553 37.2585 53.2833 37.1945C53.3345 37.1689 58.2622 34.6731 60.6813 33.9051C61.1164 33.7643 61.3596 33.2907 61.2316 32.8556C61.0908 32.4204 60.6301 32.1644 60.1821 32.3052C57.6222 33.1116 52.7329 35.5946 52.5282 35.7098C52.1186 35.9146 51.9522 36.4265 52.157 36.8361C52.2978 37.1049 52.5921 37.2841 52.8993 37.2841Z" fill="white"/>
<path d="M52.157 41.8406C52.3106 42.135 52.605 42.3014 52.8994 42.3014C53.0274 42.3014 53.1554 42.2758 53.2833 42.2118C53.3345 42.1862 58.2622 39.6903 60.6813 38.9224C61.1165 38.7816 61.3597 38.308 61.2317 37.8728C61.0909 37.4377 60.6301 37.1817 60.1821 37.3225C57.6223 38.1288 52.733 40.6119 52.5282 40.7271C52.1058 40.9191 51.9394 41.431 52.157 41.8406Z" fill="white"/>
<path d="M52.157 51.8753C52.3106 52.1696 52.605 52.336 52.8994 52.336C53.0274 52.336 53.1554 52.3104 53.2833 52.2464C53.3345 52.2208 58.2622 49.725 60.6813 48.957C61.1165 48.8163 61.3597 48.3427 61.2317 47.9075C61.0909 47.4723 60.6301 47.2164 60.1821 47.3571C57.6223 48.1635 52.733 50.6465 52.5282 50.7617C52.1058 50.9665 51.9394 51.4657 52.157 51.8753Z" fill="white"/>
<path d="M43.8886 38.5768C38.7177 37.3609 32.8557 38.9096 32.5997 38.9736C32.1517 39.0888 31.883 39.5496 32.0109 39.9976C32.1133 40.3687 32.4461 40.6119 32.8173 40.6119C32.8941 40.6119 32.9581 40.5991 33.0349 40.5863C33.0861 40.5735 38.7433 39.0888 43.5046 40.2023C43.9526 40.3047 44.4006 40.0232 44.5158 39.5752C44.6182 39.14 44.3366 38.692 43.8886 38.5768Z" fill="white"/>
<path d="M43.8886 43.6069C38.7177 42.3909 32.8557 43.9397 32.5997 44.0037C32.1517 44.1188 31.883 44.5796 32.0109 45.0276C32.1133 45.3988 32.4461 45.6419 32.8173 45.6419C32.8941 45.6419 32.9581 45.6291 33.0349 45.6163C33.0861 45.6036 38.7433 44.1188 43.5046 45.2324C43.9526 45.3348 44.4006 45.0532 44.5158 44.6052C44.6182 44.1572 44.3366 43.7093 43.8886 43.6069Z" fill="white"/>
<path d="M52.157 56.9053C52.3106 57.1997 52.605 57.3661 52.8994 57.3661C53.0274 57.3661 53.1554 57.3405 53.2833 57.2765C53.3345 57.2509 58.2622 54.755 60.6813 53.9871C61.1165 53.8463 61.3597 53.3727 61.2317 52.9375C61.0909 52.5024 60.6301 52.2464 60.1821 52.3872C57.6223 53.1935 52.733 55.6766 52.5282 55.7918C52.1058 55.9838 51.9394 56.4829 52.157 56.9053Z" fill="white"/>
<path d="M43.8886 48.6242C38.7177 47.4083 32.8557 48.957 32.5997 49.021C32.1517 49.1362 31.883 49.5969 32.0109 50.0449C32.1133 50.4161 32.4461 50.6593 32.8173 50.6593C32.8941 50.6593 32.9581 50.6465 33.0349 50.6337C33.0861 50.6209 38.7433 49.1362 43.5046 50.2497C43.9526 50.3521 44.4006 50.0705 44.5158 49.6225C44.6182 49.1746 44.3366 48.7266 43.8886 48.6242Z" fill="white"/>
<path d="M43.8886 58.6588C38.7177 57.4429 32.8557 58.9916 32.5997 59.0556C32.1517 59.1708 31.883 59.6316 32.0109 60.0795C32.1133 60.4507 32.4461 60.7067 32.8173 60.7067C32.8941 60.7067 32.9581 60.6939 33.0349 60.6811C33.0861 60.6683 38.7433 59.1836 43.5046 60.2971C43.9526 60.3995 44.4006 60.1179 44.5158 59.67C44.6182 59.222 44.3366 58.7612 43.8886 58.6588Z" fill="white"/>
<path d="M43.8886 53.6415C38.7177 52.4256 32.8557 53.9743 32.5997 54.0383C32.1517 54.1535 31.883 54.6142 32.0109 55.0622C32.1133 55.4334 32.4461 55.6894 32.8173 55.6894C32.8941 55.6894 32.9581 55.6766 33.0349 55.6638C33.0861 55.651 38.7433 54.1662 43.5046 55.2798C43.9526 55.3822 44.4006 55.1006 44.5158 54.6526C44.6182 54.1918 44.3366 53.7439 43.8886 53.6415Z" fill="white"/>
<defs>
<linearGradient id="paint0_linear" x1="-0.00627162" y1="48.5218" x2="97.0499" y2="48.5218" gradientUnits="userSpaceOnUse">
<stop stop-color="#BCBEC0"/>
<stop offset="0.2456" stop-color="#8295A9"/>
<stop offset="0.5639" stop-color="#3C638D"/>
<stop offset="0.794" stop-color="#11457B"/>
<stop offset="0.9106" stop-color="#003974"/>
</linearGradient>
<linearGradient id="paint1_linear" x1="94.1191" y1="48.5219" x2="2.92474" y2="48.5219" gradientUnits="userSpaceOnUse">
<stop stop-color="#BCBEC0"/>
<stop offset="0.2456" stop-color="#8295A9"/>
<stop offset="0.5639" stop-color="#3C638D"/>
<stop offset="0.794" stop-color="#11457B"/>
<stop offset="0.9106" stop-color="#003974"/>
</linearGradient>
</defs>
</svg>
