<svg width="98" height="98" viewBox="0 0 98 98" fill="none" xmlns="http://www.w3.org/2000/svg">
<path d="M48.5218 97.0436C75.3197 97.0436 97.0436 75.3197 97.0436 48.5218C97.0436 21.724 75.3197 0 48.5218 0C21.724 0 0 21.724 0 48.5218C0 75.3197 21.724 97.0436 48.5218 97.0436Z" fill="url(#paint0_linear)"/>
<path d="M48.5218 94.1255C73.708 94.1255 94.1254 73.708 94.1254 48.5219C94.1254 23.3357 73.708 2.91827 48.5218 2.91827C23.3357 2.91827 2.91824 23.3357 2.91824 48.5219C2.91824 73.708 23.3357 94.1255 48.5218 94.1255Z" fill="url(#paint1_linear)"/>
<path d="M69.1029 42.1351H55.6125C55.1774 42.1351 54.8318 42.4807 54.8318 42.9158C54.8318 43.351 55.1774 43.6966 55.6125 43.6966H69.1029C69.5381 43.6966 69.8837 43.351 69.8837 42.9158C69.8837 42.4807 69.5381 42.1351 69.1029 42.1351Z" fill="white"/>
<path d="M69.1029 46.8451H55.6125C55.1774 46.8451 54.8318 47.1907 54.8318 47.6258C54.8318 48.061 55.1774 48.4066 55.6125 48.4066H69.1029C69.5381 48.4066 69.8837 48.061 69.8837 47.6258C69.8837 47.1907 69.5381 46.8451 69.1029 46.8451Z" fill="white"/>
<path d="M69.8837 52.3488C69.8837 51.9136 69.5381 51.5681 69.1029 51.5681H55.6125C55.1774 51.5681 54.8318 51.9136 54.8318 52.3488C54.8318 52.784 55.1774 53.1296 55.6125 53.1296H69.1029C69.5381 53.1296 69.8837 52.7712 69.8837 52.3488Z" fill="white"/>
<path d="M55.6125 56.2781C55.1774 56.2781 54.8318 56.6237 54.8318 57.0589C54.8318 57.4941 55.1774 57.8396 55.6125 57.8396H62.3577C62.7929 57.8396 63.1385 57.4941 63.1385 57.0589C63.1385 56.6237 62.7929 56.2781 62.3577 56.2781H55.6125Z" fill="white"/>
<path d="M73.8263 31.0253L65.7628 22.9618C65.0461 22.2451 64.0605 21.8227 63.0238 21.8227H36.491C34.3535 21.8227 32.6256 23.5634 32.6256 25.6881V33.7004C32.6256 34.1355 32.9712 34.4811 33.4064 34.4811C33.8416 34.4811 34.1872 34.1355 34.1872 33.7004V25.6881C34.1872 24.4209 35.2239 23.3842 36.491 23.3842H63.0238C63.1902 23.3842 63.3566 23.397 63.523 23.4354V30.5646C63.523 32.0493 64.7389 33.2652 66.2236 33.2652H73.34C73.3783 33.4316 73.3911 33.598 73.3911 33.7644V71.3685C73.3911 72.6356 72.3544 73.6723 71.0873 73.6723H60.5791C61.4879 72.3028 61.3471 70.4341 60.144 69.231L53.0276 62.1146C52.5156 61.6026 51.7605 61.4619 51.1077 61.6922L49.5718 60.1563C53.8979 54.1535 53.258 45.8596 47.9719 40.5735C42.1099 34.7115 32.4849 34.5963 26.5076 40.5735C20.5944 46.4868 20.5944 56.1246 26.5076 62.0378C31.7809 67.3111 40.0876 67.9383 46.0904 63.6377L47.6263 65.1736C47.3959 65.8264 47.5239 66.5687 48.0487 67.0935L54.6275 73.6723H36.491C35.2239 73.6723 34.1872 72.6356 34.1872 71.3685V68.8598C34.1872 68.4246 33.8416 68.0791 33.4064 68.0791C32.9712 68.0791 32.6256 68.4246 32.6256 68.8598V71.3685C32.6256 73.5059 34.3663 75.2338 36.491 75.2338H71.1001C73.2376 75.2338 74.9655 73.4931 74.9655 71.3685V33.7516C74.9655 32.7404 74.5559 31.7549 73.8263 31.0253ZM27.6212 60.9243C22.3095 55.6126 22.3095 46.986 27.6212 41.6743C32.9968 36.2986 41.6235 36.4266 46.8712 41.6743C51.7605 46.5636 52.2084 54.3327 47.9335 59.734C47.2808 60.5659 46.5128 61.3211 45.6808 61.9866C40.318 66.236 32.5361 65.8264 27.6212 60.9243ZM47.3319 62.6394C47.7799 62.2426 48.2023 61.8202 48.5991 61.3723L49.8918 62.665L48.6247 63.9321L47.3319 62.6394ZM56.2786 73.0835L49.1622 65.9672C49.0598 65.8648 49.0598 65.6984 49.1622 65.596L49.175 65.5832L51.5557 63.2026C51.6581 63.1002 51.8245 63.1002 51.9269 63.2026L59.0432 70.3189C59.8112 71.0869 59.8112 72.3284 59.0432 73.0835C58.2753 73.8515 57.0338 73.8515 56.2786 73.0835ZM65.0845 30.5646V24.4977L72.2904 31.7037H66.2236C65.5964 31.6909 65.0845 31.1917 65.0845 30.5646Z" fill="white"/>
<path d="M54.7166 26.8912H39.1912C38.2696 26.8912 37.5145 27.6464 37.5145 28.5679V31.5629C37.5145 32.4845 38.2696 33.2396 39.1912 33.2396H54.7038C55.6254 33.2396 56.3805 32.4845 56.3805 31.5629V28.5679C56.3933 27.6464 55.6381 26.8912 54.7166 26.8912ZM54.8318 31.5757C54.8318 31.6397 54.7806 31.6909 54.7166 31.6909H39.1912C39.1272 31.6909 39.076 31.6397 39.076 31.5757V28.5807C39.076 28.5167 39.1272 28.4655 39.1912 28.4655H54.7038C54.7678 28.4655 54.819 28.5167 54.819 28.5807L54.8318 31.5757Z" fill="white"/>
<path d="M45.7828 59.8236C50.4801 55.1263 50.4801 47.4724 45.7828 42.7751C41.0855 38.0777 33.4316 38.0777 28.7342 42.7751C26.904 44.6053 25.7264 46.922 25.3425 49.4691C25.2785 49.8914 25.5728 50.301 25.9952 50.365C26.4176 50.429 26.8272 50.1346 26.8912 49.7122C27.2367 47.498 28.2479 45.4757 29.8478 43.8886C33.9435 39.7928 40.5991 39.7928 44.6821 43.8886C48.6114 47.818 48.765 54.1024 45.1556 58.2237C44.8101 57.5198 44.2213 56.9566 43.4661 56.6238C42.5446 56.2142 40.9447 55.9583 39.9592 55.8303V54.8447C40.9063 54.1408 41.5847 53.0912 41.7766 51.8753C41.943 51.8113 42.0966 51.7089 42.2246 51.5681C42.4806 51.2993 42.6342 50.9538 42.6214 50.5826C42.6086 49.5458 42.6214 47.8308 42.6214 46.8324C42.6214 45.8853 41.9302 45.0917 41.0343 44.9381C40.8551 44.055 40.0871 43.3894 39.1528 43.3894H35.377C33.4316 43.3894 31.8445 44.9765 31.8445 46.922V50.5954C31.8445 51.1713 32.19 51.6577 32.6892 51.8625C32.8812 53.04 33.5211 54.0768 34.4171 54.7679V55.8431C33.4316 55.9839 31.8445 56.2526 30.9229 56.675C30.219 56.995 29.6686 57.5326 29.3358 58.1853C28.0815 56.7518 27.2623 55.0111 26.9296 53.1168C26.8528 52.6945 26.456 52.4001 26.0208 52.4769C25.5984 52.5537 25.3041 52.9504 25.3809 53.3856C25.8032 55.8431 26.968 58.0701 28.7342 59.8364C33.4444 64.5465 41.0983 64.5081 45.7828 59.8236ZM35.3642 44.9253H39.14C39.332 44.9253 39.4984 45.0789 39.4984 45.2837C39.4984 45.9237 40.0232 46.4484 40.6631 46.4484H40.7015C40.8935 46.4484 41.0599 46.602 41.0599 46.8068V47.2292L40.1127 47.1396C39.1912 47.05 38.2441 47.2676 37.4505 47.754C37.0153 48.0227 36.5162 48.1635 36.0042 48.1635H33.406V46.8964C33.3932 45.8085 34.2763 44.9253 35.3642 44.9253ZM33.3932 50.4034V49.725H35.9914C36.7849 49.725 37.5785 49.5074 38.2569 49.0851C38.7688 48.7779 39.3704 48.6371 39.9592 48.6883L41.0471 48.7907C41.0471 49.2771 41.0471 49.9042 41.0471 50.4034C40.6119 50.4802 40.2663 50.8514 40.2407 51.2993C40.1511 52.8992 38.82 54.1536 37.2073 54.1536C35.6074 54.1536 34.2763 52.8992 34.1739 51.2993C34.1611 50.8514 33.8283 50.4802 33.3932 50.4034ZM37.2201 55.7151C37.6169 55.7151 38.0137 55.6639 38.3849 55.5615V55.9967C38.3849 56.2014 38.436 56.3934 38.5128 56.5598C38.1289 56.8286 37.6681 56.9694 37.1817 56.9694C37.1817 56.9694 37.1817 56.9694 37.1689 56.9694C36.6954 56.9694 36.2346 56.8286 35.8506 56.5726C35.9274 56.3934 35.9786 56.2014 35.9786 56.0094V55.5359C36.3754 55.6511 36.7849 55.7151 37.2201 55.7151ZM30.5517 59.3756C30.6669 58.7997 31.0253 58.3261 31.5629 58.0829C32.1004 57.8397 33.1244 57.5966 34.4171 57.4174C35.1594 58.1469 36.145 58.5437 37.1945 58.5437H37.2073C38.2697 58.5437 39.2552 58.1213 39.9976 57.3918C41.2903 57.571 42.3142 57.8013 42.8518 58.0445C43.4533 58.3133 43.8373 58.8125 43.9269 59.4268C40.036 62.5882 34.4043 62.5754 30.5517 59.3756Z" fill="white"/>
<defs>
<linearGradient id="paint0_linear" x1="-0.00627162" y1="48.5218" x2="97.0499" y2="48.5218" gradientUnits="userSpaceOnUse">
<stop stop-color="#BCBEC0"/>
<stop offset="0.2456" stop-color="#8295A9"/>
<stop offset="0.5639" stop-color="#3C638D"/>
<stop offset="0.794" stop-color="#11457B"/>
<stop offset="0.9106" stop-color="#003974"/>
</linearGradient>
<linearGradient id="paint1_linear" x1="94.119" y1="48.5219" x2="2.92465" y2="48.5219" gradientUnits="userSpaceOnUse">
<stop stop-color="#BCBEC0"/>
<stop offset="0.2456" stop-color="#8295A9"/>
<stop offset="0.5639" stop-color="#3C638D"/>
<stop offset="0.794" stop-color="#11457B"/>
<stop offset="0.9106" stop-color="#003974"/>
</linearGradient>
</defs>
</svg>
