<svg width="98" height="98" viewBox="0 0 98 98" fill="none" xmlns="http://www.w3.org/2000/svg">
<path d="M48.5965 97.8383C75.3943 97.8383 97.1183 76.1143 97.1183 49.3165C97.1183 22.5186 75.3943 0.794678 48.5965 0.794678C21.7986 0.794678 0.074646 22.5186 0.074646 49.3165C0.074646 76.1143 21.7986 97.8383 48.5965 97.8383Z" fill="url(#paint0_linear)"/>
<path d="M48.5965 94.9201C73.7826 94.9201 94.2001 74.5027 94.2001 49.3165C94.2001 24.1303 73.7826 3.71289 48.5965 3.71289C23.4103 3.71289 2.99286 24.1303 2.99286 49.3165C2.99286 74.5027 23.4103 94.9201 48.5965 94.9201Z" fill="url(#paint1_linear)"/>
<path d="M48.6093 63.1909C50.7083 63.1909 52.4106 61.4886 52.4106 59.3895C52.4106 57.2904 50.7083 55.5881 48.6093 55.5881C46.5102 55.5881 44.8079 57.2904 44.8079 59.3895C44.7951 61.4886 46.5102 63.1909 48.6093 63.1909ZM48.6093 57.9944C49.3772 57.9944 50.0044 58.6215 50.0044 59.3895C50.0044 60.1575 49.3772 60.7846 48.6093 60.7846C47.8413 60.7846 47.2142 60.1575 47.2142 59.3895C47.2142 58.6215 47.8413 57.9944 48.6093 57.9944Z" fill="white"/>
<path d="M49.4668 42.4816C46.6766 43.3008 44.8079 45.7838 44.8079 48.6637V48.9965C44.8079 51.0955 46.5102 52.7978 48.6093 52.7978C50.5292 52.7978 52.1163 51.3771 52.3723 49.5212C54.3433 48.7789 56.0584 47.4349 57.2872 45.7071C58.6951 43.7104 59.3862 41.2529 59.207 38.8083C59.0278 36.3252 57.9655 33.9702 56.2248 32.1783C54.4713 30.3736 52.1419 29.2473 49.6716 29.0041C43.9632 28.4409 38.8691 32.4343 38.0883 38.1043C38.0243 38.5907 37.9859 39.0899 37.9859 39.5762C37.9859 41.6753 39.6882 43.3776 41.7873 43.3776C43.8864 43.3776 45.5887 41.6753 45.5887 39.5762C45.5887 39.4354 45.6015 39.2946 45.6143 39.1539C45.8318 37.5412 47.291 36.4148 48.9293 36.5812C50.3628 36.722 51.5147 37.9123 51.6171 39.3586C51.7195 40.7922 50.8363 42.0849 49.4668 42.4816ZM54.0234 39.1923C53.8314 36.594 51.7451 34.4437 49.1596 34.1878C48.9805 34.175 48.7885 34.1622 48.6093 34.1622C45.9086 34.1622 43.6048 36.1204 43.2208 38.8339C43.1824 39.0899 43.1696 39.333 43.1696 39.589C43.1696 40.357 42.5425 40.9841 41.7745 40.9841C41.0065 40.9841 40.3794 40.357 40.3794 39.589C40.3794 39.2051 40.405 38.8211 40.4562 38.4499C41.0705 34.0726 44.9999 30.988 49.4156 31.4231C51.3227 31.6151 53.1274 32.4855 54.4713 33.8678C55.828 35.2629 56.6472 37.0804 56.7752 38.9875C56.916 40.8817 56.3912 42.776 55.2905 44.3247C54.2281 45.835 52.6666 46.9486 50.9131 47.4733C50.4652 47.6013 50.1196 47.9597 50.0172 48.3821C49.9916 48.4845 49.9788 48.5741 49.9788 48.6765V48.9965C49.9788 49.7644 49.3516 50.3916 48.5837 50.3916C47.8157 50.3916 47.1886 49.7644 47.1886 48.9965V48.6637C47.1886 46.8718 48.3661 45.3103 50.1196 44.7983C52.6154 44.0688 54.2025 41.7649 54.0234 39.1923Z" fill="white"/>
<path d="M69.7152 23.7693H42.9904V23.7437H40.5842V23.7693H27.5034C25.0459 23.7693 23.0492 25.7659 23.0492 28.2234V36.7604H23.0364V39.1667H23.0492V63.9332C23.0492 66.3906 25.0459 68.3873 27.5034 68.3873H45.7934C46.459 68.3873 46.9966 67.8497 46.9966 67.1842C46.9966 66.5186 46.459 65.9811 45.7934 65.9811H27.5034C26.377 65.9811 25.4555 65.0595 25.4555 63.9332V28.2234C25.4555 27.097 26.377 26.1883 27.5034 26.1883H69.7152C70.8415 26.1883 71.7502 27.1098 71.7502 28.2234V63.946C71.7502 65.0723 70.8287 65.9939 69.7152 65.9939H65.4914C64.8259 65.9939 64.2883 66.5314 64.2883 67.197V71.5103L55.7384 66.173C55.5464 66.0578 55.3289 65.9939 55.0985 65.9939H51.4123C50.7467 65.9939 50.2092 66.5314 50.2092 67.197C50.2092 67.8625 50.7467 68.4001 51.4123 68.4001H54.7529L64.8515 74.7101C65.0435 74.8253 65.261 74.8893 65.4914 74.8893C65.6962 74.8893 65.8882 74.8381 66.0802 74.7357C66.4642 74.5181 66.7074 74.1214 66.7074 73.6862V68.3873H69.728C72.1854 68.3873 74.1821 66.3906 74.1821 63.9332V28.2234C74.1565 25.7659 72.1598 23.7693 69.7152 23.7693Z" fill="white"/>
<defs>
<linearGradient id="paint0_linear" x1="0.0683744" y1="49.3165" x2="97.1246" y2="49.3165" gradientUnits="userSpaceOnUse">
<stop stop-color="#BCBEC0"/>
<stop offset="0.2456" stop-color="#8295A9"/>
<stop offset="0.5639" stop-color="#3C638D"/>
<stop offset="0.794" stop-color="#11457B"/>
<stop offset="0.9106" stop-color="#003974"/>
</linearGradient>
<linearGradient id="paint1_linear" x1="94.1937" y1="49.3165" x2="2.99926" y2="49.3165" gradientUnits="userSpaceOnUse">
<stop stop-color="#BCBEC0"/>
<stop offset="0.2456" stop-color="#8295A9"/>
<stop offset="0.5639" stop-color="#3C638D"/>
<stop offset="0.794" stop-color="#11457B"/>
<stop offset="0.9106" stop-color="#003974"/>
</linearGradient>
</defs>
</svg>
