<svg width="98" height="98" viewBox="0 0 98 98" fill="none" xmlns="http://www.w3.org/2000/svg">
<path d="M48.5218 97.0436C75.3197 97.0436 97.0436 75.3197 97.0436 48.5218C97.0436 21.724 75.3197 0 48.5218 0C21.724 0 0 21.724 0 48.5218C0 75.3197 21.724 97.0436 48.5218 97.0436Z" fill="url(#paint0_linear)"/>
<path d="M48.5219 94.1253C73.7081 94.1253 94.1255 73.7079 94.1255 48.5217C94.1255 23.3355 73.7081 2.91809 48.5219 2.91809C23.3358 2.91809 2.91833 23.3355 2.91833 48.5217C2.91833 73.7079 23.3358 94.1253 48.5219 94.1253Z" fill="url(#paint1_linear)"/>
<path d="M50.4928 50.032H46.5123C45.9619 50.032 45.5139 50.48 45.5139 51.0303C45.5139 51.5807 45.9619 52.0287 46.5123 52.0287H50.4928C51.0432 52.0287 51.4912 51.5807 51.4912 51.0303C51.4784 50.4672 51.0432 50.032 50.4928 50.032Z" fill="white"/>
<path d="M70.4854 74.5693C70.2934 74.8253 69.999 74.9789 69.679 74.9789H68.4247V70C68.4247 68.8992 67.5287 68.0033 66.428 68.0033V65.4946C66.62 65.661 66.8248 65.8146 67.004 65.9938C68.0151 67.005 68.8087 68.2209 69.3206 69.5648L70.6389 73.6605C70.7285 73.9805 70.6645 74.3133 70.4854 74.5693ZM65.4297 74.9789H61.4491V70H66.428V74.9789H65.4297ZM32.5613 74.9789V62.0261C32.5613 61.4757 33.0093 61.0277 33.5596 61.0277H36.7722C37.2714 61.0277 37.6938 61.3989 37.7706 61.8981L38.9097 70.9983H58.0957L59.1964 62.1541L59.222 61.9109C59.286 61.4117 59.7084 61.0405 60.2204 61.0405H63.433C63.9834 61.0405 64.4313 61.4885 64.4313 62.0389V68.0161H61.4491C60.3484 68.0161 59.4524 68.912 59.4524 70.0128V74.9917H32.5613V74.9789ZM27.3264 74.9789C26.776 74.9789 26.3281 74.5309 26.3281 73.9805C26.3281 73.8781 26.3409 73.7757 26.3793 73.6734L27.672 69.616C28.184 68.2593 28.9775 67.0306 30.0014 65.9938C30.1806 65.8146 30.3854 65.661 30.5774 65.4946V74.9661H27.3264V74.9789ZM39.6648 43.0704C39.6009 41.3169 39.3577 39.5762 38.9225 37.8739C38.8841 37.7076 38.8457 37.554 38.8073 37.4132C38.6665 36.9012 38.5897 36.3892 38.5513 35.8645V35.7749C38.5513 35.7621 38.5513 35.7621 38.5513 35.7493C39.2809 35.0837 42.8391 34.1366 48.4963 34.1366C54.128 34.1366 57.6861 35.0709 58.4413 35.7493V35.8005C58.4157 36.338 58.3261 36.8628 58.1853 37.3748C58.1341 37.5284 58.0957 37.6948 58.0701 37.8227C57.6349 39.5378 57.3918 41.2913 57.3278 43.0576C57.3022 43.7104 57.315 44.3887 57.3534 45.1567C57.379 45.5535 57.3918 45.963 57.4302 46.3342C57.4558 46.5646 57.4558 46.795 57.4558 47.0126C57.2638 48.4845 56.611 49.854 55.5743 50.9291C54.3839 52.3371 53.0528 53.617 51.5937 54.7561C49.789 56.2152 47.2036 56.2152 45.3989 54.7561C43.9526 53.617 42.6087 52.3371 41.4183 50.9291C40.3816 49.8668 39.716 48.4973 39.5369 47.0126C39.5369 46.795 39.5497 46.5646 39.5625 46.3726C39.6009 45.9758 39.6265 45.5663 39.652 45.1439C39.6776 44.4015 39.6776 43.7232 39.6648 43.0704ZM37.2202 45.0671C36.977 44.6319 36.5418 43.2368 36.5418 40.1266C36.5034 39.6274 36.5802 39.1283 36.7466 38.6547C36.8746 38.7059 36.9898 38.7827 37.0922 38.8595C37.4122 40.2674 37.6042 41.7009 37.6554 43.1472C37.6682 43.608 37.6682 44.0944 37.6426 44.6063C37.5402 44.7599 37.3866 44.9263 37.2202 45.0671ZM34.558 42.1105C34.0076 42.1105 33.5596 41.6625 33.5596 41.1121V36.1333C33.5596 35.3013 34.0716 34.5589 34.8523 34.2646C35.2747 34.111 35.5435 33.6886 35.5051 33.2278C35.4923 33.0742 35.5179 32.9078 35.5819 32.7671L37.9626 26.8154C39.3065 23.398 42.6087 21.1582 46.282 21.1838H50.7234C54.3967 21.171 57.6989 23.4108 59.0429 26.8282L61.4235 32.7671C61.4875 32.9206 61.5131 33.0742 61.5003 33.2406C61.4619 33.6886 61.7179 34.111 62.1531 34.2774C62.9338 34.5717 63.4458 35.3141 63.4458 36.146V41.1249C63.4458 41.6753 62.9978 42.1233 62.4475 42.1233H62.3834C62.4218 41.5345 62.4475 40.869 62.4475 40.1266C62.4475 39.461 62.4475 37.4132 61.0779 36.7988C60.8603 36.6964 60.6172 36.658 60.374 36.658C60.4124 36.402 60.438 36.146 60.4508 35.8773V35.8517C60.4508 35.8389 60.4508 35.8261 60.4508 35.8133C60.4636 35.7365 60.4636 35.6597 60.4636 35.5957V35.5701C60.4636 35.5317 60.4636 35.4933 60.4508 35.4549C60.3996 35.0837 60.2332 34.7381 59.9772 34.4694C58.4285 32.7543 52.8224 32.1527 48.4963 32.1527C44.1702 32.1527 38.5641 32.7543 37.0282 34.4566C36.7722 34.7253 36.6058 35.0837 36.5546 35.4549C36.5546 35.4933 36.5418 35.5957 36.5418 35.6341C36.5418 35.6725 36.5418 35.7365 36.5546 35.8133C36.5546 35.8261 36.5546 35.8389 36.5546 35.8517V35.9157C36.5674 36.1589 36.593 36.402 36.6314 36.6452C36.3882 36.6452 36.1451 36.6964 35.9275 36.786C34.558 37.4004 34.558 39.4482 34.558 40.1138C34.558 40.8562 34.5836 41.5089 34.622 42.1105H34.558ZM59.7724 45.0671C59.606 44.9263 59.4652 44.7727 59.3372 44.5935C59.3244 44.0816 59.3116 43.5952 59.3244 43.1472C59.3756 41.7009 59.5676 40.2674 59.9004 38.8595C60.0028 38.7699 60.118 38.7059 60.246 38.6547C60.4252 39.1283 60.4892 39.6274 60.4508 40.1266C60.4508 43.2368 60.0156 44.6319 59.7724 45.0671ZM51.4785 64.4963C52.2849 64.2531 53.0656 63.9843 53.7568 63.7156C54.4351 63.434 55.1135 63.2036 55.8175 62.9988C55.8815 62.9732 55.9454 62.9476 56.0094 62.9092C56.1502 62.986 56.3038 63.0244 56.4574 63.0244H57.0718L56.3294 69.0016H51.4785V64.4963ZM47.4852 63.6772C47.4596 63.3572 47.2804 63.0628 46.9988 62.9092C46.9348 62.8708 46.8836 62.8452 46.8068 62.8196C46.7812 62.8068 46.7556 62.794 46.73 62.7812C45.7829 62.538 44.8485 62.2309 43.9526 61.8469C43.2614 61.5781 42.6087 61.3349 41.9815 61.1557C42.1479 60.5798 42.2759 59.991 42.3271 59.3894C42.6215 59.4918 42.9158 59.607 43.223 59.735C44.8869 60.4902 46.6788 60.9253 48.4963 61.0277C50.3138 60.9253 52.1057 60.4902 53.7696 59.735C54.0768 59.6198 54.3839 59.5046 54.6655 59.3894C54.7295 59.991 54.8447 60.5798 55.0111 61.1557C54.3711 61.3349 53.7184 61.5781 53.04 61.8469C52.1313 62.2181 51.2097 62.538 50.2626 62.7812C50.237 62.794 50.2114 62.8068 50.1858 62.8196C50.0578 62.858 49.9554 62.922 49.853 63.0116C49.661 63.178 49.533 63.4212 49.5074 63.6772C49.5074 63.7028 49.4946 63.7284 49.4946 63.754V69.0016H47.498V63.754C47.498 63.7284 47.4852 63.7028 47.4852 63.6772ZM40.5224 63.0244C40.676 63.0244 40.8296 62.986 40.9704 62.9092C41.0344 62.9476 41.0984 62.9732 41.1624 62.9988C41.8663 63.1908 42.5575 63.434 43.223 63.7156C43.9142 63.9843 44.6949 64.2659 45.5013 64.4963V69.0016H40.6504L39.908 63.0244H40.5224ZM54.7679 54.8713C54.6655 55.7416 54.6015 56.5608 54.5887 57.3288C54.0896 57.4951 53.5776 57.6743 53.0528 57.8791C51.6193 58.5447 50.0706 58.9286 48.4963 59.031C46.922 58.9286 45.3733 58.5319 43.9398 57.8791C43.4022 57.6743 42.9031 57.4951 42.4039 57.3288C42.3911 56.5736 42.3271 55.7544 42.2247 54.8841C42.2119 54.7945 42.1991 54.6921 42.1863 54.6025C42.7879 55.1657 43.4278 55.7288 44.1446 56.3048C46.6788 58.3655 50.3138 58.3655 52.848 56.3048C53.5648 55.7288 54.2048 55.1657 54.8063 54.6025C54.7935 54.6921 54.7807 54.7817 54.7679 54.8713ZM71.1893 68.9248C70.575 67.2993 69.6278 65.8274 68.3991 64.5987C67.7975 64.0099 67.132 63.4852 66.4152 63.0244V62.0261C66.4152 60.375 65.0713 59.0438 63.433 59.0438H60.2204C58.9533 59.0438 57.8269 59.8502 57.4046 61.0405H57.0846C56.4958 59.1206 56.3806 57.0856 56.739 55.1017C56.867 54.0522 57.0334 53.0154 57.2638 51.9787C58.5053 50.622 59.2604 48.9069 59.4396 47.0766C59.5676 47.115 59.6956 47.1278 59.8236 47.1406C60.0028 47.1406 60.182 47.115 60.3612 47.051C60.7324 46.923 61.6411 46.6158 62.1275 44.1072H62.4347C64.0857 44.1072 65.4169 42.7632 65.4169 41.1249V36.146C65.4169 34.7253 64.6617 33.4198 63.433 32.7031C63.3946 32.4855 63.3306 32.2551 63.2538 32.0503L60.8731 26.1115C59.2348 21.9389 55.1903 19.1999 50.7106 19.2127H46.2692C41.7895 19.1999 37.745 21.9261 36.1067 26.0987L33.726 32.0503C33.6492 32.2551 33.5852 32.4727 33.5468 32.6903C32.3181 33.407 31.5629 34.7125 31.5629 36.1333V41.1121C31.5629 42.7632 32.9069 44.0944 34.5452 44.0944H34.8523C35.3387 46.603 36.2475 46.923 36.6186 47.0382C36.785 47.1022 36.977 47.1278 37.1562 47.1278C37.2842 47.115 37.4122 47.1022 37.5402 47.0638C37.7066 48.8941 38.4745 50.6092 39.716 51.9659C39.9464 53.0026 40.1256 54.0394 40.2408 55.0889C40.5992 57.06 40.484 59.095 39.8952 61.0149H39.5753C39.1529 59.8246 38.0266 59.031 36.7594 59.0182H33.5468C31.8957 59.0182 30.5646 60.3622 30.5646 62.0005V62.9988C29.8479 63.4468 29.1823 63.9715 28.5807 64.5731C27.3392 65.8146 26.3921 67.3121 25.7777 68.9504L24.4594 73.059C23.9602 74.6333 24.8306 76.31 26.4049 76.822C26.6992 76.9115 27.0064 76.9627 27.3136 76.9627H69.6662C71.3173 76.9627 72.6612 75.6316 72.6612 73.9805C72.6612 73.6734 72.61 73.3662 72.5204 73.0718L71.1893 68.9248Z" fill="white"/>
<path d="M47.498 48.0865H49.4947C50.045 48.0865 50.493 47.6386 50.493 47.0882C50.493 46.5378 50.045 46.0898 49.4947 46.0898H47.498C46.9476 46.0898 46.4996 46.5378 46.4996 47.0882C46.4996 47.6386 46.9476 48.0865 47.498 48.0865Z" fill="white"/>
<path d="M41.5207 41.1109H42.5191V42.1093C42.5191 42.6596 42.967 43.1076 43.5174 43.1076C44.0678 43.1076 44.5157 42.6596 44.5157 42.1093V41.1109H45.5141C46.0644 41.1109 46.5124 40.663 46.5124 40.1126C46.5124 39.5622 46.0644 39.1143 45.5141 39.1143H41.5335C40.9832 39.1143 40.5352 39.5622 40.5352 40.1126C40.5224 40.663 40.9704 41.1109 41.5207 41.1109Z" fill="white"/>
<path d="M51.4783 41.1109H52.4767V42.1093C52.4767 42.6596 52.9246 43.1076 53.475 43.1076C54.0254 43.1076 54.4733 42.6596 54.4733 42.1093V41.1109H55.4717C56.0221 41.1109 56.47 40.663 56.47 40.1126C56.47 39.5622 56.0221 39.1143 55.4717 39.1143H51.4911C50.9408 39.1143 50.4928 39.5622 50.4928 40.1126C50.4928 40.663 50.9408 41.1109 51.4783 41.1109Z" fill="white"/>
<defs>
<linearGradient id="paint0_linear" x1="-0.00627162" y1="48.5218" x2="97.0499" y2="48.5218" gradientUnits="userSpaceOnUse">
<stop stop-color="#BCBEC0"/>
<stop offset="0.2456" stop-color="#8295A9"/>
<stop offset="0.5639" stop-color="#3C638D"/>
<stop offset="0.794" stop-color="#11457B"/>
<stop offset="0.9106" stop-color="#003974"/>
</linearGradient>
<linearGradient id="paint1_linear" x1="94.1191" y1="48.5217" x2="2.92474" y2="48.5217" gradientUnits="userSpaceOnUse">
<stop stop-color="#BCBEC0"/>
<stop offset="0.2456" stop-color="#8295A9"/>
<stop offset="0.5639" stop-color="#3C638D"/>
<stop offset="0.794" stop-color="#11457B"/>
<stop offset="0.9106" stop-color="#003974"/>
</linearGradient>
</defs>
</svg>
