<svg width="98" height="98" viewBox="0 0 98 98" fill="none" xmlns="http://www.w3.org/2000/svg">
<path d="M49 98C76.062 98 98 76.062 98 49C98 21.938 76.062 0 49 0C21.938 0 0 21.938 0 49C0 76.062 21.938 98 49 98Z" fill="url(#paint0_linear)"/>
<path d="M49 95.0531C74.4344 95.0531 95.0531 74.4344 95.0531 49C95.0531 23.5657 74.4344 2.94702 49 2.94702C23.5657 2.94702 2.94702 23.5657 2.94702 49C2.94702 74.4344 23.5657 95.0531 49 95.0531Z" fill="url(#paint1_linear)"/>
<path d="M49 43.2095C52.7355 43.2095 55.7729 40.1462 55.7729 36.3849C55.7729 32.6236 52.7355 29.5603 49 29.5603C47.617 29.5603 46.2986 29.9739 45.1612 30.7624C44.8252 30.995 44.7476 31.4603 44.9673 31.7964C45.2 32.1324 45.6524 32.2229 45.9884 31.9903C46.8674 31.3828 47.9143 31.0467 48.9871 31.0467C51.9082 31.0467 54.2865 33.4379 54.2865 36.3849C54.2865 39.3319 51.9082 41.7231 48.9871 41.7231C46.066 41.7231 43.6877 39.3319 43.6877 36.3849C43.6877 35.5189 43.8816 34.6917 44.2823 33.9291C44.4632 33.5672 44.334 33.1148 43.9721 32.9338C43.6102 32.7399 43.1707 32.8821 42.9768 33.244C42.4727 34.2134 42.2142 35.2992 42.2142 36.3849C42.2272 40.1462 45.2646 43.2095 49 43.2095Z" fill="white"/>
<path d="M63.1145 69.2153L55.941 62.9465H69.7194L72.3045 69.2153H63.1145ZM56.5485 69.2153L41.387 56.3158C41.2061 56.1607 40.9734 56.109 40.7408 56.1607C40.5081 56.2124 40.3272 56.3804 40.2367 56.6002L35.0278 69.2153H32.2747L35.0536 62.4812C35.1441 62.2485 35.1182 61.99 34.989 61.7832C34.8468 61.5764 34.6271 61.4601 34.3815 61.4601H28.8882L29.8835 59.043H35.9842C36.2815 59.043 36.553 58.8621 36.6564 58.5907L38.9054 53.1491H40.185C40.4047 53.4334 40.6374 53.7049 40.8571 53.9892C44.6442 58.5519 48.3797 61.473 48.5348 61.6023C48.664 61.7057 48.832 61.7574 48.9871 61.7574C49.1422 61.7574 49.3103 61.7057 49.4395 61.6023C49.53 61.5376 50.6933 60.6199 52.3607 59.056H60.6846C61.0853 59.056 61.4213 58.7199 61.4213 58.3192C61.4213 57.9185 61.0982 57.5825 60.6846 57.5825H53.8858C54.907 56.5485 56.0185 55.3464 57.143 54.0022C57.3757 53.7178 57.5954 53.4464 57.8152 53.162H65.6867L67.4962 57.5696H63.6186C63.2179 57.5696 62.8819 57.9056 62.8819 58.3063C62.8819 58.707 63.205 59.043 63.6186 59.043H68.1037L69.099 61.4601H53.9763C53.6661 61.4601 53.3947 61.654 53.2913 61.9383C53.1879 62.2227 53.2654 62.5587 53.4981 62.7526L60.8785 69.2024H56.5485V69.2153ZM36.6176 69.2153L41.2061 58.0995L54.2736 69.2153H36.6176ZM32.3264 53.1491H37.3285L35.506 57.5696H30.5039L32.3264 53.1491ZM34.6012 36.3849C34.6012 28.3841 41.0639 21.8827 49.0001 21.8827C56.9362 21.8827 63.3989 28.3841 63.3989 36.3849C63.3989 39.7326 62.2485 45.0966 56.8975 51.9341C56.8975 51.9341 56.8845 51.947 56.8845 51.96C56.6131 52.3089 56.3287 52.6579 56.0315 53.0198C53.0974 56.5614 50.1116 59.1465 49.013 60.0642C47.9143 59.1465 44.9544 56.5743 42.0075 53.0328C41.7102 52.6709 41.4129 52.3089 41.1285 51.947L41.1156 51.9341C35.7516 45.1095 34.6012 39.7455 34.6012 36.3849ZM24.5841 70.7017H73.4031C73.6487 70.7017 73.8814 70.5725 74.0106 70.3786C74.1528 70.1718 74.1657 69.9133 74.0752 69.6806L66.8241 52.128C66.7078 51.8566 66.4364 51.6756 66.152 51.6756H58.9267C60.3356 49.7626 61.4989 47.8497 62.4166 45.9755C64.0322 42.6537 64.8595 39.4353 64.8595 36.3978C64.8595 27.5827 57.7376 20.4092 48.9871 20.4092C40.2367 20.4092 33.1148 27.5827 33.1148 36.3978C33.1148 39.4353 33.9291 42.6666 35.5577 45.9755C36.4754 47.8497 37.6387 49.7626 39.0475 51.6756H31.8223C31.525 51.6756 31.2536 51.8566 31.1502 52.128L26.2127 64.0839C26.0576 64.4588 26.2385 64.8982 26.6134 65.0533C26.7038 65.0921 26.8072 65.105 26.8977 65.105C27.1821 65.105 27.4535 64.937 27.5698 64.6526L28.2807 62.9465H33.2828L30.6978 69.2153H25.6957L26.4453 67.3928C26.6004 67.018 26.4195 66.5785 26.0446 66.4234C25.6698 66.2683 25.2433 66.4493 25.0882 66.8241L23.912 69.6677C23.8215 69.9003 23.8473 70.1589 23.9766 70.3657C24.1058 70.5725 24.3385 70.7017 24.5841 70.7017Z" fill="white"/>
<defs>
<linearGradient id="paint0_linear" x1="-0.00904774" y1="49.0014" x2="98.0036" y2="49.0014" gradientUnits="userSpaceOnUse">
<stop stop-color="#BCBEC0"/>
<stop offset="0.2456" stop-color="#8295A9"/>
<stop offset="0.5639" stop-color="#3C638D"/>
<stop offset="0.794" stop-color="#11457B"/>
<stop offset="0.9106" stop-color="#003974"/>
</linearGradient>
<linearGradient id="paint1_linear" x1="95.0439" y1="49.0015" x2="2.95077" y2="49.0015" gradientUnits="userSpaceOnUse">
<stop stop-color="#BCBEC0"/>
<stop offset="0.2456" stop-color="#8295A9"/>
<stop offset="0.5639" stop-color="#3C638D"/>
<stop offset="0.794" stop-color="#11457B"/>
<stop offset="0.9106" stop-color="#003974"/>
</linearGradient>
</defs>
</svg>
