<svg width="13682.000000000002" height="10407.999999999998" xmlns="http://www.w3.org/2000/svg" clip-rule="evenodd">
 <defs>
  <style>.fil0,.fil1{fill:#163e73}.fil1{fill-rule:nonzero}</style>
 </defs>
 <g>
  <title>background</title>
  <rect fill="none" id="canvas_background" height="10410" width="13684" y="-1" x="-1"/>
 </g>
 <g>
  <title>Layer 1</title>
  <g id="Слой_x0020_1">
   <g id="_914506300544">
    <path id="svg_1" d="m4765,10408c353,1 702,-174 910,-396l-231,-411c-111,165 -332,348 -647,365c-495,27 -889,-363 -889,-840c0,-820 1043,-1137 1517,-501l228,-407c-204,-211 -525,-374 -873,-373c-729,3 -1313,552 -1313,1281c0,730 579,1280 1298,1282z" class="fil0"/>
    <path id="svg_2" d="m7694,10336l511,0l-750,-1310l679,-1179l-515,0l-606,1059l-444,-3l-3,-1056l-484,0l3,2489l484,0l0,-1004l550,-1l575,1005z" class="fil1"/>
    <path id="svg_3" d="m11276,9106c0,-750 -493,-1198 -1368,-1247l-445,0c-875,49 -1372,493 -1372,1247c0,749 497,1193 1372,1242l445,0c875,-41 1368,-493 1368,-1242zm-1368,827l0,-1655c586,45 905,322 905,823c0,502 -312,783 -905,832zm-1346,-827c0,-506 304,-779 901,-828l0,1655c-575,-53 -901,-326 -901,-827zm4627,-1247c-244,456 -453,868 -726,1336l-723,-1336l-494,0l964,1783c-106,163 -227,323 -442,323c-45,0 -92,-6 -142,-17l219,397c286,3 537,-108 755,-508l1082,-1978l-493,0z" class="fil1"/>
    <g id="svg_4">
     <path id="svg_5" d="m95,5051c585,710 1390,1175 2302,1296c-29,30 -52,74 -76,101c-698,60 -1329,-88 -1928,-455c-123,-298 -233,-616 -298,-942z" class="fil0"/>
     <path id="svg_6" d="m2661,6061c-38,35 -100,97 -129,132c-1069,-224 -1948,-878 -2517,-1808c-42,-586 12,-1165 167,-1731c215,1493 1118,2746 2479,3407z" class="fil0"/>
     <path id="svg_7" d="m3094,5722c-87,56 -218,143 -305,221c-1428,-898 -2217,-2352 -2332,-4019c445,-869 833,-1330 1556,-1923c-971,2157 -302,4410 1081,5721z" class="fil0"/>
     <path id="svg_8" d="m4199,1039c1093,699 2618,2677 1906,4458c-569,1421 -1728,1779 -2127,2032c-400,252 -1182,962 -892,2059c-837,-358 -1120,-1218 -845,-1998c610,-1735 1986,-1480 2377,-3803c176,-1047 -197,-2319 -419,-2748zm-3629,5344c522,284 1072,367 1649,219c-17,27 -55,100 -73,126c-405,204 -830,210 -1278,135c-118,-167 -186,-299 -298,-480zm475,731c333,55 705,-30 1004,-199l-50,132c-187,214 -492,293 -744,305c-92,-73 -144,-162 -210,-238z" class="fil0"/>
    </g>
   </g>
  </g>
 </g>
</svg>