<svg xmlns="http://www.w3.org/2000/svg" viewBox="0 0 159 242"
     shape-rendering="geometricPrecision" text-rendering="geometricPrecision" image-rendering="optimizeQuality"
     fill-rule="evenodd" clip-rule="evenodd">
  <defs>
    <style>.fil0{fill:#163e73}</style>
  </defs>
  <g id="Слой_x0020_1">
    <g id="_406258327856">
      <path class="fil0" d="M2 128c15 18 36 29 59 32-1 1-2 2-2 3-18 1-34-2-49-12-3-7-6-15-8-23z"/>
      <path class="fil0" d="M67 153c-1 1-2 3-3 4-27-6-49-23-64-46-1-15 1-30 5-44 5 38 28 69 62 86z"/>
      <path class="fil0" d="M78 145c-2 1-5 3-8 5-36-23-56-59-58-101C23 27 33 15 51 0c-25 55-8 111 27 145z"/>
      <path class="fil0"
            d="M106 26c28 18 66 68 48 113-14 36-43 45-53 51-11 7-30 25-23 52-21-9-28-30-21-50 15-44 50-38 60-96 4-27-5-59-11-70zM14 161c14 8 27 10 42 6 0 1-1 2-2 3-10 5-21 5-32 3-3-4-5-7-8-12zM26 180c9 1 18-1 26-5l-1 3c-5 6-13 8-19 8-3-2-4-4-6-6z"/>
    </g>
  </g>
</svg>
