<?xml version="1.0" encoding="UTF-8"?>
<!DOCTYPE svg PUBLIC "-//W3C//DTD SVG 1.1//EN" "http://www.w3.org/Graphics/SVG/1.1/DTD/svg11.dtd">
<!-- Creator: CorelDRAW X7 -->
<svg xmlns="http://www.w3.org/2000/svg" xml:space="preserve" width="71.4556mm" height="53.6262mm" version="1.1" style="shape-rendering:geometricPrecision; text-rendering:geometricPrecision; image-rendering:optimizeQuality; fill-rule:evenodd; clip-rule:evenodd"
viewBox="0 0 39359 29538"
 xmlns:xlink="http://www.w3.org/1999/xlink">
 <defs>
  <style type="text/css">
   <![CDATA[
    .fil0 {fill:#163E73}
    .fil1 {fill:#163E73;fill-rule:nonzero}
   ]]>
  </style>
 </defs>
 <g id="Слой_x0020_1">
  <metadata id="CorelCorpID_0Corel-Layer"/>
  <g id="_914511216144">
   <g>
    <path class="fil0" d="M242 13002c1507,1827 3577,3024 5927,3337 -75,77 -135,189 -195,259 -1797,155 -3422,-227 -4964,-1171 -318,-769 -599,-1587 -768,-2425z"/>
    <path class="fil0" d="M6848 15603c-98,89 -258,248 -332,338 -2751,-577 -5015,-2260 -6480,-4654 -109,-1508 30,-3000 431,-4458 553,3844 2877,7070 6381,8774z"/>
    <path class="fil0" d="M7963 14728c-224,146 -560,368 -784,569 -3677,-2312 -5710,-6054 -6005,-10345 1145,-2239 2145,-3425 4006,-4952 -2500,5554 -778,11352 2783,14728z"/>
    <path class="fil0" d="M10807 2673c2814,1798 6742,6891 4907,11476 -1464,3658 -4448,4580 -5476,5231 -1029,650 -3041,2478 -2296,5303 -2155,-922 -2882,-3138 -2176,-5146 1570,-4466 5113,-3809 6120,-9789 454,-2696 -507,-5972 -1079,-7075z"/>
    <path class="fil0" d="M1464 16430c1345,733 2760,944 4246,565 -44,69 -141,257 -188,323 -1041,527 -2136,542 -3290,348 -303,-430 -479,-768 -768,-1236z"/>
    <path class="fil0" d="M2688 18314c858,139 1814,-78 2584,-514l-127 341c-484,551 -1268,753 -1918,783 -235,-186 -370,-417 -539,-610z"/>
   </g>
   <path class="fil1" d="M10554 23467c283,0 523,-101 683,-287l-206 -197c-126,138 -280,204 -460,204 -356,0 -614,-251 -614,-605 0,-354 258,-604 614,-604 180,0 334,66 460,201l206 -194c-160,-187 -400,-288 -681,-288 -528,0 -921,372 -921,885 0,514 393,885 919,885zm1300 -292l0 -475 831 0 0 -263 -831 0 0 -447 937 0 0 -268 -1256 0 0 1721 1290 0 0 -268 -971 0zm2461 -627c160,-69 253,-199 253,-384 0,-285 -231,-442 -615,-442l-769 0 0 1721 816 0c428,0 652,-180 652,-477 0,-217 -121,-359 -337,-418zm-816 -580l427 0c207,0 318,83 318,246 0,159 -111,243 -318,243l-427 0 0 -489zm491 1229l-491 0 0 -507 491 0c222,0 340,79 340,251 0,172 -118,256 -340,256zm1345 -22l0 -475 831 0 0 -263 -831 0 0 -447 937 0 0 -268 -1257 0 0 1721 1291 0 0 -268 -971 0zm2035 -1453l-708 0 0 1721 320 0 0 -497 388 0c453,0 733,-233 733,-612 0,-381 -280,-612 -733,-612zm-14 954l-374 0 0 -684 374 0c280,0 425,126 425,342 0,216 -145,342 -425,342zm1870 791c534,0 927,-373 927,-885 0,-511 -393,-885 -927,-885 -533,0 -926,376 -926,885 0,509 393,885 926,885zm0 -280c-346,0 -604,-253 -604,-605 0,-351 258,-604 604,-604 347,0 605,253 605,604 0,352 -258,605 -605,605zm1175 -300l676 0 0 -256 -676 0 0 256zm2190 556l362 0 -610 -888 588 -833 -340 0 -494 720 -329 0 0 -720 -315 0 0 1721 315 0 0 -726 320 0 503 726zm1950 0l334 0 -777 -1721 -314 0 -775 1721 330 0 169 -399 861 0 172 399zm-924 -649l322 -752 324 752 -646 0zm2654 -246c160,-69 254,-199 254,-384 0,-285 -232,-442 -615,-442l-769 0 0 1721 816 0c427,0 651,-180 651,-477 0,-217 -120,-359 -337,-418zm-816 -580l428 0c206,0 317,83 317,246 0,159 -111,243 -317,243l-428 0 0 -489zm492 1229l-492 0 0 -507 492 0c221,0 339,79 339,251 0,172 -118,256 -339,256zm2163 246l361 0 -609 -888 587 -833 -339 0 -494 720 -329 0 0 -720 -315 0 0 1721 315 0 0 -726 319 0 504 726zm1949 0l335 0 -777 -1721 -315 0 -774 1721 329 0 170 -399 860 0 172 399zm-924 -649l322 -752 325 752 -647 0zm2426 -249c160,-66 258,-199 258,-371 0,-305 -327,-484 -705,-484 -192,0 -396,44 -578,143l101 258c150,-89 322,-131 469,-131 217,0 389,89 389,254 0,135 -113,218 -305,218l-376 0 0 251 401 0c216,0 351,76 351,231 0,185 -206,285 -452,285 -175,0 -369,-51 -524,-157l-103 234c202,130 443,191 666,191 394,0 738,-187 738,-506 0,-199 -126,-352 -330,-416zm1483 922c282,0 523,-101 683,-287l-207 -197c-125,138 -280,204 -459,204 -357,0 -615,-251 -615,-605 0,-354 258,-604 615,-604 179,0 334,66 459,201l207 -194c-160,-187 -401,-288 -681,-288 -528,0 -922,372 -922,885 0,514 394,885 920,885zm2119 -24l361 0 -610 -888 588 -833 -339 0 -495 720 -329 0 0 -720 -315 0 0 1721 315 0 0 -726 320 0 504 726zm639 0l297 0 924 -1220 0 1220 315 0 0 -1721 -298 0 -924 1222 0 -1222 -314 0 0 1721zm2785 -1837c295,0 447,-127 449,-356l-221 0c-5,123 -88,189 -228,189 -143,0 -222,-66 -224,-189l-224 0c3,229 150,356 448,356zm-765 1837l298 0 924 -1220 0 1220 315 0 0 -1721 -298 0 -924 1222 0 -1222 -315 0 0 1721z"/>
   <path class="fil1" d="M11014 27780l-524 1011 -509 -1011 -342 0 686 1283 -27 42c-71,113 -155,160 -255,160 -52,0 -106,-12 -168,-32l-78 251c86,37 172,54 253,54 209,0 398,-118 531,-369l747 -1389 -314 0zm1782 0l0 711 -890 0 0 -711 -320 0 0 1721 320 0 0 -737 890 0 0 737 319 0 0 -1721 -319 0zm804 1721l297 0 924 -1219 0 1219 315 0 0 -1721 -298 0 -924 1222 0 -1222 -314 0 0 1721zm3151 -895c160,-69 253,-199 253,-383 0,-285 -231,-443 -615,-443l-769 0 0 1721 816 0c428,0 652,-179 652,-477 0,-216 -121,-359 -337,-418zm-816 -580l427 0c207,0 318,84 318,246 0,160 -111,243 -318,243l-427 0 0 -489zm491 1229l-491 0 0 -506 491 0c222,0 340,78 340,251 0,172 -118,255 -340,255zm1345 -22l0 -474 831 0 0 -263 -831 0 0 -448 937 0 0 -268 -1257 0 0 1721 1291 0 0 -268 -971 0zm2035 -1453l-708 0 0 1721 320 0 0 -497 388 0c453,0 733,-233 733,-612 0,-381 -280,-612 -733,-612zm-14 954l-374 0 0 -683 374 0c280,0 425,125 425,341 0,217 -145,342 -425,342zm1865 792c283,0 524,-101 684,-288l-207 -197c-125,138 -280,204 -459,204 -357,0 -615,-250 -615,-604 0,-354 258,-605 615,-605 179,0 334,66 459,202l207 -195c-160,-187 -401,-287 -681,-287 -529,0 -922,371 -922,885 0,513 393,885 919,885zm984 -25l297 0 924 -1219 0 1219 315 0 0 -1721 -298 0 -924 1222 0 -1222 -314 0 0 1721zm3266 -1721l-1455 0 0 271 568 0 0 1450 317 0 0 -1450 570 0 0 -271zm595 1453l0 -474 831 0 0 -263 -831 0 0 -448 937 0 0 -268 -1256 0 0 1721 1290 0 0 -268 -971 0zm2576 -1453l-1455 0 0 271 568 0 0 1450 317 0 0 -1450 570 0 0 -271z"/>
   <path class="fil1" d="M11746 25607c0,-453 -327,-723 -907,-753l0 -174 -295 0 0 174c-580,30 -909,298 -909,753 0,452 329,720 909,749l0 182 295 0 0 -182c580,-24 907,-297 907,-749zm-907 499l0 -998c388,27 600,194 600,496 0,302 -207,472 -600,502zm-892 -499c0,-305 201,-470 597,-499l0 998c-381,-32 -597,-197 -597,-499zm2455 594l0 -474 831 0 0 -263 -831 0 0 -447 937 0 0 -268 -1256 0 0 1720 1290 0 0 -268 -971 0zm2785 -2l0 -1450 -1261 0 -19 545c-17,504 -74,895 -307,905l-74 0 -3 637 298 0 0 -367 1320 0 0 367 295 0 0 -637 -249 0zm-1000 -875l12 -305 674 0 0 1180 -873 0c133,-138 172,-484 187,-875zm1868 877l0 -474 831 0 0 -263 -831 0 0 -447 937 0 0 -268 -1256 0 0 1720 1290 0 0 -268 -971 0zm2036 -1452l-708 0 0 1720 319 0 0 -496 389 0c452,0 732,-234 732,-612 0,-381 -280,-612 -732,-612zm-15 953l-374 0 0 -683 374 0c280,0 425,125 425,342 0,216 -145,341 -425,341zm2387 767l334 0 -777 -1720 -314 0 -775 1720 330 0 169 -398 861 0 172 398zm-925 -649l322 -752 325 752 -647 0zm1726 -1071l-25 713c-17,484 -81,739 -290,739 -27,0 -49,-2 -73,-9l-22 277c66,15 120,25 174,25 371,0 472,-366 494,-1045l15 -430 678 0 0 1450 315 0 0 -1720 -1266 0zm2544 582l-477 0 0 -582 -314 0 0 1720 740 0c435,0 693,-201 693,-587 0,-366 -231,-551 -642,-551zm-66 893l-411 0 0 -649 411 0c248,0 388,95 388,312 0,221 -142,337 -388,337zm2244 -1475l0 710 -890 0 0 -710 -319 0 0 1720 319 0 0 -737 890 0 0 737 320 0 0 -1720 -320 0zm1595 582l-476 0 0 -582 -315 0 0 1720 740 0c435,0 693,-201 693,-587 0,-366 -231,-551 -642,-551zm890 1138l315 0 0 -1720 -315 0 0 1720zm-956 -245l-410 0 0 -649 410 0c248,0 389,95 389,312 0,221 -143,337 -389,337zm2522 -1591c295,0 448,-128 450,-356l-221 0c-5,123 -89,189 -229,189 -142,0 -221,-66 -223,-189l-224 0c2,228 150,356 447,356zm-764 1836l297 0 924 -1219 0 1219 315 0 0 -1720 -297 0 -925 1221 0 -1221 -314 0 0 1720z"/>
  </g>
 </g>
</svg>
