<svg width="105" height="105" viewBox="0 0 105 105" fill="none" xmlns="http://www.w3.org/2000/svg">
<path d="M52.41 104.82C81.3552 104.82 104.82 81.3552 104.82 52.41C104.82 23.4648 81.3552 0 52.41 0C23.4648 0 0 23.4648 0 52.41C0 81.3552 23.4648 104.82 52.41 104.82Z" fill="url(#paint0_linear)"/>
<path d="M52.41 101.668C79.6144 101.668 101.668 79.6144 101.668 52.41C101.668 25.2056 79.6144 3.1521 52.41 3.1521C25.2056 3.1521 3.1521 25.2056 3.1521 52.41C3.1521 79.6144 25.2056 101.668 52.41 101.668Z" fill="url(#paint1_linear)"/>
<path d="M67.3961 50.295H77.032C77.4467 51.3319 78.5389 51.9402 79.6449 51.7328C80.7509 51.5254 81.5389 50.5577 81.5389 49.4379C81.5389 48.318 80.737 47.3503 79.6449 47.1429C78.5389 46.9356 77.4467 47.53 77.032 48.5807H67.3961V44.3641H73.6034C74.0735 44.3641 74.4606 43.977 74.4606 43.507V37.8388H77.0182C77.4329 38.8757 78.5251 39.484 79.6311 39.2766C80.737 39.0692 81.5251 38.1015 81.5251 36.9817C81.5251 35.8619 80.7232 34.8941 79.6311 34.6867C78.5251 34.4794 77.4329 35.0738 77.0182 36.1245H73.5896C73.1195 36.1245 72.7325 36.5116 72.7325 36.9817V42.6499H67.3822V38.295C67.3822 37.825 66.9951 37.4379 66.5251 37.4379H62.1703V32.0877H67.8385C68.3085 32.0877 68.6956 31.7006 68.6956 31.2305V27.802C69.7325 27.3872 70.3408 26.2951 70.1334 25.1891C69.926 24.0831 68.9583 23.2951 67.8385 23.2951C66.7186 23.2951 65.7509 24.0969 65.5435 25.1891C65.3362 26.2951 65.9306 27.3872 66.9813 27.802V30.3596H61.3131C60.8431 30.3596 60.456 30.7467 60.456 31.2167V37.4241H56.2394V27.7882C57.2763 27.3734 57.8846 26.2812 57.6772 25.1753C57.4698 24.0693 56.5021 23.2812 55.3823 23.2812C54.2625 23.2812 53.2947 24.0831 53.0873 25.1753C52.88 26.2812 53.4744 27.3734 54.5251 27.7882V37.4241H50.3086V27.7882C51.3454 27.3734 51.9537 26.2812 51.7463 25.1753C51.539 24.0693 50.5712 23.2812 49.4514 23.2812C48.3316 23.2812 47.3639 24.0831 47.1565 25.1753C46.9491 26.2812 47.5436 27.3734 48.5943 27.7882V37.4241H44.3777V31.2167C44.3777 30.7467 43.9906 30.3596 43.5206 30.3596H37.8524V27.802C38.8892 27.3872 39.4975 26.2951 39.2901 25.1891C39.0828 24.0831 38.115 23.2951 36.9952 23.2951C35.8754 23.2951 34.9077 24.0969 34.7003 25.1891C34.4929 26.2951 35.0874 27.3872 36.1381 27.802V31.2305C36.1381 31.7006 36.5252 32.0877 36.9952 32.0877H42.6634V37.4379H38.3086C37.8385 37.4379 37.4514 37.825 37.4514 38.295V42.6499H32.1012V36.9817C32.1012 36.5116 31.7141 36.1245 31.2441 36.1245H27.8155C27.4008 35.0877 26.3086 34.4794 25.2026 34.6867C24.0966 34.8941 23.3086 35.8619 23.3086 36.9817C23.3086 38.1015 24.1105 39.0692 25.2026 39.2766C26.3086 39.484 27.4008 38.8895 27.8155 37.8388H30.3731V43.507C30.3731 43.977 30.7602 44.3641 31.2303 44.3641H37.4376V48.5807H27.8017C27.387 47.5439 26.2948 46.9356 25.1888 47.1429C24.0828 47.3503 23.2948 48.318 23.2948 49.4379C23.2948 50.5577 24.0966 51.5254 25.1888 51.7328C26.2948 51.9402 27.387 51.3457 27.8017 50.295H37.4376V54.5116H27.8017C27.387 53.4747 26.2948 52.8664 25.1888 53.0738C24.0828 53.2812 23.2948 54.2489 23.2948 55.3687C23.2948 56.4885 24.0966 57.4563 25.1888 57.6636C26.2948 57.871 27.387 57.2765 27.8017 56.2259H37.4376V60.4424H31.2303C30.7602 60.4424 30.3731 60.8295 30.3731 61.2996V66.9678H27.8155C27.4008 65.9309 26.3086 65.3226 25.2026 65.53C24.0966 65.7374 23.3086 66.7051 23.3086 67.8249C23.3086 68.9447 24.1105 69.9125 25.2026 70.1198C26.3086 70.3272 27.4008 69.7327 27.8155 68.6821H31.2441C31.7141 68.6821 32.1012 68.295 32.1012 67.8249V62.1567H37.4514V66.5116C37.4514 66.9816 37.8385 67.3687 38.3086 67.3687H42.6634V72.7189H36.9952C36.5252 72.7189 36.1381 73.106 36.1381 73.576V77.0046C35.1012 77.4194 34.4929 78.5115 34.7003 79.6175C34.9077 80.7235 35.8754 81.5115 36.9952 81.5115C38.115 81.5115 39.0828 80.7097 39.2901 79.6175C39.4975 78.5115 38.9031 77.4194 37.8524 77.0046V74.447H43.5206C43.9906 74.447 44.3777 74.0599 44.3777 73.5899V67.3825H48.5943V77.0184C47.5574 77.4332 46.9491 78.5253 47.1565 79.6313C47.3639 80.7373 48.3316 81.5253 49.4514 81.5253C50.5712 81.5253 51.539 80.7235 51.7463 79.6313C51.9537 78.5253 51.3592 77.4332 50.3086 77.0184V67.3825H54.5251V77.0184C53.4883 77.4332 52.88 78.5253 53.0873 79.6313C53.2947 80.7373 54.2625 81.5253 55.3823 81.5253C56.5021 81.5253 57.4698 80.7235 57.6772 79.6313C57.8846 78.5253 57.2901 77.4332 56.2394 77.0184V67.3825H60.456V73.5899C60.456 74.0599 60.8431 74.447 61.3131 74.447H66.9813V77.0046C65.9445 77.4194 65.3362 78.5115 65.5435 79.6175C65.7509 80.7235 66.7186 81.5115 67.8385 81.5115C68.9583 81.5115 69.926 80.7097 70.1334 79.6175C70.3408 78.5115 69.7463 77.4194 68.6956 77.0046V73.576C68.6956 73.106 68.3085 72.7189 67.8385 72.7189H62.1703V67.3687H66.5251C66.9951 67.3687 67.3822 66.9816 67.3822 66.5116V62.1567H72.7325V67.8249C72.7325 68.295 73.1195 68.6821 73.5896 68.6821H77.0182C77.4329 69.7189 78.5251 70.3272 79.6311 70.1198C80.737 69.9125 81.5251 68.9447 81.5251 67.8249C81.5251 66.7051 80.7232 65.7374 79.6311 65.53C78.5251 65.3226 77.4329 65.9171 77.0182 66.9678H74.4606V61.2996C74.4606 60.8295 74.0735 60.4424 73.6034 60.4424H67.3961V56.2259H77.032C77.4467 57.2627 78.5389 57.871 79.6449 57.6636C80.7509 57.4563 81.5389 56.4885 81.5389 55.3687C81.5389 54.2489 80.737 53.2812 79.6449 53.0738C78.5389 52.8664 77.4467 53.4609 77.032 54.5116H67.3961V50.295ZM79.2025 48.8296C79.7555 48.8296 80.0182 49.4932 79.6311 49.8803C79.244 50.2674 78.5804 49.9909 78.5804 49.4517C78.5804 49.1061 78.8569 48.8296 79.2025 48.8296ZM79.2025 36.3596C79.7555 36.3596 80.0182 37.0232 79.6311 37.4102C79.244 37.7973 78.5804 37.5208 78.5804 36.9817C78.5804 36.6361 78.8569 36.3596 79.2025 36.3596ZM67.8523 25.0094C68.4053 25.0094 68.668 25.6729 68.2809 26.06C67.8938 26.4471 67.2302 26.1706 67.2302 25.6315C67.2302 25.2859 67.5067 25.0094 67.8523 25.0094ZM55.3823 25.0094C55.9353 25.0094 56.1979 25.6729 55.8108 26.06C55.4237 26.4471 54.7602 26.1706 54.7602 25.6315C54.7602 25.2859 55.0367 25.0094 55.3823 25.0094ZM49.4376 25.0094C49.9906 25.0094 50.2533 25.6729 49.8662 26.06C49.4791 26.4471 48.8155 26.1706 48.8155 25.6315C48.8293 25.2859 49.1058 25.0094 49.4376 25.0094ZM36.9676 25.0094C37.5206 25.0094 37.7832 25.6729 37.3961 26.06C37.009 26.4471 36.3455 26.1706 36.3455 25.6315C36.3593 25.2859 36.6358 25.0094 36.9676 25.0094ZM25.6174 37.59C25.0644 37.59 24.8017 36.9264 25.1888 36.5393C25.5759 36.1522 26.2395 36.4287 26.2395 36.9679C26.2395 37.3135 25.963 37.59 25.6174 37.59ZM25.6174 50.06C25.0644 50.06 24.8017 49.3964 25.1888 49.0093C25.5759 48.6222 26.2395 48.8987 26.2395 49.4379C26.2395 49.7835 25.963 50.06 25.6174 50.06ZM25.6174 55.9908C25.0644 55.9908 24.8017 55.3273 25.1888 54.9402C25.5759 54.5531 26.2395 54.8296 26.2395 55.3687C26.2395 55.7143 25.963 55.9908 25.6174 55.9908ZM25.6174 68.4609C25.0644 68.4609 24.8017 67.7973 25.1888 67.4102C25.5759 67.0231 26.2395 67.2996 26.2395 67.8387C26.2395 68.1844 25.963 68.4609 25.6174 68.4609ZM36.9676 79.8111C36.4146 79.8111 36.1519 79.1475 36.539 78.7604C36.9261 78.3733 37.5897 78.6498 37.5897 79.1889C37.5897 79.5346 37.3132 79.8111 36.9676 79.8111ZM49.4376 79.8111C48.8846 79.8111 48.6219 79.1475 49.009 78.7604C49.3961 78.3733 50.0597 78.6498 50.0597 79.1889C50.0597 79.5346 49.7832 79.8111 49.4376 79.8111ZM55.3823 79.8111C54.8293 79.8111 54.5666 79.1475 54.9537 78.7604C55.3408 78.3733 56.0044 78.6498 56.0044 79.1889C55.9906 79.5346 55.7141 79.8111 55.3823 79.8111ZM67.8523 79.8111C67.2993 79.8111 67.0366 79.1475 67.4237 78.7604C67.8108 78.3733 68.4744 78.6498 68.4744 79.1889C68.4606 79.5346 68.1841 79.8111 67.8523 79.8111ZM79.2025 67.2304C79.7555 67.2304 80.0182 67.894 79.6311 68.2811C79.244 68.6682 78.5804 68.3917 78.5804 67.8526C78.5804 67.5069 78.8569 67.2304 79.2025 67.2304ZM79.2025 54.7604C79.7555 54.7604 80.0182 55.424 79.6311 55.8111C79.244 56.1982 78.5804 55.9217 78.5804 55.3825C78.5804 55.0369 78.8569 54.7604 79.2025 54.7604ZM65.6818 65.6821H39.1381V39.1384H65.6818V65.6821Z" fill="white"/>
<path d="M62.1149 41.8479H42.7048C42.2348 41.8479 41.8477 42.235 41.8477 42.705V62.1151C41.8477 62.5852 42.2348 62.9723 42.7048 62.9723H62.1149C62.5849 62.9723 62.972 62.5852 62.972 62.1151V42.705C62.972 42.235 62.5849 41.8479 62.1149 41.8479ZM61.2577 61.258H43.5619V43.5622H61.2577V61.258Z" fill="white"/>
<path d="M59.1702 53.6821C59.6403 53.6821 60.0274 53.295 60.0274 52.8249V47.9724C60.0274 46.825 58.3131 46.825 58.3131 47.9724V52.8249C58.3131 53.295 58.6864 53.6821 59.1702 53.6821Z" fill="white"/>
<defs>
<linearGradient id="paint0_linear" x1="-0.00677418" y1="52.41" x2="104.827" y2="52.41" gradientUnits="userSpaceOnUse">
<stop stop-color="#BCBEC0"/>
<stop offset="0.2456" stop-color="#8295A9"/>
<stop offset="0.5639" stop-color="#3C638D"/>
<stop offset="0.794" stop-color="#11457B"/>
<stop offset="0.9106" stop-color="#003974"/>
</linearGradient>
<linearGradient id="paint1_linear" x1="101.661" y1="52.41" x2="3.15902" y2="52.41" gradientUnits="userSpaceOnUse">
<stop stop-color="#BCBEC0"/>
<stop offset="0.2456" stop-color="#8295A9"/>
<stop offset="0.5639" stop-color="#3C638D"/>
<stop offset="0.794" stop-color="#11457B"/>
<stop offset="0.9106" stop-color="#003974"/>
</linearGradient>
</defs>
</svg>
