<svg width="111" height="111" viewBox="0 0 111 111" fill="none" xmlns="http://www.w3.org/2000/svg">
<path d="M55.5 111C86.1518 111 111 86.1518 111 55.5C111 24.8482 86.1518 0 55.5 0C24.8482 0 0 24.8482 0 55.5C0 86.1518 24.8482 111 55.5 111Z" fill="url(#paint0_linear)"/>
<path d="M55.5 107.662C84.3083 107.662 107.662 84.3086 107.662 55.5002C107.662 26.6919 84.3083 3.33813 55.5 3.33813C26.6917 3.33813 3.33789 26.6919 3.33789 55.5002C3.33789 84.3086 26.6917 107.662 55.5 107.662Z" fill="url(#paint1_linear)"/>
<path d="M39.074 43.4659C38.3713 43.4659 37.6832 43.4512 36.9805 43.4659C35.0334 43.4952 33.0862 43.5391 31.1538 43.5537C30.8463 43.5537 30.6853 43.6562 30.5535 43.9344C29.8947 45.2959 28.4015 45.984 26.9082 45.6326C25.4881 45.2959 24.434 43.9929 24.4048 42.4997C24.3755 41.0503 25.4442 39.6741 26.8496 39.3228C28.3283 38.9568 29.8655 39.6156 30.5243 40.9625C30.6853 41.2992 30.861 41.3724 31.1977 41.3577C34.2867 41.3138 37.3904 41.2699 40.4794 41.226C40.5526 41.226 40.6258 41.2406 40.6844 41.226C40.8454 41.1821 41.065 41.2845 41.1382 41.1089C41.226 40.8746 40.9772 40.8014 40.8454 40.6989C39.8792 39.8937 38.9129 39.1032 37.9467 38.3126C37.6246 38.0491 37.3611 37.7563 37.3757 37.3025C37.3904 36.9658 37.1415 37.0829 36.9951 37.0829C35.1212 37.0829 33.2326 37.0829 31.3587 37.0829C30.1875 37.0829 29.8508 36.7462 29.8508 35.575C29.8508 34.3452 29.8508 33.1008 29.8508 31.8711C29.8508 31.5929 29.8069 31.4319 29.5141 31.3001C28.1233 30.6413 27.4059 29.1041 27.7573 27.6255C28.1087 26.1761 29.4409 25.1367 30.9488 25.1367C32.4421 25.1513 33.745 26.2054 34.0964 27.6694C34.4331 29.1188 33.7011 30.6413 32.325 31.3001C32.0761 31.4172 31.9882 31.549 31.9882 31.8271C32.0029 32.7055 32.0029 33.5839 31.9882 34.4623C31.9882 34.7698 32.0322 34.9015 32.3835 34.8869C34.3453 34.8722 36.307 34.8722 38.2688 34.8869C38.5323 34.8869 38.6641 34.7844 38.7665 34.5794C39.0301 34.0963 39.3082 33.6132 39.601 33.1301C39.9817 32.5152 40.4208 32.3542 41.1089 32.6031C42.3387 33.0569 43.5684 33.5107 44.8128 33.9792C45.3106 34.1695 45.8376 33.8767 45.9255 33.3497C46.1451 32.0467 46.3647 30.7438 46.5989 29.4555C46.7307 28.7235 47.082 28.416 47.8433 28.3868C48.2093 28.3721 48.5899 28.3575 48.9559 28.3868C49.278 28.416 49.3512 28.2989 49.3512 27.9915C49.3366 26.7617 49.3366 25.5173 49.3512 24.2876C49.3512 23.3945 49.7611 22.9846 50.6395 22.9846C54.1092 22.9846 57.5789 22.9846 61.0485 22.9846C61.9269 22.9846 62.3368 23.4092 62.3515 24.3022C62.3515 24.8293 62.3661 25.3563 62.3515 25.8687C62.3368 26.1468 62.3954 26.2493 62.7028 26.2493C64.9135 26.2347 67.1387 26.2347 69.3494 26.2493C69.6275 26.2493 69.7739 26.1176 69.9203 25.9126C70.5498 25.0489 70.9012 24.9464 71.8382 25.4295C73.756 26.4104 75.7617 27.2595 77.4892 28.5771C82.1447 32.1492 84.6481 36.8633 85.0726 42.7046C85.2337 44.9738 84.7359 47.0673 83.3305 48.8973C83.1548 49.1169 83.1695 49.2926 83.2719 49.5415C84.3114 51.8692 85.3362 54.197 86.3756 56.5247C87.1515 58.2815 86.1853 59.7894 84.2528 59.8187C83.8283 59.8187 83.2719 59.6869 83.0231 59.8919C82.7449 60.1408 82.8767 60.7264 82.9499 61.1509C83.2134 62.8345 82.6717 64.1521 81.2809 65.133C80.8563 65.4404 80.7246 65.8503 80.7392 66.392C80.7832 68.1195 80.7539 69.847 80.7539 71.5746C80.7539 72.3505 80.3732 72.8043 79.5973 72.8043C77.4892 72.8336 75.3664 72.8629 73.2582 72.7897C72.1895 72.7604 71.2965 72.1016 70.3742 71.6331C68.9541 70.9011 67.5633 70.0813 66.2018 69.2468C65.9236 69.0711 65.8211 69.1297 65.6747 69.3786C65.0159 70.5205 64.3279 71.6331 63.6398 72.7604C63.508 72.9654 63.4495 73.185 63.4495 73.4338C63.4641 75.1028 63.4641 76.7864 63.4495 78.4553C63.4495 78.7481 63.5519 78.9531 63.7569 79.1581C66.0407 81.4272 68.3099 83.6964 70.5791 85.9803C71.2818 86.683 71.1354 87.6053 70.2863 87.8981C70.1253 87.9566 69.9496 87.9566 69.7886 87.9566C58.3548 87.9566 46.921 87.9566 35.4726 87.9566C34.9309 87.9566 34.4917 87.7956 34.2867 87.2686C34.0818 86.7562 34.2867 86.3316 34.6674 85.951C37.6539 82.9791 40.6258 79.9925 43.6124 77.0206C43.8612 76.7717 43.9637 76.5375 43.9637 76.1861C43.9491 71.1939 43.9637 66.2017 43.9637 61.2095C43.9637 60.1408 44.2858 59.8041 45.3399 59.8041C46.189 59.8041 47.0381 59.7894 47.8726 59.8041C48.1654 59.8041 48.2825 59.7601 48.2825 59.4234C48.2679 57.8569 48.2679 56.2758 48.2825 54.7094C48.2825 54.4166 48.1947 54.3434 47.9165 54.3434C47.0674 54.3434 46.7746 54.0945 46.6282 53.2454C46.3939 51.9717 46.189 50.6834 45.9694 49.3951C45.8815 48.9119 45.3399 48.5899 44.9007 48.7655C43.9491 49.1169 43.0121 49.4829 42.0605 49.8343C41.8116 49.9221 41.7531 50.0392 41.7531 50.3174C41.7824 52.0302 41.7824 53.7285 41.7824 55.4414C41.7824 56.0123 41.4456 56.3929 40.904 56.5101C40.7429 56.5393 40.5672 56.554 40.4062 56.554C38.3713 56.554 36.3509 56.5686 34.316 56.5393C34.0378 56.5393 33.9793 56.6565 33.8914 56.8321C33.2473 58.1351 31.8711 58.8964 30.5243 58.6768C29.0603 58.4425 27.9915 57.3738 27.7719 55.9538C27.5231 54.3726 28.4307 52.8794 29.9387 52.3816C31.4759 51.8838 33.1448 52.5426 33.8475 53.9774C33.9939 54.2848 34.1257 54.3726 34.477 54.3726C36.0728 54.3434 37.6539 54.358 39.2497 54.358C39.5717 54.358 39.6596 54.3141 39.6449 53.9481C39.5864 52.6305 39.5864 51.3129 39.601 49.9953C39.601 49.6439 39.5132 49.3365 39.3375 49.0437C38.7665 48.0775 38.2102 47.1259 37.6539 46.1596C37.2733 45.5008 37.3611 45.047 37.9321 44.5492C38.342 44.1979 38.7519 43.8465 39.1618 43.4952C39.0886 43.5244 39.074 43.5098 39.074 43.4659ZM84.3699 57.652C84.4285 57.4324 84.3114 57.3006 84.2382 57.1542C83.1402 54.6801 82.0422 52.1913 80.9149 49.7171C80.6221 49.073 80.6953 48.5606 81.1784 48.0628C81.8811 47.3455 82.3496 46.4964 82.6278 45.5448C82.9938 44.3004 82.9059 43.0413 82.7449 41.7823C82.2325 37.6246 80.4025 34.1549 77.3135 31.3294C75.6592 29.8215 73.6828 28.8406 71.6918 27.8451C71.399 27.6987 71.2525 27.7133 71.0476 27.9915C69.6568 29.9679 68.2514 31.9296 66.8313 33.8914C66.6849 34.0963 66.6263 34.3013 66.6263 34.5502C66.6263 38.4005 66.6263 42.2654 66.6263 46.1157C66.6263 46.3792 66.6995 46.5988 66.8606 46.8038C67.739 47.9604 68.6027 49.1315 69.4811 50.2881C69.7593 50.6395 69.8764 51.0201 69.8764 51.4593C69.8618 52.7183 69.8764 53.9627 69.8764 55.2218C69.8764 56.0562 69.6861 56.3198 68.9102 56.6272C67.534 57.1835 66.1579 57.7252 64.7817 58.2669C64.5182 58.3693 64.4303 58.5011 64.445 58.7793C64.4596 60.9753 64.4596 63.1712 64.445 65.3819C64.445 65.6161 64.5035 65.7771 64.7231 65.9089C67.3876 67.5632 70.0667 69.2029 72.9069 70.5351C73.1265 70.6376 73.3461 70.6962 73.5949 70.6962C75.1175 70.6815 76.64 70.6669 78.1626 70.6669C78.47 70.6669 78.5579 70.579 78.5579 70.2716C78.5432 68.9687 78.5432 67.6657 78.5579 66.3627C78.5579 65.5575 78.3676 64.6792 79.3192 64.0936C77.4745 63.7715 75.9666 63.0395 74.6929 61.839C74.3709 61.5316 74.1513 61.1802 74.2684 60.7117C74.488 59.8187 75.4542 59.5698 76.1716 60.2579C77.3428 61.3559 78.7189 61.9268 80.3293 62.0147C80.6367 62.0293 80.7392 61.9708 80.7246 61.634C80.6953 60.7703 80.71 59.9065 80.71 59.0428C80.71 58.0619 81.1052 57.6666 82.1007 57.652C82.8474 57.652 83.6087 57.652 84.3699 57.652ZM59.7895 37.039C59.7456 36.9511 59.687 36.8633 59.6431 36.7754C59.3503 36.2777 59.0575 35.7946 58.794 35.2822C58.6476 34.9894 58.5012 34.9601 58.2084 35.0772C57.1104 35.5164 55.9977 35.897 54.8997 36.3216C54.4313 36.4973 54.0213 36.4534 53.6114 36.1606C53.304 35.941 52.9966 35.7214 52.6598 35.5896C52.0303 35.3407 51.7668 34.8722 51.679 34.2427C51.5326 33.1594 51.3276 32.076 51.1666 30.9927C51.1226 30.6999 51.0055 30.5974 50.7127 30.612C50.1271 30.6413 49.5269 30.6267 48.9413 30.612C48.6631 30.5974 48.5753 30.6999 48.5314 30.978C48.3557 32.1492 48.1361 33.3058 47.9604 34.477C47.8872 34.9747 47.6383 35.2968 47.1845 35.5164C46.8185 35.6921 46.4671 35.8824 46.1304 36.1313C45.6766 36.468 45.2227 36.5119 44.7104 36.307C43.627 35.8824 42.529 35.5018 41.4456 35.0626C41.1675 34.9454 41.0357 35.004 40.8893 35.2675C40.6112 35.7946 40.3184 36.307 40.0109 36.8047C39.8499 37.0536 39.9085 37.1707 40.1134 37.3318C41.0357 38.0784 41.9434 38.8397 42.8657 39.5717C43.261 39.8791 43.422 40.2597 43.3928 40.7575C43.3635 41.1821 43.3488 41.6066 43.3928 42.0165C43.4513 42.5875 43.2464 42.9828 42.8072 43.3341C41.9141 44.0368 41.065 44.7835 40.172 45.4862C39.8938 45.7058 39.8792 45.8668 40.0549 46.145C40.3623 46.6281 40.6551 47.1259 40.9186 47.6383C41.0504 47.8871 41.1675 47.9164 41.431 47.8139C42.5436 47.3748 43.6709 46.9795 44.7982 46.5549C45.2667 46.3646 45.6912 46.4085 46.0865 46.716C46.4379 46.9795 46.8185 47.1991 47.2138 47.3748C47.653 47.5797 47.8872 47.9018 47.9604 48.3849C48.1507 49.5561 48.3703 50.7127 48.5314 51.8838C48.5753 52.2206 48.7071 52.2938 49.0145 52.2791C49.5562 52.2645 50.0978 52.2498 50.6395 52.2791C51.0348 52.3084 51.1519 52.162 51.1958 51.796C51.3569 50.6834 51.5618 49.5561 51.7375 48.4435C51.8254 47.9164 52.0742 47.5504 52.572 47.3308C52.9234 47.1698 53.2747 46.9795 53.5821 46.7452C54.0213 46.4232 54.4459 46.3646 54.9583 46.5696C56.0124 46.9795 57.0811 47.3455 58.1205 47.77C58.5451 47.9457 58.7061 47.8432 58.8818 47.4772C59.1014 47.038 59.3503 46.6135 59.6138 46.2036C59.8188 45.8961 59.8188 45.7204 59.4967 45.4716C58.6036 44.7835 57.7399 44.0368 56.8615 43.3195C56.4077 42.9535 56.2027 42.5289 56.3198 41.9433C56.3784 41.6066 56.3784 41.2699 56.3198 40.9332C56.2027 40.3329 56.4223 39.8937 56.8908 39.5277C57.7985 38.8104 58.6768 38.0784 59.5552 37.3464C59.6431 37.2439 59.7895 37.2 59.7895 37.039ZM50.4053 80.3C51.1666 79.4362 51.8107 78.6896 52.4695 77.9429C52.6013 77.7965 52.572 77.6355 52.572 77.4598C52.572 72.453 52.572 67.4461 52.5866 62.4392C52.5866 62.0293 52.4549 61.9854 52.1035 61.9854C50.2735 62 48.4435 62.0147 46.6282 61.9854C46.2036 61.9854 46.0719 62.0586 46.0719 62.5271C46.0865 67.2997 46.0865 72.0723 46.0865 76.8303C46.0865 77.3573 45.9255 77.7526 45.5448 78.1333C43.0853 80.5781 40.6404 83.023 38.1809 85.4825C38.0931 85.5703 37.9613 85.6289 37.9467 85.8046C37.9906 85.8192 38.0345 85.8339 38.0785 85.8339C40.4794 85.8339 42.8804 85.8339 45.2813 85.8485C45.5448 85.8485 45.6766 85.7167 45.823 85.5411C46.5257 84.7212 47.2431 83.916 47.9604 83.1108C48.1507 82.8912 48.2239 82.6716 48.2239 82.3788C48.2093 80.0511 48.2239 77.7087 48.2093 75.381C48.2093 75.0882 48.2532 74.9564 48.5899 74.9857C49.0291 75.0149 49.4683 75.0149 49.9075 74.9857C50.3028 74.9564 50.4199 75.0735 50.4053 75.4688C50.3906 77.0353 50.4053 78.5871 50.4053 80.3ZM65.6894 55.5878C65.6747 55.5585 65.6747 55.5292 65.6601 55.5146C65.0159 55.5146 64.3718 55.4999 63.7276 55.5146C63.4495 55.5292 63.3763 55.4267 63.3909 55.1632C63.4055 54.6947 63.4202 54.2116 63.3909 53.7431C63.3763 53.4357 63.4641 53.3332 63.7862 53.3478C64.811 53.3625 65.8504 53.3625 66.8752 53.3625C67.7097 53.3625 67.7243 53.3625 67.695 52.5134C67.6804 52.1034 67.8414 51.6789 67.534 51.2983C66.9923 50.6248 66.4946 49.9221 65.9822 49.234C65.8651 49.0583 65.7333 49.0144 65.5283 49.0144C64.079 49.0291 62.615 49.0583 61.1656 49.0144C60.624 48.9998 60.3165 49.1462 60.0676 49.6439C59.7163 50.3613 59.2039 50.5077 58.4572 50.2295C57.2714 49.7903 56.0856 49.3365 54.9144 48.8973C54.2995 48.6631 53.8018 48.9559 53.6993 49.6147C53.4943 50.903 53.2894 52.1767 53.0698 53.465C52.9526 54.1091 52.572 54.4312 51.9132 54.4312C51.5472 54.4312 51.1666 54.4458 50.8006 54.4312C50.4931 54.4166 50.3906 54.5044 50.3906 54.8265C50.4053 56.3783 50.4053 57.9448 50.3906 59.4966C50.3906 59.8626 50.537 59.9065 50.8445 59.8919C52.0303 59.8773 53.2162 59.8919 54.402 59.8919C56.8908 59.8919 59.3796 59.8773 61.8537 59.9065C62.2344 59.9065 62.3515 59.8041 62.3222 59.4234C62.2929 58.8964 62.3222 58.3693 62.3076 57.8569C62.2929 57.2567 62.5564 56.8761 63.1127 56.6565C63.9765 56.2758 64.8256 55.9245 65.6894 55.5878ZM68.105 28.416C65.7479 28.416 63.5227 28.416 61.2974 28.416C60.58 28.416 60.1701 28.0061 60.1555 27.2888C60.1408 26.7178 60.1408 26.1322 60.1555 25.5612C60.1701 25.2538 60.0823 25.1513 59.7602 25.1513C57.125 25.166 54.4898 25.166 51.84 25.1513C51.5765 25.1513 51.4447 25.1952 51.4594 25.5027C51.474 26.3664 51.474 27.2302 51.4594 28.094C51.4594 28.3868 51.5618 28.4014 51.8107 28.416C52.6598 28.4453 52.9673 28.7528 53.099 29.6019C53.304 30.8463 53.509 32.1053 53.7285 33.3497C53.8164 33.8914 54.3581 34.1988 54.8851 33.9938C56.1002 33.54 57.3153 33.0862 58.5304 32.647C59.2332 32.3835 59.6724 32.5445 60.0676 33.1887C60.1555 33.3351 60.2433 33.4815 60.3165 33.6279C60.4044 33.7889 60.5068 33.8767 60.7118 33.8767C61.883 33.8621 63.0395 33.8767 64.2107 33.8767C64.3279 33.8767 64.445 33.8914 64.4743 33.7303C64.5621 33.2326 64.9135 32.8959 65.1916 32.5152C66.1432 31.1537 67.0948 29.8361 68.105 28.416ZM48.4435 85.8485C51.2398 85.8485 53.9189 85.8485 56.5833 85.8485C56.8761 85.8485 56.9201 85.7314 56.9201 85.4825C56.9201 82.452 56.9201 79.4362 56.9201 76.4057C56.9201 76.1715 56.8615 76.0837 56.6126 76.0837C56.0856 76.0983 55.5585 76.0983 55.0461 76.0837C54.7973 76.069 54.7241 76.1569 54.7387 76.3911C54.7533 76.9474 54.7241 77.5037 54.7533 78.0601C54.768 78.4553 54.6362 78.7774 54.3727 79.0702C53.4357 80.1389 52.4988 81.2076 51.5618 82.2764C50.537 83.4476 49.5269 84.5895 48.4435 85.8485ZM67.2851 85.8485C67.0802 85.6435 66.9631 85.5118 66.8459 85.3947C65.1184 83.6671 63.4055 81.9396 61.678 80.2268C61.356 79.9047 61.2096 79.5533 61.2096 79.0995C61.2242 78.2211 61.2096 77.3427 61.2242 76.4643C61.2242 76.2008 61.1803 76.069 60.8728 76.0837C60.3897 76.1129 59.892 76.1129 59.4088 76.0837C59.1453 76.069 59.0721 76.1569 59.0721 76.4204C59.0868 79.4362 59.0868 82.4374 59.0721 85.4532C59.0721 85.7753 59.1746 85.8485 59.482 85.8339C61.0339 85.8192 62.6003 85.8339 64.1522 85.8339C65.1477 85.8485 66.1579 85.8485 67.2851 85.8485ZM54.7241 67.9146C54.7241 69.7738 54.7387 71.6331 54.7094 73.4924C54.7094 73.8291 54.7973 73.917 55.1193 73.9023C57.0079 73.8877 58.9111 73.9023 60.7996 73.8877C60.9314 73.8877 61.151 73.9902 61.1949 73.7852C61.2388 73.5949 61.2828 73.3753 61.1364 73.1996C61.0632 73.1118 60.99 73.0239 60.9021 72.9361C59.7748 71.7942 58.6476 70.6522 57.491 69.5396C57.0665 69.1297 56.8761 68.7051 56.8908 68.1195C56.9201 66.2163 56.8908 64.2985 56.9054 62.3953C56.9054 62.0879 56.8322 61.9854 56.5248 62C56.0709 62.0293 55.6171 62.0293 55.1633 62C54.8119 61.9708 54.7241 62.0879 54.7241 62.4392C54.7387 64.2546 54.7241 66.0846 54.7241 67.9146ZM62.1026 71.0768C62.5857 70.2716 63.0542 69.4957 63.5227 68.7198C63.9765 67.9585 63.9911 67.9292 63.2152 67.5047C62.5418 67.1387 62.2783 66.6409 62.3076 65.865C62.3515 64.7084 62.3076 63.5372 62.3222 62.366C62.3222 62.0879 62.2636 61.9854 61.9708 61.9854C61.1217 62 60.2872 62 59.4381 61.9854C59.16 61.9854 59.0721 62.044 59.0721 62.3368C59.0868 64.1521 59.0868 65.9528 59.0721 67.7682C59.0721 67.9439 59.1014 68.0903 59.2332 68.222C60.1848 69.159 61.1217 70.1106 62.1026 71.0768ZM61.722 36.0142C61.7952 36.1459 61.8244 36.2191 61.8684 36.2923C62.5418 37.4782 62.5125 37.6831 61.4731 38.5469C60.785 39.1178 60.0823 39.7034 59.2771 40.3622C61.0192 40.3622 62.615 40.3622 64.2254 40.3622C64.4889 40.3622 64.4743 40.2012 64.4743 40.0401C64.4743 38.8104 64.4596 37.566 64.4743 36.3362C64.4743 36.0581 64.3718 35.9995 64.1229 36.0142C63.347 36.0142 62.5711 36.0142 61.722 36.0142ZM59.2917 42.4997C60.1994 43.2463 61.0046 43.9051 61.7952 44.5639C62.3807 45.047 62.4539 45.5155 62.088 46.1743C61.9708 46.3792 61.7952 46.5696 61.7659 46.8477C62.5564 46.8477 63.3177 46.8331 64.079 46.8624C64.4157 46.877 64.4743 46.7599 64.4596 46.4671C64.445 45.4569 64.4596 44.4321 64.4596 43.422C64.4596 42.5143 64.4596 42.5143 63.5373 42.5143C62.1758 42.4997 60.7996 42.4997 59.2917 42.4997ZM29.8362 55.4853C29.8215 56.0855 30.3339 56.5979 30.9195 56.5979C31.4905 56.5979 31.9736 56.1002 31.9882 55.5292C32.0029 54.929 31.5051 54.4166 30.9049 54.4166C30.3339 54.4166 29.8508 54.8997 29.8362 55.4853ZM30.9195 27.362C30.3193 27.362 29.8508 27.8012 29.8362 28.4014C29.8215 29.0016 30.3047 29.514 30.9049 29.514C31.5051 29.514 31.9882 29.0163 31.9882 28.416C31.9736 27.8158 31.5198 27.362 30.9195 27.362ZM26.5861 42.4411C26.5568 43.0267 26.996 43.5244 27.5816 43.5684C28.1379 43.6123 28.6211 43.1731 28.665 42.5875C28.7089 41.9873 28.2404 41.4602 27.6402 41.4309C27.0985 41.4163 26.6154 41.8701 26.5861 42.4411Z" fill="white"/>
<path d="M76.9329 50.0978C76.5083 50.0978 76.0838 50.0978 75.6592 50.0978C74.7222 50.0978 74.2098 49.6878 74.2098 48.9851C74.2245 48.297 74.7222 47.9018 75.6299 47.9018C76.113 47.9018 76.6108 47.8871 77.0939 47.9018C77.3867 47.9164 77.4599 47.8139 77.4453 47.5358C77.4306 46.9795 77.4306 46.4231 77.4453 45.8668C77.4599 45.1641 77.8845 44.6956 78.4993 44.6663C79.0996 44.6371 79.5973 45.1055 79.612 45.7936C79.6413 46.8623 79.6413 47.9164 79.612 48.9851C79.5827 49.7025 79.1581 50.0831 78.4408 50.1124C77.943 50.127 77.4453 50.0978 76.9329 50.0978Z" fill="white"/>
<path d="M68.8223 35.9556C68.8223 35.37 68.837 34.7698 68.8223 34.1842C68.8077 33.9207 68.8955 33.8329 69.1591 33.8475C69.6715 33.8621 70.1692 33.8621 70.6816 33.8475C70.9305 33.8329 70.9891 33.9207 70.9891 34.1696C70.9744 35.3993 70.9744 36.6291 70.9891 37.8735C70.9891 38.1077 70.9305 38.1956 70.6816 38.1809C70.1546 38.1663 69.6275 38.1663 69.1151 38.1809C68.8955 38.1809 68.8223 38.1077 68.837 37.8881C68.8223 37.244 68.8223 36.5998 68.8223 35.9556Z" fill="white"/>
<path d="M70.9744 45.7499C70.9744 46.8479 70.9744 46.8479 69.8764 46.8479C68.8223 46.8479 68.8223 46.8479 68.8223 45.8084C68.8223 44.6665 68.8223 44.6665 69.9789 44.6665C70.9744 44.6665 70.9744 44.6665 70.9744 45.7499Z" fill="white"/>
<path d="M69.8471 42.4997C68.8077 42.4997 68.8077 42.4997 68.8077 41.4603C68.8077 40.3477 68.8077 40.3477 69.935 40.3477C70.9744 40.3477 70.9744 40.3477 70.9744 41.4017C70.9744 42.4997 70.9744 42.4997 69.8471 42.4997Z" fill="white"/>
<path d="M49.849 37.1121C52.2353 37.1268 54.1385 39.0446 54.1531 41.4456C54.1678 43.788 52.1767 45.7643 49.8197 45.7643C47.4041 45.7643 45.4863 43.788 45.5009 41.3431C45.5009 39.0153 47.4773 37.0975 49.849 37.1121ZM51.9864 41.4309C51.9718 40.2158 51.0055 39.2496 49.7904 39.2642C48.6339 39.2789 47.653 40.2597 47.6676 41.387C47.6823 42.6021 48.6631 43.6123 49.8343 43.5976C50.9909 43.583 52.001 42.5875 51.9864 41.4309Z" fill="white"/>
<path d="M49.3365 70.6523C50.4053 70.6523 50.4053 70.6523 50.4053 71.7211C50.4053 72.8337 50.4053 72.8337 49.278 72.8337C48.2385 72.8337 48.2385 72.8337 48.2385 71.7943C48.2385 71.7796 48.2385 71.765 48.2385 71.7503C48.2239 70.6523 48.2239 70.6523 49.3365 70.6523Z" fill="white"/>
<path d="M49.2926 68.5002C48.2239 68.5002 48.2239 68.5002 48.2239 67.4315C48.2239 66.3335 48.2239 66.3335 49.3219 66.3335C50.3906 66.3335 50.3906 66.3335 50.3906 67.4022C50.3906 68.5002 50.3906 68.5002 49.2926 68.5002Z" fill="white"/>
<path d="M54.7241 54.3871C54.7241 53.3477 54.7241 53.3477 55.7635 53.3477C56.8908 53.3477 56.8908 53.3477 56.8908 54.4749C56.8908 55.5144 56.8908 55.5144 55.8513 55.5144C54.7241 55.4997 54.7241 55.4997 54.7241 54.3871Z" fill="white"/>
<path d="M60.1408 55.4997C59.0721 55.4997 59.0721 55.4997 59.0721 54.4457C59.0721 53.3477 59.0721 53.3477 60.1555 53.3477C61.2242 53.3477 61.2242 53.3477 61.2242 54.4164C61.2242 55.4997 61.2242 55.4997 60.1408 55.4997Z" fill="white"/>
<defs>
<linearGradient id="paint0_linear" x1="-0.00717357" y1="55.5" x2="111.007" y2="55.5" gradientUnits="userSpaceOnUse">
<stop stop-color="#BCBEC0"/>
<stop offset="0.2456" stop-color="#8295A9"/>
<stop offset="0.5639" stop-color="#3C638D"/>
<stop offset="0.794" stop-color="#11457B"/>
<stop offset="0.9106" stop-color="#003974"/>
</linearGradient>
<linearGradient id="paint1_linear" x1="107.655" y1="55.5002" x2="3.34521" y2="55.5002" gradientUnits="userSpaceOnUse">
<stop stop-color="#BCBEC0"/>
<stop offset="0.2456" stop-color="#8295A9"/>
<stop offset="0.5639" stop-color="#3C638D"/>
<stop offset="0.794" stop-color="#11457B"/>
<stop offset="0.9106" stop-color="#003974"/>
</linearGradient>
</defs>
</svg>
