<svg width="110" height="110" viewBox="0 0 110 110" fill="none" xmlns="http://www.w3.org/2000/svg">
<path d="M55.0899 109.82C85.4159 109.82 110 85.236 110 54.91C110 24.584 85.4159 0 55.0899 0C24.764 0 0.179932 24.584 0.179932 54.91C0.179932 85.236 24.764 109.82 55.0899 109.82Z" fill="url(#paint0_linear)"/>
<path d="M55.0899 106.518C83.592 106.518 106.698 83.4122 106.698 54.9101C106.698 26.408 83.592 3.30249 55.0899 3.30249C26.5879 3.30249 3.48236 26.408 3.48236 54.9101C3.48236 83.4122 26.5879 106.518 55.0899 106.518Z" fill="url(#paint1_linear)"/>
<path d="M75.5707 75.4487C75.0928 74.9852 74.6438 74.5362 74.1803 74.1017C73.934 73.87 73.8181 73.6961 74.1223 73.3775C75.0203 72.407 75.2521 71.2048 75.2521 69.9302C75.2376 67.9459 75.2086 65.9615 75.1362 63.9772C75.1217 63.4268 75.2955 63.0647 75.6866 62.7026C77.1061 61.3555 78.4966 59.9795 79.9016 58.618C82.2625 56.3295 82.248 53.5195 79.8871 51.231C78.4386 49.826 77.0047 48.421 75.5563 47.0305C75.2521 46.7409 75.1217 46.4512 75.1362 46.0311C75.1942 44.0178 75.2231 42.0045 75.2376 39.9912C75.2666 36.7757 73.2677 34.7623 70.0522 34.7913C68.0968 34.8058 66.1415 34.8348 64.1861 34.8927C63.6502 34.9072 63.2736 34.7623 62.897 34.3713C61.3761 32.778 59.8842 31.1557 58.2475 29.6783C56.1907 27.8244 53.5546 27.9837 51.5992 29.9535C50.1363 31.4165 48.7024 32.8939 47.2829 34.4002C46.9353 34.7768 46.5732 34.9217 46.0662 34.8927C44.0819 34.8348 42.0975 34.8058 40.1132 34.7913C36.9556 34.7768 34.9423 36.7757 34.9568 39.9477C34.9712 41.961 35.0002 43.9744 35.0581 45.9877C35.0726 46.4367 34.9423 46.7409 34.6091 47.0595C33.1752 48.421 31.7557 49.8115 30.3363 51.2165C27.9174 53.5919 27.9174 56.286 30.3218 58.6614C31.7123 60.0374 33.1028 61.4135 34.5367 62.746C34.9423 63.1226 35.0726 63.4992 35.0581 64.0351C35.0002 65.9905 34.9712 67.9459 34.9568 69.9013C34.9278 73.1168 36.9411 75.1156 40.1566 75.0866C42.141 75.0722 44.1253 75.0432 46.1097 74.9852C46.5877 74.9708 46.9208 75.1156 47.2539 75.4632C48.6155 76.8972 50.0204 78.3166 51.3964 79.7361C53.6705 82.0681 56.4225 82.1115 58.7255 79.8085C60.145 78.3891 61.5499 76.9406 62.9404 75.4777C63.2736 75.1301 63.5922 74.9563 64.0702 74.9852C65.0551 75.0432 66.0546 75.0432 67.0395 75.0287C67.4885 75.0142 67.5754 75.1735 67.5754 75.5936C67.5609 77.5924 67.5754 77.6359 65.6055 77.5345C64.7654 77.491 64.1716 77.6938 63.6067 78.3456C62.6797 79.403 61.6079 80.33 60.6809 81.3873C57.813 84.6173 53.1346 85.0084 49.7307 81.6046C48.543 80.4169 47.3553 79.2147 46.2111 77.998C45.8779 77.6359 45.5303 77.549 45.0523 77.549C42.8507 77.5635 40.6346 77.8097 38.4475 77.491C35.4058 77.0565 33.0014 74.5362 32.5813 71.48C32.3061 69.4667 32.451 67.4679 32.5379 65.4546C32.5668 64.6435 32.3641 64.0641 31.7557 63.5137C30.6549 62.5143 29.612 61.4424 28.5547 60.3996C25.3102 57.213 25.1943 53.085 28.3085 49.7536C29.4382 48.5514 30.6549 47.4216 31.8571 46.2918C32.3351 45.8428 32.5524 45.3938 32.5089 44.7131C32.4365 43.1777 32.5089 41.6279 32.422 40.0781C32.2047 35.8052 35.3768 32.2421 40.1421 32.271C41.7933 32.2855 43.4446 32.3145 45.0958 32.3579C45.5448 32.3724 45.8634 32.2421 46.1676 31.9089C47.4857 30.5474 48.7893 29.1569 50.1798 27.8533C52.9173 25.3186 56.6398 25.2172 59.5801 27.5492C61.0575 28.7224 62.2742 30.1418 63.5488 31.5179C64.0992 32.1117 64.6351 32.3869 65.4752 32.3435C67.0685 32.2421 68.6762 32.271 70.2695 32.271C74.5858 32.2855 77.7144 35.4141 77.7144 39.7449C77.7144 41.4831 77.6855 43.2212 77.642 44.9593C77.6275 45.4083 77.7434 45.727 78.0765 46.0311C79.2208 47.1174 80.2926 48.2617 81.4514 49.3191C84.7828 52.3028 85.0724 56.9813 81.5962 60.3851C80.4375 61.5293 79.2932 62.6736 78.1055 63.7889C77.7144 64.151 77.5985 64.5131 77.613 65.02C77.6565 66.6423 77.7434 68.279 77.6855 69.9013C77.671 71.9725 77.222 73.9713 75.5707 75.4487Z" fill="white"/>
<path d="M30.1769 29.9391C30.7563 30.504 31.3067 31.0399 31.8716 31.5758C32.1758 31.8655 32.3206 32.0683 31.944 32.4594C30.8432 33.6326 30.568 35.0955 30.5825 36.6453C30.6115 39.0642 30.6259 41.4686 30.7128 43.8875C30.7418 44.5537 30.5101 45.0028 30.0466 45.4518C28.3229 47.0885 26.6283 48.7687 24.9191 50.4199C22.0512 53.2009 22.0657 56.6192 24.9336 59.4002C26.6862 61.1093 28.4243 62.8185 30.1914 64.5131C30.5535 64.8607 30.7128 65.2084 30.6984 65.7298C30.6259 68.1776 30.5825 70.6255 30.568 73.0589C30.539 76.9696 32.9724 79.4175 36.8687 79.374C39.2441 79.3595 41.6195 79.3161 44.0094 79.2437C44.6612 79.2292 45.1102 79.3885 45.5737 79.881C47.4277 81.8219 49.2383 83.7917 51.2226 85.5878C53.7284 87.8473 56.915 87.659 59.3049 85.2546C61.0719 83.4731 62.8245 81.677 64.5627 79.852C64.9972 79.403 65.4172 79.2292 66.0401 79.2437C68.4445 79.3161 70.8633 79.3595 73.2822 79.374C77.135 79.403 79.5684 76.9551 79.5394 73.1168C79.525 70.6689 79.4815 68.2211 79.4091 65.7733C79.3946 65.2228 79.5539 64.8463 79.945 64.4697C81.6976 62.804 83.4212 61.1238 85.1304 59.4291C88.0707 56.5323 88.0707 53.2588 85.1593 50.3764C83.4647 48.7107 81.77 47.0306 80.0464 45.4083C79.5539 44.9448 79.3946 44.4813 79.4091 43.844C79.4815 41.4686 79.5105 39.0932 79.5394 36.7033C79.5684 32.807 77.135 30.3736 73.2098 30.4026C70.7909 30.4171 68.3865 30.4605 65.9676 30.5329C65.3738 30.5474 64.9827 30.3736 64.5771 29.9536C62.9115 28.201 61.2168 26.4918 59.5366 24.7682C56.7701 21.9293 53.4242 21.8858 50.6288 24.6813C48.9051 26.4049 47.196 28.172 45.5158 29.9391C45.1102 30.3591 44.7336 30.5619 44.1398 30.5329C42.9376 30.475 41.7209 30.4605 40.5187 30.4895C39.9683 30.504 39.8669 30.3157 39.8669 29.7942C39.8814 27.3609 39.8669 27.3029 42.2568 27.4333C43.2852 27.4912 44.0094 27.2305 44.6902 26.4484C45.82 25.1737 47.1091 24.0295 48.2533 22.7549C51.7441 18.8296 57.4364 18.3516 61.5644 22.4942C63.0128 23.9426 64.4468 25.391 65.8518 26.8829C66.2573 27.3174 66.6774 27.4333 67.2567 27.4333C69.9363 27.4188 72.6159 27.1146 75.281 27.5057C78.9745 28.0416 81.9004 31.0978 82.4073 34.8058C82.755 37.2537 82.5522 39.687 82.4653 42.1349C82.4218 43.1198 82.6825 43.8295 83.4212 44.4958C84.7683 45.698 86.0284 47.0016 87.3175 48.2762C91.2572 52.158 91.4021 57.1551 87.6217 61.2107C86.2457 62.6736 84.7683 64.0496 83.3054 65.4111C82.726 65.9471 82.4653 66.512 82.5087 67.3231C82.5956 69.1915 82.5087 71.0745 82.6101 72.943C82.8708 78.1284 79.018 82.4737 73.2243 82.4302C71.211 82.4157 69.1976 82.3867 67.1988 82.3288C66.6484 82.3143 66.2718 82.4737 65.8952 82.8647C64.2875 84.5304 62.7087 86.2251 61.014 87.7894C57.6826 90.8745 53.149 91.0049 49.5714 88.166C47.7754 86.7465 46.298 85.0084 44.7481 83.3427C44.0819 82.633 43.4301 82.2854 42.4162 82.3433C40.4753 82.4592 38.5344 82.4447 36.5935 82.4302C31.3502 82.4157 27.5408 78.6063 27.5408 73.3485C27.5408 71.2338 27.5698 69.1336 27.6277 67.0189C27.6422 66.4685 27.4973 66.0919 27.0918 65.7153C25.7013 64.3972 24.3977 62.9923 22.9782 61.7176C18.9226 58.0966 18.5895 52.3898 22.7899 48.2617C24.1949 46.8712 25.5854 45.4663 27.0338 44.1337C27.4973 43.6992 27.6422 43.2502 27.6277 42.6418C27.5698 40.6719 27.4684 38.6876 27.5408 36.7177C27.6422 34.154 28.1781 31.7351 30.1769 29.9391Z" fill="white"/>
<path d="M69.4294 59.6174C69.3425 62.8764 67.1843 65.078 63.9109 65.1215C60.7533 65.1794 58.3779 62.6736 58.4213 59.5016C58.4648 56.344 60.8837 53.9541 63.9833 54.012C67.1409 54.0844 69.4584 56.4599 69.4294 59.6174ZM60.6374 59.5161C60.6085 61.4714 61.999 62.9199 63.9254 62.9343C65.7794 62.9343 67.1699 61.5728 67.2133 59.6754C67.2568 57.7345 65.8373 56.2571 63.9399 56.2571C62.1003 56.2426 60.6664 57.6765 60.6374 59.5161Z" fill="white"/>
<path d="M48.3258 49.4929C46.0807 49.4929 44.0529 48.2038 43.2707 46.2774C42.3293 43.9744 42.7638 41.6424 44.4295 40.0202C46.0228 38.4704 48.4996 38.0069 50.5274 38.847C50.9474 39.0208 51.2226 39.2091 50.8171 39.6581C50.7881 39.7015 50.7736 39.745 50.7446 39.7885C50.5274 40.165 50.368 40.643 50.0494 40.9182C49.6583 41.2658 49.2672 40.7299 48.8472 40.672C47.5146 40.4837 45.9069 41.2803 45.342 42.497C44.6757 43.9165 45.0233 45.5822 46.1531 46.5237C47.2829 47.4651 49.0789 47.552 50.2087 46.7119C51.4689 45.785 51.9903 44.1337 51.3964 42.7867C51.2081 42.3667 51.2806 42.1639 51.6716 42.0045C51.8744 41.9176 52.0627 41.7873 52.251 41.6714C53.1925 41.121 53.2215 41.121 53.5691 42.1349C54.7278 45.5242 52.6131 49.464 48.3258 49.4929Z" fill="white"/>
<path d="M63.1866 48.2326C61.7816 48.2036 60.7098 47.5953 60.1594 46.2917C59.6235 45.0316 59.6669 43.7715 60.6519 42.7286C61.7237 41.5843 62.839 40.4545 63.9833 39.3827C65.2289 38.224 66.7353 38.1081 68.0389 38.9627C69.3569 39.8172 69.9363 41.2946 69.5018 42.7286C69.328 43.3369 68.9659 43.8294 68.5313 44.2639C67.5609 45.2489 66.5904 46.2193 65.6055 47.1897C64.9392 47.8415 64.1571 48.2616 63.1866 48.2326ZM63.1576 46.002C63.3894 45.9875 63.5777 45.9586 63.737 45.8137C64.9682 44.7129 66.1704 43.5832 67.2422 42.3375C67.6188 41.8885 67.474 41.396 67.0829 41.0194C66.6629 40.6139 66.1704 40.469 65.6924 40.8746C64.4757 41.9464 63.3459 43.1197 62.2741 44.3363C61.9844 44.655 62.0134 45.0606 62.2162 45.4371C62.4189 45.8282 62.7521 45.9875 63.1576 46.002Z" fill="white"/>
<path d="M48.3402 64.0206C47.2105 64.0206 47.2105 64.0206 47.2105 62.9054C47.2105 61.7756 47.2105 61.7756 46.0517 61.7756C45.8344 61.7756 45.6027 61.7611 45.3854 61.7756C45.0378 61.8045 44.9509 61.6452 44.9944 61.341C44.9944 61.3121 44.9944 61.2976 44.9944 61.2686C44.9364 59.574 44.9364 59.5595 46.6166 59.5595C47.0801 59.5595 47.2394 59.4726 47.2394 58.9656C47.2249 57.242 47.2539 57.2565 49.0065 57.3144C49.3541 57.3289 49.47 57.4013 49.47 57.7634C49.4845 58.3428 49.1948 59.1105 49.6004 59.4581C49.9335 59.7333 50.6867 59.5595 51.2516 59.545C51.6137 59.5305 51.7006 59.6464 51.7151 59.994C51.773 61.7466 51.7875 61.7611 50.0784 61.7466C49.5859 61.7466 49.4121 61.877 49.47 62.3549C49.499 62.5288 49.47 62.7026 49.47 62.8764C49.441 64.0206 49.441 64.0206 48.3402 64.0206Z" fill="white"/>
<path d="M53.9022 53.9686C53.9022 52.8967 53.9022 52.8967 55.2782 52.8967C56.1328 52.8967 56.1328 52.8967 56.1328 54.2727C56.1328 55.1273 56.1328 55.0549 54.6844 55.1563C53.5835 55.2142 53.9601 54.5045 53.9022 53.9686Z" fill="white"/>
<path d="M41.634 55.127C40.5332 55.127 40.5332 55.127 40.5332 53.78C40.5332 52.9109 40.5332 52.9109 41.9381 52.9109C42.7638 52.9109 42.6768 52.9109 42.7782 54.3738C42.8651 55.4891 42.112 55.0401 41.634 55.127Z" fill="white"/>
<path d="M64.1571 70.2344C64.1571 69.1626 64.1571 69.1626 65.5331 69.1626C66.3876 69.1626 66.3876 69.1626 66.3876 70.5386C66.3876 71.3932 66.3876 71.3208 64.9392 71.4222C63.8384 71.4801 64.215 70.7704 64.1571 70.2344Z" fill="white"/>
<path d="M53.8298 66.8738C53.8298 65.802 53.8298 65.802 55.2058 65.802C56.0603 65.802 56.0603 65.802 56.0603 67.178C56.0603 68.0326 56.0603 67.9602 54.6119 68.0616C53.5111 68.1195 53.8877 67.3953 53.8298 66.8738Z" fill="white"/>
<defs>
<linearGradient id="paint0_linear" x1="0.172834" y1="54.91" x2="110.007" y2="54.91" gradientUnits="userSpaceOnUse">
<stop stop-color="#BCBEC0"/>
<stop offset="0.2456" stop-color="#8295A9"/>
<stop offset="0.5639" stop-color="#3C638D"/>
<stop offset="0.794" stop-color="#11457B"/>
<stop offset="0.9106" stop-color="#003974"/>
</linearGradient>
<linearGradient id="paint1_linear" x1="106.69" y1="54.9101" x2="3.48961" y2="54.9101" gradientUnits="userSpaceOnUse">
<stop stop-color="#BCBEC0"/>
<stop offset="0.2456" stop-color="#8295A9"/>
<stop offset="0.5639" stop-color="#3C638D"/>
<stop offset="0.794" stop-color="#11457B"/>
<stop offset="0.9106" stop-color="#003974"/>
</linearGradient>
</defs>
</svg>
