<svg width="111" height="111" viewBox="0 0 111 111" fill="none" xmlns="http://www.w3.org/2000/svg">
<path d="M55.5 111C86.1518 111 111 86.1518 111 55.5C111 24.8482 86.1518 0 55.5 0C24.8482 0 0 24.8482 0 55.5C0 86.1518 24.8482 111 55.5 111Z" fill="url(#paint0_linear)"/>
<path d="M55.5 107.662C84.3083 107.662 107.662 84.3083 107.662 55.5C107.662 26.6917 84.3083 3.33789 55.5 3.33789C26.6917 3.33789 3.33789 26.6917 3.33789 55.5C3.33789 84.3083 26.6917 107.662 55.5 107.662Z" fill="url(#paint1_linear)"/>
<path d="M55.5 59.8775C53.0991 59.8775 51.1519 57.9304 51.1519 55.5295C51.1519 53.1285 53.0991 51.1814 55.5 51.1814C57.901 51.1814 59.8481 53.1285 59.8481 55.5295C59.8481 57.9158 57.901 59.8775 55.5 59.8775ZM55.5 52.9089C54.0653 52.9089 52.8941 54.0801 52.8941 55.5148C52.8941 56.9495 54.0653 58.1207 55.5 58.1207C56.9347 58.1207 58.1059 56.9495 58.1059 55.5148C58.1059 54.0801 56.9347 52.9089 55.5 52.9089Z" fill="white"/>
<path d="M83.3159 70.4182C83.5501 70.9745 83.8722 71.2088 84.3114 71.1502C84.7799 71.077 85.1166 70.6378 85.0434 70.1547C83.7551 61.8538 74.6344 56.8031 66.8606 60.2288C65.2356 57.3447 65.2209 53.7287 66.846 50.8446C71.3404 52.8357 77.1671 51.7669 81.5152 48.1362C86.0828 44.3006 86.8148 34.8578 81.5591 29.5582C76.8889 24.8587 67.9586 24.1707 62.7468 29.5728C58.6915 33.7745 58.0766 39.3523 60.1994 44.1688C59.2917 44.6812 58.2962 45.0472 57.2568 45.2375C56.7883 45.3254 56.4662 45.7792 56.5541 46.2477C56.6419 46.7162 57.0958 47.0382 57.5642 46.9504C59.6724 46.5698 61.6488 45.5742 63.2006 44.1103C63.2592 44.0517 65.0599 42.2656 66.9045 40.421C67.1827 42.3242 68.6906 43.8467 70.6084 44.1103L67.2119 47.5067C65.0745 49.6441 63.9033 52.4843 63.9033 55.5148C63.9033 58.5452 65.0745 61.3854 67.2119 63.5228L70.6084 66.9193C68.7052 67.1974 67.1827 68.7053 66.9192 70.6085L63.5227 67.2121C61.3853 65.0746 58.5451 63.8888 55.5146 63.8888C52.4842 63.8888 49.644 65.06 47.5066 67.2121L44.1101 70.6085C43.8466 68.7053 42.3241 67.1828 40.4209 66.9046L43.8173 63.5082C45.9548 61.3707 47.126 58.5306 47.126 55.5001C47.126 52.4697 45.9548 49.6295 43.8173 47.4921L40.4209 44.0956C42.3241 43.8174 43.8466 42.3095 44.1101 40.4063C45.9548 42.251 47.7555 44.037 47.814 44.0956C49.3805 45.545 51.3569 46.5405 53.4651 46.9358C53.9335 47.0236 54.3874 46.7162 54.4752 46.233C54.563 45.7646 54.2556 45.3107 53.7725 45.2229C52.7477 45.0326 51.7815 44.6812 50.8738 44.1834C52.8648 39.689 52.2353 33.3206 48.1508 29.4118C43.1732 24.6538 34.2867 24.4927 29.4556 29.646C24.8293 34.5797 24.1998 43.8906 29.7776 48.1948C33.5255 51.8694 39.3522 52.9528 44.1687 50.8446C45.7644 53.714 45.7644 57.3155 44.1541 60.1849C39.3522 58.0767 33.5694 59.0723 29.763 62.6737C27.1864 65.1186 25.8688 69.1153 25.8688 72.1604C25.8688 75.2933 26.996 78.3238 29.0456 80.6954C30.9196 82.8622 34.0818 85.0728 37.039 85.0728C37.4636 85.0728 37.8296 84.7653 37.9028 84.3408C37.976 83.8723 37.6539 83.4185 37.1708 83.3453C35.0187 83.0086 33.1009 82.0862 31.5491 80.7686L37.449 74.8687C38.5762 75.5422 39.7474 75.7179 40.9479 75.3958L46.3061 80.754C44.7543 82.0716 42.8365 82.9939 40.6844 83.3306C40.2159 83.4038 39.8792 83.843 39.9524 84.3261C40.0256 84.7507 40.3916 85.0581 40.8161 85.0581C43.1732 85.0581 46.7014 83.155 48.2093 81.325C51.9425 77.5479 53.0112 71.6772 50.8445 66.8168C53.7139 65.221 57.33 65.221 60.1994 66.8461C58.2084 71.3259 58.5597 77.6064 62.9224 81.5153C68.2075 86.244 75.6006 86.4343 80.6807 82.0423C82.9938 80.0513 84.5749 77.2111 85.058 74.1807C85.1312 73.7122 84.8092 73.2584 84.326 73.1852C83.8429 73.112 83.4037 73.434 83.3305 73.9172C82.9938 76.0692 82.0715 77.9871 80.7539 79.5389L74.8394 73.6244C75.5421 72.4971 75.7324 71.3259 75.425 70.1108L80.7539 64.7818C82.0715 66.3483 82.9792 68.2661 83.3159 70.4182ZM80.7246 46.2623L75.4103 40.948C75.7178 39.7622 75.5421 38.4885 74.854 37.4344L80.7393 31.5492C82.4375 33.5256 83.4623 36.1022 83.4623 38.9131C83.4623 41.7093 82.4228 44.2859 80.7246 46.2623ZM79.4949 30.3048L73.6096 36.19C72.4677 35.4873 71.2819 35.297 70.0667 35.6044L64.7671 30.3048C68.9541 26.718 75.3078 26.718 79.4949 30.3048ZM61.6488 43.1587C60.0677 39.3083 60.8436 34.6968 63.552 31.5345L68.4563 36.4389C66.1286 38.3421 61.7659 43.0562 61.6488 43.1587ZM68.5881 39.8061C68.5881 39.1327 68.837 38.5032 69.2908 38.02C70.2863 37.0245 71.9406 36.8635 73.0386 37.9615C74.0488 38.9716 74.0488 40.5967 73.0679 41.6215C73.0679 41.6361 73.0679 41.6507 73.0533 41.6507C72.5555 42.1485 71.8967 42.412 71.2087 42.412C69.7593 42.4267 68.5881 41.2555 68.5881 39.8061ZM74.5758 42.5731L79.4949 47.4921C76.3326 50.2005 71.7211 50.9764 67.8415 49.3806C69.7886 47.0675 74.488 42.6755 74.5758 42.5731ZM41.9581 38.3421C42.2509 38.7667 42.3973 39.2791 42.3973 39.8061C42.3973 41.2408 41.2261 42.412 39.7914 42.412C39.1033 42.412 38.4445 42.1485 37.9467 41.6507C37.0098 40.7284 37.0537 38.8545 37.9467 37.9615C38.7812 37.1416 40.8308 36.9074 41.9581 38.3421ZM49.3952 43.2026C46.9356 41.1676 45.0178 38.5178 42.5729 36.4828L47.5066 31.5492C50.2443 34.7114 50.9909 39.323 49.3952 43.2026ZM46.2915 30.3048L40.9772 35.6191C39.7914 35.2824 38.4884 35.4727 37.4197 36.1608L31.5637 30.3048C35.7507 26.718 42.1045 26.718 46.2915 30.3048ZM30.334 31.5345L36.1753 37.3759C35.4579 38.5324 35.253 39.7475 35.6043 40.9919L30.334 46.2623C26.7472 42.0753 26.7472 35.7216 30.334 31.5345ZM38.9276 50.2151C36.1167 50.2151 33.5401 49.1903 31.5637 47.4921L36.4534 42.6023C38.4884 45.0326 41.1236 46.9504 43.1585 49.3953C41.8263 49.9516 40.4062 50.2151 38.9276 50.2151ZM43.1439 61.6635C41.1089 64.0938 38.4591 66.0116 36.4388 68.4565L31.5637 63.5814C34.7113 60.8876 39.279 60.1117 43.1439 61.6635ZM27.6109 72.175C27.6109 69.3641 28.6357 66.7875 30.334 64.8111L35.5897 70.0669C35.253 71.2966 35.4726 72.6142 36.1899 73.6683L30.3047 79.5535C28.6064 77.5771 27.6109 74.9859 27.6109 72.175ZM37.976 73.112C36.8341 72.0286 37.2001 70.184 38.0053 69.3202C38.7812 68.4857 40.3769 68.2954 41.4896 69.247C42.4705 70.0961 42.8365 71.8822 41.636 73.0827C40.6697 74.0489 39.0301 74.1221 37.976 73.112ZM47.5359 79.5682L42.5583 74.5906C45.0178 72.5556 46.9356 69.8912 49.3805 67.8562C49.9515 69.2177 51.1227 74.8687 47.5359 79.5682ZM67.8707 61.6928C71.7211 60.1263 76.3473 60.873 79.5095 63.5667L74.5905 68.4857C72.5994 66.0262 69.935 64.123 67.8707 61.6928ZM71.2087 68.6175C71.9114 68.6175 72.5555 68.8957 73.0533 69.3788C73.8731 70.4182 74.1074 72.0286 73.0386 73.0827C72.292 73.8293 71.1794 74.0489 70.1985 73.639C69.2615 73.2437 68.5881 72.3068 68.5881 71.2234C68.5881 69.7887 69.7593 68.6175 71.2087 68.6175ZM61.6634 67.8855C64.0936 69.9351 65.9968 72.6142 68.471 74.6052L63.5373 79.5389C60.8289 76.3767 60.0677 71.7504 61.6634 67.8855ZM64.7671 80.7686L70.096 75.4397C71.2965 75.7471 72.453 75.5568 73.5803 74.8687L79.5095 80.7979C75.3225 84.3701 68.9541 84.3554 64.7671 80.7686Z" fill="white"/>
<defs>
<linearGradient id="paint0_linear" x1="-0.00717357" y1="55.5" x2="111.007" y2="55.5" gradientUnits="userSpaceOnUse">
<stop stop-color="#BCBEC0"/>
<stop offset="0.2456" stop-color="#8295A9"/>
<stop offset="0.5639" stop-color="#3C638D"/>
<stop offset="0.794" stop-color="#11457B"/>
<stop offset="0.9106" stop-color="#003974"/>
</linearGradient>
<linearGradient id="paint1_linear" x1="107.655" y1="55.5" x2="3.34521" y2="55.5" gradientUnits="userSpaceOnUse">
<stop stop-color="#BCBEC0"/>
<stop offset="0.2456" stop-color="#8295A9"/>
<stop offset="0.5639" stop-color="#3C638D"/>
<stop offset="0.794" stop-color="#11457B"/>
<stop offset="0.9106" stop-color="#003974"/>
</linearGradient>
</defs>
</svg>
