<svg width="108" height="108" viewBox="0 0 108 108" fill="none" xmlns="http://www.w3.org/2000/svg">
<path d="M54 108C83.8234 108 108 83.8234 108 54C108 24.1766 83.8234 0 54 0C24.1766 0 0 24.1766 0 54C0 83.8234 24.1766 108 54 108Z" fill="url(#paint0_linear)"/>
<path d="M54 104.752C82.0297 104.752 104.752 82.0296 104.752 53.9999C104.752 25.9701 82.0297 3.24756 54 3.24756C25.9703 3.24756 3.24768 25.9701 3.24768 53.9999C3.24768 82.0296 25.9703 104.752 54 104.752Z" fill="url(#paint1_linear)"/>
<path d="M58.4157 43.3022C58.4157 43.3307 58.4157 43.3735 58.4157 43.402C58.2163 43.402 58.0168 43.402 57.8317 43.402C57.8317 43.3735 57.8317 43.3307 57.8317 43.3022C58.0168 43.3022 58.2163 43.3022 58.4157 43.3022Z" fill="white"/>
<path d="M51.8491 16.0676C51.322 16.3667 50.7095 16.2812 50.1398 16.3952C41.7356 18.0475 35.9667 22.9048 32.7618 30.7961C31.6934 33.4313 31.3088 36.2089 31.3088 39.0578C31.3231 42.804 31.3088 46.5645 31.3088 50.3108C31.3088 51.4076 31.5367 51.6355 32.6478 51.6355C36.3656 51.6355 40.0691 51.6355 43.7868 51.6355C44.8409 51.6355 45.083 51.3933 45.083 50.325C45.083 46.65 45.0973 42.975 45.083 39.3142C45.083 37.9895 45.2397 36.6932 45.724 35.4397C45.9947 34.7418 45.8237 34.3287 45.254 34.1293C44.7269 33.9441 44.2996 34.2005 44.0432 34.8557C43.4877 36.2232 43.3025 37.6619 43.2883 39.129C43.2883 40.1404 43.274 41.1659 43.2883 42.1773C43.2883 42.4622 43.217 42.5476 42.9179 42.5476C39.7699 42.5334 36.6077 42.5334 33.4597 42.5476C33.2318 42.5476 33.0894 42.5334 33.0894 42.2343C33.1036 39.186 32.9612 36.1235 33.8586 33.1464C35.8385 26.6225 39.9409 21.9932 46.2511 19.3865C48.3165 18.5318 50.4531 18.0333 52.6895 17.9193C53.1168 17.8908 53.0883 18.076 53.0883 18.3609C53.0883 21.4376 53.0741 24.5144 53.0883 27.5769C53.0883 27.99 52.9601 28.1182 52.5613 28.1609C50.3962 28.4173 48.5159 29.3005 46.8778 30.7391C46.422 31.138 46.3508 31.6508 46.6642 32.0496C46.9633 32.4485 47.5188 32.4769 48.0031 32.1208C48.1028 32.0496 48.1883 31.9784 48.288 31.8929C53.1595 27.933 60.2959 29.913 62.4183 35.8243C62.8029 36.9069 62.9026 38.0464 62.9026 39.186C62.9026 42.8752 62.9026 46.5645 62.9026 50.268C62.9026 51.4076 63.1163 51.6212 64.2701 51.6212C67.9593 51.6212 71.6486 51.6212 75.3521 51.6212C76.4347 51.6212 76.6768 51.3791 76.6768 50.3392C76.6483 46.1942 76.748 42.0348 76.6198 37.8898C76.5059 34.3572 75.5088 31.0668 73.8422 27.9615C73.5146 27.3632 73.0588 27.1781 72.5745 27.4202C72.0617 27.6909 71.9192 28.1752 72.2611 28.8019C73.6143 31.3089 74.4405 33.9726 74.7538 36.7929C74.9533 38.602 74.8393 40.4252 74.882 42.2343C74.8963 42.6758 74.5829 42.5191 74.3835 42.5191C71.5346 42.5334 68.6715 42.5191 65.8227 42.5191C64.6974 42.5191 64.7116 42.5191 64.6974 41.4223C64.6831 39.5848 64.7829 37.7616 64.3128 35.9525C63.2445 31.8929 59.6977 28.688 55.5383 28.1752C55.0113 28.104 54.8688 27.933 54.8688 27.406C54.8973 24.4147 54.8973 21.4234 54.8688 18.4179C54.8688 17.9478 54.9828 17.8623 55.4386 17.9051C60.9511 18.3894 65.5663 20.6684 69.3268 24.7138C69.5404 24.9417 69.7683 25.1839 69.9963 25.3975C70.3666 25.7394 70.7654 25.7252 71.1216 25.3975C71.4919 25.0699 71.5631 24.6426 71.2497 24.2153C70.6942 23.5031 70.0817 22.8478 69.4265 22.2353C66.0506 19.0873 62.1049 17.1074 57.561 16.3239C57.0482 16.2385 56.5069 16.2955 56.0226 16.0391C54.6409 16.0676 53.245 16.0676 51.8491 16.0676ZM38.1888 49.8407C36.6362 49.8407 35.0836 49.8265 33.5309 49.8549C33.1891 49.8549 33.0894 49.7695 33.1036 49.4276C33.1179 47.875 33.1179 46.3224 33.1036 44.7697C33.1036 44.4279 33.2033 44.3424 33.5452 44.3424C36.6504 44.3567 39.7557 44.3567 42.8752 44.3424C43.217 44.3424 43.3168 44.4279 43.3025 44.7697C43.2883 46.3081 43.2883 47.8323 43.3025 49.3706C43.3025 49.7695 43.1886 49.8692 42.804 49.8549C41.2513 49.8265 39.7272 49.8407 38.1888 49.8407ZM69.8681 49.8407C68.3154 49.8407 66.7628 49.8265 65.2102 49.8549C64.8256 49.8549 64.6974 49.7695 64.7116 49.3706C64.7401 47.8607 64.7401 46.3366 64.7116 44.8267C64.7116 44.4421 64.7971 44.3282 65.2102 44.3282C68.2727 44.3424 71.3495 44.3424 74.412 44.3282C74.7966 44.3282 74.9248 44.4136 74.9105 44.8125C74.882 46.3224 74.882 47.8465 74.9105 49.3564C74.9105 49.741 74.8251 49.8549 74.412 49.8549C72.9021 49.8265 71.3779 49.8407 69.8681 49.8407Z" fill="white"/>
<path d="M33.1036 57.4615C33.1036 56.4216 33.1178 55.396 33.1036 54.3562C33.0893 53.5158 32.3771 53.0742 31.7361 53.4588C31.4085 53.6582 31.3088 53.9859 31.3088 54.3277C31.2945 56.3931 31.2945 58.4728 31.3088 60.5382C31.3088 61.1935 31.6934 61.5923 32.2204 61.5781C32.7474 61.5638 33.0893 61.1792 33.1036 60.5097C33.1178 59.4984 33.1036 58.4728 33.1036 57.4615Z" fill="white"/>
<path d="M74.882 57.504C74.882 58.5011 74.882 59.4982 74.882 60.4953C74.882 61.0936 75.2238 61.5352 75.7366 61.5779C76.2352 61.6064 76.6767 61.2218 76.6767 60.6378C76.7052 58.5296 76.7052 56.4072 76.6767 54.2991C76.6767 53.6866 76.2636 53.3162 75.7651 53.3305C75.2523 53.3447 74.8962 53.7293 74.8962 54.3418C74.882 55.3959 74.8962 56.45 74.882 57.504Z" fill="white"/>
<path d="M45.0831 56.977C45.0831 56.2078 45.0973 55.4244 45.0831 54.6552C45.0688 53.9715 44.6985 53.5441 44.1572 53.5726C43.6301 53.5869 43.2883 53.9857 43.2883 54.6552C43.274 56.2078 43.274 57.7604 43.2883 59.3131C43.2883 59.9968 43.6729 60.4241 44.2142 60.3956C44.7412 60.3814 45.0688 59.9825 45.0831 59.3131C45.0973 58.5296 45.0831 57.7462 45.0831 56.977Z" fill="white"/>
<path d="M64.7259 56.9345C64.7259 56.1938 64.7259 55.4531 64.7259 54.7266C64.7116 53.9859 64.3698 53.5586 63.8142 53.5729C63.273 53.5871 62.9311 53.9859 62.9311 54.6982C62.9168 56.2365 62.9168 57.7607 62.9311 59.299C62.9311 59.997 63.3157 60.4101 63.857 60.3816C64.4125 60.3674 64.7544 59.9116 64.7401 59.1993C64.7116 58.4444 64.7259 57.6894 64.7259 56.9345Z" fill="white"/>
<path d="M70.7084 61.7345C70.7084 61.1647 70.7226 60.5807 70.7084 60.0109C70.6799 59.3842 70.338 59.0281 69.811 59.0281C69.284 59.0281 68.9279 59.3842 68.9279 60.0252C68.8994 61.2217 68.8994 62.404 68.9279 63.6005C68.9421 64.213 69.3267 64.5833 69.8253 64.5833C70.338 64.5833 70.6942 64.1987 70.7226 63.5862C70.7226 62.9595 70.7084 62.347 70.7084 61.7345Z" fill="white"/>
<path d="M39.0719 62.3899C39.0719 61.9483 39.1004 61.5068 39.0577 61.0794C39.015 60.5382 38.6446 60.2105 38.1603 60.239C37.6475 60.2675 37.3341 60.5666 37.3057 61.0652C37.2772 61.9341 37.2629 62.8172 37.2914 63.7004C37.3057 64.2274 37.6333 64.5408 38.1603 64.5835C38.6304 64.612 39.0007 64.2559 39.0435 63.7146C39.1147 63.2588 39.0719 62.8315 39.0719 62.3899Z" fill="white"/>
<path d="M39.0862 56.094C39.0862 55.7094 39.1147 55.339 39.0862 54.9544C39.0435 54.3846 38.6589 54.0001 38.1746 54.0428C37.6475 54.0855 37.3342 54.4131 37.3057 54.9402C37.2772 55.7094 37.2772 56.4928 37.3057 57.2762C37.3199 57.8033 37.6333 58.1309 38.1746 58.1594C38.6731 58.1879 39.015 57.8318 39.072 57.2477C39.072 57.205 39.072 57.1623 39.072 57.1338C39.0862 56.7777 39.0862 56.4358 39.0862 56.094Z" fill="white"/>
<path d="M70.7226 55.4385C70.7084 54.4841 70.4092 54.0283 69.7825 54.0426C69.1842 54.0568 68.8994 54.4841 68.9136 55.4243C68.9136 55.6807 68.9136 55.937 68.9421 56.1934C69.0133 56.6778 69.3267 56.9341 69.7967 56.9484C70.2668 56.9484 70.5944 56.692 70.6656 56.2077C70.7084 55.9513 70.7084 55.6949 70.7226 55.4385Z" fill="white"/>
<path d="M53.9572 72.0759C50.2252 72.1186 46.6926 72.5032 43.3167 73.771C41.8923 74.3123 40.5391 74.9817 39.3853 76.0073C38.958 76.3919 38.5734 76.8192 38.317 77.3463C37.8754 78.2437 38.0178 79.0841 38.5591 79.896C39.2428 80.9358 40.2542 81.5768 41.3083 82.1608C43.0461 83.1152 44.9406 83.6565 46.8778 84.0696C47.8321 84.269 48.7865 84.4257 49.7551 84.5254C50.3106 84.5824 50.738 84.8103 50.9231 85.38C51.0798 85.8643 50.9089 86.249 50.567 86.5766C50.3249 86.8045 50.0115 86.8757 49.6981 86.8472C45.8949 86.3914 42.2057 85.5937 38.9437 83.4143C37.8184 82.6594 36.8356 81.7335 36.2516 80.48C35.226 78.2579 35.9097 76.0928 37.7045 74.4405C39.6702 72.6314 42.0775 71.6486 44.5987 70.9649C48.4874 69.9108 52.4473 69.6259 56.4499 69.8965C59.2418 70.0817 61.9909 70.5518 64.6261 71.4776C66.7058 72.2041 68.6857 73.1442 70.2241 74.7823C71.5631 76.2067 72.1756 77.8591 71.5916 79.8105C71.207 81.0925 70.3666 82.0469 69.341 82.8731C68.059 83.9129 66.6061 84.6394 65.0819 85.2091C62.9595 86.0068 60.7517 86.4911 58.5153 86.7475C57.8031 86.833 57.3046 86.4341 57.2049 85.7646C57.1194 85.1806 57.5182 84.6109 58.1735 84.5111C59.6121 84.2832 61.0508 84.0696 62.461 83.6565C64.2273 83.1437 65.9223 82.4885 67.4607 81.4486C68.0447 81.0498 68.5575 80.5797 68.9849 80.01C69.7825 78.9274 69.7256 77.6739 68.7854 76.6056C68.002 75.6939 67.0049 75.0387 65.9366 74.5117C63.4154 73.2724 60.7232 72.6457 57.9598 72.3323C56.5781 72.1471 55.1964 72.1186 53.9572 72.0759Z" fill="white"/>
<path d="M53.8289 74.5544C55.7234 74.6114 57.6321 74.7823 59.3842 75.7367C59.8827 76.0074 60.3101 76.3635 60.6092 76.8478C61.2359 77.8164 60.9511 79.0129 59.9397 79.7963C59.0566 80.4801 58.031 80.8219 56.9627 81.0213C54.2705 81.5341 51.5926 81.4914 48.9859 80.537C48.5301 80.3661 48.1027 80.1382 47.7181 79.8391C46.2937 78.7423 46.308 77.0899 47.7609 76.0358C48.8719 75.2382 50.1539 74.9248 51.4786 74.7254C52.2478 74.6114 53.017 74.5829 53.8289 74.5544ZM53.8432 79.0699C54.2705 79.0414 54.7263 79.0271 55.1821 78.9844C56.2505 78.8705 57.3045 78.6853 58.2731 78.1867C58.5438 78.0443 58.6292 77.9303 58.3016 77.7452C58.0452 77.6027 57.7888 77.4888 57.5182 77.4033C55.9656 76.8763 54.356 76.805 52.7321 76.8905C51.6638 76.9475 50.6097 77.1611 49.6126 77.5885C49.4132 77.6739 49.0998 77.7594 49.0998 77.9588C49.0998 78.1725 49.4275 78.2437 49.6269 78.3292C50.9658 78.9274 52.3903 79.0129 53.8432 79.0699Z" fill="white"/>
<path d="M54.9685 85.9072C54.9542 86.5482 54.4272 87.061 53.772 87.0467C53.131 87.0325 52.6324 86.5197 52.6182 85.9072C52.6182 85.2662 53.131 84.7534 53.8004 84.7534C54.4842 84.7534 54.9827 85.252 54.9685 85.9072Z" fill="white"/>
<path d="M53.9999 91.9324C38.9865 91.9324 27.2207 86.4341 27.2207 79.4259C27.2207 72.4177 38.9865 66.9194 53.9999 66.9194C69.0134 66.9194 80.7791 72.4177 80.7791 79.4259C80.7791 86.4341 69.0134 91.9324 53.9999 91.9324ZM53.9999 69.341C39.428 69.341 29.6422 74.5544 29.6422 79.4259C29.6422 84.2974 39.428 89.5108 53.9999 89.5108C68.5718 89.5108 78.3576 84.2974 78.3576 79.4259C78.3576 74.5544 68.5718 69.341 53.9999 69.341Z" fill="white"/>
<defs>
<linearGradient id="paint0_linear" x1="-0.00697969" y1="54" x2="108.007" y2="54" gradientUnits="userSpaceOnUse">
<stop stop-color="#BCBEC0"/>
<stop offset="0.2456" stop-color="#8295A9"/>
<stop offset="0.5639" stop-color="#3C638D"/>
<stop offset="0.794" stop-color="#11457B"/>
<stop offset="0.9106" stop-color="#003974"/>
</linearGradient>
<linearGradient id="paint1_linear" x1="104.745" y1="53.9999" x2="3.25481" y2="53.9999" gradientUnits="userSpaceOnUse">
<stop stop-color="#BCBEC0"/>
<stop offset="0.2456" stop-color="#8295A9"/>
<stop offset="0.5639" stop-color="#3C638D"/>
<stop offset="0.794" stop-color="#11457B"/>
<stop offset="0.9106" stop-color="#003974"/>
</linearGradient>
</defs>
</svg>
