<svg width="111" height="111" viewBox="0 0 111 111" fill="none" xmlns="http://www.w3.org/2000/svg">
<path d="M55.5 111C86.1518 111 111 86.1518 111 55.5C111 24.8482 86.1518 0 55.5 0C24.8482 0 0 24.8482 0 55.5C0 86.1518 24.8482 111 55.5 111Z" fill="url(#paint0_linear)"/>
<path d="M55.5 107.662C84.3083 107.662 107.662 84.3083 107.662 55.5C107.662 26.6917 84.3083 3.33789 55.5 3.33789C26.6917 3.33789 3.33789 26.6917 3.33789 55.5C3.33789 84.3083 26.6917 107.662 55.5 107.662Z" fill="url(#paint1_linear)"/>
<path d="M55.3682 81.7936C48.912 81.7936 42.4558 81.8229 35.985 81.779C34.8284 81.7643 33.7011 81.3837 32.6617 80.8127C30.1583 79.4366 28.6211 77.3431 28.1087 74.5322C27.6841 72.2484 28.2112 70.1256 29.4555 68.1785C35.1651 59.2188 40.8601 50.2592 46.5696 41.2995C46.6868 41.1239 46.7453 40.9482 46.7453 40.7286C46.7453 38.108 46.7453 35.4875 46.7453 32.8816C46.7453 32.6473 46.7014 32.5595 46.4379 32.5449C43.3928 32.4131 41.0797 29.5144 41.5628 26.5132C41.9288 24.1708 43.9784 22.0627 46.8039 22.0627C52.6013 22.0627 58.3987 22.048 64.1815 22.0627C67.1387 22.0627 69.4226 24.3318 69.4958 27.2745C69.5543 29.8365 67.5779 32.1496 65.0452 32.5009C64.9574 32.5156 64.8842 32.5302 64.7963 32.5449C64.2693 32.6181 64.2693 32.6181 64.2693 33.1597C64.2693 35.6778 64.2693 38.1959 64.2693 40.7286C64.2693 40.9482 64.3132 41.1092 64.4304 41.2995C70.1399 50.2592 75.8349 59.2188 81.5444 68.1785C82.8181 70.1695 83.3159 72.3216 82.8913 74.6639C82.2032 78.3532 79.246 81.208 75.5274 81.735C75.0443 81.8082 74.5466 81.8229 74.0634 81.8229C67.8268 81.7936 61.6048 81.7936 55.3682 81.7936ZM55.4854 78.3093C61.3267 78.3093 67.1827 78.3093 73.024 78.3093C73.6096 78.3093 74.2098 78.3239 74.7954 78.2654C76.3912 78.1043 77.6795 77.3577 78.5725 76.0401C79.8755 74.0783 79.8608 72.0727 78.6018 70.0963C75.4542 65.1333 72.3066 60.1851 69.1444 55.2221C69.0419 55.0611 68.9102 54.9293 68.7345 54.8268C67.1973 53.9192 65.543 53.3628 63.7716 53.2018C61.0778 52.9383 58.5451 53.436 56.2466 54.8708C54.2702 56.1151 52.3524 57.4474 50.3907 58.7357C46.716 61.1513 42.734 62.015 38.4005 61.1659C38.1956 61.122 38.0785 61.1513 37.9614 61.3562C36.1021 64.2989 34.2428 67.2122 32.3835 70.1548C32.0029 70.7404 31.7247 71.37 31.593 72.0727C31.2855 73.7123 31.6808 75.1617 32.7203 76.4354C33.8036 77.7822 35.2676 78.3386 36.9658 78.3386C43.1439 78.3093 49.3073 78.3093 55.4854 78.3093ZM65.7772 49.9517C65.6894 49.82 65.6455 49.7468 65.6016 49.6736C64.1229 47.3605 62.6589 45.0474 61.1803 42.7342C60.8729 42.2658 60.7411 41.7826 60.7411 41.2263C60.7557 38.4301 60.7411 35.6485 60.7557 32.8523C60.7557 32.6327 60.7265 32.5449 60.4776 32.5156C59.9505 32.4424 59.526 32.1789 59.2625 31.7104C58.5744 30.5245 59.3649 29.0898 60.7264 29.0605C61.8684 29.0313 63.0249 29.0605 64.1668 29.0459C65.6162 29.0313 66.4653 27.5966 65.7333 26.3668C65.3527 25.7226 64.7378 25.547 64.0351 25.547C58.3548 25.547 52.6598 25.547 46.9796 25.547C46.8332 25.547 46.6721 25.5616 46.5257 25.5762C45.9694 25.6348 45.5302 25.913 45.252 26.3961C44.5493 27.6112 45.3838 29.0313 46.8332 29.0459C47.9751 29.0605 49.1316 29.0313 50.2735 29.0605C51.2251 29.0752 51.9718 29.7779 51.9864 30.7588C52.0157 31.564 51.5472 32.3399 50.5517 32.5156C50.2589 32.5741 50.2296 32.6913 50.2296 32.9255C50.2296 35.7071 50.2296 38.4887 50.2443 41.2556C50.2443 41.7973 50.0979 42.2804 49.8051 42.7342C46.6428 47.6972 43.4806 52.6601 40.3184 57.6231C40.2598 57.7109 40.172 57.7841 40.2013 57.9012C40.4209 57.9159 40.6258 57.9159 40.8161 57.9305C43.2024 58.0769 45.4424 57.5499 47.5066 56.364C48.8535 55.6027 50.0832 54.6804 51.3862 53.8313C52.8209 52.8944 54.197 51.8549 55.7635 51.1229C58.2669 49.9517 60.8875 49.454 63.6398 49.6443C64.3425 49.7029 65.0306 49.82 65.7772 49.9517Z" fill="white"/>
<path d="M67.739 62.5566C67.739 65.4406 65.3966 67.783 62.4979 67.7976C59.6138 67.8123 57.2275 65.426 57.2421 62.5419C57.2568 59.6432 59.5845 57.3155 62.4832 57.3155C65.4112 57.2862 67.7536 59.6286 67.739 62.5566ZM62.5125 60.7998C61.5463 60.7998 60.7557 61.5903 60.7557 62.5566C60.7557 63.5081 61.5609 64.2841 62.4979 64.2987C63.4495 64.2987 64.24 63.5081 64.2547 62.5712C64.2693 61.605 63.4641 60.7998 62.5125 60.7998Z" fill="white"/>
<path d="M50.2589 69.5546C50.2443 72.4387 47.8872 74.7957 45.0178 74.7957C42.1191 74.7957 39.7328 72.4094 39.7474 69.54C39.7767 66.6413 42.1337 64.2843 45.0325 64.2989C47.9019 64.2989 50.2589 66.6706 50.2589 69.5546ZM43.261 69.54C43.261 70.5062 44.0516 71.3114 45.0178 71.2968C45.9694 71.2968 46.7453 70.4916 46.7453 69.5546C46.7453 68.603 45.9694 67.8125 45.0178 67.7978C44.0516 67.7832 43.261 68.5738 43.261 69.54Z" fill="white"/>
<path d="M69.5104 71.2968C68.5442 71.2968 67.7536 70.4916 67.7536 69.54C67.7683 68.5737 68.5588 67.7832 69.5251 67.7978C70.4767 67.8124 71.2526 68.5884 71.2672 69.54C71.2672 70.4916 70.462 71.2968 69.5104 71.2968Z" fill="white"/>
<path d="M57.2421 69.54C57.2421 70.5062 56.4516 71.2968 55.4854 71.2968C54.5191 71.2968 53.7432 70.5062 53.7432 69.5253C53.7432 68.5591 54.5191 67.7978 55.4854 67.7978C56.4662 67.7832 57.2421 68.5591 57.2421 69.54Z" fill="white"/>
<path d="M62.4979 74.7809C61.517 74.7809 60.7557 73.9903 60.7557 73.0241C60.7704 72.0432 61.5463 71.282 62.5272 71.2966C63.4788 71.3112 64.2547 72.0871 64.2547 73.0387C64.2547 74.005 63.4641 74.7955 62.4979 74.7809Z" fill="white"/>
<defs>
<linearGradient id="paint0_linear" x1="-0.00717357" y1="55.5" x2="111.007" y2="55.5" gradientUnits="userSpaceOnUse">
<stop stop-color="#BCBEC0"/>
<stop offset="0.2456" stop-color="#8295A9"/>
<stop offset="0.5639" stop-color="#3C638D"/>
<stop offset="0.794" stop-color="#11457B"/>
<stop offset="0.9106" stop-color="#003974"/>
</linearGradient>
<linearGradient id="paint1_linear" x1="107.655" y1="55.5" x2="3.34521" y2="55.5" gradientUnits="userSpaceOnUse">
<stop stop-color="#BCBEC0"/>
<stop offset="0.2456" stop-color="#8295A9"/>
<stop offset="0.5639" stop-color="#3C638D"/>
<stop offset="0.794" stop-color="#11457B"/>
<stop offset="0.9106" stop-color="#003974"/>
</linearGradient>
</defs>
</svg>
