<svg aria-hidden="true" style="position:absolute;width:0;height:0" xmlns="http://www.w3.org/2000/svg" overflow="hidden">
  <defs>
    <symbol id="icon-odnoklassniki" viewBox="0 0 32 32">
      <path d="M19.34 23.253c1.7-0.387 3.324-1.059 4.8-1.987 1.112-0.744 1.411-2.248 0.667-3.36-0.715-1.069-2.139-1.392-3.247-0.737-3.4 2.127-7.72 2.127-11.12 0-1.129-0.712-2.62-0.373-3.333 0.753 0 0.003 0 0.005-0.003 0.007-0.712 1.129-0.373 2.621 0.756 3.333l0.003 0.003c1.473 0.927 3.096 1.6 4.795 1.984l-4.62 4.62c-0.943 0.927-0.96 2.44-0.037 3.383l0.040 0.040c0.459 0.472 1.080 0.707 1.699 0.707 0.62 0 1.24-0.235 1.7-0.707l4.561-4.539 4.539 4.541c0.96 0.927 2.493 0.901 3.421-0.060 0.904-0.937 0.904-2.424 0-3.36zM16 16.517c4.56-0.005 8.253-3.699 8.26-8.257 0-4.553-3.707-8.26-8.26-8.26s-8.26 3.707-8.26 8.263c0.007 4.56 3.701 8.253 8.26 8.255zM16 4.841c1.888 0.003 3.417 1.533 3.419 3.42 0 1.888-1.531 3.417-3.419 3.42-1.887-0.003-3.416-1.531-3.42-3.419 0.003-1.889 1.533-3.419 3.42-3.421z"></path>
    </symbol>

    <symbol id="icon-tiktok" viewBox="0 0 32 32">
      <path d="M16.707 0.027c1.747-0.027 3.48-0.013 5.213-0.027 0.107 2.040 0.84 4.12 2.333 5.56 1.493 1.48 3.6 2.16 5.653 2.387v5.373c-1.92-0.067-3.853-0.467-5.6-1.293-0.76-0.347-1.467-0.787-2.16-1.24-0.013 3.893 0.013 7.787-0.027 11.667-0.107 1.867-0.72 3.72-1.8 5.253-1.747 2.56-4.773 4.227-7.88 4.28-1.907 0.107-3.813-0.413-5.44-1.373-2.693-1.587-4.587-4.493-4.867-7.613-0.027-0.667-0.040-1.333-0.013-1.987 0.24-2.533 1.493-4.96 3.44-6.613 2.213-1.92 5.307-2.84 8.2-2.293 0.027 1.973-0.053 3.947-0.053 5.92-1.32-0.427-2.867-0.307-4.027 0.493-0.84 0.547-1.48 1.387-1.813 2.333-0.28 0.68-0.2 1.427-0.187 2.147 0.32 2.187 2.427 4.027 4.667 3.827 1.493-0.013 2.92-0.88 3.693-2.147 0.253-0.44 0.533-0.893 0.547-1.413 0.133-2.387 0.080-4.76 0.093-7.147 0.013-5.373-0.013-10.733 0.027-16.093z"></path>
    </symbol>

    <symbol id="icon-twitter" viewBox="0 0 32 32">
      <path d="M32 7.075c-1.175 0.525-2.444 0.875-3.769 1.031 1.356-0.813 2.394-2.1 2.887-3.631-1.269 0.75-2.675 1.3-4.169 1.594-1.2-1.275-2.906-2.069-4.794-2.069-3.625 0-6.563 2.938-6.563 6.563 0 0.512 0.056 1.012 0.169 1.494-5.456-0.275-10.294-2.888-13.531-6.862-0.563 0.969-0.887 2.1-0.887 3.3 0 2.275 1.156 4.287 2.919 5.463-1.075-0.031-2.087-0.331-2.975-0.819 0 0.025 0 0.056 0 0.081 0 3.181 2.263 5.838 5.269 6.437-0.55 0.15-1.131 0.231-1.731 0.231-0.425 0-0.831-0.044-1.237-0.119 0.838 2.606 3.263 4.506 6.131 4.563-2.25 1.762-5.075 2.813-8.156 2.813-0.531 0-1.050-0.031-1.569-0.094 2.913 1.869 6.362 2.95 10.069 2.95 12.075 0 18.681-10.006 18.681-18.681 0-0.287-0.006-0.569-0.019-0.85 1.281-0.919 2.394-2.075 3.275-3.394z"></path>
    </symbol>


    <symbol id="icon-facebook2" viewBox="0 0 32 32">
      <path
        d="M29 0H3C1.35 0 0 1.35 0 3v26c0 1.65 1.35 3 3 3h13V18h-4v-4h4v-2c0-3.306 2.694-6 6-6h4v4h-4c-1.1 0-2 .9-2 2v2h6l-1 4h-5v14h9c1.65 0 3-1.35 3-3V3c0-1.65-1.35-3-3-3z"/>
    </symbol>
    <symbol id="icon-instagram" viewBox="0 0 32 32">
      <path
        d="M16 2.881c4.275 0 4.781.019 6.462.094 1.563.069 2.406.331 2.969.55a4.952 4.952 0 0 1 1.837 1.194 5.015 5.015 0 0 1 1.2 1.838c.219.563.481 1.412.55 2.969.075 1.688.094 2.194.094 6.463s-.019 4.781-.094 6.463c-.069 1.563-.331 2.406-.55 2.969a4.94 4.94 0 0 1-1.194 1.837 5.02 5.02 0 0 1-1.837 1.2c-.563.219-1.413.481-2.969.55-1.688.075-2.194.094-6.463.094s-4.781-.019-6.463-.094c-1.563-.069-2.406-.331-2.969-.55a4.952 4.952 0 0 1-1.838-1.194 5.02 5.02 0 0 1-1.2-1.837c-.219-.563-.481-1.413-.55-2.969-.075-1.688-.094-2.194-.094-6.463s.019-4.781.094-6.463c.069-1.563.331-2.406.55-2.969a4.964 4.964 0 0 1 1.194-1.838 5.015 5.015 0 0 1 1.838-1.2c.563-.219 1.412-.481 2.969-.55 1.681-.075 2.188-.094 6.463-.094zM16 0c-4.344 0-4.887.019-6.594.094-1.7.075-2.869.35-3.881.744-1.056.412-1.95.956-2.837 1.85a7.833 7.833 0 0 0-1.85 2.831C.444 6.538.169 7.7.094 9.4.019 11.113 0 11.656 0 16s.019 4.887.094 6.594c.075 1.7.35 2.869.744 3.881.413 1.056.956 1.95 1.85 2.837a7.82 7.82 0 0 0 2.831 1.844c1.019.394 2.181.669 3.881.744 1.706.075 2.25.094 6.594.094s4.888-.019 6.594-.094c1.7-.075 2.869-.35 3.881-.744 1.05-.406 1.944-.956 2.831-1.844s1.438-1.781 1.844-2.831c.394-1.019.669-2.181.744-3.881.075-1.706.094-2.25.094-6.594s-.019-4.887-.094-6.594c-.075-1.7-.35-2.869-.744-3.881a7.506 7.506 0 0 0-1.831-2.844A7.82 7.82 0 0 0 26.482.843C25.463.449 24.301.174 22.601.099c-1.712-.081-2.256-.1-6.6-.1z"/>
      <path
        d="M16 7.781c-4.537 0-8.219 3.681-8.219 8.219s3.681 8.219 8.219 8.219 8.219-3.681 8.219-8.219A8.221 8.221 0 0 0 16 7.781zm0 13.55a5.331 5.331 0 1 1 0-10.663 5.331 5.331 0 0 1 0 10.663zM26.462 7.456a1.919 1.919 0 1 1-3.838 0 1.919 1.919 0 0 1 3.838 0z"/>
    </symbol>
    <symbol id="icon-vk" viewBox="0 0 32 32">
      <path
        d="M29 0H3C1.35 0 0 1.35 0 3v26c0 1.65 1.35 3 3 3h26c1.65 0 3-1.35 3-3V3c0-1.65-1.35-3-3-3zm-3.081 22.4l-2.925.044s-.631.125-1.456-.444c-1.094-.75-2.125-2.706-2.931-2.45-.813.256-.788 2.012-.788 2.012s.006.375-.181.575c-.2.219-.6.262-.6.262h-1.306s-2.888.175-5.431-2.475c-2.775-2.887-5.225-8.619-5.225-8.619s-.144-.375.013-.556c.175-.206.644-.219.644-.219l3.131-.019s.294.05.506.206c.175.125.269.369.269.369s.506 1.281 1.175 2.438c1.306 2.256 1.919 2.75 2.362 2.513.644-.35.45-3.194.45-3.194s.012-1.031-.325-1.488c-.262-.356-.756-.463-.969-.488-.175-.025.113-.431.488-.619.563-.275 1.556-.294 2.731-.281.913.006 1.181.069 1.538.15 1.081.262.712 1.269.712 3.681 0 .775-.137 1.863.419 2.219.238.156.825.025 2.294-2.469.694-1.181 1.219-2.569 1.219-2.569s.113-.25.288-.356c.181-.106.425-.075.425-.075l3.294-.019s.988-.119 1.15.331c.169.469-.369 1.563-1.712 3.356-2.206 2.944-2.456 2.669-.619 4.369 1.75 1.625 2.113 2.419 2.175 2.519.712 1.2-.813 1.294-.813 1.294z"/>
    </symbol>
    <symbol id="icon-youtube" viewBox="0 0 32 32">
      <path
        d="M31.681 9.6s-.313-2.206-1.275-3.175C29.187 5.15 27.825 5.144 27.2 5.069c-4.475-.325-11.194-.325-11.194-.325h-.012s-6.719 0-11.194.325c-.625.075-1.987.081-3.206 1.356C.631 7.394.325 9.6.325 9.6s-.319 2.588-.319 5.181v2.425c0 2.587.319 5.181.319 5.181s.313 2.206 1.269 3.175c1.219 1.275 2.819 1.231 3.531 1.369 2.563.244 10.881.319 10.881.319s6.725-.012 11.2-.331c.625-.075 1.988-.081 3.206-1.356.962-.969 1.275-3.175 1.275-3.175s.319-2.587.319-5.181v-2.425c-.006-2.588-.325-5.181-.325-5.181zM12.694 20.15v-8.994l8.644 4.513-8.644 4.481z"/>
    </symbol>

    <symbol id="icon-viber" viewBox="0 0 32 32">
      <path fill="#665cac" style="fill: var(--color1, #665cac)" d="M15.197 0.003c-2.567 0.035-8.089 0.456-11.179 3.287-2.293 2.28-3.095 5.641-3.188 9.804-0.080 4.147-0.173 11.933 7.333 14.055v3.227c0 0-0.051 1.293 0.803 1.56 1.053 0.333 1.653-0.665 2.653-1.732l1.867-2.107c5.133 0.427 9.067-0.559 9.52-0.705 1.040-0.333 6.908-1.081 7.868-8.869 0.987-8.041-0.48-13.108-3.12-15.401l-0.013-0.003c-0.8-0.733-4-3.067-11.16-3.093 0 0-0.528-0.033-1.384-0.021zM15.287 2.265c0.727-0.004 1.173 0.027 1.173 0.027 6.053 0.013 8.948 1.84 9.628 2.453 2.227 1.905 3.371 6.475 2.533 13.189-0.8 6.507-5.56 6.92-6.44 7.2-0.373 0.12-3.84 0.973-8.203 0.693 0 0-3.252 3.921-4.265 4.935-0.16 0.173-0.347 0.227-0.467 0.2-0.173-0.040-0.227-0.253-0.213-0.547l0.027-5.359c-6.361-1.76-5.988-8.403-5.921-11.869 0.080-3.467 0.733-6.309 2.667-8.229 2.609-2.36 7.3-2.68 9.481-2.693zM15.767 5.732c-0 0-0.001 0-0.001 0-0.22 0-0.399 0.178-0.399 0.399 0 0 0 0 0 0v0c0 0.221 0.179 0.4 0.4 0.4v0c0.043-0.001 0.093-0.001 0.143-0.001 2.034 0 3.88 0.809 5.232 2.123l-0.002-0.002c1.453 1.413 2.161 3.307 2.188 5.787 0 0.221 0.179 0.4 0.4 0.4v0-0.012c0.221 0 0.4-0.179 0.4-0.4v0c0.005-0.109 0.008-0.236 0.008-0.364 0-2.326-0.923-4.436-2.423-5.985l0.002 0.002c-1.587-1.547-3.589-2.347-5.948-2.347zM10.495 6.652c-0.054-0.008-0.116-0.013-0.18-0.013-0.236 0-0.457 0.064-0.646 0.176l0.006-0.003h-0.016c-0.547 0.32-1.051 0.72-1.531 1.253-0.36 0.427-0.561 0.852-0.615 1.265-0.009 0.064-0.014 0.137-0.014 0.212 0 0.182 0.029 0.357 0.084 0.521l-0.003-0.012 0.027 0.013c0.458 1.331 0.998 2.476 1.646 3.549l-0.046-0.082c0.895 1.608 1.922 2.996 3.101 4.237l-0.008-0.009 0.040 0.053 0.053 0.040 0.080 0.080c1.236 1.174 2.628 2.205 4.136 3.053l0.104 0.054c1.76 0.96 2.829 1.413 3.469 1.6v0.013c0.187 0.053 0.357 0.080 0.531 0.080 0.57-0.043 1.079-0.274 1.471-0.631l-0.002 0.002c0.52-0.467 0.933-0.984 1.24-1.531v-0.013c0.307-0.573 0.2-1.121-0.24-1.495-0.845-0.742-1.782-1.421-2.781-2.007l-0.085-0.046c-0.68-0.373-1.373-0.147-1.653 0.227l-0.6 0.759c-0.307 0.373-0.867 0.32-0.867 0.32l-0.016 0.013c-4.16-1.067-5.267-5.279-5.267-5.279s-0.053-0.573 0.333-0.867l0.747-0.6c0.36-0.293 0.613-0.987 0.227-1.667-0.631-1.084-1.31-2.022-2.071-2.887l0.017 0.020c-0.166-0.204-0.399-0.349-0.665-0.399l-0.007-0.001zM16.459 7.839c-0.22 0.001-0.399 0.18-0.399 0.4s0.179 0.4 0.4 0.4c0 0 0.001 0 0.001 0h-0c1.388 0.025 2.636 0.607 3.532 1.532l0.001 0.001c0.75 0.825 1.209 1.926 1.209 3.134 0 0.103-0.003 0.205-0.010 0.306l0.001-0.014c0.001 0.22 0.18 0.399 0.4 0.399 0 0 0 0 0 0v0l0.013 0.016c0 0 0 0 0 0 0.221 0 0.4-0.179 0.4-0.4 0-0 0-0.001 0-0.001v0c0.040-1.587-0.453-2.92-1.427-3.987s-2.333-1.667-4.067-1.787c-0.008-0.001-0.018-0.001-0.028-0.001s-0.020 0-0.029 0.001l0.001-0zM17.112 9.997c-0.004-0-0.008-0-0.012-0-0.225 0-0.407 0.182-0.407 0.408 0 0.221 0.176 0.401 0.395 0.407h0.001c1.32 0.067 1.96 0.733 2.040 2.107 0.007 0.215 0.184 0.387 0.4 0.387 0 0 0 0 0 0h0.013c0.215-0.007 0.388-0.183 0.388-0.4 0-0.009-0-0.019-0.001-0.028l0 0.001c-0.093-1.787-1.067-2.788-2.8-2.881-0.002-0-0.005-0-0.008-0s-0.006 0-0.008 0h0z"></path>
    </symbol>
    <symbol id="icon-whatsapp" viewBox="0 0 32 32">
      <path d="M27.281 4.65c-2.994-3-6.975-4.65-11.219-4.65-8.738 0-15.85 7.112-15.85 15.856 0 2.794 0.731 5.525 2.119 7.925l-2.25 8.219 8.406-2.206c2.319 1.262 4.925 1.931 7.575 1.931h0.006c0 0 0 0 0 0 8.738 0 15.856-7.113 15.856-15.856 0-4.238-1.65-8.219-4.644-11.219zM16.069 29.050v0c-2.369 0-4.688-0.637-6.713-1.837l-0.481-0.288-4.987 1.306 1.331-4.863-0.313-0.5c-1.325-2.094-2.019-4.519-2.019-7.012 0-7.269 5.912-13.181 13.188-13.181 3.519 0 6.831 1.375 9.319 3.862 2.488 2.494 3.856 5.8 3.856 9.325-0.006 7.275-5.919 13.188-13.181 13.188zM23.294 19.175c-0.394-0.2-2.344-1.156-2.706-1.288s-0.625-0.2-0.894 0.2c-0.262 0.394-1.025 1.288-1.256 1.556-0.231 0.262-0.462 0.3-0.856 0.1s-1.675-0.619-3.188-1.969c-1.175-1.050-1.975-2.35-2.206-2.744s-0.025-0.613 0.175-0.806c0.181-0.175 0.394-0.463 0.594-0.694s0.262-0.394 0.394-0.662c0.131-0.262 0.069-0.494-0.031-0.694s-0.894-2.15-1.219-2.944c-0.319-0.775-0.65-0.669-0.894-0.681-0.231-0.012-0.494-0.012-0.756-0.012s-0.694 0.1-1.056 0.494c-0.363 0.394-1.387 1.356-1.387 3.306s1.419 3.831 1.619 4.1c0.2 0.262 2.794 4.269 6.769 5.981 0.944 0.406 1.681 0.65 2.256 0.837 0.95 0.3 1.813 0.256 2.494 0.156 0.762-0.113 2.344-0.956 2.675-1.881s0.331-1.719 0.231-1.881c-0.094-0.175-0.356-0.275-0.756-0.475z"></path>
    </symbol>
    <symbol id="icon-telegram" viewBox="0 0 32 32">
      <path d="M16 0c-8.838 0-16 7.162-16 16s7.162 16 16 16 16-7.163 16-16-7.163-16-16-16zM23.863 10.969l-2.625 12.369c-0.181 0.881-0.712 1.087-1.45 0.681l-4-2.956-1.919 1.869c-0.225 0.219-0.4 0.4-0.8 0.4-0.519 0-0.431-0.194-0.606-0.688l-1.363-4.475-3.956-1.231c-0.856-0.262-0.862-0.85 0.194-1.269l15.412-5.95c0.7-0.319 1.381 0.169 1.113 1.25z"></path>
    </symbol>
    <symbol id="icon-imo" viewBox="0 0 128 128">
      <path d="M65.05,1.05A63,63,0,0,0,10.67,95.73c.23.4,2.16,4-1.68,7.84a107.63,107.63,0,0,1-8.22,7.19A2.06,2.06,0,0,0,0,112.22a2,2,0,0,0,.59,1.53c.63.63,3.42,2.69,13,2.69a50.3,50.3,0,0,0,11.38-1.32,14.59,14.59,0,0,1,2.76-.44A63,63,0,1,0,65.05,1.05Zm0,121.9A58.54,58.54,0,0,1,30,111.4a3.79,3.79,0,0,0-2.38-.72,17.73,17.73,0,0,0-3.51.53,46.27,46.27,0,0,1-10.54,1.23,35.84,35.84,0,0,1-7.67-.68c1.72-1.44,4-3.42,5.93-5.36,4.84-4.85,3.73-10.26,2.3-12.69A59,59,0,1,1,65.05,123Z"/><path d="M32,54a2,2,0,0,0-2,2V78a2,2,0,0,0,4,0V56A2,2,0,0,0,32,54Z"/><path d="M68,54a10.53,10.53,0,0,0-8,3.24A9.19,9.19,0,0,0,53,54a11.59,11.59,0,0,0-6,1.6,2,2,0,0,0-4,.4V78a2,2,0,0,0,4,0V63c0-4.51,4.2-5,6-5a4.82,4.82,0,0,1,5,5V78a2,2,0,0,0,4,0V63c0-4.51,4.2-5,6-5a4.82,4.82,0,0,1,5,5V78a2,2,0,0,0,4,0V63A8.81,8.81,0,0,0,68,54Z"/><path d="M93.5,54C86.73,54,82,59.35,82,67s4.73,13,11.5,13S105,74.78,105,67,100.27,54,93.5,54Zm0,22c-4.56,0-7.5-3.53-7.5-9s2.94-9,7.5-9,7.5,3.53,7.5,9S98.13,76,93.5,76Z"/><circle cx="32" cy="49" r="2"/>
    </symbol>

    <symbol id="icon-rutube" viewBox="0 0 526 526" fill="none">
      <path d="M410.375 7H115.623C55.6322 7 7 55.6322 7 115.623V410.375C7 470.366 55.6322 518.998 115.623 518.998H410.375C470.366 518.998 518.998 470.366 518.998 410.375V115.623C518.998 55.6322 470.366 7 410.375 7Z" fill="#163E73"/>
      <path d="M426.52 149.348C444.385 149.348 458.868 134.865 458.868 117C458.868 99.1346 444.385 84.6519 426.52 84.6519C408.655 84.6519 394.172 99.1346 394.172 117C394.172 134.865 408.655 149.348 426.52 149.348Z" fill="#F41240"/>
      <path d="M330.396 145.772H103.054V398.5H166.331V316.278H287.58L342.9 398.5H413.755L352.751 315.899C371.696 312.868 385.337 305.669 393.673 294.302C402.009 282.935 406.177 264.747 406.177 240.498V221.552C406.177 207.154 404.661 195.787 402.009 187.072C399.356 178.358 394.809 170.779 388.368 163.959C381.548 157.518 373.97 152.971 364.876 149.94C355.782 147.287 344.415 145.772 330.396 145.772ZM320.166 260.579H166.331V201.471H320.166C328.88 201.471 334.943 202.986 337.974 205.639C341.005 208.291 342.9 213.217 342.9 220.416V241.634C342.9 249.212 341.005 254.138 337.974 256.79C334.943 259.443 328.88 260.579 320.166 260.579Z" fill="white"/>
      <path d="M410.375 7H115.623C55.6322 7 7 55.6322 7 115.623V410.375C7 470.366 55.6322 518.998 115.623 518.998H410.375C470.366 518.998 518.998 470.366 518.998 410.375V115.623C518.998 55.6322 470.366 7 410.375 7Z" stroke="white" stroke-width="13.9344"/>
      <path d="M426.52 149.348C444.385 149.348 458.868 134.865 458.868 117C458.868 99.1346 444.385 84.6519 426.52 84.6519C408.655 84.6519 394.172 99.1346 394.172 117C394.172 134.865 408.655 149.348 426.52 149.348Z" stroke="white" stroke-width="13.9344"/>
      <path d="M330.396 145.772H103.054V398.5H166.331V316.278H287.58L342.9 398.5H413.755L352.751 315.899C371.696 312.868 385.337 305.669 393.673 294.302C402.009 282.935 406.177 264.747 406.177 240.498V221.552C406.177 207.154 404.661 195.787 402.009 187.072C399.356 178.358 394.809 170.779 388.368 163.959C381.548 157.518 373.97 152.971 364.876 149.94C355.782 147.287 344.415 145.772 330.396 145.772ZM320.166 260.579H166.331V201.471H320.166C328.88 201.471 334.943 202.986 337.974 205.639C341.005 208.291 342.9 213.217 342.9 220.416V241.634C342.9 249.212 341.005 254.138 337.974 256.79C334.943 259.443 328.88 260.579 320.166 260.579Z" stroke="white" stroke-width="13.9344"/>
      <path d="M407.995 19.9448H117.768C64.2464 19.9448 20.8589 63.3323 20.8589 116.853V408.38C20.8589 461.901 64.2464 505.289 117.768 505.289H407.995C461.516 505.289 504.904 461.901 504.904 408.38V116.853C504.904 63.3323 461.516 19.9448 407.995 19.9448Z" stroke="white" stroke-width="13.9344"/>
      <path d="M410.375 13.9672H115.623C59.4801 13.9672 13.9672 59.4801 13.9672 115.623V410.375C13.9672 466.518 59.4801 512.031 115.623 512.031H410.375C466.518 512.031 512.031 466.518 512.031 410.375V115.623C512.031 59.4801 466.518 13.9672 410.375 13.9672Z" stroke="white" stroke-width="13.9344"/>
    </symbol>

    <symbol id="icon-dzen" viewBox="0 0 50 50" style="enable-background:new 0 0 50 50;" xml:space="preserve">
      <g>
        <path d="M46.894,23.986c0.004,0,0.007,0,0.011,0c0.279,0,0.545-0.117,0.734-0.322c0.192-0.208,0.287-0.487,0.262-0.769
          C46.897,11.852,38.154,3.106,27.11,2.1c-0.28-0.022-0.562,0.069-0.77,0.262c-0.208,0.192-0.324,0.463-0.321,0.746
          C26.193,17.784,28.129,23.781,46.894,23.986z"/>
        <path d="M46.894,26.014c-18.765,0.205-20.7,6.202-20.874,20.878c-0.003,0.283,0.113,0.554,0.321,0.746
          c0.186,0.171,0.429,0.266,0.679,0.266c0.03,0,0.061-0.001,0.091-0.004c11.044-1.006,19.787-9.751,20.79-20.795
          c0.025-0.282-0.069-0.561-0.262-0.769C47.446,26.128,47.177,26.025,46.894,26.014z"/>
        <path d="M22.823,2.105C11.814,3.14,3.099,11.884,2.1,22.897c-0.025,0.282,0.069,0.561,0.262,0.769
          c0.189,0.205,0.456,0.321,0.734,0.321c0.004,0,0.008,0,0.012,0c18.703-0.215,20.634-6.209,20.81-20.875
          c0.003-0.283-0.114-0.555-0.322-0.747C23.386,2.173,23.105,2.079,22.823,2.105z"/>
        <path d="M3.107,26.013c-0.311-0.035-0.555,0.113-0.746,0.321c-0.192,0.208-0.287,0.487-0.262,0.769
          c0.999,11.013,9.715,19.757,20.724,20.792c0.031,0.003,0.063,0.004,0.094,0.004c0.25,0,0.492-0.094,0.678-0.265
          c0.208-0.192,0.325-0.464,0.322-0.747C23.741,32.222,21.811,26.228,3.107,26.013z"/>
      </g>
    </symbol>


  </defs>
</svg>
